<?xml version="1.0" encoding="utf-8"?>
<!-- Generator: Adobe Illustrator 25.2.3, SVG Export Plug-In . SVG Version: 6.00 Build 0)  -->
<svg version="1.1" id="レイヤー_1" xmlns="http://www.w3.org/2000/svg" xmlns:xlink="http://www.w3.org/1999/xlink" x="0px"
	 y="0px" viewBox="0 0 286 62.1" style="enable-background:new 0 0 286 62.1;" xml:space="preserve">
<style type="text/css">
	.st0{enable-background:new    ;}
	.st1{fill:#2A2A2A;}
</style>
<g class="st0">
	<path class="st1" d="M10.8,24.9c-0.5-0.3-2.4-2.3-4.1-4.3c-0.8-0.9-0.5-1.2,1.1-1.1c4,0.4,5.7,2.2,5.6,3.6
		C13.3,25.1,12.2,25.8,10.8,24.9z M12.6,44c-0.8,3.1-1.7,3.3-3.5-0.3c-1.5-2.9-1.4-3.4-0.8-3.6c0.9-0.3,2.1-1.3,2.7-2.3
		c1.7-3,4.2-7.1,5.3-9c1.7-2.8,2.4-2.3,1.2,0.8C16.1,33.2,13.8,39.4,12.6,44z M15.6,14.6c-1.3-0.8-3.2-2.9-4.6-4.7
		c-0.8-1-0.4-1.5,1.2-1.3c3.1,0.3,5.6,1.8,5.9,3.9C18.4,14.4,17,15.4,15.6,14.6z M46.7,21.9c-2.2-0.2-8.3,0.2-14.3,0.9
		c-3.9,0.5-7.8,1.2-10.5,2.1c-1.7,0.5-3.1,0.5-4.3,0.1c-1.6-0.6-1.5-1.5-0.3-1.6c0.8-0.1,7.4-1.1,13.9-2.2l0.1-3.3
		c-2.6,0.3-4.8,0.4-5.5,0.2c-1.7-0.6-1.7-1.1,0-1.4c1.9-0.4,3.7-0.8,5.6-1.1l0.1-3.5c-2.8,0.5-4.6,0.7-5.8,0.6
		c-1.9-0.2-2.4-1.2-0.9-1.6c2.1-0.4,4.4-1,6.7-1.5c-0.1-3.1-0.6-5.9-1-6.4c-1.7-2-1.1-2.5,2-1.9c2.5,0.5,3,1.5,2.4,2.8
		C34.6,4.6,34.4,7,34.2,9c1.1-0.3,2.3-0.6,3.4-0.9c1.6-0.5,3.3-0.6,4.2,0.1c0.7,0.5,0.6,1.2-1.2,1.7c-2.4,0.7-4.6,1.3-6.5,1.7
		L33.8,15c1-0.3,2-0.5,2.9-0.7c1.5-0.4,2.6-0.3,3.2,0c0.6,0.4,0.5,1.1-1.3,1.8c-1.4,0.5-3,1-4.9,1.4l-0.1,3.4
		c5.2-0.9,10-1.7,11.1-1.9c2.9-0.7,5.8-0.1,7,1.3C52.9,21.5,51.4,22.3,46.7,21.9z M39.5,51.2c-0.6,0.9-1.3,1.1-1.8,0.2
		c-0.8-1.4-2.9-3.7-4.2-4.8c-0.9-0.7-0.5-1.2,0.5-1c3.1,0.5,3.5,0.2,3.7-1.6c0.4-4.9,0.3-8.7-0.4-13.2c-0.5-3.6-0.7-3.9-3.7-3.3
		c-2.8,0.6-4.5,0.8-5.9,0.9c0.2,0.9,0.2,2.3,0.2,4.5c3.5-1.4,5.1-1.6,6-1.2c1.5,0.5,1.8,1.2-0.2,1.7c-3,0.8-4.4,1.1-5.9,1
		c-0.1,1.7-0.2,3.1-0.3,4.4c4.8-1.5,5.9-1.6,6.8-1.4c1.5,0.3,1.6,1.2,0.1,1.7c-3.6,1-5.5,1.3-6.9,1c-0.4,4.8-1,6.7-1.9,8.3
		c-0.6,1-1.7,0.8-2.1-0.4c-0.3-1.2-0.1-3,0.9-5.1c1.3-2.6,1.5-12.5,0.6-13.5c-1.5-1.7-1-2.6,1.5-2c2.6-0.3,7.5-1.4,9.2-2.3
		c1.1-0.5,1.7-0.5,3.7,0.9c2.5,1.7,2.4,2.1,1.3,3.2c-0.5,0.6-0.8,4.3-0.4,6.8c0.4,2.5,0.6,4.4,1.1,8.6
		C41.6,46.5,40.8,49.6,39.5,51.2z"/>
	<path class="st1" d="M65.9,21.1c4.4,0.5,5.5,2.8,4.6,5c-0.4,1.1-0.9,1.1-1.7,0.5C67.4,25.3,66,23.7,65,22
		C64.5,21.2,64.6,21,65.9,21.1z M69.3,43.6c-0.8,2.7-2,2.8-3.8-1.7c-0.8-1.9-0.4-2.6,0.5-2.7c1.1-0.1,1.7-0.4,3.2-2.1
		c0.9-1,4.4-5.8,5.6-7.6c1.3-2,2.3-1.6,0.9,1C71.3,38.4,69.7,41.9,69.3,43.6z M70.4,9.2c4.2,0.2,5.3,2.3,4.6,5.1
		c-0.3,1.1-0.9,1.2-1.8,0.4c-1.6-1.2-2.6-2.5-3.9-4.3C68.6,9.3,68.6,9.1,70.4,9.2z M82.5,23.4c-1.6,0.4-3.2,0.9-4.1,1.3
		c-1.5,0.5-1.9,0.5-2.9-0.3c-1.6-1.1-1.3-1.7,0.5-1.6c1.2,0.1,3-0.2,6.6-1.1c-0.1-0.8-0.1-1.8,0-2.9c-1.6,0.3-2.6,0.3-4.2-0.1
		c-0.6-0.2-0.6-0.9,0.2-1c1.2-0.2,2.5-0.3,4-0.7c0-1.2,0-2.4,0-3.4c-2.5,0.4-3.3,0.3-4.9-0.1c-1-0.3-1-0.8-0.1-0.9
		c1.6-0.2,3.1-0.4,5-0.9c0-2.9-0.3-4.7-1.1-6c-0.6-1.1,0-1.8,2.3-1c2.6,0.9,2.6,1.6,2.1,3c-0.3,0.6-0.4,1.5-0.6,3.2
		c2.1-0.5,3.1-0.4,4.3-0.2c0.6,0.2,0.6,0.9-0.3,1.5c-0.6,0.4-1.4,0.5-4.2,1c-0.1,1.2-0.2,2.3-0.2,3.2c1.6-0.4,3-0.3,3.6-0.1
		c0.4,0.2,0.3,0.9-0.5,1.2c-0.9,0.4-2,0.6-3.1,0.9c-0.1,1-0.2,1.9-0.2,2.7c2.5-0.7,3.1-0.8,3.9-0.7c1.3,0.1,1.3,1.2-1.3,1.7
		c-0.6,0.1-1.6,0.4-2.7,0.7L82.5,23.4z M78.7,45.8c-0.8,0.6-1.7,0.5-1.9-0.8c-0.1-1.1,0-1.9,1-2.7c1.1-0.8,2.4-2.1,3.2-3.5
		c0.6-1,1.2-0.9,1.3,0.3C82.4,41.1,81.1,43.8,78.7,45.8z M96.1,30c-0.4-0.8-0.2-1.1,1.2-0.8c2.5,0.6,4.7,2.4,4.7,4.2
		c0,1.8-1.1,2.3-2.2,1.4c-0.5-0.5-1.3-1.4-2-2.3c-2.8,0.6-5,1.1-6.9,1.7c2.2,1.2,2.2,1.5,1.9,2.9c-0.3,1.3-0.3,2.9,0,5.5
		c0.3,3.2-0.3,4.9-2.2,6.8c-0.8,0.8-1.2,0.8-1.9-0.2c-0.8-1.3-2-2.5-3.7-4c-0.6-0.6-0.3-1.2,0.8-1c3.6,0.9,3.9,0.5,4-0.7
		c0.2-2.1,0.1-3,0-4.3c-0.3-3.4-0.5-4.1-1-4.5c-3.1,0.9-4.8,1.6-6,2.4c-0.6,0.4-1,0.2-1.5-1.3c-0.4-1.6-0.2-2.1,2.3-2.8
		c1-0.3,2.3-1.2,6.5-4.6c-2.6,0.2-4.9,0.8-6.6,1.7c-0.9,0.5-1.5,0.3-1.5-1c0-1.4,0.2-1.6,2.2-2.1c2-0.6,4.8-3.6,4.9-5.2
		c0.1-0.6,0.8-0.7,1.7,0.1c1.6,1.3,1.4,1.9,0.5,2.3c-0.7,0.2-2,1.2-4.2,3c1.6-0.1,2.9-0.2,4.7-0.2c2.8-2.3,3.5-3.2,3.7-4
		c0.3-1.1,0.6-1.3,1.9-0.2c1.9,1.5,1.8,2.1,0.4,2.6c-1.1,0.4-4.6,2.8-10.3,7.7c4-0.7,5.7-0.9,9.6-1.6C96.8,31,96.3,30.5,96.1,30z
		 M91.3,12.7c-1.1-0.5-0.8-1.1-0.5-1.1c2.4,0,10.6-1.8,12.3-2.9c0.5-0.4,1.4-0.5,3.5,0.8c1.6,1,1.7,1.7,0.8,2.3
		c-0.6,0.4-1.1,1.3-2,4c-1.1,3.6-2,5.1-3.7,6.2c-1.4,0.9-1.8,0.8-2.1-0.1c-0.3-1-0.6-1.8-1.7-3.3c-0.6-0.8,0.1-1.5,1.1-0.7
		c1.8,1.3,2.2,1,2.7-0.1c0.9-1.7,1.1-2.7,1.5-5.6c0.2-1.6-0.4-1.7-5.2-0.2c1,1,1.2,1.8,0.9,2c-0.5,0.3-1.1,1.2-1.6,2.1
		c-1.4,2.3-2.8,3.8-5.6,5.5c-0.9,0.5-1.4-0.1-0.5-0.8c2.2-1.8,4.4-5.5,4.7-8.3C93.2,13.4,92.7,13.5,91.3,12.7z M103.4,44.2
		c-1.9-1.8-4.4-4.4-5.4-5.8c-0.6-1-0.5-1.2,0.2-1.1c4.6,0.9,6.9,2.2,7.3,4.9C105.8,44.5,104.5,45.3,103.4,44.2z"/>
	<path class="st1" d="M165.9,36.6c-3.6-0.6-7.6-3-11.6-8.1c-1.9,2.4-4.5,4.5-7.4,5.7c-1.4,0.5-1.7,0.1-0.4-0.9
		c2.2-1.7,4.5-4.1,6.3-6.7c-2.2-3.3-3.9-7.5-5.3-12c-7.1,1.2-10.5,1.7-12.4,1.8c0.2,2.1-0.1,5.2-0.9,9.2c-0.9,4.1-4,9.2-9.6,11.9
		c-1.5,0.6-1.7,0.2-0.4-0.9c4.5-3.7,7.3-8.4,7.8-13.7c0.3-3.8,0.1-6.3-0.7-7.5s0.1-1.8,3-0.5c1.8,0.1,4.7-0.5,12.5-2.4
		c-1.7-4.9-2.5-6.3-3.8-7.5c-1-1-0.9-1.7,0.9-1.5c1.2,0.1,2.5,0.4,3.5,0.9c0.7,0.3,0.8,0.6,0.8,2.5c0.1,1.1,0.4,2.9,1.1,5
		c3.5-0.8,4.9-1,5.6-0.8c2.3,0.8,1.9,1.4-0.1,1.9c-1.4,0.3-3,0.6-4.9,1c1.2,3.6,2.8,7.6,4.5,10.3c1.2-2.3,2-4.5,1.8-5.5
		c-0.3-1.4,0.5-1.7,2.4-0.5c2.2,1.3,2.3,1.6,1.5,2.2s-2.1,2.5-4.2,5.9c2.1,2.7,4.5,4.8,6.5,5.9c1,0.6,1.7,0.5,2.1-0.3
		c0.5-1.1,0.9-2.2,1.1-3.1c0.3-1.1,0.8-1.1,1,0.5c0.3,2.1,0.6,3.8,1.2,5.6C168.2,36.5,167.5,36.9,165.9,36.6z M130.9,43.1
		c-0.9,1.7-1.5,2.7-2.1,3.2c-0.8,0.6-1.3,0.3-1.6-0.8c-0.5-1.6-0.3-2.8,1.2-4.4c0.5-0.5,1.2-2,1.8-3.1c0.3-0.5,0.8-0.6,1.1,0.2
		C132.1,39.7,131.9,41,130.9,43.1z M146.1,29.4c0.4,1.1,0.2,1.6-1,1.8c-1.9,0.3-4.5,0.9-6.6,1.3c-0.2,0.7-0.4,0.9-0.9,0.9
		c-0.4,0-0.8-0.5-1-1.5c-0.5-2.1-1.3-4.4-1.8-5.3c-0.3-0.6-0.3-1.3,0.7-1.2c2.2,0.3,5.3-0.1,7.7-1.3c1.4-0.6,2-0.5,3.3-0.1
		c1.8,0.7,2.1,1.5,1.4,2.1C146.9,26.9,145.9,29,146.1,29.4z M158.8,47.2c-3.2,1-6.2,1.4-11.1,0.8c-5.9-0.8-9.1-3.5-11.8-9.6
		c-0.3-0.8-0.4-1.2-0.1-1.4c0.3-0.2,1.4,0.5,1.6,0.9c1.6,3.3,3.1,4.8,4.9,5.7c2.7,1.6,6.8,1.7,10.7,1.1c0.9-0.2,1.2-0.7,0.9-1.7
		c-0.4-1-0.6-1.8-0.8-2.8c-0.2-0.8,0.2-1,0.8-0.2c1.5,1.9,3.4,4,5.3,5.3C160.2,46,159.8,46.8,158.8,47.2z M146.1,20.1
		c-0.8,0.3-3.4,1.1-4.8,1.3c-1.8,0.4-3.2,0.3-3.8,0.1c-0.6-0.3-0.6-0.7,0.1-0.9c2.1-0.5,4-1.2,5.6-1.8c1-0.3,2.3-0.5,2.9-0.3
		C147.4,18.8,147.4,19.5,146.1,20.1z M140.6,26.7c-0.9,0.2-1.8,0.2-2.9,0.2c0.4,1.4,0.8,2.8,1,4.2c4.6-0.7,5.1-1.6,5.3-4.2
		C144,26.2,143.6,26.1,140.6,26.7z M146.3,39c-1.5-0.5-3.2-1.8-4.4-3.2c-0.6-0.7-0.5-1.4,0.5-1.4c3.6,0,5.6,1.3,5.6,3.1
		C148.1,39.2,147.2,39.3,146.3,39z M158.2,10c-1.5-0.6-3.1-1.9-4.4-3c-0.9-0.8-0.8-1.3,0.3-1.4c3.8-0.2,5.7,1.3,5.8,3
		C159.9,9.9,159.1,10.4,158.2,10z M163.8,42.7c-1.5-0.7-4.4-3-6-4.5c-0.8-0.6-0.6-1.2,0.6-1c4.3,0.4,6.7,1.6,7.5,4
		C166.3,42.7,165.6,43.5,163.8,42.7z"/>
</g>
<g class="st0">
	<path class="st1" d="M183.8,17.9c0.8,1.4,1.9,2.1,3.8,2.1c1.7,0,4.3-0.3,5.8-0.7c0.1-0.3,0.8-3.6,0.8-6c0-1.9-0.6-2.5-1.8-2.5
		c-0.6,0-1.2,0-1.9,0.2l-0.2-0.3c0.4-0.9,1.1-2,3.5-2c2,0,5,1.1,5,2.7c0,0.9-0.5,1.1-0.9,1.9c-0.4,0.8-0.7,2-1.5,5.2
		c4.6-1.1,7.4-2.5,8.3-4.5h0.4c1.8,0.1,4.5,0.1,4.5,1.6c0,1.2-1.8,2-4.5,2.9c-3,1.1-6.7,2.1-9.4,2.6c-1.6,6.1-5.3,17.4-6.6,21.2
		c-1.9,5.7-2.4,7.2-4.3,7.2c-0.8,0-1.1-0.5-1.1-2.1c0-0.7,0-1.6,0.1-2.7c2-2.6,3.3-5.6,4.2-7.9c1.3-3.4,3.9-10.9,4.8-15.2
		c-2,0.4-3.6,0.6-4.9,0.6c-3.7,0-4.8-2.4-4.8-4.1L183.8,17.9z M204.8,34.8c-0.9,1.6-1.6,3.4-1.6,5.1c0,5.4,6.2,5.4,10.4,5.4
		c1.5,0,2.5,0,3.6-0.2c1,0,1.8-0.3,2.2-0.3c1.6,0,3.4,0.9,3.4,2.1c0,1.4-2.5,1.7-6.6,1.7c-8.7,0-14.7-1.2-14.7-7.5
		c0-2.1,0.8-4.5,2.6-6.6L204.8,34.8z M208.6,30c1.9-1.6,4.4-3.3,6.1-4.4c-3.6-0.2-7.1,0.4-11,2.5l-0.6-0.7c4-3.3,8.7-4.5,13.3-4.5
		c2.9,0,5.2,1.2,5.2,2.4c0,0.8-0.5,1-1.2,1c-0.4,0-1,0-1.5,0c-2.7,0-6.3,2.2-9.6,4.5L208.6,30z"/>
	<path class="st1" d="M270.2,39.5c0,3.4,0.8,4.9,2.5,4.9s3.8-0.8,6.1-3.1l0.7,0.5c-2,3.7-4.4,5.8-7.6,5.8c-3.8,0-5.1-3.1-5.1-7.6
		c0-5,0.7-10.9,0.9-14c0-0.9,0.1-1.8,0.1-2.7c0-2.8-0.6-5.1-3.6-5.1c-4.6,0-10.1,3.9-15.8,9.7c-0.1,1.3-0.2,3.5-0.2,4.7
		c0,3.2,0,7.5,0.2,11.5c0.1,1.1,0.3,2.6,0.3,3.7c0,1.1-1.3,2.8-2.4,2.8c-1,0-1.4-1.8-1.5-3.7c0-2.1-0.5-3.7-3.2-7.7l0.5-0.4
		c1.1,1.3,2.8,2.9,3,2.9s0.4-0.3,0.4-1.9c0-3.2,0.1-6.8,0.2-9.2c-2.5,2.6-4.9,5.5-6.6,8.1c-0.8,1.2-1.3,2.5-2.5,2.5
		c-1.1,0-1.6-0.9-1.6-2.5c0-0.7,0.1-0.9,1.1-1.9c4-4,8.5-8.6,9.7-11.7c0.1-1.7,0.2-3.6,0.3-5.1c-0.4,0-1.2,0.2-1.6,0.3
		c-4.3,1.2-5.4,2.3-5.4,4c0,0.4,0.1,0.9,0.2,1.4l-0.9,0.4c-0.5-1.7-1.3-2.2-1.3-3.6c0-1.7,0.9-3,3-3.6c2-0.5,4.1-1,5.3-1.3
		c0.3-0.1,0.6-0.2,0.8-0.3c0-1.2,0.1-3.2,0.1-4.4c0-2.7-0.9-3-2.8-2.8l-0.1-0.4C244,9,245,8.5,246,8.5c1.8,0,4.4,1.5,4.4,3.4
		c0,1.2-0.7,1.5-1.1,3.3c-0.1,0.6-0.1,1.4-0.2,1.9c0.9,0.6,1.7,1.2,1.7,2.1s-1.2,1.3-1.9,2.8c-0.5,1.3-0.6,2.2-0.8,3.7
		c5.5-5.7,12.3-9.5,16.2-9.5c5.9,0,6.4,3.9,6.4,7.9V26L270.2,39.5z"/>
</g>
</svg>
