<?xml version="1.0" standalone="no"?>
<!DOCTYPE svg PUBLIC "-//W3C//DTD SVG 20010904//EN"
 "http://www.w3.org/TR/2001/REC-SVG-20010904/DTD/svg10.dtd">
<svg version="1.0" xmlns="http://www.w3.org/2000/svg"
 width="700.000000pt" height="700.000000pt" viewBox="0 0 700.000000 700.000000"
 preserveAspectRatio="xMidYMid meet">
<metadata>
Created by potrace 1.14, written by Peter Selinger 2001-2017
</metadata>
<g transform="translate(0.000000,700.000000) scale(0.100000,-0.100000)"
fill="#000000" stroke="none">
<path d="M1847 6186 c-2 -9 -1 -458 2 -478 1 -3 552 -7 1225 -7 673 0 1245 -3
1272 -6 190 -24 365 -113 493 -250 95 -102 182 -286 198 -420 17 -136 3 -286
-38 -409 -97 -292 -358 -499 -681 -542 l-48 -7 0 -238 0 -239 33 -1 c78 -2
198 -35 295 -81 159 -76 289 -206 364 -363 12 -28 30 -54 38 -60 9 -6 114 -10
253 -10 l237 -1 0 23 c0 31 -72 244 -110 328 -16 36 -30 68 -30 72 0 7 -97
128 -136 170 -15 15 -47 53 -73 83 -25 30 -54 63 -63 74 -24 26 -23 30 15 59
128 98 266 277 342 442 38 83 82 216 91 274 3 20 8 39 10 42 10 17 19 152 19
284 -1 105 -6 176 -19 235 -107 510 -498 903 -1006 1011 l-105 22 -1287 2
c-918 1 -1288 -1 -1291 -9z"/>
<path d="M1168 5206 c-1 -2 -28 -6 -58 -9 -30 -4 -80 -11 -110 -17 -30 -6 -68
-13 -85 -16 -131 -23 -376 -130 -525 -229 -145 -96 -190 -149 -74 -88 91 49
334 109 519 130 411 45 915 -87 1288 -338 185 -124 327 -257 577 -539 41 -46
81 -91 88 -98 7 -8 52 -60 100 -116 48 -55 89 -103 92 -106 6 -5 260 -311 449
-540 262 -318 629 -684 886 -886 285 -222 640 -364 1005 -401 132 -14 500 -6
552 12 7 2 29 6 48 9 60 9 231 61 325 100 166 68 368 194 467 290 67 65 48 70
-67 16 -82 -38 -175 -74 -264 -102 -72 -22 -71 -22 -201 -47 -542 -107 -1124
39 -1559 390 -195 156 -583 576 -908 980 -77 96 -159 197 -182 224 -24 28 -52
61 -64 75 -59 72 -216 247 -312 349 -375 396 -620 590 -950 751 -191 93 -451
172 -618 186 -34 3 -69 7 -77 10 -16 6 -336 15 -342 10z"/>
<path d="M1858 3808 c-3 -19 -2 -2917 1 -2969 1 -14 115 -16 1259 -14 691 1
1271 5 1287 9 17 4 66 14 109 22 163 33 304 90 441 180 91 60 114 79 207 171
l68 67 -27 20 c-32 25 -254 206 -303 247 -42 34 -51 35 -76 8 -81 -90 -247
-184 -383 -218 -83 -21 -102 -21 -1093 -21 l-1008 0 0 1218 c1 669 1 1236 0
1260 l0 42 -239 0 -239 0 -4 -22z"/>
</g>
</svg>
