<svg xmlns="http://www.w3.org/2000/svg" width="30.266" height="30.259" viewBox="0 0 30.266 30.259">
  <path id="Icon_awesome-instagram" data-name="Icon awesome-instagram" d="M15.131,9.609a7.758,7.758,0,1,0,7.758,7.758A7.746,7.746,0,0,0,15.131,9.609Zm0,12.8a5.044,5.044,0,1,1,5.044-5.044,5.053,5.053,0,0,1-5.044,5.044ZM25.016,9.292a1.81,1.81,0,1,1-1.81-1.81A1.805,1.805,0,0,1,25.016,9.292Zm5.138,1.837a8.955,8.955,0,0,0-2.444-6.34,9.014,9.014,0,0,0-6.34-2.444c-2.5-.142-9.986-.142-12.484,0a9,9,0,0,0-6.34,2.437A8.984,8.984,0,0,0,.1,11.122c-.142,2.5-.142,9.986,0,12.484a8.955,8.955,0,0,0,2.444,6.34,9.025,9.025,0,0,0,6.34,2.444c2.5.142,9.986.142,12.484,0a8.955,8.955,0,0,0,6.34-2.444,9.014,9.014,0,0,0,2.444-6.34c.142-2.5.142-9.979,0-12.478ZM26.927,26.287a5.106,5.106,0,0,1-2.876,2.876c-1.992.79-6.718.608-8.919.608s-6.934.176-8.919-.608a5.106,5.106,0,0,1-2.876-2.876c-.79-1.992-.608-6.718-.608-8.919s-.176-6.934.608-8.919A5.106,5.106,0,0,1,6.212,5.571c1.992-.79,6.718-.608,8.919-.608s6.934-.176,8.919.608a5.106,5.106,0,0,1,2.876,2.876c.79,1.992.608,6.718.608,8.919S27.717,24.3,26.927,26.287Z" transform="translate(0.005 -2.238)" fill="#f3f3f3"/>
</svg>
