<svg xmlns="http://www.w3.org/2000/svg" width="27.081" height="27.081" viewBox="0 0 27.081 27.081">
  <path id="Icon_awesome-phone-alt" data-name="Icon awesome-phone-alt" d="M26.309,19.137,20.385,16.6a1.269,1.269,0,0,0-1.481.365L16.28,20.168A19.605,19.605,0,0,1,6.908,10.8l3.205-2.624a1.266,1.266,0,0,0,.365-1.481L7.939.768A1.278,1.278,0,0,0,6.485.032L.984,1.3A1.269,1.269,0,0,0,0,2.539,24.54,24.54,0,0,0,24.543,27.082,1.269,1.269,0,0,0,25.78,26.1l1.269-5.5a1.285,1.285,0,0,0-.741-1.46Z" transform="translate(0 0)" fill="#f3f3f3"/>
</svg>
