<svg xmlns="http://www.w3.org/2000/svg" xmlns:xlink="http://www.w3.org/1999/xlink" width="122.744" height="79.082" viewBox="0 0 122.744 79.082">
  <defs>
    <clipPath id="clip-path">
      <rect id="長方形_1207" data-name="長方形 1207" width="122.744" height="79.082" fill="#fff"/>
    </clipPath>
  </defs>
  <g id="グループ_1428" data-name="グループ 1428" transform="translate(-53 10)">
    <g id="グループ_1343" data-name="グループ 1343" transform="translate(53 -10)" clip-path="url(#clip-path)">
      <path id="パス_1719" data-name="パス 1719" d="M384.843,132.151c-3.612-.055-4.974-4.413-8.929-3.568.593,1.095,4.376,2.223,5.663,3.75l.438.245a5.429,5.429,0,0,1-6.127-3.435l-.683.192c1.89,5.01,13.083,5.269,17.515,1.335l.342-.1-.048-.171c-1.251-.448-6.024,1.78-8.17,1.747" transform="translate(-283.716 -97.148)" fill="#fff"/>
      <path id="パス_1720" data-name="パス 1720" d="M227.541,119.223l.529,1.878c-.92,2.583-8.547,5.086-11.136,6.268-5.9-2.894-9.539,1.628-16.383,2.032-3.424.2-7.693-.426-10.3-1.892l-.315-.464,9.327-4.837.075-.39-.048-.171-1.756.31-9.375,4.667c-9.127,5.231-22.3,10.106-31.077,14.646-4.423,2.289-10.577,3.914-13.4,6.722-.42.472-.278.11-.32.827.606.181.246.444.337,1.2.767.027,1.344-.548,2.561-.721l-.582-.758,1.121.053.245-.438a1.335,1.335,0,0,0-1.046-.443l-.048-.171,18.43-8.506c-2.341,6.346-11.358,10.3-17.938,13.528-1.716-.638-2.329-1.754-3.4-2.913l-.171.048c-1.06,2.526,1.3,6.255,2.206,9.146L152.1,163.5c.54-.718.521-1.6.378-3.239l.416-.486c1.635,1.083,4.91,2.021,6.127,3.435,1.456,1.691,1.912,2.859,3.224,4.253-1.191,1.063-6.222-2.558-7.883-3.125l-.341.1-.246.438c7.969,5.656,14.382,2.89,25.06-2.632,10.222-5.287,20.317-9.506,30.564-14.5l8.495-3.866.464-.315-.192-.683-.39-.075c-.772.643-10.755,5.468-11.814,5.169.469-.289-2.462-2.911-2.765-3.276.687-.956,2.065-1.49,3.249-2.2,1.75-.369,2.875,1.166,3.891,2.037l.683-.192.075-.39A9.12,9.12,0,0,1,208.154,142c1.473-2.265,4.575-3.015,6.355-4.922l2.419,4.664.1.341,1.147-.507c-.173-3.374.868-9.544,3.407-11.464,2.842-2.148,7.631-1.241,8.959-4.181.361-.583-2.128-6.872-2.772-7.882-4.018-1.483-7.078.686-10.246,2.885l-.026.56c2.507-1.205,7.488-5.469,10.048-2.276m-81.06,34.8-.656-.368a1.294,1.294,0,0,1,.656.368m-.623,3.677q-.014.28-.027.56l-1.981-4.418,1.265.565q.371,1.646.743,3.293m-1.688-4.685c-.465-.257-.513-.491-.726-1.27l1.847,1.323-.246.438-.875-.491m3.118,6.494c-1.134-1.579-.906-2.535-1.175-4.829l2.066,1.446-.6,3.117-.294.267m3.646,2.475a1.3,1.3,0,0,1,.656.368,1.3,1.3,0,0,1-.656-.368m.854-.24-3.5-1.963q.152-1.425.3-2.85l3.768,2.256a4.3,4.3,0,0,0-.57,2.556m-2.536-5.736,1.628,1.2a2.584,2.584,0,0,1-1.628-1.2m-1.842-2.614-.438-.246c3.728-3.17,9.224-4.712,13.163-7.576a18.109,18.109,0,0,0,4.871-5.61l.421-1.777,6.958-3.433c1.371,8.759-13.477,17.521-22.275,19.725l-.075.389.048.171c8.814-1.1,25.6-13.379,22.814-20.429a18.719,18.719,0,0,0,7.566-3.236c1.352,2.947-1.881,8.444-3.258,10.685-5.1,8.3-20.185,23-29.8,11.338m6.021,5.676,2.941,1.936a5.356,5.356,0,0,1-2.941-1.936m10.494,8.472,1.809-1.431,1.8-.139-3.612,1.57m-.657-.368c-1-1.322-1.367-2.544-2.253-3.42l.587-.534a1.979,1.979,0,0,0,.875.491l-.752-.71,5.027-1.784,1.2-.337.048.171a8.3,8.3,0,0,0,.2,4,8.3,8.3,0,0,0-4.931,2.125m5.272-2.221q-.016-2.022-.033-4.045c.642-1.41,4.3-2.2,5.544-3.219l.512-.144a11.578,11.578,0,0,0,.007,4.605,17.885,17.885,0,0,1-6.03,2.8m6.761-2.825a38.324,38.324,0,0,1-.1-4.947l8.276-3.989,1.073-.118c-1.911.787-2.27,3.743-1.6,5.428-1.476,2-5.716,2.46-7.641,3.626m1.268-6.623c2.549-5.086,15.626-7.131,20.634-11.154l3.73-.5L176.57,155.5m22.87-9.756.048.171a15.958,15.958,0,0,1-4.712,2.248l-.048-.171,3.858-2.008.854-.24m6.01,2.363-7.3,3.53c-4.626,2.475-9.922,5.514-14.647,6.888l-.219-.123c.077-1.25-.154-3.53.6-4.408,2.181-2.533,8.613-4.975,10.262-.862l.171-.048.464-.315-.144-.512c-1.25-1.512-2.368-2.491-4.915-1.749,3.271-2.586,9.049-1.885,12.23-5.655,1.427.567,2.486,1.954,3.5,3.254m3.392-7.59-1.441.774-.048-.171.587-.534.854-.24.048.171m3.42-2.253-.1-.342.731-.021-.635.363m-5.272,2.221-4.226,2.664c-1.64.87-3.921-.249-6.046.781-5.236,2.537-11.848,4.869-17.112,7.951-3.648,2.135-5.7,5.5-10.335,7.148-.02-5.206,10.156-12.449,15.435-15.219,2.011-1.055,3.734-.94,5.635-1.586,2.6-.884,4.822-2.8,8.175-3.039,3.056-.216,4.985,1.462,7.792,1.492l-.048-.171c-8.172-6.092-27.543,5.076-33.33,11.226a19.509,19.509,0,0,0-3.675,5.274l-.789,2.434-3.831,1.447c-4.7,2.047-6.266.8-9.446-2.132,11.492-2.444,19.848-9.861,23.562-18.428.928-2.14,3.768-6.561,2.057-9.057l.806-.411c2.381,1.059,3.684,4.181,6.219,5.068,2.972,1.04,9.223.125,12.648-.243l-.048-.171c-2.055-1.616-6.783.425-9.675.328-3.385-.113-6.452-2.887-8.119-5.271l3.858-2.008c4.054,2.389,8.059,4.17,13.631,3.9,4.829-.232,9.351-2.7,13.042-1.46l.512-.144c-2.173-3.09-8.074.394-12.333.708-4.364.321-10.343-.121-13.39-3.049l.026-.56,1.1-.678a18.694,18.694,0,0,0,12.515,2.558c5.321-.608,10.58-5.241,14.36-2.016l.342-.1-2.6,3.865a6.148,6.148,0,0,1,.791,3.463c-.318,1.66-5.583,4.9-7.5,5.429m21.252-13.539c-.01-.547-5.8,1.236-7.076,2.361-2.492,2.2-3.73,7.427-3.749,11.56l-.171.048-.428-2.828a26.8,26.8,0,0,0-2.407-1.35c1.194-.839.939-2.422.4-3.8l.294-.267,2.109,2.908.171-.048.171-.048c-.332-2.035-1.925-2.634-2.835-4.178l.981-1.751,1.527,2.15.95.1-1.89-2.785-.048-.171c2.682-1.324,5.527-3.322,8.3-3.257a9.679,9.679,0,0,0,2.86-2.28l.438.246-1.393.945-.2.608a2.453,2.453,0,0,0,2.145-.235l.582.758-.736,1.313m.671-3.506.726,1.27-.171.048-.171.048-.385-1.366" transform="translate(-107.828 -88.899)" fill="#fff"/>
      <path id="パス_1721" data-name="パス 1721" d="M311.7,169.537l.1.342.438.245.171-.048c-.418-.582-.1-.355-.7-.539" transform="translate(-235.696 -128.198)" fill="#fff"/>
      <path id="パス_1722" data-name="パス 1722" d="M468.138,127.406l-.342.1a3.967,3.967,0,0,0-2.316.283l-.272,1-.075.39.656.368,1.585-.262c.47-.7.793-.835.763-1.873m-2.369,1.4c.8-.178.855-.111,1.27-.726l.342-.1c-.195.712-.4.821-1.345,1.116l-.267-.293" transform="translate(-351.718 -96.34)" fill="#fff"/>
      <path id="パス_1723" data-name="パス 1723" d="M469.349,129.793l-.342.1c-.415.615-.466.548-1.27.726l.267.294c.94-.295,1.15-.4,1.345-1.116" transform="translate(-353.687 -98.145)" fill="#fff"/>
      <path id="パス_1724" data-name="パス 1724" d="M497.312,142.941l-.726-1.27.385,1.366.171-.048Z" transform="translate(-375.5 -107.127)" fill="#fff"/>
      <path id="パス_1725" data-name="パス 1725" d="M146.067,257.738c.213.779.261,1.013.726,1.27l.875.491.245-.438-1.847-1.323" transform="translate(-110.451 -194.892)" fill="#fff"/>
      <path id="パス_1726" data-name="パス 1726" d="M381.063,191.882a1.235,1.235,0,0,0,.731-.021l.219.123.075-.39-.95-.1-.075.39" transform="translate(-288.146 -144.799)" fill="#fff"/>
      <path id="パス_1727" data-name="パス 1727" d="M149.713,270.757q.013-.28.027-.56L149,266.9l-1.265-.565,1.981,4.418" transform="translate(-111.71 -201.396)" fill="#fff"/>
      <path id="パス_1728" data-name="パス 1728" d="M155.83,265.571l.656.368a1.294,1.294,0,0,0-.656-.368" transform="translate(-117.833 -200.815)" fill="#fff"/>
      <path id="パス_1729" data-name="パス 1729" d="M157.013,269.773c.269,2.294.042,3.25,1.175,4.829l.294-.267.6-3.117-2.066-1.446" transform="translate(-118.728 -203.993)" fill="#fff"/>
      <path id="パス_1730" data-name="パス 1730" d="M428,201.341l.635-.363L427.9,201l.1.342" transform="translate(-323.564 -151.972)" fill="#fff"/>
      <path id="パス_1731" data-name="パス 1731" d="M169.884,275.219a2.586,2.586,0,0,0,1.628,1.2l-1.628-1.2" transform="translate(-128.46 -208.111)" fill="#fff"/>
      <path id="パス_1732" data-name="パス 1732" d="M408.164,211.78l.048.171,1.441-.774-.048-.171-.854.24-.587.534" transform="translate(-308.639 -159.555)" fill="#fff"/>
      <path id="パス_1733" data-name="パス 1733" d="M356.437,235.563a15.959,15.959,0,0,0,4.712-2.248l-.048-.171-.854.24-3.858,2.008.048.171" transform="translate(-269.489 -176.295)" fill="#fff"/>
      <path id="パス_1734" data-name="パス 1734" d="M189.965,289.712l-2.941-1.937a5.355,5.355,0,0,0,2.941,1.937" transform="translate(-141.421 -217.606)" fill="#fff"/>
      <path id="パス_1735" data-name="パス 1735" d="M176.784,299.73a1.293,1.293,0,0,0,.656.368,1.293,1.293,0,0,0-.656-.368" transform="translate(-133.678 -226.645)" fill="#fff"/>
      <path id="パス_1736" data-name="パス 1736" d="M183.461,304.652l.534.587,1.046.443a2.322,2.322,0,0,0-1.58-1.029" transform="translate(-138.727 -230.367)" fill="#fff"/>
      <path id="パス_1737" data-name="パス 1737" d="M326.681,262.49l-1.691,2.5.534.587,2.391-.673c.251-1.138.595-1.456-.161-2.535l-1.073.118m.406,2.1-.048-.171a2.709,2.709,0,0,0,.613-1.094c.172.5.032.789-.565,1.265" transform="translate(-245.746 -198.396)" fill="#fff"/>
      <path id="パス_1738" data-name="パス 1738" d="M333.394,267.362l.048.171c.6-.476.737-.768.565-1.265a2.709,2.709,0,0,1-.613,1.094" transform="translate(-252.101 -201.342)" fill="#fff"/>
      <path id="パス_1739" data-name="パス 1739" d="M0,91.936l.63-.825,14.208-6.3,15.881-5.765c4-1.6,7.538-3.211,11.026-4.956a12.262,12.262,0,0,0,1.612-1.141,9.95,9.95,0,0,0,1.714-.806,63.32,63.32,0,0,0,11.914-4.971,7.3,7.3,0,0,0,1.03-.427l.256.273a21.278,21.278,0,0,1-4.424,2.513h0l0,0c-3.312,1.5-7.257,2.841-9.538,3.794C35.78,76.889,27.775,81.748,19.693,84c-3.541.987-15.4,5.054-18.231,7.5.128,3.648,11.682,5.129,14.083,5.043,3.247-.117,6.517.094,9.788-.287,8.172-.952,16.788-5.291,24.93-9.335,3.324-1.651,7.072-2.732,10.535-4.73l.35.373c-4.292,3.521-12.676,6.107-17.523,8.006C27.458,96.9,15.926,101.946.109,92.3L0,91.936" transform="translate(0 -50.47)" fill="#fff"/>
      <path id="パス_1740" data-name="パス 1740" d="M113.127,130.631l-14.052,5.22-.474-.257.373-.35L109,131.222c8.659-3.6,18.174-7.142,26.914-10.962l.358.132c-1.6,1.993-9.343,4.1-11.874,5.049l-11.274,5.189" transform="translate(-74.558 -90.936)" fill="#fff"/>
      <path id="パス_1741" data-name="パス 1741" d="M222.968,75.266l-1.144,1.774c-.491-.129-2.473.921-3.424,1.338l-.358-.132q.085-.782.171-1.564l.5-.706.005,0c1.577.1,2.968-.554,4.245-.708m-4.178,2.28.358.132,1.354-.8-.342-.615-.972.21-.5.467.1.607" transform="translate(-164.876 -56.913)" fill="#fff"/>
      <path id="パス_1742" data-name="パス 1742" d="M220.817,78.169l-.005,0,0,0h0" transform="translate(-166.97 -59.109)" fill="#fff"/>
      <path id="パス_1743" data-name="パス 1743" d="M215.488,83.317c-.039-.523-.119-.276.148-.84.111.6.175.229-.148.84" transform="translate(-162.912 -62.366)" fill="#fff"/>
      <path id="パス_1744" data-name="パス 1744" d="M242.164,31.487l1.222-.443c.137-1.923-1.063-7.863-2.24-9.127l.28-1.2c2.625-1.569,5.091-2.31,7.983-4.209q.023-.724.047-1.447l-.1-.607c-2.77.376-6.615.442-9.236,1.875l-.6-.14c0-.046,0-.085,0-.12a16.838,16.838,0,0,1,3.018-1.524c2.29-.546,5.162-1.636,6.166-2.526,1.328-1.177,1.445-2.889,3.875-4.1L276.5,0c4.433,2,3.569,4.216,6.03,7.68-1.015,2.7-4.735,4.625-7.306,5.68l-22.681,6.994c-.476-.72-.327-.485-.327-1.1l-1.58.311a5.345,5.345,0,0,1-.895-2.2c-.217.373-.117.653-.163,1.323-1.82.85-3.961,1.063-5.875,2.466-.154,3.621,1.612,6.745.63,10.4-.807.452-.795-.075-1.821.3l-.358-.132c0-.08.005-.161.008-.241m8.318-14.581c.4-1.245.035-1.616-.4-2.669l.4,2.669m-8.994-1.86-.249.233.973-.21Zm7.439-2.295-6.341,1.968c.383.488,5.219-.6,6.551-1l.14-.6Zm1.05,1.121a1.565,1.565,0,0,0,.047-1.447Zm.84.148a3.726,3.726,0,0,0,.444-2.521l-.444,2.521m1.136-1.533c.572-.095.6.066.623-.583Zm-.91-1.72.848-.093-.6-.14Zm.031-.965c-.111.225,1.344.041,1.689.055l.49-.226c-.5-.759-1.05-.109-2.179.171m4.093.374-1.1.327-.249.234,1.463-.436Zm1.206.039-.731.218-.381.591,1.1-.568.125-.117Zm-2.015,2.591-.623.583c.87.109,3.205-1.484,4.4-1.789l.124-.117c-1.334-.621-2.539.75-3.906,1.323m2.381-2.7.117.124,2.194-.653-1.937.179Zm8.123-1.066-.117-.125-5.361,1.517-.622.584.117.125,5.984-2.1m-3.96,3.011c.589.1.859-.071,1.463-.436l-.117-.124-1.1.327Zm3.5-.008a3.5,3.5,0,0,0-1.214.2c-.011.55.861-.053,1.214-.2m-7.228-4.218-.249.233,1.828-.544-1.579.311m4.341.14c.094.328-.092.146.233.249Zm.358.132c2.131.142,3.91-1.017,5.851-1.743l.125-.117-.117-.125-5.361,1.517Zm8.318.389-.373.35,2.552-.521.125-.117-.234-.249a3.88,3.88,0,0,1-2.07.537m.42-1.8-.366.109c-.2.324.366-.109.366-.109m-.864.576-1.7.187-.623.583.117.124,2.2-.895m-1.486-2.583-3.789,1.447a21.2,21.2,0,0,0,3.906-1.322Zm.576.864c.15.256.091.3.848-.093l-.848.093m1.1-.327-.125.117.483.016-.358-.132m1.9,1.027-.366.109-.249.233.731-.218Zm.638-1.066c.094.328-.092.146.233.249ZM276.828,1.1l-2.918.63-.249.234,3.159-.622.124-.117Zm-4.887,1.774-.249.233c1.415.107,4.182-1.224,5.081-.319a2,2,0,0,1,.988-.692c-1.964-.442-3.856.839-5.82.778m4.886,1.969-.7-.747-.848.093q.05.3.1.607c-.375.458-.606.482-1.229.685l2.677-.638m-.669,2.031.848-.093-.1-.607Zm1.191-3.221c-.236-.485.057-.165-.474-.257l.1.607.35.373c.326-.646.3-.266.023-.723m2.435,3.1c-.041.46-.095.084.1.607l.249-.233Zm-3.377-3.852-1.828.545c.144.2.541.118,1.331-.078Zm2.863,4.8-.389.832.117.125.5-.467.14-.6-.366.109m-5.555-3.68L273.6,3.89,273.233,4c.085.021.027.176.482.016m4.638-1.54-.374.35c.648.364.434.334,1.081.156l-.708-.506m1.836,2.957.124-.117-.677-1.471-.35-.374-.973.21c.342.473.6.253,1.307.646l-.615.342,1.183.763m1.486,2.583-.692-.988-.132.358L278.812,10.7a11.9,11.9,0,0,0,2.863-2.684m-3.229,2.793c-.479-.5-.484-.18.031-.965a2.871,2.871,0,0,0-1.619,1.517c-3.508.214-6.757,2.5-10,3.057-.244.58-.181.507-.755.941,2.6.1,9.7-2.721,12.341-4.551M277.4,9.446l-2.684.879,2.186-.412Zm-3.058,1.229-.973.21-.374.35,1.346-.56m-2.692,1.12-.117-.125-1.828.545-.249.233a2.7,2.7,0,0,0,2.194-.653m-5.672,3.68-.117-.124-.366.109c.191.314.014.131.483.016m-.574-2.524a43.2,43.2,0,0,0,7.262-2.941c2.466-.872,4.6-1.469,5.241-1.273.325-.682-.158-.677.4-1.315l-.342-.615a32.3,32.3,0,0,1-5.3,3.2c-2.482.877-5.3,2.032-7.262,2.941a12.4,12.4,0,0,1-1.892.392l-.264.716a20.527,20.527,0,0,1,2.157-1.108M260.675,15.3l2.334-1.253-1.7.428-.747.7Zm.444,1.222L261,16.4l-.366.109c.085.021.027.176.482.016m-.732.218-.358-.132c.179.337-.022.1.358.132m-.443-1.222a2.429,2.429,0,0,0-.724-.023l-.249.234.973-.21m-2.677.638-.358-.132q-.008.241-.016.482Zm-1.774-1.144-.117-.124-.732.218a1.33,1.33,0,0,0-.156,1.082l1-1.175m-2.614-1.292.265-.716-1.1.327-.506.708,1.338-.319m-.833,3.353,1.229-.685-.117-.125c-.752.359-.7.425-1.447-.047l.506-.708-.109-.366-.607.1-.3,1.922,1.058.879.615-.342-.833-.389Zm1,2.568.615-.342-1.074-.4c.008.559-.036.395.459.739m-1.541-.895-.693-.988.109.366Zm-8.582,4.069c-.3.673-.236.658.078,1.331q-.039-.665-.078-1.331" transform="translate(-181.116)" fill="#fff"/>
      <path id="パス_1745" data-name="パス 1745" d="M222.162,79.351l.342.615-1.354.8-.358-.132q-.051-.3-.1-.607l.5-.467.973-.21" transform="translate(-166.879 -60.002)" fill="#fff"/>
    </g>
  </g>
</svg>
