<svg xmlns="http://www.w3.org/2000/svg" xmlns:xlink="http://www.w3.org/1999/xlink" width="116.005" height="86.128" viewBox="0 0 116.005 86.128">
  <defs>
    <clipPath id="clip-path">
      <rect id="長方形_1215" data-name="長方形 1215" width="37.736" height="44.898" fill="#fff"/>
    </clipPath>
  </defs>
  <g id="グループ_1435" data-name="グループ 1435" transform="translate(-32 -1306.329)">
    <g id="グループ_1357" data-name="グループ 1357" transform="translate(51.041 1306.329)">
      <path id="パス_1746" data-name="パス 1746" d="M209.295,164.9c0-.072-.005-.143-.007-.215,3.383-3.554,6.625-6.047,1.6-10.485q-.778-.414-1.574-.787a34.247,34.247,0,0,0-6.682-2.318c-.08-.019-.161-.04-.241-.058a112.65,112.65,0,0,0-13.235-1.957,128.149,128.149,0,0,0-13.03-.634c-1.157,0-2.331-.009-3.512,0s-2.389.027-3.587.076c-5.123.209-10.239.952-14.7,3.506-.14.089-.283.174-.438.255a1.24,1.24,0,0,1-.748.142l-.239.129A15.227,15.227,0,0,0,150,155.178c0,.072.005.143.007.215l.473.2a25.8,25.8,0,0,1,10.3-5.1c-1.517,1.244-3.195,1.219-5.283,2.123l-6.566,5.393.668-.884-.248-.421c-3.629,1.165.162,7.7,1.926,8.317-4.091,3.29-8.366,2.487-9.949,8.523-1.611,6.141,7.251,9.468,10.426,11.455a54.565,54.565,0,0,0,10.493,4.793,106.515,106.515,0,0,0,19.662,2.6,116.875,116.875,0,0,0,12.5-.087,32.9,32.9,0,0,0,11.709-2.5,1.226,1.226,0,0,1,.963-.049c5.183-2.271,10.813-5.438,12.8-8.9,4.527-7.891-2.766-15.292-10.586-15.964m-59.644-6.483.016.085-.016-.085m.566,2.95a1.216,1.216,0,0,1-.77-1.467c.071-.174.15-.342.232-.505.15-1.46,1.7-2.914,2.888-3.5a17.014,17.014,0,0,1,2.31-1.381q.338-.174.681-.339l0-.053.458-.231c.006.023.012.043.017.063a37.37,37.37,0,0,1,5.075-1.885l.279-.082a41.422,41.422,0,0,1,5.043-1.419c7.725-1.662,15.759-1.459,23.56-.477a77.294,77.294,0,0,1,11.468,2.023,21.51,21.51,0,0,1,5.267,2.366c2.154,1.049,5.247,2.783,4.9,3.888-3.373,10.866-30.7,12.363-44.653,8.895l-.675.669c5.712,2.9,22.2,2.294,28.706,1.346q0,.108.008.215c-10.222,2.418-27.586,1.421-36.881-1.916l-.248-.421c1.429.452,3.154,1.169,4.459.917l.814-.123a3.91,3.91,0,0,1-.6-1.213,59.033,59.033,0,0,0-7.1-2.074l-.248-.421c1.236-1.56,2.214-3.182,4.524-3.815l-.263-.851c-2.178.9-4.278,2.308-4.727,4.683a8.772,8.772,0,0,1-4.535-2.888m11.023,8.463,10.315,1.784c8.061-.582,24.923,1.572,31.1-3.469l-.721-.62,1.839-.71.7-.025c0,.072.005.143.007.215-1.859,2.992-4.256,6.868-5.219,10.505-2.268.027-3.632.918-5.78,1.28-8.038,1.357-24.664-.22-29.729-3.89-.884-.641-2.5-3.578-3.674-5.029,0-.072-.005-.143-.007-.215l2.388,1.635-1.217-1.462m-18.54,2.808h0l3.346-4.2-3.346,4.2m29.457,15.939h0l.069.024-.068-.024m1.69,1.66h0l.713.4-.713-.4m7.7.372-.48-.413.481.413h0m9.827,1.156h0l.916-.462-.916.462m5.837-.984c.484,0,.973-.005,1.46-.026-.486.021-.976.028-1.46.026m17.163-6.568a15.962,15.962,0,0,1-9.083,3.834q-.494.062-.993.105-.887.077-1.783.1c-3.2.085-6.364.017-9.564.261a60,60,0,0,1-10.621.132c-6.987-.7-13.968-.66-20.87-2.133-5.38-1.148-11.1-2.982-15.288-6.712a10.314,10.314,0,0,1-1.735-1.95,6.114,6.114,0,0,1-.859-1.88,4.75,4.75,0,0,1-.029-2.258,6.354,6.354,0,0,1,4.464-4.762,35.915,35.915,0,0,1,4.477-2.681,8.464,8.464,0,0,1,3.8,1.839c2.166.727,3.233,2.764,3.978,5.014a9.793,9.793,0,0,0,4.01,3.478l.488.628a8.214,8.214,0,0,1-2.812-1.368c.1.114.2.229.3.343q.414.46.85.9a1.055,1.055,0,0,1,.111.051c5.853,3.192,12.343,3.8,18.9,3.491l.3-.017c.517-.026,1.034-.058,1.551-.09.333-.021.666-.042,1-.065,2.073-.145,4.144-.331,6.211-.529l.75-.071a43.205,43.205,0,0,0,7.212-1.157c.157-.1.309-.2.452-.3a56.027,56.027,0,0,1,2.7-6.341,5.779,5.779,0,0,1,3.393-4.163c.14-.112.285-.22.441-.323l.32.034a10.1,10.1,0,0,1,8.845,1.634c4.9,3.874,4.423,11.865-.917,14.953m4.414-7.825h0q.054.044.1.088-.044-.044-.1-.088" transform="translate(-124.309 -106.392)" fill="#fff"/>
      <path id="パス_1747" data-name="パス 1747" d="M251.005,167.612c.56.047,1.12.1,1.678.163a38.29,38.29,0,0,1,9.22,1.251,13.769,13.769,0,0,1,1.718.324q-.012-.346-.025-.693c-5.96-1.915-11.016-1.855-19.158-1.47l-1.436.445a37.285,37.285,0,0,1,8-.02" transform="translate(-195.949 -119.425)" fill="#fff"/>
      <path id="パス_1748" data-name="パス 1748" d="M221.745,174.461l-1.36.422-.442.66.329-.087a9.824,9.824,0,0,1,1.473-.995" transform="translate(-179.731 -124.693)" fill="#fff"/>
      <path id="パス_1749" data-name="パス 1749" d="M343.342,182.085c.478,1.136-.28,1.828-.141,2.585l.015.43,1.373-.694a12.569,12.569,0,0,0-.889-5.344c0-.072-.005-.143-.008-.215,3.146.122,3.12,1.9,5.676,2.378-.8-2.252-3.158-2.892-5.714-3.452l-.908.677.713.4c-.942.31-1.872-.186-2.815-.545l-.45.446a13.405,13.405,0,0,1,3.147,3.328" transform="translate(-264.304 -127.023)" fill="#fff"/>
      <path id="パス_1750" data-name="パス 1750" d="M196.773,191.644l-.45.446,3.2-1.619c.121.554-.218.124.256.636l.458-.231c.092-.855.167-.859-.286-1.495-1.3.734-2.519.966-3.182,2.263" transform="translate(-163.119 -135.186)" fill="#fff"/>
      <path id="パス_1751" data-name="パス 1751" d="M201.37,196.006l-1.6.917-.21.652c1.039.091,1.18-.21,2.072-.719l-.862,1.966a4.637,4.637,0,0,0,2.3-.727c-.084.721-.055.909.431,1.26a3.59,3.59,0,0,1,.888-2.587l-2.04.707.66-1.1c-.519-.355-.639-.363-1.644-.372" transform="translate(-165.397 -139.846)" fill="#fff"/>
      <path id="パス_1752" data-name="パス 1752" d="M256.479,203.969c-1.184-1.273-4.786-1.657-8.206-1.429l-5.779,1.28L242.3,204.9c5.039-2.123,8.234-.859,14.18-.933" transform="translate(-195.454 -144.397)" fill="#fff"/>
      <path id="パス_1753" data-name="パス 1753" d="M349.386,232.69l-.8,1.327c-.507,1.109-.963,2.24-1.4,3.381a1.007,1.007,0,0,1,.078.072l.147-.093a7.75,7.75,0,0,1,2.8-4.008l-.135-.7-.7.025" transform="translate(-269.223 -165.628)" fill="#fff"/>
      <path id="パス_1755" data-name="パス 1755" d="M172.332,56.418l-.3.706.176.074q.061-.39.121-.78" transform="translate(-146.037 -41.674)" fill="#fff"/>
      <path id="パス_1761" data-name="パス 1761" d="M84.9,6.727l-.48.317.921-.131L84.9,6.727" transform="translate(-84.416 -6.727)" fill="#fff"/>
    </g>
    <g id="グループ_1356" data-name="グループ 1356" transform="translate(32 1324.002)">
      <g id="グループ_1355" data-name="グループ 1355" clip-path="url(#clip-path)">
        <path id="パス_1774" data-name="パス 1774" d="M72.035,54.206l-2.2,4.2c-2.1,2.686-4.995,5.883-6.092,9.382-.955,1.761,4.8,2.834,5.594,2.929L73.1,62.48,78.2,52.4l2.65-6.281q-.009-.146-.019-.293c-1.326.042-3.136,6.53-4.171,8.2L71.4,64.469,69.06,70.025c-.8.366-.672-.717-1.291.024l-1.761-.885c1.283-3.1,4.687-9.448,6.532-10.761-.233-.77,1.366-3.382,2.178-4.488,1.8-2.46,2.761-5.724,4.807-8.359-.139-1.434-1.537-2.45-1.657-3.829.988-.572,3.022-6.51,3.86-8.474.884.647-.677,4.251-.742,5.805l.846.357c1.286-.98,2.359-3.163,3.157-4.786l.172-.07.191.223c-.591.876-2.222,2.711-2.006,4.418.073.3-.022.077.14.344a1.141,1.141,0,0,0,1.208.51c1.223-.416,2.349-3.191,2.884-4.475.223.19.077-.048.191.223.638.839-4.034,8.635-4.75,9.236a7.462,7.462,0,0,1-2.061.838L80.9,46l.553.376c2.352-.844,9.448-10.132,6.113-11.792l-.464.089-2.253,3.318.038.585.445-.381.121.051-.8,1.227-.464.089c-.805-1.982,2.1-3.584,1.606-5.156-.117-.307-.406-.48-.693-.719-1.116,0-3.565,3.5-3.208,4.907l-.051.121-.432-.325L82.9,34.177a1.984,1.984,0,0,0-.679-1.425l-.846-.357c-1.268,2.226-4.5,5.738-4.928,8.308-.378,2.282,1.958,4.067.568,6.073-1.79,2.582-3.235,4.856-4.984,7.43m13.83-16.931-.083.534-.121-.051.2-.483m-8.638,3.612a4.768,4.768,0,0,1,1.738-3.108c.106.756-1.268,2.139-1.738,3.108m1.625,4.243-.306.725L78.178,44.7l.674.426m-.477.795-.255.6-.153.362-2.986,4.716c.227.249-1.619,3.5-2.248,4.316a74.267,74.267,0,0,0-7.5,13.056l-1.106-.751-.242-.1.376-.553.934.821.325-.432-.813-.77L78.374,45.925" transform="translate(-50.71 -25.814)" fill="#fff"/>
        <path id="パス_1775" data-name="パス 1775" d="M172.238,56.418l-.2.483.121.051.083-.534" transform="translate(-137.084 -44.956)" fill="#fff"/>
        <path id="パス_1776" data-name="パス 1776" d="M130.517,62.006c.47-.969,1.844-2.353,1.738-3.108a4.768,4.768,0,0,0-1.738,3.108" transform="translate(-104.001 -46.932)" fill="#fff"/>
        <path id="パス_1777" data-name="パス 1777" d="M140.783,72.768l-.751,1.106.2,1.221.915.528c.023-1.232-.694-1.284.193-2.48l-.553-.376" transform="translate(-111.583 -57.984)" fill="#fff"/>
        <path id="パス_1778" data-name="パス 1778" d="M135.875,93.408l-.674-.426.368,1.151.306-.725" transform="translate(-107.734 -74.092)" fill="#fff"/>
        <path id="パス_1779" data-name="パス 1779" d="M66.485,121.03l-.325.432-.934-.821-.376.553.242.1,1.106.751a74.257,74.257,0,0,1,7.5-13.056c.628-.819,2.475-4.067,2.248-4.316l2.986-4.716.153-.362.255-.6L65.672,120.26l.813.77" transform="translate(-51.676 -78.881)" fill="#fff"/>
        <path id="パス_1780" data-name="パス 1780" d="M18.174,0l-.488.031-.228.26c.5.424,1.162.319,1.743,1.209.951,1.459.941,5.155-.376,7.074-.946,1.378-3.9,2.658-4.311,3.754-2.989,7.992-8.466,16.355-10.048,24.1-.47.085-.483-.028-.859.349l-2.071-.992c.288-2.131,2.409-3.656,3.109-5.684A30.1,30.1,0,0,1,7.9,24.357l2.787-6.887,2.2-3.814a6.972,6.972,0,0,0,.411-3.5c.013-3.23.632-5.745,2.766-7.962h2.252l.271-.36.042-.1a4.762,4.762,0,0,0-1.2-1.1l-1.389.481A1.683,1.683,0,0,1,17.331.593l.185-.159-.36-.27C14.3.827,11.233,4.734,11.48,8.558c.107,1.663,1.182,1.349.511,4.128L9.1,18.7A48.565,48.565,0,0,1,3.438,29.59C2.188,31.371,1.461,34.38,0,35.49A4.039,4.039,0,0,0,3.024,37.6l1.76-.8s3.291-8.159,3.6-9.387a45.566,45.566,0,0,1,4.347-10.023c.865-1.571,1.3-3.848,2.409-5.149.485-.569,1.225-.588,1.8-.9l2.71-2.769c1.88-2.4,1.1-7.425-1.483-8.569m-.7,1.367.3.127-.631.09.329-.217m-4.422,4.3-.069.445-.1-.042.17-.4m-.154.646L12.778,9.7A5.546,5.546,0,0,1,12.9,6.313m-.3,6.041-.069.445-.1-.042.17-.4M8.1,22.19a3.363,3.363,0,0,1-.992,2.071l-.085.2-.1-.042L8.1,22.19M6.525,25.082l-.069.445-.1-.042.17-.4M6.1,26.089l.1.042-.228.259.127-.3M1.824,33.414l.356-.562-.112.546-.244.016m.4-.662.355-.562-.112.546-.244.016m1.989-3.31-.255.6-.127.3-.1-.042-.1-.042.583-.821M1.584,36.514l-.074-.387,1.022.668c-.4.107-.561-.023-.948-.282m1.049.324.042-.1.244-.016c-.046.032.023.112-.286.116" fill="#fff"/>
        <path id="パス_1781" data-name="パス 1781" d="M84.745,6.727l-.329.217.631-.09-.3-.127" transform="translate(-67.266 -5.36)" fill="#fff"/>
        <path id="パス_1782" data-name="パス 1782" d="M63.6,27.891l-.17.4.1.042.069-.445" transform="translate(-50.544 -22.225)" fill="#fff"/>
        <path id="パス_1783" data-name="パス 1783" d="M62.055,34.458q.062-1.693.124-3.386a5.547,5.547,0,0,0-.124,3.386" transform="translate(-49.277 -24.759)" fill="#fff"/>
        <path id="パス_1784" data-name="パス 1784" d="M61.386,60.805l-.17.4.1.042.069-.445" transform="translate(-48.779 -48.452)" fill="#fff"/>
        <path id="パス_1785" data-name="パス 1785" d="M34.261,111.3a3.363,3.363,0,0,0,.992-2.071l-1.178,2.23.1.042.085-.2" transform="translate(-27.153 -87.035)" fill="#fff"/>
        <path id="パス_1786" data-name="パス 1786" d="M31.451,123.461l-.17.4.1.042q.035-.223.069-.445" transform="translate(-24.926 -98.379)" fill="#fff"/>
        <path id="パス_1787" data-name="パス 1787" d="M29.527,128.415l-.127.3.228-.259-.1-.042" transform="translate(-23.427 -102.326)" fill="#fff"/>
        <path id="パス_1788" data-name="パス 1788" d="M18.059,145.825l.127-.3.255-.6-.583.821.1.042.1.042" transform="translate(-14.23 -115.477)" fill="#fff"/>
        <path id="パス_1789" data-name="パス 1789" d="M10.938,159.012l.244-.016.112-.546-.355.562" transform="translate(-8.716 -126.259)" fill="#fff"/>
        <path id="パス_1790" data-name="パス 1790" d="M8.98,162.271l.244-.016.112-.546-.355.562" transform="translate(-7.156 -128.856)" fill="#fff"/>
        <path id="パス_1791" data-name="パス 1791" d="M7.5,178.213c.388.258.551.389.948.282l-1.022-.668.074.387" transform="translate(-5.921 -141.699)" fill="#fff"/>
        <path id="パス_1792" data-name="パス 1792" d="M12.958,180.868c.309,0,.24-.085.286-.116l-.244.016-.042.1" transform="translate(-10.325 -144.031)" fill="#fff"/>
      </g>
    </g>
  </g>
</svg>
