<?xml version="1.0" encoding="utf-8"?>
<!-- Generator: Adobe Illustrator 25.2.3, SVG Export Plug-In . SVG Version: 6.00 Build 0)  -->
<svg version="1.1" id="レイヤー_1" xmlns="http://www.w3.org/2000/svg" xmlns:xlink="http://www.w3.org/1999/xlink" x="0px"
	 y="0px" viewBox="0 0 110.2 112.6" style="enable-background:new 0 0 110.2 112.6;" xml:space="preserve">
<style type="text/css">
	.st0{fill:#F2BA45;}
	.st1{fill:#DB493C;}
	.st2{fill:#37A759;}
	.st3{fill:#567BB8;}
</style>
<g id="Google">
	<path id="Fill-1" class="st0" d="M23.1,56.3c0-3.6,0.6-7.1,1.7-10.5l-19-14.5c-7.7,15.7-7.7,34.1,0,49.9l19-14.5
		C23.6,63.3,23.1,59.8,23.1,56.3"/>
	<path id="Fill-2" class="st1" d="M56.4,23c7.6,0,14.9,2.6,20.8,7.4l16.4-16.4C70.2-6.5,34.6-4.3,14,19.1c-3.3,3.7-6,7.8-8.2,12.3
		l19,14.5C29.3,32.2,42,23,56.4,23"/>
	<path id="Fill-3" class="st2" d="M56.4,89.5c-14.4,0-27.1-9.2-31.6-22.8l-19,14.5c9.5,19.3,29.1,31.4,50.6,31.4
		c13.6,0.1,26.7-4.9,36.7-14l-18-13.9C69.4,88,62.9,89.7,56.4,89.5"/>
	<path id="Fill-4" class="st3" d="M110.2,56.3c0-3.4-0.5-6.9-1.3-10.2H56.4v21.8h30.2c-1.3,7-5.5,13.1-11.5,16.8l18,13.9
		C103.4,89,110.2,74.6,110.2,56.3"/>
</g>
<g>
</g>
<g>
</g>
<g>
</g>
<g>
</g>
<g>
</g>
<g>
</g>
<g>
</g>
<g>
</g>
<g>
</g>
<g>
</g>
<g>
</g>
<g>
</g>
<g>
</g>
<g>
</g>
<g>
</g>
</svg>
