<?xml version="1.0" encoding="utf-8"?>
<!-- Generator: Adobe Illustrator 25.4.1, SVG Export Plug-In . SVG Version: 6.00 Build 0)  -->
<svg version="1.1" id="レイヤー_1_xA0_画像_00000016052512400474418200000003842620322715316640_"
	 xmlns="http://www.w3.org/2000/svg" xmlns:xlink="http://www.w3.org/1999/xlink" x="0px" y="0px" viewBox="0 0 1920 810"
	 style="enable-background:new 0 0 1920 810;" xml:space="preserve">
<style type="text/css">
	.st0{enable-background:new    ;}
	.st1{fill:#4C4A4A;}
	.st2{fill:#FFFFFF;}
	.st3{fill:#725424;}
</style>
<image style="overflow:visible;" width="1920" height="810" id="レイヤー_1_xA0_画像" xlink:href="6D46459BF7483519.jpg" >
</image>
<g id="背景_xA0_画像_00000028310681339037411210000013815236992897846928_">
</g>
<g class="st0">
	<path class="st1" d="M1271.2,108.4V91h8.4v1.7h-6.6v15.7H1271.2z"/>
	<path class="st1" d="M1305.1,105.7v1.9h-2.6v4.4h-2.4v-1.1h-5.4v1.2c0,2.4-1.2,2.5-5.5,2.5c-0.1-0.6-0.5-1.4-0.8-1.9
		c0.7,0,1.4,0,2,0c1.7,0,1.9,0,1.9-0.6v-1.2h-8v-1.8h8v-1.6H1282v-1.9h10.2v-1.4h-7.7v-1.7h7.7v-1.3h-7.1v-5h7.1v-1.2h-9.7V93h9.7
		v-1.9l3,0.1c0,0.2-0.2,0.4-0.6,0.5V93h9.9v1.9h-9.9v1.2h7.4v5h-7.4v1.3h7.8v3.1H1305.1z M1287.4,99.6h4.8v-1.9h-4.8V99.6z
		 M1299.6,97.7h-5v1.9h5V97.7z M1294.6,104.2v1.4h5.4v-1.4H1294.6z M1300,109.1v-1.6h-5.4v1.6H1300z"/>
	<path class="st1" d="M1331.1,95.8h-1.8c-0.7,1.7-1.6,3.2-2.8,4.4c1.5,1,3.2,1.8,5.1,2.3c-0.5,0.5-1.2,1.4-1.5,2
		c-2-0.6-3.8-1.5-5.3-2.8c-1.6,1.2-3.4,2.2-5.5,2.9c-0.2-0.3-0.5-0.8-0.9-1.2c-0.3,1.2-0.7,2.3-1.1,3.2l-1.6-0.7
		c0.4-1,0.8-2.5,1.1-3.8h-1.9v9.8c0,2.2-0.9,2.5-4.3,2.5c-0.1-0.6-0.4-1.6-0.7-2.2c0.6,0,1.2,0,1.6,0c1,0,1.1,0,1.1-0.4v-6.9
		c-1,2.2-2.2,4.3-3.5,5.5c-0.2-0.7-0.8-1.6-1.1-2.2c1.5-1.4,3-3.8,3.9-6.1h-3.6V100h6.4c-1.4-1-3.5-2.2-5.3-3l1.5-1.5
		c0.7,0.3,1.4,0.6,2.2,1c0.8-0.6,1.6-1.3,2.2-2.1h-6.6v-2h8.5l0.4-0.1l1.8,1c-0.1,0.1-0.3,0.2-0.4,0.3c-0.9,1.2-2.4,2.7-3.9,3.9
		c0.8,0.4,1.4,0.9,1.9,1.3l-1.1,1.2h2.3l1.2,0.1c0,0.3-0.4,1.9-0.6,2.6c1.7-0.6,3.3-1.4,4.6-2.4c-0.8-0.8-1.5-1.8-2.1-2.7
		c-0.5,0.7-1,1.2-1.6,1.7c-0.5-0.4-1.3-1-1.9-1.3c1.8-1.5,3.5-4.2,4.4-6.9l2.7,0.8c-0.1,0.2-0.3,0.3-0.6,0.3c-0.2,0.5-0.4,1-0.7,1.5
		h7.6V95.8z M1328.4,105.8l0.5,0l1.4,0.3c0,0.2,0,0.4-0.1,0.6c-0.7,7.5-1.3,7.8-4.7,7.8c-0.4,0-0.9,0-1.4,0c0-0.7-0.3-1.6-0.6-2.2
		c1,0.1,1.9,0.1,2.3,0.1c0.4,0,0.6,0,0.8-0.2c0.4-0.4,0.7-1.6,1-4.3h-3.3c-0.8,2.7-2.4,5.2-6.1,6.8c-0.3-0.5-0.9-1.3-1.4-1.7
		c2.9-1.1,4.3-2.9,5.1-5h-3.3v-2h3.8c0.2-0.8,0.3-1.7,0.3-2.5l2.9,0.2c0,0.2-0.2,0.4-0.6,0.4c-0.1,0.6-0.2,1.2-0.3,1.9H1328.4z
		 M1322.3,95.8c0,0,0.7,1.4,2.4,3.1c0.8-0.9,1.5-1.9,2.1-3.1H1322.3z"/>
	<path class="st1" d="M1337.9,101c-0.9,1.3-1.8,2.6-2.8,3.6c-0.2-0.6-0.8-1.8-1.2-2.3c2.4-2.5,4.8-6.7,6.3-11l2.7,1
		c-0.1,0.2-0.3,0.3-0.6,0.3c-0.6,1.7-1.4,3.4-2.3,5l0.8,0.2c0,0.2-0.2,0.4-0.6,0.4v16.4h-2.3V101z M1357.9,97.6h-7.6v3.2h6.9v2.2
		h-6.9v3.4h7.3v2.2h-7.3v5.9h-2.4V97.6h-1.8c-1,2-2.1,3.9-3.3,5.4c-0.4-0.5-1.3-1.3-1.8-1.6c2-2.3,3.9-6.2,5-9.9l2.9,0.9
		c-0.1,0.2-0.3,0.3-0.6,0.3c-0.3,0.9-0.6,1.8-1,2.8h10.8V97.6z"/>
	<path class="st1" d="M1383.4,108.6h-8c2.3,1.6,5.5,2.9,8.6,3.5c-0.5,0.5-1.2,1.5-1.6,2.1c-3.3-0.9-6.7-2.6-9.1-4.8v5.1h-2.3v-4.9
		c-2.4,2-5.9,3.7-9,4.6c-0.4-0.6-1-1.5-1.5-2c3-0.6,6.3-2,8.6-3.5h-7.9v-2h9.9v-1.5h-7.5v-1.8h7.5v-1.5h-8.8v-1.9h5.2
		c-0.2-0.7-0.6-1.6-1.1-2.3l0.6-0.1v0l-5.8,0v-2h3.8c-0.4-1-1.2-2.4-1.8-3.4l2-0.7c0.8,1.1,1.7,2.6,2,3.6l-1.3,0.5h2.8v-4.4l2.8,0.2
		c0,0.2-0.2,0.4-0.6,0.5v3.7h2.5v-4.4l2.8,0.2c0,0.2-0.2,0.4-0.6,0.5v3.7h2.6l-0.9-0.3c0.6-1,1.4-2.6,1.8-3.8l2.7,0.9
		c-0.1,0.2-0.3,0.3-0.6,0.2c-0.5,0.9-1.2,2-1.8,3h3.7v2h-5.1l0.5,0.1c-0.1,0.2-0.3,0.2-0.6,0.2c-0.3,0.6-0.8,1.4-1.2,2h5.5v1.9h-9
		v1.5h7.8v1.8h-7.8v1.5h10V108.6z M1374.5,99.8c0.4-0.7,0.8-1.5,1.2-2.3h-6.8c0.5,0.8,0.9,1.6,1.1,2.3l-0.8,0.1h5.5L1374.5,99.8z"/>
	<path class="st1" d="M1394.7,97.1v17.4h-8.4v-1.7h6.6V97.1H1394.7z"/>
	<path class="st1" d="M1400.5,94.3c0.8,0,1.8,0,2.5-0.1c2.5-0.2,14.2-1,18-1.1l0,2.6c-2-0.1-3.4,0.1-5.3,1.4c-3.2,2-6.7,5.8-6.7,8.8
		c0,3.1,2.5,5,8.3,5.7l-1.2,2.5c-7.1-0.9-9.8-3.8-9.8-8.1c0-3.3,3.1-7.4,7.2-10.1c-2.9,0.2-9.5,0.7-12.2,1c-0.1,0.2-0.4,0.3-0.6,0.4
		L1400.5,94.3z M1417,99.8c1.1,0.9,2.5,2.3,3.2,3.4l-1.2,0.9c-0.6-1-2.1-2.6-3.1-3.4L1417,99.8z M1419.8,97.6
		c1.2,0.9,2.5,2.3,3.2,3.4l-1.2,1c-0.6-1-2-2.5-3.1-3.4L1419.8,97.6z"/>
	<path class="st1" d="M1439.3,105.3c-1.5,0.2-3.6,0.3-5.6,0.3c-0.1,1.3-0.1,1.4-0.1,1.8c0,3.3,2,3.9,4.5,3.9c1,0,2.2-0.2,3.1-0.4
		c1.4-0.4,2.1-1.4,2.1-2.7c0-1.2-0.6-2.8-1.9-4.3c0.6-0.2,1.7-0.6,2.3-0.8c1.5,2,2.2,4,2.2,5.6c0,5-6.5,5-8,5
		c-3.7,0-6.9-0.9-6.9-6.3c0-0.6,0-1.2,0.1-1.8c-1.8-0.1-5.3-0.2-5.3-3c0-1,0.7-2.2,2.1-3.3l1.9,0.9c-1,0.6-1.6,1.4-1.6,2
		c0,1.1,1.6,1.2,3.2,1.2c0.2-1.5,0.3-3.3,0.5-5c-1.7-0.1-3.7-0.6-5-1.2l0.5-2.3c1.3,0.6,3,1.1,4.7,1.3c0.2-1.5,0.4-3,0.5-4.3
		l3.4,0.4c0,0.3-0.4,0.5-0.8,0.5c-0.2,1-0.4,2.2-0.6,3.5c0.7,0,1.5,0.1,2.2,0.1c0.9,0,1.8,0,2.5-0.1l-0.1,2.3
		c-0.7,0-1.6,0.1-2.5,0.1c-0.9,0-1.8,0-2.5-0.1c-0.2,1.7-0.4,3.4-0.6,4.9c1.8,0,3.8-0.2,5.4-0.4L1439.3,105.3z"/>
</g>
<g class="st0">
	<path class="st1" d="M1143.1,229.4V212h8.4v1.7h-6.6v15.7H1143.1z"/>
	<path class="st1" d="M1154.6,223.2v-2.3h19.7v2.3h-7.9l0.5,0.1c-0.1,0.2-0.2,0.3-0.5,0.3c-0.7,4.2-2.6,8.7-7.6,11.2
		c-0.4-0.4-1.3-1.2-1.9-1.7c4.8-2.4,6.4-5.9,6.9-10H1154.6z M1172.3,216.8c-0.3-0.7-1-1.7-1.6-2.6v2.3h-13.8v-2.3h13.8
		c-0.3-0.5-0.7-0.8-1-1.1l1.2-0.9c1,1,2.1,2.7,2.8,3.8L1172.3,216.8z M1175.5,215.9c-0.5-1-1.7-2.7-2.7-3.7l1.1-0.8
		c1,1,2.2,2.6,2.8,3.7L1175.5,215.9z"/>
	<path class="st1" d="M1200.4,220.9h-5.1v1.3c0,5-1.6,9.7-7.9,12.6c-0.5-0.5-1.2-1.3-1.8-1.8c6-2.6,7.2-6.8,7.2-10.8v-1.3h-7v5.8
		h-2.5v-5.8h-4.6v-2.4h4.6v-5.3l3.1,0.2c0,0.2-0.2,0.5-0.7,0.6v4.5h7v-5.6l3.2,0.2c0,0.2-0.2,0.4-0.7,0.5v4.9h5.1V220.9z
		 M1196.8,213.8c1,0.9,2.1,2.2,2.7,3.3l-1.1,0.9c-0.7-1-1.8-2.4-2.7-3.3L1196.8,213.8z M1199.3,211.7c1.1,1,2.1,2.2,2.8,3.3
		l-1.1,0.9c-0.7-1-1.8-2.4-2.8-3.3L1199.3,211.7z"/>
	<path class="st1" d="M1224,214.9c-0.1,0.1-0.3,0.2-0.5,0.2c-0.1,0-0.2,0-0.2,0c-1.9,1.9-4.5,4.1-6.9,5.8c0.2,0.1,0.5,0.2,0.7,0.3
		c0,0.2-0.3,0.4-0.6,0.4v13.2h-2.6v-12.3c-2.4,1.7-5.8,3.6-8.9,5.1c-0.3-0.6-1-1.5-1.5-1.9c6.7-3,14.1-8.3,18.1-12.7L1224,214.9z"/>
	<path class="st1" d="M1228.4,214.7c2.5,0.8,5.5,2.1,7.4,3.3l-1.3,2.2c-1.8-1.2-4.8-2.6-7.2-3.4L1228.4,214.7z M1228,231.8
		c8.6-2.6,14.5-7.6,17.4-14.5c0.7,0.6,1.6,1,2.3,1.5c-3.1,6.8-9.1,12.2-17.5,15c0,0.2-0.2,0.5-0.4,0.6L1228,231.8z"/>
	<path class="st1" d="M1254,222c-0.9,1.3-1.8,2.6-2.8,3.6c-0.2-0.6-0.8-1.8-1.2-2.3c2.4-2.5,4.8-6.7,6.3-11l2.7,1
		c-0.1,0.2-0.3,0.3-0.6,0.3c-0.7,1.7-1.4,3.4-2.3,5l0.8,0.2c0,0.2-0.2,0.4-0.6,0.4v16.4h-2.3V222z M1274,218.6h-7.6v3.2h6.9v2.2
		h-6.9v3.4h7.3v2.2h-7.3v5.9h-2.4v-16.9h-1.8c-1,2-2.1,3.9-3.3,5.4c-0.4-0.5-1.3-1.3-1.8-1.6c2-2.3,3.9-6.2,5-9.9l2.9,0.9
		c-0.1,0.2-0.3,0.3-0.6,0.3c-0.3,0.9-0.7,1.8-1,2.8h10.8V218.6z"/>
	<path class="st1" d="M1299.5,229.6h-8c2.3,1.6,5.5,2.9,8.6,3.5c-0.5,0.5-1.2,1.5-1.6,2.1c-3.3-0.9-6.7-2.6-9.1-4.8v5.1h-2.3v-4.9
		c-2.4,2-5.9,3.7-9,4.6c-0.3-0.6-1-1.5-1.5-2c3-0.6,6.3-2,8.6-3.5h-7.9v-2h9.9v-1.5h-7.5v-1.8h7.5v-1.5h-8.8v-1.9h5.2
		c-0.2-0.7-0.7-1.6-1.1-2.3l0.6-0.1v0l-5.8,0v-2h3.8c-0.4-1-1.1-2.4-1.8-3.4l2-0.7c0.8,1.1,1.7,2.6,2,3.6l-1.3,0.5h2.8v-4.4l2.8,0.2
		c0,0.2-0.2,0.4-0.6,0.5v3.7h2.5v-4.4l2.8,0.2c0,0.2-0.2,0.4-0.6,0.5v3.7h2.6l-0.9-0.3c0.6-1,1.4-2.6,1.8-3.8l2.7,0.9
		c-0.1,0.2-0.3,0.3-0.6,0.2c-0.5,0.9-1.2,2-1.8,3h3.7v2h-5.1l0.5,0.1c-0.1,0.2-0.3,0.2-0.6,0.2c-0.3,0.6-0.8,1.4-1.2,2h5.5v1.9h-9
		v1.5h7.8v1.8h-7.8v1.5h10V229.6z M1290.7,220.8c0.4-0.7,0.8-1.5,1.2-2.3h-6.8c0.5,0.8,0.9,1.6,1.1,2.3l-0.8,0.1h5.5L1290.7,220.8z"
		/>
	<path class="st1" d="M1310.8,218.1v17.4h-8.4v-1.7h6.6v-15.7H1310.8z"/>
	<path class="st1" d="M1316.6,215.3c0.8,0,1.8,0,2.5-0.1c2.5-0.2,14.2-1,18-1.1l0,2.6c-2-0.1-3.4,0.1-5.3,1.4
		c-3.2,2-6.7,5.8-6.7,8.8c0,3.1,2.5,5,8.3,5.7l-1.2,2.5c-7.1-0.9-9.8-3.8-9.8-8.1c0-3.3,3.1-7.4,7.2-10.1c-2.9,0.2-9.5,0.7-12.2,1
		c-0.1,0.2-0.4,0.3-0.6,0.4L1316.6,215.3z M1333.1,220.8c1.1,0.9,2.5,2.3,3.2,3.4l-1.2,0.9c-0.6-1-2.1-2.6-3.1-3.4L1333.1,220.8z
		 M1335.9,218.6c1.2,0.9,2.5,2.3,3.2,3.4l-1.2,1c-0.6-1-2-2.5-3.1-3.4L1335.9,218.6z"/>
	<path class="st1" d="M1355.5,226.3c-1.5,0.2-3.6,0.3-5.6,0.3c-0.1,1.3-0.1,1.4-0.1,1.8c0,3.3,1.9,3.9,4.5,3.9c1,0,2.2-0.2,3.1-0.4
		c1.4-0.4,2.1-1.4,2.1-2.7c0-1.2-0.6-2.8-1.9-4.3c0.7-0.2,1.7-0.6,2.3-0.8c1.5,2,2.2,4,2.2,5.6c0,5-6.5,5-8,5
		c-3.7,0-6.9-0.9-6.9-6.3c0-0.6,0-1.2,0.1-1.8c-1.8-0.1-5.3-0.2-5.3-3c0-1,0.6-2.2,2.1-3.3l1.9,0.9c-1,0.6-1.6,1.4-1.6,2
		c0,1.1,1.7,1.2,3.2,1.2c0.1-1.5,0.3-3.3,0.5-5c-1.7-0.1-3.7-0.6-5-1.2l0.5-2.3c1.3,0.6,3,1.1,4.7,1.3c0.2-1.5,0.4-3,0.5-4.3
		l3.4,0.4c-0.1,0.3-0.4,0.5-0.9,0.5c-0.2,1-0.4,2.2-0.6,3.5c0.7,0,1.4,0.1,2.2,0.1c0.9,0,1.8,0,2.5-0.1l-0.1,2.3
		c-0.7,0-1.6,0.1-2.5,0.1s-1.8,0-2.5-0.1c-0.2,1.7-0.4,3.4-0.5,4.9c1.8,0,3.8-0.2,5.4-0.4L1355.5,226.3z"/>
</g>
<g class="st0">
	<path class="st1" d="M977.4,339.7c1.5-1.9,2.4-5,2.9-7.8l2.2,0.6c-0.4,2.9-1.3,6.3-2.9,8.3L977.4,339.7z M987.1,342.8
		c0,1.2,0.2,1.4,1.6,1.4h4.2c1.3,0,1.5-0.8,1.7-4.6c0.5,0.4,1.5,0.8,2.2,1c-0.3,4.5-1,5.9-3.8,5.9h-4.6c-2.9,0-3.7-0.8-3.7-3.6V342
		c-1.8,1.2-3.6,2.3-5.6,3.2c-0.3-0.5-1-1.4-1.5-1.9c2.6-1.1,5-2.6,7.1-4.2V330l3,0.2c0,0.2-0.2,0.4-0.6,0.4v6.6
		c4.1-3.7,7.3-8.1,9.4-12.5l2.8,1.2c-0.2,0.2-0.5,0.3-0.8,0.2c-2.5,5-6.3,10.1-11.4,14.1V342.8z M985.9,323.1
		c2.6,0.8,5.6,2.3,7.3,3.5l-1.6,2.1c-1.6-1.2-4.7-2.8-7.2-3.7L985.9,323.1z M999.4,341c-0.7-2.3-2.4-5.8-4.1-8.4l2.2-1
		c1.8,2.5,3.6,5.9,4.3,8.2L999.4,341z"/>
	<path class="st1" d="M1027.3,338.9h-5c-0.7,1.4-1.6,2.6-2.8,3.5c2.7,0.7,5.1,1.4,6.9,2.1l-1.4,1.9c-2-0.8-4.8-1.7-7.9-2.5
		c-2.8,1.4-6.6,2.2-11.6,2.5c-0.2-0.7-0.5-1.5-0.9-2.1c3.7-0.2,6.7-0.6,9.1-1.3c-1.2-0.3-2.4-0.6-3.7-0.8l-0.4,0.6l-2.3-0.8
		c0.7-0.9,1.5-2,2.4-3.2h-5.6v-2h6.9c0.5-0.7,1-1.5,1.4-2.1h-6.2v-6.8h5.4v-1.8h-7.4v-2.1h22.7v2.1h-7.6v1.8h5.7v6.8h-10.4l0.8,0.2
		c-0.1,0.2-0.3,0.3-0.7,0.2c-0.3,0.5-0.7,1.1-1.1,1.7h13.5V338.9z M1008.6,330v3h3.2v-3H1008.6z M1012.5,338.9
		c-0.4,0.6-0.8,1.1-1.2,1.7c1.8,0.3,3.6,0.7,5.4,1.1c1.2-0.7,2.1-1.7,2.8-2.8H1012.5z M1014,326.2v1.8h3.3v-1.8H1014z M1014,332.9
		h3.3v-3h-3.3V332.9z M1022.8,330h-3.3v3h3.3V330z"/>
	<path class="st1" d="M1040.3,323.9c-0.1,0.2-0.3,0.5-0.8,0.5c-0.2,1-0.4,2.2-0.6,3.1c2.1-0.1,4.7-0.5,6.7-1.2l0.3,2.4
		c-2.2,0.5-4.9,0.9-7.5,1.1c-1.2,4.7-2.7,8.5-5,12.1l-2.4-0.9c2.2-3.2,3.9-6.9,4.8-11.2c-0.5,0-1.2,0-1.7,0h-2.9v-2.3h2.9
		c0.8,0,1.5,0,2.2,0c0.2-1.2,0.5-2.6,0.6-4L1040.3,323.9z M1046.9,334.7c0,1.7,0.1,3.1,0.2,4.7c1.5,0.6,3.6,1.6,5.1,2.7l-1.2,2.3
		c-1.1-0.9-2.7-1.8-3.9-2.4c0,1.4-0.6,4.1-4.9,4.1c-2.7,0-4.9-1.3-4.9-3.8c0-2.5,2.6-3.9,5-3.9c0.8,0,1.5,0.1,2.4,0.3
		c-0.1-1.4-0.2-2.8-0.2-3.8L1046.9,334.7z M1044.8,341c-0.9-0.3-1.8-0.5-2.6-0.5c-1.4,0-2.8,0.6-2.8,1.8c0,1.1,1.1,1.8,2.8,1.8
		c1.4,0,2.5-0.6,2.5-2.2V341z M1052,332.5c-2.7,0-6.1,0.4-8.7,1.1l-0.4-2.2c2.8-0.8,6.2-1.3,9-1.3L1052,332.5z"/>
	<path class="st1" d="M1064.1,324.7v16.9h-5.3v2.1h-2.2v-19H1064.1z M1061.9,326.9h-3v5.2h3V326.9z M1058.9,339.5h3v-5.3h-3V339.5z
		 M1073,331h6.1v2.1h-14.6V331h6.1v-2.8h-5.1V326h5.1v-2.9l2.9,0.2c0,0.2-0.2,0.3-0.6,0.4v2.3h5.3v2.1h-5.3V331z M1076.9,333.5
		c0,0.2-0.2,0.3-0.6,0.4v1.7h2.8v2.1h-2.8v6.2c0,2.3-0.9,2.6-5.3,2.6c-0.1-0.7-0.5-1.6-0.8-2.2c0.7,0,1.4,0,2,0c1.7,0,1.7,0,1.7-0.4
		v-6.2h-9.4v-2.1h9.4v-2.3L1076.9,333.5z M1069,344c-0.5-1.2-1.8-3-3.1-4.4l1.9-1.1c1.2,1.3,2.6,3,3.2,4.2L1069,344z"/>
	<path class="st1" d="M1087.9,325.1c-0.1,0.3-0.3,0.4-0.8,0.5c-0.9,4.2-1.3,8.7-1.3,11.1c0,1.6,0,3.2,0.2,4.2c0.4-1,1.4-3.3,1.8-4.2
		l1.3,1.7c-0.9,2.1-1.7,3.5-2.1,4.7c-0.1,0.4-0.2,0.8-0.2,1.2c0,0.3,0.1,0.6,0.1,0.8l-2.5,0.4c-0.8-2.4-1.1-5.4-1.1-8.8
		c0-3.3,0.5-7.9,1.2-12.1L1087.9,325.1z M1103.4,343.5c-0.9,0-1.8,0.1-2.7,0.1c-1.7,0-3.3-0.1-4.5-0.2c-3.3-0.5-4.7-2.2-4.7-4.3
		c0-1.8,0.9-3.2,2.2-4.9l2.3,0.9c-1.2,1.2-2,2.4-2,3.7c0,2.3,3.1,2.5,6,2.5c1.1,0,2.3,0,3.4-0.2L1103.4,343.5z M1091.9,327.8
		c3-0.1,7.5-0.4,10.7-1l0.2,2.4c-3.1,0.5-8,0.8-10.9,0.9L1091.9,327.8z"/>
	<path class="st1" d="M1122.8,331.5c-0.1,0.3-0.2,0.6-0.2,0.9c3.9,0.9,5.6,3.5,5.6,6.4c0,4-3.2,6.6-9.5,7.3c-0.1-0.5-0.6-1.5-1-2
		c4.8-0.5,7.9-2.1,7.9-5.1c0-1.5-0.6-3.6-3.8-4.3c-1.1,2.6-2.8,5.1-4.8,6.9c0.1,0.4,0.3,0.8,0.5,1.1l-2,1.3c-0.2-0.3-0.3-0.7-0.5-1
		c-1.9,1.3-3.4,1.5-4.3,1.5c-2.3,0-3.4-1.6-3.4-3.5c0-3.4,2.8-6.2,6.3-7.7c0-1.2,0-2.4,0-3.7c-1.2,0-2.3,0-3.3,0c-0.8,0-1.4,0-1.8,0
		l-0.1-2.3c1.2,0.1,3.3,0.1,5.3,0.1c0-1.1,0.1-2.4,0.1-3.5l3.2,0.2c0,0.2-0.3,0.5-0.7,0.5c-0.1,0.8-0.1,1.8-0.2,2.7
		c2.7-0.1,6.8-0.4,9.4-1l0.2,2.4c-2.7,0.5-6.9,0.8-9.8,0.9c0,1.1-0.1,2.1,0,3.1c1.9-0.5,3.4-0.5,4.2-0.4c0.1-0.4,0.2-0.8,0.2-1.1
		L1122.8,331.5z M1114.3,340.6c-0.3-1.4-0.5-3.2-0.7-5.2c-2.3,1.1-4,2.9-4,4.9c0,1.7,1.2,1.6,1.6,1.6
		C1112.1,341.9,1113.2,341.4,1114.3,340.6z M1119.3,334.2c-1.7,0-2.8,0.3-3.4,0.5c0,1.6,0.2,3,0.4,4.2
		C1117.5,337.6,1118.6,336,1119.3,334.2z"/>
	<path class="st1" d="M1136.8,328.7c-0.1,0.2-0.3,0.4-0.7,0.4c-0.2,3.6-0.6,6.1-1,6.7h0c2.3-1.6,5.8-2.8,8.7-2.8
		c3.7,0,6.2,2,6.2,5.6c0,4.7-3.7,6.9-13.6,7.3c-0.2-0.6-0.5-1.6-0.9-2.3c8.5-0.4,11.8-1.7,11.8-4.9c0-2.1-1.5-3.4-4-3.4
		c-3.9,0-8,2.3-8.8,3.9l-2.3-1c0.5-0.4,1.4-5.1,1.5-9.8L1136.8,328.7z M1136.7,323.6c3.2,0.4,7.1,1.1,9.6,2.1l-0.8,2.4
		c-2.5-1-6.5-1.8-9.6-2.2L1136.7,323.6z"/>
	<path class="st1" d="M1157,335.1c1.6-3.5,5.4-6.4,9.1-7.1c0-1.3-0.2-2.9-0.3-4.1l3.2,0.1c0,0.2-0.2,0.5-0.6,0.6
		c0,0.8,0.1,2.1,0.1,3.2c3.8,0,7.1,2.1,7.1,6.6s-2.9,7.1-7.9,7.2c-0.8,1.5-2.3,3.4-4.8,4.6c-0.5-0.5-1.4-1.3-1.8-1.7
		c2-0.9,3.4-2.2,4.1-3.4c-1.8-0.3-3.9-1.5-5-3.4c0.5-0.4,1.2-1,1.6-1.5c0.9,1.6,2.7,2.6,4.2,2.7c0.2-1,0.3-2.5,0.3-3.8
		c0-1.4,0-3-0.2-4.9c-2.9,0.5-6.2,2.8-8.2,7.1c-0.2,0.5-0.4,1.2-0.4,2c0,0.7,0.1,1.5,0.2,2.3l-2.5,0.3c-0.5-2.1-0.7-4.6-0.7-7.1
		c0-2.8,0.4-6.7,1-9.6l3,0.6c0,0.2-0.3,0.3-0.5,0.3C1157.5,328.5,1157,332.5,1157,335.1L1157,335.1z M1168.7,330
		c0.1,2,0.1,3.9,0.1,5.6c0,1.3-0.1,2.7-0.4,3.6c3-0.2,4.8-1.9,4.8-4.9C1173.2,331.5,1171.3,330,1168.7,330z"/>
	<path class="st1" d="M1186.8,333.8c1.5-0.7,3.8-1.2,5.5-1.2c3.9,0,6.4,2.3,6.4,6.1c0,4.5-3.9,7.1-9.2,7.1c-3.2,0-5.5-1.4-5.5-3.8
		c0-1.9,1.9-3.5,4.3-3.5c2.7,0,4.6,2,5,4.2c1.6-0.6,2.7-2,2.7-3.9c0-2.4-1.9-4-4.7-4c-3.6,0-7,1.5-8.7,3.2c-0.7,0.6-1.7,1.6-2.3,2.4
		l-1.8-1.7c2-2,8.7-8.4,12.1-11.6c-1.3,0.2-6,0.4-8.4,0.5c0,0.2-0.3,0.3-0.5,0.4l-0.2-2.9c3.3,0,10-0.2,11.8-0.5l0.4-0.2l1.7,2.1
		c-0.2,0.1-0.4,0.2-0.7,0.3C1193.2,328,1188.8,332,1186.8,333.8L1186.8,333.8z M1189.2,343.7c0.5,0,1.4-0.1,1.9-0.2
		c-0.2-1.6-1.4-2.9-2.9-2.9c-1,0-2,0.6-2,1.5C1186.1,343.4,1187.8,343.7,1189.2,343.7z"/>
	<path class="st1" d="M1224.9,340.6h-8c2.3,1.6,5.5,2.9,8.6,3.5c-0.5,0.5-1.2,1.5-1.6,2.1c-3.3-0.9-6.7-2.6-9.1-4.8v5.1h-2.3v-4.9
		c-2.4,2-5.9,3.7-9,4.6c-0.3-0.6-1-1.5-1.5-2c3-0.6,6.3-2,8.6-3.5h-7.9v-2h9.9v-1.5h-7.5v-1.8h7.5v-1.5h-8.8v-1.9h5.2
		c-0.2-0.7-0.6-1.6-1.1-2.3l0.6-0.1v0l-5.8,0v-2h3.8c-0.4-1-1.2-2.4-1.8-3.4l2-0.7c0.8,1.1,1.7,2.6,2,3.6l-1.3,0.5h2.8v-4.4l2.8,0.2
		c0,0.2-0.2,0.4-0.6,0.5v3.7h2.5v-4.4l2.8,0.2c0,0.2-0.2,0.4-0.6,0.5v3.7h2.7l-0.9-0.3c0.6-1,1.4-2.6,1.8-3.8l2.7,0.9
		c-0.1,0.2-0.3,0.3-0.6,0.2c-0.4,0.9-1.2,2-1.8,3h3.7v2h-5.1l0.5,0.1c-0.1,0.2-0.3,0.2-0.6,0.2c-0.3,0.6-0.8,1.4-1.2,2h5.5v1.9h-9
		v1.5h7.8v1.8h-7.8v1.5h10V340.6z M1216,331.8c0.4-0.7,0.8-1.5,1.2-2.3h-6.8c0.5,0.8,0.9,1.6,1.1,2.3l-0.8,0.1h5.5L1216,331.8z"/>
	<path class="st1" d="M1251.3,327.8h-1.8c-0.7,1.7-1.6,3.2-2.8,4.4c1.5,1,3.2,1.8,5.1,2.3c-0.5,0.5-1.2,1.4-1.5,2
		c-2-0.6-3.8-1.5-5.3-2.8c-1.6,1.2-3.4,2.2-5.5,2.9c-0.2-0.3-0.5-0.8-0.9-1.2c-0.3,1.2-0.7,2.3-1.1,3.2l-1.6-0.7
		c0.4-1,0.8-2.5,1.1-3.8h-1.9v9.8c0,2.2-0.9,2.5-4.3,2.5c-0.1-0.6-0.4-1.6-0.7-2.2c0.6,0,1.2,0,1.6,0c1,0,1.1,0,1.1-0.4v-6.9
		c-1,2.2-2.2,4.3-3.5,5.5c-0.2-0.7-0.8-1.6-1.2-2.2c1.5-1.4,3-3.8,3.9-6.1h-3.6V332h6.4c-1.4-1-3.5-2.2-5.3-3l1.5-1.5
		c0.7,0.3,1.4,0.6,2.2,1c0.8-0.6,1.6-1.3,2.2-2.1h-6.6v-2h8.5l0.4-0.1l1.8,1c-0.1,0.1-0.3,0.2-0.4,0.3c-0.9,1.2-2.4,2.7-3.9,3.9
		c0.8,0.4,1.5,0.9,1.9,1.3l-1.1,1.2h2.3l1.2,0.1c0,0.3-0.4,1.9-0.6,2.6c1.7-0.6,3.3-1.4,4.6-2.4c-0.8-0.8-1.5-1.8-2.1-2.7
		c-0.5,0.7-1,1.2-1.6,1.7c-0.5-0.4-1.3-1-1.9-1.3c1.8-1.5,3.5-4.2,4.4-6.9l2.7,0.8c-0.1,0.2-0.3,0.3-0.6,0.3c-0.2,0.5-0.4,1-0.7,1.5
		h7.6V327.8z M1248.6,337.8l0.5,0l1.4,0.3c0,0.2,0,0.4-0.1,0.6c-0.7,7.5-1.3,7.8-4.7,7.8c-0.4,0-0.9,0-1.4,0c0-0.7-0.3-1.6-0.6-2.2
		c1,0.1,1.9,0.1,2.3,0.1c0.4,0,0.6,0,0.8-0.2c0.4-0.4,0.7-1.6,1-4.3h-3.3c-0.8,2.7-2.4,5.2-6.1,6.8c-0.3-0.5-0.9-1.3-1.4-1.7
		c2.9-1.1,4.3-2.9,5.1-5h-3.3v-2h3.8c0.2-0.8,0.3-1.7,0.3-2.5l2.9,0.2c0,0.2-0.2,0.4-0.6,0.4c-0.1,0.6-0.2,1.2-0.3,1.9H1248.6z
		 M1242.6,327.8c0,0,0.7,1.4,2.4,3.1c0.8-0.9,1.5-1.9,2.1-3.1H1242.6z"/>
	<path class="st1" d="M1275.8,334.5c-0.1,0-0.1,0-0.2,0c-0.2,0-0.3,0-0.4-0.1c-1.9,0.6-4.5,1.5-6.4,2.3c0,0.5,0.1,1.2,0.1,1.9
		c0,0.7,0,1.4-0.1,2.2l-2.5,0.2c0.1-1.1,0.1-2.5,0.1-3.3c-2.3,1.2-4.2,2.6-4.2,3.8c0,1.2,1.5,1.8,4.7,1.8c2.3,0,4.6-0.1,6.2-0.3
		l0,2.3c-1.4,0.1-3.6,0.2-6.3,0.2c-4.8,0-7.1-1.1-7.1-3.9c0-2.1,2.7-4.3,6.4-6.1c-0.1-1.1-0.6-1.8-1.5-1.8c-1.8,0-3.6,0.9-5.7,3.3
		c-0.6,0.7-1.6,1.7-2.7,2.7l-1.7-1.7c1.2-1,2.5-2.2,3.3-3.2c1.1-1.4,2.2-3.6,2.8-5.4l-1.2,0c-1,0-2.8,0-4,0v-2.2
		c1.5,0,3.2,0.1,4.3,0.1l1.5,0c0.2-1.1,0.4-2.1,0.6-3.4l3.1,0.3c0,0.2-0.3,0.4-0.6,0.5c-0.2,0.9-0.4,1.7-0.6,2.5
		c1.8-0.1,5.1-0.5,8.1-1.4l0.4,2.4c-2.8,0.8-6.4,1.2-9.1,1.3c-0.5,1.6-1,2.9-1.5,3.5h0c1-0.8,2.4-1.4,3.7-1.4c1.5,0,2.7,1.1,3.1,3.1
		c2-0.9,4.5-1.8,6.4-2.6L1275.8,334.5z"/>
	<path class="st1" d="M1300.9,331.8h-4.9v1.4c0,5-1.6,9.7-7.9,12.6c-0.4-0.5-1.2-1.3-1.8-1.8c6-2.6,7.2-6.8,7.2-10.8v-1.4h-7.2v5.9
		h-2.5v-5.9h-4.6v-2.4h4.6v-5.2l3.2,0.2c0,0.2-0.2,0.5-0.7,0.6v4.4h7.2v-5.5l3.2,0.2c0,0.2-0.2,0.5-0.7,0.5v4.8h4.9V331.8z"/>
	<path class="st1" d="M1311.1,335.2c-1.2,2.9-2.6,5.4-4.5,7.3l-2.1-1.3c1.8-1.7,3.3-4,4.3-6.8L1311.1,335.2z M1316.5,331.5v10.9
		c0,3.3-2.5,3.3-6.3,3.2c-0.1-0.6-0.4-1.6-0.7-2.3c0.7,0,1.7,0.1,2.4,0.1c1.5,0,2,0,2-1v-11h-8.2v-2.4h8.2v-5l3.2,0.2
		c0,0.3-0.2,0.5-0.7,0.5v4.3h8.1v2.4H1316.5z M1321,334.2c1.8,2,3.8,4.9,5,7.1l-2.2,1.3c-1.1-2.2-3.2-5.5-4.8-7.3L1321,334.2z
		 M1324,322.6c1.5,0,2.7,1.2,2.7,2.8s-1.2,2.7-2.7,2.7c-1.5,0-2.8-1.2-2.8-2.7C1321.3,323.8,1322.5,322.6,1324,322.6z M1325.9,325.4
		c0-1-0.9-1.9-1.9-1.9c-1,0-1.9,0.8-1.9,1.9c0,1,0.8,1.9,1.9,1.9C1325.1,327.3,1325.9,326.4,1325.9,325.4z"/>
	<path class="st1" d="M1330.4,333.2h20.9v2.5h-19.9c-0.1,0.2-0.5,0.4-0.8,0.4L1330.4,333.2z"/>
	<path class="st1" d="M1370,337.6c-2.3-1.3-5.7-2.9-8.3-3.9v12.1h-2.6v-21.9l3.3,0.2c0,0.3-0.2,0.5-0.7,0.6v7.1l0.5-0.7
		c2.8,1,6.6,2.7,9.2,4L1370,337.6z"/>
</g>
<g id="グループ_1664" transform="translate(-13 -18)">
	
		<image style="overflow:visible;enable-background:new    ;" width="3634" height="1823" id="長方形_2471" xlink:href="6D46459BF748351B.png"  transform="matrix(6.397083e-02 0 0 6.397083e-02 1665.265 72.0158)">
	</image>
	<rect id="長方形_2582" x="1743.3" y="83" class="st2" width="93" height="14"/>
	<g class="st0">
		<path class="st3" d="M1716.8,77.2v8.5c0,0.6-0.2,0.8-0.6,1c-0.4,0.1-1.1,0.1-2.3,0.1c-0.1-0.2-0.2-0.6-0.3-0.8c0.5,0,1,0,1.4,0
			c1,0,1,0,1-0.3v-2.5h-5.4c-0.3,1.3-0.9,2.6-2,3.6c-0.1-0.2-0.4-0.4-0.5-0.5c1.9-1.6,2.1-3.9,2.1-5.7v-3.4H1716.8z M1710.8,80.6
			c0,0.6,0,1.3-0.1,2h5.3v-2H1710.8z M1716,77.9h-5.2v2h5.2V77.9z"/>
		<path class="st3" d="M1722.9,83.5c-0.1-0.1-0.2-0.2-0.3-0.3v2.9h-2.6v0.5h-0.6v-3.1c-0.2,0.1-0.3,0.2-0.5,0.2
			c-0.1-0.2-0.3-0.4-0.4-0.5c0.8-0.3,1.6-0.9,2.3-1.6c-0.4-0.3-0.8-0.6-1.1-0.8c-0.2,0.2-0.5,0.5-0.7,0.6c-0.1-0.1-0.3-0.3-0.5-0.4
			c0.8-0.5,1.6-1.5,2-2.5l0.8,0.3c0,0.1-0.1,0.1-0.2,0.1c-0.1,0.2-0.2,0.3-0.3,0.5h1.5l0.1,0c0.3,0.1,0.4,0.2,0.5,0.2
			c0,0-0.1,0.1-0.1,0.1c-0.3,0.7-0.6,1.3-1.1,1.9c0.7,0.5,1.3,1,1.7,1.4L1722.9,83.5z M1719.4,78.3v1.1h-0.6v-1.7h1.9v-1.1l0.9,0.1
			c0,0.1-0.1,0.1-0.2,0.2v0.9h1.9v1.7h-0.6v-1.1H1719.4z M1722.6,83.2c-0.4-0.3-0.8-0.7-1.3-1.1c-0.4,0.4-0.9,0.8-1.4,1.1H1722.6z
			 M1722,85.5v-1.7h-2v1.7H1722z M1720.4,79.9c-0.1,0.2-0.2,0.3-0.4,0.5c0.4,0.2,0.7,0.5,1.1,0.8c0.3-0.4,0.6-0.8,0.8-1.3H1720.4z
			 M1725.6,85.4c0,0-0.1,0.1-0.2,0.1c-0.4,0.5-1.4,1.1-2.2,1.4c-0.1-0.1-0.3-0.4-0.5-0.5c0.8-0.3,1.7-0.9,2.2-1.3L1725.6,85.4z
			 M1723.9,78.9h1.5c0.1-0.4,0.2-0.8,0.2-1.1h-2.2v-0.7h5.4v0.7h-2.4c-0.1,0.3-0.2,0.8-0.3,1.1h2.2v5.8h-4.4V78.9z M1727.6,80.7
			v-1.1h-3.1v1.1H1727.6z M1727.6,82.4v-1.2h-3.1v1.2H1727.6z M1727.6,84.1V83h-3.1v1.2H1727.6z M1728.4,86.9
			c-0.4-0.4-1.2-1-1.9-1.5l0.5-0.4c0.7,0.4,1.5,1,1.9,1.4L1728.4,86.9z"/>
		<path class="st3" d="M1733.9,85.9h-0.9v-2.3h-3.6V83l3.5-5.3h0.9v5.2h1.1v0.7h-1.1V85.9z M1730.3,82.9h2.7v-2.9c0-0.5,0-0.9,0-1.3
			h0c-0.3,0.5-0.5,0.9-0.7,1.2L1730.3,82.9L1730.3,82.9z"/>
		<path class="st3" d="M1745.6,78.2h-5.5c0,0-0.1,0.1-0.2,0.1c0,0.7-0.1,1.5-0.1,2.3h4.2l0.2,0l0.4,0.1c0,0.1,0,0.2,0,0.3
			c-0.2,3.7-0.4,5.1-0.8,5.5c-0.3,0.3-0.6,0.4-1.4,0.4c-0.4,0-0.9,0-1.5-0.1c0-0.2-0.1-0.5-0.3-0.7c0.9,0.1,1.7,0.1,2.1,0.1
			c0.2,0,0.3,0,0.4-0.1c0.3-0.3,0.5-1.6,0.7-4.7h-4.1c-0.3,2.2-1.1,4.3-3.5,5.6c-0.1-0.2-0.4-0.4-0.5-0.6c3.2-1.6,3.4-5.2,3.5-8.1
			h-3.2v-0.7h9.8V78.2z"/>
		<path class="st3" d="M1756.2,77.4v8.4c0,1-0.4,1-2.5,1c0-0.2-0.2-0.5-0.3-0.7c0.4,0,0.8,0,1.1,0c0.9,0,0.9,0,0.9-0.3v-3.6h-7.7
			v4.6h-0.7v-9.5H1756.2z M1747.8,78.1v3.4h3.4v-3.4H1747.8z M1752,81.5h3.5v-3.4h-3.5V81.5z"/>
		<path class="st3" d="M1764.5,78c1.2,0.9,2.5,2.2,3.2,3.1l-0.6,0.5c-0.2-0.3-0.5-0.7-0.8-1c-3.1,0.1-6.4,0.2-8.4,0.3
			c0,0.1-0.1,0.1-0.2,0.1l-0.3-0.9l1.9,0c0.7-1,1.5-2.5,2-3.6l0.9,0.4c0,0.1-0.1,0.1-0.2,0.1c-0.5,0.9-1.2,2.1-1.8,3.1l5.5-0.2
			c-0.5-0.5-1.1-1.1-1.7-1.5L1764.5,78z M1759,86.8v-4.7h7v4.6h-0.8v-0.4h-5.5v0.5H1759z M1765.2,82.9h-5.5v2.8h5.5V82.9z"/>
		<path class="st3" d="M1772.7,77.1c0,0.1-0.2,0.2-0.4,0.2c-0.1,0.6-0.3,1.7-0.5,2.3c0.5-0.1,0.9-0.1,1.2-0.1c1.7,0,2.2,1.1,2.2,2.7
			c0,0.8-0.2,1.8-0.4,2.5c-0.3,1.1-1,1.7-2,1.7c-0.5,0-1-0.2-2-1c0.1-0.2,0.2-0.4,0.3-0.7c0.9,0.7,1.3,0.8,1.7,0.8
			c0.6,0,1-0.4,1.2-1.1c0.2-0.7,0.4-1.7,0.4-2.3c0-1.3-0.4-2-1.5-2c-0.3,0-0.8,0-1.3,0.1c-0.5,2.2-1.2,4.2-2.3,5.9l-0.7-0.4
			c1.1-1.7,1.7-3.4,2.2-5.5c-0.6,0.1-1.4,0.2-2,0.3l-0.1-0.8c0.5-0.1,1.4-0.2,2.2-0.3c0.2-0.8,0.3-1.8,0.5-2.8L1772.7,77.1z
			 M1777.8,82.4c-0.4-1.6-1.4-3-2.5-3.8l0.6-0.5c1.2,0.8,2.3,2.3,2.7,3.9L1777.8,82.4z"/>
		<path class="st3" d="M1781.6,79c0,0.1-0.1,0.2-0.3,0.2c-0.1,1.6-0.3,3-0.5,3.2h0c1.1-0.8,2.8-1.4,4-1.4c1.7,0,2.8,0.9,2.7,2.4
			c0,2-1.7,2.9-6,3.1c-0.1-0.2-0.2-0.5-0.3-0.7c3.8-0.2,5.4-0.8,5.4-2.4c0-1.1-0.7-1.7-2-1.7c-2,0-3.9,1.2-4.2,1.8l-0.7-0.4
			c0.2-0.2,0.6-2.2,0.6-4.3L1781.6,79z M1781.8,76.8c1.5,0.2,3.2,0.5,4.3,1l-0.3,0.8c-1.1-0.5-2.8-0.8-4.2-1L1781.8,76.8z"/>
		<path class="st3" d="M1792.8,78.9l0.4,0.1l-0.1,0.2c-0.2,1.9-0.5,3.5-1.1,4.7c0.5,0.4,1,0.8,1.3,1.2l-0.5,0.6
			c-0.3-0.4-0.7-0.7-1.2-1.1c-0.6,1-1.3,1.8-2.2,2.3c-0.1-0.2-0.3-0.5-0.5-0.6c0.8-0.4,1.5-1.2,2.1-2.1c-0.4-0.3-0.8-0.6-1.3-0.8
			l-0.1,0.5l-0.6-0.3c0.3-1,0.6-2.4,0.9-3.8h-1.1v-0.7h1.3c0.2-0.8,0.3-1.6,0.5-2.3l0.9,0.1c0,0.1-0.1,0.1-0.2,0.1
			c-0.1,0.6-0.3,1.3-0.4,2.1h1.7L1792.8,78.9z M1790.8,79.6c-0.2,1-0.5,2.1-0.7,3c0.5,0.3,0.9,0.6,1.4,0.9c0.4-1,0.8-2.3,0.9-3.8
			H1790.8z M1797.5,78.4c0.7,0.9,1.5,2.1,1.8,2.9l-0.6,0.4c-0.1-0.2-0.2-0.5-0.3-0.7c-1.7,0.1-3.5,0.3-4.7,0.3
			c0,0.1-0.1,0.1-0.2,0.1l-0.3-0.9l0.9,0c0.5-1.1,1-2.7,1.3-3.9l1,0.2c0,0.1-0.1,0.1-0.3,0.1c-0.3,1-0.8,2.5-1.2,3.5l3.2-0.2
			c-0.3-0.5-0.7-1.1-1.1-1.6L1797.5,78.4z M1794,86.8v-4.5h4.7v4.5h-0.7v-0.5h-3.2v0.5H1794z M1797.9,83h-3.2v2.6h3.2V83z"/>
		<path class="st3" d="M1807.6,77.1c0,0.1-0.1,0.1-0.3,0.2c-0.1,0.8-0.3,1.5-0.5,2.1c1.9,0.4,3,1.8,3,3.5c0,2-1.5,3.2-4.3,3.6
			c-0.1-0.2-0.2-0.5-0.4-0.7c2.4-0.3,3.8-1.3,3.8-2.9c0-1.3-0.8-2.5-2.4-2.8c-0.5,1.7-1.2,3-2,3.9c0.1,0.2,0.3,0.4,0.5,0.5l-0.6,0.5
			c-0.2-0.2-0.3-0.3-0.5-0.5c-0.7,0.7-1.5,1-2.2,1c-1,0-1.6-0.8-1.6-2c0-1.5,0.8-2.7,1.9-3.4c-0.2-0.8-0.4-1.7-0.5-2.7l1.1,0
			c0,0.1-0.1,0.2-0.2,0.2c0.1,0.8,0.2,1.5,0.4,2.2c1.2-0.6,2.4-0.6,2.9-0.6c0.1,0,0.2,0,0.3,0c0.2-0.7,0.3-1.5,0.4-2.4L1807.6,77.1z
			 M1803.7,84c-0.5-0.8-0.9-1.8-1.2-3c-0.7,0.5-1.4,1.4-1.4,2.6c0,0.8,0.3,1.3,0.9,1.3C1802.6,84.9,1803.2,84.5,1803.7,84z
			 M1804.2,83.4c0.7-0.8,1.2-1.9,1.7-3.4c-0.1,0-0.3,0-0.4,0c-0.8,0-1.7,0.2-2.4,0.6C1803.4,81.7,1803.8,82.6,1804.2,83.4z"/>
		<path class="st3" d="M1813.2,79c0,0.1-0.1,0.2-0.3,0.2c-0.1,1.6-0.3,3-0.5,3.2h0c1.1-0.8,2.8-1.4,4-1.4c1.7,0,2.8,0.9,2.7,2.4
			c0,2-1.7,2.9-6,3.1c-0.1-0.2-0.2-0.5-0.3-0.7c3.8-0.2,5.4-0.8,5.4-2.4c0-1.1-0.7-1.7-2-1.7c-2,0-3.9,1.2-4.2,1.8l-0.7-0.4
			c0.2-0.2,0.6-2.2,0.6-4.3L1813.2,79z M1813.4,76.8c1.5,0.2,3.2,0.5,4.3,1l-0.3,0.8c-1.1-0.5-2.8-0.8-4.2-1L1813.4,76.8z"/>
		<path class="st3" d="M1821.1,79.1c0.9,0,1.7-0.1,2.1-0.2c0-0.7,0-1,0.1-2l1.1,0.1c0,0.1-0.1,0.2-0.3,0.2c0,0.5-0.1,1.2-0.1,1.6
			l0.3,0.1c-0.3,0.5-0.4,1.2-0.4,1.6c1.2-1.1,2.6-1.9,3.5-1.9c1,0,1.6,0.7,1.6,2c0,0.1,0,0.3,0,0.4c-0.1,1-0.2,2.3-0.2,3.2
			c0,0.7,0.1,1,0.5,1c0.3,0,1-0.3,1.5-0.7c0,0.2,0.1,0.7,0.2,0.8c-0.6,0.4-1.2,0.7-1.7,0.7c-0.9,0-1.2-0.5-1.2-1.7
			c0-0.6,0.2-3.6,0.2-3.6c0-1-0.3-1.4-0.9-1.4c-0.8,0-2.2,0.9-3.4,2.1c0,1.6,0,3.6,0,5h-0.8c0-0.6,0-3.8,0-4.5
			c-0.4,0.8-1.1,1.8-2,2.7l-0.4-0.7c0.9-0.9,1.9-2.2,2.4-3.3c0-0.3,0-0.6,0-1c-0.4,0.1-1.2,0.2-2,0.2L1821.1,79.1z"/>
		<path class="st3" d="M1834.6,81.4c0.7-0.4,1.9-0.6,2.7-0.6c1.7,0,2.8,1,2.8,2.6c0,2-1.7,3.1-4,3.1c-1.4,0-2.4-0.6-2.4-1.5
			c0-0.8,0.8-1.5,1.8-1.5c1.2,0,2.1,1,2.2,2c0.9-0.3,1.5-1,1.5-2.1c0-1.2-0.9-1.9-2.3-1.9c-1.7,0-3.3,0.7-4,1.4
			c-0.3,0.3-0.8,0.8-1.1,1.1l-0.6-0.6c1-1,4.1-4,5.6-5.4c-0.6,0.1-2.8,0.2-4.1,0.2c0,0.1-0.1,0.1-0.2,0.2l-0.1-0.9
			c1.5,0,4.3-0.1,5.1-0.2l0.2-0.1l0.6,0.7c-0.1,0-0.2,0.1-0.3,0.1C1837.6,78.6,1835.5,80.6,1834.6,81.4L1834.6,81.4z M1836.1,85.8
			c0.3,0,0.7,0,1-0.1c-0.1-0.8-0.7-1.6-1.6-1.6c-0.6,0-1.1,0.3-1.1,0.8C1834.5,85.6,1835.4,85.8,1836.1,85.8z"/>
		<path class="st3" d="M1841.8,85.3c0-0.4,0.3-0.7,0.6-0.7c0.4,0,0.6,0.3,0.6,0.7c0,0.4-0.3,0.7-0.6,0.7
			C1842,86,1841.8,85.7,1841.8,85.3z M1842.8,83.6h-0.7l-0.2-6h1L1842.8,83.6z"/>
		<path class="st3" d="M1844.5,85.3c0-0.4,0.3-0.7,0.6-0.7c0.4,0,0.6,0.3,0.6,0.7c0,0.4-0.3,0.7-0.6,0.7
			C1844.7,86,1844.5,85.7,1844.5,85.3z M1845.5,83.6h-0.7l-0.2-6h1L1845.5,83.6z"/>
	</g>
</g>
</svg>
