<svg xmlns="http://www.w3.org/2000/svg" width="29.504" height="42.614" viewBox="0 0 29.504 42.614"><g transform="translate(2002.951 -7326.96)"><path d="M0,15.539a3.983,3.983,0,0,1-1.786-.423A4,4,0,0,1-3.578,9.749L2.191-1.789A4,4,0,0,1,7.558-3.578,4,4,0,0,1,9.347,1.789L3.578,13.327A4,4,0,0,1,0,15.539Z" transform="translate(-1998.95 7330.961)" fill="#1a62a3"/><path d="M0,9.245A4,4,0,0,1-3.578,7.033,4,4,0,0,1-1.789,1.667L8.7-3.578a4,4,0,0,1,5.367,1.789,4,4,0,0,1-1.789,5.367L1.789,8.822A3.984,3.984,0,0,1,0,9.245Z" transform="translate(-1991.083 7347.219)" fill="#1a62a3"/><path d="M11.538,4H0A4,4,0,0,1-4,0,4,4,0,0,1,0-4H11.538a4,4,0,0,1,4,4A4,4,0,0,1,11.538,4Z" transform="translate(-1988.985 7365.574)" fill="#1a62a3"/></g></svg>