<?xml version="1.0" encoding="utf-8"?>
<!-- Generator: Adobe Illustrator 25.2.3, SVG Export Plug-In . SVG Version: 6.00 Build 0)  -->
<svg version="1.1" id="レイヤー_1" xmlns="http://www.w3.org/2000/svg" xmlns:xlink="http://www.w3.org/1999/xlink" x="0px"
	 y="0px" viewBox="0 0 32 32" style="enable-background:new 0 0 32 32;" xml:space="preserve">
<style type="text/css">
	.st0{fill:#5C75B8;}
	.st1{fill-rule:evenodd;clip-rule:evenodd;fill:#FFFFFF;}
	.st2{fill-rule:evenodd;clip-rule:evenodd;fill:#5C75B8;}
</style>
<path id="長方形_17" class="st0" d="M9.3,0h13.4C27.8,0,32,4.2,32,9.3v13.4c0,5.1-4.2,9.3-9.3,9.3H9.3C4.2,32,0,27.8,0,22.7V9.3
	C0,4.2,4.2,0,9.3,0z"/>
<g id="グループ_14" transform="translate(4.938 6.331)">
	<path id="パス_24" class="st1" d="M11.1,0c6.2,0,11.1,4,11.1,8.9c0,1.7-0.6,3.4-1.7,4.7c-0.1,0.1-0.1,0.2-0.2,0.3l0,0
		c-0.4,0.4-0.8,0.8-1.2,1.2c-3.1,2.8-8.2,6.2-8.8,5.7c-0.6-0.5,1-2.7-0.8-3c-0.1,0-0.2,0-0.4,0l0,0C4,17,0,13.3,0,8.9
		C0,4,5,0,11.1,0L11.1,0z"/>
	<path id="パス_25" class="st2" d="M4.7,11.8h2.2c0.3,0,0.6-0.3,0.6-0.6v0c0-0.3-0.3-0.6-0.6-0.6H5.3V6.9c0-0.3-0.3-0.6-0.6-0.6h0
		c-0.3,0-0.6,0.3-0.6,0.6v4.3C4.1,11.5,4.4,11.8,4.7,11.8z M18.6,9.1L18.6,9.1c0-0.4-0.3-0.6-0.6-0.6h-1.6V7.5H18
		c0.3,0,0.6-0.3,0.6-0.6v0c0-0.3-0.3-0.6-0.6-0.6h-2.2c-0.3,0-0.6,0.3-0.6,0.6v4.3c0,0.3,0.3,0.6,0.6,0.6H18c0.3,0,0.6-0.3,0.6-0.6
		v0c0-0.3-0.3-0.6-0.6-0.6h-1.6V9.6H18C18.3,9.6,18.6,9.4,18.6,9.1L18.6,9.1z M14.3,11.6L14.3,11.6c0.1-0.1,0.2-0.3,0.2-0.4V6.9
		c0-0.3-0.3-0.6-0.6-0.6h0c-0.3,0-0.6,0.3-0.6,0.6v2.5l-2.1-2.8c-0.1-0.2-0.3-0.3-0.5-0.3h0c-0.3,0-0.6,0.3-0.6,0.6v4.3
		c0,0.3,0.3,0.6,0.6,0.6h0c0.3,0,0.6-0.3,0.6-0.6V8.6l2.1,2.9c0,0,0,0,0,0.1l0,0c0.1,0.1,0.1,0.1,0.2,0.2c0.1,0,0.1,0,0.2,0h0
		c0.1,0,0.2,0,0.3-0.1C14.2,11.7,14.2,11.6,14.3,11.6L14.3,11.6z M8.6,11.8L8.6,11.8c0.4,0,0.6-0.3,0.6-0.6V6.9
		c0-0.3-0.3-0.6-0.6-0.6h0C8.2,6.3,8,6.6,8,6.9v4.3C8,11.5,8.2,11.8,8.6,11.8z"/>
</g>
</svg>
