<?xml version="1.0" encoding="utf-8"?>
<!-- Generator: Adobe Illustrator 25.2.3, SVG Export Plug-In . SVG Version: 6.00 Build 0)  -->
<svg version="1.1" id="レイヤー_1" xmlns="http://www.w3.org/2000/svg" xmlns:xlink="http://www.w3.org/1999/xlink" x="0px"
	 y="0px" viewBox="0 0 111.7 111.7" style="enable-background:new 0 0 111.7 111.7;" xml:space="preserve">
<style type="text/css">
	.st0{fill:#2DC100;}
	.st1{fill-rule:evenodd;clip-rule:evenodd;fill:#FFFFFF;}
	.st2{fill-rule:evenodd;clip-rule:evenodd;fill:#3ACE01;}
</style>
<path id="長方形_1245" class="st0" d="M22.7,0H89c12.5,0,22.7,10.2,22.7,22.7V89c0,12.5-10.2,22.7-22.7,22.7H22.7
	C10.2,111.7,0,101.5,0,89V22.7C0,10.2,10.2,0,22.7,0z"/>
<g id="グループ_1442" transform="translate(17.236 22.1)">
	<path id="パス_771" class="st1" d="M38.9,0c21.5,0,38.9,13.9,38.9,31.1c0,6-2.1,11.7-5.8,16.4c-0.2,0.3-0.5,0.6-0.7,0.9l0,0
		c-1.3,1.5-2.7,2.9-4.2,4.2c-10.8,9.9-28.5,21.8-30.8,19.9c-2-1.6,3.3-9.4-2.9-10.6c-0.4,0-0.9-0.1-1.3-0.2h0
		C13.8,59.2,0,46.5,0,31.1C0,13.9,17.4,0,38.9,0L38.9,0z"/>
	<path id="パス_772" class="st2" d="M16.3,41.1h7.8c1.1,0,2-0.9,2-2v-0.2c0-1.1-0.9-2-2-2h-5.6V24c0-1.1-0.9-2-2-2h-0.2
		c-1.1,0-2,0.9-2,2v15C14.3,40.2,15.2,41.1,16.3,41.1z M64.9,31.6v-0.2c0-1.1-0.9-2-2-2h-5.6v-3.2h5.6c1.1,0,2-0.9,2-2V24
		c0-1.1-0.9-2-2-2h-7.8c-1.1,0-2,0.9-2,2v15c0,1.1,0.9,2,2,2h7.8c1.1,0,2-0.9,2-2v-0.2c0-1.1-0.9-2-2-2h-5.6v-3.2h5.6
		C64,33.7,64.9,32.8,64.9,31.6L64.9,31.6z M49.8,40.5L49.8,40.5c0.4-0.4,0.6-0.9,0.6-1.4V24c0-1.1-0.9-2-2-2h-0.2c-1.1,0-2,0.9-2,2
		v8.8L38.9,23c-0.4-0.6-1-1-1.8-1h-0.2c-1.1,0-2,0.9-2,2v15c0,1.1,0.9,2,2,2h0.2c1.1,0,2-0.9,2-2v-9l7.4,10.1c0,0.1,0.1,0.1,0.1,0.2
		l0,0c0.2,0.3,0.5,0.5,0.8,0.6c0.2,0.1,0.5,0.2,0.8,0.2h0.2c0.3,0,0.7-0.1,0.9-0.2C49.5,40.7,49.7,40.6,49.8,40.5L49.8,40.5z
		 M29.9,41.1H30c1.1,0,2-0.9,2-2V24c0-1.1-0.9-2-2-2h-0.2c-1.1,0-2,0.9-2,2v15C27.8,40.2,28.7,41.1,29.9,41.1L29.9,41.1z"/>
</g>
<g>
</g>
<g>
</g>
<g>
</g>
<g>
</g>
<g>
</g>
<g>
</g>
<g>
</g>
<g>
</g>
<g>
</g>
<g>
</g>
<g>
</g>
<g>
</g>
<g>
</g>
<g>
</g>
<g>
</g>
</svg>
