<?xml version="1.0" encoding="utf-8"?>
<!-- Generator: Adobe Illustrator 25.2.3, SVG Export Plug-In . SVG Version: 6.00 Build 0)  -->
<svg version="1.1" id="レイヤー_1" xmlns="http://www.w3.org/2000/svg" xmlns:xlink="http://www.w3.org/1999/xlink" x="0px"
	 y="0px" viewBox="0 0 65 65" style="enable-background:new 0 0 65 65;" xml:space="preserve">
<style type="text/css">
	.st0{fill:#035795;stroke:#3A99D6;stroke-miterlimit:10;}
	.st1{fill:#045896;stroke:#3A99D6;stroke-miterlimit:10;}
</style>
<g id="グループ_12" transform="translate(725.14 852.454)">
	<path id="パス_5" class="st0" d="M-674.1-816c-1.5,0-2.9,0-4.4,0c-0.2,0-0.3-0.1-0.4-0.3c-1.1-2.7-3.7-4.4-6.6-4.5v-4.4
		c0.6-0.1,1.3-0.2,1.9-0.4c3.1-0.9,5.2-3.7,5.3-7c0.2-3.2-1.7-6.2-4.7-7.3c-0.9-0.3-1.8-0.5-2.7-0.5c-7.2,0-14.4,0-21.6,0h-0.7v-4.6
		h0.7c7.3,0,14.5,0,21.8,0c6.6,0,11.9,5.3,12,11.8c0,0.5,0,1.1-0.1,1.6c-0.3,3.3-1.9,6.3-4.5,8.3c-0.1,0.1-0.1,0.1-0.1,0.1
		c0.9,1.1,1.9,2.1,2.7,3.2C-674.9-818.7-674.4-817.4-674.1-816z"/>
	<path id="パス_6" class="st0" d="M-707.9-823h4.5v23.4h0.7c5.6,0,11.1,0,16.7,0c2.1,0.1,4.2-0.7,5.7-2.3c0.1-0.1,0.1-0.1,0.2-0.2
		c1.2,0.9,2.3,1.9,3.5,2.8c-1.7,2-4,3.4-6.6,3.9c-0.9,0.2-1.8,0.3-2.7,0.3c-7.1,0-14.2,0-21.2,0h-0.8
		C-707.9-804.3-707.9-813.6-707.9-823z"/>
	<path id="パス_7" class="st1" d="M-722.9-832.1c0.1-0.2,0.2-0.3,0.4-0.5c3.2-2.5,7.3-3.6,11.3-3.1c4.9,0.4,8.9,2.7,12.5,5.9
		c2.9,2.8,5.6,5.8,8.1,9c2.3,2.9,4.8,5.6,7.4,8.2c5.5,5.1,13.6,6.2,20.3,2.8c0.2-0.1,0.4-0.1,0.6-0.1c-0.2,0.2-0.5,0.4-0.7,0.7
		c-2.8,2.3-6.4,3.7-10,3.7c-4.7,0.2-9.2-1.3-12.8-4.4c-3.2-2.7-6.1-5.8-8.7-9.1c-2.4-2.9-4.8-5.8-7.4-8.5c-2.6-2.9-6.1-4.9-10-5.8
		c-3.4-0.8-7-0.5-10.3,0.8C-722.5-832.3-722.7-832.2-722.9-832.1L-722.9-832.1z"/>
</g>
</svg>
