<?xml version="1.0" encoding="utf-8"?>
<!-- Generator: Adobe Illustrator 25.2.3, SVG Export Plug-In . SVG Version: 6.00 Build 0)  -->
<svg version="1.1" id="レイヤー_1" xmlns="http://www.w3.org/2000/svg" xmlns:xlink="http://www.w3.org/1999/xlink" x="0px"
	 y="0px" viewBox="0 0 48.6 33.6" style="enable-background:new 0 0 48.6 33.6;" xml:space="preserve">
<path id="パス_773" d="M48.2,4.1L35.6,16.9c-0.1,0.1-0.1,0.2,0,0.3c0,0,0,0,0,0l8.8,9.4c0.6,0.6,0.6,1.5,0,2.1c0,0,0,0,0,0
	c-0.6,0.6-1.6,0.6-2.1,0l-8.8-9.3c-0.1-0.1-0.2-0.1-0.3,0L31,21.6c-1.8,1.8-4.2,2.8-6.7,2.8c-2.6,0-5-1.1-6.8-2.9l-2.1-2.1
	c-0.1-0.1-0.2-0.1-0.3,0l-8.8,9.3c-0.6,0.6-1.6,0.6-2.1,0c-0.6-0.6-0.6-1.5,0-2.1c0,0,0,0,0,0l8.8-9.4c0.1-0.1,0.1-0.2,0-0.3
	L0.4,4.1C0.3,4,0.2,4,0.1,4.1C0,4.2,0,4.2,0,4.3v25.6c0,2.1,1.7,3.7,3.7,3.7h41.1c2.1,0,3.7-1.7,3.7-3.7V4.3c0-0.1-0.1-0.2-0.2-0.2
	C48.3,4.1,48.2,4.1,48.2,4.1z"/>
<path id="パス_774" d="M24.3,21.4c1.7,0,3.4-0.7,4.6-1.9L47.2,0.8C46.5,0.3,45.7,0,44.9,0H3.7C2.9,0,2.1,0.3,1.4,0.8l18.3,18.6
	C20.9,20.7,22.6,21.4,24.3,21.4z"/>
<g>
</g>
<g>
</g>
<g>
</g>
<g>
</g>
<g>
</g>
<g>
</g>
<g>
</g>
<g>
</g>
<g>
</g>
<g>
</g>
<g>
</g>
<g>
</g>
<g>
</g>
<g>
</g>
<g>
</g>
</svg>
