<?xml version="1.0" encoding="utf-8"?>
<!-- Generator: Adobe Illustrator 25.4.1, SVG Export Plug-In . SVG Version: 6.00 Build 0)  -->
<svg version="1.1" id="レイヤー_1" xmlns="http://www.w3.org/2000/svg" xmlns:xlink="http://www.w3.org/1999/xlink" x="0px"
	 y="0px" viewBox="0 0 22.935 15.869" style="enable-background:new 0 0 22.935 15.869;" xml:space="preserve">
<style type="text/css">
	.st0{fill:#FFFFFF;}
</style>
<g id="Icon_ionic-ios-mail" transform="translate(0 0)">
	<path id="パス_1682" class="st0" d="M22.748,1.937l-5.933,6.042c-0.0425,0.041-0.0437,0.1088-0.0027,0.1513
		c0.0009,0.0009,0.0018,0.0018,0.0027,0.0027l4.151,4.422c0.28,0.2784,0.2813,0.7311,0.0028,1.0112
		c-0.0009,0.0009-0.0019,0.0019-0.0028,0.0028c-0.2805,0.2789-0.7335,0.2789-1.014,0l-4.135-4.405
		c-0.0441-0.0442-0.1156-0.0443-0.1598-0.0002c-0.0001,0.0001-0.0001,0.0001-0.0002,0.0002l-1.008,1.025
		c-0.8333,0.8513-1.9737,1.332-3.165,1.334c-1.2178-0.0045-2.3825-0.4995-3.231-1.373l-0.97-0.987
		C7.2389,9.1188,7.1674,9.1187,7.1232,9.1628C7.1231,9.1629,7.1231,9.1629,7.123,9.163L2.988,13.57
		c-0.2805,0.2789-0.7335,0.2789-1.014,0c-0.28-0.2784-0.2813-0.7311-0.0028-1.0112c0.0009-0.0009,0.0019-0.0019,0.0028-0.0028
		l4.151-4.422c0.0385-0.0441,0.0385-0.1099,0-0.154L0.187,1.937C0.145,1.8939,0.0759,1.8931,0.0329,1.9351
		C0.0116,1.9559-0.0002,1.9843,0,2.014v12.09c0.0022,0.9735,0.7905,1.7623,1.764,1.765h19.407
		c0.9731-0.0027,1.7613-0.7909,1.764-1.764V2.014c-0.0009-0.0607-0.0508-0.1093-0.1115-0.1084
		C22.7952,1.906,22.7682,1.9172,22.748,1.937z"/>
	<path id="パス_1683" class="st0" d="M11.467,10.086c0.8108,0.0037,1.5885-0.321,2.156-0.9l8.65-8.8
		C21.964,0.1359,21.5785-0.0004,21.181,0H1.758C1.3603-0.0013,0.9745,0.135,0.666,0.386l8.65,8.8
		C9.8823,9.7638,10.658,10.0883,11.467,10.086z"/>
</g>
<g>
</g>
<g>
</g>
<g>
</g>
<g>
</g>
<g>
</g>
<g>
</g>
<g>
</g>
<g>
</g>
<g>
</g>
<g>
</g>
<g>
</g>
</svg>
