<?xml version="1.0" encoding="utf-8"?>
<!-- Generator: Adobe Illustrator 25.4.1, SVG Export Plug-In . SVG Version: 6.00 Build 0)  -->
<svg version="1.1" id="レイヤー_1" xmlns="http://www.w3.org/2000/svg" xmlns:xlink="http://www.w3.org/1999/xlink" x="0px"
	 y="0px" viewBox="0 0 941.6 216.3" style="enable-background:new 0 0 941.6 216.3;" xml:space="preserve">
<style type="text/css">
	.st0{fill:#187B87;stroke:#187B87;stroke-width:2;stroke-miterlimit:10;}
	.st1{fill:none;stroke:#000000;stroke-miterlimit:10;}
	.st2{fill:none;stroke:#000000;stroke-width:3.219;stroke-miterlimit:10;}
</style>
<g>
	<path d="M117.5,118.1c4.1,0,7.9,0,7.9,4.1c0,2.1-2.9,6.3-4.9,9.1C109.4,147,99.6,158.4,87.9,172c2.6,2.7,7.5,7.6,11.1,11.7
		c2.2,2.6,2.8,3.3,2.8,4.6c0,1.9-1.9,3.3-3.5,3.3c-1.3,0-1.5-0.3-3.9-3.1c-14-16.3-25.8-26.2-32.6-31.6c-1.6-1.3-2.4-2-2.4-3.2
		c0-1.6,1.4-3,2.9-3c2.8,0,16.3,12.6,21.3,17.2c13.7-15,32.9-40.3,32.9-42.6c0-1-0.3-1-3.9-1H44.3c-2,0-3.2-0.7-3.2-3
		c0-3,2.3-3,3.2-3H117.5z"/>
	<path d="M187.1,112.5c0-1.1,0.1-3.1,2.9-3.1c2.2,0,3.5,0.5,3.5,3.1v21c0,12.7-0.8,29.5-10.1,45.4c-2.5,4.3-9.9,15.3-13.3,15.3
		c-1.6,0-3.2-1.4-3.2-3.2c0-1,0.2-1.3,2.2-3.4c14.8-16.2,18-33.4,18-54.1V112.5z M218.6,179.9c0,2.7,0,4.1,1.9,4.1
		c5.3,0,20.6-11.7,31.7-28.3c1.3-1.9,1.8-2.5,2.8-2.5c1.6,0,3.2,1.7,3.2,3.2c0,4.4-25.4,34.4-39,34.4c-7.1,0-7.1-5-7.1-8.6v-71.1
		c0-1.7,0.4-3.1,3-3.1c2.1,0,3.4,0.4,3.4,3.1V179.9z"/>
	<path d="M363.3,134.2c4.9,0,11.6,0,11.6,8.2c0,5.9-7.2,21.9-18.5,33c-13.9,13.7-35,20-36.7,20c-1.9,0-3-1.7-3-3.2
		c0-2.2,0.9-2.4,4.9-3.7c37.6-11.6,46.6-42.1,46.6-45.2c0-3.2-3.9-3.2-5.7-3.2h-65.2c-1.1,0-3.1-0.1-3.1-2.9c0-2.5,1.4-3,3.1-3
		H363.3z M364,111.3c0.8,0,3.1,0,3.1,3c0,3-2.3,3-3.1,3h-58c-0.9,0-3.2,0-3.2-3c0-3,2.3-3,3.2-3H364z"/>
	<path d="M489.2,113.5c2.9,0,9.2,0,9.2,7.2c0,1.9-4.3,32.9-28.1,55.6c-14.1,13.4-29.8,19.4-32,19.4c-1.6,0-2.9-1.5-2.9-3.2
		c0-1.9,0.6-2.2,5.6-4.3c13.3-5.5,33.3-19.3,43.8-43c4.9-11,6.8-21.2,6.8-23.1c0-2.9-2.4-2.9-4.5-2.9h-35.9c-2.6,0-3,0.6-4.8,3.7
		c-7.5,12.9-17,21.6-21.1,25.1c-0.7,0.6-1.9,1.6-3,1.6c-1.4,0-3.1-1.4-3.1-3.1c0-1.3,0.6-1.8,5.4-6.2c9-8.1,12.2-13.6,17.5-22.4
		c2.6-4.3,4.8-4.3,11.5-4.3H489.2z"/>
	<path class="st0" d="M546.1,122.4c-1,0-3.1,0-3.1-3c0-2.9,2.3-3,3.1-3h65.3c-0.3-0.9-0.7-2.2-0.7-4.6c0-8.4,6.7-14.7,14.6-14.7
		c8,0,14.6,6.6,14.6,14.6c0,7.9-6.4,14.6-14.7,14.6c-1.6,0-2.6-0.2-3.2-0.4c-0.2,3.4-3.2,25.6-20.1,44.4
		c-14.1,15.6-32.8,23.6-34.7,23.6c-1.6,0-2.8-1.5-2.8-3.1c0-1.7,1-2.3,2.5-3c11.9-6.1,35.1-17.7,45.2-46.5
		c2.5-7.1,3.4-13.4,3.4-15.1c0-3.7-2.4-3.7-5.7-3.7H546.1z M616,111.6c0,5.1,4.2,9.3,9.3,9.3c5.1,0,9.3-4.2,9.3-9.3
		c0-5.2-4.2-9.3-9.3-9.3C620.2,102.3,616,106.4,616,111.6z"/>
	<path class="st0" d="M739.1,134.2c4.9,0,11.6,0,11.6,8.2c0,5.9-7.2,21.9-18.5,33c-13.9,13.7-35,20-36.7,20c-1.9,0-3-1.7-3-3.2
		c0-2.2,0.9-2.4,4.9-3.7c37.6-11.6,46.6-42.1,46.6-45.2c0-3.2-3.9-3.2-5.7-3.2h-65.2c-1.1,0-3.1-0.1-3.1-2.9c0-2.5,1.4-3,3.1-3
		H739.1z M739.8,111.3c0.8,0,3.1,0,3.1,3c0,3-2.3,3-3.1,3h-58c-0.9,0-3.2,0-3.2-3c0-3,2.3-3,3.2-3H739.8z"/>
	<path class="st0" d="M822.7,122.1c8,4.1,9.1,5,9.1,6.8c0,2.2-1.8,3.7-3.1,3.7c-0.8,0-2-0.6-4.2-1.9c-7.4-4.4-16.6-8.2-23.4-10.9
		c-1.4-0.5-2.7-1.1-2.7-2.7c0-1.4,1.1-3.1,3.8-3.1C803.8,113.9,813.6,117.5,822.7,122.1z M879.9,137.3c0,1.9-9.5,16.6-25.4,30
		c-25.6,21.5-51.4,26.4-52.5,26.4c-2.2,0-3.5-1.8-3.5-3.7c0-2.2,0.2-2.3,7.7-4.4c21.6-5.8,46.8-20.5,64.6-45.6
		c3.3-4.8,4.2-5.8,5.6-5.8C878.1,134.2,879.9,135.5,879.9,137.3z"/>
</g>
<path class="st1" d="M890.7,299.5"/>
<g>
	<circle class="st2" cx="252.8" cy="61.9" r="22.9"/>
	<circle class="st2" cx="269.2" cy="50.7" r="22.9"/>
	<g>
		<path d="M339.5,68.3V45.5l-5.7,22.8h-5.2l-5.7-22.8v22.8h-4.4v-26h7.6l4.6,18l0.6,4.1l0.6-4.1l4.6-18h7.5v26H339.5z"/>
		<path d="M371.8,68.3c-0.5-0.7-0.6-2-0.6-2.8c-0.5,1-1.7,3.2-6.2,3.2c-5.3,0-6.7-3.2-6.7-5.6c0-4.4,4-5.7,8.2-6.3
			c2.1-0.3,4.4-0.7,4.4-2.5c0-1.5-1.6-2-3.1-2c-0.4,0-2.5,0-3.7,1.2c-0.5,0.5-0.6,1-0.7,1.9h-4.2c0.4-6,5.7-6.7,8.2-6.7
			c4.4,0,8.3,1.9,8.3,6.9v10.6c0,0.7,0.1,1.6,1.1,2.2H371.8z M367.5,59.8c-1.8,0.3-4.4,0.9-4.4,3.2c0,1.4,1.3,2.4,3,2.4
			c1.9,0,4.8-1.2,4.8-3.9v-2.2l0.2-1.2C370.4,59.1,369.6,59.4,367.5,59.8z"/>
		<path d="M399.2,53.4c-3.3,0-5.1,2.3-5.1,4.6v10.3h-4.7V49.2h4.7v1.4l-0.4,2.8c1.9-3.5,3.2-4.6,7.1-4.7v4.7H399.2z"/>
		<path d="M425.3,68.3v-1.5l0.2-2c-0.5,1.2-1.7,4-6,4c-4.5,0-6.3-2.9-6.3-7.3V49.2h4.7v12.3c0,2.6,1.7,3.5,3.3,3.5
			c2.5,0,4.1-2.1,4.1-4.7V49.2h4.7v19.2H425.3z"/>
		<path d="M453.6,53.4c-3.3,0-5.1,2.3-5.1,4.6v10.3h-4.7V49.2h4.7v1.4l-0.4,2.8c1.9-3.5,3.2-4.6,7.1-4.7v4.7H453.6z"/>
		<path d="M480.6,68.3c-0.5-0.7-0.6-2-0.6-2.8c-0.5,1-1.7,3.2-6.2,3.2c-5.3,0-6.7-3.2-6.7-5.6c0-4.4,4-5.7,8.2-6.3
			c2.1-0.3,4.4-0.7,4.4-2.5c0-1.5-1.6-2-3.1-2c-0.4,0-2.5,0-3.7,1.2c-0.5,0.5-0.6,1-0.7,1.9h-4.2c0.4-6,5.7-6.7,8.2-6.7
			c4.4,0,8.3,1.9,8.3,6.9v10.6c0,0.7,0.1,1.6,1.1,2.2H480.6z M476.3,59.8c-1.8,0.3-4.4,0.9-4.4,3.2c0,1.4,1.3,2.4,3,2.4
			c1.9,0,4.8-1.2,4.8-3.9v-2.2l0.2-1.2C479.1,59.1,478.3,59.4,476.3,59.8z"/>
		<path d="M510.5,68.3l-5.4-8.4l-2.2,2.3v6.1h-4.7v-26h4.7V56l-0.2,1.6l1-1.4l5.9-7.1h5.6l-6.9,7.4l7.8,11.8H510.5z"/>
		<path d="M540.7,68.3v-1.5l0.2-2c-0.5,1.2-1.7,4-6,4c-4.5,0-6.3-2.9-6.3-7.3V49.2h4.7v12.3c0,2.6,1.7,3.5,3.3,3.5
			c2.5,0,4.1-2.1,4.1-4.7V49.2h4.7v19.2H540.7z"/>
		<path d="M572.4,59.1h-7.2v9.3h-4.8v-26h12c5.7,0,8.9,3.8,8.9,8.2C581.2,55.8,577.2,59.1,572.4,59.1z M571.6,46.4h-6.5V55h6.5
			c2.7,0,4.5-1.5,4.5-4.5C576.2,47.4,574.2,46.4,571.6,46.4z"/>
		<path d="M595.1,68.3v-26h4.7v26H595.1z"/>
		<path d="M627.1,68.3c-0.5-0.7-0.6-2-0.6-2.8c-0.5,1-1.7,3.2-6.2,3.2c-5.3,0-6.7-3.2-6.7-5.6c0-4.4,4-5.7,8.2-6.3
			c2.1-0.3,4.4-0.7,4.4-2.5c0-1.5-1.6-2-3.1-2c-0.4,0-2.5,0-3.7,1.2c-0.5,0.5-0.6,1-0.7,1.9h-4.2c0.4-6,5.7-6.7,8.2-6.7
			c4.4,0,8.3,1.9,8.3,6.9v10.6c0,0.7,0.1,1.6,1.1,2.2H627.1z M622.9,59.8c-1.8,0.3-4.4,0.9-4.4,3.2c0,1.4,1.3,2.4,3,2.4
			c1.9,0,4.8-1.2,4.8-3.9v-2.2l0.2-1.2C625.7,59.1,624.9,59.4,622.9,59.8z"/>
		<path d="M656.8,68.3V56.2c0-2.1-0.9-3.6-3.2-3.6c-1.9,0-4.2,1-4.2,4.5v11.2h-4.7V49.2h4.7v1.6l-0.2,1.6c0.7-1.3,2.2-3.7,5.9-3.7
			c4.1,0,6.4,2.4,6.4,6.8v12.9H656.8z"/>
	</g>
</g>
</svg>
