<?xml version="1.0" encoding="utf-8"?>
<!-- Generator: Adobe Illustrator 25.4.1, SVG Export Plug-In . SVG Version: 6.00 Build 0)  -->
<svg version="1.1" id="レイヤー_1" xmlns="http://www.w3.org/2000/svg" xmlns:xlink="http://www.w3.org/1999/xlink" x="0px"
	 y="0px" viewBox="0 0 581.7 192.5" style="enable-background:new 0 0 581.7 192.5;" xml:space="preserve">
<style type="text/css">
	.st0{fill:#B0E0E6;}
	.st1{fill:none;stroke:#B0E0E6;stroke-width:3;stroke-miterlimit:10;}
	.st2{fill:#FFFFFF;}
</style>
<g>
	<g>
		<path class="st0" d="M250.8,59.7V36.1l-5.9,23.7h-5.4l-5.9-23.7v23.7h-4.6v-27h7.8l4.8,18.6l0.6,4.3l0.6-4.3l4.8-18.6h7.8v27
			H250.8z"/>
		<path class="st0" d="M273.1,59.7c-0.6-0.7-0.6-2-0.6-2.9c-0.6,1.1-1.8,3.4-6.4,3.4c-5.5,0-6.9-3.3-6.9-5.8c0-4.6,4.1-5.9,8.5-6.6
			c2.1-0.3,4.5-0.7,4.5-2.5c0-1.6-1.7-2.1-3.2-2.1c-0.4,0-2.5,0-3.8,1.2c-0.6,0.6-0.7,1-0.8,2H260c0.4-6.2,5.9-7,8.5-7
			c4.6,0,8.6,2,8.6,7.1v10.9c0,0.7,0.1,1.7,1.1,2.3H273.1z M268.7,50.9c-1.8,0.3-4.6,1-4.6,3.4c0,1.4,1.4,2.5,3.1,2.5
			c2,0,4.9-1.3,4.9-4v-2.3l0.3-1.3C271.6,50.2,270.8,50.5,268.7,50.9z"/>
		<path class="st0" d="M286.6,43.8v11c0,0.9,0.4,1.3,1.2,1.3h2.1v3.7h-3c-3.9,0-5.2-1.6-5.2-4.7V43.8H279v-3.9h2.7v-5.6h4.9v5.6h3.4
			v3.9H286.6z"/>
		<path class="st0" d="M301.9,60.2c-7.7,0-10.3-5.4-10.3-10.3c0-6.6,4.8-10.6,10.4-10.6c6.6,0,10.4,4.7,10.4,10.5
			C312.3,55,309.2,60.2,301.9,60.2z M302,43.3c-2.7,0-5.4,2.1-5.4,6.5c0,3.8,2.1,6.6,5.6,6.6c4.6,0,5.3-4.1,5.3-6.5
			C307.4,45.3,304.7,43.3,302,43.3z"/>
		<path class="st0" d="M338.9,59.7V47.7c0-2.3-0.7-4.2-3.1-4.2c-2.8,0-3.8,2.6-3.8,4.2v12.1h-4.9V47.7c0-1.6-0.4-4.1-3.2-4.1
			c-2.5,0-3.6,2.5-3.6,3.8v12.4h-4.9V39.9h4.9v1.1l-0.1,1.8c0.8-1.3,2.1-3.3,5.6-3.3c3.4,0,4.6,1.8,5.6,3.3c1.1-1.3,2.8-3.3,6.3-3.3
			c4.5,0,6,3.4,6,7.7v12.7H338.9z"/>
		<path class="st0" d="M351.6,51.2c0.2,1,0.9,5,4.8,5c0.9,0,2.8-0.2,3.6-2.4h4.9c-0.6,1.7-2.3,6.4-8.8,6.4c-5.4,0-9.5-3.6-9.5-10.4
			c0-7.1,4.4-10.4,9.3-10.4c3.3,0,5.8,1.5,7.3,3.8c1.7,2.6,1.9,5.3,2,8.1H351.6z M356,43.4c-3.6,0-4.2,3.4-4.5,4.7h8.5
			C359.9,45,358.5,43.4,356,43.4z"/>
		<path class="st0" d="M378,44.3c-3.4,0-5.3,2.4-5.3,4.8v10.7h-4.9V39.9h4.9v1.4l-0.4,2.9c2-3.6,3.3-4.7,7.4-4.8v4.9H378z"/>
		<path class="st0" d="M394,59.7v-1.6l0.2-2.1c-0.6,1.3-1.7,4.1-6.2,4.1c-4.6,0-6.5-3-6.5-7.6V39.9h4.9v12.8c0,2.7,1.8,3.6,3.4,3.6
			c2.6,0,4.2-2.2,4.2-4.9V39.9h4.9v19.9H394z"/>
	</g>
</g>
<g>
	<path class="st1" d="M247.9,114.6c-0.2,0.1-0.6,0.1-0.9,0.1c-0.8,0-1.7-0.2-2.4-0.7c-33.4,9.8-63.7,24.5-63.6,39.6
		c0,10.8,11.9,14.5,30.2,14.5c18.1,0,32-1.4,39.8-2.6l0.7,8.2c-10.4,1.4-27.1,2-40.3,2c-22.3,0-38.5-5.2-38.6-21.7
		c-0.1-12,11.9-22.6,29.6-31.7c-3.8-6.9-5.2-19.9-5.2-45.4l12.4,1c-0.1,1.5-1.2,2.4-3.5,2.7c-0.1,19.7,0.6,32,3.7,38
		c10.6-5,22.7-9.5,35.1-13.5L247.9,114.6z"/>
	<path class="st0" d="M247.9,114.6c-0.2,0.1-0.6,0.1-0.9,0.1c-0.8,0-1.7-0.2-2.4-0.7c-33.4,9.8-63.7,24.5-63.6,39.6
		c0,10.8,11.9,14.5,30.2,14.5c18.1,0,32-1.4,39.8-2.6l0.7,8.2c-10.4,1.4-27.1,2-40.3,2c-22.3,0-38.5-5.2-38.6-21.7
		c-0.1-12,11.9-22.6,29.6-31.7c-3.8-6.9-5.2-19.9-5.2-45.4l12.4,1c-0.1,1.5-1.2,2.4-3.5,2.7c-0.1,19.7,0.6,32,3.7,38
		c10.6-5,22.7-9.5,35.1-13.5L247.9,114.6z"/>
</g>
<g>
	<path class="st1" d="M341.6,79.6c-0.2,1-1.5,1.5-2.9,1.7c-1.2,7.8-2.8,15.2-4.6,21.8c19.7,3.7,30.6,18,30.6,35.3
		c0,20-15.2,32.9-43.7,36.9c-1.1-2.4-2.4-4.8-3.6-6.9c24.9-3.3,39-13.4,39-29.8c0-13.6-8.7-25.1-24.6-28.1
		c-5.3,17.3-12.5,30.7-20.4,40.1c1.5,2,3.4,3.8,5.2,5.5l-5.7,5.5c-1.7-1.7-3.3-3.5-4.8-5.5c-7.3,7-15.3,10.5-22.8,10.5
		c-9.9,0-16-8.4-16-20.7c0-15.3,8.4-27.1,19.8-34.5c-2.1-8.6-3.9-17.9-5.5-28l10.8-0.2c-0.1,1-0.8,2.1-2.4,2.5
		c1.1,7.8,2.4,15.3,3.9,22.3c12.4-6.2,24.3-6.2,29.4-6.2c0.9,0,1.9,0,2.7,0.1c1.8-7.4,3.4-15.8,4.5-24.6L341.6,79.6z M301.8,150.2
		c-5.1-8.2-9.2-18.7-12.6-31.2c-7.1,5-14.5,13.8-14.5,26.3c0,8,3,13.7,9.1,13.7C290.8,159.1,296.7,155,301.8,150.2z M306.8,144
		c6.8-8.2,12.6-19.7,17.1-34.9c-1.2-0.1-2.7-0.1-3.9-0.1c-8.7,0.1-17.1,2-24.4,6.1C298.5,126.3,302.1,136.3,306.8,144z"/>
	<path class="st0" d="M341.6,79.6c-0.2,1-1.5,1.5-2.9,1.7c-1.2,7.8-2.8,15.2-4.6,21.8c19.7,3.7,30.6,18,30.6,35.3
		c0,20-15.2,32.9-43.7,36.9c-1.1-2.4-2.4-4.8-3.6-6.9c24.9-3.3,39-13.4,39-29.8c0-13.6-8.7-25.1-24.6-28.1
		c-5.3,17.3-12.5,30.7-20.4,40.1c1.5,2,3.4,3.8,5.2,5.5l-5.7,5.5c-1.7-1.7-3.3-3.5-4.8-5.5c-7.3,7-15.3,10.5-22.8,10.5
		c-9.9,0-16-8.4-16-20.7c0-15.3,8.4-27.1,19.8-34.5c-2.1-8.6-3.9-17.9-5.5-28l10.8-0.2c-0.1,1-0.8,2.1-2.4,2.5
		c1.1,7.8,2.4,15.3,3.9,22.3c12.4-6.2,24.3-6.2,29.4-6.2c0.9,0,1.9,0,2.7,0.1c1.8-7.4,3.4-15.8,4.5-24.6L341.6,79.6z M301.8,150.2
		c-5.1-8.2-9.2-18.7-12.6-31.2c-7.1,5-14.5,13.8-14.5,26.3c0,8,3,13.7,9.1,13.7C290.8,159.1,296.7,155,301.8,150.2z M306.8,144
		c6.8-8.2,12.6-19.7,17.1-34.9c-1.2-0.1-2.7-0.1-3.9-0.1c-8.7,0.1-17.1,2-24.4,6.1C298.5,126.3,302.1,136.3,306.8,144z"/>
</g>
<g>
	<path class="st1" d="M479.8,122.1c-7.1,12.7-17.4,19.5-29.3,19.5c-10.1,0-17.2-4.2-25.1-11.8c-6.2-6-11.3-9.6-19.6-9.6
		c-9.1,0-17.1,6.2-21.8,15.2l-7.3-3.8c7.1-12.7,17.4-19.5,29.3-19.5c10.1,0,17.2,4.2,25.1,11.8c6.2,6,11.4,9.6,19.6,9.6
		c9.1,0,17.1-6.2,21.8-15.2L479.8,122.1z"/>
	<path class="st0" d="M479.8,122.1c-7.1,12.7-17.4,19.5-29.3,19.5c-10.1,0-17.2-4.2-25.1-11.8c-6.2-6-11.3-9.6-19.6-9.6
		c-9.1,0-17.1,6.2-21.8,15.2l-7.3-3.8c7.1-12.7,17.4-19.5,29.3-19.5c10.1,0,17.2,4.2,25.1,11.8c6.2,6,11.4,9.6,19.6,9.6
		c9.1,0,17.1-6.2,21.8-15.2L479.8,122.1z"/>
</g>
<g>
	<path class="st1" d="M520.1,124.1c7.4-3.8,19-6.5,27.9-6.5c17.9,0,29.1,10.5,29.1,27c0,20.4-17.9,31.6-40.5,31.6
		c-14.6,0-24.6-5.9-24.6-15.8c0-8.3,8.2-15.1,18.5-15.1c12.7,0,21.3,10.1,23,20.4c9-3.4,15.5-10.6,15.5-21c0-12.2-9-19.9-23.2-19.9
		c-16.9,0-33.4,7.5-40.8,14.7c-3.4,3.2-7.8,7.9-10.8,11.4l-5.7-5.7c10.1-10.6,42.3-41.3,57.6-55.6c-6.5,0.9-29,1.8-41.9,2.3
		c-0.3,0.8-1.5,1.5-2.4,1.7l-0.9-9.6c15.2-0.1,44.2-1.2,52.4-2.5l1.7-0.8l6,7.3c-0.6,0.5-1.6,0.9-2.7,1c-8,6.5-29.4,26.6-38.1,35
		V124.1z M535.6,169.1c3.4,0,7.3-0.5,10.2-1.1c-1.2-8.7-7.7-16-16-16c-5.9,0-11,3.2-11,8.3C518.9,167.2,528.2,169.1,535.6,169.1z"/>
	<path class="st0" d="M520.1,124.1c7.4-3.8,19-6.5,27.9-6.5c17.9,0,29.1,10.5,29.1,27c0,20.4-17.9,31.6-40.5,31.6
		c-14.6,0-24.6-5.9-24.6-15.8c0-8.3,8.2-15.1,18.5-15.1c12.7,0,21.3,10.1,23,20.4c9-3.4,15.5-10.6,15.5-21c0-12.2-9-19.9-23.2-19.9
		c-16.9,0-33.4,7.5-40.8,14.7c-3.4,3.2-7.8,7.9-10.8,11.4l-5.7-5.7c10.1-10.6,42.3-41.3,57.6-55.6c-6.5,0.9-29,1.8-41.9,2.3
		c-0.3,0.8-1.5,1.5-2.4,1.7l-0.9-9.6c15.2-0.1,44.2-1.2,52.4-2.5l1.7-0.8l6,7.3c-0.6,0.5-1.6,0.9-2.7,1c-8,6.5-29.4,26.6-38.1,35
		V124.1z M535.6,169.1c3.4,0,7.3-0.5,10.2-1.1c-1.2-8.7-7.7-16-16-16c-5.9,0-11,3.2-11,8.3C518.9,167.2,528.2,169.1,535.6,169.1z"/>
</g>
<circle class="st0" cx="82.7" cy="115" r="73.5"/>
<path class="st2" d="M34.2,73.8c8.5,0.5,19.8,0.5,29.1,0.5c6.2,0,13.1-0.1,18.9-0.3c-0.1-6.6-0.3-14.2-0.3-19l13.8,0.7
	c-0.1,1.6-1.4,2.5-3.7,2.9c-0.1,2.2,0,12.7,0,15c16-0.8,31.9-2.2,45.4-5.3l1.2,9c-13.4,3-29.3,4.4-46.6,5.2
	c0.1,8.2,0.3,16.7,0.5,25.2c13.3-0.8,27.5-2.6,38.6-5.3l1.1,8.9c-11.5,2.5-25.8,4.1-39.5,4.8l1.1,22.8c12.6,4.1,26,11.2,40.2,21.3
	l-6,8.3c-12.3-9.7-23.9-16.3-33.9-20.1c0,2.2,0.1,4.6,0.1,6.4c-0.1,13-7.9,20.5-24.5,20.5c-17.4,0-30.1-7.1-30.1-20
	c0-13.1,14.9-20.4,30.2-20.4c4.5,0,9.3,0.4,14.4,1.6c-0.1-5.9-0.4-13-0.5-20.4c-4.4,0.1-9.3,0.3-13.3,0.3
	c-23.4,0-29.9-3.7-29.9-11.6c0-5.2,4-9.4,12.7-15l6.6,4.2c-6.2,3.4-9.4,6.4-9.4,9.2c0,4.1,6.4,4.9,23.8,4.9c3,0,6.2,0,9.2-0.1
	l-0.8-25.3c-5.9,0.3-12.7,0.3-18.9,0.3c-8.7,0-21.2,0-29.4-0.3V73.8z M84.8,145c-5.5-1.5-10.5-2.2-15.3-2.2
	c-10.4,0-20.9,4.2-20.9,12.4c0,8.1,9.6,12,21.5,12c10.8,0,14.9-4.8,14.9-14.4L84.8,145z"/>
<circle class="st0" cx="418.4" cy="37.7" r="6.9"/>
<circle class="st0" cx="439.2" cy="22.8" r="11"/>
</svg>
