<?xml version="1.0" encoding="utf-8"?>
<!-- Generator: Adobe Illustrator 25.3.1, SVG Export Plug-In . SVG Version: 6.00 Build 0)  -->
<svg version="1.1" id="レイヤー_1" xmlns="http://www.w3.org/2000/svg" xmlns:xlink="http://www.w3.org/1999/xlink" x="0px"
	 y="0px" viewBox="0 0 40 211.11914" enable-background="new 0 0 40 211.11914" xml:space="preserve">
<g>
	<path d="M13.87744,10.07031c-0.99951,1.7998-1.91943,3.39941-2.79932,4.75928c1.59961,1.43945,1.63965,1.7998,1.19971,4.31934
		c-0.19971,1.07959-0.91992,10.19824-0.95996,11.71777c-0.03955,0.68018-0.3999,3.63965-0.83984,4.51953
		c-0.47949,0.87939-0.7998,0.87939-1.27979,0c-0.67969-1.43994-0.99951-3.55957-0.35986-4.99951
		c0.32031-0.87988,1.12012-4.0791,1.43994-8.07861c0.23975-3.55908,0.19971-5.0791-0.04004-6.23877
		c-2.79932,3.91943-5.0791,5.95898-7.19873,7.27881c-1.3999,0.7998-1.47998,0-0.3999-1.08008
		c2.75928-2.87939,5.75879-6.87891,7.39844-10.1582c1.7998-3.43945,2.35986-5.6792,2.08008-6.79883
		c-0.36035-1.47949,0.55957-1.75977,2.2793-0.31982c1.63965,1.47949,1.63965,2.15967,1.08008,2.6792
		C15.27734,7.83057,14.47754,9.07031,13.87744,10.07031z M32.91406,33.10645c-2.0791-0.52002-10.6377-0.47998-14.47705,0.52002
		c-1.83984,0.51953-2.19971,0.51953-3.31934-0.28027c-1.24023-0.83984-1.12012-1.47949,0.71973-1.23975
		c0.35986,0.04004,4.6792-0.3999,8.51807-0.7998c0.52051-4.95898,0.40039-6.11914-0.15918-6.67871
		c-2.23975,0.11963-2.87988,0-4.11963-1c-1.91992,2.83936-4.03955,4.91943-6.55908,6.35889
		c-1.99951,1.15967-2.55957,1.04004-0.59961-0.63965c3.31934-2.75977,6.79883-7.95898,9.03857-13.79785
		c-0.47998,0.04004-0.87988,0.12012-1.04004,0.16016c-1.91992,0.35986-3.35938,0.31982-3.91943,0
		c-1.31982-0.68018-1.15967-1.04004,0.31982-1.16016c1.3999-0.11963,3.27979-0.35986,5.31934-0.7998
		c1.3999-3.95898,1.83936-6.79883,1.47949-7.91846c-0.55957-1.87988-0.11963-2.15967,1.99951-1
		c2.04004,1.15967,2.2002,1.3999,1.40039,2.67969c-0.16016,0.27979-0.64062,1.3999-1.08008,2.75928
		c-0.40039,1.08008-0.7998,2.04004-1.2002,3.03955c1.44043-0.23975,2.75977-0.55957,3.95996-0.87988
		c1.63965-0.3999,2.59961-0.35986,3.67871,0.12012c1.68066,0.71973,1.87988,1.43994-0.75977,1.71973
		c-0.87988,0.12012-4.59863,0.52002-7.59863,0.91992c-1.31934,3.11963-2.71924,5.87891-4.27881,8.27832
		c0.19971-0.03955,0.67969-0.07959,1.03955-0.03955c0.91992,0.03955,4.03906-0.68018,6.83887-1.64014
		c0.71973-0.19971,2.23926-0.3999,3.43945-0.23975c1.59961,0.16016,1.95996,1.31982-0.67969,2.07959
		c-1.04004,0.24023-2.55957,0.52002-4.63965,0.7998c1,0.75977,1.08008,1.19971,0.83984,2.19971
		c-0.08008,0.31982-0.47949,2.91943-0.67969,4.47949c2.19922-0.24023,3.95898-0.43994,4.0791-0.47998
		c1.95996-0.47998,4.35938-0.2002,5.35938,0.99951C37.07422,33.22656,36.43359,33.98633,32.91406,33.10645z"/>
	<path d="M19.19678,52.23877c-0.31982,1.51953-0.91992,3.23926-1.47998,3.99902c-0.67969,0.95996-0.95947,0.83984-1.63965,0.36035
		c-0.27979-0.2002-1.11963-0.2002-2.55957,0.08008l-0.08008,3.2793c1.08008-0.2002,2.35986-0.44043,2.7998-0.40039
		c1.63965,0.12012,1.7998,1.12012-0.12012,1.59961c-0.91992,0.24023-1.83936,0.40039-2.71924,0.56055l-0.08008,3.39941
		c2.87939-0.67969,6.15869-1.12012,6.479-0.87988c0.23975,0.16016-0.04004,0.47949-1.3999,0.87988
		c-5.55908,1.63965-10.55811,3.31934-11.47803,3.83887c-1.08008,0.60059-1.59961,0.52051-2.99951-0.43945
		c-1.52002-1.04004-1.12012-1.59961,0.47998-1.55957c1.23975,0.04004,2.23926-0.16016,7.39844-1.48047l0.04004-3.47949
		c-1.83936,0.24023-3.19922,0.24023-3.71924,0.08008c-1.23975-0.39941-1.19971-0.87988,0.08008-1.0791
		c0.7998-0.12012,2.23975-0.36035,3.63916-0.68066l0.04004-3.23926c-0.83984,0.16016-1.59961,0.28027-2.59961,0.48047
		c-0.08008,0.43945-0.27979,0.59961-0.63965,0.59961c-0.3999,0-0.68018-0.63965-1.16016-2.83984
		c-0.7998-3.63867-1.91943-6.51855-2.31934-7.07812c-0.83984-1.16016-0.64014-1.60059,1.75977-0.87988
		c2.39941-0.2002,7.55859-1.04004,8.83838-1.48047c1.7998-0.63965,2.07959-0.59961,3.59961,0.28027
		c1.75928,1.04004,1.63965,1.43945,1.23975,1.7998C20.23682,48.27979,19.9165,49.03955,19.19678,52.23877z M9.3584,52.63818
		c-0.67969-0.19922-0.7998-0.63965,0.43994-0.91895c0.83984-0.16016,1.51953-0.32031,2.11963-0.44043
		c0-1.71973-0.12012-2.67969-0.35986-3.35938c-1.15967,0.16016-2.55957,0.32031-3.87939,0.40039
		c0.43994,1.91895,1.19971,6.07812,1.51953,8.23828c0.80029-0.12012,1.7998-0.32031,2.67969-0.48047l0.04004-3.35938
		C10.63818,52.87842,9.99854,52.79834,9.3584,52.63818z M16.47705,47.27979c-0.43994-0.04004-1.95947,0.12012-3.63916,0.43945
		c1.19971,0.71973,1.3999,1.2002,1.23975,1.63965c-0.08008,0.48047-0.2002,1.08008-0.27979,1.59961
		c1.15967-0.15918,1.47949-0.11914,1.87939,0.04004c0.7998,0.28027,0.83984,0.83984-0.19971,1.08008
		c-0.68018,0.16016-1.23975,0.28027-1.7998,0.36035l-0.12012,3.2793c0.7998-0.16016,1.35986-0.24023,1.52002-0.28027
		c1.03955-0.2002,1.23975-0.39941,1.47949-1.12012c0.35986-1.19922,0.7998-3.95898,0.95996-5.79883
		C17.59717,47.479,17.43701,47.31982,16.47705,47.27979z M33.99414,59.99756c-1.2793,0.67969-1.39941,0.51953-0.55957-0.91992
		c1.23926-2.16016,1-2.43945-0.71973-2.2793c-3,0.2793-7.55859,1.0791-10.91846,2.03906
		c-1.3999,0.40039-2.43945,0.32031-3.43945-0.31934c-1.15967-0.76074-1.04004-1.32031,0.52002-1.24023
		c2.31934,0.12012,13.59766-1.47949,14.59766-1.95996c1.31934-0.59961,1.83984-0.55957,3.71875,0.83984
		c1.87988,1.36035,1.95996,2.2002,0.76074,2.40039C37.31348,58.67725,35.23438,59.35791,33.99414,59.99756z M26.23535,76.79443
		c-0.87988,0.87988-1.31934,0.83984-2.0791-0.47949c-0.6001-0.95996-2.04004-2.71973-2.71973-3.39941
		c-0.75977-0.71973-0.64014-1,0.71973-0.56055c2.87988,0.87988,3.19922,0.75977,3.51953-0.83984
		c0.28027-1.39941,0.51953-4.0791,0.55957-5.55859c0.16016-2.31934-0.08008-5.59961-0.2793-6.15918
		c-0.64062-1.7998-0.36035-2.11914,1.15918-1.47949c1.63965,0.67969,1.71973,1,1.28027,2.23926
		c-0.2002,0.59961-0.24023,1.59961,0,11.43848C28.43555,73.63525,27.79492,75.35498,26.23535,76.79443z M28.15527,53.03857
		c0.36035,0.47949,0.47949,1.08008,0.43945,1.71973c-0.0791,0.83984-0.95898,1.12012-1.51953,0.55957
		c-1.04004-1-1.67969-1.71973-2.63965-2.95898c-0.55957-0.71973-0.47949-0.91992,0.7998-0.67969
		c1,0.19922,1.7998,0.47949,2.36035,0.83984c3.51953-5.0791,3.35938-5.43945,2.43945-5.2793
		c-0.75977,0.12012-4.35938,1.15918-4.83984,1.39941c-1.03906,0.52051-1.99902,0.52051-2.479,0.32031
		c-0.28027-0.12012-0.75977-0.44043-1.04004-0.7998c-0.52002-0.64062-0.27979-0.91992,0.64014-0.83984
		c1.47949,0.12012,6.43848-0.7998,7.55859-1.36035c1.12012-0.59961,1.51953-0.51953,3.0791,0.40039
		c1.67969,0.91992,1.52051,1.75977,0.95996,1.95996C33.07422,48.6792,31.95508,49.43896,28.15527,53.03857z"/>
	<path d="M9.47852,99.15625c-1.27979,0.63867-1.59961,0-0.68018-0.56055c1.52002-1,3.23975-2.2793,4.63916-3.59961
		c1.04004-1,1.31982-1.32031,1.47998-1.95898c0.2002-0.83984,0.43994-1.08008,2.07959-0.67969
		c1.7998,0.47852,1.87988,0.91992,0.87988,1.47852c-0.47998,0.32031-0.71973,0.44141-0.91992,0.56055
		c2.43994-0.19922,5.43945-0.75977,6.23926-1.19922c1.08008-0.60156,1.35938-0.60156,2.51953,0.03906
		c1.7998,0.96094,1.75977,1.48047,0.71973,1.80078c-0.59961,0.1582-1,0.43945-2.43945,1.51953
		c-1.12012,0.91992-2,1.55859-2.75977,2.11914c7.0791,2.32031,8.95898,2.75977,15.07715,3.2793
		c1.87988,0.16016,1.95996,0.75977,0.24023,1.16016c-5.59863,1.2793-6.27832,1.24023-8.59863,0.08008
		c-1-0.48047-4.2793-1.88086-8.3584-3.48047c-5.55908,3.48047-9.63818,5.08008-14.0376,5.95898
		c-1.7998,0.36133-2.07959-0.24023-0.56006-0.71875c3.83936-1.12109,8.67871-3.48047,12.59814-6
		c-1.43994-0.55859-3.07959-1.16016-4.63916-1.63867C11.91797,97.91602,10.79834,98.55664,9.47852,99.15625z M13.35791,105.47461
		c-1.35986-0.11914-1.43994-0.88086,0.04004-0.91992c1.47949-0.03906,3.39941-0.2793,5.03906-0.56055
		c-0.04004-0.55859-0.2002-1-0.28027-1.19922c-0.75977-1.35938-0.35986-1.75977,1.04004-1.32031
		c1.91943,0.59961,2.11963,0.91992,1.83984,1.48047c-0.08008,0.16016-0.12012,0.35938-0.2002,0.59961
		c2.95947-0.56055,3.71924-0.48047,4.55908-0.16016c1.24023,0.48047,1.24023,1-0.12012,1.19922
		c-0.75977,0.12109-1.63916,0.24023-4.63867,0.56055c-0.04004,0.7207-0.04004,1.35938-0.04004,2.08008
		c3.51904-0.59961,4.43945-0.56055,5.23926-0.19922c0.75977,0.31836,0.83984,0.91797-0.16016,1.1582
		c-0.63965,0.16016-1.35938,0.24023-5.0791,0.56055c0,0.67969,0,1.64062,0,2.40039c2.43945-0.20117,4.67871-0.40039,6.15918-0.60156
		c2.51953-0.31836,3.35938-0.2793,4.43848,0.44141c1.48047,0.95898,1.48047,1.83984-1.71973,1.55859
		c-1.63965-0.16016-5.59863-0.11914-8.91797,0c-0.08008,2.96094-0.31982,4.43945-0.87988,6.16016
		c-0.31982,0.95898-0.64014,0.95898-0.83984,0c-0.2002-0.80078-0.35986-3.56055-0.35986-6.08008
		c-2.63965,0.12109-4.71924,0.36133-6.99902,0.7207c-2.11963,0.2793-2.39941,0.24023-3.35938-0.32031
		c-1.19971-0.64062-1.07959-0.95898,0.08008-1c2.07959-0.08008,6.23877-0.40039,10.27832-0.71875c0-0.76172,0-1.60156,0-2.40039
		c-3.23975,0.32031-3.75928,0.2793-4.91943,0c-1.39941-0.24023-1.31982-0.75977,0.04004-0.83984
		c0.91992-0.04102,3.95947-0.35938,4.87939-0.48047c0-0.87891,0-1.71875,0-2.23828
		C15.67725,105.59375,14.55762,105.59375,13.35791,105.47461z M27.67578,85.99756c-0.36035-0.91992,0.15918-1.2793,1.83887-0.35938
		c1.32031,0.71973,1.48047,1.15918,1.08008,1.71973c-0.2002,0.2793-0.51953,1.0791-0.95996,2.43945
		c-0.63965,1.99951-1.15918,2.3999-1.63965,2.3999c-0.35938,0-0.75977-0.75977-0.55957-2.16064
		c-3,0.32031-6.87891,0.83984-9.15869,1.3208c-3.23926,0.63867-5.87891,1.35938-7.07861,1.87891
		c-1.27979,0.48047-1.67969,0.43945-1.95996-0.71875c-0.35986-1.24023-0.11963-1.48047,0.43994-1.76025
		c1.16016-0.60059,1.63965-2.47949,0.91992-3.63965c-0.52002-0.7998,0.2002-1.16016,1.7998-0.16016
		c0.95996,0.63965,1.03955,0.95996-0.23975,3.75977c2.11963-0.24023,5.19873-0.60059,6.79883-0.83984
		c0.19971-3-0.04004-4.75977-0.68018-5.47949c-0.83984-0.83984-0.67969-1.39941,1.08008-0.95996
		c2.35938,0.56055,2.55957,0.87988,2.03955,2.04004c-0.2002,0.39941-0.35986,1.63965-0.6001,4.19922l6.91943-0.7998
		C27.95508,87.67725,27.91504,86.67725,27.67578,85.99756z M14.0376,96.5957c1.23975,0.32031,3.11963,0.80078,4.99902,1.35938
		c0.83984-0.63867,1.87988-1.55859,2.87988-2.59961c0.27979-0.23828,0.19971-0.51953-0.80029-0.35938
		c-2.47949,0.35938-3.75928,0.35938-5.03906,0.08008C15.4375,95.63672,14.71777,96.15625,14.0376,96.5957z"/>
	<path d="M36.67383,165.26172c-1.7998,0.96094-6.67871,1.83984-9.95801,1.24023c-3.35986-0.59961-4.71973-1.75977-5.55957-4.19922
		c-0.31982-0.95898-0.31982-3.79883-0.15967-5.83789c0.11963-1.56055,0.11963-3.80078,0-4.64062
		c-0.12012-0.79883-0.35986-1.43945-1-2.11914c-1.31982,0.16016-2.63965,0.40039-3.83936,0.59961
		c2.31982,1.64062,2.23975,1.95898,1.67969,2.75977c-0.31982,0.43945-0.55957,0.91992-0.91992,1.7207
		c-1.43945,3.2793-4.75879,8.23828-11.59766,10.79688c-1.52002,0.56055-1.31982-0.19922-0.52002-0.71875
		c2.75928-1.56055,6.479-4.83984,7.91846-6.95898c2.3999-3.51953,3.19971-5.95898,2.47949-7.39844
		c-1.75977,0.31836-3.19922,0.67969-4.03906,0.95898c-1.43994,0.43945-2.23975,0.24023-3.51953-0.64062
		c-0.75977-0.51953-0.43994-0.91992,0.27979-0.87891c0.95996,0.03906,2.83984-0.08008,5.39941-0.43945
		c1.83936-0.24023,3.71924-0.52148,5.51904-0.83984c0.23975-10.63867,0.12012-12.43945-0.71973-13.59766
		c-0.80029-1.16016-0.56006-1.88086,1.55957-1.20117c2.43945,0.80078,2.63965,1.16016,1.83984,3.08008
		c-0.36035,0.87891-0.64014,5.59961-0.80029,11.39844c1.91992-0.28125,3.47998-0.59961,4.23975-0.80078
		c3.31934-0.91992,5.0791-0.95898,6.51855-0.08008c1.32031,0.83984,0.87988,1.40039-1.12012,1.43945
		c-2.79883,0.08008-6.19824,0.28125-9.19824,0.64062c2.11963,1.43945,2.47998,2,2.11963,3.48047
		c-0.55957,2.19922-0.67969,6.39844-0.3999,7.55859c0.47998,2.23828,0.91992,2.83789,3.83984,3.39844
		c1.2793,0.24023,5.63867,0,7.3584-0.91992c1.32031-0.67969,1.87988-2.11914,2.59961-6.11914
		c0.24023-1.24023,0.59961-1.2793,0.67969,0c0.12012,1.88086,0.44043,3.48047,1.16016,5.48047
		C38.91309,163.58203,38.51367,164.26172,36.67383,165.26172z M14.55762,145.94531c-1-0.59961-2.07959-2.24023-2.67969-3.47852
		c-0.3999-0.80078-0.19971-1.04102,0.6001-0.88086c2.75928,0.56055,3.71924,1.56055,3.51904,3.24023
		C15.8374,146.14648,15.2373,146.38477,14.55762,145.94531z M27.51562,142.06641c-0.7998,0.43945-3.59961,1.87891-4.71924,2.35938
		c-0.83984,0.32031-1.08008,0.04102-0.32031-0.59961c3.3999-3,4.51904-4.19922,4.59912-5.03906
		c0.08008-0.80078,0.52051-1,0.91992-0.75977c2.91992,1.67969,2.87988,2.19922,1.7998,2.75977
		C29.27539,141.10742,28.27539,141.62695,27.51562,142.06641z"/>
	<path d="M10.67822,190.80078c2.03955,0.52148,2.75928,1.04102,2.83936,2.12109c0.08008,1.11914-0.23975,1.47852-0.83984,1.11914
		c-0.47998-0.2793-1.31982-1.08008-2.03955-1.75977c0,2.16016-0.04004,5.2793-0.12012,10.35742
		c-0.04004,2.32031-0.23975,3.08008-0.55957,3.96094c-0.47998,1.11914-0.95996,1.07812-1.75977-0.28125
		c-0.68018-1.19922-0.64014-2.2793,0-3.63867c0.3999-0.67969,0.63965-3.16016,0.99951-12.03906
		c-2.07959,5.59961-3.55908,7.48047-6.39893,10c-0.95947,0.87891-1.47949,0.59961-0.75977-0.40039
		c3.35938-4.63867,4.99951-7.91992,6.23926-11.99805c-0.68018,0.16016-1.7998,0.35938-2.08008,0.43945
		c-1.27979,0.2793-2.19922,0.16016-2.83936-0.08008c-1.07959-0.40039-1.03955-0.79883,0.31982-0.91992
		c0.91992-0.08008,3.59961-0.71875,5.6792-1.40039c0.24023-7.19727-0.04004-8.87695-0.75977-9.87695
		c-0.91992-1.24023-0.3999-1.80078,1.75977-0.96094c1.47949,0.64062,1.83936,1.36133,1.43945,2.43945
		c-0.3999,1.04102-0.59961,2.56055-0.91992,7.87891c2.04004-0.71875,2.99951-0.71875,3.67969-0.19922
		c0.52002,0.40039,0.52002,1.03906-1.23975,1.48047c-0.72021,0.19922-1.59961,0.39844-2.51953,0.59961
		C10.7583,188.64258,10.71826,189.5625,10.67822,190.80078z M25.83594,199.67969c0.08008,0.20117-1.28027,0.83984-2.47998,1.24023
		c-3.99902,1.40039-6.11865,2.2793-7.11865,2.83984c-1.23975,0.71875-1.55957,0.75977-2.71973-0.20117
		c-1.11963-0.95898-0.91992-1.39844,0.35986-1.43945c1.27979-0.03906,3.55957-0.59961,7.03906-1.55859
		c1-2.20117,1.3999-3.19922,1.31982-3.67969c-0.12012-1,0.3999-1.40039,1.3999-0.64062
		c1.27979,0.91992,1.27979,1.48047,0.6001,1.80078c-0.28027,0.16016-0.88037,0.63867-1.95996,2.11914
		C24.95605,199.43945,25.71582,199.40039,25.83594,199.67969z M17.2373,196.80078c-0.36035-0.04102-0.52002-0.48047-0.83984-1.32031
		c-0.64014-2.03906-1.08008-3.11914-1.52002-3.67969c-0.71973-0.95898-0.3999-1.39844,1.11963-0.83984
		c1.6001-0.03906,4.2793-0.75977,5.03955-1.11914c0.87988-0.43945,1.35986-0.48047,2.47949,0.16016
		c1.6792,1,1.6792,1.47852,0.56006,2.08008c-0.6001,0.31836-1.08008,1.2793-0.91992,1.63867
		c0.43994,0.75977,0.23975,1.40039-0.72021,1.43945c-0.59961,0.04102-1.55957,0.24023-4.71924,0.91992
		C17.63721,196.56055,17.43701,196.80078,17.2373,196.80078z M18.51709,176.52344c-0.76025-1.03906-0.47998-1.47852,1.63965-0.71875
		c1.55957,0.51953,1.83936,1.03906,1.23975,2.2793c-0.28027,0.63867-0.43994,1.79883-0.6001,3.91992
		c0.47998-0.16016,0.87988-0.32031,1.23975-0.48047c0.7998-0.32031,1.67969-0.51953,2.63965-0.24023
		c0.83984,0.19922,0.91992,1.08008-1.03955,1.67969c-1,0.2793-1.91992,0.51953-2.99951,0.7207l-0.16016,2.63867
		c1.3999-0.48047,2.43945-0.67969,3.07959-0.43945s0.55957,0.95898-0.7998,1.39844
		c-3.15967,1.04102-5.95898,1.48047-6.95898,1.32031c-0.7998-0.11914-0.83984-0.83984-0.04004-0.95898
		c1.23975-0.16016,2.07959-0.36133,3.23926-0.75977l0.08008-2.83984c-2.03955,0.35938-2.83936,0.43945-3.71924,0.19922
		c-0.7998-0.19922-0.71973-0.67969,0.12012-0.83984c1.23975-0.24023,2.55957-0.55859,3.6792-0.87891
		C19.27686,178.96289,19.1167,177.44336,18.51709,176.52344z M18.35693,199.59961c0.08008,1.19922-0.64014,1.48047-1.43994,0.75977
		c-0.55957-0.51953-1.03955-1.24023-1.43945-2.08008c-0.43994-0.83984-0.04004-1.07812,0.91992-0.63867
		C17.47705,198.08008,18.31689,198.80078,18.35693,199.59961z M17.7168,194.91992c0.80029-0.1582,1.56006-0.31836,2.27979-0.51953
		c1.19971-0.35938,1.35986-0.55859,1.52002-1.03906c0.07959-0.35938,0.15967-0.83984,0.27979-1.40039
		c0.16016-0.91992,0.04004-1.08008-1.23975-0.67969c-0.83984,0.2793-2.19971,0.56055-3.51953,0.80078
		C17.39697,193.12109,17.51709,193.68164,17.7168,194.91992z M37.63379,186.20312c1.04004,0.71875,0.75977,1.39844-0.63965,1.43945
		c-1.16016,0.03906-3.12012,0.32031-4.87988,0.59961c-0.04004,3.59961,0.08008,7.59766,0.32031,12.67773
		c0.16016,3.11914-0.32031,4.75977-1.31934,6.39844c-0.56055,0.91992-1.44043,0.88086-1.83984-0.08008
		c-0.44043-1.03906-1.55957-2.19922-3.16016-3.35938c-1.19922-0.91992-1.0791-1.32031,0.52051-0.91992
		c2.95898,0.75977,3.47949,0.51953,3.63965-1.79883c0.11914-1.32031,0.11914-6.32031,0.0791-12.63867
		c-0.91895,0.20117-1.39941,0.28125-1.83887,0.40039c-2.12012,0.64062-2.51953,0.56055-3.43945,0.03906
		c-1.08008-0.55859-1-0.87891,0.59961-0.99805c0.95996-0.12109,3.83887-0.56055,4.67871-0.76172
		c-0.0791-7.79688-0.31934-9.19727-1.11914-10.47656c-1.08008-1.59961-0.64062-2.08008,1.43945-1.24023
		c2.2793,1,2.51953,1.51953,1.91992,3.08008c-0.32031,0.87891-0.44043,2.11914-0.48047,8.1582
		C35.55371,185.5625,36.51367,185.44141,37.63379,186.20312z M26.75586,197.12109C26.27539,196.36133,25.67578,195,25.43555,194
		c-0.2793-1.11914-0.08008-1.23828,0.91992-0.67969c2.04004,1.20117,2.31934,1.96094,2.12012,3.2793
		C28.27539,197.91992,27.35547,198.12109,26.75586,197.12109z"/>
</g>
<g>
</g>
<g>
</g>
<g>
</g>
<g>
</g>
<g>
</g>
<g>
</g>
<g>
</g>
<g>
</g>
<g>
</g>
<g>
</g>
<g>
</g>
<g>
</g>
<g>
</g>
<g>
</g>
<g>
</g>
</svg>
