<?xml version="1.0" encoding="utf-8"?>
<!-- Generator: Adobe Illustrator 25.3.1, SVG Export Plug-In . SVG Version: 6.00 Build 0)  -->
<svg version="1.1" id="レイヤー_1" xmlns="http://www.w3.org/2000/svg" xmlns:xlink="http://www.w3.org/1999/xlink" x="0px"
	 y="0px" viewBox="0 0 40 171.11914" enable-background="new 0 0 40 171.11914" xml:space="preserve">
<g>
	<path d="M34.9541,21.42627c-2.63965-0.23975-8.39844-0.27979-13.79785,0.04004c0.08008,5.31934,0.08008,7.479-0.23975,11.63818
		c-0.2002,3.31934-0.43994,4.479-0.6001,4.87891c-0.43994,1.24023-0.87988,1.24023-1.19971-0.15967
		c-0.15967-0.7998-0.23975-4.55957-0.15967-6.35889c0.11963-4.03955,0.11963-5.479,0.11963-9.83838
		c-5.39893,0.43994-9.03857,1.03955-10.7583,1.43945c-2.39941,0.52002-2.83936,0.32031-4.31885-0.51953
		c-1.2002-0.72021-1.27979-1.12012-0.16016-1.23975c0.47998-0.04004,1.91943,0,4.2793-0.2002
		c4.11914-0.3999,7.83887-0.7998,10.99805-1.04004c0-1.55957,0-3.39941-0.04004-5.63867c0-2.07959-0.11963-4.63916-0.75977-6.0791
		c-2.55957,0.27979-4.2793,0.31982-5.19922-0.24023c-0.91992-0.55957-0.91992-0.7998,0.16016-0.91943
		c2.15967-0.24023,4.75928-0.72021,6.51904-1.16016c4.19922-1.11963,5.95898-1.15967,7.51855-0.55957
		c0.63965,0.27979,0.59961,0.87988-0.2002,1.15967c-1.23926,0.3999-3.23926,1.03955-7.9585,1.63965
		c2.99951,1.11963,2.99951,1.35986,2.59961,3.15967c-0.31982,1.15967-0.56006,4.39893-0.56006,8.47852
		c3.95996-0.3999,7.51855-0.7998,8.63867-1c2.59961-0.47998,4.87891-0.47998,6.63867,0.64014
		C37.9541,20.50635,36.99414,21.62646,34.9541,21.42627z M12.83789,17.22705c-0.71973-1.07959-1.15967-2.07959-1.7998-3.6792
		c-0.3999-0.91992-0.23975-1.31982,0.83984-0.87988c2.63965,1.07959,3.11963,2.39941,3.07959,3.55908
		C14.87744,18.02686,13.6377,18.4668,12.83789,17.22705z M28.51562,13.94775c-0.64062,0.63965-2.55957,2.39941-4.2793,3.55908
		c-0.88037,0.64014-1.04004,0.24023-0.44043-0.55957c2.59961-3.47949,3-4.6792,2.83984-5.79932
		c-0.12012-0.7998,0.63965-1.19971,2.0791-0.35986c2,1.15967,2,1.35986,1.2002,1.87988
		C29.51465,12.94775,29.15527,13.26758,28.51562,13.94775z"/>
	<path d="M33.1543,67.03271c-0.24023,3.23926-0.87988,5.55859-1.47949,6.47852c-0.7998,1.24023-1.43945,1.2002-1.71973-0.12012
		c-0.48047-2.23926-0.40039-3.23926,0.51953-5.75879c-4.35938,0.43945-8.63818,1.04004-12.31787,1.67969
		c-4.59912,0.83984-8.07861,2-8.67822,2.55957c-1.47998,1.35938-1.87988,1.43945-2.3999,0.12012
		c-0.59961-1.44043-0.51953-1.87988,0.52002-2.75977c0.64014-0.51953,0.83984-1.08008,0.52002-4.51953
		c-0.12012-1.11914-0.75977-2.67969-1.67969-3.87891c-1-1.2002-0.3999-1.75977,1.43994-1.08008
		c1.91943,0.71973,2.2793,1.24023,2.39941,2.51953c0.12012,1.28027,0.19971,3.23926,0.16016,6.67871
		c0.91943-0.19922,5.19873-0.95996,7.87842-1.31934c0.16016-17.47754,0-18.27734-1.19971-20.31641
		c-0.68018-1.16016,0-1.87988,2.15967-1c2.83936,1.08008,3.03955,1.47949,2.39941,2.75977
		c-0.59961,1.23926-0.75977,2.51953-1.11963,18.31641l10.27832-1c0.39941-2.51953,0.43945-7.79883-0.28027-8.83789
		c-1.04004-1.40039,0.12012-2.04004,2-0.75977c2.23926,1.51953,2.2793,1.95898,1.63965,2.91895
		C33.83398,60.27295,33.39453,63.79248,33.1543,67.03271z"/>
	<path d="M27.5957,123.69727c-0.40039,1.75977-1.32031,3.35938-3.08008,4.67969c-0.7998,0.63867-1.31934,0.63867-1.55957,0.07812
		c-0.59961-1.19922-1.31982-2.1582-2.51953-3.2793c-0.7998-0.75977-0.52002-1.1582,0.47998-0.83984
		c2.95947,0.96094,3.479,0.91992,4.03955-0.23828c0.87988-1.83984,1.31934-3.28125,1.43945-4.75977
		c0.16016-1.51953-0.12012-2.03906-1.51953-1.80078c-1.56006,0.28125-2.59961,0.60156-3.75977,1.40039
		c-0.51953,0.35938-0.7998,0.32031-1.19971-0.59961c-0.31982-0.75977-0.23975-1,0.76025-1.83984
		c0.87939-0.75977,1.79932-2.11914,2.55957-4.16016c0.27979-0.63867-0.08008-0.79883-6.15918,0.88086
		c1.3999,1.16016,1.23975,1.51953,0.35986,2.2793c-0.27979,0.2793-0.59961,0.83984-1.47949,2.59961
		c-2.43994,4.87891-6.43896,8.1582-10.83838,9.47852c-1.04004,0.2793-1.31982-0.19922-0.23975-0.75977
		c4.0791-2.16016,7.99854-6.2793,9.43799-10.03906c0.64014-1.83984,0.83984-2.55859,0.83984-3.03906
		c-2.11963,0.51953-3.43896,0.56055-4.11914,0.12109c-1.43945-0.88086-1.23975-1.24023,0.27979-1.36133
		c4.23975-0.2793,9.75879-1.23828,11.43848-2.1582c0.7998-0.44141,1.11963-0.40039,2.51904,0.43945
		c1.48047,0.87891,1.52051,1.24023,0.64062,1.83984c-1.16016,0.79883-1.91992,1.55859-3.99951,4.47852
		c0.7998-0.03906,1.79932-0.32031,2.87939-0.83984c1-0.48047,1.67969-0.40039,3.35938,0.56055c2,1.11914,1.95996,1.51953,1,2.39844
		C28.71484,119.61719,28.23535,120.9375,27.5957,123.69727z M27.71582,109.41992c-2.55957-2.04102-4.99951-4.03906-7.2793-5.95898
		c-0.04004,0.87891-0.04004,1.75977,0.04004,2.23828c0.23975,2.40039-0.08008,3.88086-0.43994,4.35938
		c-0.23975,0.28125-0.75977,0.28125-1.11963-0.24023c-0.43994-0.67969-0.56006-1.39844-0.28027-2.55859
		c0.16016-0.7207,0.35986-2.95898,0.35986-4.71875c-2.31934,4.43945-5.91895,7.27734-12.11768,9.35742
		c-1.3999,0.48047-1.55957-0.11914-0.35986-0.75977c4.71924-2.39844,8.47852-5.43945,10.23828-8.35742
		c-1.71973,0.31836-3.43945,0.71875-4.75928,1.11914c-1.63965,0.51953-2.31982,0.51953-3.2793,0
		c-1.2002-0.64062-1.16016-1.04102-0.2002-1.16016c3.31934-0.35938,7.19873-0.83984,10.43848-1.2793
		c-0.16016-2.08008-0.32031-2.91992-0.72021-3.67969c-1.23975,0.19922-2.55957,0.48047-3.43945,0.56055
		c-1.95947,0.19922-1.91943-0.32031-0.7998-0.67969c5.31934-1.67969,8.67871-3.12109,9.07861-3.96094
		c0.27979-0.63867,0.43994-0.63867,2.04004,0.20117c2.19922,1.24023,2.0791,1.63867-0.08008,2.1582
		c-0.52051,0.12109-1.47998,0.36133-5.47949,1.40039c1.47998,0.75977,1.63965,1.19922,1.19971,2.40039
		c-0.07959,0.19922-0.11963,0.67969-0.19971,1.31836c1.91943-0.31836,3.31934-0.59961,4.03906-0.79883
		c2.71973-0.7207,5.31934-0.91992,6.23926-0.35938c1.43945,0.87891,1.31934,1.59961-0.83984,1.67969
		c-3.51953,0.08008-6.6792,0.31836-9.51855,0.63867c0.04004,0.08008,0.04004,0.16016,0.04004,0.28125
		c8.1582,4.95898,9.43848,5.59766,15.59766,6.59766c1.99902,0.32031,2.15918,0.75977,0.75977,1.08008
		C30.55469,111.45898,30.11523,111.29883,27.71582,109.41992z"/>
	<path d="M6.43896,163.55469c-0.31982,2.19922-1.23975,2.2793-2.31982-0.51953c-0.87988-2.24023-0.71973-2.7207-0.27979-2.91992
		c0.71973-0.35938,1.11963-0.83984,1.83984-1.95898c1.03955-1.60156,2.11963-3.48047,2.87939-4.80078
		c0.71973-1.23828,1.31982-1.35938,0.71973,0.44141C8.39844,156.35547,6.79883,161.27539,6.43896,163.55469z M5.63916,149.47656
		c-0.52002-0.56055-0.95996-1.40039-1.75977-3c-0.56006-1.11914-0.31982-1.35938,0.95996-0.91992
		c2.19971,0.75977,2.83936,1.7207,2.79932,2.88086C7.55859,149.99609,6.55908,150.35742,5.63916,149.47656z M9.7583,141.71875
		c-0.95996-0.56055-2.03955-1.83984-3.07959-3.12109c-0.43994-0.55859-0.43994-1.03906,1-0.83984
		c2.35938,0.36133,3.35938,1.08008,3.6792,2.59961C11.59814,141.63867,10.83838,142.31836,9.7583,141.71875z M19.1167,142.75781
		c-1.75977,3.83984-4.99902,8.11914-8.11865,9.03906c-0.91992,0.24023-0.95996-0.04102-0.23975-0.59961
		c2.07959-1.75977,3.71924-3.56055,4.91895-5.51953c-0.99951-0.40039-2.03955-1.35938-2.43945-1.96094
		c-0.56006-0.79883-0.52002-0.95898,0.67969-0.91797c0.95996,0.03906,1.71973,0.47852,2.43994,1.59961
		c0.71973-1.32031,1.23975-2.75977,1.63965-4.35938c0.23975-0.75977,0.04004-0.88086-0.75977-0.67969
		c-0.52002,0.11914-1.75977,0.1582-2.35986-0.08008c-0.59961-0.24023-0.59961-0.52148,0.08008-0.68164
		c1.23975-0.2793,2.23975-0.55859,3.31934-1.23828c0.6001-0.40039,1.04004-0.36133,1.87988,0.2793
		c1.31982,0.95898,1.31982,1.08008,0.55957,2C20.27637,140.1582,20.03662,140.71875,19.1167,142.75781z M32.51465,165.71484
		c-4.63965-0.67969-6.95898-0.7207-11.59814-0.44141c-2.59961,0.12109-5.79883,0.67969-6.479,0.91992
		c-1.15967,0.36133-1.91943,0.40039-3.23926-0.35938c-1.04004-0.59961-1.04004-1.08008,0.27979-1.08008
		c0.7998,0,6.31885-0.56055,10.83838-1.03906c1.83984-3,2.39941-4,2.2793-4.75977c-0.16016-1.16016,0-1.32031,1.71973-0.56055
		c1.67969,0.75977,1.7998,1.48047,0.67969,2c-0.47949,0.24023-1.2793,0.91992-3.23926,3.16016
		c1.47949-0.16016,2.75977-0.32031,3.55957-0.40039c3.75977-0.40039,4.55957-0.24023,6.11914,1.03906
		C34.19434,164.79492,33.99414,165.91406,32.51465,165.71484z M27.35547,154.43555
		c-0.55957,0.64062-0.75977,1.16016-0.63965,1.64062c0.23926,0.79883,0.2793,0.91992-1.48047,1.03906
		c-1.0791,0.08008-4.39893,0.40039-6.91846,0.67969c-0.04004,0.48047-0.27979,0.67969-0.47998,0.64062
		c-0.47998-0.08008-0.75977-0.2793-1.03955-1.2793c-0.3999-1.44141-1-3.2793-1.35986-3.88086
		c-0.71973-1.23828-0.64014-1.59961,1.43945-1.03906c3.23975-0.16016,7.19922-1,8.03906-1.51953
		c0.71973-0.43945,1.23926-0.43945,2.7998,0.48047c1.55957,0.91992,1.67969,1.2793,0.91895,1.91797
		C28.19531,153.47656,27.95508,153.7168,27.35547,154.43555z M17.91699,162.91406c-0.35986-0.43945-0.91992-1.51953-1.31982-2.51953
		c-0.27979-0.67969,0-0.87891,0.64014-0.63867c1.87939,0.63867,2.35938,1.19922,2.2793,2.47852
		C19.43652,163.39453,18.55664,163.67383,17.91699,162.91406z M24.43555,152.19727c-1.63916,0.2793-4.91895,0.71875-6.9585,0.99805
		c0.23975,1.04102,0.47998,2.16016,0.67969,3.56055c1.27979-0.16016,2.71973-0.35938,5.39941-0.83984
		c0.3999-0.08008,0.83936-0.43945,1.23975-1.2793c0.24023-0.48047,0.36035-1.04102,0.39941-1.59961
		C25.23535,152.27539,25.11621,152.07617,24.43555,152.19727z M25.47559,147.51758
		c-2.47949,0.95898-5.43896,1.55859-6.79883,0.95898c-0.83984-0.32031-0.87988-0.71875-0.08008-0.91992
		c0.83984-0.19922,3.27979-0.87891,3.91943-1.11914c1.27979-0.51953,2.23975-0.35938,3.03955,0.08008
		C26.23535,146.87695,26.35547,147.19727,25.47559,147.51758z M30.75488,148.7168c-2.2793-2.40039-3.35938-3.75977-4.67969-5.2793
		c-1.51953-1.75977-2.2793-2.59961-3.31885-3.43945c-0.47998-0.40039-0.56006-0.71875-0.08008-0.83984
		c0.23975-0.03906,0.67969,0,0.99951,0.12109c1.51953-1.96094,1.7998-2.67969,1.91992-3.43945
		c0.16016-1.12109,0.59961-1.24023,1.7998-0.44141c1.55957,1.08008,1.51953,1.80078,0.43945,2.08008
		c-0.43945,0.12109-1.0791,0.40039-3.59863,2.2793c0.51953,0.64062,1.47949,1.56055,2.55957,2.51953
		c1.79883-1.67969,2.43945-2.51953,2.67871-2.95898c0.48047-0.95898,0.80078-1.08008,2.16016-0.19922
		c1.2002,0.79883,1.31934,1.2793,0.32031,1.47852c-0.68066,0.16016-2.28027,0.7207-4.47949,2.2793
		c3.91895,3.51953,5.87891,4.67969,10.71777,6.11914c1.08008,0.32031,1.32031,0.75977,0,0.91992
		C32.6748,150.67578,32.35449,150.47656,30.75488,148.7168z"/>
</g>
<g>
</g>
<g>
</g>
<g>
</g>
<g>
</g>
<g>
</g>
<g>
</g>
<g>
</g>
<g>
</g>
<g>
</g>
<g>
</g>
<g>
</g>
<g>
</g>
<g>
</g>
<g>
</g>
<g>
</g>
</svg>
