<?xml version="1.0" encoding="utf-8"?>
<!-- Generator: Adobe Illustrator 25.3.1, SVG Export Plug-In . SVG Version: 6.00 Build 0)  -->
<svg version="1.1" id="レイヤー_1" xmlns="http://www.w3.org/2000/svg" xmlns:xlink="http://www.w3.org/1999/xlink" x="0px"
	 y="0px" viewBox="0 0 40.5 171.61914" enable-background="new 0 0 40.5 171.61914" xml:space="preserve">
<g>
	<path stroke="#000000" stroke-width="0.5" stroke-miterlimit="10" d="M35.20508,21.67627
		c-2.64062-0.23975-8.39941-0.27979-13.79883,0.04004c0.08008,5.31934,0.08008,7.479-0.23975,11.63818
		c-0.2002,3.31934-0.43994,4.479-0.6001,4.87891c-0.43994,1.24023-0.87988,1.24023-1.19971-0.15967
		c-0.15967-0.7998-0.23975-4.55957-0.15967-6.35889c0.11963-4.03955,0.11963-5.479,0.11963-9.83838
		c-5.39893,0.43994-9.03857,1.03955-10.75781,1.43945c-2.3999,0.52002-2.83984,0.32031-4.31934-0.51953
		c-1.2002-0.72021-1.27979-1.12012-0.16016-1.23975c0.47998-0.04004,1.91992,0,4.2793-0.2002
		c4.11914-0.3999,7.83887-0.7998,10.99805-1.04004c0-1.55957,0-3.39941-0.04004-5.63867c0-2.07959-0.11963-4.63916-0.75977-6.0791
		c-2.55957,0.27979-4.2793,0.31982-5.19922-0.24023c-0.91992-0.55957-0.91992-0.7998,0.16016-0.91943
		c2.15967-0.24023,4.75928-0.72021,6.51904-1.16016c4.19922-1.11963,5.95898-1.15967,7.51855-0.55957
		c0.63965,0.27979,0.60059,0.87988-0.2002,1.15967c-1.23975,0.3999-3.23926,1.03955-7.9585,1.63965
		c2.99951,1.11963,2.99951,1.35986,2.59961,3.15967c-0.31982,1.15967-0.56006,4.39893-0.56006,8.47852
		c3.95947-0.3999,7.51855-0.7998,8.63867-1c2.59863-0.47998,4.87988-0.47998,6.63965,0.64014
		C38.20312,20.75635,37.24414,21.87646,35.20508,21.67627z M13.08789,17.47705c-0.71973-1.07959-1.15967-2.07959-1.7998-3.6792
		c-0.3999-0.91992-0.23975-1.31982,0.83984-0.87988c2.63965,1.07959,3.11963,2.39941,3.07959,3.55908
		C15.12744,18.27686,13.8877,18.7168,13.08789,17.47705z M28.76562,14.19775c-0.64062,0.63965-2.56006,2.39941-4.27979,3.55908
		c-0.87988,0.64014-1.03955,0.24023-0.43994-0.55957c2.59961-3.47949,2.99902-4.6792,2.83984-5.79932
		c-0.12012-0.7998,0.63965-1.19971,2.0791-0.35986c2,1.15967,2,1.35986,1.19922,1.87988
		C29.76562,13.19775,29.40527,13.51758,28.76562,14.19775z"/>
	<path stroke="#000000" stroke-width="0.5" stroke-miterlimit="10" d="M33.4043,67.28223
		c-0.24023,3.23975-0.87891,5.55908-1.48047,6.479c-0.79883,1.23975-1.43945,1.19971-1.71875-0.12012
		c-0.48047-2.23975-0.40039-3.23926,0.51953-5.75879c-4.35938,0.43994-8.63818,1.03955-12.31787,1.67969
		c-4.59912,0.83984-8.07861,1.99951-8.67822,2.55957c-1.47998,1.35986-1.87988,1.43945-2.3999,0.12012
		c-0.59961-1.43994-0.51953-1.87988,0.52002-2.75977c0.64014-0.52002,0.83984-1.08008,0.52002-4.51904
		c-0.12012-1.12012-0.75977-2.67969-1.67969-3.87939c-1-1.2002-0.3999-1.75977,1.43994-1.08008
		c1.91943,0.71973,2.2793,1.23975,2.39941,2.51953s0.19971,3.23975,0.16016,6.6792c0.91943-0.2002,5.19873-0.95996,7.87842-1.31982
		c0.16016-17.47705,0-18.27686-1.19971-20.31689c-0.68018-1.15967,0-1.87939,2.15967-0.99951
		c2.83936,1.07959,3.03955,1.47949,2.39941,2.75928c-0.59961,1.23975-0.75977,2.51953-1.11963,18.31689l10.27734-0.99951
		c0.40039-2.51953,0.44141-7.79883-0.2793-8.83887c-1.03906-1.39941,0.12109-2.03955,2-0.75977
		c2.24023,1.52002,2.2793,1.95996,1.63867,2.91943C34.08398,60.52344,33.64453,64.04297,33.4043,67.28223z"/>
	<path stroke="#000000" stroke-width="0.5" stroke-miterlimit="10" d="M27.8457,123.94727
		c-0.40039,1.75977-1.32031,3.35938-3.07959,4.67969c-0.80029,0.63867-1.31982,0.63867-1.56006,0.07812
		c-0.59961-1.19922-1.31982-2.1582-2.51953-3.2793c-0.7998-0.75977-0.52002-1.1582,0.47998-0.83984
		c2.95947,0.96094,3.47949,0.91992,4.03906-0.23828c0.87988-1.83984,1.31982-3.28125,1.43994-4.75977
		c0.16016-1.51953-0.12012-2.03906-1.51953-1.80078c-1.56006,0.28125-2.59961,0.60156-3.75928,1.40039
		c-0.52002,0.35938-0.80029,0.32031-1.2002-0.59961c-0.31982-0.75977-0.23975-1,0.76025-1.83984
		c0.87939-0.75977,1.79932-2.11914,2.55957-4.16016c0.27979-0.63867-0.08008-0.79883-6.15918,0.88086
		c1.3999,1.16016,1.23975,1.51953,0.35986,2.2793c-0.27979,0.2793-0.59961,0.83984-1.47949,2.59961
		c-2.43994,4.87891-6.43896,8.1582-10.83838,9.47852c-1.04004,0.2793-1.31982-0.19922-0.23975-0.75977
		c4.0791-2.16016,7.99854-6.2793,9.43799-10.03906c0.64014-1.83984,0.83984-2.55859,0.83984-3.03906
		c-2.11963,0.51953-3.43896,0.56055-4.11914,0.12109c-1.43994-0.88086-1.23975-1.24023,0.27979-1.36133
		c4.23975-0.2793,9.75879-1.23828,11.43848-2.1582c0.7998-0.44141,1.11963-0.40039,2.51953,0.43945
		c1.47998,0.87891,1.51904,1.24023,0.63965,1.83984c-1.15967,0.79883-1.91943,1.55859-3.99902,4.47852
		c0.7998-0.03906,1.79932-0.32031,2.87939-0.83984c1-0.48047,1.67969-0.40039,3.35938,0.56055
		c1.99902,1.11914,1.95996,1.51953,1,2.39844C28.96484,119.86719,28.48535,121.1875,27.8457,123.94727z M27.96484,109.66992
		c-2.55908-2.04102-4.99854-4.03906-7.27832-5.95898c-0.04004,0.87891-0.04004,1.75977,0.04004,2.23828
		c0.23975,2.40039-0.08008,3.88086-0.43994,4.35938c-0.23975,0.28125-0.75977,0.28125-1.11963-0.24023
		c-0.43994-0.67969-0.56006-1.39844-0.28027-2.55859c0.16016-0.7207,0.35986-2.95898,0.35986-4.71875
		c-2.31934,4.43945-5.91895,7.27734-12.11768,9.35742c-1.3999,0.48047-1.55957-0.11914-0.35986-0.75977
		c4.71924-2.39844,8.47852-5.43945,10.23828-8.35742c-1.71973,0.31836-3.43945,0.71875-4.75928,1.11914
		c-1.63965,0.51953-2.31982,0.51953-3.2793,0c-1.2002-0.64062-1.16016-1.04102-0.2002-1.16016
		c3.31934-0.35938,7.19873-0.83984,10.43848-1.2793c-0.16016-2.08008-0.32031-2.91992-0.72021-3.67969
		c-1.23975,0.19922-2.55957,0.48047-3.43945,0.56055c-1.95947,0.19922-1.91943-0.32031-0.7998-0.67969
		c5.31934-1.67969,8.67871-3.12109,9.07861-3.96094c0.27979-0.63867,0.43994-0.63867,2.03955,0.20117
		c2.19971,1.24023,2.07959,1.63867-0.08008,2.1582c-0.51953,0.12109-1.47949,0.36133-5.479,1.40039
		c1.47998,0.75977,1.63965,1.19922,1.19971,2.40039c-0.07959,0.19922-0.11963,0.67969-0.19971,1.31836
		c1.91943-0.31836,3.31934-0.59961,4.03906-0.79883c2.71973-0.7207,5.31836-0.91992,6.23828-0.35938
		c1.44141,0.87891,1.32031,1.59961-0.83984,1.67969c-3.51855,0.08008-6.67822,0.31836-9.51758,0.63867
		c0.04004,0.08008,0.04004,0.16016,0.04004,0.28125c8.15918,4.95898,9.43848,5.59766,15.59668,6.59766
		c2,0.32031,2.16016,0.75977,0.75977,1.08008C30.80469,111.70898,30.36523,111.54883,27.96484,109.66992z"/>
	<path stroke="#000000" stroke-width="0.5" stroke-miterlimit="10" d="M6.68896,163.80469
		c-0.31982,2.19922-1.23975,2.2793-2.31982-0.51953c-0.87988-2.24023-0.71973-2.7207-0.27979-2.91992
		c0.71973-0.35938,1.11963-0.83984,1.83984-1.95898c1.03955-1.60156,2.11963-3.48047,2.87939-4.80078
		c0.71973-1.23828,1.31982-1.35938,0.71973,0.44141C8.64844,156.60547,7.04883,161.52539,6.68896,163.80469z M5.88916,149.72656
		c-0.52002-0.56055-0.95996-1.40039-1.75977-3c-0.56006-1.11914-0.31982-1.35938,0.95996-0.91992
		c2.19922,0.75977,2.83936,1.7207,2.79932,2.88086C7.80859,150.24609,6.80908,150.60742,5.88916,149.72656z M10.0083,141.96875
		c-0.95996-0.56055-2.03955-1.83984-3.07959-3.12109c-0.43994-0.55859-0.43994-1.03906,1-0.83984
		c2.35938,0.36133,3.35938,1.08008,3.6792,2.59961C11.84814,141.88867,11.08838,142.56836,10.0083,141.96875z M19.3667,143.00781
		c-1.75977,3.83984-4.99902,8.11914-8.11865,9.03906c-0.91992,0.24023-0.95996-0.04102-0.23975-0.59961
		c2.07959-1.75977,3.71924-3.56055,4.91895-5.51953c-0.99951-0.40039-2.03955-1.35938-2.43945-1.96094
		c-0.56006-0.79883-0.52002-0.95898,0.67969-0.91797c0.95996,0.03906,1.71973,0.47852,2.43994,1.59961
		c0.71973-1.32031,1.23975-2.75977,1.63965-4.35938c0.23975-0.75977,0.04004-0.88086-0.75977-0.67969
		c-0.52002,0.11914-1.75977,0.1582-2.35986-0.08008c-0.59961-0.24023-0.59961-0.52148,0.08008-0.68164
		c1.23975-0.2793,2.23975-0.55859,3.31934-1.23828c0.6001-0.40039,1.04004-0.36133,1.87988,0.2793
		c1.31982,0.95898,1.31982,1.08008,0.55957,2C20.52637,140.4082,20.28662,140.96875,19.3667,143.00781z M32.76367,165.96484
		c-4.63867-0.68164-6.95801-0.7207-11.59717-0.44141c-2.59961,0.12109-5.79883,0.67969-6.479,0.91992
		c-1.15967,0.36133-1.91943,0.40039-3.23926-0.35938c-1.04004-0.59961-1.04004-1.08008,0.27979-1.08008
		c0.7998,0,6.31885-0.56055,10.83838-1.03906c1.83936-3,2.39941-4,2.2793-4.75977c-0.15967-1.16016,0-1.32031,1.71973-0.56055
		c1.67969,0.75977,1.7998,1.48047,0.68066,2c-0.48047,0.24023-1.28027,0.91992-3.24023,3.16016
		c1.47998-0.16016,2.75977-0.32031,3.55957-0.40039c3.75879-0.40039,4.55957-0.24023,6.11816,1.03906
		C34.44336,165.04492,34.24414,166.16406,32.76367,165.96484z M27.60547,154.68555
		c-0.56055,0.64062-0.75977,1.16016-0.64062,1.64062c0.24023,0.79883,0.28125,0.91992-1.479,1.03906
		c-1.08008,0.08008-4.39941,0.40039-6.91895,0.67969c-0.04004,0.48047-0.27979,0.67969-0.47998,0.64062
		c-0.47998-0.08008-0.75977-0.2793-1.03955-1.2793c-0.3999-1.44141-1-3.2793-1.35986-3.88086
		c-0.72021-1.23828-0.64014-1.59961,1.43945-1.03906c3.23975-0.16016,7.19922-1,8.03906-1.51953
		c0.71973-0.43945,1.24023-0.43945,2.79883,0.48047c1.56055,0.91992,1.67969,1.2793,0.91992,1.91797
		C28.44531,153.72656,28.20508,153.9668,27.60547,154.68555z M18.16699,163.16406c-0.35986-0.43945-0.91992-1.51953-1.31982-2.51953
		c-0.27979-0.67969,0-0.87891,0.64014-0.63867c1.87939,0.63867,2.35938,1.19922,2.2793,2.47852
		C19.68652,163.64453,18.80713,163.92383,18.16699,163.16406z M24.68604,152.44727c-1.63965,0.2793-4.91943,0.71875-6.95898,0.99805
		c0.23975,1.04102,0.47998,2.16016,0.67969,3.56055c1.27979-0.16016,2.71973-0.35938,5.39941-0.83984
		c0.3999-0.08008,0.83984-0.43945,1.23975-1.2793c0.23975-0.48047,0.35986-1.04102,0.3999-1.59961
		C25.48584,152.52539,25.36572,152.32617,24.68604,152.44727z M25.72559,147.76758
		c-2.47949,0.95898-5.43896,1.55859-6.79883,0.95898c-0.83984-0.32031-0.87988-0.71875-0.08008-0.91992
		c0.83984-0.19922,3.27979-0.87891,3.91943-1.11914c1.27979-0.51953,2.23975-0.35938,3.03955,0.08008
		C26.48633,147.12695,26.60547,147.44727,25.72559,147.76758z M31.00391,148.9668c-2.2793-2.40039-3.3584-3.75977-4.67773-5.2793
		c-1.52051-1.75977-2.28027-2.59961-3.31982-3.43945c-0.47998-0.40039-0.56006-0.71875-0.08008-0.83984
		c0.23975-0.03906,0.67969,0,1,0.12109c1.51953-1.96094,1.79932-2.67969,1.91943-3.43945
		c0.16016-1.12109,0.59961-1.24023,1.7998-0.44141c1.55957,1.08008,1.51953,1.80078,0.44043,2.08008
		c-0.44043,0.12109-1.08008,0.40039-3.6001,2.2793c0.52002,0.64062,1.47998,1.56055,2.55908,2.51953
		c1.80078-1.67969,2.43945-2.51953,2.67969-2.95898c0.48047-0.95898,0.80078-1.08008,2.16016-0.19922
		c1.19922,0.79883,1.32031,1.2793,0.32031,1.47852c-0.67969,0.16016-2.28027,0.7207-4.47949,2.2793
		c3.91895,3.51953,5.87793,4.67969,10.71777,6.11914c1.08008,0.32031,1.32031,0.75977,0,0.91992
		C32.92383,150.92578,32.60547,150.72656,31.00391,148.9668z"/>
</g>
<g>
</g>
<g>
</g>
<g>
</g>
<g>
</g>
<g>
</g>
<g>
</g>
<g>
</g>
<g>
</g>
<g>
</g>
<g>
</g>
<g>
</g>
<g>
</g>
<g>
</g>
<g>
</g>
<g>
</g>
</svg>
