<?xml version="1.0" encoding="utf-8"?>
<!-- Generator: Adobe Illustrator 25.3.1, SVG Export Plug-In . SVG Version: 6.00 Build 0)  -->
<svg version="1.1" id="レイヤー_1" xmlns="http://www.w3.org/2000/svg" xmlns:xlink="http://www.w3.org/1999/xlink" x="0px"
	 y="0px" viewBox="0 0 40.5 171.61914" enable-background="new 0 0 40.5 171.61914" xml:space="preserve">
<g>
	<path stroke="#000000" stroke-width="0.5" stroke-miterlimit="10" d="M14.16748,18.17236
		c-0.19971,3.07959-0.35986,10.55859-0.31982,11.7583c0.12012,1.55957-0.35986,3.51953-1.31982,4.83936
		c-0.47998,0.71973-1.07959,0.59961-1.31982,0.04004c-0.51953-1.47998-1.19971-2.67969-1.67969-3.27979
		c-0.19971-0.27979-0.23975-0.63965,0.28027-0.47998c1.67969,0.3999,2.03955,0.2002,2.11963-0.67969
		c0.55957-4.79932,0.87988-12.55811,0.63965-14.71777c-0.08008-0.67969-0.31982-0.83984-0.67969-0.7998
		c-0.64014,0.08008-1.3999,0.12012-2.31982,0.04004c0.04004,1.52002,0,3.03955-0.08008,4.39941
		c1.16016-0.31982,1.71973-0.24023,2.19971-0.16016c0.75977,0.16016,0.83984,0.87988,0.24023,1.08008
		c-0.83984,0.27979-1.3999,0.35986-2.51953,0.23975c-0.08008,1.27979-0.24023,2.47949-0.40039,3.35938
		c0.95996-0.23975,1.64014-0.19971,2.35986-0.11963c0.63965,0.11963,0.7998,0.87988,0.16016,1.07959
		c-1,0.35986-1.75977,0.3999-2.75977,0.23975c-1.07959,4.39941-2.91943,7.0791-5.43896,8.67871
		c-0.75977,0.47998-0.95996,0-0.43994-0.56006c2.51953-2.75928,4.35938-6.79883,4.71924-10.91797
		c0.35986-3.83936,0.23975-6.75879-0.08008-7.35889c-0.52002-1.15967,0-1.67969,1.7998-0.75977
		c1.23975,0.04004,1.95947-0.16016,2.6792-0.67969c0.47998-0.36035,0.91992-0.47998,2.08008,0.23975
		c1.19971,0.68018,1.43945,1.23975,0.91943,1.95947C14.44775,16.41309,14.24756,17.05273,14.16748,18.17236z M22.84619,11.09375
		c1.59961,0.6001,1.75977,0.95996,1.3999,1.71973c-0.24023,0.43994-0.47998,1.35986-0.6001,1.95947
		c-0.08008,0.40039-0.23975,0.91992-0.3999,1.6001c1-0.24023,1.91992-0.43994,2.71973-0.76025
		c0.75977-0.19971,1.91895-0.23975,2.31934,0.04004c0.43945,0.28027,0.35938,0.76025-0.71973,1.08008
		c-1.51953,0.35986-3.19971,0.71973-4.63916,0.95996c-0.2002,0.71973-0.3999,1.47949-0.6001,1.95947
		c1.71973-0.23975,3.67969-0.63965,5.91895-1.15967c1.83984-0.43994,2.52051-0.32031,3.71973,0.27979
		c0.83984,0.43994,0.40039,1.11963-1.2793,1.23975c-1.88086,0.12012-3.7207,0.31982-5.35986,0.47998
		c1.92041,1.67969,3.75928,3.11963,5.7583,4.2793c2.28125,1.35986,3.48047,1.83984,7.35938,2.59961
		c0.80078,0.16016,0.7207,0.7998-0.08008,0.91992c-5.11914,0.75977-5.99805,0.59961-6.91797-0.28027
		c-3.2002-3.0791-5.27979-5.0791-7.23926-7.43848c-0.83984,0.12012-1.59961,0.15967-2.35986,0.23975
		c-1.15967,2.59961-3.91895,5.43945-6.91846,7.0791c-1,0.55957-1.23975,0.04004-0.32031-0.6001
		c2.35986-1.87939,4.11963-3.83936,5.39941-6.19873c-0.64014,0.11963-1.08008,0.19971-1.43994,0.27979
		c-1.07959,0.23975-1.91943,0.23975-2.67969-0.23975c-0.47998-0.28027-0.27979-0.68018,0.52002-0.68018
		c1,0,2.43945-0.19971,4.15918-0.47998c0.24023-0.51953,0.47998-1.27979,0.68018-2.03955c-1.47998,0.2002-2.63965,0.2002-3.19971,0
		c-0.7998-0.35986-0.7998-0.6001-0.11963-0.67969c1.35938-0.16016,2.51953-0.35986,3.63916-0.52002
		c0.3999-1.91992,0.64014-3.91943,0.35986-4.6792c-0.15967-0.56006-0.08008-0.91992,0.24023-1c0-0.12012,0-0.27979,0.07959-0.43994
		c0.2002-0.43994,0.43994-1.11963,0.72021-1.87939c-1.52002,0.07959-4.43945,0.23975-6.79883,0.47998
		c0,0.43945,0.04004,1.11963,0.04004,1.75928c0.04004,0.52002-0.32031,1.35986-0.64014,1.43994
		c-0.35986,0.12012-0.71973-0.43994-0.7998-0.83984c-0.12012-0.7998-0.27979-1.47998-0.43994-2.11963
		c-1.15967,0.16016-2.35938,0.3999-2.91943,0.52002c-2.71973,0.59961-2.95947,0.47998-3.95947-0.04004
		C6.12891,9.25391,6.12891,8.854,7.84863,8.73438c1.23975-0.08008,2.75977-0.2002,6.15918-0.43994
		c-0.24023-1-0.56006-1.71973-1.08008-2.51953c-0.47998-0.72021-0.27979-1.12012,0.95996-0.80029
		c1.71973,0.36035,2.27979,0.91992,2.19971,1.71973c-0.04004,0.32031-0.04004,0.68018,0,1.43994
		c1.55957-0.16016,4.59912-0.43994,7.23877-0.63965c0.43994-1.56006,0.52002-2.7998,0.12012-3.47949
		c-0.36035-0.52002-0.04004-1.12012,1.67969-0.35986c1.67969,0.71973,1.75977,1.03955,1.28027,1.67969
		c-0.16064,0.23975-0.60059,1.15967-0.92041,1.91943c1.55908-0.16016,2.75928-0.27979,3.03955-0.31982
		c1.08008-0.24023,3.19922-0.16016,4.11914,0.35986c1.43945,0.75977,0.75977,1.7998-0.75977,1.67969
		c-1.7207-0.08008-4.91992-0.19971-7.19873-0.23975c-0.52002,0.87988-1.19971,1.59961-1.87988,2.15967
		c-0.08008,0.03955-0.12012,0.11963-0.19971,0.11963C22.68604,11.05371,22.76611,11.05371,22.84619,11.09375z M17.76709,33.49023
		c-0.52002,0.43994-0.95996,0.47949-1.95947-0.32031c-0.76025-0.63965-0.68018-0.99951-0.04004-1.07959
		c0.63965-0.08008,1.27979-0.27979,2.23926-0.75977c0.95996-0.3999,1.31982-0.6001,2.35986-1.08008
		c1.35986-0.67969,1.55957-0.3999,0.56006,0.56006C19.52686,32.05029,18.68701,32.77002,17.76709,33.49023z M19.52686,15.49316
		c-0.64014-0.35986-1.04004-0.72021-1.71973-1.59961c-0.31982-0.36035-0.2002-0.64014,0.52002-0.72021
		c1.59961-0.12012,2.11963,0.6001,2.31934,1.56006C20.7666,15.29297,20.08643,15.81299,19.52686,15.49316z M19.48682,29.33057
		c-0.43994-0.35986-0.91992-1.11963-1.35986-2.03955c-0.19971-0.43994-0.12012-0.59961,0.47998-0.52002
		c1.51953,0.16016,1.95947,0.7998,1.87988,1.91992C20.44678,29.25098,19.68652,29.53076,19.48682,29.33057z M24.0459,31.73047
		c0.24023,2.91943-0.08008,4.59912-1.03955,5.71875c-0.24023,0.32031-0.76025,0.35986-1.04004-0.15967
		c-0.52002-0.95996-1.23975-1.7998-1.99951-2.43994c-0.56006-0.43994-0.56006-0.83984,0.11963-0.67969
		c1.87988,0.3999,2.12012,0.27979,2.31982-0.91992c0.12012-0.47998,0.16016-2.15967,0.04004-5.55908
		c-0.04004-1.75977-0.23975-3.03955-0.6001-3.47949c-0.51953-0.71973,0-1.19971,1.52002-0.51953
		c0.95996,0.51953,1.15967,0.91943,0.91992,1.55957C23.84619,26.69141,23.80615,29.25098,24.0459,31.73047z M25.32568,28.93066
		c-0.59961,0.24023-0.7998,0-0.52002-0.31982c0.91992-1.11963,1.91992-2.35938,1.91992-2.71973
		c0-0.31982,0.31934-0.47949,0.75977-0.19971c1.63965,0.95996,1.67969,1.71973,1.39941,1.7998
		C27.88477,27.85107,26.16553,28.53076,25.32568,28.93066z M29.60547,13.05322c-0.52051,0.16016-1.40039,0.47998-3.47998,1.16016
		c-1.31982,0.43994-1.39941,0.19971-0.91992-0.12012c1.72021-1.43994,2.12061-2.15967,2.27979-2.67969
		c0.16016-0.55957,0.7998-0.63965,2.23926,0.28027C30.76562,12.29346,30.52539,12.81348,29.60547,13.05322z M29.72461,34.08984
		c-1-0.52002-3.35938-2.39941-4.23877-3.2793c-0.43994-0.43994-0.52002-0.75977,0.08008-0.68018
		c3.59912,0.40039,5.07861,1.3999,5.479,3.07959C31.32422,34.20996,30.88477,34.72998,29.72461,34.08984z"/>
	<path stroke="#000000" stroke-width="0.5" stroke-miterlimit="10" d="M29.28516,67.54004
		c-3.43945-3.87891-5.99902-7.11865-8.43848-10.67822c-0.08008,3.3999-0.12012,7.51904-0.16016,10.91846
		c0.68018-0.12012,1.19971-0.24023,1.52002-0.31982c1.31934-0.32031,3.39941-0.12012,3.83936,0.23975
		c1.15918,0.91992,0.75977,1.67969-2.31982,1.91992c-0.52002,0.03955-1.83984,0.11963-3.07959,0.19971
		c0,2.07959,0,3.59961,0.04004,4.03955c0.24023,4.63916-1.19971,4.95898-1.91943,3.35938
		c-0.64014-1.47998-0.72021-2.51953-0.36035-4.19922c0.24023-1.12012,0.32031-1.83984,0.43994-3.07959
		c-2.2793,0.31982-3.6792,0.19971-4.11914,0.04004c-2.11963-0.64014-2.11963-1.12012-0.47998-1.19971
		c0.91992-0.04004,2.91943-0.36035,4.75928-0.68018c0.16016-3.19922,0.35986-7.11865,0.35986-10.79834
		c-2.71924,6.0791-8.55859,12.03809-13.27783,14.27783c-1.99951,0.91992-2.23926,0.3999-1.39941-0.16016
		c4.2793-2.87939,10.83789-9.63818,14.15723-16.99707c-0.71973,0.08008-1.19971,0.16016-1.39941,0.2002
		c-2.63965,0.52002-4.59961,0.63965-5.63916,0.31982c-2.23975-0.67969-2.23975-1.07959,0.08008-1.27979
		c1.03955-0.08008,4.43896-0.67969,7.47852-1.19971c-0.04004-4.87939-0.27979-6.83887-1.07959-7.87891
		c-0.76025-1.07959-0.2002-1.63965,1.11963-1.31982c2.91943,0.68018,3.35938,1.7998,2.7998,2.71973
		c-0.43994,0.67969-1,3.87939-1.2002,6.15918c1.6001-0.32031,2.91992-0.56006,3.43945-0.72021
		c3.35889-0.83984,4.35889-0.87988,5.479-0.59961c2.04004,0.51953,1.99902,1.95947-0.91895,2.23926
		c-1.88086,0.16016-5.3999,0.64014-8.0791,1.04004c-0.04004,0.35986-0.04004,0.67969-0.04004,1.07959
		c4.51904,6.19922,9.27734,10.07861,15.7168,12.35791c4.35938,1.52002,4.35938,1.87988,1.88086,2.04004
		C31.60547,70.02002,31.44531,69.93994,29.28516,67.54004z"/>
	<path stroke="#000000" stroke-width="0.5" stroke-miterlimit="10" d="M12.40771,101.00977
		c-1.19971,2.11914-2.2793,3.83984-3.23926,5.32031c1.23975,1.23828,1.31982,2.03906,1.15967,3.39844
		c-0.19971,2.19922-0.35986,10.1582-0.31982,12.23828c0.08008,3.11914-0.35986,5.07812-0.63965,5.59961
		c-0.47998,0.87891-0.87988,0.71875-1.2002-0.08008c-0.63965-1.64062-0.75977-3.11914-0.27979-4.67969
		c0.47998-1.59961,0.83984-5.47852,0.83984-9.59766c0-2.91992-0.12012-4.51953-0.35986-5.67969
		c-2.39941,3.43945-4.23926,5.1582-6.35889,6.47852c-0.71973,0.43945-0.91992,0.04102-0.27979-0.67969
		c2.71924-3.11914,5.31885-6.59961,6.99854-9.87891c1.47998-2.83984,2.43945-5.71875,2.15967-6.83789
		c-0.27979-1.12109,0.12012-1.51953,1.7998-0.35938c1.7998,1.23828,1.87939,1.87891,1.27979,2.39844
		C13.56787,99.00977,13.16797,99.68945,12.40771,101.00977z M28.40527,127.125c-4.87939-2.2793-8.47852-3.99805-12.35791-6.07812
		c-1,1.87891-2.39941,3.39844-3.91943,4.59961c-1.07959,0.83984-1.3999,0.48047-0.63965-0.51953
		c1.11963-1.40039,2.03955-2.80078,3.11914-4.80078c-0.71973-0.2793-1.43945-0.51953-1.95947-0.63867
		c-1.63965-0.36133-1.7998-1.04102,0.16016-1.04102c0.71973,0,1.31934,0.16016,2.31934,0.64062
		c0.52002-1.19922,1-2.83984,0.91992-4.31836c-0.04004-0.88086-0.31982-1.24023-1-1.24023
		c-0.67969,0-0.95947-0.16016-1.11963-0.51953c-0.23975-0.48047-0.16016-0.83984,0.23975-1.56055
		c0.68018-1.11914,0.91992-1.91992,1.35986-5.19922c0.12012-0.91992-0.15967-1.03906-0.75977-0.7207
		c-0.64014,0.32031-1.23975,0.40039-2.07959,0.40039c-0.91992,0-0.83984-0.51953,0.08008-0.91992
		c0.87988-0.43945,1.55957-0.79883,2.15967-1.63867c0.35986-0.56055,1.03955-0.59961,2.23926,0.03906
		c1.2002,0.64062,1.2002,0.91992,0.83984,1.48047c-0.43994,0.67969-0.91943,2-2.75928,7.63867
		c1.43945-0.32031,1.75977-0.35938,2.47949,0c1.11963,0.59961,1.04004,1,0.47998,2.03906
		c-0.2002,0.40039-0.3999,1.08008-0.68018,2.2793c-0.23975,1.08008-0.55957,2-0.95947,2.91992
		c2.07959,0.96094,5.55908,2.51953,7.27881,3.08008c3.83936,1.24023,6.55811,1.63867,13.71826,1.51953
		c2.51953-0.04102,2.79883,0.48047,0,1.35938C30.60547,128.08594,30.36523,128.04492,28.40527,127.125z M34.96484,105.65039
		c-1.08008,0-2.28125,0.03906-3.64062,0.1582c-0.19922,0.64062-0.39844,1.48047-0.51953,2
		c-0.11914,0.51953-0.08008,0.80078,0.35938,1.04102c0.48047,0.23828,0.48047,0.79883-0.43945,0.95898
		c-1.16016,0.16016-3.0791,0.51953-4.87891,0.88086c0,0.91992,0,1.71875,0,2.47852c0.83984-0.19922,1.59961-0.40039,2.19922-0.64062
		c1.12012-0.43945,1.64062-0.39844,2.16016-0.23828c1.16016,0.35938,0.83984,1-1.59961,1.43945
		c-0.75977,0.11914-1.75977,0.32031-2.75977,0.51953c0,0.95898,0,1.83984-0.04004,2.55859
		c1.39941-0.2793,2.63965-0.59961,3.59961-0.83984c1.55957-0.39844,2.12012-0.39844,3.04004,0.12109
		c1.03906,0.59961,0.31836,1.08008-1.48047,1.16016c-1.43945,0.11914-3.2793,0.35938-5.15918,0.67969
		c-0.04004,2.47852-0.12012,3.08008-0.27979,3.91992c-0.35986,1.83789-0.95996,1.79883-1-0.12109
		c-0.04004-0.75977-0.04004-1.71875-0.08008-3.51953c-0.59961,0.08008-1.19971,0.24023-1.75977,0.35938
		c-1.03955,0.24023-2.15967,0.36133-2.75928,0.12109c-0.7998-0.32031-0.91992-0.67969,0.31982-0.83984
		c1.27979-0.16016,2.7998-0.43945,4.19922-0.75977c0-0.7207,0-1.59961,0-2.56055c-0.71973,0.12109-1.35986,0.24023-1.75977,0.32031
		c-0.87988,0.19922-1.59961,0.24023-1.91943,0.12109c-1-0.32031-1.08008-0.88086,0.27979-0.88086
		c0.3999,0,1.87988-0.24023,3.39941-0.56055c0-0.91992,0-1.75977,0-2.55859c-0.87988,0.16016-1.63965,0.32031-2.19971,0.43945
		c-1.35938,0.32031-1.83936,0.32031-2.51953,0.12109c-0.59961-0.16016-0.55957-0.7207,0.47998-0.83984
		c0.6001-0.08008,2.43945-0.40039,4.23926-0.7207c0-1,0-2,0-3.08008c-1.07959,0.24023-2.15967,0.51953-3.19922,0.83984
		c-0.83984,0.28125-1.52002,0.40039-2.51953,0.12109c-0.76025-0.20117-0.83984-0.75977,0.19971-0.88086
		c1.31982-0.16016,2.83984-0.43945,5.51904-1c0-0.95898,0.04004-1.91992,0.04004-2.99805
		c-2.79932,0.67969-3.55908,0.67969-4.23926,0.51953c-1.03955-0.24023-1.11963-0.7207-0.04004-0.88086
		c1.16016-0.19922,2.75977-0.51953,4.2793-0.87891c0-4-0.31982-5.95898-0.7998-6.67969c-1-1.51953-0.43994-1.79883,1.55957-1
		c1.6001,0.59961,1.64014,1,1.31982,2.24023c-0.15918,0.51953-0.35986,2.43945-0.47998,5.03906
		c1.68018-0.48047,3.03955-0.87891,3.52002-1.16016c0.71875-0.40039,1.19922-0.35938,2.51953,0.48047
		c1.24023,0.83984,1.35938,1.03906,0.79883,1.59961c-0.51953,0.51953-0.79883,0.91992-1.1582,2.03906
		c2.39844-0.51953,3.59766-0.55859,4.4375-0.03906C37.52344,105.04883,37.16406,105.68945,34.96484,105.65039z M25.88574,106.56836
		c0,1-0.04004,2.04102-0.04004,3.12109c1.32031-0.24023,2.39941-0.44141,2.67969-0.56055c0.51953-0.11914,0.7998-0.35938,1-1.11914
		c0.19922-0.80078,0.35938-1.48047,0.43945-2.08008C28.68555,106.08984,27.28516,106.28906,25.88574,106.56836z M29.24512,101.9707
		c-0.63965,0.03906-1.7998,0.2793-3.23926,0.63867c-0.04004,0.91992-0.04004,1.96094-0.08008,3.04102
		c1.55957-0.32031,3.08008-0.7207,4.23828-0.96094c0.12109-1.03906,0.08008-1.67969,0.08008-2.08008
		C30.24414,102.16992,29.8457,101.92969,29.24512,101.9707z"/>
	<path stroke="#000000" stroke-width="0.5" stroke-miterlimit="10" d="M33.88477,151.18945
		c-2.67969-0.19922-7.51953,0.08008-12.67822,0.64062l-0.27979,10.19727c2.35938-0.2793,3.6792-0.51953,4.83887-0.87891
		c1.16016-0.35938,2.95898-0.16016,4,0.32031c2.91797,1.35938,2.59961,2.87891-0.88086,2.47852
		c-3.99902-0.43945-8.11816-0.32031-14.51709,1c-2.71973,0.64062-3.35938,0.67969-4.07959,0.24023
		c-2.11963-1.24023-1.99951-1.59961,0.28027-1.71875c0.75977-0.04102,4.59912-0.56055,8.27832-1.16016l0.04004-10.19922
		c-3.2793,0.40039-6.23877,0.88086-9.55811,1.56055c-3.15967,0.63867-3.43945,0.59961-3.87939,0.32031
		c-2.43945-1.52148-2.27979-2.20117-0.52002-2c1.19971,0.16016,6.19922-0.48047,13.95752-1.59961
		c0.04004-9.59961-0.19971-11.79883-1.51953-13.4375c-1-1.28125-0.27979-2,2.63965-0.96094
		c2.43945,0.88086,2.55957,1.16016,1.95947,3.11914c-0.35986,1.16016-0.52002,3.56055-0.71973,10.91797
		c3.87939-0.51953,6.07959-0.87891,8.99756-1.47852c3.04102-0.64062,3.7207-0.51953,5.2793,0.2793
		C38.08398,150.15039,37.96289,151.4707,33.88477,151.18945z"/>
</g>
<g>
</g>
<g>
</g>
<g>
</g>
<g>
</g>
<g>
</g>
<g>
</g>
<g>
</g>
<g>
</g>
<g>
</g>
<g>
</g>
<g>
</g>
<g>
</g>
<g>
</g>
<g>
</g>
<g>
</g>
</svg>
