<?xml version="1.0" encoding="utf-8"?>
<!-- Generator: Adobe Illustrator 25.3.1, SVG Export Plug-In . SVG Version: 6.00 Build 0)  -->
<svg version="1.1" id="レイヤー_1" xmlns="http://www.w3.org/2000/svg" xmlns:xlink="http://www.w3.org/1999/xlink" x="0px"
	 y="0px" viewBox="0 0 40 171.11914" enable-background="new 0 0 40 171.11914" xml:space="preserve">
<g>
	<path d="M13.91748,17.92236c-0.19971,3.07959-0.35986,10.55859-0.31982,11.7583c0.12012,1.55957-0.35986,3.51953-1.31982,4.83936
		c-0.47998,0.71973-1.07959,0.59961-1.31982,0.04004c-0.51953-1.47998-1.19971-2.67969-1.67969-3.27979
		c-0.19971-0.27979-0.23975-0.63965,0.28027-0.47998c1.67969,0.3999,2.03955,0.2002,2.11963-0.67969
		c0.55957-4.79932,0.87988-12.55811,0.63965-14.71777c-0.08008-0.67969-0.31982-0.83984-0.67969-0.7998
		c-0.64014,0.08008-1.3999,0.12012-2.31982,0.04004c0.04004,1.52002,0,3.03955-0.08008,4.39941
		c1.16016-0.31982,1.71973-0.24023,2.19971-0.16016c0.75977,0.16016,0.83984,0.87988,0.24023,1.08008
		c-0.83984,0.27979-1.3999,0.35986-2.51953,0.23975c-0.08008,1.27979-0.24023,2.47949-0.40039,3.35938
		c0.95996-0.23975,1.64014-0.19971,2.35986-0.11963c0.63965,0.11963,0.7998,0.87988,0.16016,1.07959
		c-1,0.35986-1.75977,0.3999-2.75977,0.23975c-1.07959,4.39941-2.91943,7.0791-5.43896,8.67871
		c-0.75977,0.47998-0.95996,0-0.43994-0.56006c2.51953-2.75928,4.35938-6.79883,4.71924-10.91797
		c0.35986-3.83936,0.23975-6.75879-0.08008-7.35889c-0.52002-1.15967,0-1.67969,1.7998-0.75977
		c1.23975,0.04004,1.95947-0.16016,2.6792-0.67969c0.47998-0.36035,0.91992-0.47998,2.08008,0.23975
		c1.19971,0.68018,1.43945,1.23975,0.91943,1.95947C14.19775,16.16309,13.99756,16.80273,13.91748,17.92236z M22.59619,10.84375
		c1.6001,0.6001,1.75928,0.95996,1.3999,1.71973c-0.24023,0.43994-0.47998,1.35986-0.6001,1.95947
		c-0.08008,0.40039-0.23975,0.91992-0.3999,1.6001c1-0.24023,1.91992-0.43994,2.71973-0.76025
		c0.75977-0.19971,1.91992-0.23975,2.31934,0.04004c0.44043,0.28027,0.36035,0.76025-0.71973,1.08008
		c-1.51953,0.35986-3.19971,0.71973-4.63916,0.95996c-0.2002,0.71973-0.3999,1.47949-0.6001,1.95947
		c1.71973-0.23975,3.67969-0.63965,5.91895-1.15967c1.83984-0.43994,2.51953-0.32031,3.71973,0.27979
		c0.83984,0.43994,0.39941,1.11963-1.28027,1.23975c-1.87891,0.12012-3.71875,0.31982-5.3584,0.47998
		c1.91895,1.67969,3.75879,3.11963,5.75879,4.2793c2.2793,1.35986,3.47949,1.83984,7.3584,2.59961
		c0.7998,0.16016,0.71973,0.7998-0.08008,0.91992c-5.11914,0.75977-5.99902,0.59961-6.91895-0.28027
		c-3.19922-3.0791-5.27832-5.0791-7.23828-7.43848c-0.83984,0.12012-1.59961,0.15967-2.35986,0.23975
		c-1.15967,2.59961-3.91895,5.43945-6.91846,7.0791c-1,0.55957-1.24023,0.04004-0.32031-0.6001
		c2.35986-1.87939,4.11963-3.83936,5.39941-6.19873c-0.64014,0.11963-1.08008,0.19971-1.43994,0.27979
		c-1.07959,0.23975-1.91943,0.23975-2.67969-0.23975c-0.47998-0.28027-0.27979-0.68018,0.52002-0.68018
		c1,0,2.43945-0.19971,4.15918-0.47998c0.24023-0.51953,0.47998-1.27979,0.68018-2.03955c-1.47998,0.2002-2.63965,0.2002-3.19971,0
		c-0.7998-0.35986-0.7998-0.6001-0.11963-0.67969c1.35938-0.16016,2.51953-0.35986,3.63916-0.52002
		c0.3999-1.91992,0.64014-3.91943,0.35986-4.6792c-0.15967-0.56006-0.08008-0.91992,0.24023-1c0-0.12012,0-0.27979,0.07959-0.43994
		c0.2002-0.43994,0.43994-1.11963,0.72021-1.87939c-1.52002,0.07959-4.43945,0.23975-6.79883,0.47998
		c0,0.43945,0.04004,1.11963,0.04004,1.75928c0.03955,0.52002-0.32031,1.35986-0.64014,1.43994
		c-0.35986,0.12012-0.71973-0.43994-0.7998-0.83984c-0.12012-0.7998-0.27979-1.47998-0.43994-2.11963
		c-1.15967,0.16016-2.35938,0.3999-2.91943,0.52002c-2.71973,0.59961-2.95947,0.47998-3.95947-0.04004
		C5.87891,9.00391,5.87891,8.604,7.59863,8.48438c1.23975-0.08008,2.75977-0.2002,6.15918-0.43994
		c-0.24023-1-0.56006-1.71973-1.08008-2.51953c-0.47998-0.72021-0.27979-1.12012,0.95996-0.80029
		c1.71973,0.36035,2.27979,0.91992,2.19971,1.71973c-0.04004,0.32031-0.04004,0.68018,0,1.43994
		c1.55957-0.16016,4.59912-0.43994,7.23877-0.63965c0.43994-1.56006,0.52002-2.7998,0.12012-3.47949
		c-0.36035-0.52002-0.04004-1.12012,1.67969-0.35986c1.67969,0.71973,1.75977,1.03955,1.2793,1.67969
		c-0.15918,0.23975-0.59961,1.15967-0.91992,1.91943c1.56055-0.16016,2.75977-0.27979,3.04004-0.31982
		c1.08008-0.24023,3.19922-0.16016,4.11914,0.35986c1.43945,0.75977,0.75977,1.7998-0.75977,1.67969
		c-1.71973-0.08008-4.91895-0.19971-7.19922-0.23975c-0.51953,0.87988-1.19922,1.59961-1.87939,2.15967
		c-0.08008,0.03955-0.12012,0.11963-0.19971,0.11963C22.43604,10.80371,22.51611,10.80371,22.59619,10.84375z M17.51709,33.24023
		c-0.52002,0.43994-0.95996,0.47949-1.95947-0.32031c-0.76025-0.63965-0.68018-0.99951-0.04004-1.07959
		c0.63965-0.08008,1.27979-0.27979,2.23926-0.75977c0.95996-0.3999,1.31982-0.6001,2.35986-1.08008
		c1.35986-0.67969,1.55957-0.3999,0.56006,0.56006C19.27686,31.80029,18.43701,32.52002,17.51709,33.24023z M19.27686,15.24316
		c-0.64014-0.35986-1.04004-0.72021-1.71973-1.59961c-0.31982-0.36035-0.2002-0.64014,0.52002-0.72021
		c1.59961-0.12012,2.11963,0.6001,2.31934,1.56006C20.5166,15.04297,19.83691,15.56299,19.27686,15.24316z M19.23682,29.08057
		c-0.43994-0.35986-0.91992-1.11963-1.35986-2.03955c-0.19971-0.43994-0.12012-0.59961,0.47998-0.52002
		c1.51953,0.16016,1.95947,0.7998,1.87988,1.91992C20.19678,29.00098,19.43652,29.28076,19.23682,29.08057z M23.7959,31.48047
		c0.24023,2.91943-0.08008,4.59912-1.03955,5.71875c-0.24023,0.32031-0.76025,0.35986-1.04004-0.15967
		c-0.52002-0.95996-1.23975-1.7998-1.99951-2.43994c-0.56006-0.43994-0.56006-0.83984,0.12012-0.67969
		c1.87939,0.3999,2.11963,0.27979,2.31934-0.91992c0.12012-0.47998,0.16016-2.15967,0.04004-5.55908
		c-0.04004-1.75977-0.23975-3.03955-0.6001-3.47949c-0.51953-0.71973,0-1.19971,1.52002-0.51953
		c0.95996,0.51953,1.16016,0.91943,0.91992,1.55957C23.59619,26.44141,23.55615,29.00098,23.7959,31.48047z M25.07617,28.68066
		c-0.60059,0.24023-0.7998,0-0.52051-0.31982c0.91992-1.11963,1.91992-2.35938,1.91992-2.71973
		c0-0.31982,0.32031-0.47949,0.75977-0.19971c1.63965,0.95996,1.67969,1.71973,1.39941,1.7998
		C27.63574,27.60107,25.91602,28.28076,25.07617,28.68066z M29.35547,12.80322c-0.52051,0.16016-1.40039,0.47998-3.47949,1.16016
		c-1.32031,0.43994-1.40039,0.19971-0.91992-0.12012c1.71973-1.43994,2.11914-2.15967,2.2793-2.67969
		c0.16016-0.55957,0.7998-0.63965,2.23926,0.28027C30.51465,12.04346,30.27539,12.56348,29.35547,12.80322z M29.47461,33.83984
		c-0.99902-0.52002-3.35938-2.39941-4.23926-3.2793c-0.43945-0.43994-0.51953-0.75977,0.08008-0.68018
		c3.59961,0.40039,5.0791,1.3999,5.47949,3.07959C31.0752,33.95996,30.63477,34.47998,29.47461,33.83984z"/>
	<path d="M29.03516,67.29053c-3.43945-3.87891-5.99902-7.11816-8.43848-10.67773c-0.08008,3.39941-0.12012,7.51855-0.16016,10.91797
		c0.67969-0.12012,1.19971-0.24023,1.52002-0.32031c1.31934-0.31934,3.39893-0.12012,3.83936,0.24023
		c1.15918,0.91992,0.75977,1.67969-2.31982,1.91992c-0.52002,0.04004-1.83984,0.12012-3.07959,0.2002
		c0,2.0791,0,3.59863,0.04004,4.03906c0.24023,4.63867-1.19971,4.95898-1.91943,3.35938
		c-0.64014-1.47949-0.72021-2.51953-0.36035-4.19922c0.24023-1.12012,0.32031-1.83984,0.43994-3.08008
		c-2.2793,0.32031-3.6792,0.2002-4.11914,0.04004c-2.11963-0.63965-2.11963-1.11914-0.47998-1.19922
		c0.91992-0.04004,2.91943-0.36035,4.75928-0.67969c0.16016-3.2002,0.35986-7.11914,0.35986-10.79883
		c-2.71924,6.0791-8.55859,12.03809-13.27783,14.27734c-1.99951,0.91992-2.23926,0.40039-1.39941-0.15918
		c4.2793-2.87988,10.83789-9.63867,14.15723-16.99707c-0.71973,0.08008-1.19971,0.15918-1.39941,0.19922
		c-2.63965,0.52051-4.59961,0.64062-5.63916,0.32031c-2.23975-0.67969-2.23975-1.08008,0.08008-1.2793
		c1.03955-0.08008,4.43896-0.68066,7.47852-1.2002c-0.04004-4.87891-0.27979-6.83887-1.07959-7.87891
		c-0.75977-1.08008-0.2002-1.63965,1.11963-1.31934c2.91943,0.67969,3.35938,1.7998,2.7998,2.71875
		c-0.43994,0.68066-1,3.87988-1.2002,6.15918c1.6001-0.31934,2.91943-0.55957,3.43994-0.71973
		c3.35938-0.83984,4.35938-0.87988,5.47852-0.59961c2.04004,0.51953,2,1.95996-0.91992,2.23926
		c-1.87988,0.16016-5.39893,0.63965-8.07812,1.04004c-0.04004,0.36035-0.04004,0.67969-0.04004,1.08008
		c4.51953,6.19824,9.27832,10.07812,15.7168,12.35742c4.35938,1.51953,4.35938,1.87988,1.87988,2.04004
		C31.35449,69.77002,31.19434,69.68994,29.03516,67.29053z"/>
	<path d="M12.1582,100.75977c-1.2002,2.11914-2.27979,3.83984-3.23975,5.32031c1.23975,1.23828,1.31982,2.03906,1.15967,3.39844
		c-0.19971,2.19922-0.35986,10.1582-0.31982,12.23828c0.08008,3.11914-0.35986,5.07812-0.63965,5.59961
		c-0.47998,0.87891-0.87988,0.71875-1.2002-0.08008c-0.63965-1.64062-0.75977-3.11914-0.27979-4.67969
		c0.47998-1.59961,0.83984-5.47852,0.83984-9.59766c0-2.91992-0.12012-4.51953-0.35986-5.67969
		c-2.39941,3.43945-4.23926,5.1582-6.35889,6.47852c-0.71973,0.43945-0.91992,0.04102-0.27979-0.67969
		c2.71924-3.11914,5.31885-6.59961,6.99854-9.87891c1.47998-2.83984,2.43945-5.71875,2.15967-6.83789
		c-0.27979-1.12109,0.12012-1.51953,1.7998-0.35938c1.7998,1.23828,1.87939,1.87891,1.27979,2.39844
		C13.31787,98.75977,12.91797,99.44141,12.1582,100.75977z M28.15527,126.875c-4.87939-2.2793-8.47852-3.99805-12.35791-6.07812
		c-1,1.87891-2.39941,3.39844-3.91943,4.59961c-1.07959,0.83984-1.3999,0.48047-0.63965-0.51953
		c1.11963-1.40039,2.03955-2.80078,3.11914-4.80078c-0.71973-0.2793-1.43945-0.51953-1.95947-0.63867
		c-1.63965-0.36133-1.7998-1.04102,0.16016-1.04102c0.71973,0,1.31934,0.16016,2.31934,0.64062
		c0.52002-1.19922,1-2.83984,0.91992-4.31836c-0.04004-0.88086-0.31982-1.24023-1-1.24023
		c-0.67969,0-0.95947-0.16016-1.11963-0.51953c-0.24023-0.48047-0.16016-0.83984,0.23975-1.56055
		c0.68018-1.11914,0.91992-1.91992,1.35986-5.19922c0.12012-0.91992-0.15967-1.03906-0.75977-0.7207
		c-0.64014,0.32031-1.23975,0.40039-2.07959,0.40039c-0.91992,0-0.83984-0.51953,0.08008-0.91992
		c0.87988-0.43945,1.55957-0.79883,2.15967-1.63867c0.35986-0.56055,1.03955-0.59961,2.23926,0.03906
		c1.2002,0.64062,1.2002,0.91992,0.83984,1.48047c-0.43994,0.67969-0.91943,2-2.75928,7.63867
		c1.43945-0.32031,1.75977-0.35938,2.47949,0c1.11963,0.59961,1.04004,1,0.47998,2.03906
		c-0.2002,0.40039-0.3999,1.08008-0.67969,2.2793c-0.24023,1.08008-0.56006,2-0.95996,2.91992
		c2.07959,0.96094,5.55908,2.51953,7.27881,3.08008c3.83936,1.24023,6.55908,1.63867,13.71729,1.51953
		c2.51953-0.04102,2.7998,0.48047,0,1.35938C30.35449,127.83594,30.11523,127.79492,28.15527,126.875z M34.71387,105.40039
		c-1.0791,0-2.2793,0.03906-3.63867,0.1582c-0.2002,0.64062-0.40039,1.48047-0.52051,2s-0.08008,0.80078,0.36035,1.04102
		c0.47949,0.23828,0.47949,0.79883-0.44043,0.95898c-1.15918,0.16016-3.0791,0.51953-4.87891,0.88086c0,0.91992,0,1.71875,0,2.47852
		c0.83984-0.19922,1.59961-0.40039,2.19922-0.64062c1.12012-0.43945,1.64062-0.39844,2.16016-0.23828
		c1.16016,0.35938,0.83984,1-1.59961,1.43945c-0.75977,0.11914-1.75977,0.32031-2.75977,0.51953
		c0,0.95898,0,1.83984-0.04004,2.55859c1.39941-0.2793,2.63965-0.59961,3.59961-0.83984
		c1.55957-0.39844,2.11914-0.39844,3.03906,0.12109c1.04004,0.59961,0.32031,1.08008-1.47949,1.16016
		c-1.43945,0.11914-3.2793,0.35938-5.15918,0.67969c-0.04004,2.47852-0.12012,3.08008-0.28027,3.91992
		c-0.35938,1.83789-0.95898,1.79883-0.99902-0.12109c-0.04004-0.75977-0.04004-1.71875-0.08008-3.51953
		c-0.6001,0.08008-1.2002,0.24023-1.76025,0.35938c-1.03955,0.24023-2.15967,0.36133-2.75928,0.12109
		c-0.7998-0.32031-0.91992-0.67969,0.31982-0.83984c1.27979-0.16016,2.7998-0.43945,4.19971-0.75977c0-0.7207,0-1.59961,0-2.56055
		c-0.72021,0.12109-1.36035,0.24023-1.76025,0.32031c-0.87988,0.20117-1.59961,0.24023-1.91943,0.12109
		c-1-0.32031-1.08008-0.88086,0.27979-0.88086c0.3999,0,1.87988-0.24023,3.3999-0.56055c0-0.91992,0-1.75977,0-2.55859
		c-0.88037,0.16016-1.64014,0.32031-2.2002,0.43945c-1.35938,0.32031-1.83936,0.32031-2.51953,0.12109
		c-0.59961-0.16016-0.55957-0.7207,0.47998-0.83984c0.6001-0.08008,2.43994-0.40039,4.23975-0.7207c0-1,0-2,0-3.08008
		c-1.08008,0.24023-2.16016,0.51953-3.19971,0.83984c-0.83984,0.28125-1.52002,0.40039-2.51953,0.12109
		c-0.76025-0.20117-0.83984-0.75977,0.19971-0.88086c1.31982-0.16016,2.83984-0.43945,5.51953-1
		c0-0.95898,0.04004-1.91992,0.04004-2.99805c-2.7998,0.67969-3.55957,0.67969-4.23975,0.51953
		c-1.03955-0.24023-1.11963-0.7207-0.04004-0.88086c1.15967-0.19922,2.75977-0.51953,4.27979-0.87891
		c0-4-0.32031-5.95898-0.80029-6.67969c-1-1.51953-0.43994-1.79883,1.56006-1c1.59961,0.59961,1.63965,1,1.31934,2.24023
		c-0.16016,0.51953-0.35938,2.43945-0.47949,5.03906c1.67969-0.48047,3.03906-0.87891,3.51953-1.16016
		c0.71973-0.40039,1.19922-0.35938,2.51953,0.48047c1.23926,0.83984,1.35938,1.03906,0.7998,1.59961
		c-0.52051,0.51953-0.7998,0.91992-1.16016,2.03906c2.39941-0.51953,3.59961-0.55859,4.43945-0.03906
		C37.27344,104.79883,36.91406,105.43945,34.71387,105.40039z M25.63574,106.31836c0,1-0.04004,2.04102-0.04004,3.12109
		c1.31934-0.24023,2.39941-0.44141,2.67969-0.56055c0.51953-0.11914,0.7998-0.35938,1-1.11914
		c0.19922-0.80078,0.35938-1.48047,0.43945-2.08008C28.43555,105.83984,27.03516,106.03906,25.63574,106.31836z M28.99512,101.7207
		c-0.63965,0.03906-1.7998,0.2793-3.23926,0.63867c-0.04004,0.91992-0.04004,1.96094-0.08008,3.04102
		c1.55957-0.32031,3.0791-0.7207,4.23926-0.96094c0.12012-1.03906,0.08008-1.67969,0.08008-2.08008
		C29.99512,101.91992,29.59473,101.67969,28.99512,101.7207z"/>
	<path d="M33.63477,150.93945c-2.67969-0.19922-7.51953,0.08008-12.67822,0.64062l-0.27979,10.19727
		c2.35938-0.2793,3.67871-0.51953,4.83887-0.87891s2.95996-0.16016,3.99902,0.32031
		c2.91992,1.35938,2.59961,2.87891-0.87988,2.47852c-3.99902-0.43945-8.11816-0.32031-14.51709,1
		c-2.71973,0.64062-3.35938,0.67969-4.07959,0.24023c-2.11963-1.24023-1.99951-1.59961,0.28027-1.71875
		c0.75977-0.04102,4.59912-0.56055,8.27832-1.16016l0.04004-10.19922c-3.2793,0.40039-6.23877,0.88086-9.55811,1.56055
		c-3.15967,0.63867-3.43945,0.59961-3.87939,0.32031c-2.43945-1.51953-2.27979-2.20117-0.52002-2
		c1.19971,0.16016,6.19873-0.48047,13.95752-1.59961c0.04004-9.59961-0.19971-11.79883-1.51953-13.4375
		c-1-1.28125-0.27979-2,2.63965-0.96094c2.43945,0.88086,2.55957,1.16016,1.95947,3.11914
		c-0.35986,1.16016-0.52002,3.56055-0.71973,10.91797c3.87939-0.51953,6.07861-0.87891,8.99854-1.47852
		c3.03906-0.64062,3.71875-0.51953,5.2793,0.2793C37.83398,149.90039,37.71387,151.2207,33.63477,150.93945z"/>
</g>
<g>
</g>
<g>
</g>
<g>
</g>
<g>
</g>
<g>
</g>
<g>
</g>
<g>
</g>
<g>
</g>
<g>
</g>
<g>
</g>
<g>
</g>
<g>
</g>
<g>
</g>
<g>
</g>
<g>
</g>
</svg>
