<?xml version="1.0" encoding="utf-8"?>
<!-- Generator: Adobe Illustrator 25.3.1, SVG Export Plug-In . SVG Version: 6.00 Build 0)  -->
<svg version="1.1" id="レイヤー_1" xmlns="http://www.w3.org/2000/svg" xmlns:xlink="http://www.w3.org/1999/xlink" x="0px"
	 y="0px" viewBox="0 0 40 211.12109" enable-background="new 0 0 40 211.12109" xml:space="preserve">
<g>
	<path stroke="#000000" stroke-width="0.5" stroke-miterlimit="10" d="M13.87744,10.07031
		c-0.99951,1.7998-1.91943,3.39941-2.79932,4.75928c1.59961,1.43945,1.63965,1.7998,1.19971,4.31934
		c-0.19971,1.07959-0.91992,10.19824-0.95996,11.71777c-0.03955,0.68018-0.3999,3.63965-0.83984,4.51953
		c-0.47949,0.87939-0.7998,0.87939-1.27979,0c-0.67969-1.43994-0.99951-3.55957-0.35986-4.99951
		c0.32031-0.87988,1.12012-4.0791,1.43994-8.07861c0.23975-3.55908,0.19971-5.0791-0.04004-6.23877
		c-2.79932,3.91943-5.0791,5.95898-7.19873,7.27881c-1.3999,0.7998-1.47998,0-0.3999-1.08008
		c2.75928-2.87939,5.75879-6.87891,7.39844-10.1582c1.7998-3.43945,2.35986-5.6792,2.08008-6.79883
		c-0.36035-1.47949,0.55957-1.75977,2.2793-0.31982c1.63965,1.47949,1.63965,2.15967,1.08008,2.6792
		C15.27734,7.83057,14.47754,9.07031,13.87744,10.07031z M32.91406,33.10645c-2.08008-0.52002-10.6377-0.47998-14.47705,0.52002
		c-1.83984,0.51953-2.19971,0.51953-3.31934-0.28027c-1.24023-0.83984-1.12012-1.47949,0.71973-1.23975
		c0.35986,0.04004,4.6792-0.3999,8.51855-0.7998c0.52002-4.95898,0.3999-6.11914-0.16016-6.67871
		c-2.23926,0.11963-2.87939,0-4.11914-1c-1.91992,2.83936-4.03955,4.91943-6.55908,6.35889
		c-1.99951,1.15967-2.55957,1.04004-0.59961-0.63965c3.31934-2.75977,6.79883-7.95898,9.03857-13.79785
		c-0.47998,0.04004-0.87988,0.12012-1.04004,0.16016c-1.91992,0.35986-3.35938,0.31982-3.91943,0
		c-1.31982-0.68018-1.15967-1.04004,0.31982-1.16016c1.3999-0.11963,3.27979-0.35986,5.31934-0.7998
		c1.3999-3.95898,1.83984-6.79883,1.47949-7.91846c-0.55957-1.87988-0.11963-2.15967,1.99951-1
		c2.04004,1.15967,2.2002,1.3999,1.40039,2.67969c-0.16016,0.27979-0.64062,1.3999-1.08008,2.75928
		c-0.40039,1.08008-0.7998,2.04004-1.19971,3.03955c1.43994-0.23975,2.75928-0.55957,3.95947-0.87988
		c1.63867-0.3999,2.59961-0.35986,3.67969,0.12012c1.67969,0.71973,1.87891,1.43994-0.75977,1.71973
		c-0.88086,0.12012-4.59961,0.52002-7.59912,0.91992c-1.31982,3.11963-2.71973,5.87891-4.2793,8.27832
		c0.19971-0.03955,0.67969-0.07959,1.03955-0.03955c0.91992,0.03955,4.03955-0.68018,6.83887-1.64014
		c0.71973-0.19971,2.24023-0.3999,3.43945-0.23975c1.59961,0.16016,1.95898,1.31982-0.67969,2.07959
		c-1.04004,0.24023-2.55957,0.52002-4.63867,0.7998c0.99902,0.75977,1.0791,1.19971,0.83984,2.19971
		c-0.08008,0.31982-0.48047,2.91943-0.68066,4.47949c2.2002-0.24023,3.95996-0.43994,4.0791-0.47998
		c1.95898-0.47998,4.35938-0.2002,5.35938,0.99951C37.07422,33.22656,36.43359,33.98633,32.91406,33.10645z"/>
	<path stroke="#000000" stroke-width="0.5" stroke-miterlimit="10" d="M19.19678,52.23926
		c-0.31982,1.51953-0.91992,3.23926-1.47998,3.99902c-0.67969,0.95996-0.95947,0.83984-1.63965,0.36035
		c-0.27979-0.2002-1.11963-0.2002-2.55957,0.07959l-0.07959,3.27979c1.07959-0.2002,2.35938-0.43994,2.79932-0.3999
		c1.63965,0.11963,1.7998,1.11963-0.12012,1.59961c-0.91992,0.23975-1.83936,0.3999-2.71924,0.56006l-0.08008,3.39941
		c2.87939-0.68018,6.15869-1.12012,6.479-0.87988c0.23975,0.15967-0.04004,0.47998-1.3999,0.87988
		c-5.55908,1.63965-10.55811,3.31934-11.47803,3.83936c-1.08008,0.59961-1.59961,0.51953-2.99951-0.43994
		c-1.52002-1.04004-1.12012-1.6001,0.47998-1.56006c1.23975,0.04004,2.23926-0.15967,7.39844-1.47949l0.04004-3.47949
		c-1.83936,0.23975-3.19922,0.23975-3.71924,0.08008c-1.23975-0.3999-1.19971-0.87988,0.08008-1.08008
		c0.7998-0.11963,2.23975-0.35986,3.63916-0.67969l0.04004-3.23975c-0.83984,0.16016-1.59961,0.28027-2.59961,0.47998
		c-0.08008,0.43994-0.27979,0.6001-0.63965,0.6001c-0.3999,0-0.68018-0.64014-1.16016-2.83936
		c-0.7998-3.63965-1.91943-6.51904-2.31934-7.0791c-0.83984-1.15967-0.64014-1.59961,1.75977-0.87988
		c2.39941-0.19971,7.55859-1.03955,8.83838-1.47949c1.7998-0.64014,2.07959-0.6001,3.59961,0.27979
		c1.75977,1.04004,1.63965,1.43994,1.23975,1.7998C20.23682,48.27979,19.9165,49.03955,19.19678,52.23926z M9.3584,52.63916
		c-0.67969-0.2002-0.7998-0.64014,0.43994-0.91992c0.83984-0.16016,1.51953-0.31982,2.11963-0.43994
		c0-1.71973-0.12012-2.67969-0.35986-3.35938c-1.15967,0.16016-2.55957,0.31982-3.87939,0.3999
		c0.43994,1.91992,1.19971,6.0791,1.51953,8.23877c0.80029-0.12012,1.7998-0.32031,2.67969-0.47998l0.04004-3.35938
		C10.63818,52.87891,9.99854,52.79932,9.3584,52.63916z M16.47705,47.27979c-0.43994-0.03955-1.95947,0.12012-3.63916,0.43994
		c1.19971,0.72021,1.3999,1.2002,1.23975,1.64014c-0.08008,0.47949-0.2002,1.07959-0.27979,1.59961
		c1.15967-0.16016,1.47949-0.12012,1.87939,0.04004c0.7998,0.27979,0.83984,0.83984-0.19971,1.07959
		c-0.68018,0.16016-1.23975,0.28027-1.7998,0.35986l-0.12012,3.27979c0.7998-0.16016,1.35986-0.24023,1.52002-0.28027
		c1.03955-0.19971,1.23975-0.3999,1.47949-1.11963c0.35986-1.19971,0.7998-3.95947,0.95996-5.79883
		C17.59717,47.47998,17.43701,47.31982,16.47705,47.27979z M33.99414,59.99805c-1.2793,0.67969-1.40039,0.51953-0.56055-0.91992
		c1.24023-2.15967,1-2.43994-0.71875-2.27979c-3,0.27979-7.55908,1.08008-10.91846,2.03955
		c-1.3999,0.3999-2.43945,0.32031-3.43945-0.31982c-1.15967-0.75977-1.04004-1.31982,0.52002-1.23975
		c2.31934,0.12012,13.59766-1.47998,14.59766-1.95947c1.32031-0.6001,1.83984-0.56006,3.71875,0.83984
		c1.88086,1.35938,1.96094,2.19922,0.75977,2.39941C37.31445,58.67822,35.23438,59.35791,33.99414,59.99805z M26.23633,76.79492
		c-0.88037,0.87988-1.32031,0.83984-2.08057-0.47998c-0.59961-0.95947-2.03955-2.71924-2.71924-3.39941
		c-0.75977-0.71973-0.64014-0.99951,0.71973-0.55957c2.87939,0.87988,3.19971,0.75977,3.51953-0.83984
		c0.27979-1.3999,0.51953-4.07959,0.56055-5.55908c0.15918-2.31982-0.08008-5.59912-0.28076-6.15918
		c-0.63965-1.7998-0.35986-2.11963,1.15967-1.47949c1.64062,0.67969,1.71973,0.99951,1.2793,2.23926
		c-0.19922,0.6001-0.23926,1.6001,0,11.43799C28.43555,73.63574,27.79492,75.35547,26.23633,76.79492z M28.15527,53.03906
		c0.36035,0.47998,0.47949,1.07959,0.44043,1.71973c-0.08008,0.83984-0.96094,1.11963-1.51953,0.56006
		c-1.04102-1-1.68066-1.71973-2.64014-2.95947c-0.56006-0.72021-0.47998-0.91992,0.7998-0.68018
		c1.00049,0.2002,1.79932,0.47998,2.35986,0.83984c3.51953-5.0791,3.35938-5.43896,2.43945-5.27881
		c-0.75977,0.11963-4.35938,1.15967-4.83936,1.39941c-1.04004,0.52002-1.99951,0.52002-2.47949,0.31982
		c-0.28027-0.11963-0.75977-0.43945-1.04004-0.7998c-0.52002-0.63965-0.27979-0.91943,0.64014-0.83984
		c1.47949,0.12012,6.43945-0.7998,7.55859-1.35938c1.11914-0.6001,1.51953-0.52002,3.08008,0.3999
		c1.67969,0.91943,1.51953,1.75928,0.95898,1.95947C33.07422,48.67969,31.95508,49.43945,28.15527,53.03906z"/>
	<path stroke="#000000" stroke-width="0.5" stroke-miterlimit="10" d="M9.47852,99.15625
		c-1.27979,0.63867-1.59961,0-0.68018-0.56055c1.52002-1,3.23975-2.2793,4.63965-3.59961c1.03955-1,1.31934-1.32031,1.47949-1.95898
		c0.2002-0.83984,0.43994-1.08008,2.07959-0.67969c1.7998,0.47852,1.87988,0.91992,0.87988,1.47852
		c-0.47998,0.32031-0.71973,0.44141-0.91992,0.56055c2.43994-0.19922,5.43896-0.75977,6.23926-1.19922
		c1.07959-0.60156,1.35938-0.60156,2.51953,0.03906c1.7998,0.96094,1.75977,1.48047,0.71973,1.80078
		c-0.6001,0.1582-1,0.43945-2.43945,1.51953c-1.12012,0.91992-2,1.55859-2.75977,2.11914
		c7.0791,2.32031,8.95898,2.75977,15.07812,3.2793c1.87891,0.16016,1.95898,0.75977,0.24023,1.16016
		c-5.59961,1.2793-6.2793,1.24023-8.59961,0.08008c-1-0.48047-4.27881-1.88086-8.3584-3.48047
		c-5.55908,3.48047-9.63818,5.08008-14.0376,5.95898c-1.7998,0.36133-2.07959-0.24023-0.56006-0.71875
		c3.83936-1.12109,8.67871-3.48047,12.59814-6c-1.43994-0.55859-3.07959-1.16016-4.63916-1.63867
		C11.91797,97.91602,10.79834,98.55469,9.47852,99.15625z M13.35791,105.47461c-1.35986-0.11914-1.43994-0.88086,0.04004-0.91992
		c1.47949-0.03906,3.39941-0.2793,5.03906-0.56055c-0.04004-0.55859-0.2002-1-0.28027-1.19922
		c-0.75977-1.35938-0.35986-1.75977,1.04004-1.32031c1.91992,0.59961,2.11963,0.91992,1.83984,1.48047
		c-0.08008,0.16016-0.12012,0.35938-0.2002,0.59961c2.95947-0.56055,3.71924-0.48047,4.55908-0.16016
		c1.24023,0.48047,1.24023,1-0.11963,1.19922c-0.75977,0.12109-1.63965,0.24023-4.63916,0.56055
		c-0.04004,0.7207-0.04004,1.35938-0.04004,2.08008c3.51904-0.59961,4.43896-0.56055,5.23877-0.19922
		c0.76025,0.31836,0.84033,0.91797-0.15967,1.1582c-0.64014,0.16016-1.35986,0.24023-5.0791,0.56055c0,0.67969,0,1.64062,0,2.40039
		c2.43945-0.20117,4.6792-0.40039,6.15918-0.60156c2.51953-0.31836,3.35938-0.2793,4.43945,0.44141
		c1.47852,0.95898,1.47852,1.83984-1.7207,1.55859c-1.63867-0.16016-5.59863-0.11914-8.91797,0
		c-0.08008,2.96094-0.31982,4.43945-0.87988,6.16016c-0.31982,0.95898-0.64014,0.95898-0.83984,0
		c-0.2002-0.80078-0.35986-3.56055-0.35986-6.08008c-2.63965,0.12109-4.71924,0.36133-6.99902,0.7207
		c-2.11963,0.2793-2.39941,0.24023-3.35938-0.32031c-1.19971-0.64062-1.08008-0.95898,0.08008-1
		c2.07959-0.08008,6.23877-0.40039,10.27832-0.71875c0-0.76172,0-1.60156,0-2.40039c-3.23975,0.32031-3.75977,0.2793-4.91943,0
		c-1.3999-0.24023-1.31982-0.75977,0.04004-0.83984c0.91992-0.04102,3.95947-0.35938,4.87939-0.48047c0-0.87891,0-1.71875,0-2.23828
		C15.67725,105.59375,14.55762,105.59375,13.35791,105.47461z M27.67578,85.99756c-0.36035-0.91992,0.16016-1.2793,1.83984-0.35938
		c1.31836,0.71973,1.47852,1.15918,1.08008,1.71973c-0.20117,0.2793-0.52148,1.0791-0.96094,2.43945
		c-0.63965,1.99951-1.16016,2.3999-1.63965,2.3999c-0.36035,0-0.75977-0.75977-0.55957-2.16064
		c-2.99951,0.32031-6.87891,0.84082-9.15869,1.3208c-3.23926,0.63867-5.87891,1.35938-7.07861,1.87891
		c-1.27979,0.48047-1.67969,0.43945-1.95996-0.71875c-0.35986-1.24023-0.11963-1.48047,0.43994-1.76025
		c1.16016-0.60059,1.63965-2.47949,0.91992-3.63965c-0.52002-0.7998,0.2002-1.16016,1.7998-0.16016
		c0.95996,0.63965,1.04004,0.95996-0.24023,3.75977c2.12012-0.24023,5.19922-0.60059,6.79932-0.83984
		c0.19971-3-0.04004-4.75977-0.68018-5.47949c-0.83984-0.83984-0.67969-1.39941,1.08008-0.95996
		c2.35938,0.56055,2.55957,0.87988,2.03955,2.04004c-0.2002,0.39941-0.35986,1.63965-0.6001,4.19922l6.91846-0.7998
		C27.95508,87.67725,27.91602,86.67725,27.67578,85.99756z M14.0376,96.5957c1.23975,0.32031,3.11963,0.80078,4.99902,1.35938
		c0.83984-0.63867,1.87988-1.55859,2.87988-2.59961c0.27979-0.23828,0.19971-0.51953-0.7998-0.35938
		c-2.47998,0.35938-3.75977,0.35938-5.03955,0.08008C15.4375,95.63672,14.71729,96.15625,14.0376,96.5957z"/>
	<path stroke="#000000" stroke-width="0.5" stroke-miterlimit="10" d="M36.67383,165.26367
		c-1.79883,0.95898-6.67969,1.83984-9.95898,1.24023c-3.35889-0.60156-4.71875-1.75977-5.55859-4.19922
		c-0.31982-0.96094-0.31982-3.80078-0.15967-5.83984c0.12012-1.56055,0.12012-3.79883,0-4.63867
		c-0.12012-0.80078-0.35986-1.43945-1-2.12109c-1.31982,0.16016-2.63965,0.40039-3.83936,0.60156
		c2.31982,1.63867,2.23975,1.95898,1.67969,2.75977c-0.31982,0.43945-0.56006,0.91797-0.91992,1.71875
		c-1.43945,3.2793-4.75928,8.23828-11.59766,10.79883c-1.52002,0.55859-1.31982-0.20117-0.52002-0.7207
		c2.75928-1.55859,6.479-4.83984,7.91846-6.95898c2.3999-3.51953,3.19971-5.95898,2.47949-7.39844
		c-1.75928,0.32031-3.19922,0.67969-4.03906,0.95898c-1.43994,0.44141-2.23975,0.24023-3.51953-0.63867
		c-0.75977-0.51953-0.43994-0.91992,0.27979-0.88086c0.95996,0.04102,2.83984-0.08008,5.39941-0.43945
		c1.83936-0.24023,3.71924-0.51953,5.51904-0.83984c0.23975-10.63867,0.12012-12.4375-0.71973-13.59766
		c-0.80029-1.16016-0.56006-1.87891,1.55957-1.19922c2.43945,0.79883,2.63965,1.16016,1.83984,3.07812
		c-0.36035,0.88086-0.64014,5.59961-0.80029,11.39844c1.91992-0.2793,3.47949-0.59961,4.23926-0.79883
		c3.31982-0.91992,5.07959-0.96094,6.51904-0.08008c1.32031,0.83984,0.88086,1.39844-1.11914,1.43945
		c-2.80078,0.08008-6.19971,0.2793-9.19922,0.64062c2.11963,1.43945,2.47998,1.99805,2.11963,3.47852
		c-0.55957,2.19922-0.67969,6.39844-0.3999,7.55859c0.47998,2.24023,0.91992,2.83984,3.83887,3.40039
		c1.28027,0.23828,5.64062,0,7.35938-0.91992c1.32031-0.67969,1.87891-2.12109,2.59961-6.11914
		c0.24023-1.24023,0.59961-1.28125,0.67969,0c0.12109,1.87891,0.43945,3.47852,1.16016,5.47852
		C38.91406,163.58398,38.51367,164.26367,36.67383,165.26367z M14.55762,145.94727c-1-0.59961-2.07959-2.24023-2.67969-3.48047
		c-0.3999-0.79883-0.19971-1.03906,0.6001-0.87891c2.75928,0.55859,3.71924,1.55859,3.51953,3.23828
		C15.8374,146.14648,15.2373,146.38672,14.55762,145.94727z M27.51562,142.06641c-0.80078,0.44141-3.59961,1.88086-4.71924,2.36133
		c-0.83984,0.31836-1.08008,0.03906-0.32031-0.60156c3.39941-2.99805,4.52002-4.19922,4.6001-5.03906
		c0.0791-0.79883,0.51953-1,0.91895-0.75977c2.91895,1.67969,2.87988,2.20117,1.7998,2.75977
		C29.27539,141.10742,28.27539,141.62695,27.51562,142.06641z"/>
	<path stroke="#000000" stroke-width="0.5" stroke-miterlimit="10" d="M10.67822,190.80273
		c2.03955,0.51953,2.75977,1.03906,2.83936,2.11914c0.08008,1.11914-0.23975,1.48047-0.83984,1.11914
		c-0.47998-0.2793-1.31982-1.07812-2.03955-1.75977c0,2.16016-0.04004,5.2793-0.12012,10.35938
		c-0.04004,2.32031-0.23975,3.08008-0.55957,3.95898c-0.47998,1.11914-0.95996,1.08008-1.75977-0.2793
		c-0.68018-1.20117-0.64014-2.2793,0-3.64062c0.3999-0.67969,0.63965-3.1582,0.99951-12.03711
		c-2.07959,5.59961-3.55908,7.47852-6.39893,9.99805c-0.95947,0.88086-1.47949,0.59961-0.75977-0.40039
		c3.35938-4.63867,4.99902-7.91797,6.23926-11.99805c-0.68018,0.16016-1.7998,0.36133-2.08008,0.44141
		c-1.27979,0.2793-2.19922,0.1582-2.83936-0.08008c-1.07959-0.40039-1.03955-0.80078,0.31982-0.91992
		c0.91992-0.08008,3.59961-0.7207,5.6792-1.40039c0.23975-7.19922-0.04004-8.87891-0.75977-9.87891
		c-0.91992-1.23828-0.3999-1.79883,1.75977-0.95898c1.47949,0.63867,1.83936,1.35938,1.43945,2.43945
		c-0.3999,1.03906-0.59961,2.55859-0.91943,7.87891c2.03955-0.7207,2.99902-0.7207,3.6792-0.20117
		c0.52002,0.40039,0.52002,1.04102-1.23975,1.48047c-0.72021,0.19922-1.59961,0.40039-2.51953,0.59961
		C10.7583,188.64258,10.71826,189.5625,10.67822,190.80273z M25.83545,199.68164c0.08008,0.19922-1.27979,0.83984-2.47949,1.23828
		c-3.99902,1.40039-6.11865,2.28125-7.11865,2.83984c-1.23975,0.7207-1.55957,0.75977-2.71973-0.19922
		c-1.11963-0.96094-0.91992-1.40039,0.35986-1.43945c1.27979-0.04102,3.55957-0.59961,7.03906-1.56055
		c1-2.19922,1.3999-3.19922,1.31982-3.67969c-0.12012-1,0.3999-1.39844,1.3999-0.63867
		c1.27979,0.91992,1.27979,1.47852,0.59961,1.79883c-0.27979,0.16016-0.87988,0.64062-1.95947,2.11914
		C24.95557,199.44141,25.71582,199.40039,25.83545,199.68164z M17.2373,196.80078c-0.36035-0.03906-0.52002-0.47852-0.83984-1.31836
		c-0.64014-2.04102-1.08008-3.12109-1.52002-3.67969c-0.71973-0.96094-0.3999-1.40039,1.12012-0.83984
		c1.59961-0.04102,4.27881-0.75977,5.03906-1.12109c0.87988-0.43945,1.35938-0.47852,2.47949,0.16016
		c1.67969,1,1.67969,1.48047,0.56006,2.08008c-0.6001,0.32031-1.08008,1.2793-0.91992,1.64062
		c0.43994,0.75977,0.23975,1.39844-0.72021,1.43945c-0.59961,0.03906-1.55957,0.24023-4.71924,0.91992
		C17.63721,196.56055,17.43701,196.80078,17.2373,196.80078z M18.51709,176.52539c-0.76025-1.04102-0.47998-1.48047,1.63965-0.7207
		c1.55957,0.51953,1.83936,1.04102,1.23975,2.2793c-0.27979,0.64062-0.43994,1.80078-0.6001,3.91992
		c0.47998-0.16016,0.87988-0.32031,1.23975-0.48047c0.7998-0.32031,1.67969-0.51953,2.63965-0.24023
		c0.83984,0.20117,0.91992,1.08008-1.03955,1.67969c-1,0.28125-1.91992,0.52148-2.99951,0.7207l-0.16016,2.63867
		c1.3999-0.47852,2.43945-0.67969,3.07959-0.43945c0.63965,0.24023,0.55957,0.96094-0.7998,1.40039
		c-3.15967,1.03906-5.95898,1.48047-6.95898,1.32031c-0.7998-0.12109-0.83984-0.83984-0.04004-0.96094
		c1.23975-0.16016,2.07959-0.35938,3.23926-0.75977l0.08008-2.83984c-2.03955,0.36133-2.83936,0.44141-3.71924,0.20117
		c-0.7998-0.20117-0.71973-0.67969,0.12012-0.83984c1.23975-0.24023,2.55957-0.56055,3.6792-0.88086
		C19.27686,178.96484,19.1167,177.44531,18.51709,176.52539z M18.35693,199.60156c0.08008,1.19922-0.64014,1.47852-1.43994,0.75977
		c-0.55957-0.51953-1.03955-1.24023-1.43945-2.08008c-0.43994-0.83984-0.04004-1.08008,0.91992-0.64062
		C17.47705,198.08203,18.31689,198.80078,18.35693,199.60156z M17.7168,194.92188c0.80029-0.16016,1.56006-0.32031,2.27979-0.51953
		c1.19971-0.36133,1.35986-0.56055,1.52002-1.04102c0.07959-0.35938,0.15967-0.83984,0.27979-1.39844
		c0.16016-0.91992,0.04004-1.08008-1.23975-0.67969c-0.83984,0.2793-2.19971,0.55859-3.51953,0.79883
		C17.39697,193.12109,17.51709,193.68164,17.7168,194.92188z M37.63281,186.20312c1.04102,0.7207,0.76172,1.40039-0.63867,1.43945
		c-1.16016,0.04102-3.11914,0.32031-4.87891,0.59961c-0.04102,3.59961,0.08008,7.59961,0.31836,12.67773
		c0.16016,3.12109-0.31836,4.75977-1.31836,6.40039c-0.56055,0.91992-1.44043,0.87891-1.83984-0.08008
		c-0.44043-1.04102-1.56055-2.20117-3.16016-3.35938c-1.19922-0.91992-1.07959-1.32031,0.52051-0.91992
		c2.95996,0.75977,3.47949,0.51953,3.63965-1.80078c0.11914-1.31836,0.11914-6.31836,0.08008-12.63672
		c-0.91992,0.19922-1.40039,0.2793-1.83984,0.39844c-2.12012,0.64062-2.52002,0.56055-3.43994,0.04102
		c-1.07959-0.56055-0.99951-0.88086,0.6001-1c0.95996-0.11914,3.83984-0.56055,4.67969-0.75977
		c-0.08008-7.79883-0.32031-9.19922-1.12109-10.47852c-1.0791-1.59961-0.63867-2.08008,1.44141-1.24023
		c2.2793,1,2.51953,1.51953,1.91797,3.08008c-0.31836,0.87891-0.43945,2.11914-0.47852,8.1582
		C35.55469,185.5625,36.51367,185.44336,37.63281,186.20312z M26.75586,197.12109c-0.48047-0.75977-1.08008-2.11914-1.32031-3.11914
		c-0.27979-1.11914-0.07959-1.24023,0.91992-0.67969c2.03906,1.19922,2.32031,1.95898,2.11914,3.2793
		C28.27539,197.92188,27.35547,198.12109,26.75586,197.12109z"/>
</g>
<g>
</g>
<g>
</g>
<g>
</g>
<g>
</g>
<g>
</g>
<g>
</g>
<g>
</g>
<g>
</g>
<g>
</g>
<g>
</g>
<g>
</g>
<g>
</g>
<g>
</g>
<g>
</g>
<g>
</g>
</svg>
