<?xml version="1.0" encoding="utf-8"?>
<!-- Generator: Adobe Illustrator 25.2.3, SVG Export Plug-In . SVG Version: 6.00 Build 0)  -->
<svg version="1.1" id="レイヤー_1" xmlns="http://www.w3.org/2000/svg" xmlns:xlink="http://www.w3.org/1999/xlink" x="0px"
	 y="0px" viewBox="0 0 295.3 147.4" style="enable-background:new 0 0 295.3 147.4;" xml:space="preserve">
<style type="text/css">
	.st0{enable-background:new    ;}
	.st1{fill:#5C75B8;}
</style>
<g transform="matrix(1, 0, 0, 1, 0, 0)">
	<g class="st0">
		<path class="st1" d="M44.1,115.6c0.1,0.3,1.3,2.4,0.6,4.8c-0.8,3-3.3,6.8-3.5,7v0.1c0.1,0.5-1,0.2-0.9,0.7
			c0.2,0.5-3.4,2.7-3.6,3.3c0.1,0.9-1.4,1-1.3,1.8c-2.2,0.8-1.8,2-3.5,2.6c-0.9,0.5-1.3,1.4-2.3,1.7c-0.8,0.3-0.4,1.1-1,1.5
			c-3.4,1.9-6.5,4.9-11.8,6.8c-1.9,0.7-4.2,1.2-6.4,1.5c-0.9-0.4-1.7-0.6-2.7-0.7c-2.1-1.1-3.9-2.7-5.4-4.9c-1-2.9-2.1-5.2-2.3-8
			c0-0.1,0.3-0.6,0.3-0.6c-0.1-3.7-0.4-8.8,1-12.5c0.1-1.8,1.1-3.1,1.3-4.8c0.9-1.1,0.8-2.6,2.1-3.5c0.1-0.7,0.1-1.5,0.6-2.2
			c0.1-0.2,0.7-0.4,0.6-0.6c0-0.1-0.1-0.2-0.2-0.3c-0.1-0.2,0.6-0.5,0.8-0.9c0.5-0.8,0.6-1.7,1.3-2.6c0.7-1.1,1.7-2.2,2.3-3.6
			c1.8-2.1,3.4-4.2,5.2-6.3c1.2-0.9,1.7-2,3.1-2.8c-0.1-0.1-0.1-0.1-0.1-0.2c-0.1-0.2,0.1-0.3,0.3-0.3l0.4-0.1
			c0.5-0.2,0.4-0.6,0.8-0.9c0.9-0.7,1.8-1,3.3-1.8c0.4-0.2,0.7-0.5,1-0.6c1.2-0.4,2.7-0.1,3.9-0.3c2,0.7,2.2,3,3.4,3.4l0.4,1.2
			c0.6,1.6,0.9,3,1.1,4.3c-0.5,1.4-0.8,2.9-1.2,4.3c0.1,0.9-0.6,1.4-0.6,2.2c-0.8,3.6-2.2,4.5-2.1,4.9c0,0.3-0.1,0.5-0.4,0.7h-0.1
			c0,1-0.9,2.1-2.1,2.5c-0.5,0.2-1.3,0.4-1.6-0.2c-0.5-1.5,0.6-2.2,1.4-3.1c0.5-2.1,1.6-4,2.6-5.9c-0.4-1.3,1-1.8,0.5-3.2
			c0.7-0.8,0.5-2,1.1-2.9c-0.1-0.8-0.3-1.7-0.6-2.5c-1.4-3.9-3.6-2.3-5.8-2.8c-0.8,0.6-1.9,1-2.7,1.5c-0.7,0.3-0.7,1.1-1.1,1.6
			c-0.3,0-0.4,0-0.6,0.1c-0.8,0.3-0.8,0.9-1.6,1.2c-0.5,0.4-0.2,0.9-0.9,1.2c-0.1,0-0.2,0.1-0.3,0.1c-0.6,1.2-1.2,2.3-2.1,3.3
			c-0.2,0.4-1.2,0.5-1,1.2c-1.3,1.4-2.1,3.3-3.3,4.8c-0.7,0.7-0.4,1.7-1.4,2.2c-0.7,2.2-2.2,4-3,6.1c-0.9,1.7-1.6,4.3-2.2,6
			c0.2,0.6,0.2,1-0.3,1.2l-0.2,0.1c0,0.4,0.3,1-0.2,1.2c-0.8,0.3,0.2,4.4-0.6,4.9c0.7,0.7-0.5,1.3-0.2,1.9c0.4,1,0.4,1.9,0,2.8
			c0.5,2.1,0.9,4,1.1,6c2.2,3.7,3.7,5,8.2,6.1c0.9-0.3,1.8-0.5,2.4-0.3c2.9-1.6,6.5-2.8,9.1-4.4c0.3-0.5,1-1.1,1.6-1.3
			c0.3-0.1,0.5-0.1,0.7-0.1c0.4-1.2,1.6-0.5,2.4-2.3c1-0.7,2-1.2,2.9-1.9c1.7-1.9,3.7-3.7,5.7-5.4c1.7-2.3,3.9-5,5.2-7.3
			C42.9,119.8,43.4,117.7,44.1,115.6z"/>
		<path class="st1" d="M64,83.6L64,83.6c-0.1-0.3,0.7-0.5,1-0.6c2-0.7,3.7-0.9,5.6-1.5c1.3,0.6,2.5,1.2,3.7,2
			c0.7,0.4,1.3,1.1,2.1,1.1l0.1,0.3c0.4,1,1.1,1.2,1.7,1.6l0.1,0.2c0.4,1,1.1,1.1,1.7,1.6c0.5,0.9,0.8,1.7,1.1,2.5
			c1,2.6,1.1,5.1,1.3,7.6c-0.3,0.9-0.5,1.7-0.8,2.5s-1,1.5-0.8,2.5c-0.8,0.4-0.7,1.3-1.3,1.8c-0.7,0.4-0.3,1.3-1.2,1.6
			c-0.1,0-0.3,0.1-0.4,0.1c-0.3,0.2,0.2,0.8-0.2,0.9l-0.2,0.1c-0.1,0-0.5,0.5-0.4,0.5c0.1,0.4-1.3,2.3-1,1.9
			c-0.4,0.6-1.3,1.1-1.4,2.2c-1.7,1.1-2.4,2.5-3.6,3.8c-0.7,1.4-2.7,2.2-3,3.8c-0.1,0.1-0.2,0.1-0.2,0.1c-0.3,0.1-0.5,0.1-0.7,0.2
			c-0.5,0.2-0.4,0.6-0.6,0.8c-1.2,1-2.3,2.1-4.1,3.2c-0.4,0.8-1.4,1.3-2.6,1.7l-0.6,0.2c-0.5,0.9-1.9,1.4-3.2,2
			c-1.7,0.6-3,0.1-4.7,0.6c-1.1-0.4-2.2-1-3.3-1.5l-0.1-0.3c-0.2-0.7-0.7-0.8-1-1.2c-0.9-2.9-1.4-5.7-1.4-7.8c0-0.2,0.5-0.2,0.4-0.5
			l-0.1-0.3c-0.1-0.2,0.2-0.9,0.2-1.1c-0.1-0.2-0.2-0.3-0.2-0.4c-0.2-0.6,0.7-2.1,0.2-3.4l-0.1-0.2c1-1.8,0.9-4,1.7-5.9
			c0.5-0.5,0.6-1.1,0.4-1.8c0.6-0.5,0.8-1.1,0.7-1.9c0.6-0.4,1-0.9,1.1-1.5c0.6-2.9,2.6-4.7,2.7-4.8c0.3-0.5,0.5-1.4,0.9-2
			c0.1-0.2,0.5-0.3,0.7-0.5c1.3-2,3-3.7,5.7-5.1c0.5-0.5,0.1-1,0.3-1.5C60.8,85.7,62.4,84.4,64,83.6z M66,86.1
			c-0.4,0.6-0.7,1.2-1.3,1.6c-2,0.9-2.5,2.3-4.7,3.1c-0.4,1.1-2.2,3-2.9,3.2l-0.3,0.1c-0.3,0.1,0,0.5-0.2,0.6
			c-0.7,1-1.2,1.9-2.4,2.5c0.3,1.3-1.2,1.6-0.9,2.9c-1.2,0.6-0.7,2-1.8,2.6c0.1,1.2-0.6,2-1.1,2.9c-0.3,1-0.2,2.2-1.2,3
			c0.2,1.3-0.1,2.4-0.7,3.3l0.1,0.2c0.6,1.5-0.5,4.3-0.6,4.6c0,0.5,0.4,1.3-0.2,1.7l0.1,0.4c0.3,0.7,0.1,1.2,0.3,1.8
			c0,0.1,0.1,0.2,0.2,0.3c-0.3,0.6-0.4,1.1-0.1,1.9c0.6,1.5,1.5,2,2.2,3.1l0.2-0.1c0.4-0.1,0.5,0.2,0.7,0.3c0.5,0.1,0.8-0.2,1.3-0.2
			c0.9,0.1,1.7,0.2,2.9-0.2c2.9-1.1,5.9-3.2,8.4-5.3c1.3-1,2.4-2.4,4-3.4c0.3-1.1,1.2-1.9,2.1-2.7c0.8-0.8,1.2-2,2.6-2.6
			c0-0.7,0.7-1.2,1-1.8c1.2-1.8,2.1-3.6,3.6-5.2c0.2-0.9,0.8-1.8,1.6-2.5c0.3-0.6,0.1-1.6,0.6-2.1c0.4-0.2,0.4-0.5,0.2-0.9l-0.1-0.3
			c0.1,0,0.1,0,0.2,0c0.7-0.3,0.2-4.1,0.2-5.7c-1.7-3.6-3.9-5.5-6.1-7.5c-1.2,0.4-0.2,0.9-2.4,1.7c-0.4,0.1,0.3,0.8-0.1,1
			c-0.3,0.1-0.4-0.1-0.5-0.3c-0.4-1,0.8-1.8,0.1-3.7c-0.7-0.2-1.5,0-2.4,0.3C67.9,85.2,66.9,85.7,66,86.1z"/>
		<path class="st1" d="M129.6,53.5c1.9-0.7,2.1,1.1,2.8,0.9c0.2,0.4,0.3,0.8,0.5,1.1c0.8,2.3,0.7,4.1,1.5,6.4c0,0.1-0.5,3.8-0.4,3.8
			c-0.8,0.3,0.4,1.5-0.4,1.8c-0.1,0.6,0.1,1.3,0.1,1.9c-0.6,0.9-0.6,2.2-1,3.1l0.1,0.2c0.3,0.7-0.8,0.9-0.5,1.5
			c0.2,0.6-0.2,0.9,0,1.6c-1.1,0.5-0.6,1.8-1.6,2.3c0,1.2-0.9,3-1.5,4c-0.6,2.2-3.5,5.8-3.5,7c-0.9,0.7-0.6,1.8-1.4,2.4
			c-0.2,1-1.1,1.6-1.2,2.6c-0.4,0.2-1.1,2.3-1,2.5v0.1c-0.1,0-0.2,0-0.3,0c-0.7,0.3-0.6,1.6-1.2,1.9c-0.6,0.2-0.9,1.5-1.4,2.2
			c-2.1,1.4-2.8,3.5-5.7,4.6c-1.7,0.6-2.2-0.4-3.3-0.8l-0.1-0.4c-0.2-0.6-0.7-1-0.9-1.6c-0.9-2.4-0.9-4.4-1.5-6.7
			c0.3-1.2,0.2-2.6-0.5-4.3c0.4-0.7-0.2-1.9,0.1-2.8c-0.1-0.9,0.1-1.7,0.2-2.5c-0.1,0-0.2,0-0.3,0c-0.7,0.3-2.3,4.3-3,6.7
			c-0.6,0.9-0.9,1.7-1.5,2.8c-0.7,1.2-0.5,1.2-0.7,1.9c-0.2,0.6-1.1,2.1-1.1,2.1c-0.2,2.3-1.9,5-2.4,8c-1.5,2-1,4.6-2.4,5.3
			c-0.3,0.3-0.6,0.8-1.1,0.9c-0.6,0.2-0.8-0.3-1-0.7c-0.5-1.5,0.2-3.2,0.7-4.4h0.1c0.6-0.2-0.2-1,0.3-1.2c-0.1-0.4,1.1-1.6,0.9-2.1
			c0,0-0.1-0.2-0.2-0.3v-0.1c0.9-1.5,1.4-4,2.2-5.8c0.2-0.9,0.8-1.5,1.1-2.3c0.2-0.8,0.5-1.5,0.8-2.3c0-0.9,0.8-1.5,0.8-2.5
			c0.7-1.1,0.9-2.4,1.5-3.6c0.2-0.6,0.8-0.9,1.1-1.5c1.2-2.6,3.2-9.8,5-10.7c0.7,0.1,1.6,0.7,1.9,1.5c0.2,0.5,0.1,1-0.2,1.5
			c0.5,1.6,0,2.8,0.1,4.1c-0.3,1.3-0.2,2.7-0.2,4s-0.2,2.6,0.3,3.9c0.1,0.2,0.2,0.4,0.3,0.5c0.2,0.5-0.8,0.3-0.6,0.8
			c0.9,2.8,0.4,5.5,1.4,8.2c0.3,0.9,0.6,2.1,2.1,1.6c1-0.4,1.8-2,2.1-2.1c0.5-0.2,1.3-1.7,1.9-2.4c0.3-0.3,0.8-0.6,1-1
			c0.3-0.3,0.5-1.4,1.5-2.1c0.4-0.4,0.3-1.8,0.8-2c0.1,0,0.3,0,0.3-0.1c0.4-0.1,3.4-6.3,3.7-6.8c1.6-3.4,3.6-7.1,5.2-10.5
			c1.1-2.5,1.2-5.4,2.4-7.8c-0.1-2.6,0.2-4.5,0.2-6.4c0-0.2,0.3-0.5,0.3-0.6c0-0.6-0.7-1.5-0.2-2.2l-0.2-0.5c-0.2-0.5-0.4-1-0.6-1.5
			c-0.2-0.6-0.3-1.1-0.2-1.5C130.6,54.4,129.9,54.4,129.6,53.5z"/>
		<path class="st1" d="M179.5,42.7c-0.2,1.3-1.5,1.5-2.5,2c-2.2,1.1-5.6,2.1-8.2,3.3c-1.5,0.7-2.9,1.7-4.4,2.4
			c-0.8,0.4-1.6,0.7-2.3,1.1c-1.1,0.6-2.1,0.9-3.6,1.6c-0.2,0.1-0.5,0.1-0.7,0.3c-0.2,0.1-1.4,0.5-2.1,1c-0.8,0.6-3.2,1.7-4.6,2.5
			c-2.6,1.4-5.2,2.7-7.6,4.2c-0.2,0.1-0.5,0.1-0.7,0.3c-0.4,0.3-1.6,1-2.5,1.5c-1.7,1-3.8,2.5-5.9,3.5c-0.7,0.6-1.1,1.4-1.7,2
			c-0.4,0.6-0.8,1.9-1.9,1.5c-1.1-0.6,0-1.5,0-2.2c0.2-0.8,0.5-1.6,0.8-2.3c0.3-0.1,0.4-0.2,0.4-0.4c1.5-0.8,2.8-1.7,4.3-2.6
			c2.7-1.7,5.7-3.5,8.9-5.1c1.5-0.8,3.1-1.5,4.7-2.3c2.3-1.2,4.5-2.8,6.9-3.9c1.3-0.6,2.6-1,3.8-1.7c1.2-0.6,2.5-1.3,3.8-1.7
			c3.3-2.2,8.8-4.2,12.9-5.5C177.9,42.4,179.2,41.5,179.5,42.7z M155.9,59.9c1.7,1.6,0.6,3.6,0.1,4.9c-0.2,0.8-0.6,1.5-0.8,2.3
			c0.1,0.5-0.8,0.5-0.7,1.1c0.4,0.6-0.3,0.7-0.1,1.1c-0.8,0.9-1,2-1.7,2.9c-0.2,0.7-0.3,1.3-0.4,2c-1.2,0.9-1.2,2.3-1.8,3.4
			c-0.5,1.2-1.1,2.4-1.5,3.6c-0.8,1.8-1.6,3.6-1.8,5.7c-0.3,0.5,0.1,1.3-0.8,1.7c0.5,0.9,0.1,1.5,0.7,2.5c-0.7,0.7-1.2,2.4-2.8,2.1
			c-1.3-1.2-0.4-2.8-0.4-4c0.1-1,0.4-2,0.6-3c0.2-0.5,0.5-0.9,0.6-1.3s0-1.1,0.1-1.4c0.1-0.5,0.5-0.9,0.6-1.4c0.4-1,1-2.5,1-3.9
			c1.1-1,1.5-2.5,2-3.8c0.6-1.3,1.1-2.6,1.6-3.9c1.5-2.4,2.8-4.9,3.2-7.8c0.4-0.6,1-1,1-1.8c0-0.3,0.5-0.3,0.3-0.6L155.9,59.9z"/>
		<path class="st1" d="M196.5,77.3c-0.3-0.2-0.5-0.5-0.7-0.9c-0.3-0.8-0.3-1.7-0.2-2.3l-1.3-3.7c-1-1.4-2.4-2-3.3-3.7
			c-1.6-1.3-4.1-1.8-4.9-2.9c-0.5-0.3-1.3,0.1-1.7-0.8c-0.1,0.1-0.2,0.1-0.3,0.2c-0.7,0.3-1.1-0.2-1.8,0c-1.3,0.6-1.2,1.9-1.7,2.9
			c-0.6,0.8-0.9,1.8-1.1,2.9c-1,1.1-1.8,2.4-1.9,4c1,1.9,2.4,3,3.9,3.8c0.5,0.5,2-0.6,2.4,0.5c0.1,0.2-0.3,1-0.4,1.1
			c-0.9,0.3-1.9-0.3-2.8,0c-0.1,0-0.1,0.1-0.2,0.1c-0.5-0.5-1.2-0.7-1.9-0.7c-0.8-0.9-1.8-1.4-2.5-2.4c-1.4,0.5-0.9,1.8-1.8,2.6
			c-0.1,0.3-0.4,1.5-0.6,1.6c-0.1,0-0.3,0-0.4,0.1c-0.3,0.1,0,0.7-0.2,1.2c-0.4,0.8-1.4,2.8-1.8,2.9c-0.3,0.1-0.6,0.2-0.8,0.2
			c-0.4,0.1-0.1,0.3-0.4,0.4c-0.8,0.3-1.5-0.7-1.5-0.9c-0.4-1.1,0-1.8,0.5-2.5c0.7-0.5,0.4-2.1,1.3-2.4c0.4-1.9,2.2-3,2.3-5
			c1-0.8,1.3-2,2-2.9c-0.1-0.1-0.2-0.3-0.2-0.4c-0.5-1.3,0.4-2-0.1-3.3c1.1-0.4,1-2.6,1.8-3.4c1.3-0.8,2.1-1.8,3.8-2.5
			c0.7-2.3,2.6-4,3.5-6.3c1.3-2,2.5-4.1,3.9-6.1c0.3-1.5,1.6-2.5,1.9-4c1.8-1.3,2.1-3.3,4.5-4.2c0.2-0.1,0.4-0.1,0.6-0.2
			c0.7-0.3,0.7-1.6,1.3-1.8c0.1,0,0.3,0,0.5,0.1l0.2-0.1c0.8-0.3,1.8,1.5,1.8,1.5c0.7,2-0.2,4.1,0.5,6.1l0.1,0.3
			c-0.5,3.2,0,6.9-0.8,9.9l0.5,1.5c-0.8,1-0.4,3.3-0.5,5.4c-0.1,2.1-0.5,5.4,0.2,7.4c0.4,1,0.3,1.9,0.5,2.4c0.1,0.4,0.4,0.8,0.6,1.2
			c0.1,0.4,0.1,0.7,0,0.9c0.1,0.1,0.1,0.2,0.1,0.2c0.1,0.2-0.1,0.3-0.3,0.4s-0.4,0.1-0.5,0.1c-0.4,0.1-0.7,0.9-1.5,1.2
			C196.8,77.3,196.7,77.3,196.5,77.3z M193.4,45.6c0.1,1.1-0.9,1.7-1.4,2.4c-0.6,0.8-1,1.6-1.7,2.2c-0.6,0.6-0.3,1.9-1.5,2.3
			l-0.3,0.1c-0.1,1.3-1.4,2-1.6,3.1c-0.9,0.7-1,1.7-1.9,2.3l0.1,0.2c0.2,0.7-1.7,1.5-1.2,2.7c2.3,0.1,4,1.9,6.4,2.3
			c0.5,0.8,1.5,0.8,2.1,1.5c0.7,0.8,2,2.5,2.8,2.3c-0.1-0.1-0.1-0.2-0.2-0.3c-0.4-1,0.5-1.5,0.3-2.4c-0.2-1.5,0.3-2.7-0.2-4.4
			c0.5-0.6,0.1-1.7,0.5-2.4c-0.4-1.4-0.4-2.6,0.1-3.6c-0.5-1.3-0.2-2.3-0.1-3.3c-0.2-1.2,0.4-2.5,0-3.5c-0.2-0.5,0.1-1.1,0.1-1.5
			c-0.1-0.6-0.5-1.3-0.1-1.9c-0.1-0.1-0.1-0.2-0.3-0.2h-0.1C195.1,44.6,194.1,44.9,193.4,45.6z"/>
		<path class="st1" d="M255.3,38.7c0.1,0.3,1.3,2.4,0.6,4.8c-0.8,3-3.3,6.8-3.5,7v0.1c0.1,0.5-1,0.2-0.9,0.7
			c0.2,0.5-3.4,2.7-3.6,3.3c0.1,0.9-1.4,1-1.3,1.8c-2.2,0.8-1.8,2-3.5,2.6c-0.9,0.5-1.3,1.4-2.3,1.7c-0.8,0.3-0.4,1.1-1,1.5
			c-3.4,1.9-6.5,4.9-11.8,6.8c-1.9,0.7-4.2,1.2-6.4,1.5c-0.9-0.4-1.7-0.6-2.7-0.7c-2.1-1.1-3.9-2.7-5.4-4.9c-1-2.9-2.1-5.2-2.3-8
			c0-0.1,0.3-0.6,0.3-0.6c-0.1-3.7-0.4-8.8,1-12.5c0.1-1.8,1.1-3.1,1.3-4.8c0.9-1.1,0.8-2.6,2.1-3.5c0.1-0.7,0.1-1.5,0.6-2.2
			c0.1-0.2,0.7-0.4,0.6-0.6c0-0.1-0.1-0.2-0.2-0.3c-0.1-0.2,0.6-0.5,0.8-0.9c0.5-0.8,0.6-1.7,1.3-2.6c0.7-1.1,1.7-2.2,2.3-3.6
			c1.8-2.1,3.4-4.2,5.2-6.3c1.2-0.9,1.7-2,3.1-2.8c-0.1-0.1-0.1-0.1-0.1-0.2c-0.1-0.2,0.1-0.3,0.3-0.3l0.4-0.1
			c0.5-0.2,0.4-0.6,0.8-0.9c0.9-0.7,1.8-1,3.3-1.8c0.4-0.2,0.7-0.5,1-0.6c1.2-0.4,2.7-0.1,3.9-0.3c2,0.7,2.2,3,3.4,3.4l0.4,1.2
			c0.6,1.6,0.9,3,1.1,4.3c-0.5,1.4-0.8,2.9-1.2,4.3c0.1,0.9-0.6,1.4-0.6,2.2c-0.8,3.6-2.2,4.5-2.1,4.9c0,0.3-0.1,0.5-0.4,0.7h-0.1
			c0,1-0.9,2.1-2.1,2.5c-0.5,0.2-1.3,0.4-1.6-0.2c-0.5-1.5,0.6-2.2,1.4-3.1c0.5-2.1,1.6-4,2.6-5.9c-0.4-1.3,1-1.8,0.5-3.2
			c0.7-0.8,0.5-2,1.1-2.9c-0.1-0.8-0.3-1.7-0.6-2.5c-1.4-3.9-3.6-2.3-5.7-2.8c-0.8,0.6-1.9,1-2.7,1.5c-0.7,0.3-0.7,1.1-1.1,1.6
			c-0.3,0-0.4,0-0.6,0.1c-0.8,0.3-0.8,0.9-1.6,1.2c-0.5,0.4-0.2,0.9-0.9,1.2c-0.1,0-0.2,0.1-0.3,0.1c-0.6,1.2-1.2,2.3-2.1,3.3
			c-0.2,0.4-1.2,0.5-1,1.2c-1.3,1.4-2.1,3.3-3.3,4.8c-0.7,0.7-0.4,1.7-1.4,2.2c-0.7,2.2-2.2,4-3,6.1c-0.9,1.7-1.6,4.3-2.2,6
			c0.2,0.6,0.2,1-0.3,1.2l-0.2,0.1c0,0.4,0.3,1-0.2,1.2c-0.8,0.3,0.2,4.3-0.6,4.9c0.7,0.7-0.5,1.3-0.2,1.9c0.3,1,0.4,1.9,0,2.8
			c0.5,2.1,0.9,4,1.1,6c2.2,3.7,3.7,5,8.2,6.1c0.9-0.3,1.8-0.5,2.4-0.3c2.9-1.6,6.5-2.8,9.1-4.4c0.3-0.5,1-1.1,1.6-1.3
			c0.3-0.1,0.5-0.1,0.7-0.1c0.4-1.2,1.6-0.5,2.4-2.3c1-0.7,2-1.2,2.9-1.9c1.7-1.9,3.7-3.7,5.7-5.4c1.7-2.3,3.9-5,5.2-7.3
			C254.1,42.9,254.7,40.8,255.3,38.7z"/>
		<path class="st1" d="M295.3,0.6c-0.2,1.3-1.5,1.5-2.5,2c-2.2,1.1-5.6,2.1-8.2,3.3c-1.5,0.7-2.9,1.7-4.4,2.4
			c-0.8,0.4-1.6,0.7-2.3,1.1c-1.1,0.6-2.1,0.9-3.6,1.6c-0.2,0.1-0.5,0.1-0.7,0.3s-1.4,0.5-2.1,1c-0.8,0.6-3.2,1.7-4.6,2.5
			c-2.6,1.4-5.2,2.7-7.6,4.2c-0.2,0.1-0.5,0.1-0.7,0.3c-0.4,0.3-1.6,1-2.5,1.5c-1.7,1-3.8,2.5-5.9,3.5c-0.7,0.6-1.1,1.4-1.7,2
			c-0.4,0.6-0.8,1.9-1.9,1.5c-1.1-0.6,0-1.5,0-2.2c0.2-0.8,0.5-1.6,0.8-2.3c0.3-0.1,0.4-0.2,0.4-0.4c1.5-0.8,2.8-1.7,4.3-2.6
			c2.7-1.7,5.7-3.5,8.9-5.1c1.5-0.8,3.1-1.5,4.7-2.3c2.3-1.2,4.5-2.8,6.9-3.9c1.3-0.6,2.6-1,3.8-1.7c1.2-0.6,2.5-1.3,3.8-1.7
			c3.3-2.2,8.8-4.2,12.9-5.5C293.7,0.3,295-0.6,295.3,0.6z M271.7,17.7c1.7,1.6,0.6,3.6,0.1,4.9c-0.2,0.8-0.6,1.5-0.8,2.3
			c0.1,0.5-0.8,0.5-0.7,1.1c0.4,0.6-0.3,0.7-0.1,1.1c-0.8,0.9-1,2-1.7,2.9c-0.2,0.7-0.3,1.3-0.4,2c-1.2,0.9-1.2,2.3-1.8,3.4
			c-0.5,1.2-1.1,2.4-1.5,3.6c-0.8,1.8-1.6,3.6-1.8,5.7c-0.3,0.5,0.1,1.3-0.8,1.7c0.5,0.9,0.1,1.5,0.7,2.5c-0.7,0.7-1.2,2.4-2.8,2.1
			c-1.3-1.2-0.4-2.8-0.4-4c0.1-1,0.4-2,0.6-3c0.2-0.5,0.5-0.9,0.6-1.3c0.1-0.4,0-1.1,0.1-1.4c0.1-0.5,0.5-0.9,0.6-1.4
			c0.4-1,1-2.5,1-3.9c1.1-1,1.5-2.5,2-3.8c0.6-1.3,1.1-2.6,1.6-3.9c1.5-2.4,2.8-4.9,3.2-7.8c0.4-0.6,1-1,1-1.8
			c0-0.3,0.5-0.3,0.3-0.6L271.7,17.7z"/>
	</g>
</g>
</svg>
