<?xml version="1.0" encoding="utf-8"?>
<!-- Generator: Adobe Illustrator 25.4.1, SVG Export Plug-In . SVG Version: 6.00 Build 0)  -->
<svg version="1.1" id="レイヤー_1" xmlns="http://www.w3.org/2000/svg" xmlns:xlink="http://www.w3.org/1999/xlink" x="0px"
	 y="0px" viewBox="0 0 186.6 154" style="enable-background:new 0 0 186.6 154;" xml:space="preserve">
<style type="text/css">
	.st0{fill:#54A762;}
	.st1{enable-background:new    ;}
</style>
<g id="グループ_1678" transform="translate(10.614 24.529)">
	<g id="グループ_1676" transform="translate(10.543 13.736)">
		<path id="パス_2271" class="st0" d="M12,9.9c-1,0-1.9,0.6-2.3,1.5c-0.3,0.6-0.3,1.3-0.1,1.9c0.2,0.6,0.7,1.1,1.3,1.4
			c0.3,0.2,0.7,0.2,1,0.2c1.4,0,2.5-1.1,2.6-2.5C14.6,11.1,13.5,9.9,12,9.9C12,9.9,12,9.9,12,9.9L12,9.9z"/>
		<path id="パス_2272" class="st0" d="M23.6,6.8c-0.2-3-2.1-5.7-4.9-6.8c-0.5,0.6-1,1.3-1.6,1.9c2.3,0.7,4,2.7,4.2,5
			c0,1.7-0.4,3.3-1.3,4.7c-1.9,3.5-7,6.9-12.9,6.9c-1.4,0-2.8-0.2-4.1-0.6c-0.3-0.1-0.5-0.2-0.8-0.3c0,0-0.1,0.1-0.1,0.1
			c-0.4,0.4-0.9,0.6-1.4,0.6L0,19.4c0.7,0.3,1.5,0.6,2.3,0.8C3.8,20.7,5.5,21,7.1,21l0,0c3.2,0,6.3-0.9,9-2.4
			c2.4-1.3,4.5-3.3,5.9-5.7C23.1,11,23.7,8.9,23.6,6.8L23.6,6.8z"/>
	</g>
	<path id="パス_2273" class="st0" d="M9.1,18.3c-0.3-0.2-0.7-0.2-1.1-0.2c-1,0-1.9,0.6-2.3,1.4c-0.6,1.3,0,2.8,1.2,3.4
		C7.3,23,7.7,23.1,8,23.1c1.4,0,2.5-1.1,2.5-2.5C10.6,19.6,10,18.7,9.1,18.3z"/>
	<g id="グループ_1677" transform="translate(0)">
		<path id="パス_2274" class="st0" d="M15.6,11.1c0.3-1.2,0-2.4-0.7-3.4c-0.7-0.9-1.8-1.4-3-1.3c-2.5,0.1-4.6,1.8-5.2,4.2
			c-0.3,1.2,0,2.4,0.7,3.4c0.7,0.9,1.8,1.4,3,1.3c1.2,0,2.4-0.5,3.4-1.3C14.7,13.2,15.3,12.2,15.6,11.1L15.6,11.1z M12.5,12.5
			c-0.6,0.5-1.3,0.8-2.1,0.8c-0.6,0-1.1-0.2-1.5-0.6c-0.4-0.5-0.5-1.1-0.3-1.7c0.2-0.7,0.6-1.4,1.2-1.8c0.6-0.5,1.3-0.8,2.1-0.8
			c0.6,0,1.1,0.2,1.5,0.6c0.4,0.5,0.5,1.1,0.3,1.7C13.5,11.4,13.1,12,12.5,12.5L12.5,12.5z"/>
		<path id="パス_2275" class="st0" d="M4.4,28.7l1.9-1.4l0,0c-2.4-2.6-3.7-5.9-3.9-9.4c-0.1-2.8,0.5-5.6,1.8-8
			c1.7-3.1,4.4-5.6,7.7-6.9c0.9-0.4,1.8-0.6,2.7-0.6c0.7,0,1.5,0.1,2.2,0.4c1.6,0.7,2.8,1.9,3.4,3.5c0.5,1.3,0.4,2.7-0.2,4
			c-0.3,0.7-0.5,1.6-0.5,2.4c0,0.3,0.1,0.7,0.2,1c0.8-0.7,1.5-1.4,2.3-2.1c0-0.1,0.1-0.2,0.1-0.3c0.9-1.8,1-4,0.3-5.9
			c-0.8-2.2-2.5-3.9-4.7-4.9c-1-0.4-2-0.6-3.1-0.6c-1.2,0-2.5,0.3-3.6,0.8C7.2,2.3,4,5.2,2.1,8.8l0,0c-1.5,2.8-2.2,6-2.1,9.2
			c0.2,3.6,1.5,7.1,3.8,10C4,28.2,4.2,28.5,4.4,28.7L4.4,28.7z"/>
	</g>
	<path id="パス_2276" class="st0" d="M4.8,36.3c0.1,0,0.1,0.1,0.1,0.1s0.1,0.1,0.1,0.1l0,0c0.2,0.3,0.6,0.5,0.9,0.6
		c0,0,0.1,0,0.1,0c0.2,0,0.4-0.2,0.6-0.5l4.3-5.6c0.3,0.1,0.7,0,1-0.3c0.2-0.2,0.3-0.6,0.3-0.9c0.6,0.1,1.1-0.3,1.2-0.8
		c0-0.2,0-0.4-0.1-0.6c1.3-1,6.9-6.4,8.2-7.7c5.7-5.7,12.3-14,11.3-15.1S23.4,11.3,17.7,17c-1.3,1.3-6.7,6.9-7.7,8.2
		c-0.5-0.2-1.1,0-1.3,0.5c-0.1,0.2-0.1,0.4-0.1,0.6c-0.6-0.1-1.1,0.3-1.2,0.8c0,0.1,0,0.2,0,0.3l-5.6,4.4c-0.2,0.1-0.4,0.4-0.4,0.7
		c0,0.3,0.2,0.6,0.4,0.8 M5.9,35.5c0,0-0.1-0.1-0.1-0.1l-2.6-2.6c0,0-0.1-0.1-0.1-0.1l4.3-3.4l0.5,0.5l-1.2,1.5
		c-0.1,0.2-0.1,0.4,0.1,0.6c0.1,0.1,0.2,0.1,0.3,0.1c0.1,0,0.2,0,0.2-0.1l1.6-1.1l0.5,0.5L5.9,35.5z"/>
</g>
<g id="グループ_1680" transform="translate(87.581 0)">
	<g id="グループ_1679" transform="translate(0)">
		<path id="パス_2277" class="st0" d="M26.4,31.4c-0.2-0.1-0.4-0.3-0.5-0.5c-0.1-0.1-0.1-0.2-0.2-0.3H2.6V7.9H34v14.9
			c0.7,0.1,1.2,0.5,1.5,1.1c0.2-0.1,0.4-0.2,0.7-0.2c0.2,0,0.3,0,0.5,0V2.2c0-1.2-1-2.2-2.2-2.2H2.2C1,0,0,1,0,2.2V31
			c0,1.2,1,2.2,2.2,2.2h24C26,32.9,26,32.4,26.1,32C26.1,31.8,26.2,31.6,26.4,31.4L26.4,31.4z M31.5,3.7c0-0.4,0.4-0.8,0.8-0.8
			c0,0,0,0,0,0h0.8c0.4,0,0.8,0.4,0.8,0.8v0.9c0,0.5-0.4,0.8-0.8,0.8h-0.8c-0.4,0-0.8-0.4-0.8-0.8c0,0,0,0,0,0V3.7z M27.8,3.7
			c0-0.4,0.4-0.8,0.8-0.8c0,0,0,0,0,0h0.8c0.4,0,0.8,0.4,0.8,0.8c0,0,0,0,0,0v0.9c0,0.4-0.4,0.8-0.8,0.8c0,0,0,0,0,0h-0.8
			c-0.4,0-0.8-0.4-0.8-0.8c0,0,0,0,0,0V3.7z M24,3.7c0-0.4,0.4-0.8,0.8-0.8c0,0,0,0,0,0h0.8c0.4,0,0.8,0.4,0.8,0.8v0.9
			c0,0.5-0.4,0.8-0.8,0.8h-0.8c-0.4,0-0.8-0.4-0.8-0.8c0,0,0,0,0,0V3.7z"/>
		<path id="パス_2278" class="st0" d="M39.2,29.8l-0.2-1.4c0-0.2-0.2-0.3-0.4-0.3c0,0,0,0,0,0l-1.2,0.2c-0.1-0.3-0.3-0.7-0.6-1
			l0.8-1c0.1-0.1,0.1-0.4,0-0.5l-1.1-0.9C36.4,25,36.3,25,36.2,25c-0.1,0-0.2,0.1-0.2,0.1l-0.8,1c-0.3-0.2-0.7-0.3-1-0.4v-1.2
			c0-0.2-0.2-0.3-0.3-0.3h-1.4c-0.2,0-0.3,0.2-0.3,0.3l0,0v1.2c-0.4,0.1-0.7,0.2-1,0.4l-0.8-1c-0.1-0.1-0.3-0.2-0.5,0c0,0,0,0,0,0
			L28.6,26c-0.1,0.1-0.1,0.1-0.1,0.2c0,0.1,0,0.2,0.1,0.2l0.8,1c-0.2,0.3-0.4,0.6-0.6,1l-1.2-0.2c-0.2,0-0.4,0.1-0.4,0.3
			c0,0,0,0,0,0l-0.2,1.4c0,0.1,0,0.2,0.1,0.3c0.1,0.1,0.1,0.1,0.2,0.1l1.2,0.2c0,0.4,0.1,0.7,0.2,1.1l-1.1,0.6
			c-0.1,0-0.1,0.1-0.2,0.2c0,0.1,0,0.2,0,0.3l0.7,1.2c0,0.1,0.1,0.1,0.2,0.2c0,0,0.1,0,0.1,0c0.1,0,0.1,0,0.2-0.1l1.1-0.6
			c0.3,0.3,0.5,0.5,0.9,0.7l-0.4,1.2c0,0.1,0,0.2,0,0.3c0,0.1,0.1,0.1,0.2,0.2l1.3,0.5c0,0,0.1,0,0.1,0c0.1,0,0.1,0,0.2,0
			c0.1,0,0.1-0.1,0.2-0.2l0.4-1.2c0.2,0,0.4,0,0.6,0c0.2,0,0.4,0,0.6,0L34,36c0,0.1,0.1,0.2,0.2,0.2c0,0,0.1,0,0.1,0
			c0,0,0.1,0,0.1,0l1.3-0.5c0.1,0,0.2-0.1,0.2-0.2c0-0.1,0-0.2,0-0.3l-0.4-1.2c0.3-0.2,0.6-0.5,0.9-0.7l1.1,0.6
			c0.1,0.1,0.2,0.1,0.3,0c0.1,0,0.2-0.1,0.2-0.2l0.7-1.2c0-0.1,0.1-0.2,0-0.3c0-0.1-0.1-0.2-0.2-0.2l-1.1-0.6
			c0.1-0.4,0.2-0.7,0.2-1.1l1.2-0.2c0.1,0,0.2-0.1,0.2-0.1C39.2,30,39.2,29.9,39.2,29.8L39.2,29.8z M33,32c-1,0-1.9-0.8-1.9-1.9
			s0.8-1.9,1.9-1.9c1,0,1.9,0.8,1.9,1.9l0,0C34.9,31.2,34.1,32,33,32C33.1,32,33.1,32,33,32z"/>
	</g>
	<path id="パス_2279" class="st0" d="M15.4,20.5c0-0.4-0.3-0.8-0.7-1L11,17.7l3.7-1.7c0.4-0.2,0.7-0.6,0.7-1v0
		c0-0.6-0.5-1.1-1.1-1.1c0,0,0,0,0,0c-0.2,0-0.3,0-0.5,0.1l-5.9,2.7c-0.4,0.2-0.7,0.6-0.7,1v0.1c0,0.4,0.3,0.8,0.7,1l5.9,2.7
		c0.2,0.1,0.3,0.1,0.5,0.1c0.2,0,0.4-0.1,0.6-0.2C15.2,21.2,15.4,20.9,15.4,20.5L15.4,20.5z"/>
	<path id="パス_2280" class="st0" d="M21.2,11c-0.2-0.3-0.6-0.5-0.9-0.5h0c-0.5,0-0.9,0.3-1.1,0.8l-3.9,12
		c-0.2,0.6,0.1,1.2,0.8,1.4c0.1,0,0.2,0.1,0.3,0.1h0c0.5,0,0.9-0.3,1.1-0.8l3.9-12C21.5,11.7,21.4,11.3,21.2,11L21.2,11z"/>
	<path id="パス_2281" class="st0" d="M28.7,16.6l-5.9-2.7c-0.2-0.1-0.3-0.1-0.5-0.1c-0.6,0-1.1,0.5-1.1,1.1c0,0,0,0,0,0v0
		c0,0.4,0.3,0.8,0.7,1l3.7,1.7l-3.7,1.7c-0.4,0.2-0.7,0.6-0.7,1v0c0,0.6,0.5,1.1,1.1,1.1c0,0,0,0,0,0c0.2,0,0.3,0,0.5-0.1l5.9-2.7
		c0.4-0.2,0.7-0.6,0.7-1v-0.1C29.4,17.2,29.1,16.8,28.7,16.6L28.7,16.6z"/>
</g>
<g id="グループ_1681" transform="translate(0 89.524)">
	<path id="パス_2282" class="st0" d="M25.4,26.4H4.7V5.6h16.2L25.5,1H0v30.1h30.1V11.8l-4.7,4.7L25.4,26.4z"/>
	<path id="パス_2283" class="st0" d="M9.8,11.9l-3.3,3.3l7.9,7.9L34.2,3.3L30.9,0L14.4,16.5L9.8,11.9z"/>
</g>
<g id="グループ_1685" transform="translate(73.768 121.931)">
	<g id="グループ_1683" transform="translate(0 0)">
		<g id="グループ_1682" transform="translate(0)">
			<path id="パス_2284" class="st0" d="M3.2,16.9C3.4,17,3.7,17,4,16.9l6-2.6c0.4-0.2,0.6-0.5,0.6-0.9c0-0.4-0.3-0.8-0.6-0.9
				l-1.6-0.7c2.1-5,7.9-7.3,12.9-5.2c2.4,1,4.2,2.9,5.2,5.3c0.5,1.2,1.8,1.9,3.1,1.7l0.2,0c1.5-0.3,2.5-1.8,2.2-3.3
				c0-0.2-0.1-0.4-0.2-0.6c-3.3-8-12.5-11.8-20.5-8.4C7.5,2.8,4.5,5.8,2.9,9.7L1.4,9.1c-0.5-0.2-1.1,0-1.3,0.6
				C0,9.9,0,10.1,0.1,10.4l2.6,6C2.7,16.6,2.9,16.8,3.2,16.9L3.2,16.9z"/>
		</g>
		<path id="パス_2285" class="st0" d="M34.4,21.7l-2.6-6c-0.1-0.2-0.3-0.4-0.6-0.5c-0.2-0.1-0.5-0.1-0.8,0l-6,2.6
			C24,18,23.8,18.6,24,19.1c0.1,0.2,0.3,0.4,0.6,0.5l1.6,0.7c-2.1,5-7.9,7.3-12.9,5.2c-2.4-1-4.2-2.9-5.2-5.3
			C7.6,19,6.3,18.3,5,18.6l-0.2,0c-1.5,0.3-2.5,1.8-2.2,3.3c0,0.2,0.1,0.4,0.2,0.6c2.5,5.8,8.1,9.6,14.4,9.6c6.3,0,12-3.8,14.5-9.7
			l1.5,0.6c0.5,0.2,1.1,0,1.3-0.6C34.5,22.2,34.5,22,34.4,21.7L34.4,21.7z"/>
	</g>
	<g class="st1">
		<path class="st0" d="M10.8,10.4c-0.1-0.1-0.3-0.1-0.5-0.1c-0.4,0-0.6,0.3-0.6,0.5c0,0.3,0.2,0.5,0.6,0.6c0.5,0.2,0.7,0.5,0.7,0.9
			c0,0.5-0.4,0.9-1,0.9c-0.3,0-0.6-0.1-0.7-0.2l0.1-0.3c0.2,0.1,0.4,0.2,0.7,0.2c0.4,0,0.6-0.2,0.6-0.5c0-0.3-0.2-0.5-0.6-0.6
			c-0.5-0.2-0.8-0.4-0.8-0.9c0-0.5,0.4-0.8,0.9-0.8c0.3,0,0.5,0.1,0.6,0.1L10.8,10.4z"/>
		<path class="st0" d="M13.2,13.1h-1.6v-3h1.5v0.3h-1.2v1H13v0.3h-1.1v1.2h1.3V13.1z"/>
		<path class="st0" d="M16.1,11.5c0,1.1-0.6,1.6-1.3,1.6c-0.8,0-1.3-0.6-1.3-1.5c0-1,0.6-1.6,1.3-1.6C15.6,10,16.1,10.6,16.1,11.5z
			 M13.8,11.6c0,0.6,0.3,1.3,1,1.3c0.6,0,1-0.6,1-1.3c0-0.6-0.3-1.3-1-1.3C14.1,10.3,13.8,10.9,13.8,11.6z"/>
	</g>
</g>
<g id="グループ_1684" transform="translate(149.977 53.32)">
	<path id="パス_2286" class="st0" d="M33.7,0H3C1.3,0,0,1.3,0,2.9c0,0,0,0,0,0v20.8c0,1.6,1.3,3,3,3c0,0,0,0,0,0h8.3v2.8
		c0,0.6,0.5,1.1,1.1,1.1c0,0,0,0,0,0h12c0.6,0,1.1-0.5,1.1-1.1c0,0,0,0,0,0v-2.8h8.3c1.6,0,3-1.3,3-2.9c0,0,0,0,0,0V3
		C36.6,1.3,35.3,0,33.7,0C33.7,0,33.7,0,33.7,0L33.7,0z M32.6,22.6H4V4h28.6L32.6,22.6z"/>
	<path id="パス_2287" class="st0" d="M23.8,14.2l-8.5,4.9c-0.3,0.2-0.8,0.1-1-0.3c-0.1-0.1-0.1-0.2-0.1-0.4V8.6
		c0-0.4,0.3-0.7,0.7-0.7c0.1,0,0.2,0,0.4,0.1l8.5,4.9c0.3,0.2,0.5,0.7,0.3,1C24,14,23.9,14.1,23.8,14.2L23.8,14.2z"/>
</g>
<g id="グループ_1686" transform="translate(144.609 101.62)">
	<path id="パス_2288" class="st0" d="M31.7,20.4L29,17.8c-0.3-0.3-0.8-0.5-1.2-0.5c-0.4,0-0.8,0.2-1.1,0.5l-2.1,2.1l-8.3,8.3
		c-0.1,0.1-0.2,0.3-0.3,0.4l-1.4,4.9c0,0.1,0,0.2,0,0.3c0,0.5,0.4,0.9,0.9,0.9c0.1,0,0.2,0,0.3,0l4.9-1.4c0.1,0,0.3-0.1,0.4-0.2
		l8.4-8.4l2.1-2.1c0.3-0.3,0.4-0.6,0.5-1C32.1,21.2,31.9,20.7,31.7,20.4L31.7,20.4z M20,31.5L17,32.4l0.9-3.1l7.5-7.5l2.2,2.2
		L20,31.5z M28.9,22.7l-2.2-2.2l1.2-1.2l2.2,2.2L28.9,22.7z"/>
	<path id="パス_2289" class="st0" d="M18.8,16.3H4.2c-0.5,0-0.9,0.4-0.9,1c0,0.5,0.4,0.9,0.9,0.9h14.6c0.5,0,0.9-0.4,0.9-1
		C19.7,16.7,19.3,16.3,18.8,16.3z"/>
	<path id="パス_2290" class="st0" d="M19.8,21.5c0-0.5-0.4-0.9-0.9-0.9c0,0,0,0,0,0H4.2c-0.5,0-0.9,0.4-0.9,0.9c0,0,0,0,0,0
		c0,0.5,0.4,0.9,0.9,1c0,0,0,0,0,0h14.6C19.3,22.4,19.8,22,19.8,21.5C19.8,21.5,19.8,21.5,19.8,21.5z"/>
	<path id="パス_2291" class="st0" d="M11,24.7H4.2c-0.5,0-0.9,0.4-1,0.9c0,0.5,0.4,0.9,0.9,1c0,0,0,0,0.1,0H11
		c0.5,0,0.9-0.4,1-0.9C12,25.2,11.6,24.7,11,24.7C11,24.7,11,24.7,11,24.7z"/>
	<path id="パス_2292" class="st0" d="M11,28.9H4.2c-0.5,0-0.9,0.4-0.9,0.9c0,0.5,0.4,0.9,0.9,0.9H11c0.5,0,0.9-0.4,0.9-0.9
		C11.9,29.3,11.5,28.9,11,28.9z"/>
	<path id="パス_2293" class="st0" d="M1.9,32.6V2c0-0.1,0-0.2,0.2-0.2h7v10.1c0,1.1,0.9,2.1,2,2.1c0,0,0,0,0,0h10.1v5.7H23v-7.6h0
		L10.9,0l0,0H2.1C1.5,0,1,0.2,0.6,0.6C0.2,1,0,1.5,0,2v30.6c0,1.1,0.9,2,2,2c0,0,0,0,0.1,0h11.1v-1.9H2.1
		C1.9,32.8,1.9,32.8,1.9,32.6L1.9,32.6z M10.9,2.7l9.5,9.5H11c-0.1,0-0.2-0.1-0.2-0.2L10.9,2.7z"/>
</g>
<g id="グループ_1687" transform="translate(51.664 36.193)">
	<path id="パス_2294" class="st0" d="M28.5,28.5l-4.9-4.7c0.6-1.1,0.9-2.3,0.9-3.5c0-4-3.3-7.3-7.3-7.3c-4,0-7.3,3.3-7.3,7.3
		c0,4,3.3,7.3,7.3,7.3c1.4,0,2.7-0.4,3.9-1.1l4.9,4.7C26.7,30.2,27.6,29.3,28.5,28.5L28.5,28.5z"/>
	<path id="パス_2295" class="st0" d="M45.8,28.8l3-12.4c0.7,0,1.4-0.1,2-0.3c3.9-1.2,6.1-5.3,4.9-9.1c-1.2-3.9-5.3-6.1-9.1-4.9
		s-6.1,5.3-4.9,9.1c0.6,1.8,1.8,3.4,3.5,4.3l-3,12.4C43.5,28.1,44.7,28.4,45.8,28.8L45.8,28.8z"/>
	<path id="パス_2296" class="st0" d="M70.4,55.3c-2.7-1.4-6-0.9-8.3,1.2l-7.7-4.9c0,0.1,0,0.1-0.1,0.2c-0.5,1-1.2,2-1.9,2.9
		l7.7,4.9c-1.2,3.8,0.9,7.9,4.7,9.2s7.9-0.9,9.2-4.7C75.1,60.7,73.6,56.9,70.4,55.3z"/>
	<path id="パス_2297" class="st0" d="M41.3,66.9l0.3-9.1c-1.2,0.1-2.5,0-3.7-0.1l-0.3,9.1c-3.9,0.9-6.4,4.8-5.5,8.7
		c0.9,3.9,4.8,6.4,8.7,5.5c3.9-0.9,6.4-4.8,5.5-8.7C45.7,69.7,43.8,67.6,41.3,66.9z"/>
	<path id="パス_2298" class="st0" d="M24.7,46.6l-11.3,3.8C11.2,47,6.7,46,3.3,48.3C-0.1,50.5-1,55,1.2,58.4
		c2.2,3.4,6.7,4.3,10.1,2.1c2.1-1.4,3.3-3.7,3.3-6.1c0-0.2,0-0.3-0.1-0.5L25.9,50C25.4,48.9,25,47.8,24.7,46.6L24.7,46.6z"/>
	<path id="パス_2299" class="st0" d="M53.6,43c0,6.9-5.6,12.5-12.5,12.5S28.5,49.9,28.5,43c0-6.9,5.6-12.5,12.5-12.5c0,0,0,0,0,0
		C47.9,30.5,53.5,36.1,53.6,43C53.5,43,53.5,43,53.6,43L53.6,43z"/>
	<path id="パス_2300" class="st0" d="M67.2,25.8c-2.6,1.5-4,4.5-3.5,7.6l-8.3,3.8c0,0.1,0.1,0.1,0.1,0.2c0.6,1,1.1,2.1,1.4,3.2
		l8.3-3.8c2.5,3.1,7.1,3.6,10.3,1.1s3.6-7.1,1.1-10.3C74.2,24.7,70.3,24,67.2,25.8z"/>
</g>
</svg>
