<svg xmlns="http://www.w3.org/2000/svg" xmlns:xlink="http://www.w3.org/1999/xlink" width="350" height="350" viewBox="0 0 350 350">
  <defs>
    <filter id="楕円形_184" x="0" y="0" width="350" height="350" filterUnits="userSpaceOnUse">
      <feOffset dy="3" input="SourceAlpha"/>
      <feGaussianBlur stdDeviation="3" result="blur"/>
      <feFlood flood-opacity="0.161" result="color"/>
      <feComposite operator="out" in="SourceGraphic" in2="blur"/>
      <feComposite operator="in" in="color"/>
      <feComposite operator="in" in2="SourceGraphic"/>
    </filter>
  </defs>
  <g id="グループ_1826" data-name="グループ 1826" transform="translate(-300 -9207)">
    <g data-type="innerShadowGroup">
      <circle id="楕円形_184-2" data-name="楕円形 184" cx="175" cy="175" r="175" transform="translate(300 9207)" fill="#fff"/>
      <g transform="matrix(1, 0, 0, 1, 300, 9207)" filter="url(#楕円形_184)">
        <circle id="楕円形_184-3" data-name="楕円形 184" cx="175" cy="175" r="175" fill="#fff"/>
      </g>
    </g>
    <g id="グループ_1824" data-name="グループ 1824" transform="translate(-155.794 8890.699)">
      <g id="グループ_1819" data-name="グループ 1819" transform="translate(562.124 397.023)">
        <path id="パス_2957" data-name="パス 2957" d="M667.533,457.056V484.87c3.487-.954,9.081-1.364,12.711,6.349a187.13,187.13,0,0,1,9.562,24.539c1.163,4.3,4.848,23.267,5.044,24.072s.891,4.358.891,4.358l7.474,22.83-50.092,18.231-2.845-8.422h-81.4a7.1,7.1,0,0,1-7.082-7.082V403.775a7.1,7.1,0,0,1,7.082-7.082h91.575a7.1,7.1,0,0,1,7.082,7.082v53.281Z" transform="translate(-561.794 -396.693)" fill="#fff"/>
      </g>
      <g id="グループ_1820" data-name="グループ 1820" transform="translate(564.497 399.383)">
        <path id="パス_2958" data-name="パス 2958" d="M669.266,443.674V405.512c0-6.1-5.8-7.082-5.8-7.082H601.232l-27.7.007h-2.92c-2.921,0-7.075.147-7.075,7.075V571.743c0,5.193,3.783,6.821,8.2,6.821h78.93l-2.311-5.745s-5.493-2.022-8.973-3.676-7.325-6.29-7.325-6.29H569.332V409.962h94.131v36.6s-.08,35.741-.08,41.5c.745-2.438,6.335-5.7,6.335-5.7Z" transform="translate(-563.541 -398.43)" fill="#b4a28f"/>
        <path id="パス_2959" data-name="パス 2959" d="M597.452,441.721l-14.052-26.2,11.035-3.871Z" transform="translate(-556.416 -393.688)" fill="#b4a28f"/>
        <path id="パス_2960" data-name="パス 2960" d="M594.856,441.218l-22.131-11.457,5.8-7.906Z" transform="translate(-560.246 -390.026)" fill="#b4a28f"/>
        <path id="パス_2961" data-name="パス 2961" d="M598.638,439.705l.1-24.921,9.679,1.549Z" transform="translate(-550.95 -392.563)" fill="#b4a28f"/>
      </g>
      <g id="グループ_1823" data-name="グループ 1823" transform="translate(560.875 395.774)">
        <g id="グループ_1821" data-name="グループ 1821" transform="translate(43.177 56.953)">
          <path id="パス_2962" data-name="パス 2962" d="M620.41,523.591a1.246,1.246,0,0,1-1.173-.822l-25.193-69.215c-3.154-8.666-.481-14.108,3.337-15.5,4.026-1.465,9.678,1.382,12.692,9.661l13.743,37.759a1.249,1.249,0,0,1-2.347.855l-13.742-37.757c-2.454-6.74-6.639-9.21-9.491-8.17-2.688.978-4.412,5.243-1.845,12.3l25.193,69.217a1.25,1.25,0,0,1-.747,1.6A1.264,1.264,0,0,1,620.41,523.591Z" transform="translate(-592.652 -437.689)" fill="#3b3938"/>
          <path id="パス_2963" data-name="パス 2963" d="M615.054,479.11a1.25,1.25,0,0,1-1.15-1.735,11.522,11.522,0,0,1,6.617-6.317,11.353,11.353,0,0,1,8.014.056,11.534,11.534,0,0,1,6.061-5.18,11.36,11.36,0,0,1,8.014.057,11.445,11.445,0,0,1,15.23-4.614,1.249,1.249,0,0,1-1.124,2.231,8.953,8.953,0,0,0-12.362,4.492,1.249,1.249,0,0,1-1.713.63,8.953,8.953,0,0,0-12.362,4.493,1.248,1.248,0,0,1-1.712.63,8.955,8.955,0,0,0-12.363,4.492A1.246,1.246,0,0,1,615.054,479.11Z" transform="translate(-585.063 -429.646)" fill="#3b3938"/>
          <path id="パス_2964" data-name="パス 2964" d="M664.3,517.123a1.25,1.25,0,0,1-1.238-1.1c-1.959-15.767-8.457-39.016-15.938-50.628a1.249,1.249,0,1,1,2.1-1.353c7.964,12.361,14.351,35.85,16.319,51.674a1.249,1.249,0,0,1-1.086,1.393A1.228,1.228,0,0,1,664.3,517.123Z" transform="translate(-573.18 -428.439)" fill="#3b3938"/>
          <path id="パス_2965" data-name="パス 2965" d="M610.162,491.286a1.25,1.25,0,0,1-1.174-.823c-1.421-3.9-5.055-10.075-13.461-7.541a1.249,1.249,0,0,1-.72-2.393c7.461-2.247,13.642,1.147,16.529,9.081a1.25,1.25,0,0,1-.747,1.6A1.236,1.236,0,0,1,610.162,491.286Z" transform="translate(-592.198 -422.564)" fill="#3b3938"/>
          <path id="パス_2966" data-name="パス 2966" d="M668.2,529.807a1.249,1.249,0,0,1-1.155-.775c-.285-.69-6.987-17.012-7.631-23.772a1.249,1.249,0,1,1,2.487-.236c.609,6.39,7.385,22.891,7.454,23.057a1.251,1.251,0,0,1-1.155,1.726Z" transform="translate(-568.704 -413.938)" fill="#3b3938"/>
          <path id="パス_2967" data-name="パス 2967" d="M630.4,539.959a1.248,1.248,0,0,1-1.173-.821l-4.023-11.052a1.248,1.248,0,1,1,2.346-.853l4.023,11.051a1.249,1.249,0,0,1-.747,1.6A1.236,1.236,0,0,1,630.4,539.959Z" transform="translate(-581 -405.859)" fill="#3b3938"/>
          <path id="パス_2968" data-name="パス 2968" d="M636.223,541.016a1.232,1.232,0,0,1-.327-.043l-1.219-.327c-7.063-1.889-10.953-2.931-18.76-11.954-6.917-7.992-13.09-20.462-21.307-43.038a1.248,1.248,0,0,1,2.347-.853c8.106,22.267,14.145,34.51,20.849,42.256,7.306,8.443,10.506,9.3,17.517,11.176l1.226.329a1.249,1.249,0,0,1-.325,2.455Z" transform="translate(-591.977 -421.082)" fill="#3b3938"/>
        </g>
        <g id="グループ_1822" data-name="グループ 1822">
          <path id="パス_2969" data-name="パス 2969" d="M562.124,546.181a1.25,1.25,0,0,1-1.249-1.249V404.1a8.339,8.339,0,0,1,8.331-8.331h91.575a8.339,8.339,0,0,1,8.331,8.331v52.129a1.249,1.249,0,1,1-2.5,0V404.1a5.84,5.84,0,0,0-5.833-5.833H569.206a5.84,5.84,0,0,0-5.833,5.833V544.932A1.249,1.249,0,0,1,562.124,546.181Z" transform="translate(-560.875 -395.774)" fill="#3b3938"/>
          <path id="パス_2970" data-name="パス 2970" d="M588.189,538.048H569.206a8.339,8.339,0,0,1-8.331-8.331v-20.2a1.249,1.249,0,0,1,2.5,0v20.2a5.839,5.839,0,0,0,5.833,5.832h18.983a1.249,1.249,0,0,1,0,2.5Z" transform="translate(-560.875 -355.416)" fill="#3b3938"/>
          <path id="パス_2971" data-name="パス 2971" d="M636.157,530.844H585a1.249,1.249,0,1,1,0-2.5h51.159a1.249,1.249,0,1,1,0,2.5Z" transform="translate(-552.669 -348.212)" fill="#3b3938"/>
          <path id="パス_2972" data-name="パス 2972" d="M639.944,464.656a1.248,1.248,0,0,1-1.249-1.249v-19.2a1.249,1.249,0,1,1,2.5,0v19.2A1.249,1.249,0,0,1,639.944,464.656Z" transform="translate(-532.956 -378.846)" fill="#3b3938"/>
          <path id="パス_2973" data-name="パス 2973" d="M637.855,424.969a1.25,1.25,0,0,1-1.249-1.25V406.44h-7.015a1.249,1.249,0,1,1,0-2.5h8.264a1.249,1.249,0,0,1,1.249,1.25v18.528A1.249,1.249,0,0,1,637.855,424.969Z" transform="translate(-536.671 -392.844)" fill="#3b3938"/>
          <path id="パス_2974" data-name="パス 2974" d="M566.395,483.1a1.25,1.25,0,0,1-1.249-1.249V405.191a1.25,1.25,0,0,1,1.249-1.25h79.132a1.249,1.249,0,0,1,0,2.5H567.645v75.414A1.25,1.25,0,0,1,566.395,483.1Z" transform="translate(-559.343 -392.844)" fill="#3b3938"/>
          <path id="パス_2975" data-name="パス 2975" d="M577.936,537.595H566.395a1.25,1.25,0,0,1-1.249-1.249V466.987a1.249,1.249,0,0,1,2.5,0V535.1h10.291a1.249,1.249,0,0,1,0,2.5Z" transform="translate(-559.343 -370.673)" fill="#3b3938"/>
          <path id="パス_2976" data-name="パス 2976" d="M618.15,519.282H579.171a1.249,1.249,0,1,1,0-2.5H618.15a1.249,1.249,0,1,1,0,2.5Z" transform="translate(-554.76 -352.36)" fill="#3b3938"/>
          <path id="パス_2977" data-name="パス 2977" d="M635.673,474.579a1.25,1.25,0,0,1-1.249-1.249V422.186a1.249,1.249,0,1,1,2.5,0V473.33A1.249,1.249,0,0,1,635.673,474.579Z" transform="translate(-534.488 -386.747)" fill="#3b3938"/>
          <path id="パス_2978" data-name="パス 2978" d="M617.127,404.417a1.25,1.25,0,0,1-1.249-1.25v-1.73H592.913v.481h19.409a1.249,1.249,0,0,1,0,2.5H591.663a1.25,1.25,0,0,1-1.249-1.25v-2.978a1.25,1.25,0,0,1,1.249-1.25h25.464a1.25,1.25,0,0,1,1.25,1.25v2.978A1.25,1.25,0,0,1,617.127,404.417Z" transform="translate(-550.277 -394.639)" fill="#3b3938"/>
          <path id="パス_2979" data-name="パス 2979" d="M613.3,529.508H593.9a1.249,1.249,0,0,1-1.25-1.249v-7.072a1.25,1.25,0,0,1,1.25-1.25h10.047a1.249,1.249,0,1,1,0,2.5h-8.8v4.575h16.9v-4.575h-3.333a1.249,1.249,0,0,1,0-2.5H613.3a1.25,1.25,0,0,1,1.25,1.25v7.072A1.249,1.249,0,0,1,613.3,529.508Z" transform="translate(-549.477 -351.229)" fill="#3b3938"/>
        </g>
      </g>
    </g>
  </g>
</svg>
