<?xml version="1.0" encoding="utf-8"?>
<!-- Generator: Adobe Illustrator 25.4.1, SVG Export Plug-In . SVG Version: 6.00 Build 0)  -->
<svg version="1.1" id="レイヤー_1" xmlns="http://www.w3.org/2000/svg" xmlns:xlink="http://www.w3.org/1999/xlink" x="0px"
	 y="0px" viewBox="0 0 1920 2436" style="enable-background:new 0 0 1920 2436;" xml:space="preserve">
<style type="text/css">
	.st0{opacity:0.2;fill:#202020;}
</style>
<path id="Icon_metro-cross" class="st0" d="M951.2,1287.5L951.2,1287.5l-17.8-17.8l17.8-17.8l0,0c0.7-0.7,0.7-1.9,0-2.6l-8.4-8.4
	c-0.7-0.7-1.9-0.7-2.6,0l0,0l-17.8,17.8l-17.8-17.8l0,0c-0.7-0.7-1.9-0.7-2.6,0l-8.4,8.4c-0.7,0.7-0.7,1.9,0,2.6l0,0l17.8,17.8
	l-17.8,17.8l0,0c-0.7,0.7-0.7,1.9,0,2.6l8.4,8.4c0.7,0.7,1.9,0.7,2.6,0l0,0l17.8-17.8l17.8,17.8l0,0c0.7,0.7,1.9,0.7,2.6,0l8.4-8.4
	C951.9,1289.3,951.9,1288.2,951.2,1287.5L951.2,1287.5z"/>
<g>
</g>
<g>
</g>
<g>
</g>
<g>
</g>
<g>
</g>
<g>
</g>
<g>
</g>
<g>
</g>
<g>
</g>
<g>
</g>
<g>
</g>
</svg>
