<?xml version="1.0" encoding="utf-8"?>
<!-- Generator: Adobe Illustrator 25.4.1, SVG Export Plug-In . SVG Version: 6.00 Build 0)  -->
<svg version="1.1" id="レイヤー_1" xmlns="http://www.w3.org/2000/svg" xmlns:xlink="http://www.w3.org/1999/xlink" x="0px"
	 y="0px" viewBox="0 0 186.6 154" style="enable-background:new 0 0 186.6 154;" xml:space="preserve">
<style type="text/css">
	.st0{fill:#54A762;}
	.st1{enable-background:new    ;}
</style>
<g id="グループ_1675" transform="translate(0 0)">
	<path id="パス_2270" class="st0" d="M142.4,37c-11.5-15.7-29.7-25-49.1-25h-0.1c-26.9,0-50.5,17.8-58.1,43.6
		c-1.7,5.6-2.5,11.4-2.5,17.2c0,0.5,0,1,0,1.6v1.2l8.4-0.3v-1.2c0-0.4,0-0.9,0-1.3c0-5,0.7-10,2.1-14.8c6.6-22.3,27-37.5,50.2-37.6
		c16.7,0,32.5,8,42.3,21.5c6.5,8.9,10.1,19.7,10,30.8c0,16.7-8,32.4-21.5,42.3c-8.9,6.5-19.7,10.1-30.8,10c-5.2,0-10.3-0.8-15.3-2.3
		l18.3-13.4L45.7,86.9l5.9,55.1l18.3-13.3c30.9,12.9,66.5-1.6,79.4-32.5C157.5,76.6,154.9,54.1,142.4,37L142.4,37z"/>
	<g class="st1">
		<path class="st0" d="M56.4,60.8c1.1-0.2,2.5-0.3,4.3-0.3c2.2,0,3.8,0.5,4.9,1.4c1,0.9,1.6,2.2,1.6,3.8c0,4.3-3.4,5.7-6.6,5.7
			c-0.6,0-1.1,0-1.5-0.1v6.9h-2.6L56.4,60.8L56.4,60.8z M59,69.2c0.4,0.1,0.9,0.1,1.5,0.1c2.4,0,3.9-1.3,3.9-3.5
			c0-2.1-1.5-3.2-3.6-3.2c-0.8,0-1.4,0.1-1.8,0.2V69.2z"/>
		<path class="st0" d="M76.1,67.9c-0.2,0-0.5-0.1-0.8-0.1c-1.8,0-2.9,1.5-2.9,3.7v6.7h-2.7v-8.8c0-1.5,0-2.7-0.1-3.9h2.3l0.1,2.3
			h0.1c0.6-1.6,1.9-2.6,3.3-2.6c0.3,0,0.4,0,0.7,0.1C76.1,65.3,76.1,67.9,76.1,67.9z"/>
		<path class="st0" d="M89.1,71.8c0,4.7-3.1,6.7-5.9,6.7c-3.3,0-5.8-2.4-5.8-6.5c0-4.3,2.6-6.7,6-6.7S89.1,67.9,89.1,71.8z
			 M83.2,67.3c-2.3,0-3.2,2.4-3.2,4.6c0,2.5,1.2,4.6,3.1,4.6s3.1-2.1,3.1-4.6C86.3,69.8,85.5,67.3,83.2,67.3z"/>
		<path class="st0" d="M100.3,77.8c-0.6,0.3-1.8,0.6-3.3,0.6c-3.7,0-6-2.5-6-6.5c0-3.8,2.5-6.7,6.6-6.7c1.2,0,2.3,0.3,2.8,0.6
			l-0.5,2c-0.5-0.2-1.2-0.5-2.3-0.5c-2.5,0-3.9,2-3.9,4.5c0,2.8,1.6,4.4,3.8,4.4c1.1,0,1.8-0.3,2.4-0.5L100.3,77.8z"/>
		<path class="st0" d="M111.9,77.7c-0.9,0.4-2.3,0.8-4,0.8c-3.8,0-6-2.6-6-6.4c0-3.8,2.1-6.8,5.7-6.8s5,3,5,6.1c0,0.4,0,0.8-0.1,1.1
			h-8c0.1,2.9,1.8,3.9,3.8,3.9c1.4,0,2.4-0.3,3.2-0.6L111.9,77.7z M110,70.6c0-1.5-0.6-3.4-2.6-3.4s-2.8,1.9-2.9,3.4H110z"/>
		<path class="st0" d="M121.4,67.9c-0.5-0.3-1.4-0.7-2.4-0.7c-1.2,0-1.8,0.7-1.8,1.5c0,0.9,0.6,1.3,2.1,2c2.1,0.9,3.2,2,3.2,3.8
			c0,2.4-1.9,3.9-4.7,3.9c-1.3,0-2.6-0.3-3.4-0.9l0.6-2c0.6,0.4,1.8,0.9,2.9,0.9c1.4,0,2.1-0.7,2.1-1.7s-0.5-1.5-2-2.1
			c-2.4-0.8-3.4-2.1-3.4-3.5c0-2.1,1.7-3.8,4.4-3.8c1.2,0,2.3,0.3,3,0.7L121.4,67.9z"/>
		<path class="st0" d="M131.4,67.9c-0.5-0.3-1.4-0.7-2.4-0.7c-1.2,0-1.8,0.7-1.8,1.5c0,0.9,0.6,1.3,2.1,2c2.1,0.9,3.2,2,3.2,3.8
			c0,2.4-1.9,3.9-4.7,3.9c-1.3,0-2.6-0.3-3.4-0.9l0.6-2c0.6,0.4,1.8,0.9,2.9,0.9c1.4,0,2.1-0.7,2.1-1.7s-0.5-1.5-2-2.1
			c-2.4-0.8-3.4-2.1-3.4-3.5c0-2.1,1.7-3.8,4.4-3.8c1.2,0,2.3,0.3,3,0.7L131.4,67.9z"/>
	</g>
</g>
</svg>
