<svg xmlns="http://www.w3.org/2000/svg" xmlns:xlink="http://www.w3.org/1999/xlink" width="350" height="350" viewBox="0 0 350 350"><defs><filter id="a" x="0" y="0" width="350" height="350" filterUnits="userSpaceOnUse"><feOffset dy="3" input="SourceAlpha"/><feGaussianBlur stdDeviation="3" result="b"/><feFlood flood-opacity="0.161" result="c"/><feComposite operator="out" in="SourceGraphic" in2="b"/><feComposite operator="in" in="c"/><feComposite operator="in" in2="SourceGraphic"/></filter></defs><g transform="translate(-1250 -9201)"><g data-type="innerShadowGroup"><circle cx="175" cy="175" r="175" transform="translate(1250 9201)" fill="#fff"/><g transform="matrix(1, 0, 0, 1, 1250, 9201)" filter="url(#a)"><circle cx="175" cy="175" r="175" fill="#fff"/></g></g><g transform="translate(1258.075 9263.52)"><circle cx="36.705" cy="36.705" r="36.705" transform="translate(112.731 167.623) rotate(-45)" fill="#b4a28f"/><g transform="translate(45.891 34.48)"><path d="M93,39.722c2.808-2.4,9.232-3.741,9.232-3.741L100.718,39c2.173-.729,7.738-2.045,11.944-1.153-.812,1.037-1.566,1.87-1.566,1.87s10.648,1.273,13.294,5.862a21.654,21.654,0,0,0-3.533,0,9.458,9.458,0,0,1,3.758,6.851,50.03,50.03,0,0,1,0,5.8L122,56.206a10.825,10.825,0,0,1,.872,3.075c.042,1.219-.352,8-.264,9.486a38.091,38.091,0,0,0,2.911,8.754c.8,1.266,2,2.8,2,2.8a3.549,3.549,0,0,1-1.709,2.092A4.037,4.037,0,0,0,124,84.068l-.348,1.453s-2.222,5.391-2.663,6.879a24.267,24.267,0,0,1-2.613,5.236c-.631.816-.852,1.663-2.585,1.292s-11.108-3.671-11.108-3.671l-2.03,2.6-2.463,5.118.66,1.039-.84,4.032,2.8-.471,1.206,5.316-.377,2.756a6.66,6.66,0,0,1,.41,1.239c.19.788,1.678,8.493,1.983,10.2s-.566,12.5-.493,13.039,3.751,7.219,5.124,8.425a37.63,37.63,0,0,1,3.071,3.207l19.742,3.44,13.73,2.333v2.929l2.411.329-.482,2.912,2.471.922,2.294.467s3.42-1.192,4.668-1.408a12.81,12.81,0,0,1,5.266-.173c1.706.5,3.282,1.149,3.44,1.2s1.833.378,1.833.378a19.953,19.953,0,0,1,1.909-.832c.328-.065,4.927.29,5.653.3a8.418,8.418,0,0,0,3.349-.787,11.975,11.975,0,0,1,1.609-.814l2.524-.848-.587-2.589,2.955-.609v-1.382l20.835-3.448,13.119-2.426s4.786-5.4,5.134-5.983a13.843,13.843,0,0,1,1.936-1.914s-1.163-5.211-1.294-6.82,2.763-18.674,3.314-20.284a10.893,10.893,0,0,0,.361-3.771l1.018-5.315,2.74.326-.986-4.235.586-.7-1.543-3.8L229,95.287s-4.865,2.022-7.1,2.661-4.612,1.465-5.541,1.1-3.118-5.033-3.539-6.062-3.075-8.122-3.235-8.47-.072-1.305-.754-1.683a8.145,8.145,0,0,1-2.539-2.4c.868-1.272,2.757-4.35,3.114-5.142a36.382,36.382,0,0,0,1.731-6.206c-.072-.667.377-1.291.116-2.088s-2.831-4.116-3.057-4.568-1.895-5.26-1.895-5.26l-1.549-1.379.588-1.647s2.265-1.615,2.327-1.973-.19-3.682-.19-3.682,1.409-1.768,1.934-1.743,3.39.3,3.434.238,3.364-4,4.1-4.639,1.588-1.426,2.385-1.005a10.407,10.407,0,0,0,1.948.706,5.17,5.17,0,0,1,1.549-1.739c.872-.5,3.74-1.637,4.857-1.122s2.045.283,2.364,3.257c1.378.015,4.767-1.319,7.571-1.1s5.932.406,6.933,3.408c2.857.464,6.238,2.3,6.3,4.812,3.6,1.569,5.873,4.31,6.221,8.111a8.646,8.646,0,0,1-2.328,6.432,3.852,3.852,0,0,1,.871,3.921c-.747,2.453-2.329,2.409-2.329,2.409,1.466,1.6,1.562,3.024.349,4.62s-3.4,3.8-3.687,4.69-1.2,4.3-.789,5.669,4.041,5.515,4.041,5.515l1.254.392.842,2.34a8.069,8.069,0,0,1,1.543,1.384c.858.959,7.515,6.331,8.784,7.784A61.307,61.307,0,0,1,272.011,113c.9,2.343,2.369,7.136,2.848,8.746s2.292,5.947,2.292,5.947,5.337,11.385,6.309,13.177a89.593,89.593,0,0,1,4.192,12.249c.3,1.769,1.056,3.074.789,5.925a77.583,77.583,0,0,1-2.2,9.464l.123,6,.117,12.922H231.536L233.6,173.8l-.235-3.967-5.82,1.934s-14.9,4.1-17.73,4.525-18.67,1.857-18.67,1.857l-.461-.506h-2.527l-.508-3.024s-2.076,1.3-2.33,1.557-2.833,2.5-2.833,2.5.493.141.073,1.76-.682,2.278-1.059,2.173-1.465.1-1.682,0a.625.625,0,0,0-.464,0s-.841,1.461-1.248,1.432a12.839,12.839,0,0,1-1.914-.739c-.479-.174-1.217,1.392-1.217,1.392a1.558,1.558,0,0,1-1.089.438,5.657,5.657,0,0,1-1,0s-.242,1.708-.5,1.767a16.045,16.045,0,0,1-3.6-.751,1.715,1.715,0,0,0-.928-.219s-.334.947-.435,1.335-.827.7-1.755.711a4.222,4.222,0,0,1-1.93-.409c-.043-.087-.55.159-1,0s-2.944-1.265-2.944-1.265a4.321,4.321,0,0,1-1.523.192c-.29-.145-1.885-1.507-1.885-1.507l-1.857-.7-2.466-2.668.116-1.169s-.762-1.584-1.513-1.774A25.274,25.274,0,0,1,147.391,177h-1.8l-.087.936-2.06-.591-.58.827s-15.808-1.054-21.378-2.383-20.872-5.667-20.872-5.667a28.156,28.156,0,0,0-.118,7.01c.386,2.489,1.727,9.829,1.727,9.829H47.4s.121-14.75.121-16.534,1.257-13.045,1.257-13.045,2.361-12.619,3.685-17.853l1.324-5.235s2.438-9.432,4.032-12.383,6.026-14.381,8.05-16.491,5.743-6.353,7.484-7.4a26.231,26.231,0,0,0,4.873-4.09c.065-.283,1.088-2.872,1.088-2.872a9.341,9.341,0,0,0,3.046-1.828,7.271,7.271,0,0,0,2.081-3.988,13.646,13.646,0,0,0-.116-3.191c-.023-1.017-.087-2.139-.087-2.139L82.869,79.7l1.453-2.754-3.8,1.495s-.78-3.979-.142-5.949a13.229,13.229,0,0,0-2.761,1.893A26.463,26.463,0,0,1,77,69.332a18.192,18.192,0,0,1,.841-4.044L74.96,66.716l.2-6.065s2.608-7.192,3.675-8.8,4.229-3.45,4.809-3.667a20.287,20.287,0,0,0,2.77-1.755c1.018-.737,2.567-.856,2.9-1.74A16.047,16.047,0,0,1,93,39.722Z" transform="translate(-46.911 -35.497)" fill="#fff"/><path d="M185.851,62.977a13.932,13.932,0,0,0-3.611-6.585,42.857,42.857,0,0,0-7.557-5.678c-4.195-2.445-15.947-2.437-22.071,3.339-.885.834-2.749,3.194-3.6,3.706-2.132,1.283-4.708,2.041-6.571,3.658a11.292,11.292,0,0,0-3.818,5.7,38.4,38.4,0,0,0-1.131,6.179,10.12,10.12,0,0,0,1.5.29s-.794,5.66-.555,7.194a6.484,6.484,0,0,0,.628,2.172l2.722-1.889a26.263,26.263,0,0,0-.629,4.914c.118,1.428.477,1.569.477,1.569l3.9-1.733-1.288,2.875.716,1.153s-.23,2.648.152,2.7,1.242-.441,2.09-.541,2.011-1,1.87-1.253a11.483,11.483,0,0,0-1.349-1.2,18.3,18.3,0,0,0,2.15-1.246,10.6,10.6,0,0,0,1.2-1.647l1-.776s-1.209-3.858-1-5.533.36-2.2.914-2.632,2.675-.466,2.863-.044,1.74.046,2.251-.565a52.123,52.123,0,0,0,2.218-5.19c.2-.391,1.945,2.262,1.945,2.262s1.2-2.708,1.275-2.871,1.164-4.558,1.164-4.558l2.042,3.5s1.123-3.481,2.265-4.5a6.121,6.121,0,0,1,2.11-1.305l-1.094,3.912,4.989-4.587-.184,4.452s3.132-3.473,3.317-3.93S178.48,61.4,178.48,61.4c.7.424,2.834,1.383,3.239,1.96s2.45,3.229,2.744,3.827.958.608,1.2-.7A21.7,21.7,0,0,0,185.851,62.977Z" transform="translate(-107.931 -44.429)" fill="#3d7a95"/><path d="M187.009,51.42l5.9-5.352-1.371,5Z" transform="translate(-141.468 -42.328)" fill="#3d7a95"/><path d="M251.624,53.354l5.451,1.679-5.3,1.679Z" transform="translate(-185.231 -47.263)" fill="#3d7a95"/><path d="M80.584,226.941c-2.337.295-6.958,2.974-9.485,5.483-2.893,2.872-7.875,14.818-9.92,19.658s-7.615,22.81-8.964,30.206-4.044,22.161-4.279,27.44a38.708,38.708,0,0,0,0,6.543h54.207s-1.972-12.777-1.693-13.967.69-2.8.69-2.8,7.968,2.239,10.962,3.053,24.85,5.365,31.052,4.93c1.088-4.226,4.348-19.095,4.348-19.095s-10.4-1.225-13.4-1.617-19.972-4-21.1-4.264-6.886-8.4-7.8-9.66-4.711-10.37-5.762-13.561c-.381-1.158-1.641-7.945-1.772-9.312s-5.429-12.162-7.307-14.6-6.078-7.13-6.078-7.13A4.564,4.564,0,0,0,80.584,226.941Z" transform="translate(-47.206 -164.809)" fill="#3d7a95"/><path d="M527.475,253.3c.245-1.33.513-2.845.863-4.448.983-4.509,2.609-9.714,6.169-13.467,4.826-5.089,6.783-9.614,8.872-10.571s3.744-1.355,6.4.631c3.248,2.427,12.128,13,12.725,14.686.729,2.06,2.742,8.276,2.742,8.276l-2.742-3.675s1.123,2.984,2.977,7.016c2.35,5.111,3.366,7.047,4.677,10.247,1.452,3.541,6.592,15.8,7.071,17.768s1.433,3.574,1.348,5.684-.294,13.376-.247,14.685.364,14.662.364,14.662H523.755s1.491-7.737,1.746-11a56.907,56.907,0,0,0,0-7.042,55.113,55.113,0,0,1-6.777,2.688,219.358,219.358,0,0,1-22.969,5.022,91.372,91.372,0,0,1-12.727,1.069l-4.177-18.616,3.133-.4s6.092-1.276,11.226-1.915,19.435-2.531,21.756-4.543,4.8-7.162,4.8-7.162l1.556,4.714,1.625,7.426,1.181,2.959a6.541,6.541,0,0,0,1.377-3.916c.11-2.524.068-10.835.316-14.773S526.843,256.728,527.475,253.3Z" transform="translate(-339.13 -162.856)" fill="#3d7a95"/><path d="M186.342,126.575c2.109,1.877,3.295,2.988,4.34,3.829s2.38.551,1.771-1.1a20.277,20.277,0,0,1-.638-5.859C191.728,121.3,184.583,125.009,186.342,126.575Z" transform="translate(-140.828 -94.292)" fill="#3d7a95"/><path d="M539.73,71.588c-.311-1.009-.956-1.885,0-2.61s2.784-1.19,3.306-3.481,1.948-2.29,2.4-2.379a4.479,4.479,0,0,0,2.362-2.088c.58-.9,3.275-4.276,4.351-4.235,1.907.073,3.407.386,4.815-.044,1.566-.479,1.5-1.266,2.727-.856,1.74.58,2.292,2.059,5.526,1.523s5.637-1.61,8-.479,2.251,2.255,2.628,3.216c1.044.178,5.918.351,6.556,3.383,2.988,2.219,5.931,5.184,6.092,6.8a10.82,10.82,0,0,1-1.828,6.294c-.667,1.073.786,1.929.986,3.249a4.6,4.6,0,0,1-1.248,3.959s1.641,1.86.88,3.389-4.682,7.58-4.8,8.194a8.979,8.979,0,0,0,.265,2.269,11.707,11.707,0,0,1-3.365-1.682c-.9-.877.718-1.987.718-1.987l-2.864-2.146L575.5,89.863a5.94,5.94,0,0,0,.89-2.412c.358-1.765.648-4.869-.6-5.652s-4.273,1.456-4.312,1.917-1.779,5.328-2.534,5.447-2-.155-1.625-1.628-.783-3.634-.58-4.149-1.044-3.967-1.044-3.967a25.833,25.833,0,0,0,.376-4.478,2.686,2.686,0,0,0-1.885-2.107,5.255,5.255,0,0,1-2.321-3.015c-1.044.259-2.843.056-3.017-.466a36.486,36.486,0,0,0-2.089-4.7c-.348-.319-4.308-.769-4.931-.754S549.47,65.8,549.47,65.8s-1.1-1.053-1.879-.038-3.153,3.724-3.336,5.976-.609,7.078.116,8.673c-.435-.8-3.24-3.083-3.52-4.7A36.124,36.124,0,0,0,539.73,71.588Z" transform="translate(-380.022 -48.907)" fill="#3d7a95"/><path d="M614.269,260.989h-2.154s-.508,2.594-.809,3.385a8.446,8.446,0,0,0-.3,2.279v1.429a53.15,53.15,0,0,0-1.072,6.614c-.233,3-.8,9.79-.886,11.335a32.41,32.41,0,0,0,0,8.415c.587,4.682,3.5,12.209,3.5,12.209l1.33.783s-.174-11.835,0-13.88-1.624-8.115-1.585-10.03-.38-7.2-.344-9.094.6-6.309.6-6.309l1.221-2.393s1.221-1.975,1.341-2.161A14.321,14.321,0,0,0,614.269,260.989Z" transform="translate(-427.12 -187.892)" fill="#ffe848"/><path d="M207.968,261.678s2.124-.431,2.331,0a17.9,17.9,0,0,1,.98,3.695c-.022.631.468.994.37,1.617s-.424.875-.185,1.859,1.393,9.2,1.577,10.611.707,10.008.663,11.063,0,2.176,0,2.176l-4.267-8.191a8.082,8.082,0,0,0,.805-3.242c-.011-1.643.233-9.42.22-10.03s-.6-1.572-.6-1.98a7.689,7.689,0,0,0-.561-2.676,5.172,5.172,0,0,1-.66-1.175,4.073,4.073,0,0,1-1.054-1.338C207.308,263.36,207.968,261.678,207.968,261.678Z" transform="translate(-155.361 -188.229)" fill="#ffe848"/><path d="M568.492,154.851c0,.515-.247.932-.552.932s-.552-.417-.552-.932.247-.932.552-.932S568.492,154.336,568.492,154.851Z" transform="translate(-399.094 -115.375)" fill="#3b3938"/><path d="M264.462,154.851c0,.515.247.932.552.932s.552-.417.552-.932-.247-.932-.552-.932S264.462,154.336,264.462,154.851Z" transform="translate(-193.927 -115.375)" fill="#3b3938"/><path d="M541.559,151.78a.485.485,0,0,1-.165-.029,7.769,7.769,0,0,1-3.255-2.724.484.484,0,0,1,.066-.575c1.9-2.024,4.785-7.406,4.785-10.906a.484.484,0,1,1,.968,0c0,3.575-2.789,8.96-4.79,11.283a7.116,7.116,0,0,0,2.556,2.012.484.484,0,0,1-.165.939Z" transform="translate(-379.241 -103.958)" fill="#3b3938"/><path d="M556.9,200.258a2.8,2.8,0,0,1-.716-.077c-2.479-.673-7.128-14.527-7.173-14.666a.484.484,0,0,1,.922-.3c1.113,3.454,5.08,13.642,6.5,14.029,1.712.466,10.716-2.476,13.964-4.559a.484.484,0,0,1,.523.815C568.122,197.3,560.011,200.258,556.9,200.258Z" transform="translate(-386.635 -136.346)" fill="#3b3938"/><path d="M613.64,224.667a.484.484,0,0,1-.45-.3,49.416,49.416,0,0,0-3.535-5.755.484.484,0,0,1,.758-.6,48.5,48.5,0,0,1,3.676,6,.484.484,0,0,1-.449.665Z" transform="translate(-427.651 -158.657)" fill="#3b3938"/><path d="M673.855,192.144a.483.483,0,0,1-.342-.142,13.493,13.493,0,0,1-2.7-4.7.484.484,0,0,1,.925-.286,12.576,12.576,0,0,0,2.461,4.3.484.484,0,0,1-.342.826Z" transform="translate(-469.128 -137.563)" fill="#3b3938"/><path d="M553.492,103.523a.484.484,0,0,1-.467-.356c-.814-2.973-1.279-10.267,2.477-13.837a.484.484,0,1,1,.667.7c-3.405,3.237-2.943,10.2-2.21,12.88a.484.484,0,0,1-.339.594A.479.479,0,0,1,553.492,103.523Z" transform="translate(-388.986 -71.539)" fill="#3b3938"/><path d="M537.255,84.707a.483.483,0,0,1-.379-.183c-.652-.82-1.827-4.652-2.138-5.694-.87-.416-2.014-1.3-1.641-2.419.22-.661.948-1.163,1.719-1.7.55-.38,1.381-.953,1.348-1.28-.049-.486-.128-.928-.2-1.319a3.349,3.349,0,0,1,.241-2.731,3.739,3.739,0,0,1,3.723-1.444.484.484,0,0,1-.281.927A2.774,2.774,0,0,0,537,69.95c-.33.462-.253,1-.076,2,.072.407.155.869.207,1.392.09.9-.851,1.545-1.761,2.173-.578.4-1.232.851-1.35,1.2-.187.562.984,1.18,1.308,1.314a.486.486,0,0,1,.279.31,32.865,32.865,0,0,0,2.031,5.579.484.484,0,0,1-.379.785Z" transform="translate(-375.821 -57.074)" fill="#3b3938"/><path d="M555.9,55.022a.474.474,0,0,1-.17-.031.483.483,0,0,1-.283-.623c.941-2.508,5-6.668,6.361-7.585,1.118-.752,2.676-.085,3.5.372.407-.855,1.525-2.289,4.5-2.669,1.656-.212,2.786.007,3.557.686,1.158,1.019,1.253,2.894,1.253,5.058a.484.484,0,0,1-.968,0c0-2.228-.151-3.652-.924-4.332a3.524,3.524,0,0,0-2.795-.453c-3.471.443-3.876,2.433-3.892,2.518a.489.489,0,0,1-.292.362.484.484,0,0,1-.461-.047c-.506-.351-2.132-1.232-2.935-.692-1.253.842-5.133,4.822-6,7.122A.484.484,0,0,1,555.9,55.022Z" transform="translate(-390.989 -41.204)" fill="#3b3938"/><path d="M634.976,92.434h-.025a.483.483,0,0,1-.459-.506,6.959,6.959,0,0,1,2.334-4.7c1.268-1.023,2.532-2.726,2.5-4.224a2.315,2.315,0,0,0-1.064-1.883.484.484,0,0,1,.169-.861,2.822,2.822,0,0,0,2.062-1.631,4.659,4.659,0,0,0-.663-4.044.484.484,0,0,1,.029-.545,8.4,8.4,0,0,0,1.892-7.167c-.748-3.218-3.529-5.611-5.682-6.682a.484.484,0,0,1-.263-.361c-.432-2.865-2.436-3.673-5.984-4.161a.484.484,0,0,1-.416-.439,2.8,2.8,0,0,0-1.679-2.353c-3.1-1.609-9.189-.475-10.43.25a.484.484,0,1,1-.488-.836c1.669-.975,8.032-2.005,11.365-.274a3.777,3.777,0,0,1,2.148,2.745c3.521.528,5.823,1.547,6.4,4.676a11.609,11.609,0,0,1,5.972,7.217,9.2,9.2,0,0,1-1.87,7.713,5.4,5.4,0,0,1,.565,4.632,3.572,3.572,0,0,1-1.909,1.925,3.17,3.17,0,0,1,.815,2.058c.047,1.953-1.509,3.914-2.857,5a6.075,6.075,0,0,0-1.974,4A.484.484,0,0,1,634.976,92.434Z" transform="translate(-432.402 -45.722)" fill="#3b3938"/><path d="M659.538,170.868a.469.469,0,0,1-.105-.012,8.237,8.237,0,0,1-3-1.629.484.484,0,0,1-.153-.484c.036-.144.2-.545.967-1a4.963,4.963,0,0,1-2.436-2.472.484.484,0,0,1,.917-.311,4,4,0,0,0,2.9,2.2.484.484,0,0,1,.192.94,4.711,4.711,0,0,0-1.386.685,6.516,6.516,0,0,0,2.2,1.127.484.484,0,0,1-.1.957Z" transform="translate(-458.291 -122.633)" fill="#3b3938"/><path d="M640.166,147.107a.484.484,0,0,1-.078-.962l.138-.022c1.047-.165,2.234-.353,3.679-5.917.756-2.912.139-4.574-.807-4.93-.878-.33-1.978.4-2.671,1.788a.484.484,0,0,1-.866-.434c.924-1.842,2.517-2.771,3.878-2.26,1.313.494,2.372,2.35,1.4,6.08-1.485,5.723-2.843,6.374-4.465,6.629l-.132.021A.5.5,0,0,1,640.166,147.107Z" transform="translate(-447.942 -102.04)" fill="#3b3938"/><path d="M638.989,151.238a.485.485,0,0,1-.267-.081c-1.13-.75-1.37-2.476-.693-4.989a3.982,3.982,0,0,1,2.992-2.741,1.013,1.013,0,0,1,1.054.652.484.484,0,0,1-.906.341.111.111,0,0,0-.009-.02.762.762,0,0,0-.454.091,3.312,3.312,0,0,0-1.741,1.929c-.543,2.014-.436,3.447.293,3.931a.484.484,0,0,1-.268.887Z" transform="translate(-446.685 -108.267)" fill="#3b3938"/><path d="M641.963,157.384a.485.485,0,0,1-.436-.693,1.543,1.543,0,0,0,.109-1.276,1,1,0,0,0-.822-.42.484.484,0,0,1,.109-.962,1.892,1.892,0,0,1,1.56.913,2.4,2.4,0,0,1-.083,2.163A.484.484,0,0,1,641.963,157.384Z" transform="translate(-448.535 -115.449)" fill="#3b3938"/><path d="M624.179,144.711a.476.476,0,0,1-.061,0,.484.484,0,0,1-.42-.54,5,5,0,0,1,1.6-2.853l-1.24-.833a.485.485,0,0,1-.07-.746l1.79-1.769-2.383-.311a.484.484,0,0,1,.126-.96l3.365.439a.484.484,0,0,1,.278.824l-2.074,2.05,1.279.859a.484.484,0,0,1,.012.8,4.531,4.531,0,0,0-1.716,2.626A.484.484,0,0,1,624.179,144.711Z" transform="translate(-436.74 -103.706)" fill="#3b3938"/><path d="M572.721,85.989a5.433,5.433,0,0,1-2.8-.566,8.472,8.472,0,0,1-1.644-3.089,18.9,18.9,0,0,0-.832-1.887c-.34-.606-3.135-.634-5.028-.391l-.094.144c-.473.728-1.457,2.242-2.694,1.718a7.294,7.294,0,0,0-3.469-.036.484.484,0,0,1-.54-.8,7.433,7.433,0,0,1,4.386-.052c.493.206,1.227-.927,1.505-1.354.229-.353.334-.514.588-.55.216-.031,5.3-.737,6.19.851a19.4,19.4,0,0,1,.885,2,10.157,10.157,0,0,0,1.338,2.685c.574.442,4.225.661,5.323-.438a.484.484,0,0,1,.685.684A5.734,5.734,0,0,1,572.721,85.989Zm-16.537-4.124-.014.009Z" transform="translate(-390.989 -64.591)" fill="#3b3938"/><path d="M614.331,112.1a.485.485,0,0,1-.462-.34,7.784,7.784,0,0,1-.06-2.56,7.736,7.736,0,0,0-.178-3.254,4.69,4.69,0,0,0-1.812-1.623c-.8-.508-1.551-.987-1.4-1.724a.484.484,0,0,1,.953.172,3.9,3.9,0,0,0,.967.735,5.445,5.445,0,0,1,2.17,2.032,8.254,8.254,0,0,1,.266,3.73,7.732,7.732,0,0,0,.019,2.2.484.484,0,0,1-.319.606A.492.492,0,0,1,614.331,112.1Z" transform="translate(-428.226 -80.352)" fill="#3b3938"/><path d="M572.4,124.911a.479.479,0,0,1-.269-.082A11.679,11.679,0,0,0,566,123.2a.484.484,0,0,1-.468-.5.492.492,0,0,1,.5-.468,12.58,12.58,0,0,1,6.636,1.793.484.484,0,0,1-.27.886Z" transform="translate(-397.838 -93.913)" fill="#3b3938"/><path d="M566.924,155.251c-.591,0-1.036-.609-1.036-1.416s.446-1.416,1.036-1.416,1.036.609,1.036,1.416S567.515,155.251,566.924,155.251Zm0-1.778a.993.993,0,1,0,.068.362A.9.9,0,0,0,566.924,153.473Z" transform="translate(-398.079 -114.359)" fill="#3b3938"/><path d="M569.447,150.382a.484.484,0,0,1-.476-.4c-.142-.791-.571-1.837-2.59-1.8a.484.484,0,1,1-.018-.968c2.551-.059,3.343,1.385,3.561,2.6a.484.484,0,0,1-.39.562A.494.494,0,0,1,569.447,150.382Z" transform="translate(-398.079 -110.834)" fill="#3b3938"/><path d="M562.759,152.5a3.959,3.959,0,0,1-2.865-1.3,5.558,5.558,0,0,1-1.477-3.437l-.308-4.112a5.648,5.648,0,0,1,.65-3.132.484.484,0,0,1,.85.463,4.68,4.68,0,0,0-.534,2.6l.308,4.111a4.591,4.591,0,0,0,1.211,2.84,2.966,2.966,0,0,0,2.365.993c1.8-.135,3.134-2.075,2.965-4.324l-.308-4.111a4.679,4.679,0,0,0-.916-2.487.484.484,0,0,1,.772-.584,5.646,5.646,0,0,1,1.109,3l.308,4.111c.208,2.781-1.522,5.186-3.858,5.362Q562.894,152.5,562.759,152.5Z" transform="translate(-392.799 -105.83)" fill="#3b3938"/><path d="M588,143.359a.484.484,0,0,1-.074-.962l9.868-1.545a.484.484,0,1,1,.15.957l-9.868,1.545A.5.5,0,0,1,588,143.359Z" transform="translate(-412.731 -106.521)" fill="#3b3938"/><path d="M568.083,195.916a.484.484,0,0,1-.013-.968,10.773,10.773,0,0,0,8.066-3.329.484.484,0,0,1,.7.663,11.682,11.682,0,0,1-8.744,3.633Z" transform="translate(-399.238 -140.806)" fill="#3b3938"/><path d="M623.2,225.965a.48.48,0,0,1-.107-.012c-.4-.092-.407-.094-1.734-5.437-.259-1.042-.526-2.119-.591-2.317a.485.485,0,0,1,.063-.51c3.041-3.75,17.41-12.638,21.72-12.941a.474.474,0,0,1,.469.27,17.08,17.08,0,0,1,1.109,3.028.484.484,0,0,1-.341.581c-6.317,1.753-18.041,13.7-20.169,17.107a.462.462,0,0,1-.039.054A.5.5,0,0,1,623.2,225.965Zm-1.453-7.859c.094.336.25.961.552,2.177.308,1.239.765,3.078,1.057,4.138,3.043-4.066,13.334-14.458,19.716-16.586a16.813,16.813,0,0,0-.778-2.083C637.928,206.427,624.856,214.562,621.746,218.105Z" transform="translate(-435.218 -149.799)" fill="#3b3938"/><path d="M613.02,263.974a3.412,3.412,0,0,1-.763-.085.82.82,0,0,1-.527-.4c-.688-1.159.451-5.509.816-6.815a.48.48,0,0,1,.536-.349l1.4.2a.484.484,0,1,1-.139.958l-.972-.141c-.707,2.639-1.072,5.112-.824,5.616a2.493,2.493,0,0,0,2.658-1.2.484.484,0,1,1,.86.445A3.376,3.376,0,0,1,613.02,263.974Z" transform="translate(-428.981 -184.73)" fill="#3b3938"/><path d="M618.392,300.042a.484.484,0,0,1-.472-.378c-.669-2.968-.672-14.644-.152-16.51a.484.484,0,0,1,.933.259c-.438,1.572-.513,13.032.164,16.038a.484.484,0,0,1-.472.591Z" transform="translate(-432.965 -202.664)" fill="#3b3938"/><path d="M608.971,320.348a.485.485,0,0,1-.459-.329c-.139-.413-.32-.913-.53-1.489-1.3-3.586-3.724-10.259-3.854-17.751a81.006,81.006,0,0,1,2.4-17.643.484.484,0,1,1,.921.3,79.6,79.6,0,0,0-2.349,17.33c.126,7.33,2.513,13.9,3.8,17.437.213.585.4,1.091.538,1.51a.484.484,0,0,1-.3.614A.5.5,0,0,1,608.971,320.348Z" transform="translate(-423.977 -202.664)" fill="#3b3938"/><path d="M605.38,369.447a.485.485,0,0,1-.466-.356c-.05-.18-4.945-18.608-4.8-21.3a.478.478,0,0,1,.509-.458.484.484,0,0,1,.458.509c-.125,2.372,4.29,19.249,4.77,20.993a.485.485,0,0,1-.338.6A.5.5,0,0,1,605.38,369.447Z" transform="translate(-421.256 -246.371)" fill="#3b3938"/><path d="M616.982,448.04a.464.464,0,0,1-.1-.01.484.484,0,0,1-.38-.569c.018-.093,1.845-9.274,2.037-12.6.188-3.257-1.292-11.641-1.668-13.541a.484.484,0,0,1,.95-.188c.406,2.049,1.88,10.392,1.684,13.785s-1.978,12.349-2.054,12.729A.484.484,0,0,1,616.982,448.04Z" transform="translate(-432.356 -296.095)" fill="#3b3938"/><path d="M622.709,288.3a.485.485,0,0,1-.481-.431c-1.168-10.5,1.134-29.927,2.778-37.007,1.712-7.378,9.794-17.6,13.538-21.186a.484.484,0,1,1,.669.7c-3.674,3.519-11.6,13.524-13.265,20.7-1.63,7.024-3.915,26.285-2.758,36.682a.485.485,0,0,1-.428.535Z" transform="translate(-436.022 -166.59)" fill="#3b3938"/><path d="M624.8,277.458h-.017a.485.485,0,0,1-.467-.5c.188-5.5,5.126-16.362,7.778-22.2.611-1.344,1.1-2.428,1.363-3.064l-1.658-6.035a.485.485,0,0,1,.168-.51c.16-.125,3.776-2.949,5.628-4.069-.016-3.122,1.84-9.054,2.1-9.529a63.509,63.509,0,0,1,6.943-6.495.484.484,0,1,1,.544.8,69.677,69.677,0,0,0-6.638,6.162c-.223.511-2.106,6.483-1.969,9.31a.483.483,0,0,1-.245.445c-1.442.817-4.591,3.231-5.507,3.94l1.616,5.88a.484.484,0,0,1-.016.3c-.248.632-.775,1.791-1.442,3.259-2.624,5.777-7.51,16.529-7.692,21.833A.484.484,0,0,1,624.8,277.458Z" transform="translate(-437.652 -163.498)" fill="#3b3938"/><path d="M711.815,241.645a.485.485,0,0,1-.476-.4,36.626,36.626,0,0,0-7.563-15.657,41.144,41.144,0,0,0-5-4.48c-2.375-1.924-4.427-3.585-4.916-4.8a.484.484,0,1,1,.9-.362c.4.978,2.547,2.72,4.628,4.405a41.718,41.718,0,0,1,5.133,4.605,37.686,37.686,0,0,1,7.779,16.112.485.485,0,0,1-.391.562A.492.492,0,0,1,711.815,241.645Z" transform="translate(-484.726 -157.184)" fill="#3b3938"/><path d="M744.284,357.723a.484.484,0,0,1-.435-.7c.074-.153,7.441-15.345,9.635-22.554,1.9-6.237,1.418-8.182.461-12.056-.148-.6-.307-1.244-.47-1.954-1.218-5.306-11.291-26.891-16.776-32.963a.484.484,0,1,1,.718-.649c5.7,6.308,15.733,27.876,17,33.4.162.705.32,1.344.466,1.939.968,3.92,1.5,6.079-.475,12.57-2.215,7.281-9.615,22.542-9.69,22.695A.484.484,0,0,1,744.284,357.723Z" transform="translate(-513.683 -205.3)" fill="#3b3938"/><path d="M786.346,475.3h0a.484.484,0,0,1-.482-.486c0-.106.035-10.668-.243-14a.484.484,0,0,1,.965-.081c.282,3.373.248,13.647.246,14.083A.484.484,0,0,1,786.346,475.3Z" transform="translate(-546.899 -322.878)" fill="#3b3938"/><path d="M679.872,386.856a.476.476,0,0,1-.125-.016.484.484,0,0,1-.343-.592c3.338-12.53,6.252-18.271,7.817-21.355a9.479,9.479,0,0,0,1.356-3.5c-1.567-2.689-13.713-25.7-15.54-29.568a.484.484,0,1,1,.876-.413c1.853,3.923,14.346,27.587,15.563,29.6a.486.486,0,0,1,.07.243c.019,1.16-.539,2.259-1.462,4.079-1.549,3.053-4.433,8.735-7.745,21.166A.484.484,0,0,1,679.872,386.856Z" transform="translate(-470.619 -235.399)" fill="#3b3938"/><path d="M731.869,417.757a.484.484,0,0,1-.269-.887,13.878,13.878,0,0,1,10.03-1.6.484.484,0,1,1-.264.931c-3.475-.986-7.726.477-9.229,1.479A.481.481,0,0,1,731.869,417.757Z" transform="translate(-510.168 -292.136)" fill="#3b3938"/><path d="M669.486,276.487a.484.484,0,0,1-.481-.431c-.6-5.456,5.455-13.948,10.975-15.4a8.444,8.444,0,0,1,10.367,4.7.484.484,0,1,1-.879.406,7.519,7.519,0,0,0-9.242-4.173c-5.05,1.33-10.8,9.383-10.259,14.36a.484.484,0,0,1-.429.534A.5.5,0,0,1,669.486,276.487Z" transform="translate(-467.892 -187.416)" fill="#3b3938"/><path d="M626.169,428.849a1.809,1.809,0,0,1-1.432-.865,4.4,4.4,0,0,1-.733-2.051.484.484,0,1,1,.962-.107,3.467,3.467,0,0,0,.556,1.593c.227.316.479.483.692.459.476-.053.9-1.038.766-2.276s-.764-2.1-1.249-2.052a.484.484,0,1,1-.107-.962c1.107-.123,2.122,1.155,2.318,2.907s-.517,3.223-1.621,3.346A1.427,1.427,0,0,1,626.169,428.849Z" transform="translate(-437.438 -297.336)" fill="#3b3938"/><path d="M481.459,407.563a.484.484,0,0,1-.47-.371c-.782-3.249-4.668-19.525-4.445-20.82a.485.485,0,0,1,.457-.4c1.65-.07,23.7-4.127,30.945-5.461,1.439-.265,2.406-.443,2.78-.51,1.11-1.121,4.51-4.706,5.021-5.765a.484.484,0,0,1,.872.421c-.709,1.47-5.27,6.091-5.315,6.136a.483.483,0,0,1-.262.135c-.135.023-1.242.226-2.92.535-11.805,2.173-27.41,5.022-30.606,5.428.242,2.223,2.669,12.793,4.32,19.676,2.188-.158,12.571-.929,17.22-1.62a172.957,172.957,0,0,0,22.955-6.063.484.484,0,1,1,.355.9A174.579,174.579,0,0,1,499.2,405.9c-5.223.777-17.579,1.649-17.7,1.657Z" transform="translate(-337.561 -264.406)" fill="#3b3938"/><path d="M594.542,409.176a.485.485,0,0,1-.47-.367,20.113,20.113,0,0,0-4.663-7.543.484.484,0,0,1,.673-.7,20.949,20.949,0,0,1,4.93,8.005.485.485,0,0,1-.353.587A.491.491,0,0,1,594.542,409.176Z" transform="translate(-413.91 -282.336)" fill="#3b3938"/><path d="M473.422,435.449a.484.484,0,0,1-.47-.37L468.6,417.2a.484.484,0,0,1,.35-.583l1.7-.435a.484.484,0,0,1,.241.938l-1.234.316,4.238,17.419a.484.484,0,0,1-.471.6Z" transform="translate(-332.178 -292.989)" fill="#3b3938"/><path d="M403.507,438.334c-1.347,0-2-.573-2.152-1.217a1.567,1.567,0,0,1,1.212-1.8,16.591,16.591,0,0,0,4.617-3.012,12.1,12.1,0,0,1,3.652-2.471.5.5,0,0,1,.2-.009,57.159,57.159,0,0,0,6.706.373,27.71,27.71,0,0,1,3.353-1.275.484.484,0,0,1,.263.932,26.255,26.255,0,0,0-3.21,1.223c-.565.3-6.1-.148-7.153-.281a12.093,12.093,0,0,0-3.137,2.2,17.268,17.268,0,0,1-5.043,3.253.611.611,0,0,0-.519.638c.078.323.776.681,2.382.335a11.6,11.6,0,0,0,4.436-2.174,4.465,4.465,0,0,1,2.228-1.1,5.2,5.2,0,0,1,2.334.914,7.864,7.864,0,0,0,3.557,1.305,8.963,8.963,0,0,0,3.925-.906.484.484,0,1,1,.574.78,9.855,9.855,0,0,1-4.516,1.095,8.734,8.734,0,0,1-4.015-1.43,5.067,5.067,0,0,0-1.831-.79h-.012a4.241,4.241,0,0,0-1.684.921,12.593,12.593,0,0,1-4.793,2.331A6.593,6.593,0,0,1,403.507,438.334Z" transform="translate(-286.618 -301.619)" fill="#3b3938"/><path d="M468.558,470.319a.484.484,0,0,1-.274-.883A10.982,10.982,0,0,0,469.92,468c.143-.142.3-.3.466-.461a.484.484,0,0,1,.678.692c-.167.164-.319.315-.46.456a11.892,11.892,0,0,1-1.772,1.548A.484.484,0,0,1,468.558,470.319Z" transform="translate(-331.83 -327.692)" fill="#3b3938"/><path d="M281.364,151.78a.484.484,0,0,1-.165-.939,7.113,7.113,0,0,0,2.557-2.012c-2-2.323-4.79-7.708-4.79-11.283a.484.484,0,1,1,.968,0c0,3.5,2.88,8.882,4.784,10.906a.483.483,0,0,1,.066.575,7.77,7.77,0,0,1-3.254,2.724A.487.487,0,0,1,281.364,151.78Z" transform="translate(-203.75 -103.958)" fill="#3b3938"/><path d="M231.86,200.258c-3.106,0-11.217-2.955-14.024-4.755a.484.484,0,1,1,.523-.815c3.248,2.083,12.254,5.026,13.964,4.559,1.423-.386,5.391-10.575,6.5-14.029a.484.484,0,0,1,.922.3c-.045.139-4.7,13.994-7.173,14.666A2.811,2.811,0,0,1,231.86,200.258Z" transform="translate(-162.197 -136.346)" fill="#3b3938"/><path d="M212.033,224.667a.484.484,0,0,1-.449-.665,48.519,48.519,0,0,1,3.676-6,.484.484,0,1,1,.758.6,49.471,49.471,0,0,0-3.535,5.755A.484.484,0,0,1,212.033,224.667Z" transform="translate(-158.089 -158.657)" fill="#3b3938"/><path d="M153.966,192.145a.484.484,0,0,1-.342-.826,12.583,12.583,0,0,0,2.461-4.3.484.484,0,1,1,.925.286,13.494,13.494,0,0,1-2.7,4.7A.483.483,0,0,1,153.966,192.145Z" transform="translate(-118.761 -137.564)" fill="#3b3938"/><path d="M273.682,103.523a.476.476,0,0,1-.128-.017.484.484,0,0,1-.339-.594c.734-2.68,1.195-9.643-2.21-12.88a.484.484,0,1,1,.667-.7c3.755,3.57,3.29,10.864,2.477,13.837A.484.484,0,0,1,273.682,103.523Z" transform="translate(-198.256 -71.539)" fill="#3b3938"/><path d="M164.753,170.868a.484.484,0,0,1-.1-.957,6.519,6.519,0,0,0,2.2-1.127,4.707,4.707,0,0,0-1.385-.685.484.484,0,0,1-.316-.554.479.479,0,0,1,.508-.386,3.964,3.964,0,0,0,2.9-2.2.484.484,0,0,1,.917.311,4.963,4.963,0,0,1-2.436,2.472c.764.451.932.853.967,1a.483.483,0,0,1-.154.484,8.227,8.227,0,0,1-3,1.629A.471.471,0,0,1,164.753,170.868Z" transform="translate(-126.067 -122.633)" fill="#3b3938"/><path d="M183.125,147.108a.513.513,0,0,1-.079-.006l-.131-.021c-1.621-.256-2.979-.907-4.465-6.629-.968-3.73.091-5.586,1.4-6.08,1.358-.51,2.953.419,3.877,2.26a.484.484,0,1,1-.865.434c-.694-1.383-1.793-2.118-2.672-1.788-.947.356-1.563,2.018-.807,4.93,1.444,5.564,2.631,5.751,3.678,5.917l.138.022a.484.484,0,0,1-.078.962Z" transform="translate(-135.417 -102.041)" fill="#3b3938"/><path d="M186.937,151.237a.484.484,0,0,1-.268-.887c.729-.484.836-1.917.294-3.931a3.314,3.314,0,0,0-1.742-1.929.709.709,0,0,0-.459-.087.491.491,0,0,1-.626.291.477.477,0,0,1-.285-.616,1.011,1.011,0,0,1,1.054-.652,3.982,3.982,0,0,1,2.992,2.741c.677,2.514.438,4.239-.693,4.989A.487.487,0,0,1,186.937,151.237Z" transform="translate(-139.309 -108.267)" fill="#3b3938"/><path d="M188.443,157.384a.484.484,0,0,1-.437-.275,2.4,2.4,0,0,1-.082-2.163,1.89,1.89,0,0,1,1.56-.913.484.484,0,0,1,.109.962,1,1,0,0,0-.822.42,1.541,1.541,0,0,0,.109,1.276.485.485,0,0,1-.436.693Z" transform="translate(-141.939 -115.45)" fill="#3b3938"/><path d="M202,145.633a.484.484,0,0,1-.48-.424,4.532,4.532,0,0,0-1.717-2.626.485.485,0,0,1,.013-.795l1.279-.859-2.074-2.05a.484.484,0,1,1,.681-.689l2.495,2.466a.485.485,0,0,1-.07.746l-1.24.833a5,5,0,0,1,1.6,2.853.485.485,0,0,1-.481.544Z" transform="translate(-149.506 -104.628)" fill="#3b3938"/><path d="M247.45,124.91a.484.484,0,0,1-.27-.886,12.579,12.579,0,0,1,6.636-1.793.484.484,0,1,1,.032.967,11.679,11.679,0,0,0-6.128,1.629A.48.48,0,0,1,247.45,124.91Z" transform="translate(-182.077 -93.913)" fill="#3b3938"/><path d="M264,155.251c-.591,0-1.036-.609-1.036-1.416s.446-1.416,1.036-1.416,1.037.609,1.037,1.416S264.589,155.251,264,155.251Zm.066-.951h0Zm-.066-.827a.992.992,0,1,0,.068.362A.9.9,0,0,0,264,153.473Z" transform="translate(-192.911 -114.359)" fill="#3b3938"/><path d="M257.338,150.382a.5.5,0,0,1-.086-.008.484.484,0,0,1-.39-.562c.218-1.211,1.021-2.656,3.561-2.6a.484.484,0,0,1,.475.493.479.479,0,0,1-.493.475c-2.021-.036-2.448,1.009-2.59,1.8A.484.484,0,0,1,257.338,150.382Z" transform="translate(-188.773 -110.834)" fill="#3b3938"/><path d="M247.518,195.916H247.5a11.681,11.681,0,0,1-8.744-3.633.484.484,0,0,1,.705-.663,10.773,10.773,0,0,0,8.066,3.329.484.484,0,0,1-.014.968Z" transform="translate(-176.43 -140.806)" fill="#3b3938"/><path d="M162.92,225.965a.5.5,0,0,1-.38-.177.429.429,0,0,1-.039-.054c-2.128-3.41-13.852-15.354-20.169-17.107a.485.485,0,0,1-.341-.581,17,17,0,0,1,1.109-3.028.481.481,0,0,1,.469-.27c4.31.3,18.679,9.191,21.721,12.941a.486.486,0,0,1,.063.51c-.065.2-.332,1.275-.591,2.318-1.327,5.342-1.334,5.344-1.734,5.436A.478.478,0,0,1,162.92,225.965Zm-19.871-18.13c6.381,2.128,16.673,12.521,19.715,16.586.292-1.06.749-2.9,1.057-4.137.3-1.217.458-1.842.552-2.178-3.11-3.543-16.181-11.679-20.546-12.354A16.841,16.841,0,0,0,143.049,207.835Z" transform="translate(-110.968 -149.8)" fill="#3b3938"/><path d="M212.6,263.975a3.377,3.377,0,0,1-3.039-1.77.484.484,0,1,1,.86-.445,2.492,2.492,0,0,0,2.657,1.2c.248-.5-.117-2.977-.824-5.616l-1.153.167a.484.484,0,0,1-.139-.958l1.576-.228a.482.482,0,0,1,.536.349c.365,1.306,1.5,5.656.817,6.815a.822.822,0,0,1-.527.4A3.418,3.418,0,0,1,212.6,263.975Z" transform="translate(-156.704 -184.73)" fill="#3b3938"/><path d="M214.088,297.073h-.026a.484.484,0,0,1-.457-.51c.265-4.881.052-11.894-.3-13.15a.484.484,0,1,1,.933-.259c.407,1.462.587,8.759.332,13.461A.484.484,0,0,1,214.088,297.073Z" transform="translate(-159.268 -202.664)" fill="#3b3938"/><path d="M223.453,304.423a.418.418,0,0,1-.049,0,.483.483,0,0,1-.433-.53c.106-1.056.168-2.109.186-3.129a79.575,79.575,0,0,0-2.349-17.329.484.484,0,1,1,.921-.3,81,81,0,0,1,2.4,17.643c-.018,1.047-.082,2.126-.191,3.209A.484.484,0,0,1,223.453,304.423Z" transform="translate(-164.344 -202.664)" fill="#3b3938"/><path d="M211.93,473.241a.484.484,0,0,1-.474-.389c-.076-.38-1.858-9.34-2.054-12.729a16.706,16.706,0,0,1,.009-1.706.484.484,0,1,1,.967.047,15.829,15.829,0,0,0-.009,1.6c.192,3.321,2.018,12.5,2.037,12.595a.484.484,0,0,1-.38.569A.458.458,0,0,1,211.93,473.241Z" transform="translate(-156.623 -321.296)" fill="#3b3938"/><path d="M174.275,257.515a.485.485,0,0,1-.478-.411c-.369-2.421-.75-4.506-1.1-6.028-1.666-7.182-9.59-17.186-13.265-20.7a.484.484,0,1,1,.67-.7c3.745,3.586,11.826,13.808,13.538,21.186.359,1.546.745,3.655,1.117,6.1a.485.485,0,0,1-.406.552A.521.521,0,0,1,174.275,257.515Z" transform="translate(-122.688 -166.59)" fill="#3b3938"/><path d="M82.509,242.045a.484.484,0,0,1-.452-.656c2.052-5.406,5.5-12.951,8.453-16.425a41.684,41.684,0,0,1,5.133-4.605c2.081-1.685,4.233-3.428,4.628-4.405a.484.484,0,1,1,.9.363c-.489,1.21-2.54,2.871-4.916,4.8a41.169,41.169,0,0,0-5,4.48c-2.875,3.38-6.26,10.808-8.285,16.142A.484.484,0,0,1,82.509,242.045Z" transform="translate(-70.364 -157.184)" fill="#3b3938"/><path d="M46.377,475.3a.484.484,0,0,1-.484-.482c0-.436-.035-10.71.246-14.083a.484.484,0,1,1,.965.081c-.278,3.331-.243,13.892-.243,14a.484.484,0,0,1-.482.486Z" transform="translate(-45.891 -322.878)" fill="#3b3938"/><path d="M224.113,338.8h-.034c-.124-.008-12.48-.88-17.7-1.657a174.557,174.557,0,0,1-23.167-6.12.484.484,0,1,1,.354-.9,172.992,172.992,0,0,0,22.955,6.063c4.65.691,15.032,1.462,17.22,1.62,1.65-6.879,4.074-17.439,4.319-19.677-3.2-.407-18.8-3.255-30.6-5.427-1.68-.309-2.79-.513-2.924-.536a.486.486,0,0,1-.263-.135,59.652,59.652,0,0,1-5.3-6.11c-.527-.942-1.362-2.52-2.329-4.347-2.615-4.938-6.565-12.4-8.63-15.2-2.8-3.8-10.578-13.049-10.656-13.142a.484.484,0,1,1,.741-.623c.078.093,7.875,9.367,10.694,13.191,2.108,2.859,5.922,10.062,8.707,15.322.964,1.821,1.8,3.394,2.319,4.327a59.124,59.124,0,0,0,5.035,5.791c.374.067,1.343.246,2.783.511,7.245,1.333,29.291,5.39,30.94,5.46a.484.484,0,0,1,.456.4c.223,1.295-3.663,17.571-4.444,20.82A.485.485,0,0,1,224.113,338.8Z" transform="translate(-128.079 -195.643)" fill="#3b3938"/><path d="M228.632,409.176a.484.484,0,0,1-.47-.6,20.94,20.94,0,0,1,4.93-8.005.484.484,0,1,1,.673.7,20.116,20.116,0,0,0-4.663,7.543A.484.484,0,0,1,228.632,409.176Z" transform="translate(-169.331 -282.336)" fill="#3b3938"/><path d="M224.042,91.186a.506.506,0,0,1-.079-.006.484.484,0,0,1-.4-.556c.385-2.34,1.669-4.242,4.292-6.361a.484.484,0,0,1,.78.289,6.885,6.885,0,0,1-.224,2.873,17.862,17.862,0,0,0,3.565-3.7.484.484,0,0,1,.9.326,40.037,40.037,0,0,0-.5,3.973c2.319-2.25,4.177-5.49,4.459-7.884a.484.484,0,1,1,.961.113c-.343,2.912-2.676,6.777-5.548,9.19a.484.484,0,0,1-.777-.239,12.6,12.6,0,0,1,.165-3.456,33.256,33.256,0,0,1-2.739,2.536c-.539.461-1,.859-1.249,1.12a.484.484,0,0,1-.791-.538,8.547,8.547,0,0,0,.877-3.236,8.493,8.493,0,0,0-3.21,5.146A.485.485,0,0,1,224.042,91.186Z" transform="translate(-166.222 -65.118)" fill="#3b3938"/><path d="M197.254,112.025a.484.484,0,0,1-.34-.828,7.605,7.605,0,0,0,2.032-5.341.484.484,0,0,1,.836-.332,11.462,11.462,0,0,1,1.677,2.694c.466-1.192.992-2.945,1.437-4.424.318-1.058.593-1.972.781-2.462a.484.484,0,1,1,.9.346c-.175.458-.445,1.355-.758,2.4a38.535,38.535,0,0,1-1.939,5.555.484.484,0,0,1-.869-.043,18.938,18.938,0,0,0-1.2-2.382,8.265,8.265,0,0,1-2.223,4.683A.483.483,0,0,1,197.254,112.025Z" transform="translate(-148.08 -79.547)" fill="#3b3938"/><path d="M257.7,65.255l-.045,0a.484.484,0,0,1-.438-.527c.559-6.042-.519-9.65-3.6-12.062a.484.484,0,0,1,.219-.859,10.045,10.045,0,0,1,2.563-.032c-2.845-2.581-9.814-4.99-11.735-4.712a.484.484,0,0,1-.138-.958c2.465-.352,11.534,2.865,13.586,6.186a.484.484,0,0,1-.561.715,7.747,7.747,0,0,0-2.453-.326c3.394,3.347,3.449,8.195,3.084,12.137A.484.484,0,0,1,257.7,65.255Z" transform="translate(-180.145 -42.335)" fill="#3b3938"/><path d="M175.321,44.76a.485.485,0,0,1-.455-.649c1.246-3.439,3.916-7.641,13.585-9.621a.484.484,0,0,1,.508.731l-.2.325c-.258.412-.674,1.076-1,1.63,3.234-1.121,8.732-1.491,10.937-.617a.484.484,0,0,1-.357.9c-2.194-.869-8.574-.288-11.209,1.02a.533.533,0,0,1-.67-.065c-.328-.333-.252-.6,1.072-2.73-8.234,1.939-10.571,5.5-11.751,8.756A.485.485,0,0,1,175.321,44.76Z" transform="translate(-133.225 -34.48)" fill="#3b3938"/><path d="M150.692,65.31a.484.484,0,0,1-.245-.9,8.7,8.7,0,0,1,7.414-.313.484.484,0,0,1-.472.845,7.836,7.836,0,0,0-6.452.3A.482.482,0,0,1,150.692,65.31Z" transform="translate(-116.543 -54.077)" fill="#3b3938"/><path d="M131.574,92.487a.484.484,0,0,1-.481-.435c-.96-9.476,3.86-17.559,8.785-18.887a.484.484,0,1,1,.252.935c-4.55,1.227-8.985,8.861-8.074,17.855a.484.484,0,0,1-.433.53Z" transform="translate(-103.514 -60.67)" fill="#3b3938"/><path d="M145.9,137.363h-.033a.484.484,0,0,1-.45-.516l.084-1.232h-1.112a.484.484,0,0,1-.418-.728l1.191-2.039-2.8,1.253a.484.484,0,0,1-.632-.228c-.815-1.658-.408-4.183-.037-5.709a15.17,15.17,0,0,0-2.08,1.772.484.484,0,0,1-.822-.217c-.956-3.905.107-9.669.888-11.887a.484.484,0,1,1,.913.322,26.21,26.21,0,0,0-1.031,10.481,20.375,20.375,0,0,1,2.708-2.029.484.484,0,0,1,.711.57c-.013.039-1.236,3.651-.553,5.835l3.719-1.663a.484.484,0,0,1,.615.686l-1.527,2.612h.786a.484.484,0,0,1,.483.517l-.119,1.749A.484.484,0,0,1,145.9,137.363Z" transform="translate(-108.551 -90.713)" fill="#3b3938"/><path d="M369.307,431.8a6.787,6.787,0,0,1-2.914-.968.484.484,0,0,1,.5-.831,4.618,4.618,0,0,0,2.769.785c.1-.032.244-.081.423-.141,1.908-.651,7.712-2.63,11.139-.891a9.625,9.625,0,0,0,2.036.852.484.484,0,0,1-.173.953,9.717,9.717,0,0,1-2.3-.941c-3.064-1.555-8.577.326-10.388.944-.188.064-.338.115-.444.149A2.139,2.139,0,0,1,369.307,431.8Z" transform="translate(-262.803 -301.718)" fill="#3b3938"/><path d="M441.817,463.881a.484.484,0,0,1-.38-.785,4.442,4.442,0,0,0,1-2.5c-.24-.92-5.93-5.482-8.36-7.43-1.014-.813-1.815-1.455-2.163-1.766a.484.484,0,1,1,.643-.723c.33.293,1.122.929,2.125,1.733,5.712,4.58,8.629,7.09,8.719,8.1A5.456,5.456,0,0,1,442.2,463.7.483.483,0,0,1,441.817,463.881Z" transform="translate(-307.23 -316.284)" fill="#3b3938"/><path d="M436.213,476.093a.993.993,0,0,1-.128-.008.484.484,0,0,1,.125-.96.881.881,0,0,0,.452-.257,2.353,2.353,0,0,0,.767-1.242c-.422-.716-4.383-3.347-6.3-4.623-.8-.533-1.5-.994-1.928-1.3a.484.484,0,0,1,.558-.791c.421.3,1.108.754,1.9,1.283,5.368,3.565,6.754,4.673,6.741,5.387a3.142,3.142,0,0,1-1.118,2.029A1.7,1.7,0,0,1,436.213,476.093Zm1.235-2.431h0Z" transform="translate(-305.361 -327.302)" fill="#3b3938"/><path d="M430.7,482.426a.483.483,0,0,1-.371-.173c-.331-.3-4.3-2.678-6.72-4.1a.484.484,0,0,1,.491-.835c2.47,1.451,6.659,3.941,6.971,4.312a.484.484,0,0,1-.37.8Z" transform="translate(-301.556 -334.365)" fill="#3b3938"/><path d="M429.977,493.22a.939.939,0,0,1-.355-.073,42.764,42.764,0,0,1-4.227-1.9.484.484,0,0,1,.522-.815,39.541,39.541,0,0,0,4.07,1.816c.018-.013.152-.086.432-.544l.829.5C431.08,492.481,430.628,493.22,429.977,493.22Z" transform="translate(-302.774 -343.242)" fill="#3b3938"/><path d="M425.149,500.839a9.04,9.04,0,0,1-3.439-.795.484.484,0,1,1,.465-.849,7.936,7.936,0,0,0,3.254.673,2.676,2.676,0,0,0,.389-.47.484.484,0,1,1,.817.519,3.43,3.43,0,0,1-.649.748A1.455,1.455,0,0,1,425.149,500.839Zm.233-.93h0Z" transform="translate(-300.258 -349.186)" fill="#3b3938"/><path d="M373.941,478.67a.481.481,0,0,1-.3-.107c-1.309-1.056-3.094-2.77-3.309-3.017-.3-.347-.141-.72.775-2.645a18.534,18.534,0,0,0,1.089-2.553.9.9,0,0,1,1.106-.74c.962.2,2.125,1.778,1.757,3.807a.484.484,0,0,1-.953-.173,2.793,2.793,0,0,0-.542-2.35,1.1,1.1,0,0,0-.424-.329,18.051,18.051,0,0,1-1.159,2.753c-.285.6-.66,1.385-.78,1.737.469.469,1.922,1.847,3.048,2.756a.484.484,0,0,1-.3.861Z" transform="translate(-265.534 -329.172)" fill="#3b3938"/><path d="M385.744,484.968a1.164,1.164,0,0,1-.866-.513,4.135,4.135,0,0,1-.945-2.7,19.17,19.17,0,0,1,3.741-5.161,1.906,1.906,0,0,1,2.328.876.484.484,0,1,1-.858.448.965.965,0,0,0-1.037-.458,22.391,22.391,0,0,0-3.221,4.469,3.259,3.259,0,0,0,.906,2.071.484.484,0,0,1-.047.966Zm.063-.958Z" transform="translate(-274.828 -333.831)" fill="#3b3938"/><path d="M396.955,485.1a.486.486,0,0,1-.119-.015c-.8-.2-2.647-.775-2.676-1.766-.023-.787,3.84-7.223,4.28-7.689a2.168,2.168,0,0,1,1.753-.61,1.616,1.616,0,0,1,1.241.681,4.109,4.109,0,0,1,.566,1.546.484.484,0,1,1-.961.118,3.143,3.143,0,0,0-.42-1.141.683.683,0,0,0-.515-.24,1.232,1.232,0,0,0-.959.31,58.538,58.538,0,0,0-4,6.992,4.494,4.494,0,0,0,1.929.86.484.484,0,0,1-.118.953Zm-1.834-1.851" transform="translate(-281.77 -332.847)" fill="#3b3938"/><path d="M409.274,494.512a.5.5,0,0,1-.105-.012c-.087-.019-.187-.038-.3-.059a3.418,3.418,0,0,1-2.255-1.06,1.478,1.478,0,0,1-.195-1.165c.245-1.154,1.93-4.426,2.883-4.356a2.914,2.914,0,0,1,1.686.707.8.8,0,0,1,.216.593.484.484,0,0,1-.964.023,2.192,2.192,0,0,0-.9-.346,9.965,9.965,0,0,0-1.973,3.581.519.519,0,0,0,.054.428c.254.382,1.115.546,1.63.645.12.023.231.044.326.065a.484.484,0,0,1-.1.957Zm.119-5.712" transform="translate(-290.047 -341.548)" fill="#3b3938"/><path d="M360.491,474.292a.478.478,0,0,1-.25-.07c-1.071-.647-2.882-1.717-3.185-1.833a.484.484,0,1,1,.344-.9c.474.18,2.867,1.622,3.342,1.909a.484.484,0,0,1-.251.9Z" transform="translate(-256.428 -330.436)" fill="#3b3938"/><path d="M347.172,439.116a.481.481,0,0,1-.111-.013l-1.74-.406a.484.484,0,0,1,.22-.943l1.27.3,3.863-16.448a.484.484,0,0,1,.943.221l-3.974,16.918A.485.485,0,0,1,347.172,439.116Z" transform="translate(-248.438 -296.421)" fill="#3b3938"/><path d="M158.109,388.994a.481.481,0,0,1-.23-.058c-10.489-5.672-22.3-23.116-24.061-28.768a.484.484,0,0,1,.924-.288c1.727,5.54,13.309,22.641,23.6,28.2a.484.484,0,0,1-.231.91Z" transform="translate(-105.428 -254.639)" fill="#3b3938"/><path d="M113.264,283.244a.485.485,0,0,1-.47-.37c-1.519-6.274-1.365-11.783.456-16.375,2.3-5.809,7.878-7.674,11.936-6.121a.484.484,0,0,1-.346.9c-3.057-1.169-8.394-.214-10.69,5.574-1.746,4.4-1.886,9.714-.415,15.79a.484.484,0,0,1-.357.584A.478.478,0,0,1,113.264,283.244Z" transform="translate(-90.502 -187.124)" fill="#3b3938"/><path d="M46.757,350.639h0a.484.484,0,0,1-.481-.488c.067-9.814,6.567-38.486,9.928-45.884a.484.484,0,0,1,.882.4c-3.332,7.333-9.774,35.759-9.841,45.491A.484.484,0,0,1,46.757,350.639Z" transform="translate(-46.15 -217.012)" fill="#3b3938"/><path d="M154.221,248.6a.485.485,0,0,1-.446-.3c-1.757-4.167-7.5-11.485-11.461-15.245a26.98,26.98,0,0,0-4.541-3.241c-.682-.416-1.27-.775-1.707-1.1a.484.484,0,0,1,.572-.781c.4.3.976.645,1.639,1.049a27.763,27.763,0,0,1,4.7,3.366c4.039,3.833,9.832,11.17,11.687,15.571a.485.485,0,0,1-.446.672Z" transform="translate(-106.831 -165.447)" fill="#3b3938"/><g transform="translate(90.814 74.982)"><g transform="translate(46.425 13.884)"><path d="M471.646,345.481a.484.484,0,0,1-.4-.757,101.425,101.425,0,0,0,6.017-10.058.484.484,0,0,1,.864.437,102.27,102.27,0,0,1-6.082,10.167A.483.483,0,0,1,471.646,345.481Z" transform="translate(-471.162 -326.479)" fill="#3b3938"/><path d="M498.379,314.305a.484.484,0,0,1-.36-.807,9.206,9.206,0,0,0,1.742-3.286.484.484,0,0,1,.936.248,10.04,10.04,0,0,1-1.956,3.684A.482.482,0,0,1,498.379,314.305Z" transform="translate(-489.268 -309.853)" fill="#3b3938"/></g><g transform="translate(39.053 5.981)"><path d="M448.8,326.085a.484.484,0,0,1-.439-.688,99.949,99.949,0,0,0,4.834-12.955.484.484,0,1,1,.931.263,100.881,100.881,0,0,1-4.886,13.1A.484.484,0,0,1,448.8,326.085Z" transform="translate(-448.316 -303.465)" fill="#3b3938"/><path d="M469.058,290.106a.484.484,0,0,1-.416-.732,9.2,9.2,0,0,0,1.078-3.56.484.484,0,0,1,.966.064,10.037,10.037,0,0,1-1.212,3.991A.484.484,0,0,1,469.058,290.106Z" transform="translate(-462.036 -285.364)" fill="#3b3938"/></g><g transform="translate(30.04)"><path d="M421.68,317.489l-.039,0a.484.484,0,0,1-.444-.521,119.831,119.831,0,0,0,.094-16.046.484.484,0,0,1,.966-.071,120.926,120.926,0,0,1-.095,16.195A.484.484,0,0,1,421.68,317.489Z" transform="translate(-420.935 -289.567)" fill="#3b3938"/><path d="M421.13,272.5a.485.485,0,0,1-.476-.575,11.083,11.083,0,0,0-.246-4.479.484.484,0,0,1,.93-.27,11.891,11.891,0,0,1,.267,4.931A.484.484,0,0,1,421.13,272.5Z" transform="translate(-420.388 -266.83)" fill="#3b3938"/></g><g transform="translate(13.248 6.014)"><path d="M369.71,290.117a.484.484,0,0,1-.478-.409,23.863,23.863,0,0,0-.848-3.588.484.484,0,1,1,.905-.343,24.254,24.254,0,0,1,.9,3.78.484.484,0,0,1-.4.553A.506.506,0,0,1,369.71,290.117Z" transform="translate(-368.353 -285.466)" fill="#3b3938"/><path d="M379.2,325.039a.484.484,0,0,1-.466-.353c-1.392-4.967-3.808-13.434-4.361-15.013a.484.484,0,0,1,.914-.32c.565,1.612,2.929,9.9,4.38,15.073a.485.485,0,0,1-.466.615Z" transform="translate(-372.411 -301.424)" fill="#3b3938"/></g><g transform="translate(0 13.989)"><path d="M329.148,314.27a.484.484,0,0,1-.434-.268,28.618,28.618,0,0,1-1.387-3.184.484.484,0,1,1,.917-.31,27.612,27.612,0,0,0,1.337,3.063.484.484,0,0,1-.433.7Z" transform="translate(-327.302 -310.178)" fill="#3b3938"/><path d="M343.361,344.044a.484.484,0,0,1-.4-.215c-3.336-5-6.828-10.317-7.434-11.895a.484.484,0,1,1,.9-.348c.65,1.69,5.507,8.966,7.336,11.7a.484.484,0,0,1-.4.753Z" transform="translate(-332.848 -324.468)" fill="#3b3938"/></g></g></g></g></g></svg>