<?xml version="1.0" encoding="utf-8"?>
<!-- Generator: Adobe Illustrator 25.4.1, SVG Export Plug-In . SVG Version: 6.00 Build 0)  -->
<svg version="1.1" id="レイヤー_1" xmlns="http://www.w3.org/2000/svg" xmlns:xlink="http://www.w3.org/1999/xlink" x="0px"
	 y="0px" viewBox="0 0 1269.6 613.6" style="enable-background:new 0 0 1269.6 613.6;" xml:space="preserve">
<style type="text/css">
	.st0{fill:#4AD160;}
	.st1{fill:#FFFFFF;}
	.st2{fill:#3B3938;}
	.st3{fill:#3D7A95;}
	.st4{fill:#FFE848;}
	.st5{fill:#6AAFFF;}
	.st6{enable-background:new    ;}
	.st7{fill:none;}
	.st8{fill:none;stroke:#4AD160;stroke-width:5;}
	.st9{opacity:0.41;fill:#C6CDD1;enable-background:new    ;}
	.st10{opacity:0.29;fill:#4AD160;enable-background:new    ;}
	.st11{fill:#BAC2C7;}
	.st12{stroke:#000000;stroke-width:2;}
	.st13{fill:#4AD160;stroke:#4AD160;stroke-width:2;}
</style>
<g id="グループ_1757" transform="translate(-300 -1951.287)">
	<g id="グループ_1704" transform="translate(1019.065 2265.222)">
		<path id="楕円形_173" class="st0" d="M67.6,34.2c71.1,1.2,71.1,107,0,108.2C-3.5,141.2-3.5,35.4,67.6,34.2z"/>
		<path id="パス_2320" class="st1" d="M75,5.2c-1.9-2.3-6-3.9-11.5-3.7c0.4,1.5,0.6,3,0.4,4.6c0,0-12.9-1.6-16.2,2.6
			c0.8,1.1,2,1.3,2.9,2.3c-1.6,0.7-9.5,3.4-10.3,5.3c0.9,0.3,1.8,0.8,2.5,1.4c0,0-8.9,6-9.8,9.6c1.1-0.3,3-0.6,4.2,0
			c-1.8,1.4-7.1,11.7-7,14.9c1.1-0.5,2.4-0.6,3.6-0.4c-1.3,1.8-2.9,8.4-2.4,11c0.5-0.1,2.8-0.6,2.8-0.6s0.2,9.5,2,12.5
			c-1.9,6,0.7,13.6,6.7,16.2c0.7,2.8,3.2,13.7,5.9,16.9c0,1.8,0,9.4,0,9.4C26.6,124.4-2,118.3,0.8,156H134
			c0.1-6.1-0.1-22.8-7.1-28.2c-10-6.1-25.1-12.5-34.8-16.8c-0.9-0.2-5.4-2.5-5.7-3.8s-0.3-9.9-0.3-9.9c1.9-2.3,5.5-13,6-16.9
			c6-2.2,8.3-10,7-16c0,0,1.5-4.6,1.8-6.1s0.3-6.6,0.3-6.6l2,0.7c0-2-1.2-12-1.9-14.1c1,0.4,2,0.6,3,0.8c0,0-2.6-10.6-3.1-11.5
			c-0.3-0.8,1.9-0.5,1.9-0.5C102,25,97,15.6,93.4,13.8c1.1-0.4,2.2-0.8,3.4-1.1c-0.9-1.2-7.3-5.2-12.5-3.9c-0.7-2.1-3.2-7.8-6.5-8.1
			C78.3,1.5,75.2,5,75,5.2z"/>
		<g id="グループ_1698" transform="translate(3.544 3.195)">
			<path id="楕円形_174" class="st2" d="M50.1,61.9c2.6,0,2.6,4,0,4C47.5,65.9,47.5,61.9,50.1,61.9z"/>
			<path id="楕円形_175" class="st2" d="M77.9,61.9c2.6,0,2.6,4,0,4C75.3,65.9,75.3,61.9,77.9,61.9z"/>
			<path id="パス_2321" class="st3" d="M20.7,120.1c5-2.2,20.1-8.5,20.1-8.5c1.2,12.1,4.2,32.1,7.2,41.2H0
				C0,136.8,3.2,125.5,20.7,120.1z"/>
			<path id="パス_2322" class="st3" d="M107.3,120.1c-5-2.2-20.1-8.5-20.1-8.5C86,123.7,83,143.7,80,152.8h48
				C128,136.8,124.8,125.5,107.3,120.1z"/>
			<path id="パス_2323" class="st4" d="M60.8,119.2l6.8-0.5l1.6,5.1l-0.5,8.6c1.5,3.1,2.3,17.4,2.7,20.3h-12l2-19.9
				c0,0-1.1-3.1-1.5-3.6s-0.3-7.7-0.3-7.7L60.8,119.2z"/>
			<path id="パス_2324" class="st3" d="M95.4,33.6c1,0,2.1,0.1,3.1,0.3c0,0-2.5-9.4-3.9-11.2c0.7,0.1,1.4,0.1,2.1,0
				c0,0-5.7-9.7-10.2-11.4c0.8-1,1.7-1.9,2.6-2.7c-2.2-1.7-7.4-1.8-10.9-1.4c0.1-2.7-0.6-5.7-3.4-7.1c-0.3,1.7-1.7,3.6-2.9,4.9
				c-2.4-2.2-5.4-3.7-8.7-4.3c0.8,2,1.4,4,1.8,6.1c-3.5-1.8-12.5-3-16.6-1.6c1.8,1,3.3,2.2,4.7,3.6c-3.4,0.9-6.6,2.3-9.6,4.1
				c0.9,0.1,1.6,0.5,2.3,1.1c-2.8,0.6-7.7,3.6-9.2,5.9c0.9,0.3,1.9,0.7,2.8,1.1c-4,4.7-8,9.6-9.8,15.6c0.9-0.1,1.7-0.1,2.6,0
				c-0.9,2-3.1,9.2-2.6,12.5h1.1c0,1.5,0.6,11.1,2,12.8l3.5-1.3c-1.2-9.4,3.7-15.9,10-21.3L46,44c2-1.1,11.5-8.1,13.4-10l-1.3,9.1
				c4.6-2.4,11.1-10.3,15.3-15c0.7,4.2,7.3,11.6,9.2,13.9l1-5.8c1,2.4,7,10.5,9.2,13.7c0.1,2.6-0.4,8.3-0.8,11l3.2,0.8
				C99.6,53.2,96.7,42.7,95.4,33.6z"/>
		</g>
		<g id="グループ_1703" transform="translate(0 0)">
			<path id="パス_2325" class="st2" d="M53.6,69.9c-7-1.4,1.3-9.7,2.7-2.7l0,0C56.4,68.6,55.1,69.9,53.6,69.9z M53.6,65.9
				c-3.1,0.6,0.6,4.3,1.2,1.2l0,0C54.8,66.5,54.3,65.9,53.6,65.9z"/>
			<path id="パス_2326" class="st2" d="M49.3,65.6c-2.4-1.7,2.6-4.6,4.5-4.3c1.8-0.2,5.8,2.1,4.2,4c-1.4,0.2-1.7-2.8-4.2-2.5
				C51.6,62.5,50.6,64.7,49.3,65.6z"/>
			<path id="パス_2327" class="st2" d="M81.4,69.9c-3.5,0.1-3.5-5.5,0-5.4C84.8,64.5,85.1,69.9,81.4,69.9z M81.4,65.9
				c-3.1,0.6,0.6,4.3,1.2,1.2l0,0C82.7,66.5,82.1,65.9,81.4,65.9z"/>
			<path id="パス_2328" class="st2" d="M85.8,65.6c-2-2.3-5.9-4.5-7.7-0.5c-0.5,1-1.9,0-1.3-0.8C79.6,57.8,89.5,64.2,85.8,65.6z"
				/>
			<path id="パス_2329" class="st2" d="M67.4,83.8c-1.4,0-4.6-1.2-3.5-2.9c1.3-0.3,2.2,1.6,3.7,1.3c0.9-0.2,1.3,1.3,0.3,1.5
				c0,0,0,0-0.1,0C67.7,83.8,67.5,83.8,67.4,83.8z"/>
			<path id="パス_2330" class="st2" d="M67.3,93.1c-3.3,0.8-12.9-3.3-7.9-3.6c7.1,6,21.4-3,18.4,1C74.6,92.2,71,93.1,67.3,93.1z"
				/>
			<path id="パス_2331" class="st2" d="M69.3,97.7c-1.4-0.1-5.2-0.4-4.6-2.3c1.4-0.9,3.4,1.3,5.2,0.7C71.4,96.3,70.4,98,69.3,97.7
				z"/>
			<path id="パス_2332" class="st2" d="M88.3,52.5c-3.7-3.2-9.1-3.4-12.9-0.9c-0.4,0.2-0.8,0.1-1-0.3
				C76.4,45.3,92.5,49.9,88.3,52.5L88.3,52.5z"/>
			<path id="パス_2333" class="st2" d="M46.4,52.7c-3.7-3.7,15.2-6.5,13.7-0.9c-0.3,0.3-0.8,0.2-1.1-0.1
				c-3.4-2.9-8.9-1.5-12.2,0.9C46.7,52.6,46.5,52.7,46.4,52.7z"/>
			<g id="グループ_1699" transform="translate(34.668 62.826)">
				<path id="パス_2334" class="st2" d="M60.1,17.3c-0.7,0.1-1.1-1-0.5-1.4c1.5-1.1,3.5-3.2,4.4-8.4c0.7-4.2-0.9-7.5-3.7-5.2
					c-0.3,0.3-0.8,0.2-1.1-0.1c-0.7-2,3-2.6,4.3-1.9C68.8,3.1,63.6,16.9,60.1,17.3z"/>
				<path id="パス_2335" class="st2" d="M35.4,45.2c-0.9,0-1.1-1.4-0.1-1.6c4.3-0.6,10.5-4.4,15.8-9.7c3.5-3.5,5.7-15.9,6.2-21
					c0.1-0.4,0.4-0.7,0.9-0.7c2.3,14.9-9,30.3-22.6,32.8C35.4,45.2,35.4,45.2,35.4,45.2z"/>
				<path id="パス_2336" class="st2" d="M5.6,17.3C0.5,16.8-4.2-4.8,6.4,1.1c0.8,0.7-0.2,1.8-1,1.2l0,0C2.5,0,1,3.3,1.7,7.5
					C1.8,13.3,8.5,16.8,5.6,17.3L5.6,17.3z"/>
				<path id="パス_2337" class="st2" d="M30.4,45.2C14.9,41.5,8.1,29.7,7,13.1c0-1,1.4-1,1.5-0.1l0,0c1.1,16,7.2,27,22,30.7
					C31.3,43.8,31.3,45.2,30.4,45.2L30.4,45.2z"/>
			</g>
			<path id="パス_2338" class="st2" d="M41.4,53.5c-3.5-0.1,12.4-21,8.6-7.5c10.2-4.3,16.4-21.8,12.2-0.9
				c4.1-2.5,11.2-10.5,13.8-14.4c0.2-0.4,0.7-0.4,1.1-0.2c2,1.3-15,19.7-16.5,16c0.2-2.6,0.5-5.2,1-7.8c-2.1,2.1-15.3,15.3-13,5.6
				C45.5,46.7,43.9,50.8,41.4,53.5z"/>
			<path id="パス_2339" class="st2" d="M95.6,51.6c-0.2,0-0.3-0.1-0.4-0.1c-2.5-1.8-5.9-6.9-8-10.7c-0.4,1.4,1,6.3-1.2,5.4
				c-1.4-1.1-7.5-8.2-7.7-10.9c0-1,1.4-1,1.5-0.1l0,0c0.1,1.5,3.7,6.3,5.9,8.6c0.1-2.8-0.3-7.3,1.9-5.5c1.9,3.8,5.9,10.2,8.5,12.1
				c0.3,0.2,0.4,0.7,0.2,1.1C96,51.5,95.8,51.6,95.6,51.6L95.6,51.6z"/>
			<path id="パス_2340" class="st2" d="M95.5,61.2c-0.5,0.1-0.8-0.5-0.7-1l0,0c0.3-0.8,0.7-1.7,1.2-2.4c-3.5,0.9-0.8-2.6,0.3-3.7
				c-1.1,0.4-3.9,1.2-2.4-0.8c1.1-0.8,6.1-1.4,4.6,0.8c-0.8,0.6-1.5,1.3-2.1,2.1c1-0.4,3.2,0.3,1.8,1.5C97,58.1,96.8,60.8,95.5,61.2
				z"/>
			<path id="パス_2341" class="st2" d="M39.5,61.5c-1.3-0.3-0.8-2.6-2-3.3c-1.2-0.8,0.7-2,1.5-1.4c-5.7-6.4,7.2-1.5,1.9-1l0,0
				c-0.3-0.2-0.7-0.4-1-0.5c0.7,0.9,2.6,4.1-0.1,3.2C40.2,59.4,41.2,61.4,39.5,61.5z"/>
			<path id="パス_2342" class="st2" d="M75,6c-2.1-2.3-7.9-4.4-11-3.6c-0.4,0.1-0.8-0.2-0.9-0.6c0.5-2.9,14,0.6,12.3,4.1
				C75.3,5.9,75.1,6,75,6z"/>
			<path id="パス_2343" class="st2" d="M47.6,9.5c-4.8-3.3,16.9-6.3,19.2-3.1c0.9,0.4,0,2-0.9,1.3l0,0C62.3,5.4,52.1,6.2,47.6,9.5
				z"/>
			<path id="パス_2344" class="st2" d="M33,28c-2.9-1.3,6.4-9.4,8.2-10.4c-7.3-1.1,8.2-7.4,10.2-7.4c4.5,1-8.8,3.9-9.8,5.8
				c1,0,3.3,1.6,1.6,2.3C40.2,18.8,35.5,25.1,33,28z"/>
			<path id="パス_2345" class="st2" d="M31.3,53.5c-2.6-2.2,0.9-10.8,1.2-11.1c-10.8,5.1,7.7-24,6.9-16.5l0,0
				c-2.8,2.3-7.9,10.8-8.7,15.3c1-0.2,4.2-1.2,3.7,0.7c-1.4,2.5-2.6,4.6-2.4,10.8C32.1,53.1,31.8,53.5,31.3,53.5L31.3,53.5
				L31.3,53.5z"/>
			<path id="パス_2346" class="st2" d="M83.4,7.6c-0.3,0-0.6-0.2-0.7-0.6c-1-3.7-3-4.8-5-5.5C75.3-3.3,86.8,4.5,83.4,7.6L83.4,7.6
				z"/>
			<path id="パス_2347" class="st2" d="M97.1,13.1c-2.2-2.3-7.4-4.7-10.4-4.1c-4.9-3.5,12.5-0.6,10.8,4.1
				C97.4,13.1,97.2,13.1,97.1,13.1L97.1,13.1z"/>
			<path id="パス_2348" class="st2" d="M104.6,39.8c-0.4,0-0.7-0.3-0.8-0.7c-0.3-4-3.6-11.7-3.7-11.7c-0.4-1.2,1.1-1.1,2.1-1.2
				c-1.5-3.8-5.9-10-9-11.6c-1.1-6.5,16.3,15.3,8.7,13.2C102.3,29.6,106.8,38,104.6,39.8L104.6,39.8z"/>
			<path id="パス_2349" class="st2" d="M100.2,62.1c-0.5,0-1-0.6-0.7-1.1l0,0c0.7-1.7,0.9-7.1,0.8-9.4c0.1-1.3,1.4-0.5,2.1-0.2
				c0.7-1.8-3.8-16.4-0.4-13.3l0,0c-0.2,0.3,4.9,18.3-0.2,14.5C101.5,55.2,102.2,60.7,100.2,62.1z"/>
			<path id="パス_2350" class="st2" d="M35,62.3c-1.8,1.1-2.9-15.8,0.1-11.2l0,0C33.6,54.2,36.7,61.9,35,62.3z"/>
			<g id="グループ_1702" transform="translate(0 99.892)">
				<g id="グループ_1700" transform="translate(68.191)">
					<path id="パス_2351" class="st2" d="M18.3,8.5c-0.4,0-0.7-0.3-0.8-0.7c-0.2-2.6-0.3-7-0.3-7c0.1-1,1.5-1.1,1.6-0.1
						C18.4,0.3,20,8.6,18.3,8.5C18.4,8.5,18.3,8.5,18.3,8.5z"/>
					<path id="パス_2352" class="st2" d="M0.8,18.3c-0.9,0-1-1.3-0.1-1.5c3.9-1,12.9-5.2,15.7-8.2c0.3-0.3,0.8-0.3,1.1,0
						C17.2,12.6,4.1,17.1,0.8,18.3z"/>
					<path id="パス_2353" class="st2" d="M8.6,34.3c-1.9-0.6-6.5-12-7.8-14.4c-0.3-0.8,1.1-1.5,1.4-0.5l0,0
						c2.5,5.1,5.3,10.8,6.4,12.9c3.4-4.1,10-19,11.9-20.8C23.3,13,9.9,33.1,9.1,34.2C8.9,34.2,8.8,34.3,8.6,34.3z"/>
					<path id="パス_2354" class="st2" d="M65.8,56.9C62.7,24.5,61.2,29.7,36,17.7C29.3,15,15.2,8.8,20.9,8.6
						C42.7,23,71.3,19.1,65.8,56.9z"/>
					<path id="パス_2355" class="st2" d="M15.3,56.9c-0.5,0-1-0.6-0.7-1.1l0,0c3-7.4,6.6-32.7,7.3-42.6c0-1,1.7-0.9,1.5,0.1l0,0
						C22.3,23.5,19.8,49.9,15.3,56.9z"/>
					<path id="パス_2356" class="st2" d="M24.3,56.9c-0.6,0-1.1-0.8-0.6-1.3c2.4-3.2,6.9-13.9,7.9-16.3c-6.3-6.5-7.9-4.7,0-10.7
						c0.2-0.6-5.9-13.5-4.1-13.5c1.2-1.4,5.3,13.5,5.7,13.7c0.7,0.9-5,4.4-5.3,4.9c0.2,0.5,5.9,5.2,5.3,5.8
						C32.8,39.9,27.9,54,24.3,56.9z"/>
				</g>
				<g id="グループ_1701">
					<path id="パス_2357" class="st2" d="M48.6,8.5C48.5,8.5,48.5,8.5,48.6,8.5c-0.5,0-0.8-0.4-0.8-0.8c0.2-2.5,0.3-6.9,0.3-6.9
						c2.4-2.9,1.3,3.9,1.2,7.1C49.3,8.2,49,8.5,48.6,8.5z"/>
					<path id="パス_2358" class="st2" d="M66.1,18.3c-1.5,0.4-21.7-9.1-15.5-9.7c2.8,2.9,11.8,7.2,15.7,8.2
						C67.1,17,66.9,18.3,66.1,18.3L66.1,18.3z"/>
					<path id="パス_2359" class="st2" d="M58.3,34.3c-0.4,1.5-17-26.2-11.1-22.2c0.3,2.3,8.5,16.5,11,20.2
						c0,1.4,7.2-17.6,7.8-12.3l0,0C64.7,22.4,60,33.6,58.3,34.3L58.3,34.3z"/>
					<path id="パス_2360" class="st2" d="M0.8,56.9c-2-32.7,6.4-29,29-40.4c7.5-3.2,14.6-6.3,16-7.9c0.7-0.8,1.9,0.3,1.2,1l0,0
						c-5.8,4.9-34.6,14.6-39.6,20C3.6,32.9,2.5,39.2,0.8,56.9L0.8,56.9z"/>
					<path id="パス_2361" class="st2" d="M51.5,56.9c-3.9-7-8.5-34.9-7.4-44.3c2.7,9,4.3,35.8,8.1,43.3C52.5,56.4,52,57,51.5,56.9
						L51.5,56.9z"/>
					<path id="パス_2362" class="st2" d="M42.6,56.9c-3.5-2.9-8.3-17-8.9-17.4c-0.6-0.6,5.1-5.3,5.3-5.8c-0.3-0.6-6.1-4-5.3-4.9
						c0,0,4.7-13.2,4.7-13.2c0.4-0.9,1.7-0.3,1.5,0.5c0,0-4.5,12.7-4.5,12.7c0.4,0.7,6.6,4.2,5.4,5.3c0,0,0,0.1-0.1,0.1l-5.4,5.3
						c1,2.4,5.5,13.1,7.9,16.3c0.3,0.3,0.2,0.8-0.1,1.1C42.9,56.8,42.8,56.9,42.6,56.9L42.6,56.9z"/>
				</g>
			</g>
			<path id="パス_2363" class="st2" d="M67.6,137.1c-7,1.6-6.2-11.5-3.9-7.4c-0.4,7.4,3.5,6.3,8.4,5.3
				C75.8,136.4,68.8,137.3,67.6,137.1z"/>
			<path id="パス_2364" class="st2" d="M72.1,134.1c-0.4,0-0.8-0.5-0.7-0.9l0,0c0.4-1-0.5-6.9,1.6-4.1l0,0
				C72.9,130.6,73.7,133.4,72.1,134.1z"/>
			<path id="パス_2365" class="st2" d="M68.9,122.8c-1-0.1-4.8,0.4-2.8-1.4c1.1-0.1,3.7-0.7,3.6,1
				C69.5,122.6,69.2,122.8,68.9,122.8L68.9,122.8z"/>
			<path id="パス_2366" class="st2" d="M61,156.8c-0.4,0-0.8-0.4-0.8-0.8l0,0c0.2,0,1-23.9,3.5-18.3c-0.7,2.8-1.9,15.4-1.9,18.3
				C61.7,156.4,61.4,156.8,61,156.8z"/>
			<path id="パス_2367" class="st2" d="M74.9,156.8c-1.6,0.1-1.7-17.3-2.7-19c-0.1-0.4,0.2-0.8,0.6-0.9
				C74.4,136.4,76.6,157.4,74.9,156.8L74.9,156.8z"/>
		</g>
	</g>
	<g id="グループ_1718" transform="translate(1337.755 2039.754)">
		<path id="楕円形_177" class="st0" d="M69.4,27.5c74.8,1.3,74.8,112.5,0,113.8C-5.4,140-5.4,28.8,69.4,27.5z"/>
		<path id="パス_2420" class="st1" d="M139,148.2c-4.3-23.8-37.4-27.2-52.5-42.2l-0.7-10.3c1.1-1.7,2.4-3.2,3.9-4.6
			c1.7,1.8,12.3,4.2,17.2,4.1c26-49.1-16.8-132.8-70.7-75.1c-13.1,22.4-20.5,57.2-4,79.7c4.4,1.9,15.2-1.3,22.3-4.6
			c5.7,27.5-56.3,23.5-53.7,60.4H140C140,155.6,139.5,150.8,139,148.2z"/>
		<g id="グループ_1712" transform="translate(3.939 3.74)">
			<path id="楕円形_178" class="st2" d="M51.8,57.1c2.7,0,2.7,4.2,0,4.2C49.1,61.3,49.1,57.1,51.8,57.1z"/>
			<path id="楕円形_179" class="st2" d="M81.1,57.1c2.7,0,2.7,4.2,0,4.2C78.4,61.3,78.4,57.1,81.1,57.1z"/>
			<path id="パス_2421" class="st3" d="M22.6,122.2c6-3.1,22.4-11.1,23.5-11.4c0.3,9.4,2.5,31.8,3.9,41H0
				C-0.7,134.3,9.2,130.1,22.6,122.2z"/>
			<path id="パス_2422" class="st3" d="M110.3,122.2c-6-3.1-22.4-11.1-23.5-11.4c-0.3,9.4-2.5,31.8-3.9,41h49.9
				C133.5,134.6,123.7,130,110.3,122.2z"/>
			<path id="パス_2423" class="st3" d="M66.5,0.2c43.1,1.5,48.1,62.7,34.3,91.5c-1.1,0.6-13.1-0.5-16.9-1.9
				c17.6-18.3,10.3-55.9-8-71c-3.4-6.4-17.5,1.1-22.6,6.1C34,42.5,33.5,74.5,51.7,92.1c-4.3,3.8-15.6,5.7-19.5,4.8
				C8.8,70.6,24.9,2.7,66.5,0.2z"/>
		</g>
		<g id="グループ_1717" transform="translate(0 0)">
			<path id="パス_2424" class="st2" d="M55.8,65.8c-3.8,0.1-3.8-5.9,0-5.8C59.6,59.9,59.6,65.9,55.8,65.8z M55.8,61.7
				c-1.7,0-1.7,2.6,0,2.6C57.5,64.3,57.4,61.7,55.8,61.7z"/>
			<path id="パス_2425" class="st2" d="M51.2,61.4c-2.7-1.5,3-4.9,4.8-4.5c1.9-0.2,6,2.2,4.4,4.2c-0.4,0.2-0.9,0-1.1-0.4
				C57.1,56.7,53.3,58.8,51.2,61.4z"/>
			<path id="パス_2426" class="st2" d="M85,65.8c-7.5-1.6,1.3-10.4,2.9-2.9l0,0C87.9,64.5,86.6,65.8,85,65.8z M85,61.7
				c-1.7,0-1.7,2.6,0,2.6C86.7,64.3,86.7,61.7,85,61.7z"/>
			<path id="パス_2427" class="st2" d="M89.6,61.4c-2.1-2.6-5.9-4.7-8.1-0.7c-0.5,1-2,0.3-1.5-0.7l0,0
				C82.5,53.4,93,59.3,89.6,61.4z"/>
			<path id="パス_2428" class="st2" d="M70.8,88c-2.4,0.5-13.4-2.1-8.7-3.3c4,2.2,14.2,2.7,19.4-0.9c0.9-0.7,1.8,0.9,0.9,1.3l0,0
				C79.5,87.1,75.1,88,70.8,88z"/>
			<path id="パス_2429" class="st2" d="M69.5,79.4c-1.1,0-4.2-1.4-2.9-2.7c0.4-0.3,0.9-0.2,1.1,0.2l0,0c0.5,0.5,1.1,0.9,1.8,0.9
				C70.5,77.8,70.6,79.5,69.5,79.4L69.5,79.4z"/>
			<path id="パス_2430" class="st2" d="M71.5,92.7c-1.4-0.1-5.3-0.5-4.6-2.5c0.3-0.3,0.8-0.4,1.1-0.1l0,0c1.5,1,3.4,1.3,5.1,0.8
				c0.9-0.5,1.5,1.1,0.6,1.4C73,92.5,72.2,92.7,71.5,92.7z"/>
			<path id="パス_2431" class="st2" d="M92.6,47.6c-2.9-3.5-9.6-5.2-13.2-2.3c-0.3,0.3-0.8,0.3-1.1-0.1c0.5-4.9,15.3-3.5,14.7,2.2
				l0,0C92.9,47.5,92.7,47.6,92.6,47.6z"/>
			<path id="パス_2432" class="st2" d="M47.4,47.9c-4.2-2.8,14-9.9,16.1-2.8c-0.2,0.4-0.7,0.5-1.1,0.2
				C57.8,42,51.9,43.6,47.4,47.9z"/>
			<g id="グループ_1713" transform="translate(45.497 81.204)">
				<path id="パス_2433" class="st2" d="M23.4,22C23.3,22,23.3,22,23.4,22C11.5,22.7-5.4-2.6,1.6,0.6C2.8,5.7,11.9,19,23.5,20.4
					C24.6,20.4,24.4,22.1,23.4,22L23.4,22z"/>
				<path id="パス_2434" class="st2" d="M26.4,22c-1,0-1.1-1.6,0-1.6C39.4,19,46,4.5,49.2,0C50.7,5.8,38.6,20.3,26.4,22
					C26.5,22,26.5,22,26.4,22z"/>
			</g>
			<g id="グループ_1716" transform="translate(0 97.291)">
				<g id="グループ_1714" transform="translate(0 0)">
					<path id="パス_2435" class="st2" d="M54.2,8.6c-0.5,0-0.8-0.4-0.8-0.8l0,0c0.3-0.9-0.7-10.4,1.8-6.9
						C54.8,3.4,56,7.4,54.2,8.6z"/>
					<path id="パス_2436" class="st2" d="M0.8,59.2c-0.5,0-0.8-0.4-0.8-0.8l0,0c-2.2-29,34.6-34,51.7-48.6c0.7-0.8,1.9,0.3,1.2,1
						c-10,10-36.6,16.9-46.9,29.8C1.8,47,2.9,57.2,0.8,59.2z"/>
					<path id="パス_2437" class="st2" d="M69.3,16.7C69.2,16.7,69.2,16.7,69.3,16.7c-3.9-0.5-14.3-3.9-13.8-8.1
						c0.4-0.3,0.9-0.2,1.1,0.2c2.3,3,8.7,5.9,12.8,6.4C70.5,15.3,70.3,16.7,69.3,16.7L69.3,16.7L69.3,16.7z"/>
					<path id="パス_2438" class="st2" d="M62.5,28.7c-1.7-0.1-3.3-0.8-4.5-1.9c-1.3-1.4-8.4-13-5.9-13.9c0.4-0.1,0.9,0.2,0.9,0.7
						c1.2,3.4,6.3,18.3,11.8,12.1c1.2-1,3.3-11.6,4.6-7.3l0,0c-1.3,3.6-2,9.4-6.4,10.4C62.9,28.7,62.7,28.7,62.5,28.7z"/>
					<path id="パス_2439" class="st2" d="M53.9,59.2c-1,3.4-7.4-49-3.1-42.8l0,0C50.1,25.7,54.9,54.4,53.9,59.2L53.9,59.2
						C54,59.1,53.9,59.2,53.9,59.2z"/>
					<path id="パス_2440" class="st2" d="M44.7,59.2C42.3,57,39.6,42.7,38.8,41c1.1-2.7,3.9-4.9,5.9-7.1c-0.4-0.6-7.9-4-6.6-5.2
						l0,0L46.5,17c0.7-0.9,1.8,0.1,1.3,0.9c0,0-7.9,11-7.9,11c10.8,6.6,6.6,3.7,0.6,12.1c0.7,2.6,4,14.5,5.1,17.2
						c0.2,0.4,0,0.9-0.4,1C45,59.1,44.9,59.2,44.7,59.2z"/>
				</g>
				<g id="グループ_1715" transform="translate(70.709 0)">
					<path id="パス_2441" class="st2" d="M15.9,8.6c-1.2,0.7-1.7-8.9-0.2-8.6c0.4,0,0.8,0.4,0.8,0.8C16,3.6,17.8,7,15.9,8.6
						L15.9,8.6L15.9,8.6z"/>
					<path id="パス_2442" class="st2" d="M69.3,59.2c-2-1.7-0.9-12.4-5.2-18.6c-10.4-12.8-37-19.7-47-29.6c-0.7-0.8,0.6-1.7,1.2-1
						C33.9,23.8,75.3,31.3,69.3,59.2C69.3,59.1,69.3,59.1,69.3,59.2L69.3,59.2z"/>
					<path id="パス_2443" class="st2" d="M0.8,16.7c-1,0-1.1-1.5,0-1.5c4.1-0.5,10.5-3.4,12.8-6.4c0.3-0.4,0.8-0.4,1.1-0.2
						C15,12.9,4.7,16.1,0.8,16.7C0.9,16.7,0.8,16.7,0.8,16.7z"/>
					<path id="パス_2444" class="st2" d="M7.5,28.7c-3.3,1.2-8.3-9.9-6.4-11.4c2.1,0.8,2.2,6.3,4,8.3c5.6,6.2,10.6-8.8,11.8-12.1
						C21.8,9,12.9,30.8,7.5,28.7z"/>
					<path id="パス_2445" class="st2" d="M16.2,59.2c-0.5,0-0.9-0.5-0.8-1c1.9-4.8,2.6-34.9,4.6-42.6l0,0
						C22,23.6,18.3,54.8,16.2,59.2z"/>
					<path id="パス_2446" class="st2" d="M25.3,59.2c-0.5,0-1-0.7-0.7-1.1c1.1-2.6,4.4-14.6,5.1-17.2c-6-8.4-10.2-5.5,0.6-12.1
						c0.2-0.4-11.8-14.2-6.6-11.9c-0.1,0.5,10.2,12.6,8.2,12.8l0,0l-6.4,4.1c1.9,2.3,4.8,4.3,5.9,7.1C30.5,42.7,28,57.2,25.3,59.2z"
						/>
				</g>
			</g>
			<path id="パス_2447" class="st2" d="M70.3,156.4c-2.1-1.6-0.5-11.2-1-16.3c0-0.4,0.4-0.8,0.8-0.8s0.8,0.4,0.8,0.8
				C70.3,148.9,72.2,154.9,70.3,156.4L70.3,156.4z"/>
			<path id="パス_2448" class="st2" d="M70,137.7c-0.4,0-0.8-0.4-0.8-0.8l0,0c0.4-6.4-1.1-21.9,1.8-17.7l0,0
				c-0.1,2.1-0.2,9.8-0.2,17.6C70.9,137.3,70.5,137.7,70,137.7C70.1,137.7,70,137.7,70,137.7z"/>
			<path id="パス_2449" class="st2" d="M46,44.6c-2.1-10,25.4-31.8,33.5-23.8C65.9,19.1,51.3,32.4,46,44.6z"/>
			<path id="パス_2450" class="st2" d="M45.5,90c-6.2-9.2-4.4-37.7-0.5-43.2c0.2,7.8-4.9,30.6,1.3,42.1
				C46.5,89.4,46.2,90.1,45.5,90L45.5,90z"/>
			<path id="パス_2451" class="st2" d="M96.3,79.4c-0.5,0-0.9-0.4-0.8-1l0,0c4.5-17.2-1.9-41.8-14.2-54.7
				C93.6,26.4,103.4,68.8,96.3,79.4z"/>
			<path id="パス_2452" class="st2" d="M37.3,19.8c6-16.9,40-27,53.1-13.7c0.7,0.8-0.6,1.8-1.2,1C75.8-3.3,55.2-0.1,37.3,19.8z"/>
			<path id="パス_2453" class="st2" d="M32.4,100.7c-22.8-26.2-3.1-72.8,3.1-79.3C31.1,34.8,12.7,69.2,32.4,100.7L32.4,100.7z"/>
			<path id="パス_2454" class="st2" d="M107,96.2c11.6-35.8,8.2-65.3-13.1-87.8C115.5,19.7,121.9,72.2,107,96.2z"/>
			<path id="パス_2455" class="st2" d="M97.8,93.4c-0.4,0.1-0.8-0.3-0.8-0.7c-0.2-2.7-2.3-8.7,0.6-6.2l0,0c0,0.1,0.4,1.8,0.7,3.6
				c3.2-6.1,4.4-12.1,5.2-17.8c0.2-1,1.6-0.8,1.6,0.2l0,0C104,78.5,102.9,87.4,97.8,93.4z"/>
			<path id="パス_2456" class="st2" d="M105.2,88c-0.6,0-1-0.7-0.7-1.2c2.4-4.8,4.8-16,4.8-22.6c0-0.4,0.4-0.8,0.8-0.8
				C112.8,65.9,107.6,86.7,105.2,88z"/>
			<path id="パス_2457" class="st2" d="M40.2,98.7c-2.1-1.5-3.2-4.4-4.4-6.7c-0.3,0.8-0.8,3.6-2.1,2.4c-1.6,0.1-9-21.8-4.2-17.4
				l0,0c0,3.5,2.4,11.8,4.6,15.2c0.8-2.3,0.9-4.7,2.5-2.9C36.5,91.7,43.2,98.5,40.2,98.7L40.2,98.7z"/>
			<path id="パス_2458" class="st2" d="M43.9,96c-2.9-1-9.3-17.9-5.1-14.3c0.6,3,2.6,9.2,5.6,13C44.8,95.1,44.4,95.9,43.9,96
				L43.9,96z"/>
			<path id="パス_2459" class="st2" d="M36.2,64.4c-4-11.4,6.2-35.1,13.1-37.2C42.2,36.7,37.2,47.6,36.2,64.4
				C36.3,64.4,36.3,64.4,36.2,64.4L36.2,64.4z"/>
			<path id="パス_2460" class="st2" d="M30.6,71.7c-3.4-6.2,0.5-29.8,3.8-29.8c0.4,0.2,0.6,0.7,0.4,1.1
				c-2.6,5.5-4.6,16.8-3.4,27.8C31.4,71.2,31.1,71.6,30.6,71.7C30.7,71.7,30.7,71.7,30.6,71.7C30.7,71.7,30.6,71.7,30.6,71.7z"/>
			<path id="パス_2461" class="st2" d="M101.6,43.8c-0.4,0-0.7-0.3-0.8-0.7c-1-7-6.3-16.8-11.7-21.4c-0.3-0.3-0.4-0.8-0.1-1.1
				c4.3-0.7,15.7,20.1,12.7,23.3l0,0C101.7,43.8,101.6,43.8,101.6,43.8z"/>
			<path id="パス_2462" class="st2" d="M108,59.2c-0.5,0-0.8-0.4-0.8-0.9l0,0c0.6-7-1-19.5-3.9-24.6
				C106.3,28.2,111.4,57.5,108,59.2z"/>
		</g>
	</g>
	<g id="グループ_1725" transform="translate(631.762 2157.955)">
		<path id="楕円形_180" class="st0" d="M69.8,26.9c75.2,1.3,75.2,113.1,0,114.4C-5.4,140-5.4,28.2,69.8,26.9z"/>
		<path id="パス_2463" class="st1" d="M87,105.9c17.3,16,54.9,20.5,53.6,49.8H0.8c-0.7-7.5,4.7-22.1,14.3-26.5
			c13-6.6,26.4-14.4,36.4-20.3c12-13.8-18.8,12.9-25.6-20.6C25.1,85.8,28,74.6,29.8,70c4.4-18.1-10.2-21.3,8.9-42.2
			C34.4,3.1,78.3-6.3,91,8.3c21.6,4.5,17,28,19.3,43.8c0.7,11.5,7.8,22.9,4.5,34.8c-1.3,11.2-16.6,19.2-27.9,15.2
			C87.3,105.8,87,105.9,87,105.9z"/>
		<g id="グループ_1719" transform="translate(3.958 3.813)">
			<path id="パス_2464" class="st3" d="M22.7,122c6-3.1,22.5-11.2,23.6-11.4c0.3,9.4,2.5,32.1,3.9,41.3H0
				C-0.7,134.4,9.3,129.9,22.7,122z"/>
			<path id="パス_2465" class="st3" d="M110.8,122c-6-3.1-22.5-11.2-23.6-11.4c-0.3,9.4-2.5,32.1-3.9,41.3h50.2
				C134.2,134.4,124.2,129.9,110.8,122z"/>
			<path id="パス_2466" class="st2" d="M79.2,58.7c1.2,5.7,7.9-1,2.2-2.2C80.2,56.5,79.2,57.5,79.2,58.7L79.2,58.7z"/>
			<path id="楕円形_181" class="st2" d="M51.8,56.5c2.9,0,2.9,4.4,0,4.4C48.9,60.9,48.9,56.5,51.8,56.5z"/>
			<path id="パス_2467" class="st3" d="M55.9,1.4C47.3,4,34.4,14.8,37.4,24.8c-8.7,9.4-13.5,18.7-7.6,30.8
				c0.6,9.2-5,16.6-4.9,26.6c2.3,14.7,10.4,24.4,25.8,18.5c0-1.7,1-9.2,1-9.2c-13.4-11.6-20-43.3-5.7-57.1
				c5.5-5.9,4.4-14.3,7.2-20.5c5.4-5,14.3-4.6,18,1.9c26.5,1.9,9.7,17,17.7,31.4C100.1,60.4,93,80.6,82.3,91l0.6,8.3
				c36.5,3.7,22.1-33.8,20.3-55.5c-0.2-2.9-1.9-21.3-4.5-26.3C90.3,5.6,70.6-3.6,55.9,1.4z"/>
		</g>
		<g id="グループ_1724" transform="translate(0 0)">
			<path id="パス_2468" class="st2" d="M85.4,65.6c-7.7-1.6,1.5-10.7,3-3l0,0C88.5,64.2,87.1,65.6,85.4,65.6z M85.4,61.1
				c-3.6,0.7,0.7,5,1.4,1.4l0,0C86.8,61.7,86.2,61.1,85.4,61.1z"/>
			<path id="パス_2469" class="st2" d="M90.6,60.9c-2-2.7-6.7-4.8-8.8-0.8c-0.5,1-2,0.3-1.5-0.7l0,0c1.8-4.2,8.1-4,10.5-0.5
				l1.2-0.7c0.9-0.5,1.7,0.9,0.8,1.4C92.5,59.7,90.9,61,90.6,60.9z"/>
			<path id="パス_2470" class="st2" d="M55.8,65.6c-7.7-1.6,1.5-10.7,3-3l0,0C58.8,64.2,57.4,65.6,55.8,65.6z M55.8,61.1
				c-3.6,0.7,0.7,5,1.4,1.4l0,0C57.2,61.7,56.6,61.1,55.8,61.1z"/>
			<path id="パス_2471" class="st2" d="M50.6,60.9c-0.3,0.1-2-1.1-2.3-1.2c-0.9-0.5-0.1-1.9,0.8-1.4c0,0,1.2,0.7,1.2,0.7
				c2.5-3.6,8.7-3.6,10.5,0.5c0.2,0.4,0,0.9-0.4,1.1s-0.9,0-1.1-0.4C57,56.3,52.7,58.1,50.6,60.9L50.6,60.9z"/>
			<path id="パス_2472" class="st2" d="M71.1,87.7c-2.5,0.5-13.6-2.1-8.7-3.4c4.1,2.2,14.3,2.8,19.6-0.9c0.4-0.2,0.9-0.1,1.1,0.2
				C82.1,87.2,75.1,87.4,71.1,87.7z"/>
			<path id="パス_2473" class="st2" d="M69.9,78.3c-1.2,0-4.2-1.4-2.9-2.7c0.4-0.3,0.9-0.2,1.1,0.2l0,0c0.5,0.5,1.1,0.9,1.8,0.9
				C70.9,76.7,70.9,78.3,69.9,78.3z"/>
			<path id="パス_2474" class="st2" d="M71.8,92.4c-1.4-0.1-5.3-0.5-4.7-2.5c0.3-0.3,0.8-0.4,1.1-0.1c1.5,1,3.4,1.3,5.1,0.8
				c0.4-0.2,0.9,0,1.1,0.4C74.9,92.4,72.7,92.3,71.8,92.4z"/>
			<path id="パス_2475" class="st2" d="M93,47.1c-8-8.7-15.6,1-14.3-3.3l0,0c3.2-3.3,14.8-2.5,14.7,3.2C93.3,47,93.2,47.1,93,47.1
				L93,47.1z"/>
			<path id="パス_2476" class="st2" d="M47.6,47.4c-3.8-2.5,10.9-9.1,16-3.9c0.9,0.4,0,2-0.9,1.3l0,0
				C57.9,41.4,52.2,43.3,47.6,47.4z"/>
			<g id="グループ_1720" transform="translate(45.713 80.849)">
				<path id="パス_2477" class="st2" d="M23.5,22.1C23.4,22.1,23.4,22.1,23.5,22.1C11.5,22.8-5.4-2.6,1.6,0.6
					c1.2,5.1,10.4,18.5,22,19.8C24.6,20.6,24.4,22.1,23.5,22.1L23.5,22.1z"/>
				<path id="パス_2478" class="st2" d="M26.6,22.1c-0.9,0-1.1-1.4-0.1-1.6c13.1-1.4,19.8-15.9,23-20.4
					C50.6,6,38.9,20.4,26.6,22.1L26.6,22.1z"/>
			</g>
			<g id="グループ_1723" transform="translate(0 97.011)">
				<g id="グループ_1721">
					<path id="パス_2479" class="st2" d="M54.5,8.6c-1.9-1.3-0.1-5.2-0.6-7.8c0.1-1,1.6-0.9,1.6,0.1l0,0C55,3.6,56.4,7.3,54.5,8.6
						z"/>
					<path id="パス_2480" class="st2" d="M0.8,59.4C0.3,59.4,0,59,0,58.6l0,0c0.6-18.7,8.1-24.8,27.4-34.4
						c7.2-3.9,21.4-10.5,24.5-14.2c0.7-0.9,1.9,0.2,1.3,0.9l0,0C38.5,24.9-1.1,30.4,1.6,58.7C1.6,59.1,1.2,59.4,0.8,59.4z"/>
					<path id="パス_2481" class="st2" d="M69.6,16.8C69.6,16.8,69.5,16.8,69.6,16.8c-4.6-0.5-11.4-3.6-14.1-7
						c-0.7-0.9,0.9-1.8,1.3-0.9l0,0c2.3,3,8.8,5.9,12.9,6.4C70.6,15.3,70.7,16.8,69.6,16.8L69.6,16.8z"/>
					<path id="パス_2482" class="st2" d="M62.8,28.9C56.7,29,53.2,18,51.7,13.8c1.8-5.9,6,20.1,13.5,12c1.8-2.1,1.9-7.5,4-8.4
						C71.1,18.9,66.1,29.8,62.8,28.9z"/>
					<path id="パス_2483" class="st2" d="M54.1,59.4c-1.7,0.2-6.2-40.1-3.9-43.8c1.4,8.4,4.1,38.7,4.1,43.8
						C54.3,59.4,54.2,59.4,54.1,59.4z"/>
					<path id="パス_2484" class="st2" d="M45,59.4c-2.5-2.2-5.2-16.6-6-18.3c1.1-2.7,3.9-4.9,5.9-7.1c-0.4-0.6-7.9-4-6.6-5.2l0,0
						C38.7,29,48.6,12.2,48,17.9l0,0L40,29c10.7,6.6,6.7,3.7,0.5,12.1c0.7,2.6,4,14.6,5.1,17.2C45.8,58.7,45.5,59.4,45,59.4L45,59.4
						z"/>
				</g>
				<g id="グループ_1722" transform="translate(71.043)">
					<path id="パス_2485" class="st2" d="M15.9,8.6c-1.9-1.4-0.4-5-0.9-7.8c-0.1-1,1.7-1,1.6,0l0,0C16.1,3.5,18,7.4,15.9,8.6
						L15.9,8.6z"/>
					<path id="パス_2486" class="st2" d="M69.6,59.4c-2-1.7-0.9-12.4-5.2-18.7C53.9,27.9,27.3,20.8,17.3,10.9
						c-0.7-0.8,0.5-1.8,1.2-1C34.2,23.8,76,31.3,69.6,59.4C69.7,59.4,69.7,59.4,69.6,59.4L69.6,59.4z"/>
					<path id="パス_2487" class="st2" d="M0.8,16.8c-0.9,0-1.1-1.5-0.1-1.6c4.1-0.5,10.6-3.4,12.9-6.4c0.3-0.4,0.8-0.4,1.1-0.2
						C15,12.9,4.7,16.2,0.8,16.8C0.9,16.8,0.8,16.8,0.8,16.8z"/>
					<path id="パス_2488" class="st2" d="M7.6,28.9C4,30.8-2,14.5,2.2,18.1c1.1,4,3.4,12.8,8.8,7.8c1.7-1.6,5.8-10.3,6.1-12.2
						c0.2-1,1.6-0.8,1.6,0.2l0,0C17.2,18.1,13.7,29,7.6,28.9z"/>
					<path id="パス_2489" class="st2" d="M16.3,59.4c-0.5,0-0.9-0.4-0.8-1c1.9-4.9,2.6-35.1,4.7-42.8C22.4,19.7,18.2,59,16.3,59.4
						z"/>
					<path id="パス_2490" class="st2" d="M25.4,59.4c-0.5-0.1-1-0.6-0.7-1.2l0,0c1.1-2.6,4.4-14.7,5.1-17.2
						c-6.1-8.3-10.3-5.5,0.5-12.1c0.1-0.5-9.6-12-7.7-12.2c0.4-0.3,0.9-0.2,1.1,0.2c-0.1,0.5,10.2,12.7,8.2,12.9l0,0L25.6,34
						c2,2.3,4.8,4.4,5.9,7.1C30.6,42.8,28,57.4,25.4,59.4z"/>
				</g>
			</g>
			<path id="パス_2491" class="st2" d="M70.6,156.4c-2.1-1.4-0.5-11.4-1-16.4c0-0.4,0.4-0.8,0.8-0.8s0.8,0.4,0.8,0.8l0,0
				C70.6,148.9,72.5,154.9,70.6,156.4L70.6,156.4z"/>
			<path id="パス_2492" class="st2" d="M70.4,137.6c-0.5,0-0.9-0.5-0.8-1.2c0.6-8.5-1.1-15.9,1-18.2c0.4,0,0.8,0.4,0.8,0.8l0,0
				c-0.1,2.1-0.2,9.9-0.2,17.7C71.2,137.2,70.8,137.6,70.4,137.6z"/>
			<path id="パス_2493" class="st2" d="M97.1,77c-0.5,0-0.9-0.6-0.8-1.1c3.1-7.9,2.2-14.1-3.3-23c-0.5-1.2-2.5-3.1-1.2-4.2
				c7.1,7.7,9.9,19.1,5.9,27.8C97.8,76.8,97.5,77,97.1,77z"/>
			<path id="パス_2494" class="st2" d="M90.5,41.5c-0.5,0-0.8-0.4-0.8-0.8l0,0c1.9-9.5,0.6-19.7-11.4-19.8c-0.4,0-0.8-0.4-0.8-0.8
				c5.7-3.2,14.8,4.4,14.7,11C91.7,33,91.9,41.3,90.5,41.5z"/>
			<path id="パス_2495" class="st2" d="M41.7,104.8c-6.6-8.3,3.5-16.3,0-25.2c-2.1-5.8-3.4-16.5-1.9-22.5
				c1.8-7.5,5.4-14.5,10.4-20.4c7-7.8,0.2-19,11.1-22.8C65,12.6,73,13.6,73.6,17c-0.3,0.4-0.8,0.5-1.1,0.2c-2.5-1.7-6.9-3-10.6-1.8
				c-10.3,4.2-2.7,14.5-10.4,22.3c-4.8,5.7-8.3,12.5-10.1,19.8c-1.4,5.6-0.2,16,1.8,21.6c3,10.7-4.3,14.2-1,25.7
				C42,104.8,41.9,104.8,41.7,104.8L41.7,104.8z"/>
			<path id="パス_2496" class="st2" d="M48.3,102.9c-2.8,0.6-4-16.5-0.9-11.6l0,0c-0.2,2.2-0.6,7.9,1.5,10.3
				C49.4,102,49,103,48.3,102.9L48.3,102.9z"/>
			<path id="パス_2497" class="st2" d="M37.8,106.5C11.3,88.9,35.5,71.2,29,56.8c-7.3-9.9,9-33.4,8.4-26.9l0,0
				c-19.3,24.7,1.4,21-8.8,45.2C20.5,94,36.6,101.6,37.8,106.5L37.8,106.5z"/>
			<path id="パス_2498" class="st2" d="M98.1,102.9c-1,0-1.1-1.6,0-1.6c13.8,1.7,19.9-22.9,14.7-33.8c-7.6-18,1.2-52.7-19.1-58
				c-0.8-0.4-0.3-1.9,0.7-1.3c11.9,6.5,14.8,9,15.8,36.2c0,21.4,7.8,20.8,5.4,39.1C113.4,94.7,109.6,102.3,98.1,102.9L98.1,102.9z"
				/>
			<path id="パス_2499" class="st2" d="M38.8,27.2C30.5,6.3,75.7-9,89.2,5.8c0.8,0.7-0.3,1.8-1,1.2l0,0
				C73.4-7.1,36.7,7.3,38.8,27.2C38.9,27.2,38.9,27.2,38.8,27.2z"/>
			<path id="パス_2500" class="st2" d="M92.2,99.4c-4-4.3,4.8-8.4,5.3-12.7c0.3-1,1.8-0.7,1.6,0.4c-0.7,4.5-7.1,7-6.2,11.3
				C93,98.8,92.8,99.3,92.2,99.4C92.4,99.4,92.3,99.4,92.2,99.4z"/>
			<path id="パス_2501" class="st2" d="M103.5,84.2c-0.5,0-1-0.8-0.7-1.2c3.8-5.7,2.9-18.2,1.1-24.9c-0.1-0.4,0.1-0.9,0.6-1
				C108.3,61.4,108.2,80.1,103.5,84.2z"/>
			<path id="パス_2502" class="st2" d="M101.5,51c-2.9-1.4-6-17-2.5-21.5c0.4,0.1,0.7,0.4,0.7,0.8c-1.1,8.4-0.3,14.8,2.4,19.5
				c0.2,0.4,0.1,0.9-0.3,1.1C101.8,51,101.7,51,101.5,51L101.5,51z"/>
			<path id="パス_2503" class="st2" d="M35.9,54.6c-3.4-2.6,5.2-22.8,10.2-21.1c0.2,0.5,0,1-0.4,1.2c-5.6,3.8-8.8,12.5-9,19.2
				C36.7,54.2,36.3,54.6,35.9,54.6z"/>
			<path id="パス_2504" class="st2" d="M33.6,96c-4.9-2.5-1.2-29.7,1.3-23.6l0,0C33.5,78.8,31,86.3,34.3,95
				C34.5,95.5,34.2,96.1,33.6,96z"/>
			<path id="パス_2505" class="st2" d="M52.8,12.5c-0.7,0-1.1-1.1-0.5-1.4c9.7-9.6,34.6-2.5,27.9-0.5l0,0
				C76.4,7.6,62.9,5.1,52.8,12.5z"/>
		</g>
	</g>
	<g id="グループ_1732" transform="translate(1023.169 2042.162)">
		<path id="楕円形_182" class="st5" d="M69.4,33.8c71.6,1.2,71.6,107.8,0,109C-2.2,141.6-2.2,35,69.4,33.8z"/>
		<path id="パス_2506" class="st1" d="M101.2,64.2c1.4,6-1,13.9-7,16.2c-0.4,3.9-3.7,13.5-6.1,15.6c0,0,0,10,0.3,11.3
			s4.8,3.6,5.7,3.8c10,4.4,24.7,10.8,35,17c7.1,5.3,7.4,22.3,7.2,28.3H2c-3.2-38,25.9-32.1,48.3-49.4c0,0,0-9,0-10.8
			c-3.1-2.3-5.2-13.5-5.9-15.7c-6.3-2.3-8.6-10.2-6.8-16.2c-4-2.4-1.5-14.1-1.6-15.1l-1.9,0.3c0,0,0.3-11.8,3-15.7
			c-1.5-0.2-3-0.4-3-0.4s4.5-16.2,10.4-19.9c-0.7-0.5-1.5-0.8-2.4-0.6c0,0,7.1-8.7,13.8-8.1c-0.3-0.8-0.8-2.4-0.8-2.4
			S64.5-1,69.7,2.2C73.9,0.3,82,0.7,84.4,2.5c-0.6,1.7-0.8,2.4-0.8,2.4s11.8,2.2,13.6,7.8c-0.6,0.4-2,1.2-2,1.2
			c4.3,4.8,8.7,10.9,10.2,19.7c-1.1,0.1-2.1,0.4-3,0.9c0,0,3.3,9.3,3,15c-0.6,0.1-1.1,0.2-1.7,0.2c0,0,1.1,8.5,0.1,12.3
			C103,62.7,102.1,63.5,101.2,64.2z"/>
		<g id="グループ_1726" transform="translate(4.79 3.588)">
			<path id="パス_2507" class="st3" d="M20.9,119.9c5.1-2.2,20.2-8.6,20.2-8.6c1.2,12.3,4.2,32.3,7.2,41.5H0
				C0.2,136.5,3,125.6,20.9,119.9z"/>
			<path id="パス_2508" class="st3" d="M108.1,119.9c-5.1-2.2-20.2-8.6-20.2-8.6c-1.2,12.3-4.2,32.3-7.2,41.5H129
				C128.8,136.5,126,125.6,108.1,119.9z"/>
			<path id="パス_2509" class="st4" d="M61.2,119l6.9-0.5l1.6,5.2l-0.5,8.7c1.5,3.1,2.3,17.6,2.7,20.5H59.8l2-20.1
				c0,0-1.2-3.1-1.5-3.6s-0.3-7.8-0.3-7.8L61.2,119z"/>
			<path id="パス_2510" class="st2" d="M52.1,63.2c-0.2,2.3-3.7,1.9-3.5-0.3C48.8,60.6,52.4,60.9,52.1,63.2z"/>
			<path id="パス_2511" class="st2" d="M76.9,63.2c0.2,2.3,3.7,1.9,3.5-0.3C80.2,60.6,76.6,60.9,76.9,63.2L76.9,63.2z"/>
			<path id="パス_2512" class="st3" d="M97.8,42.1c-0.9-5.3-1.8-9.7-2.7-13.4c1.1,0,2.1,0.1,2.6,0.2c-1.5-8.6-8.2-16-11.2-18.6
				c0.6-0.5,1.3-0.9,2.1-1.2C87,6.6,79,4.3,75.3,3.9c0.5-1.1,1.1-2.4,1.3-3.2c-3.5-1.3-7.5-0.7-10.9,1c-3.3-1.2-8.2-2-11.5-0.7
				c0.7,0.7,1.4,1.6,1.9,2.5c-4,0.4-12.3,2.1-14.6,5.5c0.4,0.3,1.4,0.8,2.4,1.3c-3.5,3-10.7,12.1-11.5,18.6c0.6-0.1,1.6-0.1,2.4-0.1
				c-2.5,10.2-6.1,23.6-2.7,33.3c0.5-1,2.1-3.4,4.2-2.1c1.9-2.5,3.4-9.5,3.6-11.6c0,0,12.3-9.6,13.4-11.2c0,2.6-0.1,5.1-0.4,7.7
				c0,0,12-12.4,13.5-14.7C67.8,32.1,77,44,80.2,45.8c0-3.1,0-6,0-6l8.7,8.4c0.7,2.3,2.9,9.9,3.1,12.2C102.7,64,98.4,48.9,97.8,42.1
				z"/>
		</g>
		<g id="グループ_1731" transform="translate(1.219 0)">
			<path id="パス_2513" class="st2" d="M53.9,69.2c-1.5,0-2.7-1.3-2.5-2.8c0.2-3.3,5.6-2.8,5.1,0.5l0,0l0,0
				C56.4,68.2,55.2,69.2,53.9,69.2L53.9,69.2z M53.9,65.6c-2.6,0.3,0.3,3.5,1,1l0,0C55,66.2,54.6,65.7,53.9,65.6
				C54,65.6,53.9,65.6,53.9,65.6z"/>
			<path id="パス_2514" class="st2" d="M57.9,65.5c-0.3,0-0.6-0.2-0.7-0.5c-1-3.2-5.6-2.9-7.1-0.3c-0.2,0.4-0.7,0.5-1.1,0.3
				c-1.4-2.3,3.2-4.2,5.2-3.9c1.9-0.1,5.5,2.6,3.8,4.4C58.1,65.5,58,65.5,57.9,65.5L57.9,65.5z"/>
			<path id="パス_2515" class="st2" d="M82.2,69.2c-3.4,0-3.4-5.2,0-5.2c3.2,0,3.3,4.8,0.2,5.1C82.4,69.2,82.3,69.2,82.2,69.2z
				 M82.2,65.6c-0.7,0-1.1,0.5-1,1.1l0,0C81.7,69.2,84.8,66.1,82.2,65.6L82.2,65.6z"/>
			<path id="パス_2516" class="st2" d="M78.2,65.5c-2.5-1.3,1.7-4.5,3.5-4.4c2-0.3,6.5,1.5,5.2,3.9c-0.4,0.3-0.7,0-0.9-0.4
				c-1.5-2.7-6.1-2.8-7.1,0.3C78.8,65.3,78.5,65.5,78.2,65.5z"/>
			<path id="パス_2517" class="st2" d="M67.8,92.3c-3.5,0.8-13.9-3.5-8.8-3.8c2.5,2.3,11.8,4,19.7-0.4c0.4-0.2,0.8,0,1,0.3
				C78,91.8,71.4,92,67.8,92.3z"/>
			<path id="パス_2518" class="st2" d="M69.9,97.5c-1.4-0.1-5.3-0.3-4.7-2.3c0.2-0.4,0.7-0.5,1.1-0.2c1.4,1.3,4.1,0.2,4.9,1.6
				C71.2,97.3,70.5,97.5,69.9,97.5z"/>
			<path id="パス_2519" class="st2" d="M74.8,55.2c-4.2-2.6,13.1-7.2,14.1-0.6c-0.3,0.3-0.7,0.3-1.1,0.1
				c-3.7-3.1-9.2-2.1-12.5,0.4C75.2,55.1,75,55.2,74.8,55.2z"/>
			<path id="パス_2520" class="st2" d="M60.6,55.4c-3.2-3.4-9-3-12.9-0.6c-0.3,0.2-0.8,0.2-1.1-0.2c0-4.1,15.8-4.6,14.5,0.6l0,0
				C60.8,55.4,60.7,55.4,60.6,55.4z"/>
			<g id="グループ_1727" transform="translate(34.939 62.567)">
				<path id="パス_2521" class="st2" d="M60.6,17.4c-0.7,0.1-1.1-1-0.5-1.4c1.5-1.1,3.6-3.2,4.4-8.5c0.6-4.3-0.8-7.4-3.8-5.2
					c-0.3,0.3-0.8,0.2-1.1-0.1c-0.7-2,3-2.6,4.4-1.8C69.3,3.1,64.1,17.2,60.6,17.4z"/>
				<path id="パス_2522" class="st2" d="M35.6,45.5c-0.9,0-1.1-1.4-0.1-1.6c4.3-0.6,10.8-6.6,15.9-11.7c3.3-3.3,5.7-13.5,6.3-19.3
					c0.1-0.4,0.4-0.7,0.9-0.7c3.1,12.9-11.8,30.6-22.8,33.1C35.7,45.5,35.7,45.5,35.6,45.5z"/>
				<path id="パス_2523" class="st2" d="M5.7,17.4C2.2,17-3.1,3.1,2.3,0.3c1.3-0.8,5,0,4.3,2c-0.3,0.3-0.8,0.3-1.1,0
					C2.5,0,1,3.2,1.7,7.6C1.8,13.5,8.3,17,5.7,17.4L5.7,17.4z"/>
				<path id="パス_2524" class="st2" d="M30.6,45.5c-4.9-0.6-11.1-6.5-16.9-12.1c-3.2-3.1-8.1-18-6-21c0.4,0,0.8,0.3,0.8,0.7
					c0.6,5.8,2.9,15.9,6.3,19.3c5.1,5.1,11.5,11.1,15.9,11.7C31.5,44.3,31.7,45.5,30.6,45.5L30.6,45.5z"/>
			</g>
			<g id="グループ_1730" transform="translate(0 98.175)">
				<g id="グループ_1728" transform="translate(68.724)">
					<path id="パス_2525" class="st2" d="M18.5,10.3c-1.8-0.4-0.7-9.9-1.1-9.5c-0.1-1,1.6-1.1,1.6,0c0,0.1,0.1,6.2,0.3,8.7
						C19.3,9.9,19,10.3,18.5,10.3L18.5,10.3z"/>
					<path id="パス_2526" class="st2" d="M0.8,20.2c-0.8,0.1-1.2-1.5-0.2-1.5c3.9-1,13-5.3,15.8-8.2c0.7-0.7,1.8,0.4,1.1,1.1l0,0
						c-3,3.1-12.3,7.5-16.5,8.5C0.9,20.2,0.8,20.2,0.8,20.2z"/>
					<path id="パス_2527" class="st2" d="M8.6,36.3C8.2,37-0.7,21,1.3,20.8c0.5-0.2,0.9,0.2,1.1,0.7c2.5,5.1,5.2,10.6,6.4,12.7
						c3.3-3.9,10.1-19.3,12-20.9C23.3,14.2,9.7,36.6,8.6,36.3z"/>
					<path id="パス_2528" class="st2" d="M66.3,59.1c-0.4,0-0.8-0.4-0.8-0.8l0,0c-1-33.8-5.7-26.3-28.9-38.5
						C30,16.9,15.4,10.9,21,10.4C42.3,24.9,72.4,20.9,66.3,59.1z"/>
					<path id="パス_2529" class="st2" d="M15.5,59.1c-0.5,0-1-0.6-0.7-1.1c3.8-7.5,5.5-34.5,8.1-43.6C24,23.9,19.4,51.9,15.5,59.1
						z"/>
					<path id="パス_2530" class="st2" d="M24.5,59.1c-0.6,0-1.1-0.8-0.6-1.3c2.4-3.2,6.9-14,7.9-16.4c-0.3-0.7-6.7-5.5-5.4-6.4
						c0,0,0.1,0,0.1-0.1l5.4-4.2l-4.5-12.8c-0.2-0.9,1.1-1.5,1.5-0.5l0,0l4.7,13.3c0.6,0.9-5.1,4.4-5.4,4.9c0.2,0.5,6,5.3,5.4,5.9
						C33.1,41.9,28.2,56.4,24.5,59.1z"/>
				</g>
				<g id="グループ_1729" transform="translate(0 0)">
					<path id="パス_2531" class="st2" d="M48.9,10.3c-0.5,0-0.8-0.4-0.8-0.8l0,0c0.4-3-0.5-12.4,1.9-8.7
						C49.6,0.7,50.7,10.1,48.9,10.3z"/>
					<path id="パス_2532" class="st2" d="M66.6,20.2c-1.4,0.4-21.9-9.2-15.7-9.8c2.9,3,11.9,7.2,15.8,8.2
						C67.6,18.8,67.5,20.2,66.6,20.2L66.6,20.2z"/>
					<path id="パス_2533" class="st2" d="M58.8,36.3c-1.2-0.2-14.6-21.6-12.1-23c1.9,1.6,8.7,17,12,20.9c0,1.5,7.3-17.6,7.9-12.4
						l0,0C65.2,24.2,60.6,35.5,58.8,36.3L58.8,36.3z"/>
					<path id="パス_2534" class="st2" d="M0.8,59.1c-0.4,0-0.8-0.3-0.8-0.8c-0.2-18.9,4-25.6,6.5-27.9c5.2-5.4,33.7-15.1,39.8-20
						c5.3,0.7-8.8,6.5-15.6,9.4C6.5,31.4,3.5,26.6,0.8,59.1L0.8,59.1L0.8,59.1z"/>
					<path id="パス_2535" class="st2" d="M51.9,59.1C48,52,43.3,23.9,44.5,14.4c2.7,9,4.3,36.1,8.1,43.6
						C52.9,58.5,52.4,59,51.9,59.1z"/>
					<path id="パス_2536" class="st2" d="M42.9,59.1C39.4,56.2,34.5,42,34,41.5c-0.6-0.6,5.2-5.4,5.4-5.9c-0.4-0.6-6-4-5.4-4.9
						c0,0,4.7-13.3,4.7-13.3c0.3-0.9,1.8-0.5,1.5,0.5l0,0l-4.5,12.8c0.4,0.6,6.7,4.2,5.5,5.3c0,0,0,0.1-0.1,0.1l-5.4,5.3
						c1,2.4,5.5,13.2,7.9,16.4C44.1,58.3,43.5,59.1,42.9,59.1L42.9,59.1z"/>
				</g>
			</g>
			<path id="パス_2537" class="st2" d="M68.1,137.4c-5.3,1-5.5-5-5.5-7.5c4-4.2-2.8,9.5,10,5.4C76.3,136.7,69.4,137.6,68.1,137.4z
				"/>
			<path id="パス_2538" class="st2" d="M72.7,134.4c-1.6-0.7,0.1-3.5-0.6-4.9C73.8,126,74.4,134.5,72.7,134.4z"/>
			<path id="パス_2539" class="st2" d="M69.4,123c-1.1-0.4-2.9,0.7-3.4-0.6C65.6,120.3,72.5,121.6,69.4,123L69.4,123z"/>
			<path id="パス_2540" class="st2" d="M61.4,157.2c-1.9,1.5,0.8-25.7,2.7-19.1c-0.7,3.1-1.9,15.6-2,18.5
				C62.2,156.9,61.9,157.2,61.4,157.2z"/>
			<path id="パス_2541" class="st2" d="M75.5,157.2c-1.6,0.1-1.7-17.3-2.8-19.2c-0.1-0.4,0.2-0.8,0.6-0.9
				C74.9,136.6,77.1,157.7,75.5,157.2L75.5,157.2z"/>
			<path id="パス_2542" class="st2" d="M55,75.2c-4.5-0.1-10.5,1.2-10.6-4.9c0.2-3.4-1.4-10.7,4-11c3.8-0.5,3.8,2.1,0,1.6
				c-3.9,0.2-2,7.1-2.4,9.4c0,0.7,0.6,3.4,2.5,3.4H55C55.9,73.7,55.9,75.2,55,75.2L55,75.2z"/>
			<path id="パス_2543" class="st2" d="M58.4,75.2c-0.9,0-0.9-1.5,0-1.5c2.8,0,5.1-3.4,5.1-4.7c0-3.7,0.7-9.1-4.7-8
				c-1,0.1-1.1-1.6,0-1.6C67.7,57.8,67.4,74.8,58.4,75.2z"/>
			<path id="パス_2544" class="st2" d="M88.1,75.2c-0.9,0-0.9-1.5,0-1.5c1.9,0,2.5-2.6,2.5-3.4c-0.3-3.4,1.6-10.7-4.4-9.4
				c-1,0.1-1.1-1.6,0-1.6c2.8-0.4,6,1,6,4.3C91.8,67.2,93.9,74.3,88.1,75.2z"/>
			<path id="パス_2545" class="st2" d="M84.7,75.2C79,75.5,72.5,75.5,71.5,69c0-3.1-0.5-9.2,3.6-9.7c0.7,0.2,3.4-0.6,3.4,0.8
				c0.1,1.3-2.7,0.6-3.4,0.8c-2.8,0.9-2,5.8-2.1,8c0,1.3,2.3,4.7,5.1,4.7C78.7,73.8,88.5,72.8,84.7,75.2L84.7,75.2L84.7,75.2z"/>
			<path id="パス_2546" class="st2" d="M63.9,65c-3.5-2.7,7.3-3,8.3-1.7c0.7,0.6,0.1,1.8-0.8,1.3C69.8,63.6,65.3,64.1,63.9,65z"/>
			<path id="パス_2547" class="st2" d="M44.8,63.5h-2.5c-1,0.1-1.1-1.6,0-1.6c0,0,2.5,0,2.5,0C45.8,61.8,45.9,63.6,44.8,63.5z"/>
			<path id="パス_2548" class="st2" d="M93.8,63.5h-2.5c-1,0.1-1.1-1.6,0-1.6c0,0,2.5,0,2.5,0C94.8,61.8,94.9,63.6,93.8,63.5z"/>
			<path id="パス_2549" class="st2" d="M41.9,53.5c-0.8,0.1-1.1-1.2-0.3-1.5c2.7-1.2,13-9.3,14.9-12.8c3-1.6,0.6,6.2,0.7,7.8
				c4.3-3.4,12.3-13.3,13.9-16.7c0.4-0.9,1.7-0.3,1.4,0.6l0,0c-1.6,3.2-21.3,30.8-16,11.1C52.5,46.2,44.9,52.8,41.9,53.5z"/>
			<path id="パス_2550" class="st2" d="M94.8,53.5c-2.1-0.8-7.3-5-10.3-8.2c3.3,13.9-11.4-6.6-12.4-8.7c-0.4-0.9,1-1.6,1.4-0.6
				c1.1,2.4,6.6,9.3,9.7,12c-0.2-1.1-1.6-7.2,0.9-5.3c1.4,2.6,8.9,8.6,10.8,9.4C95.5,52.3,95.6,53.4,94.8,53.5L94.8,53.5z"/>
			<path id="パス_2551" class="st2" d="M40.9,61.5c-0.6,0.1-1.1-0.8-0.6-1.3c1-1.2,2-6.9,2.1-8.5c3-3.6,0.5,8.2-1,9.5
				C41.4,61.4,41.1,61.5,40.9,61.5z"/>
			<path id="パス_2552" class="st2" d="M95,61.5c-2.1-0.2-4.6-13.8-1.5-9.8c0.1,1.6,1,7.3,2.1,8.5C96.1,60.6,95.7,61.5,95,61.5
				L95,61.5z"/>
			<path id="パス_2553" class="st2" d="M53.9,3.3c-4.4-2.9,14.4-4.8,13.7-1.2c-0.2,0.4-0.6,0.6-1,0.4c-4.1-1.6-8.5-1.1-12.5,0.7
				C54.1,3.3,54,3.3,53.9,3.3z"/>
			<path id="パス_2554" class="st2" d="M32.9,34.3c-0.5,0-0.8-0.4-0.8-0.8l0,0c0.6-7.9,6.3-16,9.7-19.6c-8.2-1.1,16.6-14.3,13-8.2
				c-2.9,0.1-10.1,3.6-12.5,6.7c0.8,0.1,2.5,0.8,1.5,1.7c-2.9,2.7-9.5,11.3-10.1,19.4C33.7,34,33.3,34.3,32.9,34.3z"/>
			<path id="パス_2555" class="st2" d="M34.5,62.6c-2.5-2.3-0.7-9.9-0.6-12.3c-4.2,3.3,0.4-18.4,2.4-16.6c0.4,0.2,0.5,0.7,0.3,1
				c-1.2,2.2-3,10-2.9,14c4.1-1.9-0.3,8,1.6,12.9C35.4,62.1,35,62.7,34.5,62.6z"/>
			<path id="パス_2556" class="st2" d="M83.2,3.3c-4-1.6-8.5-2.6-12.8-0.7c-0.4,0.2-0.8,0-1-0.4C68.7-1.5,87.3,0.5,83.2,3.3
				L83.2,3.3z"/>
			<path id="パス_2557" class="st2" d="M104.2,34.3c-0.4,0-0.7-0.3-0.8-0.7c-0.5-12.5-14.6-20.7-8.5-21.2
				c-2.5-3.1-9.6-6.6-12.5-6.7c-3.8-5.8,21.3,7.2,12.9,8.3C97.6,16.6,107.1,28.3,104.2,34.3L104.2,34.3L104.2,34.3z"/>
			<path id="パス_2558" class="st2" d="M102.5,62.6c-0.5,0.1-0.8-0.4-0.7-1l0,0c2-5.1-2.5-14.8,1.6-12.9c0.1-4-1.7-11.8-2.9-14
				c-0.5-0.8,0.9-1.6,1.3-0.7l0,0c0.7,0.6,5.9,18.7,1.4,16.3C103.2,52.6,105.2,60.4,102.5,62.6z"/>
			<path id="パス_2559" class="st2" d="M68.7,85.6c-1.7,0.2-3.4-0.6-4.3-2c-0.4-0.9,0.9-1.5,1.3-0.7l0,0c1.3,1.9,5.3,1.4,6.2-0.1
				c0.5-0.9,1.8-0.1,1.3,0.7C72.6,85.1,70.3,85.6,68.7,85.6z"/>
		</g>
	</g>
	<g class="st6">
		<path d="M375.6,2102.7c0.2,9.5-17.9-1.2-2.9-7v-4c-1.2,0.1-3.7,0.1-5,0.1v-2.9c1,0.3,3.7,0.2,5,0.2c0-1.4,0.1-3.8-0.2-4.7h3.2
			c-0.2,0.9-0.2,3.2-0.2,4.5c2-0.2,3.7-0.6,5-1l0.1,2.9c-0.7,0.1-3.8,0.7-5.2,0.8v3.4c4.9-1.8,12.9-0.4,12.7,5.6
			c0.2,7.5-11.9,8-10.6-0.3c1.3-0.4,1.8-0.5,2.9-1.1c-1.3,4.5,4,6.2,4.5,1.4c-0.1-4.5-6.1-4.1-9.6-2.8L375.6,2102.7z M372.7,2098.6
			c-3.7,1.6-4.1,4.4-0.5,4.9c1.2,0.1,0.4-4.2,0.6-4.9H372.7z M387.1,2093.3c-1.3-2.1-3.2-4.1-5.2-5.6l2.4-1.6
			c2.3,1.7,3.8,3.3,5.1,5.3L387.1,2093.3z"/>
		<path d="M398.4,2101.6c0-0.5,0-0.8,0-1.3c-1,0.3-1.5,0.4-2.9,0.7c-0.3-1-0.7-1.8-1.2-2.5c3.4-0.5,6.4-1.4,9.7-2.8
			c-1.1-0.8-1.7-1.2-2.5-2.1c-1.6,1.2-2.4,1.8-4.5,2.8c-0.4-0.8-0.9-1.4-1.6-2c3.3-1.5,6.1-3.2,8.1-6.1H398v3.4h-3
			c0.2-1.7,0.2-4.3,0-6c1.8,0.2,7.7,0.1,9.7,0.1c0-0.9,0-1.3-0.1-2.1h3.2c-0.1,0.5-0.2,1.4-0.2,2.1c2,0,8.1,0.1,9.9-0.1
			c-0.2,1.6-0.2,4.4,0,6.1h-2.8v-3.5h-11.2l2.4,0.7c0,0-0.3,0.3-0.8,0.9c1.4,0,5.8,0.1,7-0.1l1.8,1.4c-1.5,1.7-3.5,3.6-5.1,4.6
			c2.7,1.2,5.7,1.9,9.6,2.2c-0.6,1.1-0.8,1.6-1.2,2.9c-1.2-0.2-1.6-0.3-2.8-0.6c0,2.1-0.1,5.5,0.1,7.5h-2.9v-1h-10.7v0.9H398
			c0.2-1.5,0.1-4.5,0.1-6.1H398.4z M412,2099.5c-2-0.6-3.6-1.2-5.5-2.3c-1.8,1-3,1.5-5.4,2.3H412z M401.1,2104.3h10.7v-2.5h-10.7
			V2104.3z M403.2,2092.1c1.3,1.1,2,1.6,3.2,2.3c1.2-0.8,1.8-1.2,3.2-2.4h-6.3L403.2,2092.1z"/>
		<path d="M434,2096.7c-1,0-1.7,0-2.4,0.1v-1.8c-0.4,0.8-0.5,0.8-1,2.3c-0.6-1-0.9-1.7-1.3-2.9c0.3,4.2-0.2,9.5,0.3,13.4h-2.9
			c0.4-2.8,0-9.8,0.4-12.2c-0.7,2.6-1.3,4-2.7,6.2c-0.4-1.4-0.8-2.2-1.3-3.2c1.5-1.7,3.1-5.3,3.5-7.6c-0.8,0-2.2,0-2.7,0.1v-2.7
			c0.6,0.2,2.3,0.1,3.1,0.1c0-1.2,0-4-0.2-4.8h2.9c-0.2,1-0.2,3.5-0.2,4.8c0.7,0,1.6,0,2.2-0.1v2.7c-0.6-0.1-1.4-0.1-2.1-0.1
			c0.3,1,1.2,2.5,2.2,3.5v-0.2c1.2,0.2,4.3,0.1,5.8,0.1v-1.4c-1.2,0-4.1-0.1-5,0.1v-2.4c1.1,0.2,3.5,0.1,4.8,0.1v-1.4
			c-1.4,0-4.1-0.1-5.3,0.1v-2.6c0.8,0.1,1.8,0.1,2.9,0.1c-0.3-0.8-0.8-1.5-1.5-2.5l2.4-0.8c0.8,1.2,1.2,2.2,1.7,3.4h2.3
			c0.8-1.4,1.1-2.1,1.6-3.4l2.8,0.8c-0.7,1.3-1.1,2-1.5,2.6c1.2,0,2.9,0,3.9-0.2v2.6c-1.4-0.2-5-0.1-6.6-0.1v1.4
			c1.5,0,4.6,0.1,5.8-0.1v2.5c-1.1-0.2-4.4-0.1-5.8-0.1v1.4c1.7,0,5.4,0.1,6.9-0.2v2.6c-1.7-0.3-4.9-0.2-6.7-0.2
			c0.4,1.2,0.8,1.8,1.6,3c0.9-0.8,1.6-1.6,2.4-2.9l2.1,1.5c-1.1,1.4-1.8,2.1-3,3.2c1.4,1.3,2.4,2,4.1,2.8c-0.8,0.9-1.2,1.5-1.7,2.6
			c-2.9-1.8-4.5-3.8-5.9-6.7c0,4.8,1.8,8.4-5.1,7.4c-0.1-1.1-0.3-1.8-0.7-2.6c3.3,0.5,3.4,0.4,3.2-2.8c-1.9,1.6-3.7,2.4-6.1,4.1
			l-1.1-2.8c3-1.1,3.4-1.5,7.1-3.9v-2.9L434,2096.7L434,2096.7z M433.4,2096.9c1.3,1.2,1.8,1.7,2.6,2.9l-1.9,1.5
			c-0.9-1.2-1.2-1.7-2.5-3L433.4,2096.9z"/>
	</g>
	<g class="st6">
		<path d="M612.2,2087.9c-1.2,0-2,0.1-2.8,0.2v-2.7c1.6,0.3,8.1,0.2,10,0.2c0-0.9-0.1-1.4-0.2-2h3c-0.1,0.6-0.2,1.2-0.2,2
			c1.9-0.1,8.7,0.2,10.4-0.2v2.7c-1.7-0.3-8.5-0.2-10.4-0.2v1.2c1.6,0,6.9,0.1,8.3-0.1c-0.2,2.5-0.2,6.8,0,9.3
			c-0.8-0.1-1.2-0.1-2.6-0.1v1.2c1.4,0,3.7,0.1,4.8-0.2v2.7c-1.5-0.2-3.3-0.2-4.8-0.2c0.3,5.3-0.1,6.1-6,5.6
			c-0.2-1.2-0.4-1.8-0.8-2.7c3.9,0.3,4.2,1.1,4-3c-2.1,0.1-13.8-0.2-15.7,0.2v-2.7c1.7,0.4,13.6,0.1,15.6,0.2v-1.2
			c-1.8,0-11.9-0.1-13.5,0.1c0.2-2.5,0.2-6.8,0-9.3c1.3,0.2,6.3,0.1,7.8,0.1v-1.2h-6.9V2087.9z M617.7,2107.1
			c-1.5-1.7-2.1-2.3-3.6-3.4l2.1-1.7c1.7,1.1,2.7,2,3.7,3.2L617.7,2107.1z M614.4,2091.3v1.4h5v-1.4H614.4z M614.4,2094.7v1.4h5
			v-1.4H614.4z M622.1,2092.7h5.4v-1.4h-5.4V2092.7z M622.1,2096.1h5.4v-1.4h-5.4V2096.1z"/>
		<path d="M640.7,2097.1c0-0.7,0-1,0.1-3c-0.6,1-1.3,1.9-2.1,2.8c-0.3-1.1-0.7-2.1-1.2-3.1c2.3-2,5-7.1,5.5-10.3l2.9,0.9
			c-0.7,1.9-1.4,4.1-2.5,5.8c0.1,2.4-0.2,15.3,0.2,17.4h-3.1C640.8,2105.5,640.7,2099.3,640.7,2097.1L640.7,2097.1z M651.7,2089.2
			c-1.6,0.3-3.8,0.7-5.3,0.8c-0.4-1.2-0.5-1.6-1.2-2.7c5.9-0.5,11.6-1.8,13.9-3.3l1.9,2.5c-2.1,0.7-4.5,1.6-6.5,2v5.7
			c1.8,0,5.8,0.1,7.4-0.2v3c-1.6-0.3-5.6-0.2-7.4-0.2v6.9c1.7,0,5.2,0.1,6.6-0.2v2.9c-3.7-0.3-12-0.3-15.7,0v-2.9
			c1.3,0.2,4.6,0.2,6.2,0.2v-6.9c-1.8,0-5.5-0.1-7.1,0.2v-3c1.5,0.3,5.4,0.2,7.1,0.2L651.7,2089.2L651.7,2089.2z"/>
		<path d="M671.4,2104.3c-1.8,0-2.4,0-3.2,0.1v-3.4c1.8,0.4,12.8,0.1,15,0.2v-11.3c-2.3,0-12.8-0.1-14.7,0.1v-3.4
			c3.4,0.4,14.6,0.2,18.2,0.1c-0.2,3.3-0.2,16,0,19.2h-3.5v-1.6H671.4z"/>
		<path d="M694.5,2102.5c8-0.4,15.5-5.6,18.1-13.5c1,1.2,1.4,1.6,2.8,2.5c-4,9.1-10.5,12.6-19.8,14.5L694.5,2102.5z M696.7,2086.3
			c3.1,1.9,4.7,3.1,6.7,5l-2.2,2.8c-2.1-2.2-4.2-3.9-6.6-5.3L696.7,2086.3z"/>
		<path d="M722.8,2091.2c2.7,1.1,4.7,2.1,6.9,3.5l-1.6,2.9c-2.1-1.5-4.4-2.8-7-3.8L722.8,2091.2z M721.6,2102.9
			c7.5-0.1,15.8-5.3,18-13.1c1.1,1.1,1.5,1.5,2.7,2.3c-3.4,8.8-10.1,12.7-19.8,14.4L721.6,2102.9z M724.8,2084.9
			c2.7,1,4.7,2,6.9,3.4l-1.7,2.9c-2.4-1.6-4.7-2.8-6.9-3.6L724.8,2084.9z"/>
		<path d="M759.1,2103.3c1.6-0.1,6.4,0.2,7.7-0.2v2.9c-3.2-0.2-15-0.2-18.2,0v-2.9c1.3,0.3,6,0.2,7.5,0.2v-8.4
			c-1.6,0.1-4.4-0.2-5.9,0.2v-3c3,0.3,12,0.3,15,0v2.9c-1.1-0.2-4.7-0.1-6.1-0.1V2103.3z"/>
		<path d="M781.2,2085.4c-0.2,5.7-0.4,17.4-6,21.3c-1-1.3-1.4-1.7-2.6-2.5c5.1-4.1,5.4-10.4,5.1-19L781.2,2085.4z M788.1,2085.1
			c-0.4,1.3-0.2,15.6-0.3,17.3c3.5-1.7,5.4-4.1,6.5-7.8c0.9,1.2,1.2,1.5,2.4,2.4c-2.2,5.3-5.3,7.7-10.7,9.7l-1.7-1.8
			c0.4-3.5,0.3-16.4,0.2-20L788.1,2085.1z"/>
		<path d="M803.4,2091.4c2.4,1,5,2.3,6.9,3.5l-1.6,2.9c-1.7-1.3-4.7-2.9-7-3.8L803.4,2091.4z M802.3,2103.1
			c7.5-0.2,15.6-4.8,18-13.2c1,1.1,1.5,1.5,2.7,2.3c-3.2,8.5-10.3,12.8-19.8,14.4L802.3,2103.1z M805.4,2085.1
			c2.4,0.9,5,2.2,6.9,3.4l-1.7,2.9c-2.1-1.4-5-3-6.9-3.6L805.4,2085.1z M818.9,2084.6c1.1,1.2,1.8,2.2,2.7,3.8l-1.8,1
			c-0.9-1.6-1.6-2.6-2.7-3.9L818.9,2084.6z M823,2087.8c-0.8-1.4-1.6-2.7-2.7-3.8l1.7-0.9c1.2,1.2,1.9,2.2,2.7,3.7L823,2087.8z"/>
		<path d="M844.8,2103.3c1.2,0,1.7,0,2.4-0.2v3c-3.2-0.2-15.1-0.2-18.3,0v-3c1.4,0.4,8.5,0.2,10.1,0.2c0.4-2.3,1-6,1.2-8.3
			c-1.6,0-7.4-0.1-8.7,0.1v-2.9c2.5,0.3,8.4,0.4,10.9,0l1.4,1.2c-0.7,2.4-1.1,7.6-1.7,10h2.7V2103.3z"/>
	</g>
	<g class="st6">
		<path d="M1066.7,2000.1c0.6,0.1,1.3,0.1,2.1,0.1c0.4-0.5,0.7-0.9,1.2-1.6c-1-1.5-2.2-2.8-3.4-3.9l1.3-2.1c0.5,0.5,0.6,0.6,1,1
			c0.9-1.5,1.7-3.3,1.9-4.2l2.5,1c-0.5,1-1.9,3.7-2.8,4.9c0.4,0.6,0.5,0.7,0.9,1.1c1.5-2.4,1.9-3.1,2.4-4.3l2.2,1.3
			c-0.6,1-3.5,5.2-4.6,6.7c1.2,0,1.9-0.1,2.7-0.2c-0.2-0.7-0.4-1-0.8-2l1.6-0.8c1,2.3,1.4,3.3,2,5.2l-1.9,0.9
			c-0.1-0.6-0.2-0.9-0.3-1.2c-0.8,0.1-1.1,0.2-1.7,0.2c0.1,1.8-0.2,8.9,0.2,10.5h-2.7c0.2-1.6,0.1-8.5,0.1-10.3
			c-1.4,0.1-2.8,0.1-3.7,0.3L1066.7,2000.1z M1069.9,2003.9c-0.1,3.5-0.3,4.9-0.9,7.5l-2.3-0.9c0.7-2.1,0.9-3.8,1-7L1069.9,2003.9z
			 M1075.7,2003.4c0.4,1.3,0.5,2.3,0.8,5.3l-2.1,0.6c0-2.1-0.1-3.3-0.5-5.4L1075.7,2003.4z M1086.1,2003.5c1,0,1.7,0,2.4-0.2v2.6
			c-1.3-0.2-3.2-0.1-4.6-0.1v3.4c1.4,0,4.7,0.1,5.8-0.1v2.7c-3.2-0.3-10.4-0.3-13.6,0v-2.7c1.1,0.2,4,0.1,5.3,0.1v-3.4
			c-1.3,0-3-0.1-4.2,0.1v-2.6c0.9,0.1,3,0.1,4.2,0.1c0-1,0-2.4-0.1-2.9h2.8c-0.1,0.6-0.1,1.8-0.1,2.9L1086.1,2003.5L1086.1,2003.5z
			 M1088.8,1991.9c-1.8,2.7-2.2,3.3-4.1,5.3c1.6,0.9,3.1,1.4,5.3,1.8c-0.6,1-0.8,1.5-1.2,2.7c-2.6-0.8-4.5-1.6-6.3-2.8
			c-1.5,1.1-2.6,1.7-4.6,2.5c-0.4-0.9-0.8-1.5-1.6-2.3c1.7-0.5,2.9-1,4.2-1.8c-1.4-1.3-2.3-2.6-3.1-4.3c-0.6,0-0.9,0-1.3,0.1v-2.7
			c2.4,0.2,8.6,0.2,11.1,0L1088.8,1991.9z M1080,1993c0.7,1.2,1.3,1.9,2.4,2.9c1.2-1,1.8-1.7,2.5-2.9H1080z"/>
		<path d="M1096.4,1993.2c-0.8,0-1.2,0-1.9,0.1v-2.7c2,0.2,6,0.2,8,0v2.7c-0.8-0.1-1.7-0.1-2.5-0.1v4.9c0.8,0,1.4,0,2.2-0.1v2.5
			c-0.6-0.1-1.5-0.1-2.2-0.1v4.9c1-0.5,1.3-0.6,2.4-1.1l0.1,2.6c-2.1,1.1-3.8,1.8-7.5,3.3l-0.7-2.8c0.8-0.2,1.4-0.4,3.1-1v-5.9
			c-0.8,0-1.7,0-2.5,0.1v-2.6c0.8,0.1,1.7,0.1,2.5,0.1v-4.9h-1V1993.2z M1108.4,2006.8c-1.3,0-4.4-0.1-5.4,0.1v-2.5
			c0.8,0.2,4.2,0.1,5.4,0.1v-2c-1.4,0-4.5-0.1-5.4,0.1c0.2-2.1,0.2-9.6,0-12c3,0.2,10.6,0.2,13.5,0c-0.2,2.7-0.2,9.3,0,12
			c-1-0.2-4.2-0.1-5.6-0.1v2c1.4,0,4.8,0.1,5.8-0.1v2.6c-1.1-0.2-4.4-0.1-5.8-0.1v2.6c1.4,0,5.5,0.1,6.6-0.1v2.7
			c-3.4-0.2-12.7-0.2-16.1,0v-2.7c1.2,0.2,5.5,0.1,7,0.1L1108.4,2006.8L1108.4,2006.8z M1105.7,1993v2.5h2.8v-2.5H1105.7z
			 M1105.7,1997.6v2.5h2.8v-2.5H1105.7z M1110.9,1995.5h2.9v-2.5h-2.9V1995.5z M1110.9,2000.1h2.9v-2.5h-2.9V2000.1z"/>
	</g>
	<g class="st6">
		<path d="M1367.5,2000.5c-0.3,6.2-2.6,9.5-8.3,11.6c-0.6-1.2-1-1.8-2-2.8c4.9-1.5,6.8-4,7-8.9c-1.8,0-7.9-0.1-9.3,0.1v-3
			c3.9,0.4,17.1,0.4,21,0v3c-1.2-0.2-6.7-0.1-8.4-0.1V2000.5z M1371.3,1994.4c-2.8-0.2-11-0.2-13.8,0v-3c2.9,0.3,10.8,0.3,13.7,0
			L1371.3,1994.4L1371.3,1994.4z M1372.7,1989.7c0.9,1.3,1.5,2.3,2.2,3.9l-1.9,0.7c-0.7-1.7-1.3-2.7-2.2-4L1372.7,1989.7z
			 M1376.3,1993.2c-0.6-1.4-1.3-2.7-2.1-3.9l1.8-0.7c1,1.3,1.6,2.3,2.2,3.8L1376.3,1993.2z"/>
		<path d="M1395.8,1995.4c0-1.6,0.1-3.5-0.1-4.6h3.2c-0.2,1.3-0.1,3.1-0.1,4.6c1.5,0,4.1,0.1,4.9-0.2v3c-0.6-0.1-3.4-0.1-4.8-0.1
			c0,8.1-1.5,11.1-8.6,13.9c-0.4-1-0.8-1.6-1.9-2.6c6.4-2.1,7.4-4.4,7.5-11.2h-6.5c0,1.3-0.1,4.8,0.1,5.8h-3.2
			c0.2-0.8,0.1-4.7,0.1-5.8c-1.5,0-4,0-4.7,0.1v-3c0.8,0.3,3.2,0.2,4.7,0.2c0-1.1,0.1-3.9-0.1-4.7h3.3c-0.2,1-0.1,3.5-0.1,4.7h6.3
			V1995.4z M1400.5,1989.4c0.8,1.2,1.3,2.4,1.7,3.9l-1.7,0.5c-0.5-1.6-1-2.8-1.7-3.9L1400.5,1989.4z M1403.6,1992.9
			c-0.4-1.3-0.9-2.5-1.7-3.8l1.6-0.5c0.7,1,1.2,2.2,1.7,3.7L1403.6,1992.9z"/>
		<path d="M1428.4,1992.3c-2.2,2.2-4.2,4.3-6.8,6c0,2-0.1,11.8,0.1,13.5h-3.5c0.2-1.5,0.1-9.7,0.1-11.5c-2.9,1.7-4.3,2.4-8.9,4
			c-0.5-1.3-0.8-1.7-1.7-2.8c6.4-1.6,14.2-6,17.7-11.2L1428.4,1992.3z"/>
		<path d="M1450.7,1996.4c1.8,0,2.3,0,3.2-0.2v3.1c-1.5-0.2-6.5-0.1-8.3-0.1c-0.4,6.8-2.4,9.2-8.2,12.6c-0.8-1.4-1.2-1.9-2.3-2.7
			c5.1-2.4,6.8-4.4,7.2-9.9c-1.9,0-7.8-0.1-9.4,0.1v-3.1c1.7,0.4,7.5,0.1,9.5,0.2c0-2.2,0.1-4-0.1-5.8h3.4c-0.2,0.7-0.1,5.3-0.1,5.8
			H1450.7z"/>
		<path d="M1459.6,1999.3c4.3,0.3,17,0.4,21.3,0v3.5c-4-0.2-17.5-0.2-21.5,0v-3.5H1459.6z"/>
	</g>
	<g class="st6">
		<path d="M1339.8,2459.4c1.3,1,4,3.7,4.6,4.3c2.6-2.1,4.9-4.9,6.5-7.4c-3.9-0.2-12.3-0.1-16.2,0v-3.2c3.4,0.3,15.7,0.4,19.2,0
			l1.8,2c-2.7,3.9-5.7,8.2-9.2,11c1,1.2,2,2.4,3.3,4.2l-2.6,2.1c-2.3-3.8-6.3-8.3-9.8-11.1L1339.8,2459.4z"/>
		<path d="M1360.4,2460c4.3,0.3,17,0.4,21.3,0v3.5c-4-0.2-17.5-0.2-21.5,0v-3.5H1360.4z"/>
		<path d="M1402.9,2458.2c-0.2,7.6-3.1,11.5-9.7,14.5c-0.6-1.3-1-1.8-2.1-2.7c5.5-2.1,8.4-5.1,8.7-11.7h-6c-1.5,2.3-2.3,3.4-4.1,5.1
			c-0.9-1-1.3-1.3-2.5-2c3-2.4,5.9-6.7,6.5-10.5l3.2,0.8c-0.1,0.2-1.2,2.7-1.7,3.8c0.7,0,0.7,0,10.9,0c1.8,0,2.1,0,3.1-0.2v3.1
			c-1.6-0.2-4.5-0.1-6.3-0.1V2458.2z"/>
		<path d="M1426.6,2461.2c-0.4,6.1-2.2,9.3-8.2,11.6c-0.6-1.3-1-1.7-2-2.8c5-1.5,6.8-4,7-8.9c-1.9,0-7.7-0.1-9.3,0.1v-3
			c4,0.3,17,0.4,21,0v3c-1.5-0.2-6.7-0.1-8.5-0.1V2461.2z M1416.6,2452c3.4,0.3,12.6,0.3,16,0v3c-3.4-0.2-12.6-0.2-16.1,0
			L1416.6,2452L1416.6,2452z"/>
		<path d="M1457.9,2457c-1.5,1.5-3.6,3.6-5.4,4.9c0,1.7-0.1,9.5,0.1,10.9h-3.2c0.2-1.4,0.1-7.5,0.1-9.1c-2.2,1.3-4,2.1-7.1,3.2
			c-0.5-1.2-0.8-1.6-1.5-2.6c5.6-1.5,11.1-4.5,14.5-9.1L1457.9,2457z"/>
		<path d="M1464.8,2468.4c7.5-0.3,15-5.3,17.3-12.9c1,1.2,1.4,1.5,2.6,2.4c-3.8,8.7-10,12.1-19,14L1464.8,2468.4z M1467,2452.8
			c3,1.8,4.5,3,6.4,4.8l-2.1,2.7c-2-2.1-4-3.8-6.4-5.1L1467,2452.8z"/>
		<path d="M1509.2,2455.8c-2.7,8.3-6.4,13.7-14.5,17.2c-0.6-1.2-1.1-1.7-2.1-2.6c6.5-2.5,10.8-7,12.8-13.5l-7.5,0.1
			c-1.4,2.3-3.8,4.9-5.8,6.4c-0.7-1-1.1-1.3-2.4-2.1c3.3-2.1,6.9-6.5,7.8-10.5l3.4,0.7c-0.5,0.7-0.9,2.1-1.5,2.9
			c1.5,0,6.5-0.1,8-0.1c-0.6-1.2-1-2.1-1.8-3.1l1.8-0.6c1,1.3,1.5,2.3,2.2,3.9l-1.1,0.4L1509.2,2455.8z M1510.8,2454
			c-0.6-1.5-1.3-2.8-2.1-3.9l1.8-0.6c1,1.3,1.6,2.3,2.2,3.8L1510.8,2454z"/>
	</g>
	<g class="st6">
		<path d="M994.9,2472.3l-4.3-17.9h3.7l2.7,12.3l3.3-12.3h4.3l3.1,12.5l2.7-12.5h3.6l-4.3,17.9h-3.8l-3.6-13.4l-3.6,13.4H994.9z"/>
		<path d="M1018.8,2472.3v-17.9h13.3v3h-9.7v4h9v3h-9v4.9h10v3H1018.8z"/>
		<path d="M1038.3,2454.4c3.2,0.2,9.6-0.7,12.3,0.9c2.8,1.8,2.4,6.1-0.6,7.5c5.3,1.2,3.9,9.2-1.2,9.3c-1.4,0.2-8.4,0.1-10.5,0.1
			V2454.4z M1041.9,2457.4v4.1c2.4-0.3,6.9,1,7-2.1C1048.6,2456.3,1044.5,2457.7,1041.9,2457.4L1041.9,2457.4z M1041.9,2464.5v4.8
			c2.1-0.2,5.8,0.6,7.1-0.8C1051.4,2464,1045,2464.4,1041.9,2464.5z"/>
	</g>
	<g class="st6">
		<path d="M1078.2,2456.9c-2.6,8.1-6.4,14-14.6,17.4c-0.7-1.2-1-1.7-2.1-2.6c6.6-2.5,10.7-6.7,12.8-13.4l-7.5,0.1
			c-1.5,2.4-3.5,4.6-5.8,6.4c-0.8-1-1.1-1.3-2.4-2.1c3.3-2.3,6.9-6.4,7.8-10.5l3.4,0.7c-0.4,0.6-0.8,2-1.4,2.9
			c1.8-0.3,6.8,0,8.5-0.4L1078.2,2456.9z"/>
		<path d="M1089.2,2453.2c-0.2,2.4-0.2,8.9,0,11.3h-3.4c0.2-2.5,0.2-8.9,0-11.3H1089.2z M1100.5,2453.2c-0.2,10,1.2,18.5-10.5,21
			c-0.5-1.2-0.7-1.6-1.8-3c10.4-1.3,9.1-9.9,8.8-18.1L1100.5,2453.2L1100.5,2453.2z"/>
		<path d="M1119.8,2468.5c1.9-0.1,7.6,0.2,9.2-0.2v3.1c-4-0.2-17.3-0.2-21.4,0v-3.1c1.6,0.4,6.9,0.1,8.8,0.2v-10.3
			c-1.7,0-5.6-0.1-7,0.1v-3.1c3.7,0.3,13.8,0.4,17.5,0v3.1c-1.4-0.2-5.7-0.1-7.4-0.1v10.3H1119.8z"/>
		<path d="M1153.7,2454.6c-2.2,2.2-4.3,4.3-6.8,6c0,2-0.1,11.8,0.1,13.5h-3.5c0.2-1.5,0.1-9.7,0.1-11.5c-2.9,1.7-4.3,2.4-8.9,4
			c-0.5-1.3-0.8-1.7-1.7-2.8c6.4-1.6,14.2-6,17.7-11.2L1153.7,2454.6z"/>
		<path d="M1176.8,2456.6c-3.1,8-6.5,14.5-15.4,18.1c-0.8-1.3-1.1-1.8-2.1-2.6c3.8-1.6,6.5-3.1,9-6c-1.7-1.5-3.2-2.5-5.1-3.6
			l1.9-2.2c2.1,1.2,3.1,1.9,5,3.3c1.2-1.8,2-3.5,2.8-5.9l-7.8,0.1c-1.5,2.6-3.3,4.6-5.8,6.7c-0.8-0.9-1.2-1.2-2.5-2
			c3.5-2.6,6.7-6.5,7.7-10.6l3.2,0.7c-0.3,0.3-1.2,2.2-1.4,2.6c0.4,0,0.4,0,6.5-0.1c1,0,1.5-0.1,2.2-0.3L1176.8,2456.6z"/>
		<path d="M1182.9,2461.5c4.3,0.3,17,0.4,21.3,0v3.5c-4-0.2-17.3-0.2-21.3,0V2461.5z"/>
	</g>
	<g id="長方形_2592" transform="translate(926.112 1951.287)">
		<rect x="0" class="st7" width="643.5" height="589.2"/>
		<rect x="2.5" y="2.5" class="st8" width="638.5" height="584.2"/>
	</g>
	<path id="長方形_2593" class="st0" d="M1105.8,2507.8h284.1c15.8,0,28.5,12.8,28.5,28.5l0,0c0,15.8-12.8,28.5-28.5,28.5h-284.1
		c-15.8,0-28.5-12.8-28.5-28.5l0,0C1077.3,2520.6,1090.1,2507.8,1105.8,2507.8z"/>
	<g class="st6">
		<path class="st1" d="M1130.3,2538l3.5,1.1c-2.1,9.6-16.8,6.4-15.7-3.3c-1.2-9.4,12.9-13.4,15.5-4.2l-3.6,0.9
			c-1.7-5.6-9.1-2.6-8.1,3C1120.9,2541.9,1128.9,2544.3,1130.3,2538z"/>
		<path class="st1" d="M1141.4,2544.6h-3.4v-13h3.2v1.8c1.1-2.3,3.2-2.6,5.3-1.5l-1.1,3C1140,2532,1141.8,2541.4,1141.4,2544.6
			L1141.4,2544.6z"/>
		<path class="st1" d="M1156.6,2540.4l3.4,0.6c-2.1,6.6-12.9,4.2-12-2.8c-0.4-9.5,13.6-8.7,12.2,1h-8.6
			C1151.2,2542.4,1156,2543.9,1156.6,2540.4z M1156.8,2537c0.3-3.9-5.5-4.1-5.2-0.1h5.2V2537z"/>
		<path class="st1" d="M1166.8,2535.6l-3.1-0.6c0.7-4.5,8.4-4.9,10.6-1.8c1.2,2.9-0.3,8.4,1.3,11.3h-3.4c-0.1-0.2-0.4-1-0.4-1.4
			c-7.8,6-14.1-6-0.4-7C1171.9,2533.3,1167.5,2533.3,1166.8,2535.6z M1171.4,2538.3C1160.6,2539.6,1171.8,2546.7,1171.4,2538.3
			L1171.4,2538.3z"/>
		<path class="st1" d="M1185.3,2531.6v2.7h-2.3c0.5,2-1.6,9.3,2.4,7.3l0.3,2.7c-7.9,2.8-5.9-5.1-6.1-10h-1.6v-2.7h1.6v-2.6l3.4-2
			v4.6L1185.3,2531.6L1185.3,2531.6z"/>
		<path class="st1" d="M1189,2529.8v-3.2h3.4v3.2H1189z M1189,2544.6v-13h3.4v13H1189z"/>
		<path class="st1" d="M1200.7,2544.6l-5.2-13h3.6c0.6,1.6,2.7,7.3,3.1,8.8c0.5-1.6,2.7-7.1,3.3-8.8h3.5l-5.2,13L1200.7,2544.6
			L1200.7,2544.6z"/>
		<path class="st1" d="M1219.8,2540.4l3.4,0.6c-2.1,6.6-12.9,4.2-12-2.8c-0.4-9.5,13.6-8.7,12.2,1h-8.6
			C1214.4,2542.4,1219.2,2543.9,1219.8,2540.4z M1220,2537c0.3-3.9-5.5-4.1-5.2-0.1h5.2V2537z"/>
		<path class="st1" d="M1247.1,2538l3.5,1.1c-2.1,9.6-16.8,6.4-15.7-3.3c-1.2-9.4,12.9-13.4,15.5-4.2l-3.6,0.9
			c-1.7-5.6-9.1-2.6-8.1,3C1237.7,2541.9,1245.7,2544.3,1247.1,2538z"/>
		<path class="st1" d="M1254.2,2537.9c-0.3-8.7,13.7-8.4,13.3,0.2C1267.9,2547,1253.3,2547.1,1254.2,2537.9z M1257.7,2538.1
			c-0.5,5.2,6.9,5.2,6.4,0C1264.6,2533,1257.2,2533,1257.7,2538.1z"/>
		<path class="st1" d="M1283.3,2544.6h-3.4c-0.3-2.3,0.8-8.8-0.9-10.3c-5.7-2-3.8,7.2-4.1,10.4h-3.4v-13h3.2v1.9
			c1.8-2.6,5.8-3,7.8-0.8C1284.1,2534.8,1283.1,2542.1,1283.3,2544.6L1283.3,2544.6z"/>
		<path class="st1" d="M1299.3,2535.4l-3.4,0.6c-0.9-3.7-5.9-1.8-5.2,1.9c-0.7,4.2,4.5,6.3,5.4,1.8l3.4,0.6
			c-1.4,7.4-13,5.5-12.2-2.1C1286.5,2531.1,1297.4,2528.5,1299.3,2535.4z"/>
		<path class="st1" d="M1303.2,2529.8v-3.2h3.4v3.2H1303.2z M1303.2,2544.6v-13h3.4v13H1303.2z"/>
		<path class="st1" d="M1318.9,2540.4l3.4,0.6c-2.1,6.6-12.9,4.2-12-2.8c-0.4-9.5,13.6-8.7,12.2,1h-8.6
			C1313.5,2542.4,1318.3,2543.9,1318.9,2540.4z M1319.1,2537c0.3-3.9-5.5-4.1-5.2-0.1h5.2V2537z"/>
		<path class="st1" d="M1329.8,2544.6h-3.4v-13h3.2v1.8c1.1-2.3,3.2-2.6,5.3-1.5l-1.1,3C1328.4,2532,1330.2,2541.4,1329.8,2544.6
			L1329.8,2544.6z"/>
		<path class="st1" d="M1337.2,2545.4l3.9,0.5c0.1,1.7,3.1,1.5,4,0.9c1.2-0.8,0.8-3,0.9-4.4c-3.3,4.7-9.7,0.8-9.2-4.4
			c-0.6-5.6,5.9-9.2,9.5-4.6v-1.8h3.2c-0.5,3.6,1.3,14.2-1.5,16.8C1344.9,2550.9,1336.8,2550.4,1337.2,2545.4z M1340.2,2537.8
			c-0.5,5.2,6.1,5.1,5.8,0.1C1346.5,2532.8,1339.9,2532.7,1340.2,2537.8z"/>
		<path class="st1" d="M1361.5,2540.4l3.4,0.6c-2.1,6.6-12.9,4.2-12-2.8c-0.4-9.5,13.6-8.7,12.2,1h-8.6
			C1356.1,2542.4,1360.9,2543.9,1361.5,2540.4z M1361.7,2537c0.3-3.9-5.5-4.1-5.2-0.1h5.2V2537z"/>
	</g>
	<g id="グループ_1741" transform="translate(499.271 2444.355) rotate(180)">
		<path id="パス_2560" class="st9" d="M106.1,103.5l3.6-10.9c106.6-3.6,88.1,21.4,89.5-79.1c0-5.5-9.7-9.9-21.7-9.9
			c0,0-151.4,0-151.4,0c-12,0-21.7,4.4-21.7,9.9c1.3,100.6-17,75.4,89.5,79.1l3.6,10.9"/>
		<path id="パス_2561" d="M102.4,101.1c-0.7,0-1.6-0.4-1.4-0.8c0,0,3.6-10.9,3.6-10.9c96.4-6.9,90.2,27.1,88.8-78.8
			c0-5.1-9-9.2-20.1-9.2H23c-11.1,0-20.1,4.1-20.1,9.2v69.1c3.6,17.9,76.2,5,88.8,9.8c0,0,3.6,10.9,3.6,10.9
			c0.1,0.4-0.4,0.7-1.2,0.8s-1.5-0.2-1.7-0.6L89,90.2C-16,86.7,1.1,111.1,0,10.6C0,4.7,10.3,0,23,0h150.4c12.7,0,23,4.7,23,10.6
			c-1,100.6,15.9,76.2-89.1,79.7l-3.4,10.3C103.7,100.9,103.1,101.1,102.4,101.1z"/>
	</g>
	<g id="グループ_1742" transform="translate(800.604 2444.355) rotate(180)">
		<path id="パス_2560-2" class="st10" d="M106.1,103.5l3.6-10.9c106.6-3.6,88.1,21.4,89.5-79.1c0-5.5-9.7-9.9-21.7-9.9
			c0,0-151.4,0-151.4,0c-12,0-21.7,4.4-21.7,9.9c1.3,100.6-17,75.4,89.5,79.1l3.6,10.9"/>
		<path id="パス_2561-2" d="M102.4,101.1c-0.7,0-1.6-0.4-1.4-0.8c0,0,3.6-10.9,3.6-10.9c96.4-6.9,90.2,27.1,88.8-78.8
			c0-5.1-9-9.2-20.1-9.2H23c-11.1,0-20.1,4.1-20.1,9.2v69.1c3.6,17.9,76.2,5,88.8,9.8c0,0,3.6,10.9,3.6,10.9
			c0.1,0.4-0.4,0.7-1.2,0.8s-1.5-0.2-1.7-0.6L89,90.2C-16,86.7,1.1,111.1,0,10.6C0,4.7,10.3,0,23,0h150.4c12.7,0,23,4.7,23,10.6
			c-1,100.6,15.9,76.2-89.1,79.7l-3.4,10.3C103.7,100.9,103.1,101.1,102.4,101.1z"/>
	</g>
	<g class="st6">
		<path d="M332.9,2393.2c-1.8,2.5-1.4,10.4-1.2,13.4h-1.8c0.2-2.3,0-5.4,0.1-7.9c-0.5,0.7-0.9,1.2-1.4,1.7c-0.2-0.7-0.4-1.1-0.8-1.8
			c1.5-1.3,3-4,3.4-6.1L332.9,2393.2z M335.3,2396.4c-0.7,1.3-1.4,2.5-2.5,3.7c-0.4-0.6-0.6-0.9-1.1-1.4c1.5-1.5,2.8-4,3.2-6
			l1.7,0.5c-0.2,0.6-0.4,1.4-0.7,1.8c1.1,0,4.8,0.1,5.7-0.1v1.6c-0.9-0.1-3.4-0.1-4.4-0.1v1.9c1,0,3,0.1,3.9-0.1v1.6
			c-0.9-0.2-2.9-0.1-3.9-0.1v1.9c0.9,0,3.2,0.1,4-0.1v1.6c-0.9-0.2-3-0.1-4-0.1c0,0.9-0.1,2.9,0.1,3.5h-1.8c0.2-1,0-9.1,0.1-10.3
			h-0.3V2396.4z"/>
		<path d="M346.9,2398.8c-0.7,0-1.1,0-1.5,0.1v-1.4c0.7,0.1,2.5,0.1,3.3,0.1c-0.2-0.5-0.4-0.8-0.6-1.1c-1,0-2.6-0.1-3.4,0.1v-1.5
			c0.5,0.1,1.4,0.1,2.2,0.1c-0.3-0.5-0.5-0.8-1-1.4l1.5-0.6c0.5,0.7,0.7,1.1,1.2,2h0.9c0-0.6,0.1-1.8-0.1-2.3h1.6c0,0.5,0,1.6,0,2.2
			h1.1c0-0.6,0-1.7,0-2.2h1.6c-0.1,0.5-0.1,1.7-0.1,2.3h0.9c0.5-0.8,0.8-1.3,1.1-2l1.5,0.6c-0.4,0.6-0.6,1-0.9,1.4
			c0.8,0,1.6,0,2.1-0.1v1.5c-0.7-0.1-2.4-0.1-3.3-0.1c-0.3,0.6-0.3,0.7-0.6,1.1c0.8,0,2.6,0.1,3.2-0.1v1.4c-0.9-0.2-4.4-0.1-5.4-0.1
			v0.7c1,0,3.8,0.1,4.6-0.1v1.4c-0.9-0.2-3.6-0.1-4.6-0.1v0.8c1.1,0,5.1,0.1,6-0.1v1.5c-1.1-0.2-3.6-0.1-4.8-0.1
			c1.5,1.1,3,1.7,5.1,2.1c-0.4,0.6-0.6,0.9-0.9,1.5c-2.5-0.7-4.2-1.6-5.6-3c0,1.2-0.1,2.3,0.1,3.3h-1.8c0.2-1,0.1-2,0.1-3.2
			c-1.5,1.5-3.2,2.3-5.3,3c-0.2-0.5-0.5-1-0.9-1.4c2.2-0.5,3.7-1.1,4.9-2.1c-1.2,0-3.5-0.1-4.6,0.1v-1.5c1,0.2,4.6,0.1,5.8,0.1v-0.8
			c-0.9,0-3.7-0.1-4.5,0.1v-1.4c0.9,0.2,3.5,0.1,4.5,0.1v-0.7h-3.4V2398.8z M352.8,2397.5c0.2-0.4,0.3-0.7,0.5-1.1h-3.4
			c0.2,0.5,0.3,0.7,0.5,1.1H352.8z"/>
		<path d="M362,2394.6c0.6,0.1,1.6,0.2,3.5,0.2c0.4-0.9,0.5-1.3,0.6-1.9l2,0.2c-0.1,0.1-0.1,0.1-0.6,1.3c-0.1,0.2-0.1,0.2-0.1,0.3
			c1.3-0.1,4.2-0.4,4.8-0.6l0.1,1.7c-1.6,0.1-3.7,0.4-5.7,0.4c-0.4,0.9-0.9,1.5-1.4,2l0,0c1.3-1.1,4.2-1.4,4.5,0.7
			c1.6-0.6,2.6-0.8,3.4-1.3l0.7,1.7c-1.4,0.3-1.9,0.4-3.9,1.2c0,1,0,1.8,0,2.7h-1.7c0.1-0.3,0.1-1.4,0.1-2.1
			c-6.3,3.4,2.5,3.6,4.7,2.5l0.2,1.9c-5.9,1.7-14-1.4-5-5.9c-0.8-2.3-4.4,0.7-5.3,2.1l-1.4-1.3c1.1-0.8,2.6-2.9,3.2-4.1
			c-0.7,0-2.1,0-2.8,0L362,2394.6z"/>
		<path d="M382.3,2403.8c0,5.8-10.2-0.9-1.6-4.1v-2.3c-0.7,0-2.1,0-2.9,0v-1.7c0.6,0.1,2.1,0.1,2.9,0.1c0-0.8,0-2.2-0.1-2.7h1.9
			c-0.1,0.6-0.1,1.8-0.1,2.6c1.1-0.1,2.1-0.3,2.9-0.6l0.1,1.7c-0.5,0-2.1,0.4-3,0.5v2c2.8-1,7.5-0.3,7.4,3.3
			c0.1,4.4-6.8,4.5-6.2-0.2c0.8-0.2,1-0.3,1.7-0.7c0.4,7.5,7.1-3.8-3-0.8L382.3,2403.8z M380.6,2401.4c-2.1,1-2.5,2.6-0.3,2.8
			C380.9,2404.3,380.5,2401.8,380.6,2401.4z M389,2398.3c-0.8-1.2-1.8-2.4-3-3.2l1.4-0.9c1.3,1,2.2,1.9,3,3.1L389,2398.3z"/>
		<path d="M397.1,2395.9c0.2-0.4,0.3-0.8,0.4-1.2h-2.2c-0.2,6.4,0.3,7.5-1.3,11.7c-0.3-0.2-0.6-1-1.2-1.4c1.2-3.1,1.1-8.2,0.9-11.9
			c1.6,0.2,4.9,0.2,6.5,0v1.6c-0.4,0-0.7-0.1-1.3-0.1c-0.1,0.5-0.2,0.7-0.4,1.2c0.5,0,1.2,0,1.6,0c0,1.2,0,4.3,0,5.5
			c-0.4,0-1,0-1.5,0c-0.3,1.6,1.1,5.6-1.8,5.1c0,0,0,0-0.3,0c0-0.6-0.1-1.1-0.3-1.5c0.4-0.1,1,0.2,1-0.2c0,0,0-3.4,0-3.4
			c-0.5,0-1.1,0-1.6,0c0-1.3,0-4.2,0-5.5C396.2,2395.9,396.5,2395.9,397.1,2395.9z M396.9,2402.2c-0.2,1.1-0.6,2.7-1.1,3.9
			c-0.4-0.3-0.7-0.4-1.2-0.6c0.6-1.1,0.8-2,1.1-3.6L396.9,2402.2z M397.2,2398.1h1.6v-0.8h-1.6V2398.1z M397.2,2400.1h1.6v-0.9h-1.6
			V2400.1z M400.1,2401.9c0.2,0.7,0.3,1,0.5,2.4l-1.2,0.5c-0.1-1.2-0.2-1.7-0.5-2.6L400.1,2401.9z M402,2403.8c-0.5,0-0.8,0-1.2,0
			c0-1.8,0-6.2,0-8c0.4,0,1.1,0,1.7,0c0.2-0.5,0.3-0.7,0.4-1.1c-0.7,0-1.6,0-2.3,0.1v-1.6c1.5,0.2,4.8,0.2,6.3,0v1.6
			c-0.5-0.1-1.8-0.1-2.5-0.1c-0.2,0.4-0.3,0.7-0.5,1.1c0.7,0,2.1,0,2.5,0c0,1.8,0,6.2,0,8c-0.6,0-1.2,0-1.8,0
			c0.8,0.8,1.4,1.1,2.5,1.6c-0.5,0.6-0.7,0.9-1,1.3c-0.9-0.5-1.6-1.1-2.6-2.1l1-0.8h-2.4l1,0.8c-1,1.1-1.8,1.6-2.9,2.2
			c-0.3-0.5-0.6-0.8-1-1.2C400.5,2405.1,401.2,2404.6,402,2403.8L402,2403.8L402,2403.8z M402.3,2398.1h2.7v-0.8h-2.7V2398.1z
			 M402.3,2400.2h2.7v-0.8h-2.7V2400.2z M402.3,2402.4h2.7v-0.9h-2.7V2402.4z"/>
		<path d="M412.5,2394.4c-0.7,3,0.9,14,2.8,5.5c0.5,0.6,0.8,0.8,1.5,1.4c-3.5,10.3-6.9-0.7-6.3-6.9H412.5z M419.6,2395.1
			c1.9,2.3,2.9,4.8,3.4,8.1l-1.9,0.7c-0.2-2.8-1.3-5.8-3.1-8L419.6,2395.1z"/>
		<path d="M429.4,2393.5c-0.2,2.5-0.9,7.8,0,9.9c2.8,2.5,6.2-1.1,6.3-4.3c0.8,0.7,1.1,0.8,1.8,1.2c-0.9,4.6-5,7.1-8.9,5
			c-2.8-2.4-0.8-7-1.5-11.9L429.4,2393.5z"/>
		<path d="M452,2405.6c-0.9-0.9-2.2-1.9-3.6-2.5c0.6,3.9-7,3.5-6.8,0.5c-0.2-1.9,2.7-3,5-2.5c0-0.7,0-0.6,0-1.5
			c-1.9,0-2.8,0-4.8-0.1v-1.6c0.8,0.3,3.2,0.3,4.7,0.3c0-0.1,0-0.6,0-1.5c-1.5,0-3.4-0.1-5.1-0.2v-1.7c0.9,0.3,3.4,0.3,5.1,0.3
			c0-1.5,0-1.5-0.1-1.9h1.9c-0.1,0.4-0.1,0.6-0.1,1.8c2-0.1,3.3-0.3,4.3-0.6l0.1,1.7c-1.2,0.1-3,0.4-4.4,0.4c0,0.4,0,0.6,0,1.5
			c0.9,0,2.9-0.3,4-0.5v1.6c-1.2,0.1-2.2,0.2-4,0.4c0,1.5,0,1.5,0.1,1.8c1.4,0.4,3,1.4,4.6,2.4L452,2405.6z M445.5,2402.5
			c-5.3,0.6,1.9,4,1.3,0C446.2,2402.6,445.9,2402.5,445.5,2402.5z"/>
		<path d="M464.9,2398.7c1.4,3.5-0.4,6.8-4.4,7.7c-0.4-0.9-0.6-1.2-1.1-1.7c1.9-0.4,4-1.2,4.3-3.1c-5.4,4.7-7.2-6.5-0.3-3.6
			c0-0.2,0-0.9,0-1.5c-2.9,0-5.6,0.4-6.9,0.4l-0.1-1.8c1.6,0,4.6-0.2,6.9-0.2c0-1.4,0-1.4-0.1-1.8h1.9c-0.1,0.5-0.1,0.5-0.1,1.8
			c2.6,0,3.8,0,4.3-0.1v1.7c-1.3-0.1-2.3-0.1-4.3-0.1C465,2397,465,2398.1,464.9,2398.7z M461.8,2398.9c-1.8-0.1-1.9,2.4-0.1,2.4
			C463.6,2401.4,463.7,2398.8,461.8,2398.9z"/>
		<path d="M475.7,2404c0.1,3.3-5.1,3.3-5,0C470.6,2400.7,475.8,2400.7,475.7,2404z M471.8,2404c-0.1,1.8,2.9,1.8,2.8,0
			C474.7,2402.1,471.8,2402.2,471.8,2404z"/>
	</g>
	<g class="st6">
		<path d="M647.3,2370.4c-0.2,0.9-0.3,1.5-0.5,2.7c2.3-0.1,3.9,0.5,3.7,3.2c0,4.3-0.8,6.8-4.9,5.3c0-0.8,0-0.9-0.1-1.8
			c1.4,0.4,2.4,1.2,2.8-0.5c0.4-1.5,1.3-5.7-1.8-4.9c-0.8,3.3-1.5,4.5-2.9,7.5l-1.6-0.9c1.4-2,2.1-3.8,2.9-6.6
			c-0.7,0.1-2,0.3-2.5,0.4l-0.2-1.7c0.5,0,2.2-0.2,3-0.3c0.3-1.8,0.4-2.3,0.4-3.1L647.3,2370.4z M651.9,2372.2
			c1.4,1.6,2.3,3.3,2.9,5.5l-1.6,0.8c-0.5-2-1.4-4.1-2.7-5.6L651.9,2372.2z"/>
		<path d="M660.5,2370.5c-0.2,2.4-0.7,7.2,0.1,9.3c2.5,2.3,6-1,5.9-4.1c0.8,0.6,1,0.8,1.7,1.1c-0.9,4.3-4.6,6.6-8.4,4.8
			c-2.7-2.2-0.7-6.5-1.4-11.1L660.5,2370.5z"/>
		<path d="M674.9,2376.9c-4.8,3.9,4.6,3.5,6.5,2.6l0.2,1.9c-4.3,1.2-13.8,0.1-7.9-5.4L674.9,2376.9z M672.8,2371.1
			c1.6,0.5,6.3,0.4,7.9,0l0.1,1.6c-0.8,0.4-2.4,1.3-3.7,2.3l-1.2-1c0.7-0.5,1.4-0.9,2.1-1.2c-1.4,0.3-3.6,0-5.2-0.1V2371.1z"/>
		<path d="M695.4,2381.8c-0.8-0.9-2.2-1.7-3.4-2.3c0.6,3.6-6.5,3.5-6.3,0.5c-0.2-1.7,2.5-2.8,4.6-2.3c0-0.7,0-0.5,0-1.4
			c-1.8,0-2.6,0-4.4-0.1v-1.5c0.7,0.1,3.1,0.2,4.4,0.2c0-0.1,0-0.6,0-1.4c-1.4,0-3.2-0.1-4.8-0.1v-1.6c0.9,0.3,3.3,0.3,4.9,0.3
			c0-1.4,0-1.4-0.1-1.8h1.8c-0.1,0.4-0.1,0.6-0.1,1.7c1.9-0.1,3.1-0.3,4-0.5l0.1,1.6c-1.2,0.1-2.8,0.4-4.1,0.4c0,0.4,0,0.5,0,1.4
			c0.7,0,2.8-0.2,3.7-0.5v1.5c-1.1,0.1-2.1,0.2-3.8,0.4c0,1.4,0,1.4,0.1,1.7c1.3,0.3,2.8,1.3,4.3,2.3L695.4,2381.8z M689.2,2379
			c-4.9,0.5,1.6,3.7,1.2,0.2C689.9,2379,689.7,2379,689.2,2379z"/>
		<path d="M702.8,2370.2c0-0.2-0.7,3.3-0.7,4.1l0,0c5.7-11.1,12.1,7.3,0.8,8.2c-0.3-0.8-0.4-1.1-0.8-1.7c11-0.6,2.6-16.3,0.3-2.7
			h-1.7c-0.1-2.7,0.2-5.5,0.4-8.1L702.8,2370.2z"/>
		<path d="M723.5,2381.8c-0.8-0.9-2.2-1.7-3.4-2.3c0.6,3.6-6.5,3.5-6.3,0.5c-0.2-1.7,2.5-2.8,4.6-2.3c0-0.7,0-0.5,0-1.4
			c-1.8,0-2.6,0-4.4-0.1v-1.5c0.7,0.1,3.1,0.2,4.4,0.2c0-0.1,0-0.6,0-1.4c-1.4,0-3.2-0.1-4.8-0.1v-1.6c0.9,0.3,3.3,0.3,4.9,0.3
			c0-1.4,0-1.4-0.1-1.8h1.8c-0.1,0.4-0.1,0.6-0.1,1.7c1.9-0.1,3.1-0.3,4-0.5l0.1,1.6c-1.2,0.1-2.8,0.4-4.1,0.4c0,0.4,0,0.5,0,1.4
			c0.7,0,2.8-0.2,3.7-0.5v1.5c-1.1,0.1-2.1,0.2-3.8,0.4c0,1.4,0,1.4,0.1,1.7c1.3,0.3,2.8,1.3,4.3,2.3L723.5,2381.8z M717.4,2379
			c-4.9,0.5,1.6,3.7,1.2,0.2C718.1,2379,717.8,2379,717.4,2379z"/>
		<path d="M730.9,2370.5c-0.2,2.4-0.7,7.2,0.1,9.3c2.5,2.3,6-1,5.9-4.1c0.8,0.6,1,0.8,1.7,1.1c-0.9,4.3-4.6,6.6-8.4,4.8
			c-2.7-2.2-0.7-6.5-1.4-11.1L730.9,2370.5z"/>
		<path d="M741.8,2372.4c0.6,0.1,1.6,0.1,2.5,0.1c0.1-1,0.3-1.8,0.3-2.4l1.8,0.2c0,0-0.4,1.6-0.4,2.1c1-0.1,1.7-0.2,2.4-0.4l0.1,1.6
			c-0.7,0.2-2.1,0.4-2.7,0.4c-0.7,3-1,4.7-2.5,8.2l-1.8-0.7c1-1.8,2-5,2.5-7.5c-0.8,0-1.5,0-2.3,0L741.8,2372.4z M748.8,2377.8
			c-2.7,3.1,2.9,2.8,4.6,2.1l0.1,1.7c-3.4,0.9-9.5,0.1-6.1-4.4L748.8,2377.8z M753,2376c-1.9-0.2-3.6-0.1-5.5,0.3l-0.1-1.5
			c2.7-0.5,3.2-0.4,5.6-0.4L753,2376z"/>
		<path d="M761,2380.4c0,3.1-4.8,3.1-4.8,0C756.2,2377.3,761.1,2377.3,761,2380.4z M757.4,2380.4c0,1.7,2.6,1.7,2.6,0
			C760,2378.7,757.4,2378.7,757.4,2380.4z"/>
	</g>
	<g class="st6">
		<path d="M642,2396.2c1,0.2,2.2,0.2,3.2,0c-0.1,0.8-0.1,3.6-0.1,4.5c2,2.5,7.9,0.9,10,1c-0.3,0.7-0.3,0.8-0.4,1.6
			c-3.3-0.1-8.3,1.1-10.3-1.5c-0.6,0.6-1.2,1.1-2,1.7l-0.7-1.6c0.5-0.2,1.2-0.7,2-1.4v-3c-0.5,0-1.2-0.1-1.6,0.1L642,2396.2
			L642,2396.2z M643.1,2391c1,0.9,1.6,1.5,2.4,2.5l-1.2,1.1c-0.8-1.1-1.4-1.8-2.4-2.6L643.1,2391z M649.4,2400.4v0.6h-1.3
			c0-0.9,0-2.6,0-3.5c0.2,0,1,0,1.4,0v-0.7c-0.5,0-1.3,0-1.7,0.1v-1.1c0.6,0,1.1,0.1,1.7,0.1v-0.7h-2.1c0,1.1-0.1,5.4,0.1,6.4H646
			c0.2-1.8,0.1-5.8,0.1-7.6c0.4,0,1.2,0,1.9,0c-0.1-0.3-0.3-0.6-0.4-0.9c-0.6,0-1.6,0-2,0.1v-1.4c0.7,0.2,2.9,0.1,3.8,0.1
			c0-0.5,0-0.7-0.1-1h1.7c-0.1,0.3-0.1,0.5-0.1,1c0.8,0,3.2,0.1,3.8-0.1v1.4c-0.5-0.1-1.4-0.1-2-0.1c-0.1,0.3-0.1,0.3-0.4,0.9
			c0.6,0,1.5,0,2-0.1c-0.1,0.9-0.1,5.3-0.1,6.3c0,1.8-1.4,1.2-2.8,1.3c-0.1-0.5-0.1-0.7-0.3-1.2L649.4,2400.4L649.4,2400.4z
			 M650.9,2393.9c0.1-0.2,0.2-0.5,0.4-0.9H649c0.2,0.3,0.2,0.3,0.4,0.9H650.9z M649.3,2399.4h1.6v-0.9h-1.6V2399.4z M652.1,2399.6
			c0,0.3,0,0.5,0,0.6c0.4,0,0.7,0.1,0.7-0.3c0,0,0-4.8,0-4.8h-2.1v0.7c0.6,0,1.3,0,1.8-0.1v1.1c-0.5,0-1.2-0.1-1.8-0.1v0.7
			c0.4,0,1.1,0,1.3,0C652,2397.9,652,2399.1,652.1,2399.6L652.1,2399.6z"/>
		<path d="M658.5,2396.2c-0.4,0.1-0.7,0.2-1.1,0.3l-0.1-1.5c0.4,0,1.1-0.1,1.6-0.2c0-0.7,0.1-3-0.1-3.6h1.7
			c-0.2,0.6-0.1,2.6-0.1,3.3c0.7-0.1,2.4-0.4,3-0.7l0.1,1.5c-0.6,0.1-2.3,0.5-3,0.6v3.5c0,0.3,0.1,0.3,0.4,0.3
			c1.3-0.1,0.8-0.8,1-2.4c0.4,0.2,0.9,0.4,1.4,0.5c-0.1,1.8-0.3,2.4-0.8,2.9c-0.7,0.5-3.9,0.9-3.5-0.9c0,0,0-3.7,0-3.7L658.5,2396.2
			z M663.5,2393.2c-0.5,0-0.9,0-1.2,0.1v-1.5c1.8,0.2,6,0.2,7.8,0c-0.8,3,1.4,13.6-4.5,11.7c-0.1-0.6-0.2-1-0.4-1.6
			c4.1,1.6,2.9-5,3.2-8.6h-2.1c-0.2,5-0.7,7.8-4.4,10.6c-0.4-0.5-0.6-0.7-1.2-1.2c3.6-1.8,4.2-5.3,4.2-9.4h-1.4V2393.2z"/>
		<path d="M678.4,2391.2c-0.2,0.6-0.2,1.2-0.5,2.1c1-0.1,1.7-0.2,2.2-0.4v1.6c-0.8,0.2-1.6,0.3-2.6,0.4c-0.7,2.3-1.4,4.3-2.8,6.5
			l-1.6-0.9c1.3-1.7,1.9-3.2,2.7-5.5c-1.1,0-1.3,0-2.2,0v-1.6c0.6,0.1,1.7,0.1,2.6,0.1c0.2-1,0.4-1.8,0.4-2.4L678.4,2391.2z
			 M684.7,2402.6c-0.5-0.6-1.3-1.3-2.1-1.7c0.4,3.5-6.2,3.4-6,0.2c-0.1-1.9,2.3-2.7,4.3-2.3c0-1.1-0.2-2,0-3l1.6,0.1
			c-0.3,1.1-0.2,2-0.1,3.3c1,0.4,1.9,1,2.9,1.9L684.7,2402.6z M679.7,2400c-4.3,0.8,1.9,3.8,1.3,0.2
			C680.5,2400.1,680.2,2400,679.7,2400z M684.8,2396.1c-1.2-0.8-2.5-1.4-4-2l0.8-1.4c1.7,0.6,2.7,1.1,4,1.9L684.8,2396.1z"/>
		<path d="M695.5,2391.1c-0.7,4.5,1.6,9,5.7,11.1c-0.5,0.5-0.8,0.9-1.1,1.6c-2.9-2.1-4.5-3.7-5.5-7.1c-0.7,3.1-2.7,5.5-5.5,7.1
			c-0.3-0.6-0.6-1-1.1-1.4c4.3-2.1,6.1-6.3,5.6-11.2h1.9V2391.1z"/>
		<path d="M707.8,2394.8c0.4,1,1,1.7,1.9,2.5c-0.3,0.4-0.5,0.8-0.8,1.3c-0.6-0.7-0.7-0.9-1.3-1.9c0.3,1.9-0.1,5.2,0.2,7.1h-1.6
			c0.3-2-0.1-4.5,0.2-6.6c-0.5,1.5-1.1,2.7-1.8,3.7c-0.2-0.6-0.4-1.1-0.8-1.6c1.2-1.3,1.7-2.7,2.4-4.4c-0.6,0-1.4,0-2,0.1v-1.5
			c0.5,0.1,1.5,0.1,2.1,0.1c0-0.7,0.1-2-0.1-2.6h1.6c-0.2,0.6-0.1,1.9-0.1,2.6c0.6,0,1.3,0.1,1.9-0.1v1.5c-0.6,0-1.2-0.1-1.8-0.1
			V2394.8z M711.4,2394.8c-0.7,0-1.1,0-1.5,0.1v-1.5c0.8,0.1,2.6,0.1,3.5,0.1c0-0.9,0-1.8-0.1-2.6h1.7c-0.1,0.7-0.1,1.8-0.1,2.6
			c0.6,0,1.3,0,1.8-0.1v1.5c-0.4-0.1-1.1-0.1-1.7-0.1v7.2c0.1,2-2.1,1.5-3.5,1.4c-0.1-0.6-0.1-1-0.4-1.5c0.9,0,2.1,0.4,2.3-0.3
			c0,0,0-5.2,0-5.2c-0.9,1.8-2.2,3.5-4,4.7c-0.4-0.5-0.6-0.8-1-1.2c2.1-1.4,3.5-3.1,4.4-5.2L711.4,2394.8L711.4,2394.8z"/>
		<path d="M719.3,2398c7.5-9.1,5.5-2.7,13,2.3l-0.9,2c-9-7.5-4.9-9.6-11-2.4L719.3,2398z"/>
		<path d="M739.2,2391.3c-1.7,2.5-1.4,9.6-1.2,12.5h-1.7c0.2-2.2,0-4.9,0.1-7.3c-0.5,0.7-0.8,1.1-1.3,1.6c-0.2-0.6-0.4-1.1-0.7-1.6
			c1.3-1.1,2.9-3.8,3.3-5.7L739.2,2391.3z M741.5,2394.3c-0.6,1.2-1.3,2.3-2.3,3.4c-0.3-0.6-0.5-0.8-1-1.3c1.4-1.4,2.8-3.7,3-5.6
			l1.6,0.5c-0.2,0.6-0.4,1.2-0.7,1.6c1,0,4.4,0.1,5.3-0.1v1.5c-0.8-0.1-3.3-0.1-4.2-0.1v1.8c0.9,0,2.9,0.1,3.7-0.1v1.5
			c-0.8-0.2-2.8-0.1-3.7-0.1v1.8c0.9,0,2.9,0.1,3.7-0.1v1.5c-0.9-0.2-2.8-0.1-3.7-0.1c0,0.8-0.1,2.7,0.1,3.3h-1.7
			c0.2-0.9,0-8.4,0.1-9.6h-0.2V2394.3z"/>
		<path d="M752.3,2396.5c-0.6,0-1,0-1.4,0.1v-1.3c0.7,0.1,2.3,0.1,3.1,0.1c-0.2-0.4-0.4-0.8-0.5-1c-0.9,0-2.4-0.1-3.2,0.1v-1.4
			c0.4,0.1,1.3,0.1,2,0.1c-0.3-0.5-0.4-0.7-1-1.3l1.4-0.5c0.5,0.7,0.7,1,1.1,1.8h0.8c0-0.6,0.1-1.6-0.1-2.1h1.5c0,0.5,0,1.5,0,2.1h1
			c0-0.5,0-1.7,0-2.1h1.5c-0.1,0.4-0.1,1.5-0.1,2.1h0.9c0.5-0.7,0.8-1.2,1-1.9l1.4,0.5c-0.3,0.6-0.6,0.9-0.9,1.3c0.7,0,1.6,0,2-0.1
			v1.4c-0.7-0.1-2.3-0.1-3.1-0.1c-0.3,0.6-0.3,0.7-0.5,1c0.8,0,2.4,0.1,3-0.1v1.3c-0.8-0.2-4.1-0.1-5.1-0.1v0.7
			c0.9,0,3.6,0.1,4.3-0.1v1.3c-0.8-0.2-3.4-0.1-4.3-0.1v0.7c1.1,0,4.7,0.1,5.6-0.1v1.4c-1-0.2-3.4-0.1-4.5-0.1
			c1.4,1.1,2.8,1.6,4.8,1.9c-0.4,0.5-0.6,0.8-0.8,1.4c-2.4-0.6-3.9-1.5-5.2-2.8c0,1.1-0.1,2.2,0.1,3.1h-1.7c0.2-1.1,0.1-1.9,0.1-3.1
			c-1.4,1.4-3,2.1-4.9,2.7c-0.2-0.5-0.5-0.9-0.9-1.3c2-0.4,3.5-1.1,4.6-2c-1,0-3.4-0.1-4.3,0.1v-1.4c0.9,0.2,4.3,0.1,5.4,0.1v-0.7
			c-0.9,0-3.4-0.1-4.2,0.1v-1.3c0.8,0.2,3.3,0.1,4.2,0.1v-0.7h-3.1V2396.5z M757.8,2395.3c0.2-0.4,0.3-0.7,0.5-1h-3.2
			c0.2,0.4,0.3,0.6,0.4,1H757.8z"/>
		<path d="M766.4,2392.6c0.6,0.1,1.5,0.2,3.2,0.2c0.4-0.8,0.5-1.3,0.6-1.7l1.8,0.2c-0.1,0.1-0.1,0.1-0.6,1.3
			c-0.1,0.2-0.1,0.2-0.1,0.3c1.2-0.1,3.9-0.4,4.6-0.6l0.1,1.6c-1.5,0.1-3.4,0.3-5.3,0.4c-0.4,0.8-0.8,1.4-1.3,1.9l0,0
			c1.2-1.1,4-1.3,4.3,0.7c1.5-0.5,2.3-0.9,3.1-1.2l0.7,1.6c-1.3,0.3-1.7,0.4-3.7,1.1c0,0.9,0,1.8,0,2.6h-1.6
			c0.1-0.3,0.1-1.3,0.1-1.9c-5.9,3,2.6,3.3,4.5,2.2l0.1,1.8c-5.5,1.7-13-1.4-4.7-5.6c-0.8-2.2-4.1,0.6-5,1.9l-1.3-1.3
			c1.1-0.8,2.5-2.7,3.1-3.8c-0.6,0-1.9,0-2.6,0V2392.6z"/>
	</g>
	<g class="st6">
		<path d="M644.2,2421.2v0.8h-1.7c0.2-1.7,0.2-6.4,0-8.1c0.9,0.1,3.8,0.1,4.8,0.1c0-0.7,0-1.5-0.1-1.9h1.7c-0.1,0.4-0.1,1.3-0.1,2
			c1,0,4,0.1,4.9-0.1c-0.2,1.7-0.2,6.4,0,8.1H652v-0.8h-3.3c0,1-0.1,2.9,0.1,3.7H647c0.2-0.8,0.1-2.7,0.1-3.7h-2.9V2421.2z
			 M644.2,2415.2v1.6h3.1v-1.6H644.2z M644.2,2418.2v1.6h3.1v-1.6H644.2z M648.9,2416.8h3.3v-1.6h-3.3V2416.8z M648.9,2419.8h3.3
			v-1.6h-3.3V2419.8z"/>
		<path d="M660.6,2412.5c-0.2,2.4-0.7,7.2,0.1,9.3c2.5,2.3,6-1,5.9-4.1c0.8,0.6,1,0.8,1.7,1.1c-0.9,4.3-4.6,6.6-8.4,4.8
			c-2.7-2.2-0.7-6.5-1.4-11.1L660.6,2412.5z"/>
		<path d="M671.3,2417.2c1,0.2,2.3,0.2,3.3,0c-1.7,7.9,4.8,5.7,9.8,5.5c-0.3,0.8-0.3,0.9-0.4,1.7c-3-0.1-8.2,1.1-10.3-1.5
			c-0.8,0.8-1.3,1.1-2.1,1.7l-0.7-1.6c0.6-0.3,1.3-0.8,2-1.4v-3c-0.5,0-1.3-0.1-1.7,0.1v-1.5H671.3z M672.5,2412.1
			c1,0.9,1.3,1.2,2.4,2.5l-1.2,1.1c-0.9-1.1-1.3-1.7-2.4-2.6L672.5,2412.1z M676.8,2415.5c-0.5,0-0.9,0-1.3,0.1v-1.5
			c0.5,0,1.2,0.1,1.8,0.1c-0.3-0.7-0.5-1.1-1-1.8l1.3-0.6c0.4,0.6,0.7,1.1,1,1.8l-1.2,0.6h2.3c0.5-0.8,0.9-1.6,1.1-2.4l1.5,0.5
			c-0.3,0.4-0.7,1.3-1.1,1.9c0.6,0,1.5,0,2-0.1v1.5c-0.9-0.1-2.4-0.1-3.3-0.1c0,0.8,0,1.1-0.1,1.6c0.9,0,3.2,0.1,4-0.1v1.5
			c-0.9-0.1-2.8-0.1-3.7-0.1c0.9,1.4,1.9,2.2,3.8,2.6c-0.4,0.5-0.6,0.9-0.7,1.5c-1.9-0.7-3-1.5-3.9-3.1c-0.8,1.5-1.7,2.3-3.3,3
			c-0.3-0.5-0.6-1-1-1.3c1.7-0.7,2.5-1.2,3.1-2.7c-0.8,0-2.5-0.1-3.2,0.1v-1.5c0.8,0.1,2.7,0.1,3.5,0.1c0.1-0.5,0.1-0.6,0.1-1.6
			L676.8,2415.5L676.8,2415.5z"/>
		<path d="M690.2,2412.2c0-0.2-0.7,3.3-0.7,4.1l0,0c5.7-11.1,12.1,7.3,0.8,8.2c-0.3-0.8-0.4-1.1-0.8-1.7c11-0.6,2.6-16.3,0.3-2.7
			h-1.7c-0.1-2.7,0.2-5.5,0.4-8.1L690.2,2412.2z"/>
		<path d="M710.9,2423.8c-0.8-0.9-2.2-1.7-3.4-2.3c0.6,3.6-6.5,3.5-6.3,0.5c-0.2-1.7,2.5-2.8,4.6-2.3c0-0.7,0-0.5,0-1.4
			c-1.8,0-2.6,0-4.4-0.1v-1.5c0.7,0.1,3.1,0.2,4.4,0.2c0-0.1,0-0.6,0-1.4c-1.4,0-3.2-0.1-4.8-0.1v-1.6c0.9,0.3,3.3,0.3,4.9,0.3
			c0-1.4,0-1.4-0.1-1.8h1.8c-0.1,0.4-0.1,0.6-0.1,1.7c1.9-0.1,3.1-0.3,4-0.5l0.1,1.6c-1.2,0.1-2.8,0.4-4.1,0.4c0,0.4,0,0.5,0,1.4
			c0.7,0,2.8-0.2,3.7-0.5v1.5c-1.1,0.1-2.1,0.2-3.8,0.4c0,1.4,0,1.4,0.1,1.7c1.3,0.3,2.8,1.3,4.3,2.3L710.9,2423.8z M704.8,2421
			c-4.9,0.5,1.6,3.7,1.2,0.2C705.5,2421,705.2,2421,704.8,2421z"/>
		<path d="M722.9,2417.4c1.2,3.2-0.5,6.4-4.2,7.2c-0.4-0.9-0.5-1.1-1-1.6c1.8-0.3,3.8-1.2,4-2.8c-5,4.3-6.9-6-0.4-3.5
			c0-0.3,0-0.8,0-1.4c-2.8,0.1-5.2,0.2-6.4,0.3l-0.1-1.7c1.5,0,4.4-0.2,6.5-0.2c0-1.3,0-1.3-0.1-1.7h1.8c-0.1,0.4-0.1,0.5-0.1,1.7
			c2.4,0,3.5,0,4-0.1v1.6c-1.1-0.1-2.3-0.1-4.1-0.1C722.8,2415.6,722.9,2416.9,722.9,2417.4z M720,2417.6c-1.6,0-1.7,2.2-0.1,2.2
			C721.5,2419.9,722,2417.5,720,2417.6z"/>
		<path d="M733,2422.4c0,3.1-4.8,3.1-4.8,0C728.2,2419.3,733.1,2419.3,733,2422.4z M729.4,2422.4c0,1.7,2.6,1.7,2.6,0
			C732,2420.7,729.4,2420.7,729.4,2422.4z"/>
	</g>
	<g class="st6">
		<path d="M524.1,2302.7c0-0.4,0-0.8,0-1.5c-0.4,0.6-0.5,0.9-1,1.3c-0.2-0.7-0.4-1.1-0.6-1.7c1.3-1.3,2.5-3.8,2.7-5.6l1.6,0.4
			c-1.7,3-1.4,9.2-1.2,12.5H524C524.2,2307,524.1,2303.9,524.1,2302.7z M535.6,2300.6c-0.9,0.8-1.7,1.5-2.6,2.1
			c0.8,1.5,1.5,2.5,3,3.7c-0.4,0.5-0.7,1-0.9,1.5c-2.7-2.3-4-5.1-4.4-8.9c-0.3,0.7-0.4,1-1.1,2v4.9c1-0.2,1.5-0.4,2.8-0.8v1.5
			c-1.8,0.6-3,0.8-5.7,1.5l-0.3-1.6c0.5,0,0.9-0.1,1.7-0.2v-3.4c-0.5,0.5-0.7,0.7-1.5,1.2c-0.3-0.6-0.6-1-0.9-1.3
			c1.4-0.8,2.8-2.4,3.5-3.9c-0.8,0-2.1-0.1-2.9,0.1v-1.5c0.7,0.2,2.8,0.1,3.6,0.1c0-0.6,0.1-1.6-0.1-2.1h1.7
			c-0.2,0.5-0.1,1.5-0.1,2.1c1,0,3.2,0.1,4.1-0.1v1.6c-0.8-0.2-2.7-0.1-3.6-0.1c0.1,1,0.2,1.5,0.5,2.6c1-0.7,1.6-1.2,2-1.9
			L535.6,2300.6z"/>
		<path d="M544.6,2297.9c-0.4,0-1.7,0-2.3,0v0.9c0.6,0,1.6,0.1,2.1-0.1c0,0.9,0,3.2,0,4.1c-0.4,0-1.2,0-1.7,0
			c0.7,0.9,1.3,1.5,2.1,1.9c-0.4,0.5-0.5,0.7-0.7,1.2c-0.4-0.4-1.4-1.3-1.7-1.9c0.1,1.2,0,2.9,0.2,3.9h-1.5c0.2-1.1,0.1-2.6,0.1-3.8
			c-0.6,1.1-1.2,1.8-2.1,2.7c-0.2-0.6-0.4-0.9-0.8-1.3c0.9-0.6,1.8-1.7,2.5-2.8c-0.6,0-1.5,0-2,0c0.1-1.1,0.2-3,0-4.1
			c0.4,0,1.4,0.1,2.1,0.1v-0.9c-0.7,0-1.9,0-2.4,0.1v-1.5c0.4,0.1,1.7,0.1,2.4,0.1c0-0.6,0-0.9-0.1-1.3h1.5
			c-0.1,0.3-0.1,0.7-0.1,1.3c0.6,0,1.9,0,2.3,0v-0.9c1.5,0.2,5.2,0.2,6.7,0v1.5c-0.5-0.1-1.8-0.1-2.5-0.1c-0.1,0.4-0.3,0.7-0.4,1.1
			c0.7,0,2,0,2.5,0c0,1.7,0,5.6,0,7.3c-0.6,0-1,0-1.6,0c0.8,0.9,1.3,1.2,2.5,1.7c-0.4,0.4-0.5,0.5-0.9,1.2c-1.1-0.6-1.7-1.1-2.6-2.1
			l0.9-0.8h-2.6l1,0.8c-1.1,1.1-1.7,1.6-2.9,2.1c-0.3-0.5-0.5-0.8-0.9-1.1c1.2-0.4,1.8-0.8,2.6-1.7c-0.5,0-1.1,0-1.4,0
			c0-1.6,0-5.8,0-7.4c0.3,0,1.3,0,1.8,0c0.2-0.4,0.3-0.7,0.4-1.1c-0.6,0-2,0-2.5,0L544.6,2297.9L544.6,2297.9z M540.1,2300.1v1.5
			h0.7v-1.5H540.1z M542.2,2301.6h0.8v-1.5h-0.8V2301.6z M546.3,2300.1h2.9v-0.8h-2.9V2300.1z M546.3,2302.1h2.9v-0.8h-2.9V2302.1z
			 M546.3,2304.1h2.9v-0.9h-2.9V2304.1z"/>
	</g>
	<g class="st6">
		<path d="M525.8,2167c0.4,0,0.6,0,1.1,0c0.3-0.4,0.4-0.6,0.7-0.9c-0.5-0.7-1.2-1.6-1.8-2.1l0.8-1.2c0.2,0.2,0.3,0.3,0.4,0.4
			c0.5-0.9,1-1.7,1.1-2.2l1.4,0.5c-0.5,0.8-1.1,2-1.6,2.7c0.1,0.1,0.2,0.2,0.2,0.3c0.2,0.2,0.2,0.3,0.3,0.4c0.7-1.1,1.2-1.9,1.4-2.4
			l1.3,0.7c-0.7,1-1.9,2.9-2.6,3.8c0.4,0,0.9-0.1,1.5-0.1c-0.1-0.4-0.2-0.6-0.4-1.1l1-0.5c0.4,1,0.6,1.5,1,2.8c0-1,0.1-3.9-0.1-4.7
			c0.6,0.1,2.1,0.1,2.8,0.1c0-0.7,0.1-1.5-0.1-2.2h1.6c-0.2,0.6-0.1,1.5-0.1,2.2c0.7,0,2.3,0.1,2.9-0.1c-0.2,0.8-0.1,8-0.1,9
			c0,1.8-1.4,1.4-2.9,1.5c-0.1-0.6-0.2-1.1-0.4-1.5c2.6,0.6,1.9-0.7,2-2.5c-0.2,0.3-0.3,0.4-0.6,1c-0.9-1.1-1.1-1.8-1.6-3.6
			c-0.3,1.4-0.5,2.4-1.5,3.6c-0.2-0.5-0.3-0.7-0.6-1.1c0,0.9-0.1,3.4,0.1,4.2h-1.5c0.1-1,0.1-4.7,0.1-5.8l-1.1,0.5
			c-0.1-0.3-0.1-0.4-0.2-0.6c-0.3,0-0.4,0.1-0.9,0.1c0,1.1-0.1,5,0.1,5.9H528c0.2-0.9,0.1-4.8,0.1-5.8c-1.7,0.1-1.7,0.1-2.1,0.2
			L525.8,2167z M527.5,2169.2c-0.1,2-0.2,2.9-0.5,4.2l-1.2-0.6c0.3-1.1,0.4-2,0.5-3.8L527.5,2169.2z M530.7,2169
			c0.2,1.2,0.3,2,0.4,3.4l-1.2,0.3c0-1.2-0.1-2.4-0.3-3.4L530.7,2169z M532.8,2169.3c0.9-1.1,1.3-2.5,1.3-4.4h-1.3V2169.3z
			 M535.5,2164.9c0,1.7,0.5,3.1,1.5,4.4v-4.3L535.5,2164.9L535.5,2164.9z"/>
		<path d="M541.8,2169c0-0.5,0-0.9-0.1-1.3c1.3,0.2,4.1,0.1,5.5,0.1c0.1,1.3-0.1,4.9,0.1,6.2h-1.5v-0.5h-2.4v0.7h-1.6
			C542,2173.4,541.9,2170,541.8,2169L541.8,2169z M543.2,2172h2.5v-3h-2.5V2172z M543.6,2162.8c0-0.5,0-0.9-0.1-1.2
			c1.8,0.2,6.7,0.2,8.5,0c-0.1,1.3-0.2,3.8,0,5.1c-1.8-0.1-6.7-0.2-8.5,0C543.6,2165.9,543.6,2163.7,543.6,2162.8z M545.1,2165.3
			h5.3v-2.2h-5.3V2165.3z M552.6,2167.7c0.6,0,0.9,0,1.2-0.1c-0.1,1.5-0.2,4.9,0,6.4h-1.6v-0.7h-2.7v0.7H548c0-1.4,0-5,0-6.3
			C548.6,2167.7,551.9,2167.7,552.6,2167.7z M549.7,2172h2.7v-3h-2.7V2172z"/>
	</g>
	<g class="st6">
		<path class="st0" d="M829.2,2297.5c-1.8,0.2-2.5,0.2-4.4,0.3c-0.2-0.6-0.2-0.6-0.5-1.4c3.2-0.1,6.9-0.1,9.6-1.2l1.1,1.4
			c-1.2,0.3-3.1,0.7-4.2,0.8v1.8c1.1,0,3.8,0.1,4.7-0.1v1.6c-1-0.2-3.5-0.1-4.6-0.1v1.7c1.1,0,4.3,0.1,5.3-0.1v1.6
			c-1-0.2-4.2-0.1-5.3-0.1c0.2,3.7,0.2,4.5-4,4c-0.1-0.6-0.2-0.9-0.4-1.5c3.3,0.5,2.8,0.3,2.8-2.5c-1.1,0-4.6-0.1-5.6,0.1v-1.6
			c1,0.2,4.5,0.1,5.6,0.1v-1.7c-1.2,0-3.8-0.1-4.9,0.1v-1.6c0.9,0.2,3.7,0.1,4.8,0.1L829.2,2297.5L829.2,2297.5z"/>
		<path class="st0" d="M840.7,2297c-0.6,0-1.1,0-1.5,0.1v-1.5c1.7,0.2,4.8,0.2,6.5,0v1.5c-0.5,0-1.2-0.1-1.8-0.1v1.1
			c0.7,0,1.2,0,1.6-0.1c0.1,2.1-0.1,7.8,0.1,9.8h-1.3v-0.5H841v0.8h-1.4c0.2-2.2,0.2-7.9,0-10.1c0.4,0,1.1,0.1,1.7,0.1v-1.1
			L840.7,2297L840.7,2297z M840.9,2303.8h3.3v-1.1c-2.4,0.5-1.3-2-1.5-3.3h-0.4c0,1.5-0.1,3-0.9,4.3c-0.2-0.4-0.3-0.7-0.6-1
			L840.9,2303.8L840.9,2303.8z M840.9,2302.4c0.4-0.8,0.5-1.5,0.5-3.1h-0.5V2302.4z M840.9,2306.1h3.3v-1.1h-3.3V2306.1z
			 M842.3,2298.2h0.4v-1.1h-0.4V2298.2z M843.7,2301.3c0,0.2,0,0.2,0.5,0.3v-2.2h-0.5V2301.3z M851.3,2300.1c0,0.6,0,1,0.1,1.4
			c-0.8-0.1-2.8-0.1-3.7-0.1c0.1,0.2-0.1,5.1,0.1,5c2.1,0.4,2.8,0,2.6-2.4c0.6,0.3,1,0.5,1.5,0.6c-0.1,1.7-0.2,2.4-0.5,2.7
			c-0.5,0.8-6,1.2-5.2-0.9c0-1,0.1-5.6-0.1-6.5c0.8,0.1,2.8,0.1,3.7,0.1v-2.9c-1,0-2.9-0.1-3.8,0.1v-1.6c1.3,0.2,3.9,0.2,5.3,0
			C851.2,2296.4,851.2,2299.2,851.3,2300.1L851.3,2300.1z"/>
	</g>
	<g class="st6">
		<path class="st0" d="M832.6,2184.4c1.1,0.2,2.7,0.1,3.8,0c-0.2,0.6-0.3,0.9-0.4,1.5c-3,0-5.4,0.2-7-1.9c-0.5,0.9-0.7,1.3-1.5,2.2
			c-0.4-0.5-0.5-0.5-1.1-1c-0.1,1-1.8,0.8-2.8,0.8c0-0.6-0.1-0.9-0.3-1.4c0.7,0,1.7,0.4,1.7-0.3c0,0,0-3.2,0-3.2
			c-0.5,0.2-1.1,0.4-1.5,0.6l-0.2-1.6c0.4,0,0.9-0.2,1.7-0.4v-2.5c-0.6,0-1,0-1.6,0.1v-1.5c0.5,0.1,1.1,0.1,1.6,0.1
			c0-0.7,0.1-2-0.1-2.5h1.7c-0.2,0.5-0.1,1.8-0.1,2.5c0.2,0,1.3,0,1.1,0c0,0,0.2,0,0.2,0v1.5c-0.4,0-0.9,0-1.3,0v2
			c0.5-0.2,0.7-0.3,1.2-0.5v0.6c1.6,0.1,6.7,0.2,8.3,0v1.4c-0.8-0.2-2.7-0.1-3.5-0.1v1.2c0.7,0,2.5,0.1,3-0.1v1.4
			c-0.7-0.2-2.2-0.1-3-0.1L832.6,2184.4L832.6,2184.4z M830.1,2181.3c0,0.1-0.4,1-0.5,1.3c0.4,0.6,0.8,1,1.5,1.3v-3.5
			c-0.7,0-2.8-0.1-3.4,0.1v-0.6c-0.5,0.2-0.6,0.3-1.2,0.5c0,0.1,0,4.7,0,4.6c1.2-1.1,1.8-2.5,2-4L830.1,2181.3z M829.6,2178.6
			c-0.6,0-0.8,0-1.2,0c0-1.1,0-3.7,0-4.9c1.6,0.1,5.3,0.2,6.9,0c-0.2,1.4-0.1,3.4,0,5c-0.9,0-4.7,0-5.7,0V2178.6z M829.9,2175.5h3.9
			v-0.6h-3.9V2175.5z M829.9,2177.4h3.9v-0.7h-3.9V2177.4z"/>
		<path class="st0" d="M844.4,2174.6c0-0.7,0-1-0.1-1.4h1.8c-0.2,0.8-0.1,3.6-0.1,4.5h3c0-0.7,0.1-2.8-0.1-3.4h1.7
			c-0.2,1.2,0,3.7-0.1,4.9c-0.6,0-3.9,0-4.6,0v4.6h3.5c0-0.8,0.1-2.8-0.1-3.5h1.7c-0.1,1.4-0.2,4.3,0,5.7h-1.6v-0.7h-8.3v0.7h-1.6
			c0.2-1.4,0.2-4.3,0-5.7h1.7c-0.2,0.6-0.1,2.8-0.1,3.5h3.3v-4.6c-0.7,0-3.7,0-4.4,0c-0.1-1.2,0.1-3.7-0.1-4.9h1.7
			c-0.1,0.6-0.1,2.7-0.1,3.4h2.8L844.4,2174.6L844.4,2174.6z"/>
	</g>
	<g id="グループ_1749" transform="translate(1335.319 2267.015)">
		<path id="楕円形_183" class="st5" d="M73.1,27c74,1.3,74,111.3,0,112.6C-0.9,138.3-0.9,28.3,73.1,27z"/>
		<path id="パス_2562" class="st1" d="M96.9,110.2c18.8,11.6,46.2,17.3,45.9,43.6H5.2c-0.6-7.6,4.5-21.6,14-26.1
			c12.1-6.2,27.6-14.8,35.9-20c-1.7,0-21,5.5-22.2-1.6c-2.7-18.8-1.5-42.2,1.7-60.5c3.6-43.5,50.7-63.3,75.5-22.4
			c12,24,7.7,60.9,4.7,86.3c-4.2,1.7-22.2-2.1-22.9-2.8C93.5,108.1,95.1,109.2,96.9,110.2z"/>
		<g id="グループ_1743" transform="translate(8.293 4.167)">
			<path id="パス_2563" class="st3" d="M22.4,120.3c5.9-3.1,22.2-11,23.2-11.2c0.3,9.2,2.5,31.6,3.9,40.7H0
				C-0.7,132.6,9.2,128,22.4,120.3z"/>
			<path id="パス_2564" class="st3" d="M109.1,120.3c-5.9-3.1-22.2-11-23.2-11.2c-0.3,9.2-2.5,31.6-3.9,40.7h49.4
				C132.2,133,122.3,127.8,109.1,120.3z"/>
			<path id="パス_2565" class="st2" d="M53.5,57.7c-0.6,5.4-7.5-0.4-2.2-1.9C52.4,55.8,53.4,56.6,53.5,57.7L53.5,57.7z"/>
			<path id="パス_2566" class="st2" d="M78,57.7c0.6,5.4,7.5-0.4,2.2-1.9C79.1,55.8,78.1,56.6,78,57.7L78,57.7z"/>
			<path id="パス_2567" class="st3" d="M68.6,0c46.9,8.1,37,73.2,36.1,106.2c-5,0.4-19.1-2.2-19.1-2.2l-3.7-4.3V89.1
				c17.8-17.8,13.3-54.5-6-70c0,0-12.3,0.5-18.5,5.8S44.9,34,43.5,36.7c-8.6,15.7-6.4,40.7,6.8,52.9L49.9,100
				c-1.1,1.4-3.7,4.2-5.3,5c0,0-13.4,2.2-16.4,0.2C24.5,69,19.8,2.7,68.6,0z"/>
		</g>
		<g id="グループ_1748" transform="translate(4.394 0)">
			<path id="パス_2568" class="st2" d="M55.3,64.9c-3.8,0.1-3.8-5.9,0-5.8c3.5-0.1,3.9,5.5,0.3,5.7C55.5,64.9,55.4,64.9,55.3,64.9
				z M55.3,60.8c-1.7-0.1-1.7,2.6,0,2.5C56.8,63.3,56.9,60.9,55.3,60.8z"/>
			<path id="パス_2569" class="st2" d="M50.5,60.9c-2.6-1.6,2.7-5.3,4.7-5.1c1.8-0.4,5.8,1.6,4.6,3.6c-0.5,0.3-0.9,0.1-1.2-0.3
				c-1.6-3.1-6.5-1.6-7.5,1.3C51.1,60.7,50.8,60.9,50.5,60.9z"/>
			<path id="パス_2570" class="st2" d="M84,64.9c-3.9,0.2-3.7-6.1,0.2-5.7C87.7,59.4,87.6,65,84,64.9z M84,60.8
				c-1.6,0-1.6,2.6,0.1,2.5C85.7,63.3,85.6,60.6,84,60.8L84,60.8z"/>
			<path id="パス_2571" class="st2" d="M88.9,60.9c-0.3,0-0.6-0.2-0.7-0.5c-1-2.9-5.7-4.4-7.5-1.3c-0.4,1.1-2,0-1.3-0.7
				c2.2-4.3,8.9-2.6,10.3,1.6c0.1,0.4-0.1,0.9-0.5,1C89,60.9,88.9,60.9,88.9,60.9z"/>
			<path id="パス_2572" class="st2" d="M70,86.9c-2.6,0.4-14.3-1.8-9.5-3.4c4.3,2.2,15.6,2.7,21.2-0.9c0.3-0.3,0.8-0.2,1.1,0.1
				C82.9,86.1,73.5,86.8,70,86.9z"/>
			<path id="パス_2573" class="st2" d="M68.8,78.4c-1.1-0.1-4.2-1.4-2.8-2.7c1-0.4,1.7,1.2,2.8,1.1C69.9,76.8,69.9,78.4,68.8,78.4
				L68.8,78.4z"/>
			<path id="パス_2574" class="st2" d="M70.7,91.5c-1.4-0.1-5.3-0.5-4.5-2.5c1.8-0.4,3.8,1.8,6.1,0.7c0.4-0.2,0.9,0,1,0.5
				C73.7,91.6,71.5,91.4,70.7,91.5z"/>
			<path id="パス_2575" class="st2" d="M90.1,48c-2.5-2.1-9.6-3-12.8-1.9c-0.4,0.1-0.9-0.2-0.9-0.6C76.2,42.2,94.8,45.2,90.1,48
				L90.1,48z"/>
			<path id="パス_2576" class="st2" d="M48.6,48c-4.4-3.1,14.4-5.9,13.7-2.5c-0.1,0.3-0.5,0.5-0.9,0.5C58.1,45,51,45.7,48.6,48z"
				/>
			<g id="グループ_1744" transform="translate(45.023 80.157)">
				<path id="パス_2577" class="st2" d="M23.1,21.7C11.5,20.5-1.6,5.1,0.8,0.1c2.8,4.8,9.9,18.7,22.5,20
					C24.1,20.3,24,21.8,23.1,21.7L23.1,21.7z"/>
				<path id="パス_2578" class="st2" d="M26.2,21.7c-0.9,0-1-1.6,0-1.6C38.9,18.7,45.7,4.7,48.6-0.1C51,4.9,37.6,20.7,26.2,21.7
					L26.2,21.7z"/>
			</g>
			<g id="グループ_1747" transform="translate(0 96.076)">
				<g id="グループ_1745">
					<path id="パス_2579" class="st2" d="M53.7,8.5c-1.9-1.3-0.2-5.2-0.7-7.8c0.1-1,1.9-0.8,1.6,0.4C54.2,3.8,55.4,7,53.7,8.5z"/>
					<path id="パス_2580" class="st2" d="M0.8,58.5C-5.4,30.2,35.6,23.7,51.2,9.6c0.9-0.7,1.7,0.7,1,1.2
						c-10.1,10-36.4,16.4-46.5,29.5C1.6,46.7,2.6,56.7,0.8,58.5z"/>
					<path id="パス_2581" class="st2" d="M68.6,16.5C68.5,16.5,68.5,16.5,68.6,16.5c-2.3,0.9-18.8-7.6-12.8-8
						c2.3,3.1,8.6,5.9,12.8,6.4C69.4,15,69.4,16.5,68.6,16.5L68.6,16.5z"/>
					<path id="パス_2582" class="st2" d="M61.9,28.4c-4.9,1.7-14.2-18.3-9.4-15.3c1.1,3.5,6.1,18.2,11.7,12.3
						c1.9-2.2,1.7-7.1,3.9-8.1c1.4,1.8-2.7,11.4-5.8,11.2C62.3,28.4,62.1,28.4,61.9,28.4z"/>
					<path id="パス_2583" class="st2" d="M53.3,58.5c-1.7,0.3-6.1-39.6-3.8-43.1c2,7.6,2.7,37.4,4.6,42.1
						C54.2,58,53.8,58.6,53.3,58.5L53.3,58.5z"/>
					<path id="パス_2584" class="st2" d="M44.3,58.5c-2.4-2.2-5.1-16.4-5.9-18c1.1-2.7,3.9-4.8,5.8-7c-0.4-0.6-7.8-4.1-6.5-5.2
						l0,0L46,16.7c0.7-0.7,1.7,0.1,1.3,0.9c0,0-7.8,10.9-7.8,10.9c10.8,6.5,6.4,3.7,0.5,11.9c0.7,2.5,3.9,14.4,5,17
						c0.2,0.4,0,0.9-0.4,1l0,0C44.5,58.5,44.4,58.5,44.3,58.5z"/>
				</g>
				<g id="グループ_1746" transform="translate(69.971)">
					<path id="パス_2585" class="st2" d="M15.7,8.5c-1.2,0.8-1.7-9.2-0.1-8.4C16.7-0.4,16.9,9.3,15.7,8.5L15.7,8.5z"/>
					<path id="パス_2586" class="st2" d="M68.5,58.5c-1.9-1.3-0.9-12.3-5.1-18.3C53.1,27.4,26.7,20.6,16.9,10.8
						c-0.8-0.8,0.5-1.9,1.2-1C33.6,23.6,74.8,30.6,68.5,58.5L68.5,58.5z"/>
					<path id="パス_2587" class="st2" d="M0.8,16.5c-0.9,0-1-1.6,0-1.6c4-0.5,10.4-3.3,12.7-6.3c0.5-1,2.1,0.1,1.3,0.9
						C12.1,13,5.3,16,0.8,16.5C0.9,16.5,0.8,16.5,0.8,16.5z"/>
					<path id="パス_2588" class="st2" d="M7.5,28.4C4,30.3-2.1,14.6,2.2,17.7c4,17.9,11.7,4.9,14.6-4.5c0.1-1.1,1.8-0.8,1.5,0.3
						C16.8,17.5,13.3,28.5,7.5,28.4z"/>
					<path id="パス_2589" class="st2" d="M16,58.5c-0.5,0-0.9-0.5-0.8-1c1.9-4.8,2.6-34.6,4.6-42.1C22,19.1,17.7,58.4,16,58.5z"/>
					<path id="パス_2590" class="st2" d="M25.1,58.5c-0.5,0-1-0.6-0.7-1.1c1.1-2.6,4.4-14.4,5-17c-5.9-8.3-10.2-5.4,0.5-11.9
						c0-0.6-9.5-11.6-7.5-12c0.9-1.3,8.8,11.7,9.3,11.8c0.3,0.4,0.2,0.9-0.2,1.1l0,0l-6.3,4.1c1.9,2.2,4.7,4.3,5.8,7
						C30.2,42.2,27.5,56.4,25.1,58.5z"/>
				</g>
			</g>
			<path id="パス_2591" class="st2" d="M69.5,154.6c-2.1-1.6-0.5-11.1-1-16.1c0-1,1.6-1,1.6,0l0,0
				C69.6,146.8,71.4,153.7,69.5,154.6C69.6,154.6,69.6,154.6,69.5,154.6z"/>
			<path id="パス_2592" class="st2" d="M69.3,136c-0.5,0-0.9-0.5-0.8-1.2c0.6-8.3-1.1-15.7,1-17.9c2,2.1,0,9.9,0.6,18.3
				C70.1,135.7,69.8,136,69.3,136z"/>
			<path id="パス_2593" class="st2" d="M45.5,43.9C40.2,39.6,80.6,15.3,78,23.8C69.4,23.2,51.2,36.5,45.5,43.9z"/>
			<path id="パス_2594" class="st2" d="M45.1,88.9c-6.3-9-4.4-37.3-0.5-42.7c0.3,7.7-4.8,30.3,1.3,41.6
				C46.2,88.3,45.7,89.1,45.1,88.9L45.1,88.9z"/>
			<path id="パス_2595" class="st2" d="M95.3,78.4c-0.5,0.1-0.9-0.4-0.8-0.9l0,0c4.4-17.7-1.9-40.8-14-54.2
				C92.7,26.3,102.1,67.7,95.3,78.4z"/>
			<path id="パス_2596" class="st2" d="M37.6,21.9C44.1,0,78.9-5.6,89.5,5.9c0.4,0.8-0.6,1.7-1.3,1C74.1-3.6,52.2,0.6,37.6,21.9z"
				/>
			<path id="パス_2597" class="st2" d="M113.3,61.8c-2.9-33-6.6-38.1-21.6-53.5C101.4,8.6,118,41.2,113.3,61.8L113.3,61.8z"/>
			<path id="パス_2598" class="st2" d="M28.6,107.1c-6.3-17.2,0.3-81.4,8.1-82.6C28.6,41.2,26.4,81.2,28.6,107.1
				C28.7,107.1,28.7,107.1,28.6,107.1z"/>
			<path id="パス_2599" class="st2" d="M35.7,110.4c-2.6-2-6.3-29.3-3.5-34.6c0.5,0,0.9,0.5,0.8,1c-0.7,9.1,1.2,27,3.4,32.6
				C36.7,109.9,36.3,110.5,35.7,110.4z"/>
			<path id="パス_2600" class="st2" d="M40.7,108.4c-1.2-0.1-3.7-9.2-1.5-9.2c1.5,1,0.7,5,1.8,6.8c0.6-0.4,3.7-6.9,4.4-3.8
				c0,1.6,0.7,3.2,1.9,4.3c0.3,0.3,0.4,0.8,0.1,1.1c-1.6,1.1-3-2.1-3.3-3.3C43.7,104.7,41.4,108.6,40.7,108.4z"/>
			<path id="パス_2601" class="st2" d="M110.5,110.4c-0.6,0-0.9-0.6-0.8-1.1c2.6-6.8,2.7-31.8,2.8-41.2c0.2-1.4-0.6-3,0.8-3.4
				C115.3,71.1,113.7,107.2,110.5,110.4z"/>
			<path id="パス_2602" class="st2" d="M105,110.4c-0.5,0-1-0.7-0.7-1.1c2.3-5.2,2.5-20.6,2-27.7c-0.1-0.4,0.2-0.9,0.6-0.9
				c0.5-0.1,1,0.3,0.9,0.8c0.5,6.8,0.3,22.7-2.2,28.4C105.7,110.2,105.4,110.4,105,110.4z"/>
			<path id="パス_2603" class="st2" d="M100.2,107.4C100.1,107.4,100.1,107.4,100.2,107.4c-2-1.7-2.1-5.5-4.3-7.4
				c-0.1,1.5-1.5,7.6-4.2,6.2c-0.2-0.3-0.1-0.7,0.1-1c2.9-2.2,2.5-7.4,2.5-7.4c1.3-2.9,5,5.1,5.7,6.4c1.1-3.9,0.6-8,0-11.9
				C102.7,86.7,103.2,107,100.2,107.4z"/>
			<path id="パス_2604" class="st2" d="M49.7,105c-1.6,0.3-3.8-15.4-0.7-11.4l0,0c0.1,3.5,0.6,6.9,1.4,10.3c0.1,0.4-0.1,0.9-0.5,1
				C49.9,105,49.8,105,49.7,105z"/>
			<path id="パス_2605" class="st2" d="M55.7,72c-6.3,0.7-11.3-2.1-11.5-7.9C44.1,62,44,57,47.7,55.9c0.8-0.2,1.3,1.3,0.4,1.6
				c-4,1.9-3.4,12.3,2.8,12.8c4.8,0.2,13.5,1.1,13.3-5.7c0-5.8-0.5-6.2-2.3-6.8c-0.9-0.4-0.4-1.6,0.5-1.5c3.1,0.9,3.5,2.5,3.5,8.3
				C66.3,70.1,60.7,72.3,55.7,72z"/>
			<path id="パス_2606" class="st2" d="M83.5,72c-5,0.3-10.6-2-10.2-7.5c0-5.8,0.4-7.3,3.5-8.3c1.1-0.6,1.5,1.5,0.4,1.4
				c-1.9,0.6-2.3,1-2.3,6.8c-0.3,5.9,6.8,6.3,11.4,5.8c7.3,1.3,9.5-10.5,4.7-12.9c-0.9-0.4-0.6-1.8,0.4-1.5c3.7,1,3.6,6,3.5,8.2
				C94.6,70,89.9,72.4,83.5,72z"/>
			<path id="パス_2607" class="st2" d="M67.3,61.7c-3.1-2,3.9-2.4,5.1-1.6c0.9,0.4,0.5,1.8-0.5,1.5C70.4,61,68.7,61.2,67.3,61.7z"
				/>
			<path id="パス_2608" class="st2" d="M45.1,62c-0.8-0.2-5.3,0.6-5.5-0.7c-0.1-1.7,4.7-0.6,5.5-0.9C46.2,60.4,46.2,62,45.1,62z"
				/>
			<path id="パス_2609" class="st2" d="M98.7,62c-0.8-0.2-5.3,0.6-5.5-0.7c-0.1-1.7,4.7-0.6,5.5-0.9C99.6,60.4,99.7,61.8,98.7,62z
				"/>
			<path id="パス_2610" class="st2" d="M38.5,44.6C35.1,31,58.1,9.5,68.8,11.1C55.4,16.8,42.2,26.1,38.5,44.6z"/>
			<path id="パス_2611" class="st2" d="M59.7,23.8c-4.6-2.8,20.9-12.2,21.9-7.1c-0.1,0.5-0.6,0.7-1.1,0.6
				C74.6,15.4,65.1,19.7,59.7,23.8z"/>
			<path id="パス_2612" class="st2" d="M103.9,55.4c-0.4,0-0.8-0.3-0.8-0.8c0.2-8.9-5-20.1-6.2-26.1
				C99.3,26.8,106.8,53.3,103.9,55.4L103.9,55.4z"/>
		</g>
	</g>
	<g id="グループ_1750" transform="translate(354.262 2182.051)">
		<g id="グループ_1690" transform="translate(14.524 0)">
			<path id="パス_2305" class="st11" d="M61.9,34.9c-0.4-10-2.5-16.6-5.8-21.1l0,0C41.1-6.5,18.6-0.4,13.9,9.9
				C10.7,10.4,0.6,18,3.8,35.1c-6.7,2.2-3.9,19.4,3.3,19.4c10.8,28.2,40.5,28.3,51.4,0.1C66.1,55,69.2,36.8,61.9,34.9L61.9,34.9z
				 M32.9,70.6c-11.7,0-21.4-14.3-23.2-27.9c0.9-4.9,3.6-15.4,11.4-23.1c6,6.5,16.9,13.9,35.3,13.3C58.6,48.4,47.7,70.5,32.9,70.6
				L32.9,70.6z"/>
		</g>
		<path id="パス_2306" class="st11" d="M46.6,43.6c0-0.3,0-0.7-0.1-1h2.2c-1.1,6.1,5.4,7.1,8.5,6.8c16.7,0,7-18.8-7.3-9.7h-4.6
			c-14.4-9.1-24,9.8-7.3,9.6C40.8,49.3,46.6,49.5,46.6,43.6L46.6,43.6z M57.2,40.5c5,0,5.9,1,5.9,3.1c1.3,4.2-13,4.3-11.7,0
			C51.4,41.5,52.2,40.5,57.2,40.5z M32.1,43.6c-1.3-4.3,12.9-4.3,11.6,0C45.1,47.9,30.8,47.8,32.1,43.6L32.1,43.6z"/>
		<path id="パス_2307" class="st11" d="M72.8,75.1l-3.3-0.8l-22.1,50.1l-22-50.1C11,76.7-0.1,88.9,0,103.7c0,0,0,17.7,0,17.7
			c0,3.4,2.8,6.3,6.2,6.3c0,0,82.5,0,82.5,0c3.5,0,6.4-2.8,6.4-6.3C96.2,102.1,95.3,80.9,72.8,75.1z M63.2,109.8
			c9.3-10.5,8.5-10.4,17.8,0H63.2z"/>
		<path id="パス_2308" class="st11" d="M47.7,115.3L55,96.6l-3.4-3.4c2.1-0.3,3.8-2.5,3.1-4.6c-0.9-2.7-0.9-9.5-5.1-9.2
			c-2.6,0-7-0.6-7.6,2.9c-0.6,3.2-3.8,10.1,1.7,10.9l-3.4,3.4L47.7,115.3z"/>
	</g>
	<path id="Icon_ionic-ios-arrow-round-forward" class="st12" d="M529.9,2200.6c1.1,1,1.1,2.8,0,3.8l-12.6,12.6h47.9
		c1.5,0,2.7,1.3,2.6,2.7c0,1.4-1.2,2.6-2.6,2.6h-47.9l12.6,12.6c2.4,2.6-1.3,6.2-3.8,3.8c0,0-17.1-17.2-17.1-17.2l0,0
		c-1.1-0.9-1-2.7,0-3.7c0,0,17.1-17.2,17.1-17.2C527.1,2199.6,528.8,2199.5,529.9,2200.6C529.9,2200.5,529.9,2200.5,529.9,2200.6z"
		/>
	<path id="Icon_ionic-ios-arrow-round-forward-2" class="st13" d="M829.6,2195.4c1.1,1,1.1,2.8,0,3.8l-12.6,12.6h48
		c1.5,0,2.7,1.3,2.6,2.7c0,1.4-1.2,2.6-2.6,2.6h-47.9l12.6,12.6c2.4,2.6-1.3,6.2-3.8,3.8c0,0-17.1-17.2-17.1-17.2l0,0
		c-1.1-0.9-1-2.7,0-3.7c0,0,17.1-17.2,17.1-17.2C826.9,2194.4,828.5,2194.3,829.6,2195.4L829.6,2195.4z"/>
	<path id="Icon_ionic-ios-arrow-round-forward-3" class="st12" d="M546.3,2250.7c-1.1,1-1.1,2.8,0,3.8l12.6,12.6H511
		c-1.5,0-2.7,1.3-2.6,2.7c0,1.4,1.2,2.6,2.6,2.6h47.9l-12.6,12.6c-2.4,2.6,1.3,6.2,3.8,3.8c0,0,17.1-17.2,17.1-17.2l0,0
		c1.1-0.9,1-2.7,0-3.7c0,0-17.1-17.2-17.1-17.2C549.1,2249.7,547.4,2249.6,546.3,2250.7L546.3,2250.7z"/>
	<path id="Icon_ionic-ios-arrow-round-forward-4" class="st13" d="M846.1,2245.5c-1.1,1-1.1,2.8,0,3.8l12.6,12.6h-47.9
		c-1.5,0-2.7,1.3-2.6,2.7c0,1.4,1.2,2.6,2.6,2.6h47.9l-12.6,12.6c-2.4,2.6,1.3,6.2,3.8,3.8c0,0,17.1-17.2,17.1-17.2l0,0
		c1.1-0.9,1-2.7,0-3.7c0,0-17.1-17.2-17.1-17.2C848.8,2244.5,847.2,2244.5,846.1,2245.5L846.1,2245.5z"/>
	<g class="st6">
		<path d="M530.2,2192.1c0,0.6,0,0.8,0,1.1H529v-0.6h-1v1.3h-1.4c0.2-1.5,0-3.9,0.1-5.4c-0.3,0.6-0.4,0.8-0.8,1.3
			c-0.1-0.8-0.3-1.2-0.5-1.7c1.1-1.3,1.8-3.1,2-4.9c-0.5,0-1.1,0-1.5,0.1v-1.5c1.2,0.2,3.1,0.2,4.2,0v1.5c-0.4,0-0.9-0.1-1.3-0.1
			c-0.2,1.2-0.4,1.9-0.8,3.1c0.6,0,1.8,0,2.3,0c0,0.4,0,0.9,0,1.3c1.1-1,1.8-2.1,2.5-3.7H532v1.4h-1.4c0.1-0.9,0.1-1.9,0.1-2.8
			c0.4,0,2.1,0,2.7,0c0.2-0.6,0.2-0.9,0.3-1.4l1.6,0.2c0,0.1-0.2,0.5-0.4,1.2c0.8,0,3,0.1,3.7-0.1c0,0.7,0,2,0,2.7H537v-1.4h-2.8
			c-0.3,0.7-0.5,1.2-1,2h1.3c0.2-0.4,0.4-1,0.6-1.5l1.4,0.3c-0.2,0.5-0.3,0.8-0.5,1.2c0.6,0,1.7,0.1,2.2-0.1v1.3
			c-0.7-0.1-1.7-0.1-2.4-0.1v1c0.6,0,1.8,0.1,2.2-0.1v1.3c-0.6-0.1-1.6-0.1-2.3-0.1v1c0.6,0,1.8,0.1,2.2-0.1v1.3
			c-0.6-0.1-1.6-0.1-2.3-0.1v1c0.7,0,2.2,0.1,2.7-0.1v1.4c-0.9-0.2-4.7-0.1-5.7-0.1v0.6h-1.5c0.2-1.3,0.1-4.7,0.1-6.1
			c-0.2,0.3-0.3,0.5-0.6,0.8c-0.1-0.3-0.3-0.5-0.5-0.9L530.2,2192.1L530.2,2192.1z M528,2191.2h1v-3.7h-1V2191.2z M534.5,2187.9v-1
			h-1.7v1H534.5z M532.8,2190.1h1.7v-1h-1.7V2190.1z M532.8,2192.3h1.7v-1h-1.7V2192.3z"/>
		<path d="M541.4,2183.6c1.1,0.2,3.8,0.2,4.9,0v1.4c-1.1,0.1-3.8-0.1-4.9,0.1V2183.6z M541.9,2181.6c1.1,0.2,3,0.2,4.1,0v1.4
			c-1.1-0.1-3-0.2-4.1,0V2181.6z M545.9,2192.8c0,0.5,0,0.8,0.1,1.1h-1.3v-0.5h-1.4v0.7h-1.4c0.1-1.4,0.2-3.2,0-4.6
			c1,0.2,3.1,0.1,4.1,0.1c0,0.4,0,2.2,0,2.8c0.5-1,0.7-1.7,0.9-3.2l1.2,0.3c-0.2,1.8-0.4,2.4-0.9,3.8l-1.1-0.7v0.2H545.9z
			 M541.9,2185.6c1,0,3.1,0,4.1,0v1.3c-1,0-3.1,0-4.1,0V2185.6z M541.9,2187.6c0.9,0,3.2,0,4.1,0v1.3c-1,0-3.1,0-4.1,0V2187.6z
			 M543.2,2192.2h1.4v-1.4h-1.4V2192.2z M547.2,2183.7c0.8,0.3,1.1,0.4,1.6,0.6c0.1-0.4,0.2-0.6,0.2-1.1c-0.7,0-1.9,0-2.4,0.1v-1.5
			c1.7,0.2,5.7,0.2,7.3,0c-0.3,2.5,0.4,7.2-3.4,6c-0.1-0.6-0.1-0.8-0.3-1.4h0.1c-0.3-0.2-0.5-0.3-0.8-0.5c-0.7,1.1-1.3,1.7-2.6,2.4
			c-0.3-0.5-0.5-0.7-1-1.1c1.2-0.5,1.8-1.1,2.4-1.9c-0.6-0.3-0.9-0.4-1.7-0.6L547.2,2183.7z M549.6,2192.2c0,0.3,0.1,0.4,0.6,0.4
			c1.6,0,1-0.4,1.3-1.8c0.5,0.2,0.8,0.3,1.3,0.4c-0.2,2.4-0.4,2.7-2.4,2.7c-1.7,0-2.1-0.2-2.1-1c0-0.7,0.1-3.2-0.1-3.9h1.5
			C549.5,2189.6,549.6,2191.6,549.6,2192.2z M549.7,2187.2c1.3,1,1.3,1,2.2,1.9l-1.1,0.9c-0.6-0.9-1.2-1.4-2.1-2.1L549.7,2187.2z
			 M550.4,2183.1c-0.1,0.8-0.2,1.1-0.4,1.7c0.4,0.2,0.6,0.3,1.2,0.6l-0.6,1c2.1,0.5,1.5-1.2,1.8-3.3H550.4z M553.1,2189
			c0.6,1.1,1,1.9,1.5,3.3l-1.2,0.7c-0.4-1.6-0.7-2.2-1.5-3.4L553.1,2189z"/>
	</g>
</g>
</svg>
