<?xml version="1.0" encoding="utf-8"?>
<!-- Generator: Adobe Illustrator 25.4.1, SVG Export Plug-In . SVG Version: 6.00 Build 0)  -->
<svg version="1.1" id="レイヤー_1" xmlns="http://www.w3.org/2000/svg" xmlns:xlink="http://www.w3.org/1999/xlink" x="0px"
	 y="0px" viewBox="0 0 182.8 153.2" style="enable-background:new 0 0 182.8 153.2;" xml:space="preserve">
<style type="text/css">
	.st0{fill:#1A62A3;stroke:#FCFCFC;stroke-width:10.5723;}
	.st1{fill:#1A62A3;stroke:#FCFCFC;stroke-width:13.2154;}
	.st2{fill:#1A62A3;stroke:#FCFCFC;stroke-width:12.3344;}
	.st3{fill:#1A62A3;}
</style>
<g transform="translate(-326.084 -3965.682)">
	<g transform="translate(3321 -8364.409)">
		<g transform="translate(-2987.416 12341.762)">
			<path class="st0" d="M134.2,34.4l-21.2,36.7h42.3L134.2,34.4z"/>
			<path class="st0" d="M22.6,34h39.6L42.4-0.3L22.6,34z"/>
			<path class="st0" d="M74.6,131.3L55.4,98.2l-19.1,33.1L74.6,131.3z"/>
			<path class="st1" d="M116.5,44.3l12.4-21.5C108.4-0.9,74.4-7.4,46.5,6.9L58,26.6C79.1,16.5,104.5,24.1,116.5,44.3z"/>
			<path class="st1" d="M32.3,67.5c0-7.7,1.9-15.2,5.7-21.9H13.1c-10,29.4,1.2,61.9,27.2,78.9l11.4-19.8
				C39.5,96.3,32.3,82.3,32.3,67.5z"/>
			<path class="st2" d="M122.8,71.1c-1.9,23.4-21.3,41.5-44.8,41.7l12.5,21.6c30.7-5.9,53.5-32,55.2-63.3L122.8,71.1z"/>
		</g>
	</g>
	<g transform="translate(-772.518 2408.108)">
		<path class="st3" d="M1197.3,1638.4h-3l-0.4,0.8c-2.8,5.3-9.4,7.4-14.7,4.7c-2-1-3.6-2.7-4.7-4.7l-0.4-0.8h-3
			c-7.1,0-12.8,5.7-12.8,12.8v18.7h51.8v-18.7C1210.1,1644.1,1204.4,1638.4,1197.3,1638.4z M1184.2,1648.1c1.6,0,3.2-0.3,4.7-0.8
			l-4.6,8.9l-4.7-8.9C1181.1,1647.8,1182.6,1648.1,1184.2,1648.1L1184.2,1648.1z M1207.1,1666.9h-45.8v-15.7c0-5.4,4.4-9.8,9.8-9.8
			h1.2c0.6,1,1.4,2,2.3,2.8l9.8,18.5l9.5-18.5c0.9-0.8,1.6-1.8,2.3-2.8h1.2c5.4,0,9.7,4.4,9.8,9.8L1207.1,1666.9z M1179.6,1624.9
			c3.5-0.6,6.7-2.1,9.5-4.3c0.8,1.9,1.9,3.5,3.4,4.8l1.8-2.4c-1-0.9-1.8-2-2.3-3.2c-0.4-0.7-0.7-1.5-1-2.3l-0.9-2.6l-1.7,2.1
			l-0.1,0.1c-2.5,2.5-5.8,4.2-9.3,4.8c-0.9,0.2-1.8,0.3-2.8,0.3c-0.4,0-0.8,0-1.2-0.1l-0.3,3l0,0c0.5,0,1,0.1,1.5,0.1
			C1177.4,1625.2,1178.5,1625.1,1179.6,1624.9L1179.6,1624.9z M1167.4,1632.1h1.4c0.2,2.5,1.8,4.6,4.1,5.5c1,0.4,2.2,0.7,3.3,0.8
			c0.5,0.8,1.2,1.4,2,1.9c2.9,1.5,6.4,1.5,9.3,0c1.4-0.6,2.3-2,2.4-3.5v0c3.7-1.7,6.6-4.9,7.7-8.8v4.2h3.4l3.7-3.7l0-8.7l-4.8-4.7
			c-0.8-2.7-2.2-5.2-4.1-7.3c-3-3.3-7.2-5.2-11.7-5.2v3c3.6,0,7.1,1.6,9.5,4.2c1.7,1.8,2.9,4,3.5,6.5l0.1,0.4l0.4,0.3v3
			c-2.3-7.4-10.1-11.6-17.5-9.4c-4.5,1.4-8,4.9-9.4,9.4v-3l0.4-0.3l0.1-0.4c0.6-2.4,1.8-4.7,3.5-6.5c2.4-2.7,5.8-4.2,9.4-4.2h0v-3h0
			c-4.4,0-8.7,1.9-11.6,5.2c-1.9,2.1-3.3,4.6-4.1,7.4l-4.8,4.7l0,8.7L1167.4,1632.1z M1200.7,1619.8l1.1,1.1l0,6.2l-1.1,1.1
			L1200.7,1619.8z M1186.1,1637.6c-2,1-4.4,1-6.4,0c-0.8-0.4-0.9-0.8-0.9-0.9c0-0.1,0.1-0.4,0.9-0.9c2-1,4.4-1,6.4,0
			c0.8,0.4,0.9,0.8,0.9,0.9C1186.9,1636.8,1186.8,1637.2,1186.1,1637.6L1186.1,1637.6z M1184.2,1612.8c6.1,0,11,4.9,11,11
			c0,4.4-2.6,8.4-6.7,10.1c-0.3-0.3-0.7-0.5-1.1-0.8c-2.9-1.4-6.3-1.5-9.2-0.1c-5.1-3.3-6.7-10.1-3.4-15.2
			C1176.9,1614.8,1180.4,1612.8,1184.2,1612.8L1184.2,1612.8z M1170.7,1627.9c0.9,3,2.8,5.6,5.4,7.5c-0.7-0.1-1.4-0.3-2-0.5
			c-1.5-0.5-2.4-1.9-2.3-3.4c0-0.7-0.2-1.3-0.7-1.8c-0.1-0.1-0.2-0.2-0.3-0.2L1170.7,1627.9z M1167.7,1619.8v8.4l-1.1-1.1l0-6.2
			L1167.7,1619.8z"/>
	</g>
</g>
</svg>
