<svg xmlns="http://www.w3.org/2000/svg" width="464.879" height="204.091" viewBox="0 0 464.879 204.091"><g transform="translate(-724.865 -6076.702)"><g transform="translate(1430.673 6556.777) rotate(180)"><path d="M473.364,275.985c-128.163,0-232.435,45.105-232.435,100.557,0,16.885,9.863,33.586,28.527,48.295a4.756,4.756,0,0,0,3.51.444c1.233-.3,1.685-.974,1-1.515-18.246-14.386-27.895-30.716-27.895-47.224,0-54.222,101.954-98.332,227.29-98.332s227.29,44.11,227.29,98.332S598.7,474.87,473.364,474.87c-36.08,0-70.583-3.566-102.57-10.588-5.309-1.163-14.383-3.385-23.161-5.643L375.092,454c1.332-.231,1.981-.875,1.463-1.444a4.2,4.2,0,0,0-3.329-.633L342.069,457.2c-6.032-1.582-11.473-3.072-14.818-4.11a5.112,5.112,0,0,0-3.592.27c-.822.5-.534,1.195.608,1.554,2.794.85,7.035,2.023,11.81,3.3l-14.7,2.489L251.4,476.147l52.345-36.213c.764-.519.386-1.209-.822-1.532a4.989,4.989,0,0,0-3.551.356l-57.26,39.616c-.616.423-.51.978.279,1.34a4.661,4.661,0,0,0,1.9.363,5.723,5.723,0,0,0,1.167-.121l78.037-17.227,18.081-3.065c9.9,2.581,20.826,5.28,26.9,6.606,32.7,7.186,68.01,10.83,104.888,10.83,128.172,0,232.444-45.113,232.444-100.557S601.536,275.985,473.364,275.985Z" transform="translate(0 0)" fill="#1a1311"/></g><path d="M29.64-30.32a4.387,4.387,0,0,0,4.4,4.4,4.387,4.387,0,0,0,4.4-4.4,4.422,4.422,0,0,0-4.4-4.44A4.421,4.421,0,0,0,29.64-30.32Zm4.4,3a3.022,3.022,0,0,1-3-3,3,3,0,0,1,3-3,3,3,0,0,1,3,3A3.021,3.021,0,0,1,34.04-27.32Zm1,6.8v-3.8H22v-6.96a1.06,1.06,0,0,0,1.08-.88l-5.12-.24v8.08H4.88v3.8H17.96V-2.96c0,1.52-.84,1.52-3.28,1.52-1.16,0-2.64-.04-3.84-.08a20.193,20.193,0,0,1,1.12,3.68C17.92,2.24,22,2.28,22-3.04V-20.52ZM25.92-14.6A68.232,68.232,0,0,1,33.64-2.88l3.6-2.08a75.489,75.489,0,0,0-8.08-11.32ZM9.72-15.96A27.316,27.316,0,0,1,2.8-5L6.12-2.92A33.928,33.928,0,0,0,13.36-14.6Zm62-16.64C65.44-25.44,53.48-17.04,42.8-12.2a17.721,17.721,0,0,1,2.4,3.08,118.4,118.4,0,0,0,14.2-8.2V2.32h4.2V-18.8a1.092,1.092,0,0,0,.96-.68c-.24-.08-.72-.28-1.08-.44a98.9,98.9,0,0,0,11.04-9.32,1.5,1.5,0,0,0,.4.04,1.2,1.2,0,0,0,.88-.36Zm12.92,6.2a54.783,54.783,0,0,1,11.6,5.52l2.08-3.6a49.4,49.4,0,0,0-11.8-5.32Zm4,28.12a1.28,1.28,0,0,0,.64-.96c13.4-4.6,23.08-13.16,28.04-24.08a26.66,26.66,0,0,1-3.68-2.32C108.92-14.6,99.56-6.68,85.76-2.44Zm64.84-16.44A140.215,140.215,0,0,0,138.8-21.2l-.8,1.12V-31.52c.76-.16,1.12-.48,1.16-.92l-5.36-.32v35H138V-17.12a118.75,118.75,0,0,1,13.24,6.28Zm13.28.64a1.116,1.116,0,0,0,.8-.72c.68-.24,1.68-.6,2.52-.92,5.6-1.92,10.2-2.84,13-2.84,3.84,0,7,1.92,7,6.4,0,6.12-7.28,8.68-16.84,9.32A22.156,22.156,0,0,1,174.36.64c11.2-.88,19.68-4.12,19.68-13.08,0-6.64-5-9.52-10.48-9.52-3.32,0-8.84,1.08-14.32,2.72-1.6.44-2.96.8-3.8.96Zm36.08-9.96a1.533,1.533,0,0,0,.96-.64c4.36-.44,15.12-1.36,19.52-1.6-6.6,4.36-11.6,10.96-11.6,16.2,0,7,4.32,11.56,15.72,13.04L229.36-1c-9.32-1.12-13.28-4.08-13.28-9.12,0-4.84,5.6-10.8,10.76-14.08,3.08-2.08,5.2-2.32,8.48-2.2l-.04-4.24c-6,.16-24.72,1.4-28.8,1.72-1.12.08-2.84.12-4.04.12ZM244.48.44a2.92,2.92,0,0,0,3-3.16,2.946,2.946,0,0,0-2.96-3.2,3.022,3.022,0,0,0-3,3.2A2.932,2.932,0,0,0,244.48.44Zm9.8,0a2.92,2.92,0,0,0,3-3.16,2.946,2.946,0,0,0-2.96-3.2,3.022,3.022,0,0,0-3,3.2A2.932,2.932,0,0,0,254.28.44Zm9.8,0a2.92,2.92,0,0,0,3-3.16,2.946,2.946,0,0,0-2.96-3.2,3.022,3.022,0,0,0-3,3.2A2.932,2.932,0,0,0,264.08.44Zm25.64-9.48a11.573,11.573,0,0,1-.16-1.76c0-2.04.96-3.76,3.12-5.68,2.8-2.36,5.08-4.6,5.08-7.84,0-3.4-2.8-6.76-9.96-6.76a19.422,19.422,0,0,0-8.4,1.92l1.36,3.28a13.992,13.992,0,0,1,6.4-1.52c4,0,5.84,1.56,5.84,3.64,0,2.04-1.52,3.52-4.04,5.8-2.56,2.4-3.6,4.52-3.6,6.76,0,.36.16,1.88.2,2.16ZM287.68.4a2.935,2.935,0,0,0,3.04-3.12,2.934,2.934,0,0,0-2.96-3.16,2.965,2.965,0,0,0-3,3.24A2.915,2.915,0,0,0,287.68.4Z" transform="translate(803 6194.398)"/></g></svg>