<svg xmlns="http://www.w3.org/2000/svg" xmlns:xlink="http://www.w3.org/1999/xlink" width="547.83" height="496.55" viewBox="0 0 547.83 496.55"><defs><filter id="a"><feOffset dy="3" input="SourceAlpha"/><feGaussianBlur stdDeviation="3" result="b"/><feFlood flood-opacity="0.161" result="c"/><feComposite operator="out" in="SourceGraphic" in2="b"/><feComposite operator="in" in="c"/><feComposite operator="in" in2="SourceGraphic"/></filter></defs><g transform="translate(-300.975 -8099.35)"><path d="M-174.727,0V-64.005h-8.33l-14.45,7.735,2.21,7.225L-184.5-55h.17V0Zm40.205.935c13.175,0,20.995-11.815,20.995-33.49,0-19.38-6.8-32.47-20.315-32.47-13.26,0-21.165,12.24-21.165,33.15C-155.007-12.24-147.867.935-134.522.935Zm.17-7.905c-6.8,0-10.71-9.35-10.71-25.245,0-15.98,4.42-24.99,10.88-24.99,7.48,0,10.71,9.775,10.71,24.99C-123.472-18.955-126.022-6.97-134.352-6.97Zm31.28-5.27a139.265,139.265,0,0,1-6.035,24.14l6.8-.68c3.23-5.355,7.48-15.9,9.945-24.4ZM-65.757.935c13.175,0,20.995-11.815,20.995-33.49,0-19.38-6.8-32.47-20.315-32.47-13.26,0-21.165,12.24-21.165,33.15C-86.243-12.24-79.1.935-65.757.935Zm.17-7.905c-6.8,0-10.71-9.35-10.71-25.245,0-15.98,4.42-24.99,10.88-24.99,7.48,0,10.71,9.775,10.71,24.99C-54.707-18.955-57.257-6.97-65.587-6.97Zm47.6,7.905C-4.813.935,3.007-10.88,3.007-32.555c0-19.38-6.8-32.47-20.315-32.47-13.26,0-21.165,12.24-21.165,33.15C-38.473-12.24-31.333.935-17.988.935Zm.17-7.905c-6.8,0-10.71-9.35-10.71-25.245,0-15.98,4.42-24.99,10.88-24.99,7.48,0,10.71,9.775,10.71,24.99C-6.938-18.955-9.488-6.97-17.818-6.97ZM29.782.935c13.175,0,20.995-11.815,20.995-33.49,0-19.38-6.8-32.47-20.315-32.47C17.2-65.025,9.3-52.785,9.3-31.875,9.3-12.24,16.437.935,29.782.935Zm.17-7.905c-6.8,0-10.71-9.35-10.71-25.245,0-15.98,4.42-24.99,10.88-24.99,7.48,0,10.71,9.775,10.71,24.99C40.832-18.955,38.282-6.97,29.952-6.97ZM82.08-28.8a4.168,4.168,0,0,0,4.18,4.18,4.168,4.168,0,0,0,4.18-4.18,4.2,4.2,0,0,0-4.18-4.218A4.2,4.2,0,0,0,82.08-28.8Zm4.18,2.85a2.871,2.871,0,0,1-2.85-2.85,2.846,2.846,0,0,1,2.85-2.85,2.846,2.846,0,0,1,2.85,2.85A2.87,2.87,0,0,1,86.26-25.954Zm.95,6.46V-23.1H74.823v-6.612a1.007,1.007,0,0,0,1.026-.836l-4.864-.228V-23.1H58.559v3.61H70.984V-2.812c0,1.444-.8,1.444-3.116,1.444-1.1,0-2.508-.038-3.648-.076a19.184,19.184,0,0,1,1.064,3.5c5.662.076,9.538.114,9.538-4.94V-19.494ZM78.547-13.87A64.82,64.82,0,0,1,85.881-2.736L89.3-4.712a71.714,71.714,0,0,0-7.676-10.754Zm-15.39-1.292A25.95,25.95,0,0,1,56.583-4.75l3.154,1.976a32.231,32.231,0,0,0,6.878-11.1Zm58.9-15.808c-5.966,6.8-17.328,14.782-27.474,19.38a16.836,16.836,0,0,1,2.28,2.926,112.479,112.479,0,0,0,13.49-7.79V2.2h3.99V-17.86a1.038,1.038,0,0,0,.912-.646c-.228-.076-.684-.266-1.026-.418a93.952,93.952,0,0,0,10.488-8.854,1.426,1.426,0,0,0,.38.038,1.136,1.136,0,0,0,.836-.342Zm12.274,5.89a52.044,52.044,0,0,1,11.02,5.244l1.976-3.42a46.933,46.933,0,0,0-11.21-5.054Zm3.8,26.714a1.216,1.216,0,0,0,.608-.912c12.73-4.37,21.926-12.5,26.638-22.876a25.328,25.328,0,0,1-3.5-2.2C157.4-13.87,148.5-6.346,135.395-2.318Zm61.6-15.618a133.2,133.2,0,0,0-13.946-6.156l-.76,1.064V-29.944c.722-.152,1.064-.456,1.1-.874l-5.092-.3V2.128h3.99V-16.264A112.811,112.811,0,0,1,197.6-10.3Z" transform="translate(510 8584)" fill="#0b7ac0"/><path d="M13.875-2.85a8.548,8.548,0,0,1-3.45.675c-3.95,0-6.4-2.625-6.4-7.325,0-4.975,2.75-7.475,6.45-7.475a7.876,7.876,0,0,1,3.35.7l.625-2.375a9.269,9.269,0,0,0-4.075-.75c-5.3,0-9.4,3.55-9.4,10.05,0,6.1,3.575,9.625,8.9,9.625a10.984,10.984,0,0,0,4.5-.8ZM24.025-14a3.394,3.394,0,0,0-.725-.075,3.959,3.959,0,0,0-3.575,2.825h-.1l-.1-2.525H17c.075,1.275.1,2.6.1,4.2V0H20V-7.3c0-2.4,1.225-4,3.175-4a4.3,4.3,0,0,1,.85.075ZM35.875-2.6a8.594,8.594,0,0,1-3.475.65c-2.175,0-4.1-1.175-4.175-4.275h8.75A8.687,8.687,0,0,0,37.05-7.45c0-3.4-1.55-6.625-5.425-6.625-3.9,0-6.2,3.275-6.2,7.375,0,4.2,2.4,6.975,6.55,6.975A10.77,10.77,0,0,0,36.35-.55ZM28.25-8.3C28.4-9.9,29.3-12,31.425-12c2.225,0,2.9,2.05,2.875,3.7ZM49.5-8.475c0-2.925-1.125-5.6-5.175-5.6a8.6,8.6,0,0,0-4.45,1.15l.6,1.925a6.343,6.343,0,0,1,3.35-.95C46.6-11.95,46.6-9.9,46.6-8.875c-4.725,0-7.7,1.7-7.7,5.125A3.89,3.89,0,0,0,42.95.275,4.663,4.663,0,0,0,46.8-1.6h.075l.2,1.6H49.7a18.713,18.713,0,0,1-.2-3.275ZM46.675-4.65A2.812,2.812,0,0,1,43.8-1.85a1.966,1.966,0,0,1-2.025-2.2c0-2.45,2.625-2.875,4.9-2.875Zm7.05-9.125h-1.95V-11.6h1.95v7.125c0,1.8.325,2.95,1.025,3.7A3.575,3.575,0,0,0,57.475.275a6.394,6.394,0,0,0,2.25-.325l-.1-2.225A4.219,4.219,0,0,1,58.35-2.1c-1.225,0-1.75-.825-1.75-2.525V-11.6h3.275v-2.175H56.6v-3.4l-2.875.9Zm11.8-3.8a1.621,1.621,0,0,0-1.675-1.7,1.641,1.641,0,0,0-1.7,1.7A1.629,1.629,0,0,0,63.825-15.9,1.621,1.621,0,0,0,65.525-17.575Zm-.25,3.775h-2.9V0h2.9ZM77-13.775l-2.225,7.35c-.35,1.2-.675,2.325-.925,3.475h-.075c-.25-1.15-.55-2.3-.925-3.5L70.6-13.775H67.475L72.3,0h2.775l4.95-13.775ZM91.775-2.6a8.594,8.594,0,0,1-3.475.65c-2.175,0-4.1-1.175-4.175-4.275h8.75A8.688,8.688,0,0,0,92.95-7.45c0-3.4-1.55-6.625-5.425-6.625-3.9,0-6.2,3.275-6.2,7.375,0,4.2,2.4,6.975,6.55,6.975A10.77,10.77,0,0,0,92.25-.55ZM84.15-8.3C84.3-9.9,85.2-12,87.325-12c2.225,0,2.9,2.05,2.875,3.7Zm23.625,5.45a8.548,8.548,0,0,1-3.45.675c-3.95,0-6.4-2.625-6.4-7.325,0-4.975,2.75-7.475,6.45-7.475a7.876,7.876,0,0,1,3.35.7l.625-2.375a9.269,9.269,0,0,0-4.075-.75c-5.3,0-9.4,3.55-9.4,10.05,0,6.1,3.575,9.625,8.9,9.625a10.984,10.984,0,0,0,4.5-.8Zm8.85-11.225c-3.65,0-6.5,2.625-6.5,7.275,0,4.45,2.725,7.075,6.3,7.075,3.1,0,6.45-2.125,6.45-7.275C122.875-11.225,120.4-14.075,116.625-14.075Zm3.275,7.15c0,2.75-1.3,5.025-3.4,5.025-2.125,0-3.4-2.275-3.4-4.975,0-2.375.95-5.025,3.425-5.025C118.95-11.9,119.9-9.2,119.9-6.925Zm17.225-1.5c0-4.25-2.4-5.65-4.55-5.65a4.722,4.722,0,0,0-4.175,2.35h-.075l-.15-2.05H125.65c.05,1.175.1,2.35.1,3.875V0h2.9V-8.3a3.1,3.1,0,0,1,2.95-3.375c1.975,0,2.625,1.65,2.625,3.6V0h2.9ZM149.65-2.6a6.3,6.3,0,0,1-2.6.55c-2.4,0-4.175-1.8-4.175-4.825,0-2.7,1.5-4.9,4.2-4.9a5.39,5.39,0,0,1,2.475.55l.575-2.225a7.392,7.392,0,0,0-3.075-.625c-4.425,0-7.125,3.15-7.125,7.325,0,4.3,2.6,7.025,6.575,7.025a8.924,8.924,0,0,0,3.55-.7Zm6.15-14.975a1.621,1.621,0,0,0-1.675-1.7,1.641,1.641,0,0,0-1.7,1.7A1.629,1.629,0,0,0,154.1-15.9,1.621,1.621,0,0,0,155.8-17.575Zm-.25,3.775h-2.9V0h2.9ZM168.875-2.6a8.594,8.594,0,0,1-3.475.65c-2.175,0-4.1-1.175-4.175-4.275h8.75a8.687,8.687,0,0,0,.075-1.225c0-3.4-1.55-6.625-5.425-6.625-3.9,0-6.2,3.275-6.2,7.375,0,4.2,2.4,6.975,6.55,6.975A10.77,10.77,0,0,0,169.35-.55ZM161.25-8.3c.15-1.6,1.05-3.7,3.175-3.7,2.225,0,2.9,2.05,2.875,3.7ZM179.775-14a3.394,3.394,0,0,0-.725-.075,3.959,3.959,0,0,0-3.575,2.825h-.1l-.1-2.525H172.75c.075,1.275.1,2.6.1,4.2V0h2.9V-7.3c0-2.4,1.225-4,3.175-4a4.3,4.3,0,0,1,.85.075Zm11.175.225-.125,1.85h-.05A4,4,0,0,0,187-14.075c-3,0-5.825,2.6-5.825,7.275,0,3.85,2.225,6.725,5.475,6.725A4.323,4.323,0,0,0,190.475-2.1h.05V-.775c0,3.125-1.6,4.375-3.85,4.375a7.518,7.518,0,0,1-3.725-.975l-.65,2.25a8.95,8.95,0,0,0,4.35,1c6.525,0,6.75-5.075,6.75-7.825V-9.8c0-1.85.05-3,.125-3.975ZM190.5-5.75c0,2.3-1.5,3.45-3,3.45-2.15,0-3.375-1.925-3.375-4.625,0-2.95,1.4-4.85,3.4-4.85A3.087,3.087,0,0,1,190.5-8.45ZM206.7-2.6a8.594,8.594,0,0,1-3.475.65c-2.175,0-4.1-1.175-4.175-4.275h8.75a8.687,8.687,0,0,0,.075-1.225c0-3.4-1.55-6.625-5.425-6.625-3.9,0-6.2,3.275-6.2,7.375,0,4.2,2.4,6.975,6.55,6.975a10.77,10.77,0,0,0,4.375-.825Zm-7.625-5.7c.15-1.6,1.05-3.7,3.175-3.7,2.225,0,2.9,2.05,2.875,3.7Zm16.675-3.575c1.475-1.725,2.225-2.55,3.075-2.55.975,0,1.675,1,3.55,3.325a96.5,96.5,0,0,0,8.85,9.65l1.925-2.225A118.487,118.487,0,0,1,223.6-13.8c-1.975-2.4-3.075-3.3-4.725-3.3-1.3,0-2.325.525-4.05,2.35-1.25,1.35-3.925,4.175-5.2,5.375l2.1,2.525a.96.96,0,0,0,.325-.8Zm29.25,0c1.575-1.275,5.175-3.675,8.3-4.075l-.225-2.575a35.578,35.578,0,0,1-4.6.575c-2.25.15-7.4.25-9.775.2.05.575.05,1.8.05,2.425a74.358,74.358,0,0,0,7.925-.275v.025a31.243,31.243,0,0,0-3.775,2.55Zm13.2-.75a17.468,17.468,0,0,0-3.25-3.275l-1.075.975a19.749,19.749,0,0,1,3.2,3.3Zm-2.675,2.5a17.92,17.92,0,0,0-3.3-3.3l-1.075,1a15.354,15.354,0,0,1,3.2,3.3Zm-1.075,7.35a41.5,41.5,0,0,1-7.725.7,21.349,21.349,0,0,1-3.8-.275c-1.95-.425-2.825-1.65-2.825-3a6,6,0,0,1,2.025-3.925l-2.125-1a7.972,7.972,0,0,0-2.425,5.3c0,2.225,1.325,4.275,4.45,4.95a28.87,28.87,0,0,0,5.1.325,46.361,46.361,0,0,0,7.525-.525ZM265.4-16.4c.025-1.375.05-2.75.05-4.15.425-.05.625-.2.675-.475l-3-.15c0,1.625,0,3.225-.025,4.775h-3.175v2.325h3.125c-.175,6.1-.875,11.325-3.6,14.65a7.961,7.961,0,0,1,1.775,1.65c3.075-3.8,3.9-9.725,4.125-16.3h3.25C268.425-4.9,268.225-1.7,267.725-1a.812.812,0,0,1-.8.45c-.425,0-1.325-.025-2.3-.1a5.865,5.865,0,0,1,.675,2.375c2.85.075,3.725.025,4.5-1.175.75-1.075.925-4.85,1.125-16.1,0-.275.025-.6.025-.775L269.7-16.4ZM273,1.575h2.275V-.2h4.1V1.4h2.35V-18.35H273Zm2.275-17.625h4.1V-2.525h-4.1ZM295.45-19.7h-5.975v2.4h6.05c.075.95.175,1.975.35,3.075l-1.3-.3c-1.5,6.95-4.625,12.175-9.9,14.875a13.866,13.866,0,0,1,1.95,1.85c4.9-2.775,8.025-7.425,9.875-13.5a21.673,21.673,0,0,0,9.775,13.425A11.312,11.312,0,0,1,308.175.1c-9.7-5.75-10.3-15.2-10.3-19.825H295.45ZM319.925-2.675H332.1V-15.95h-5.725c.25-.725.475-1.475.65-2.1h6.1v-2.025H319.1v2.025h5.35a19.654,19.654,0,0,1-.475,2.1h-4.05Zm2.2-5.625v-2.075h7.65V-8.3Zm0-3.75v-2.1h7.65v2.1Zm0,7.575V-6.6h7.65v2.125Zm-3.45-15.2H309.6v2.225h3.775V-1.325c0,.525-.125.525-1.45.525-.575,0-1.35-.025-2.15-.05a11.25,11.25,0,0,1,.725,2.325c4.2,0,5.175-.275,5.175-2.8V-17.45h3Zm3.95,17.25A20.174,20.174,0,0,1,316.7.55a13.11,13.11,0,0,1,1.475,1.675,21.773,21.773,0,0,0,6.1-3.15.684.684,0,0,0,.45-.175ZM333.475.85a33.08,33.08,0,0,0-5.05-3.175L326.65-1.05a32.282,32.282,0,0,1,4.925,3.325Zm2.85-19.25a58.248,58.248,0,0,0-.4,6.875c0,1.1.025,2.15.1,3.1.275,4.375,2.3,8.75,5.825,8.75,1.95,0,3.55-1.65,4.975-6.1a12.12,12.12,0,0,1-2.05-1.525c-.7,2.4-1.875,4.925-2.8,4.95-1.275,0-3.5-1.475-3.5-8.275a40.379,40.379,0,0,1,.55-6.7.7.7,0,0,0,.675-.425Zm21.2,11.675A13.834,13.834,0,0,0,350.4-16.95l-1.575,1.875a12.166,12.166,0,0,1,6.1,9.175Zm17.15-10.85a26.224,26.224,0,0,1-6.35,1.325c.225-1.3.425-2.65.575-3.65a.829.829,0,0,0,.725-.55l-3.375-.325c-.15,1.5-.35,3.25-.55,4.75-.5.025-.975.025-1.425.025-1.2,0-2.5,0-3.3-.05L361-13.675c.875.025,2.025.025,3.225.025.35,0,.75,0,1.125-.025a52.525,52.525,0,0,1-4.4,14.3l2.55.9A70.669,70.669,0,0,0,367.925-13.8a31.762,31.762,0,0,0,7.25-1.325Zm-1.9,8.475a28.692,28.692,0,0,1,8.45-1v-2.375a30.835,30.835,0,0,0-9,1.25Zm9.075,7.725a28.987,28.987,0,0,1-2.975.125c-3.8,0-5.675-.325-5.675-2.075A3.948,3.948,0,0,1,374.425-5.8l-2.1-.825A5.887,5.887,0,0,0,370.75-2.95a3.6,3.6,0,0,0,3.025,3.6,25.849,25.849,0,0,0,5.65.525c.825,0,1.625-.025,2.375-.075ZM400.975-3.3c.475-3.225,1.35-9.75,1.675-13.05a.682.682,0,0,0,.45-.375l-1.95-.825-.45.15H388.4v2.35h11.35c-.275,3.2-.925,8.75-1.375,11.75h-12.65V-.925H406.85V-3.3Zm9.95-4.9a1.048,1.048,0,0,0,.8-.45H431.6v-2.5H410.725Zm43.75-12.575a16.215,16.215,0,0,1,2.75,3.3l1.1-.875a16.94,16.94,0,0,0-2.8-3.3Zm2.225,5.95h-5.15V-19.7c.45-.075.65-.275.675-.525L449.25-20.4v5.575h-7v-4.5c.425-.075.65-.325.675-.575l-3.15-.2v5.275h-4.6v2.4h4.6V-6.6h2.475v-5.825h7V-11.1c0,4.075-1.225,8.2-7.25,10.85a13.576,13.576,0,0,1,1.825,1.75c6.3-2.925,7.925-7.625,7.925-12.65v-1.275h5.15ZM452.125-18.7a18.932,18.932,0,0,1,2.725,3.3l1.1-.875a15.812,15.812,0,0,0-2.725-3.275Zm8.55,10.5a1.048,1.048,0,0,0,.8-.45H481.35v-2.5H460.475Zm40.8-.725h6.2v-1.95h-6.2V-12.55h5.15v-1.9h-5.15v-1.625h5.8v-1.95H504.15c.475-.7.95-1.525,1.275-2.125a.626.626,0,0,0,.6-.25l-2.625-.85a22.463,22.463,0,0,1-1.4,3.075l.425.15h-4.4l.55-.2a13.208,13.208,0,0,0-1.45-2.925l-1.875.65a14.849,14.849,0,0,1,1.175,2.475h-2.75v1.95h5.5v1.625H494.4v1.9h4.775v1.675h-6.15v1.95h6.15v8.65c0,.425-.1.425-1.125.425-.45,0-1.075-.025-1.65-.05a8.818,8.818,0,0,1,.65,2.15c3.375,0,4.425-.225,4.425-2.525V-3.9a12.851,12.851,0,0,0,5.15,5.3,8.678,8.678,0,0,1,1.5-1.9,10.9,10.9,0,0,1-4.375-3.375,31.051,31.051,0,0,0,3.325-2.85.85.85,0,0,0,.25.025.472.472,0,0,0,.375-.15L505.625-8.4a24.878,24.878,0,0,1-2.85,3.1,15.618,15.618,0,0,1-1.3-2.775Zm-8.525-4.7v-2.2H490.2V-20.65c.4-.075.55-.2.575-.4l-2.75-.15v5.375H484.7v2.2h3.125a26.777,26.777,0,0,1-3.675,9.1,11.589,11.589,0,0,1,1.125,2.05,24.5,24.5,0,0,0,2.75-6.15V2.2H490.2V-9.425c.675,1.2,1.4,2.575,1.75,3.375.575-.775.925-1.25,1.25-1.725-.425-.675-2.3-3.525-3-4.45v-1.4Zm4.9,8.525a17.616,17.616,0,0,0-2.575-3.2L493.65-7.25a19.1,19.1,0,0,1,2.475,3.35Zm-4.625,6.45A.536.536,0,0,0,493.5.875c1.3-.775,3.3-2,5.175-3.225l-.525-1.725c-2.275,1.2-4.6,2.45-6.15,3.175ZM515.5-11.875c1.475-1.725,2.225-2.55,3.075-2.55.975,0,1.675,1,3.55,3.325a96.5,96.5,0,0,0,8.85,9.65L532.9-3.675A118.484,118.484,0,0,1,523.35-13.8c-1.975-2.4-3.075-3.3-4.725-3.3-1.3,0-2.325.525-4.05,2.35-1.25,1.35-3.925,4.175-5.2,5.375l2.1,2.525a.96.96,0,0,0,.325-.8ZM9.175,41V22.175H6.725L2.475,24.45l.65,2.125L6.3,24.825h.05V41ZM21,41.275c3.875,0,6.175-3.475,6.175-9.85,0-5.7-2-9.55-5.975-9.55-3.9,0-6.225,3.6-6.225,9.75C14.975,37.4,17.075,41.275,21,41.275Zm.05-2.325c-2,0-3.15-2.75-3.15-7.425,0-4.7,1.3-7.35,3.2-7.35,2.2,0,3.15,2.875,3.15,7.35C24.25,35.425,23.5,38.95,21.05,38.95Zm9.2-1.55a40.96,40.96,0,0,1-1.775,7.1l2-.2A35.8,35.8,0,0,0,33.4,37.125Zm10.975,3.875c3.875,0,6.175-3.475,6.175-9.85,0-5.7-2-9.55-5.975-9.55-3.9,0-6.225,3.6-6.225,9.75C35.2,37.4,37.3,41.275,41.225,41.275Zm.05-2.325c-2,0-3.15-2.75-3.15-7.425,0-4.7,1.3-7.35,3.2-7.35,2.2,0,3.15,2.875,3.15,7.35C44.475,35.425,43.725,38.95,41.275,38.95Zm14,2.325c3.875,0,6.175-3.475,6.175-9.85,0-5.7-2-9.55-5.975-9.55-3.9,0-6.225,3.6-6.225,9.75C49.25,37.4,51.35,41.275,55.275,41.275Zm.05-2.325c-2,0-3.15-2.75-3.15-7.425,0-4.7,1.3-7.35,3.2-7.35,2.2,0,3.15,2.875,3.15,7.35C58.525,35.425,57.775,38.95,55.325,38.95Zm14,2.325c3.875,0,6.175-3.475,6.175-9.85,0-5.7-2-9.55-5.975-9.55-3.9,0-6.225,3.6-6.225,9.75C63.3,37.4,65.4,41.275,69.325,41.275Zm.05-2.325c-2,0-3.15-2.75-3.15-7.425,0-4.7,1.3-7.35,3.2-7.35,2.2,0,3.15,2.875,3.15,7.35C72.575,35.425,71.825,38.95,69.375,38.95ZM94.95,22.05a2.75,2.75,0,1,0,2.75-2.775A2.742,2.742,0,0,0,94.95,22.05Zm2.75,1.875a1.875,1.875,0,1,1,1.875-1.875A1.889,1.889,0,0,1,97.7,23.925Zm.625,4.25V25.8h-8.15V21.45a.662.662,0,0,0,.675-.55l-3.2-.15V25.8H79.475v2.375H87.65V39.15c0,.95-.525.95-2.05.95-.725,0-1.65-.025-2.4-.05a12.621,12.621,0,0,1,.7,2.3c3.725.05,6.275.075,6.275-3.25V28.175Zm-5.7,3.7A42.645,42.645,0,0,1,97.45,39.2l2.25-1.3a47.18,47.18,0,0,0-5.05-7.075ZM82.5,31.025a17.072,17.072,0,0,1-4.325,6.85l2.075,1.3a21.2,21.2,0,0,0,4.525-7.3Zm38.75-10.4c-3.925,4.475-11.4,9.725-18.075,12.75a11.075,11.075,0,0,1,1.5,1.925,74,74,0,0,0,8.875-5.125V42.45h2.625V29.25a.683.683,0,0,0,.6-.425c-.15-.05-.45-.175-.675-.275a61.811,61.811,0,0,0,6.9-5.825.938.938,0,0,0,.25.025.748.748,0,0,0,.55-.225Zm8.075,3.875a34.239,34.239,0,0,1,7.25,3.45l1.3-2.25a30.877,30.877,0,0,0-7.375-3.325Zm2.5,17.575a.8.8,0,0,0,.4-.6C140.6,38.6,146.65,33.25,149.75,26.425a16.663,16.663,0,0,1-2.3-1.45c-2.95,6.9-8.8,11.85-17.425,14.5ZM172.35,31.8a87.635,87.635,0,0,0-9.175-4.05l-.5.7V21.3c.475-.1.7-.3.725-.575l-3.35-.2V42.4h2.625V30.3a74.217,74.217,0,0,1,8.275,3.925Zm26.2-3.25c-1.925.75-4.4,1.675-6.425,2.575-.35-1.975-1.525-3.075-3.075-3.075a6.237,6.237,0,0,0-3.725,1.4H185.3a14.344,14.344,0,0,0,1.5-3.55,38.26,38.26,0,0,0,9.15-1.275l-.425-2.375a30.706,30.706,0,0,1-8.075,1.425c.225-.825.425-1.65.6-2.55.325-.05.55-.2.6-.45l-3.15-.35c-.175,1.325-.375,2.375-.6,3.45l-1.525.025c-1.05,0-2.825-.025-4.3-.075v2.25C180.325,26,182.1,26,183.1,26l1.15-.025a17.224,17.224,0,0,1-2.75,5.4,29.133,29.133,0,0,1-3.3,3.25l1.725,1.7c1.1-1.025,2.05-2,2.7-2.725,2.125-2.4,3.95-3.35,5.7-3.35.875,0,1.375.725,1.5,1.85-3.625,1.85-6.375,4.05-6.375,6.15,0,2.85,2.275,3.95,7.075,3.95,2.725,0,4.9-.05,6.3-.2l-.025-2.325a55.6,55.6,0,0,1-6.25.3c-3.125,0-4.675-.6-4.675-1.85,0-1.225,1.85-2.675,4.2-3.85a25.723,25.723,0,0,1-.1,3.325l2.525-.175q.075-1.238.075-2.25,0-1.05-.075-1.875c1.975-.8,4.575-1.7,6.45-2.275a.843.843,0,0,0,.425.125.317.317,0,0,0,.15-.025Zm7.275,14.675h2.325V26.775c.375-.025.55-.175.6-.375l-.85-.225a47.627,47.627,0,0,0,2.275-5.025.652.652,0,0,0,.65-.275l-2.75-.95a31.17,31.17,0,0,1-6.275,11,17.5,17.5,0,0,1,1.225,2.35,28.828,28.828,0,0,0,2.8-3.625ZM222.45,25.35v-4.7c.425-.05.55-.175.575-.4l-2.975-.175V25.35H209.975V27.7H220.05V40.225c0,.725-.175.725-2.15.725-.825,0-1.85-.025-2.925-.075a10.223,10.223,0,0,1,.85,2.4,17.778,17.778,0,0,0,5.25-.425c1-.375,1.375-1.05,1.375-2.625V27.7h3.2V25.35ZM217,36a27.9,27.9,0,0,0-3.675-6.075l-2.05,1a26.554,26.554,0,0,1,3.5,6.225Zm28.7-1.7c.15-1.325.3-2.825.45-4.575a4.186,4.186,0,0,0,.15-.675l-1.4-.275-.55.05h-10c.225-1.075.475-2.2.7-3.325H247.6V23.225H235.5c.2-.975.375-1.925.525-2.8.4-.025.575-.15.625-.375l-3-.3c-.625,3.9-1.725,9.15-2.575,12.275l2.475.225c.1-.375.2-.8.3-1.225h9.8c-.125,1.225-.225,2.3-.35,3.275H227.6v2.275h15.375c-.4,2.325-.85,3.55-1.4,4.025a1.754,1.754,0,0,1-1.3.325c-.725,0-2.525,0-4.375-.175a5.17,5.17,0,0,1,.85,2.35c1.1.075,2.2.125,3.075.125,3.55,0,4.675-.6,5.575-6.65h4.9V34.3Zm27.875-10.725a39.592,39.592,0,0,1-8,1.4,39.55,39.55,0,0,1-.55-4c.425-.075.65-.3.675-.6l-3.5-.075c.25,1.775.5,3.475.8,4.85-.9.075-2.075.125-3.125.125-2.625,0-4.6-.05-6.05-.1V27.55c1.65.05,4.5.075,6.025.075,1.375,0,2.675-.05,3.725-.125a12.864,12.864,0,0,0,1.925,4.475,20.124,20.124,0,0,0-2.65-.3l.55,2.025c2.95,0,4.425.775,5.5,1.725l1.75-2.125c-2.45-1.1-3.55-2.9-4.5-6a46.526,46.526,0,0,0,7.9-1.225ZM269.65,39.75c-1.275.075-2.675.125-4.75.125-3.75,0-6.575-.75-6.575-2.9a3.668,3.668,0,0,1,1.55-2.7L258,32.85a5.976,5.976,0,0,0-2.2,4.225c0,3.2,3.375,5.175,9.025,5.175,2.025,0,3.4,0,4.625-.025Zm25.3-10.875c1.975-.275,3.85-.525,5.25-.675l-.2-2.4c-1.375.2-3.225.5-5.1.775-.05-1.75-.1-3.725-.175-5.325.375-.125.55-.25.55-.5l-3.15-.15c.15,1.9.25,4.3.325,6.4l-7.225,1.225c0-1.775,0-3.725.025-5.075.45-.1.65-.25.7-.55l-3.3-.275c0,1.775.05,4.15.075,6.325-1.725.3-3.775.65-5,.825l.375,2.35c1.125-.25,3.15-.625,4.65-.925.05,2.2.1,4.25.2,5.55.475,5.475,4.1,5.6,8.025,5.6a58.6,58.6,0,0,0,6.375-.3l-.05-2.35a44.339,44.339,0,0,1-6.65.45c-.5,0-.95,0-1.325-.025-4.1-.15-4.1-1.75-4.1-9.35,2.025-.375,4.675-.8,7.275-1.225a26.049,26.049,0,0,1-.175,4.175,1.3,1.3,0,0,1-1.275,1.05,7.332,7.332,0,0,1-2.95-.9,11.742,11.742,0,0,1-.325,2.05,9.032,9.032,0,0,0,3.775,1.025c3.4,0,3.4-3.275,3.4-6.85Zm8.75-2.9a.958.958,0,0,0,.6-.4c2.725-.275,9.45-.85,12.2-1-4.125,2.725-7.25,6.85-7.25,10.125,0,4.375,2.7,7.225,9.825,8.15l1.2-2.475c-5.825-.7-8.3-2.55-8.3-5.7,0-3.025,3.5-6.75,6.725-8.8A7.585,7.585,0,0,1,324,24.5l-.025-2.65c-3.75.1-15.45.875-18,1.075-.7.05-1.775.075-2.525.075ZM328.925,22.6a58.248,58.248,0,0,0-.4,6.875c0,1.1.025,2.15.1,3.1.275,4.375,2.3,8.75,5.825,8.75,1.95,0,3.55-1.65,4.975-6.1a12.12,12.12,0,0,1-2.05-1.525c-.7,2.4-1.875,4.925-2.8,4.95-1.275,0-3.5-1.475-3.5-8.275a40.379,40.379,0,0,1,.55-6.7.7.7,0,0,0,.675-.425Zm21.2,11.675A13.834,13.834,0,0,0,343,24.05l-1.575,1.875a12.166,12.166,0,0,1,6.1,9.175Zm17.15-10.85a26.224,26.224,0,0,1-6.35,1.325c.225-1.3.425-2.65.575-3.65a.829.829,0,0,0,.725-.55l-3.375-.325c-.15,1.5-.35,3.25-.55,4.75-.5.025-.975.025-1.425.025-1.2,0-2.5,0-3.3-.05l.025,2.375c.875.025,2.025.025,3.225.025.35,0,.75,0,1.125-.025a52.525,52.525,0,0,1-4.4,14.3l2.55.9A70.669,70.669,0,0,0,360.525,27.2a31.762,31.762,0,0,0,7.25-1.325Zm-1.9,8.475a28.691,28.691,0,0,1,8.45-1V28.525a30.835,30.835,0,0,0-9,1.25Zm9.075,7.725a28.987,28.987,0,0,1-2.975.125c-3.8,0-5.675-.325-5.675-2.075a3.948,3.948,0,0,1,1.225-2.475l-2.1-.825a5.887,5.887,0,0,0-1.575,3.675,3.6,3.6,0,0,0,3.025,3.6,25.849,25.849,0,0,0,5.65.525c.825,0,1.625-.025,2.375-.075Zm22.025-19.1a16.928,16.928,0,0,1,3.25,3.325l1.15-1.025a15.424,15.424,0,0,0-3.325-3.3Zm-4.2,2.9a26.224,26.224,0,0,1-6.35,1.325c.225-1.3.425-2.65.575-3.65a.829.829,0,0,0,.725-.55l-3.375-.325c-.15,1.5-.35,3.25-.55,4.75-.5.025-.975.025-1.425.025-1.2,0-2.5,0-3.3-.05l.025,2.375c.875.025,2.025.025,3.225.025.35,0,.75,0,1.125-.025a52.525,52.525,0,0,1-4.4,14.3l2.55.9A70.669,70.669,0,0,0,385.525,27.2a31.762,31.762,0,0,0,7.25-1.325Zm.875-1.325a17.634,17.634,0,0,1,3.225,3.325l1.175-1a18.191,18.191,0,0,0-3.325-3.325Zm-2.775,9.8a28.691,28.691,0,0,1,8.45-1V28.525a30.835,30.835,0,0,0-9,1.25Zm9.025,7.65a27.7,27.7,0,0,1-3.3.175c-3.425,0-5.3-.275-5.3-2.05a3.948,3.948,0,0,1,1.225-2.475l-2.1-.825a5.887,5.887,0,0,0-1.575,3.675c-.05,3.875,4.55,4.1,8.15,4.1,1,0,2-.05,2.95-.125ZM423.425,27.1a35.438,35.438,0,0,1-7.6,1.625,29.319,29.319,0,0,1-.775-2.85,31.941,31.941,0,0,0,6.575-1.275l-.525-2.15a27.666,27.666,0,0,1-6.5,1.35c-.175-.925-.3-1.975-.4-2.9.425-.1.675-.3.675-.575l-3.325-.075c.175,1.3.4,2.65.625,3.75-.95.075-2.4.075-3.6.075-.95,0-2.05-.025-3.1-.075v2.15c.7.025,1.5.05,2.325.05,2.575,0,3.975-.05,4.775-.125.225.95.6,2.15.825,2.85-1.5.1-3.325.15-4.7.15-1.425,0-3.375,0-4.8-.05l.025,2.1c1.575.05,3.5.05,4.85.05,1.55,0,3.55-.075,5.35-.2a9.537,9.537,0,0,0,1.65,2.35,15.452,15.452,0,0,0-1.625-.075c-.325,0-.625,0-.9.025l.55,1.875a9.371,9.371,0,0,1,1.2-.075,7.051,7.051,0,0,1,4.175,1.1l1.35-1.975a8.852,8.852,0,0,1-3.875-3.5,36.157,36.157,0,0,0,7.25-1.425ZM414.75,42.35c2.075,0,3.575-.075,4.7-.15l.1-2.3c-1.65.15-3.975.25-5.8.25-2.8-.025-4.725-.675-4.7-2.175a3.131,3.131,0,0,1,1.925-2.35l-1.625-1.55c-1.45.85-2.825,2.375-2.825,4,0,2.85,3.1,4.225,7.25,4.275ZM429.3,25.725c1.55.05,3.95.075,5.6.075.95,0,2.025-.025,2.95-.05.05,1.325.075,2.7.125,4.075-.7.025-1.45.025-2.075.025-2-.025-2.975-.125-2.975-.725,0-.275.15-.725,1.625-1.45l-1.7-.975c-1.7,1.075-2.45,1.95-2.45,2.925,0,1.75,1.725,2.275,6.1,2.275.5,0,1.025,0,1.55-.025.05,1.125.075,2.175.1,3.075a10.257,10.257,0,0,0-2.275-.2c-2.9,0-5.6,1.4-5.6,3.875,0,2.35,2.275,3.85,5.55,3.85,3.25,0,4.825-1.4,4.85-3.625V37.9a23.672,23.672,0,0,1,5.45,3.475l1.5-2.15a25.719,25.719,0,0,0-7.05-3.725c-.05-.95-.1-2.25-.15-3.7a43.756,43.756,0,0,0,6.85-.8l-.25-2.2a42.847,42.847,0,0,1-6.65.9l-.075-4.025a54.005,54.005,0,0,0,8.2-.825l-.275-2.3a52.249,52.249,0,0,1-7.9.9c-.025-.775-.025-1.8-.025-2.5.425-.075.625-.225.65-.5l-3.225-.175c0,.825.025,2.125.05,3.275-.9.025-1.925.05-2.875.05-1.825,0-4.05,0-5.6-.1Zm8.95,12.5c0,1.475-.675,2.225-2.4,2.225-1.9,0-3.35-.625-3.35-1.875,0-1.225,1.525-1.925,3.225-1.925a9.367,9.367,0,0,1,2.525.375ZM453.175,26.35c2.75-.15,6.85-.25,10.975-.375.025.875.05,1.875.075,2.35,0,.075.025.175.025.275a3.532,3.532,0,0,0-1.975-.55A4.732,4.732,0,0,0,457.6,32.8a4.376,4.376,0,0,0,4.325,4.475,2.526,2.526,0,0,0,1.95-.875h.025c-.75,1.925-2.8,3.6-6.025,4.75A16.71,16.71,0,0,1,459.7,43.1c4-1.525,7.525-4.525,7.525-9.65a9.25,9.25,0,0,0-.35-2.75c-.025-.8-.05-1.45-.1-2.325-.025-.625-.025-1.525-.05-2.45,3.075-.1,6.05-.125,7.975-.1v-2.35c-1.6.025-4.85.1-8.025.2-.025-1.1-.05-2.3-.05-2.95.45-.075.675-.325.7-.55l-3.4-.15c.05.675.15,3.35.15,3.7-1.725.075-9.4.275-10.975.325Zm9.075,8.95a2.4,2.4,0,0,1-2.375-2.5,2.552,2.552,0,0,1,2.55-2.75c1.45,0,2.2.9,2.2,2.7A2.37,2.37,0,0,1,462.25,35.3Zm16.475.9a3.5,3.5,0,1,0,3.5,3.5A3.51,3.51,0,0,0,478.725,36.2Zm0,5.975a2.463,2.463,0,1,1,2.45-2.475A2.465,2.465,0,0,1,478.725,42.175Z" transform="translate(300 8121)"/><g transform="translate(301.25 8167.692)"><line x2="168.657" transform="translate(0)" fill="none" stroke="red" stroke-width="1"/><line x2="168.657" transform="translate(0 3.521)" fill="none" stroke="red" stroke-width="1"/></g><g transform="translate(329.676 8279.891)"><path d="M537.589,1210.156a31.446,31.446,0,1,0-31.441,31.431A31.455,31.455,0,0,0,537.589,1210.156Z" transform="translate(-442.676 -1178.715)" fill="#b4a28f"/><path d="M486.817,1270.869l10.094-10.094-7.922-57.612,7.922-7.923-10.094-10.094-10.094,10.094,7.913,7.923-7.913,57.612Z" transform="translate(-423.349 -1117.37)" fill="#b4a28f"/><path d="M555.38,1185.821h-1.1l2.971,2.992-6.016,6.016-4.931,4.931,7.344,53.42.579,4.195-2.992,2.992-10.084,10.1-6.027,6.018-6.037-6.018-10.084-10.1-3-2.992.59-4.195,7.334-53.42-4.921-4.931-6.027-6.016,2.971-2.992h-1.085a43.271,43.271,0,0,0-43.21,43.22v59h19.313V1226.7h8.524v61.342h70.447V1226.7h8.524v61.342h20.1v-59A43.267,43.267,0,0,0,555.38,1185.821Z" transform="translate(-471.657 -1110.937)" fill="#b4a28f"/></g><g data-type="innerShadowGroup"><path d="M0,139.411l85.229-10.165C116.321,143.85,159.971,153,208.471,153c94.135,0,170.428-34.261,170.428-76.49C378.9,34.242,302.605,0,208.471,0,114.356,0,38.053,34.242,38.053,76.513c0,13.778,8.275,26.692,22.507,37.864Z" transform="translate(469.907 8239.896)" fill="#fff"/><g transform="matrix(1, 0, 0, 1, 300.98, 8099.35)" filter="url(#a)"><path d="M0,139.411l85.229-10.165C116.321,143.85,159.971,153,208.471,153c94.135,0,170.428-34.261,170.428-76.49C378.9,34.242,302.605,0,208.471,0,114.356,0,38.053,34.242,38.053,76.513c0,13.778,8.275,26.692,22.507,37.864Z" transform="translate(168.93 140.55)" fill="#fff"/></g></g><path d="M13.53-14.28c1.74-1.41,6.12-4.38,9.96-4.89l-.27-3.09a42.7,42.7,0,0,1-5.52.69c-2.7.18-8.88.3-11.73.24.06.69.06,2.16.06,2.91a89.23,89.23,0,0,0,9.51-.33v.03a34.3,34.3,0,0,0-4.53,3.06ZM24.87-3.36a49.242,49.242,0,0,1-9.24.84,25.756,25.756,0,0,1-4.59-.33C8.7-3.36,7.65-4.83,7.65-6.45a7.14,7.14,0,0,1,2.43-4.71l-2.55-1.2A9.567,9.567,0,0,0,4.62-6c0,2.67,1.59,5.1,5.34,5.94a33.5,33.5,0,0,0,6.03.39A60.753,60.753,0,0,0,25.11-.3Zm9.54,4.65c.51-1.59,1.11-3.3,1.5-4.41.81-2.28,3.99-6.84,7.08-6.84,1.08,0,1.65.87,1.65,2.55v.39c-.06,1.05-.09,2.28-.09,3.45,0,3.09,2.13,5.01,5.52,5.01,4.2,0,7.05-3.57,8.82-9.33A21.966,21.966,0,0,1,56.1-9.54c-1.35,5.04-3.42,7.89-5.91,7.89-1.56,0-2.49-.96-2.49-2.88,0-.48.12-3.36.12-3.84,0-2.73-1.35-4.44-3.87-4.44a8.976,8.976,0,0,0-6,3.06h-.03c1.11-2.97,3.57-9.57,5.01-13.02.66-.03,1.08-.24,1.23-.66L39.9-24.45c-.21.84-1.05,3.45-1.68,5.13-1.05,2.97-4.8,13.8-6.84,19.68ZM78.3-11.25c0,1.17.09,2.88.21,4.56a12.474,12.474,0,0,0-2.85-.39c-2.88,0-5.94,1.62-5.97,4.65s2.64,4.59,5.91,4.62c5.19,0,5.85-3.3,5.85-4.95A27.942,27.942,0,0,1,86.13.09l1.44-2.76a34.562,34.562,0,0,0-6.12-3.24c-.15-1.89-.27-3.57-.3-5.67Zm.39,8.34c0,1.86-1.35,2.61-3.03,2.61-2.01,0-3.39-.75-3.39-2.13,0-1.5,1.71-2.19,3.33-2.19a8.535,8.535,0,0,1,3.09.6ZM69.21-24.93c-.18,1.65-.42,3.33-.72,4.8-.78.03-1.71.03-2.64.03H62.4v2.73h3.51c.66,0,1.44,0,2.07-.03A39.025,39.025,0,0,1,62.19-3.99l2.94,1.08a48.209,48.209,0,0,0,6.03-14.55,60.861,60.861,0,0,0,9.03-1.35l-.39-2.85a36.951,36.951,0,0,1-8.1,1.41c.24-1.02.54-2.52.72-3.69a.966.966,0,0,0,.9-.6Zm17.91,7.92a45.515,45.515,0,0,0-10.8,1.53l.45,2.61a47.469,47.469,0,0,1,10.5-1.32Zm7.41-6.72A94.332,94.332,0,0,0,93.06-9.15,33.382,33.382,0,0,0,94.41,1.38L97.38.9a3.81,3.81,0,0,1-.15-1.02,4.964,4.964,0,0,1,.24-1.41c.42-1.38,1.41-3.06,2.52-5.61L98.46-9.21c-.39,1.02-1.62,3.84-2.1,5.01a33.817,33.817,0,0,1-.27-5.07,72.8,72.8,0,0,1,1.56-13.32c.6-.03.9-.21.96-.54Zm8.91,6.78a104.327,104.327,0,0,0,13.08-1.08l-.3-2.94a100.912,100.912,0,0,1-12.87,1.14Zm13.8,12.99a36.956,36.956,0,0,1-4.11.21c-3.45,0-7.2-.18-7.2-2.97,0-1.59.96-3.03,2.4-4.47l-2.82-1.02c-1.62,1.98-2.7,3.78-2.7,5.88,0,2.49,1.71,4.62,5.64,5.16a40.085,40.085,0,0,0,5.43.3c1.11,0,2.22-.03,3.27-.09Zm5.49-14.07a1.15,1.15,0,0,0,.72-.48c3.27-.33,11.13-.93,14.64-1.2-4.95,3.27-8.7,8.22-8.7,12.15,0,5.25,3.24,8.67,11.79,9.78l1.44-2.97c-6.99-.84-9.96-3.06-9.96-6.84,0-3.63,4.2-8.1,8.07-10.56a9.1,9.1,0,0,1,6.36-1.65l-.03-3.18c-4.5.12-18.54,1.05-21.6,1.29-.84.06-2.13.09-3.03.09Zm21.51,1.47a21.471,21.471,0,0,1,3.75,4.11l1.44-1.17a18.1,18.1,0,0,0-3.84-4.08Zm-3.39,2.67a20.886,20.886,0,0,1,3.72,4.11l1.47-1.14a19.747,19.747,0,0,0-3.84-4.11Zm35.55-2.79a42.526,42.526,0,0,1-9.12,1.95,35.179,35.179,0,0,1-.93-3.42,38.328,38.328,0,0,0,7.89-1.53l-.63-2.58a33.2,33.2,0,0,1-7.8,1.62c-.21-1.11-.36-2.37-.48-3.48.51-.12.81-.36.81-.69l-3.99-.09c.21,1.56.48,3.18.75,4.5-1.14.09-2.88.09-4.32.09-1.14,0-2.46-.03-3.72-.09v2.58c.84.03,1.8.06,2.79.06,3.09,0,4.77-.06,5.73-.15.27,1.14.72,2.58.99,3.42-1.8.12-3.99.18-5.64.18-1.71,0-4.05,0-5.76-.06l.03,2.52c1.89.06,4.2.06,5.82.06,1.86,0,4.26-.09,6.42-.24a11.445,11.445,0,0,0,1.98,2.82,18.542,18.542,0,0,0-1.95-.09c-.39,0-.75,0-1.08.03l.66,2.25a11.246,11.246,0,0,1,1.44-.09,8.461,8.461,0,0,1,5.01,1.32l1.62-2.37a10.623,10.623,0,0,1-4.65-4.2,43.388,43.388,0,0,0,8.7-1.71ZM165.99,1.62c2.49,0,4.29-.09,5.64-.18l.12-2.76c-1.98.18-4.77.3-6.96.3-3.36-.03-5.67-.81-5.64-2.61.03-.96.84-2.04,2.31-2.82l-1.95-1.86c-1.74,1.02-3.39,2.85-3.39,4.8,0,3.42,3.72,5.07,8.7,5.13Zm26.07-14.25c2.43-2.19,7.65-7.02,9.48-8.43a1.769,1.769,0,0,0,.84-.33l-2.07-2.52-.45.24c-2.07.33-10.17.63-14.13.63l.3,3.45a.948.948,0,0,0,.66-.48c2.88-.12,8.49-.39,10.08-.6-4.05,3.75-12.12,11.43-14.49,13.89l2.13,2.1c.78-.87,1.98-2.1,2.76-2.85a16.076,16.076,0,0,1,10.44-3.84c3.39,0,5.64,1.86,5.64,4.77a4.985,4.985,0,0,1-3.3,4.74,6.137,6.137,0,0,0-6.06-5.04c-2.79,0-5.13,1.89-5.13,4.2,0,2.85,2.7,4.53,6.6,4.53,6.27,0,11.01-3.06,11.01-8.49,0-4.56-3.09-7.32-7.74-7.32a16.961,16.961,0,0,0-6.57,1.38Zm-.84,9.93c0-1.11,1.14-1.8,2.4-1.8a3.792,3.792,0,0,1,3.54,3.48,13.6,13.6,0,0,1-2.25.24C193.29-.78,191.22-1.17,191.22-2.7Zm32.7-17.1c.42-.03.81-.06,1.23-.06,6.27,0,9.51,3.84,9.51,8.73,0,5.19-3.12,8.49-9.99,9.84a19.753,19.753,0,0,1,1.89,2.55c7.41-1.83,11.28-5.37,11.28-12.48,0-6.18-4.05-11.43-12.66-11.43A13.217,13.217,0,0,0,211.56-9.39c0,4.92,2.34,7.59,5.25,7.59,5.04,0,8.1-6.99,9.27-16.83a.8.8,0,0,0,.81-.48ZM216.9-4.77c-1.38,0-2.43-1.86-2.43-4.71a10.248,10.248,0,0,1,8.58-10.14C222.42-12,220.14-4.77,216.9-4.77Zm39.18-2.28.6-15.93h-3.96l.6,15.93ZM254.64.36a2.421,2.421,0,0,0,2.4-2.46,2.414,2.414,0,0,0-2.4-2.43,2.388,2.388,0,0,0-2.37,2.43A2.4,2.4,0,0,0,254.64.36ZM277.2-8.1a6.543,6.543,0,0,1,1.74-4.29c1.44-1.8,2.85-3.54,2.85-5.94,0-2.58-1.74-5.04-5.73-5.04a8.772,8.772,0,0,0-4.71,1.29l.81,2.52a5.828,5.828,0,0,1,3.15-.96c1.92,0,2.91,1.08,2.91,2.7,0,1.47-.81,2.73-2.16,4.44a8.37,8.37,0,0,0-1.98,5.19c0,.24.06,1.14.09,1.44h3.09ZM275.64.33a2.166,2.166,0,0,0,2.22-2.31,2.2,2.2,0,0,0-2.22-2.37,2.217,2.217,0,0,0-2.22,2.37A2.165,2.165,0,0,0,275.64.33Z" transform="translate(535 8327.752)" fill="#0b7ac0"/></g></svg>