<?xml version="1.0" encoding="utf-8"?>
<!-- Generator: Adobe Illustrator 25.4.1, SVG Export Plug-In . SVG Version: 6.00 Build 0)  -->
<svg version="1.1" id="レイヤー_1" xmlns="http://www.w3.org/2000/svg" xmlns:xlink="http://www.w3.org/1999/xlink" x="0px"
	 y="0px" viewBox="0 0 1287 901.1" style="enable-background:new 0 0 1287 901.1;" xml:space="preserve">
<style type="text/css">
	.st0{fill:none;}
	.st1{fill:none;stroke:#B4A28F;stroke-width:5;}
	.st2{fill:none;stroke:#1A62A3;stroke-width:5;}
	.st3{fill:#B4A28F;}
	.st4{fill:#FCFCFC;}
	.st5{fill:#FFFFFF;}
	.st6{fill:#3B3938;}
	.st7{fill:#DDDDDD;}
	.st8{fill:#343434;}
	.st9{fill:#1A62A3;}
	.st10{fill:#D1E0ED;}
	.st11{fill:#24201D;}
	.st12{font-family:'KozGoPro-Medium-83pv-RKSJ-H';}
	.st13{font-size:21px;}
	.st14{fill:#FCFCFC;stroke:#B4A28F;stroke-width:2.5;}
</style>
<g transform="translate(-317 -2226.925)">
	<g transform="translate(612 2353.991)">
		<rect y="0" class="st0" width="710.7" height="83"/>
		<rect x="2.5" y="2.5" class="st1" width="705.7" height="78"/>
	</g>
	<g transform="translate(317 2725.769)">
		<rect y="0" class="st0" width="1287" height="350"/>
		<rect x="2.5" y="2.5" class="st2" width="1282" height="345"/>
	</g>
	<path class="st3" d="M593.4,2307.4h-21.2v4h8.2v26.6h4.6v-26.6h8.3V2307.4z M610.8,2324.4c1.2-8.1-8.9-11.4-15.4-7.1l1,3.1
		c4.1-2.8,10.7-1.7,9.8,3.4c-19.5-1.4-12.8,23.2,0.3,11.6h0.1l0.3,2.6h4.2C610.6,2334.6,610.9,2327.9,610.8,2324.4z M606.3,2330.6
		c-3.6,12.4-15.8-3.9,0-3.6V2330.6z M628.7,2316.8c-9.3-5.5-19.6,6.9-7.2,11.6c8.6,3.9,0.1,9.2-5.2,5.1l-1,3.4
		c9.8,6.2,21.6-6.5,8.7-12c-8.1-3-1.1-8.6,3.7-4.9L628.7,2316.8z M643.6,2325l7.8-9.1h-5.5c-1.4,1.9-6.1,8-7.2,9.9h-0.1v-20H634
		v32.1h4.6v-7.9l1.8-2.2l6.3,10.1h5.6L643.6,2325z"/>
	<g transform="translate(889 2256)">
		<path class="st4" d="M15.2,75.2c18.4-68.7,121-43.1,105,26.2C101.7,170.1-0.9,144.5,15.2,75.2z"/>
		<path class="st5" d="M75,5.2c-1.9-2.3-6-3.9-11.5-3.7c0.4,1.5,0.6,3,0.4,4.6c0,0-12.9-1.6-16.2,2.6c0.8,1.1,2,1.3,2.9,2.3
			c-1.6,0.7-9.5,3.4-10.3,5.3c0.9,0.3,1.8,0.8,2.5,1.4c0,0-8.9,6-9.8,9.6c1.1-0.3,3-0.6,4.2,0c-1.8,1.4-7.1,11.7-7,14.9
			c1.1-0.5,2.4-0.6,3.6-0.4c-1.3,1.8-2.9,8.4-2.4,11c0.5-0.1,2.8-0.6,2.8-0.6s0.2,9.5,2,12.5c-1.9,5.9,0.7,13.7,6.7,16.1
			c0.7,2.9,3.2,13.7,5.9,16.9c0,1.8,0,9.4,0,9.4c-10,8.4-28.5,12.9-39.5,20.2C1.3,133.2,0.6,148,0.8,156H134
			c0.1-6.1,0-22.8-7.1-28.2c-10.2-6.1-25-12.4-34.7-16.8c-0.9-0.2-5.4-2.5-5.7-3.8s-0.3-9.9-0.3-9.9c1.9-2.4,5.6-12.9,6.1-16.9
			c6-2.2,8.3-10,6.9-16c0,0,1.5-4.6,1.8-6.1s0.3-6.6,0.3-6.6l2,0.7c0-2-1.2-12-1.9-14.1c1,0.4,2,0.6,3,0.8c0,0-2.6-10.6-3.1-11.5
			c-0.3-0.8,1.9-0.5,1.9-0.5c-1-2.1-6.1-11.5-9.7-13.3c1.1-0.4,2.2-0.8,3.4-1.1c-0.9-1.2-7.3-5.2-12.5-3.9c-0.7-2.1-3.2-7.9-6.6-8.1
			C78.5,1.4,75.2,5,75,5.2z"/>
		<g transform="translate(3.544 3.195)">
			<path class="st6" d="M50.1,62c2.6,0,2.6,4,0,3.9C47.5,66,47.5,61.9,50.1,62z"/>
			<path class="st6" d="M77.9,62c2.6,0,2.6,4,0,3.9C75.3,66,75.3,61.9,77.9,62z"/>
			<path class="st3" d="M20.7,120.1c5-2.2,20.1-8.5,20.1-8.5c1.3,12.1,4.2,32.1,7.2,41.2H0C0,136.9,3.1,125.5,20.7,120.1z"/>
			<path class="st3" d="M107.3,120.1c-5-2.2-20.1-8.5-20.1-8.5c-1.3,12.1-4.2,32.1-7.2,41.2h48C128,136.9,124.9,125.5,107.3,120.1z"
				/>
			<path class="st7" d="M60.8,119.2l6.8-0.5l1.6,5.1l-0.5,8.6c1.5,3,2.3,17.4,2.7,20.3h-12l2-19.9c0,0-1.1-3.1-1.5-3.6
				s-0.3-7.7-0.3-7.7L60.8,119.2z"/>
			<path class="st8" d="M95.4,33.6c1,0,2.1,0.1,3.1,0.3c0,0-2.5-9.4-3.9-11.2c0.7,0.1,1.4,0.1,2.1,0c0,0-5.7-9.6-10.1-11.5
				c0.8-1,1.7-1.9,2.6-2.7c-2.2-1.7-7.4-1.8-10.9-1.4c0.1-2.7-0.6-5.7-3.4-7.1c-0.3,1.7-1.7,3.6-2.9,4.9c-2.4-2.2-5.4-3.7-8.7-4.3
				c0.8,2,1.4,4,1.8,6.1C61.5,5,52.5,3.8,48.4,5.2c1.8,1,3.3,2.2,4.7,3.6c-3.4,0.9-6.6,2.3-9.6,4.1c0.9,0.1,1.6,0.5,2.3,1.1
				c-2.8,0.6-7.7,3.6-9.2,5.9c0.9,0.3,1.9,0.7,2.8,1.1c-3.9,4.7-8,9.6-9.8,15.6c0.9-0.1,1.7-0.1,2.6,0c-0.8,1.9-3.1,9.2-2.6,12.5
				h1.1c-0.1,1.5,0.6,11.1,2,12.8l3.5-1.3c-1.3-9.4,3.8-15.9,10-21.3l-0.2,4.7c2-1.1,11.5-8.2,13.4-10.1l-1.3,9.1
				c4.6-2.4,11.1-10.2,15.3-15c0.8,4.2,7.2,11.6,9.2,13.9l1-5.8c1,2.4,7,10.6,9.2,13.8c0,2.6-0.4,8.2-0.6,10.8l3.2,0.8
				C99.7,53.1,96.8,42.7,95.4,33.6z"/>
		</g>
		<g transform="translate(0 0)">
			<path class="st6" d="M53.6,69.9c-7.1-1.5,1.3-9.8,2.7-2.7C56.4,68.6,55.1,69.9,53.6,69.9z M53.6,65.9c-3.1,0.6,0.6,4.3,1.2,1.2
				l0,0C54.8,66.5,54.3,65.9,53.6,65.9z"/>
			<path class="st6" d="M49.3,65.6c-2.6-1.4,2.8-4.7,4.5-4.3c1.8-0.2,5.7,2.1,4.2,4c-0.4,0.2-0.8,0-1-0.4c-1.2-3-5.8-2.5-7,0.3
				C49.8,65.5,49.6,65.6,49.3,65.6z"/>
			<path class="st6" d="M81.4,69.9c-3.6,0.1-3.6-5.5,0-5.5C85,64.3,85,69.9,81.4,69.9z M81.4,65.9c-3.1,0.6,0.6,4.3,1.2,1.2l0,0
				C82.7,66.5,82.1,65.9,81.4,65.9z"/>
			<path class="st6" d="M85.8,65.6c-0.3,0-0.6-0.2-0.7-0.4c-1.2-2.8-5.8-3.3-7-0.3c-0.2,0.4-0.6,0.6-1,0.4c-1.5-1.9,2.4-4.2,4.3-4
				C83.1,60.9,88.4,64.2,85.8,65.6z"/>
			<path class="st6" d="M67.4,83.8c-1.3,0.1-4.8-1.3-3.5-2.9c1.3-0.4,2.1,1.8,3.6,1.3C68.8,82.1,68.6,84,67.4,83.8z"/>
			<path class="st6" d="M67.3,93.1c-3.3,0.8-12.8-3.3-7.9-3.6c7.4,6.1,21.4-3.2,18.4,1C74.6,92.2,71,93.1,67.3,93.1z"/>
			<path class="st6" d="M69.3,97.7c-1.4-0.2-5-0.3-4.7-2.2c1.4-0.9,3.4,1.2,5.1,0.7c1-0.1,1.1,1.4,0.1,1.5
				C69.7,97.7,69.5,97.7,69.3,97.7z"/>
			<path class="st6" d="M88.3,52.5c-3.7-3.2-9.2-3.5-13-0.9c-0.8,0.5-1.6-0.8-0.8-1.3c4.1-2.6,10.3-3.1,14.3,0.9
				C89.3,51.6,88.9,52.5,88.3,52.5L88.3,52.5z"/>
			<path class="st6" d="M46.4,52.7c-3.3-2.2,7.5-4.8,9.3-4.1c1.5,0,5.4,1.2,4.4,3.2C54.6,49.3,51.9,49.3,46.4,52.7z"/>
			<g transform="translate(34.668 62.826)">
				<path class="st6" d="M60.1,17.3c-2.8-0.5,3.8-3.8,3.9-9.8c0.7-4.2-0.9-7.4-3.8-5.2c-0.3,0.3-0.8,0.2-1.1-0.1
					c-0.7-2,2.9-2.7,4.3-1.8C68.7,3.2,63.6,17,60.1,17.3z"/>
				<path class="st6" d="M35.4,45.2c-0.9,0-1-1.4-0.1-1.5c14.7-3.8,20.9-14.7,22-30.7c0.1-0.9,1.6-0.8,1.5,0.1
					C57.6,29.7,50.8,41.5,35.4,45.2z"/>
				<path class="st6" d="M5.6,17.3c-5-0.4-9.7-22.1,0.8-16.2c0.8,0.6-0.3,1.8-1,1.2l0,0C2.5,0.1,1,3.3,1.7,7.5
					C1.8,13.5,8.4,16.7,5.6,17.3L5.6,17.3z"/>
				<path class="st6" d="M30.4,45.2C14.9,41.5,8.1,29.7,7,13.1c-0.1-1,1.4-1.2,1.5-0.1c1.1,16,7.3,27,22,30.7
					C31.4,43.8,31.3,45.2,30.4,45.2L30.4,45.2z"/>
			</g>
			<path class="st6" d="M41.4,53.5c-3.4,0,12.3-20.9,8.7-7.5c10.4-4.3,16.3-21.8,12.2-0.9c4.1-2.5,11.2-10.5,13.8-14.4
				c0.2-0.4,0.7-0.4,1.1-0.2c0.5,3.4-11.9,15.1-15.4,16.6c-2.5-0.3,0-6.5,0-8.4c-2.3,2.2-15.2,15.3-13,5.6
				C45.5,46.7,43.9,50.8,41.4,53.5z"/>
			<path class="st6" d="M95.6,51.6c-3-1.5-6.1-6.9-8.4-10.8c-0.4,1.5,1,6.2-1.3,5.4c-1.4-1.1-7.5-8.2-7.7-10.9
				c-0.1-1,1.5-1.1,1.5-0.1c0.1,1.5,3.7,6.3,5.9,8.6c0.1-2.8-0.4-7.2,1.9-5.6c1.9,3.8,5.9,10.2,8.5,12.1
				C96.6,50.6,96.3,51.6,95.6,51.6L95.6,51.6z"/>
			<path class="st6" d="M95.5,61.2c-1.7-0.4,0-2.5,0.5-3.4c-3.5,0.9-1-2.6,0.2-3.7c-0.9-0.1-2.1,1.2-2.7,0.2c-0.2-0.4-0.1-0.8,0.3-1
				c4.1-1.5,7-0.9,2.6,3c1-0.5,3.2,0.4,1.8,1.5C96.9,58,96.7,60.8,95.5,61.2z"/>
			<path class="st6" d="M39.5,61.5c-1.3-0.4-0.9-2.5-2.1-3.3c-1.1-1,0.6-1.8,1.5-1.3c-3.4-3.5-0.1-3.9,2.8-2.2
				c1.2,1.7-0.9,1.5-1.9,0.8c0.8,1,2.4,4-0.3,3.2C39.9,59.4,41,61.3,39.5,61.5z"/>
			<path class="st6" d="M75,6c-2.1-2.4-7.9-4.3-11-3.6c-0.4,0.1-0.8-0.2-0.9-0.6C63.2-1.4,78.9,3.2,75,6z"/>
			<path class="st6" d="M47.6,9.5c-0.7,0-1-1-0.5-1.4C51.9,4.5,63,4,66.8,6.4c0.8,0.5,0,1.8-0.8,1.3l0,0C62.3,5.4,52.1,6.3,47.6,9.5
				z"/>
			<path class="st6" d="M33,28c-2.8-1.5,6.4-9.4,8.3-10.5c-8-0.3,10.1-9.2,11.1-6.7c0.1,0.4-0.2,0.8-0.6,0.9
				c-3.6,0.8-7,2.2-10.1,4.3c1,0.1,3.3,1.5,1.6,2.3C40.3,18.8,35.6,25.3,33,28z"/>
			<path class="st6" d="M31.3,53.5c-2.5-2.5,0.9-10.6,1.2-11.1c-10.6,5.5,7.6-23.9,7-16.5l0,0c-2.8,2.3-7.9,10.8-8.7,15.3
				c1-0.2,4.2-1.2,3.7,0.7c-1.4,2.5-2.6,4.6-2.4,10.8C32.1,53.1,31.7,53.5,31.3,53.5z"/>
			<path class="st6" d="M83.4,7.6c-0.3,0-0.6-0.2-0.7-0.6c-1-3.7-3-4.8-5-5.5c-2.1-3.9,6.3,0.9,6.4,5.1C84.3,7.1,83.9,7.6,83.4,7.6
				L83.4,7.6z"/>
			<path class="st6" d="M97.1,13.1c-2.2-2.3-7.4-4.8-10.4-4.1c-1,0.2-1.2-1.4-0.2-1.5C88,6.5,100.4,10.3,97.1,13.1L97.1,13.1z"/>
			<path class="st6" d="M104.6,39.8c-0.4,0-0.7-0.3-0.8-0.7c-0.3-4-3.6-11.7-3.7-11.7c-0.3-1.3,1-1.1,2.1-1.1
				c-1.5-3.8-5.9-10-9-11.6c-0.4-0.2-0.5-0.7-0.3-1c2-2.7,15.8,15.9,9,14.2C102.4,29.4,107,38,104.6,39.8z"/>
			<path class="st6" d="M100.2,62.1c-0.5,0-0.9-0.6-0.7-1.1c0.7-1.7,0.9-7.1,0.8-9.4c0.1-1.3,1.6-0.5,2.2-0.2
				c0.7-1.7-3.8-16.6-0.5-13.2l0,0c-0.2,0.3,4.9,18.2-0.2,14.6C101.6,55.3,102.3,60.9,100.2,62.1z"/>
			<path class="st6" d="M35,62.3c-1.9,1.2-2.7-16,0.1-11.1l0,0C33.7,54,36.7,61.9,35,62.3z"/>
			<g transform="translate(0 99.892)">
				<g transform="translate(68.191)">
					<path class="st6" d="M18.3,8.5c-1.7-0.3-0.7-8.3-1.1-7.7c0-1,1.5-1,1.5,0c0,0,0.1,4.4,0.3,6.9C19.1,8.1,18.8,8.5,18.3,8.5z"/>
					<path class="st6" d="M0.8,18.3c-0.9,0-1-1.3-0.2-1.5c3.9-1,12.9-5.2,15.7-8.2c0.3-0.3,0.8-0.3,1.1,0
						C16.9,12.7,4.4,17.1,0.8,18.3z"/>
					<path class="st6" d="M8.6,34.3c-1.8-0.7-6.4-12-7.8-14.3c-0.4-0.9,1-1.6,1.4-0.7l0,0c2.5,5.1,5.3,10.8,6.4,12.9
						c2.5-3.6,10.6-18,11-20.1c0.1-1,1.8-0.7,1.5,0.3C20.3,15.2,10.8,33.3,8.6,34.3z"/>
					<path class="st6" d="M65.8,56.9c-0.4,0-0.8-0.3-0.8-0.8C64,22.5,59.5,30,36.4,17.9C29.8,15.1,15.4,9,21,8.6
						c6.1,4.9,34.4,14.5,39.5,19.9c2.9,2.7,6.3,9.6,6.2,27.6C66.6,56.5,66.2,56.9,65.8,56.9z"/>
					<path class="st6" d="M15.3,56.9c-0.5,0-0.9-0.6-0.7-1.1c3.8-7.5,5.5-34.2,8.1-43.3c0.4,0,0.8,0.4,0.7,0.8
						C22.3,23.5,19.9,50,15.3,56.9z"/>
					<path class="st6" d="M24.3,56.9c-0.6,0-1-0.7-0.6-1.2c2.4-3.2,6.9-13.9,7.9-16.3c-6.2-6.8-8.2-4.4,0-10.6
						c0.2-0.5-5.8-13.9-4-13.7c1.2-1.4,5.2,13.5,5.7,13.7c0.6,0.9-5,4.3-5.3,4.8c0.2,0.5,6,5.2,5.3,5.9C32.7,39.9,27.8,54,24.3,56.9
						z"/>
				</g>
				<path class="st6" d="M48.6,8.5c-1.6,0.2-0.1-8.3-0.5-7.7c2.3-3.1,1.3,3.9,1.2,7C49.3,8.2,49,8.5,48.6,8.5z"/>
				<path class="st6" d="M66.1,18.3c-3.4-1.1-16.5-5.8-16.6-9.7c0.3-0.3,0.8-0.3,1.1,0c2.8,2.9,11.8,7.2,15.7,8.2
					C67.1,17,67,18.3,66.1,18.3L66.1,18.3z"/>
				<path class="st6" d="M58.3,34.3c-1.2-0.2-14.4-21.5-12-22.8c0.4-0.1,0.9,0.2,0.9,0.6c0.4,2.2,8.5,16.5,11,20.1
					c0,1.5,7.3-17.7,7.8-12.2l0,0C64.7,22.4,60.1,33.6,58.3,34.3z"/>
				<path class="st6" d="M0.8,56.9c-0.4,0-0.8-0.3-0.8-0.8c-0.2-18.8,4-25.4,6.4-27.6c5.1-5.4,33.4-15,39.5-19.9
					c5.7,0.2-8.9,6.6-15.4,9.3C5.8,29.6,3.9,24.5,0.8,56.9z"/>
				<path class="st6" d="M51.5,56.9c-4.5-6.9-7-33.4-8.1-43.5c0-0.4,0.3-0.8,0.7-0.8c2.7,9,4.3,35.8,8.1,43.3
					C52.5,56.3,52.1,56.9,51.5,56.9L51.5,56.9z"/>
				<path class="st6" d="M42.6,56.9c-3.5-2.9-8.4-16.9-8.9-17.4c-0.7-0.7,5.1-5.4,5.3-5.9c-0.3-0.6-5.9-3.9-5.3-4.8
					c0,0,4.7-13.2,4.7-13.2c0.3-0.9,1.8-0.4,1.4,0.5c0,0-4.5,12.7-4.5,12.7c8.3,6.2,6.2,3.9,0,10.6c1,2.4,5.5,13.1,7.9,16.3
					C43.6,56.1,43.2,56.9,42.6,56.9L42.6,56.9z"/>
			</g>
			<path class="st6" d="M67.6,137.1c-5.3,1-5.5-5-5.5-7.4c0-0.4,0.3-0.8,0.8-0.8c0.4,0,0.8,0.3,0.8,0.8c0,2.6,0.6,5.2,1.1,5.5
				c1.6,0.7,5.7,0.4,7.3-0.2c0.9-0.3,1.5,1.1,0.5,1.4C70.9,136.9,69.3,137.1,67.6,137.1z"/>
			<path class="st6" d="M72.1,134.1c-1.7-0.6,0-3.4-0.6-4.9c-0.1-1,1.4-1.1,1.5-0.1l0,0C72.9,130.6,73.7,133.5,72.1,134.1z"/>
			<path class="st6" d="M68.9,122.8c-1-0.3-4.9,0.4-2.8-1.5C67.2,120.7,71.4,121.5,68.9,122.8z"/>
			<path class="st6" d="M61,156.8c-0.4,0-0.8-0.4-0.8-0.8c0.5-1.7,0.5-18.8,2.9-19.2c0.4,0.1,0.7,0.5,0.6,0.9
				c-0.7,2.8-1.9,15.4-1.9,18.3C61.7,156.4,61.4,156.8,61,156.8z"/>
			<path class="st6" d="M74.9,156.8c-0.4,0-0.8-0.3-0.8-0.7c-0.1-2.9-1.3-15.5-1.9-18.3c-0.1-0.4,0.2-0.8,0.6-0.9
				c2.4,0.6,2.4,17.4,2.9,19.2C75.7,156.4,75.4,156.8,74.9,156.8z"/>
		</g>
	</g>
	<g transform="translate(433.587 2797.721)">
		<path class="st5" d="M51.5,36.7c68.1-22.4,103.1,78.4,35.8,103.1C19.2,162.1-15.8,61.4,51.5,36.7z"/>
		<path class="st5" d="M101.2,64.2c1.4,6-0.9,13.9-7,16.2C93.8,84.1,90.3,94,88.1,96c0,0,0,10,0.3,11.3s4.8,3.6,5.7,3.8
			c9.9,4.4,24.7,10.8,35,16.9c7.1,5.3,7.3,22.4,7.2,28.4H2c-0.2-8.1,0.5-23,8.5-29c11.1-7.4,29.8-11.8,39.8-20.4c0,0,0-9,0-10.8
			c-3.2-2.4-5.2-13.5-5.9-15.7c-6.3-2.3-8.6-10.2-6.8-16.2c-4-2.4-1.5-14.1-1.6-15.1l-1.9,0.3c0,0,0.3-11.8,3-15.7
			c-1.5-0.2-3-0.4-3-0.4s4.5-16.2,10.4-19.9c-0.7-0.5-1.5-0.8-2.4-0.6c0,0,7.1-8.7,13.8-8.1c-0.3-0.8-0.8-2.4-0.8-2.4
			S64.5-1,69.7,2.2c4.2-1.9,12.3-1.5,14.7,0.3c-0.6,1.7-0.8,2.4-0.8,2.4s11.8,2.2,13.6,7.8c-0.6,0.4-2,1.2-2,1.2
			c4.3,4.7,8.8,11.1,10.2,19.7c-1.1,0.1-2.1,0.4-3,0.9c0,0,3.3,9.3,3,15c-0.6,0.1-1.1,0.2-1.7,0.2C103.5,50.2,106.2,62.4,101.2,64.2
			z"/>
		<g transform="translate(4.79 3.588)">
			<path class="st9" d="M20.9,119.9c5.1-2.2,20.2-8.6,20.2-8.6c1.3,12.2,4.2,32.3,7.3,41.5H0C0,136.8,3.1,125.3,20.9,119.9z"/>
			<path class="st9" d="M108.1,119.9c-5.1-2.2-20.2-8.6-20.2-8.6c-1.3,12.2-4.2,32.3-7.3,41.5H129
				C128.8,136.6,126,125.5,108.1,119.9z"/>
			<path class="st10" d="M61.2,119l6.9-0.5l1.6,5.2l-0.5,8.7c1.5,3,2.3,17.6,2.7,20.5H59.8l2-20.1c0,0-1.2-3.1-1.5-3.6
				s-0.3-7.8-0.3-7.8L61.2,119z"/>
			<path class="st6" d="M52.1,63.2c-0.2,2.3-3.8,2-3.6-0.3C48.7,60.6,52.4,60.9,52.1,63.2z"/>
			<path class="st6" d="M76.9,63.2c0.2,2.3,3.8,2,3.6-0.3C80.3,60.6,76.6,60.9,76.9,63.2z"/>
			<path class="st9" d="M97.8,42.1c-0.9-5.3-1.8-9.7-2.7-13.4c1.1,0,2.1,0.1,2.6,0.2c-1.5-8.6-8.2-16-11.2-18.6
				c0.6-0.5,1.3-0.9,2.1-1.2C87,6.6,79,4.3,75.3,3.9c0.5-1.1,1.1-2.4,1.3-3.2c-3.5-1.3-7.5-0.7-10.9,1c-3.3-1.2-8.2-2-11.5-0.7
				c0.7,0.7,1.4,1.6,1.9,2.5C52.1,3.9,43.8,5.6,41.5,9c0.4,0.3,1.4,0.8,2.4,1.3c-3.5,3-10.7,12.1-11.5,18.6c0.6-0.1,1.6-0.1,2.4-0.1
				c-2.6,10.2-6,23.6-2.7,33.3c0.4-0.9,2.3-3.4,4.2-2.1c1.9-2.6,3.4-9.5,3.6-11.6c0,0,12.3-9.6,13.4-11.2c0,2.6-0.1,5.1-0.4,7.7
				c0,0,12-12.4,13.5-14.7C67.8,32.1,77,44,80.2,45.8c0-3.1,0-6,0-6l8.7,8.4c0.7,2.3,2.9,9.9,3.1,12.2l4,0.6
				C101.7,59.1,98.1,47.6,97.8,42.1z"/>
		</g>
		<g transform="translate(1.219 0)">
			<path class="st6" d="M53.9,69.2c-6.8-1.5,1.6-9.3,2.5-2.3l0,0C56.4,68.2,55.2,69.2,53.9,69.2L53.9,69.2z M53.9,65.6
				c-2.6,0.4,0.4,3.6,1,1.1l0,0C55,66.1,54.5,65.6,53.9,65.6z"/>
			<path class="st6" d="M57.9,65.5c-0.3,0-0.6-0.2-0.7-0.5c-1-3.1-5.6-3-7.1-0.3c-0.2,0.4-0.7,0.5-1.1,0.3c-1.3-2.3,3.3-4.2,5.3-3.8
				C56.1,60.9,60.3,64.2,57.9,65.5L57.9,65.5z"/>
			<path class="st6" d="M82.2,69.2c-3.3,0-3.3-5.2,0-5.1C85.5,64,85.5,69.3,82.2,69.2z M82.2,65.6c-0.6,0-1.1,0.5-1,1.1l0,0
				C81.8,69.3,84.8,66,82.2,65.6L82.2,65.6z"/>
			<path class="st6" d="M78.2,65.5c-2.4-1.3,1.8-4.6,3.6-4.4c2-0.4,6.5,1.5,5.3,3.8c-0.4,0.2-0.8,0.1-1.1-0.3
				c-1.5-2.7-6.1-2.8-7.1,0.3C78.8,65.3,78.5,65.5,78.2,65.5z"/>
			<path class="st6" d="M67.8,92.3c-4.4-0.3-10.1-0.8-9.9-3.8c3.8,1.1,11.7,4.8,20.8-0.4C83.6,89.6,69.4,92.9,67.8,92.3z"/>
			<path class="st6" d="M69.9,97.5c-1.4,0.5-7.4-2-3.6-2.5c1.3,1.3,4.1,0.1,4.9,1.6C71.2,97.3,70.5,97.5,69.9,97.5z"/>
			<path class="st6" d="M74.8,55.2c-0.7,0-1.1-1-0.5-1.4c3.2-2.9,12.9-4.6,14.5,0.8c-0.3,0.3-0.7,0.3-1.1,0.1
				C83.8,51.2,78.4,52.8,74.8,55.2z"/>
			<path class="st6" d="M60.6,55.4c-3.4-3.3-8.9-2.9-12.9-0.5c-0.3,0.2-0.8,0.2-1.1-0.2c0.7-3.3,7.2-3.4,10.3-3
				C58.3,51.7,63,54.2,60.6,55.4z"/>
			<g transform="translate(34.939 62.567)">
				<path class="st6" d="M60.6,17.4c-2.8-0.5,3.9-3.8,4-9.9c0.7-4.2-0.9-7.5-3.8-5.3c-0.3,0.3-0.8,0.2-1.1-0.1c-0.7-2,3-2.7,4.3-1.8
					C69.3,3.2,64.1,17.1,60.6,17.4z"/>
				<path class="st6" d="M35.6,45.5c-0.9,0-1-1.4-0.1-1.5c4.3-0.6,10.8-6.6,15.9-11.7c3.3-3.3,5.7-13.5,6.3-19.3
					c0.1-0.4,0.4-0.7,0.9-0.7c2,3.2-2.9,17.9-6,21C46.8,39,40.5,44.9,35.6,45.5z"/>
				<path class="st6" d="M5.7,17.4C2.2,17.1-3,3.2,2.3,0.4c1.3-0.9,5-0.1,4.3,1.8C6.3,2.6,5.8,2.6,5.5,2.3C2.6,0.1,1,3.3,1.7,7.6
					C1.8,13.6,8.4,16.9,5.7,17.4L5.7,17.4z"/>
				<path class="st6" d="M30.6,45.5c-4.9-0.6-11.2-6.5-16.9-12.1c-3.1-2.9-8.2-18.2-6-21c0.4,0,0.8,0.3,0.8,0.7
					c0.6,5.8,2.9,15.9,6.3,19.3c5.1,5.1,11.5,11.1,15.9,11.7C31.6,44.1,31.5,45.6,30.6,45.5L30.6,45.5z"/>
			</g>
			<g transform="translate(0 98.175)">
				<g transform="translate(68.724)">
					<path class="st6" d="M18.5,10.3c-1.7-0.3-0.7-10-1.1-9.5c0-1,1.5-1,1.5,0c0,0.1,0.1,6.2,0.3,8.7C19.3,9.9,18.9,10.3,18.5,10.3z
						"/>
					<path class="st6" d="M0.8,20.2c-0.9,0-1.1-1.3-0.2-1.5c3.9-1,13-5.3,15.8-8.2c0.7-0.7,1.8,0.4,1.1,1.1l0,0
						C14.4,14.7,5.1,19.2,0.8,20.2z"/>
					<path class="st6" d="M8.6,36.3c-0.2,1.2-9.3-15.6-7.5-15.5c0.4-0.2,0.8,0,1,0.4c2.5,5.2,5.3,10.9,6.5,13
						c3.4-4,10.1-19.3,12-20.9C23.3,14.4,9.8,36.3,8.6,36.3z"/>
					<path class="st6" d="M66.3,59.1c-0.4,0-0.8-0.3-0.8-0.8C64.5,24.4,59.9,32,36.7,19.8c-6.7-2.8-21.2-9-15.6-9.4
						c6.2,4.9,34.6,14.6,39.8,20c2.9,2.7,6.4,9.7,6.2,27.9C67.1,58.7,66.8,59.1,66.3,59.1z"/>
					<path class="st6" d="M15.5,59.1c-0.5,0-0.9-0.6-0.7-1.1c3.9-7.6,5.5-34.6,8.1-43.6c0.4,0,0.7,0.4,0.7,0.8
						C22.5,25.4,20,52.1,15.5,59.1z"/>
					<path class="st6" d="M24.5,59.1c-0.6,0-1-0.8-0.6-1.2c2.4-3.2,6.9-14,7.9-16.4c-6.3-6.8-8.3-4.4,0-10.7l-4.5-12.8
						c-0.3-0.9,1.1-1.5,1.5-0.5l0,0l4.7,13.3c0.6,0.9-5.1,4.4-5.4,4.9c0.2,0.5,6.1,5.2,5.4,5.9C32.9,42,28,56.2,24.5,59.1z"/>
				</g>
				<g transform="translate(0 0)">
					<path class="st6" d="M48.9,10.3c-0.4,0-0.8-0.4-0.8-0.8c0.2-2.5,0.3-8.7,0.3-8.7c0-1,1.6-1,1.5,0l0,0
						C49.6,0.7,50.7,9.9,48.9,10.3z"/>
					<path class="st6" d="M66.6,20.2C65.2,20.5,44.8,11,51,10.4l0,0c2.9,3,11.9,7.2,15.8,8.2C67.7,18.8,67.5,20.2,66.6,20.2
						L66.6,20.2z"/>
					<path class="st6" d="M58.8,36.3c-1,0.1-14.7-22.1-12-23c1.8,1.7,8.6,16.9,12,20.9c0,1.5,7.4-17.8,7.9-12.3l0,0
						C65.2,24.3,60.6,35.7,58.8,36.3z"/>
					<path class="st6" d="M0.8,59.1c-0.4,0-0.8-0.3-0.8-0.8c-0.2-18.9,4-25.6,6.5-27.9c5.1-5.4,33.6-15.1,39.8-20
						c5.4,0.6-8.8,6.5-15.6,9.4C5.9,31.6,3.9,26.5,0.8,59.1z"/>
					<path class="st6" d="M51.9,59.1c-4.6-6.9-7-33.7-8.2-43.9c0-0.4,0.3-0.8,0.7-0.8c2.7,9,4.3,36.1,8.1,43.6
						C52.9,58.5,52.5,59.1,51.9,59.1z"/>
					<path class="st6" d="M42.9,59.1C39.4,56.2,34.5,42,34,41.5c-0.7-0.7,5.1-5.4,5.4-5.9c-0.3-0.6-6-4-5.4-4.9
						c0,0,4.7-13.3,4.7-13.3c0.3-0.9,1.8-0.4,1.5,0.5l0,0l-4.5,12.8c8.3,6.3,6.2,3.9,0,10.7c1,2.4,5.5,13.2,7.9,16.4
						C43.9,58.3,43.6,59.1,42.9,59.1L42.9,59.1z"/>
				</g>
			</g>
			<path class="st6" d="M68.1,137.4c-5.3,1-5.5-5.1-5.5-7.5c0-1,1.6-1,1.5,0c-0.3,7.5,3.4,6.3,8.4,5.4
				C76.3,136.6,69.4,137.7,68.1,137.4z"/>
			<path class="st6" d="M72.7,134.4c-1.7-0.6,0-3.5-0.6-4.9C73.8,125.8,74.5,134.4,72.7,134.4z"/>
			<path class="st6" d="M69.4,123c-1.1-0.5-2.8,0.6-3.4-0.6C65.8,120.2,72.5,121.6,69.4,123L69.4,123z"/>
			<path class="st6" d="M61.4,157.2c-0.4,0-0.8-0.4-0.8-0.8c0.5-1.6,0.5-19.1,2.9-19.3c0.4,0.1,0.6,0.5,0.6,0.9
				c-0.7,2.9-1.9,15.6-2,18.5C62.2,156.9,61.9,157.2,61.4,157.2z"/>
			<path class="st6" d="M75.5,157.2c-0.4,0-0.8-0.3-0.8-0.7c-0.1-2.9-1.3-15.6-2-18.5c-0.1-0.4,0.2-0.8,0.6-0.9
				c2.4,0.6,2.4,17.5,2.9,19.3C76.3,156.9,76,157.2,75.5,157.2z"/>
			<path class="st6" d="M55,75.2c-4.5-0.1-10.5,1.2-10.6-4.9c0.2-3.4-1.3-10.7,4-10.9c0.7,0.1,2.8-0.5,2.8,0.8
				c0,1.2-2.1,0.6-2.8,0.8c-3.9,0.3-2,7.1-2.4,9.4c0,0.7,0.6,3.4,2.5,3.4C48.9,73.9,58.6,72.9,55,75.2L55,75.2z"/>
			<path class="st6" d="M58.4,75.2c-1,0-1-1.5,0-1.5c2.8,0,5.1-3.4,5.1-4.7c0-3.7,0.7-9.2-4.7-8.1c-1,0-1-1.6,0-1.5
				c4-0.7,6.3,1.7,6.2,6C65.5,69.7,64.1,74.5,58.4,75.2z"/>
			<path class="st6" d="M88.1,75.2c-1,0-1-1.5,0-1.5c1.8,0,2.5-2.6,2.5-3.4c-0.4-2.3,1.4-9.1-2.4-9.4c0,0-2,0-2,0c-1,0-1-1.6,0-1.5
				c2.8-0.4,6,1,6,4.3C91.6,67.3,93.9,74.3,88.1,75.2z"/>
			<path class="st6" d="M84.7,75.2C79,75.5,72.4,75.5,71.4,69c-0.1-3-0.4-9.2,3.6-9.6c0.7,0.2,3.5-0.6,3.4,0.8
				c0.1,1.3-2.7,0.6-3.4,0.8c-2.7,0.8-2,5.9-2.1,8.1c0,1.3,2.3,4.7,5.1,4.7h6.6C85.7,73.6,85.7,75.3,84.7,75.2L84.7,75.2z"/>
			<path class="st6" d="M63.9,65c-3.4-2.7,7.4-3,8.4-1.7c0.8,0.5,0,1.8-0.8,1.3C69.9,63.7,65.4,64,63.9,65z"/>
			<path class="st6" d="M44.8,63.5h-2.5c-1,0-1-1.6,0-1.5c0,0,2.5,0,2.5,0C45.8,62,45.8,63.6,44.8,63.5z"/>
			<path class="st6" d="M93.8,63.5h-2.5c-1,0-1-1.6,0-1.5c0,0,2.5,0,2.5,0C94.8,62,94.8,63.6,93.8,63.5z"/>
			<path class="st6" d="M41.9,53.5c-0.8,0-1.1-1.2-0.3-1.5c2.7-1.2,13-9.3,14.9-12.8c3.1-1.6,0.6,6.3,0.7,7.8
				c4.3-3.4,12.3-13.3,13.9-16.7c0.4-0.9,1.8-0.2,1.4,0.7l0,0c-1.8,3.2-21.3,30.5-16.2,11C52.6,46.3,44.8,52.5,41.9,53.5z"/>
			<path class="st6" d="M94.8,53.5c-2.1-0.7-7.3-4.9-10.3-8.1c3.2,13.7-11.4-6.7-12.3-8.7c-0.4-0.9,1-1.6,1.4-0.7
				c1.1,2.4,6.6,9.3,9.7,12c-0.1-1.3-1.7-7,1-5.4c1.4,2.6,8.9,8.6,10.8,9.4C95.8,52.4,95.6,53.6,94.8,53.5z"/>
			<path class="st6" d="M40.9,61.5c-0.6,0-1-0.8-0.6-1.3c1-1.2,2-6.9,2.1-8.5C45.4,47.6,43.1,61.3,40.9,61.5z"/>
			<path class="st6" d="M95,61.5c-2.2-0.2-4.5-13.7-1.5-9.7c0.1,1.6,1,7.3,2.1,8.5C96,60.6,95.7,61.5,95,61.5L95,61.5z"/>
			<path class="st6" d="M53.9,3.3c-4-3,14.1-4.8,13.7-1.2c-0.2,0.4-0.6,0.6-1,0.4C62.4,0.9,57.9,1.5,53.9,3.3z"/>
			<path class="st6" d="M32.9,34.3c-2.8-5.8,6.6-17.9,9-20.4c-7.3-1,12.9-12.8,13.6-9c0,0.4-0.3,0.8-0.7,0.8
				c-2.9,0.1-10.1,3.6-12.5,6.7c6.1,0.6-8,8.5-8.5,21.2C33.7,34,33.3,34.3,32.9,34.3z"/>
			<path class="st6" d="M34.5,62.6c-2.6-2.3-0.7-9.9-0.7-12.3c-4.3,3.3,0.4-18.5,2.4-16.6c0.4,0.2,0.5,0.7,0.3,1
				c-1.2,2.2-3,10-2.9,14c4.1-1.9-0.4,7.9,1.6,12.9C35.4,62.1,35,62.6,34.5,62.6z"/>
			<path class="st6" d="M83.2,3.3c-4-1.8-8.5-2.4-12.7-0.7c-0.4,0.2-0.8,0-1-0.4C69-1.5,87.2,0.3,83.2,3.3z"/>
			<path class="st6" d="M104.2,34.3c-0.4,0-0.7-0.3-0.8-0.7c-0.5-12.6-14.6-20.6-8.5-21.2c-2.5-3.1-9.6-6.6-12.5-6.7
				c-0.4,0-0.8-0.4-0.7-0.8c0.8-3.7,20.8,8,13.6,9C97.6,16.5,106.9,28.3,104.2,34.3z"/>
			<path class="st6" d="M102.5,62.6c-0.5,0-0.9-0.5-0.7-1c1.9-5-2.5-14.8,1.6-12.9c0.1-4-1.7-11.8-2.9-14c-0.5-0.9,0.9-1.6,1.4-0.7
				l0,0c0.7,0.5,5.9,18.8,1.4,16.3C103.2,52.7,105.1,60.3,102.5,62.6z"/>
			<path class="st6" d="M68.7,85.6c-1.5,0.3-5.4-1.3-3.9-3.1c0.4-0.2,0.8,0,1,0.3c0.6,0.8,1.6,1.3,2.6,1.2c1.6,0.1,3.1-0.5,3.6-1.3
				c0.5-0.9,1.8-0.1,1.4,0.7C72.5,85.1,70.4,85.6,68.7,85.6z"/>
		</g>
	</g>
	<g transform="translate(717.107 2797.721)">
		<path class="st5" d="M14.3,70.5C33.8-1.7,141.7,25.6,124.6,98.4C105,170.6-2.8,143.3,14.3,70.5z"/>
		<path class="st5" d="M139,148.2c-4.3-23.7-37.3-27.3-52.5-42.1l-0.7-10.3c1.1-1.7,2.4-3.2,3.9-4.6c1.7,1.8,12.3,4.2,17.2,4.1
			c12.1-24.8,11.2-71.6-15.7-87.5C73.9-7.5,49.9,3.8,36.1,20.1c-12.9,21.6-20.5,58.1-4,79.8c4.4,1.9,15.2-1.3,22.3-4.6
			c1.4,15.9-4.4,13.6-15.7,21.2c-15.1,9.7-38.8,14.7-37.8,39.2H140C140,155.6,139.5,150.8,139,148.2z"/>
		<g transform="translate(3.939 3.74)">
			<path class="st6" d="M51.8,57.1c2.7,0,2.7,4.2,0,4.2C49.1,61.3,49.1,57.1,51.8,57.1z"/>
			<path class="st6" d="M81.1,57.1c2.7,0,2.7,4.2,0,4.2C78.4,61.3,78.4,57.1,81.1,57.1z"/>
			<path class="st9" d="M22.6,122.2c6-3.1,22.4-11.1,23.5-11.4c0.3,9.4,2.5,31.9,3.9,41.1H0C-0.7,134.5,9.3,130.1,22.6,122.2z"/>
			<path class="st9" d="M110.3,122.2c-6-3.1-22.4-11.1-23.5-11.4c-0.3,9.4-2.5,31.9-3.9,41.1h49.9
				C133.6,134.5,123.6,130.1,110.3,122.2z"/>
			<path class="st9" d="M66.5,0.2c7.5-1,17.7,2.7,20,7c25.6,18.8,25.1,59.8,14.3,84.5c-1.1,0.6-13.1-0.5-16.9-1.9
				c10.1-11.2,12.2-27.3,8.4-43.1c-4.7-11.4-7.7-21.9-16.4-27.9c-3.4-6.5-17.5,1-22.6,6.1C44.9,33,41,38.5,40,48.9
				c-3.7,16.6-0.4,31.3,11.5,43c-4.3,3.8-15.6,5.7-19.5,4.8c-11.3-9.7-12.7-39.8-8.4-52C30.3,22.6,37.4,4.7,66.5,0.2z"/>
		</g>
		<g transform="translate(0 0)">
			<path class="st6" d="M55.8,65.8c-3.7,0.1-3.7-5.8,0-5.8C59.5,60,59.5,65.9,55.8,65.8z M55.8,61.7c-1.7,0-1.7,2.6,0,2.5
				C57.4,64.3,57.4,61.7,55.8,61.7z"/>
			<path class="st6" d="M51.2,61.4c-2.7-1.5,2.9-5,4.8-4.5c1.9-0.2,6,2.2,4.4,4.2c-0.4,0.2-0.9,0-1.1-0.4
				C57,56.6,53.4,58.9,51.2,61.4z"/>
			<path class="st6" d="M85,65.8c-3.7,0.1-3.7-5.8,0-5.8C88.8,60,88.8,65.9,85,65.8z M85,61.7c-1.7,0-1.7,2.6,0,2.5
				C86.7,64.3,86.7,61.7,85,61.7z"/>
			<path class="st6" d="M89.6,61.4c-1.5-1-2.4-3.2-4.8-2.9c-1.5,0-2.8,0.8-3.4,2.2c-0.4,1-1.9,0.3-1.5-0.6l0,0
				C82.5,53.4,93.1,59.2,89.6,61.4z"/>
			<path class="st6" d="M70.8,88c-2.5,0.5-13.5-2-8.7-3.4c11.1,5.7,22.8-4,20.3,0.4l0,0C79.5,87.1,75.1,88,70.8,88z"/>
			<path class="st6" d="M69.5,79.4c-1.2,0-4.1-1.3-2.9-2.7c0.4-0.3,0.9-0.2,1.1,0.2l0,0c0.6,1.1,2.4,0.5,2.6,1.7
				C70.3,79.1,70,79.4,69.5,79.4L69.5,79.4z"/>
			<path class="st6" d="M71.5,92.7c-1.7,0.6-7.6-2.7-3.5-2.6l0,0c1.5,1,3.4,1.3,5.1,0.8c1-0.4,1.6,1.1,0.6,1.5
				C73,92.5,72.2,92.7,71.5,92.7z"/>
			<path class="st6" d="M92.6,47.6c-2.9-3.5-9.6-5.2-13.1-2.2c-0.3,0.3-0.8,0.3-1.1-0.1c-0.4-2.8,4.9-3.2,7.8-3
				C88.1,42.1,95.4,45.7,92.6,47.6z"/>
			<path class="st6" d="M47.4,47.9c-0.7,0-1.1-0.9-0.6-1.4c4.4-4.8,14-6.8,16.7-1.4c-0.2,0.4-0.7,0.5-1.1,0.2
				C57.6,42,52,43.9,47.4,47.9z"/>
			<g transform="translate(45.497 81.204)">
				<path class="st6" d="M23.4,22C11.5,22.8-5.3-2.6,1.6,0.6l0,0C2.8,5.7,11.9,19,23.5,20.4C24.5,20.4,24.4,22.1,23.4,22L23.4,22z"
					/>
				<path class="st6" d="M26.4,22c-1,0.1-1.1-1.6-0.1-1.6C39.3,19,46.1,4.6,49.2,0C50.7,5.8,38.6,20.5,26.4,22z"/>
			</g>
			<g transform="translate(0 97.291)">
				<g transform="translate(0 0)">
					<path class="st6" d="M54.2,8.6c-1.9-1.1-0.2-5.3-0.7-7.7c0-1,1.6-1,1.6,0C54.7,3.5,56.1,7.1,54.2,8.6z"/>
					<path class="st6" d="M0.8,59.2c-2.1-1,0.7-13.5,3.8-19.4C12.2,28.4,42.3,19,51.7,9.9c0.6-0.8,1.9,0.2,1.3,1
						c-10,10-36.5,16.8-47,29.7C1.7,46.9,2.9,57.3,0.8,59.2z"/>
					<path class="st6" d="M69.3,16.7c-4.5-0.5-11.4-3.5-14-7c-0.6-0.8,0.7-1.8,1.3-1c2.3,3,8.7,5.9,12.8,6.4
						C70.4,15.2,70.3,16.8,69.3,16.7L69.3,16.7L69.3,16.7z"/>
					<path class="st6" d="M62.5,28.7c-1.7-0.1-3.3-0.8-4.5-1.9c-1.4-1.7-8.2-12.5-5.9-13.9c0.4-0.1,0.9,0.2,0.9,0.7
						c1.3,3.4,6.2,18.3,11.9,12.1c1.2-0.9,3.2-11.6,4.5-7.3l0,0C68.1,22,67.4,28.4,62.5,28.7z"/>
					<path class="st6" d="M53.9,59.2c-1.7,0-6.1-39.8-3.9-43.6c2.1,7.6,2.7,37.8,4.6,42.6C54.8,58.7,54.4,59.2,53.9,59.2z"/>
					<path class="st6" d="M44.7,59.2c-2.5-2.1-5.1-16.5-6-18.2c1.1-2.7,3.9-4.9,5.8-7.1c-0.4-0.6-7.8-4-6.6-5.2
						c0,0,8.4-11.7,8.4-11.7c0.6-0.9,1.9,0.1,1.3,0.9c0,0-7.9,11-7.9,11c10.8,6.5,6.6,3.8,0.6,12.1c0.7,2.6,4,14.5,5.1,17.2
						C45.7,58.6,45.3,59.2,44.7,59.2z"/>
				</g>
				<g transform="translate(70.709 0)">
					<path class="st6" d="M15.9,8.6c-1.2,0.7-1.6-9-0.1-8.6c1.9,1.2,0.4,5.9,1,7.7C16.7,8.2,16.3,8.6,15.9,8.6z"/>
					<path class="st6" d="M69.3,59.2c-2-1.8-0.9-12.3-5.2-18.6c-10.4-12.9-37-19.8-47-29.7c-0.6-0.8,0.6-1.8,1.3-1
						c9.4,9.1,39.5,18.6,47.1,29.9C68.7,45.7,71.4,58,69.3,59.2z"/>
					<path class="st6" d="M0.8,16.7c-1,0.1-1.1-1.6-0.1-1.6c4.1-0.5,10.5-3.4,12.8-6.4c0.3-0.4,0.8-0.4,1.1-0.2
						C14.7,13,4.9,16,0.8,16.7z"/>
					<path class="st6" d="M7.5,28.7C3.9,30.5-2,14.3,2.2,17.9C6.2,36,14,23.1,17,13.5c4.9-3.6-3.8,12.9-5,13.3
						C10.8,28,9.2,28.7,7.5,28.7z"/>
					<path class="st6" d="M16.2,59.2c-0.5,0-0.9-0.5-0.8-1c1.9-4.8,2.6-35,4.6-42.6C22.3,19.5,18,58.7,16.2,59.2z"/>
					<path class="st6" d="M25.3,59.2c-0.6,0-1-0.6-0.7-1.1c1.1-2.6,4.4-14.6,5.1-17.2c-6-8.2-10.2-5.6,0.6-12.1
						c0-0.6-9.5-11.8-7.7-12.1c0.8-1.7,9,11.8,9.5,11.9c1.2,1.2-6.2,4.6-6.6,5.2c1.9,2.3,4.8,4.4,5.8,7.1
						C30.5,42.7,27.8,57,25.3,59.2z"/>
				</g>
			</g>
			<path class="st6" d="M70.3,156.4c-2.1-1.8-0.5-11.1-1-16.3c0-0.4,0.4-0.8,0.8-0.8s0.8,0.4,0.8,0.8
				C70.3,148.8,72.1,155.1,70.3,156.4z"/>
			<path class="st6" d="M70,137.7c-0.6,0-0.9-0.5-0.8-1.2c0.4-6.5-1.1-21.4,1.8-17.3l0,0c-0.1,2.1-0.2,9.8-0.2,17.6
				C70.9,137.3,70.5,137.7,70,137.7z"/>
			<path class="st6" d="M46,44.6c-2.4-7.3,14-20.3,20.7-23.2c5.1-2.1,11.5-4.1,12.9-0.6C66.5,18.8,51,32.8,46,44.6z"/>
			<path class="st6" d="M45.5,90c-6.3-9.1-4.4-37.7-0.6-43.2c0.2,7.8-4.9,30.6,1.3,42C46.5,89.4,46.1,90,45.5,90z"/>
			<path class="st6" d="M96.3,79.4c-0.5,0-0.9-0.5-0.8-1c4.4-17.1-1.9-41.9-14.3-54.7c6.1-0.3,15,20.8,16.6,31.5
				C98.4,65.9,99.2,75.1,96.3,79.4z"/>
			<path class="st6" d="M37.3,19.8c-0.7,0-1.1-0.8-0.6-1.3C45.9,6.8,58.9,0,72.5,0C80,0.2,89.8,2.2,90.3,7.3
				C75.3-2.3,56.5-1.3,37.3,19.8z"/>
			<path class="st6" d="M32.4,100.7C9.5,74.5,29.3,28,35.5,21.3C31.1,34.7,12.8,69.1,32.4,100.7L32.4,100.7z"/>
			<path class="st6" d="M107,96.2c9.4-28.6,11-69.4-14-86.4c-0.9-0.6,0.1-1.9,0.9-1.3C115.4,19.9,122.1,72.2,107,96.2z"/>
			<path class="st6" d="M97.8,93.4c-0.4,0-0.8-0.3-0.8-0.7c-0.2-2-1-5.7-1-5.7c-0.2-1,1.4-1.4,1.6-0.3l0,0c0,0.1,0.4,1.8,0.7,3.6
				c3.2-6.1,4.4-12.1,5.2-17.8c0.1-1,1.8-0.8,1.6,0.2l0,0C104,78.5,103,87.4,97.8,93.4z"/>
			<path class="st6" d="M105.2,88c-0.6,0-1-0.6-0.7-1.2c2.4-4.8,4.8-16,4.8-22.6c0-0.4,0.4-0.8,0.8-0.8
				C112.7,66,107.6,86.7,105.2,88z"/>
			<path class="st6" d="M40.2,98.7c-2.1-1.4-3.2-4.4-4.4-6.6c-2.1,12-11.4-20.4-6.4-14.9l0,0c0,3.5,2.4,11.8,4.6,15.2
				c0.8-2.2,0.8-4.7,2.4-3C36.3,91.7,42.7,98.2,40.2,98.7z"/>
			<path class="st6" d="M43.9,96c-2.8-0.9-9.3-18.1-5-14.3c0.6,3,2.6,9.2,5.6,13C44.9,95.2,44.5,96,43.9,96L43.9,96z"/>
			<path class="st6" d="M36.2,64.4C32.2,53,42.5,29,49.4,27.2C44.2,34.7,35.3,47.8,37,63.5C37.1,64,36.7,64.4,36.2,64.4z"/>
			<path class="st6" d="M30.6,71.7c-3.4-6.3,0.5-29.8,3.8-29.8c0.4,0.2,0.6,0.7,0.4,1.1c-2.6,5.5-4.6,16.8-3.4,27.8
				C31.4,71.2,31.1,71.7,30.6,71.7z"/>
			<path class="st6" d="M101.6,43.8c-0.4,0-0.7-0.3-0.8-0.7c-1-7-6.3-16.8-11.7-21.4c-0.3-0.3-0.4-0.8-0.1-1.1
				C93.2,19.7,104.9,40.9,101.6,43.8z"/>
			<path class="st6" d="M108,59.2c-0.5,0-0.8-0.4-0.8-0.9c0.6-7-1-19.5-3.9-24.6c-0.2-0.4-0.1-0.9,0.3-1.1
				C107,32.2,110.9,56.6,108,59.2z"/>
		</g>
	</g>
	<g transform="translate(1056.483 2798.91)">
		<path class="st5" d="M52.3,31c69.3-26.1,109.8,76.2,41.5,104.7C24.6,161.8-16,59.5,52.3,31z"/>
		<path class="st5" d="M96.9,110.2c11.1,6.3,30.3,15,39.4,23.3c3.8,4,6.7,15.9,6.7,20.3H5.2c-0.6-7.6,4.5-21.6,14.1-26.1
			c12.1-6.2,27.5-14.8,35.9-20c-1.7,0-21,5.5-22.2-1.6c-2.6-18.8-1.7-42.2,1.6-60.5c2.7-18,10.2-36.1,29.4-43.1
			c16.3-4.4,24.7-1,34.8,7.8c2,1.8,9.6,8.9,11.3,12.9c5.2,9.3,7.8,22.4,7.4,33.6c0,13.7,0.4,40.3-2.7,52.7
			c-4.2,1.7-22.2-2.1-22.9-2.8C93.5,108.1,95.1,109.2,96.9,110.2z"/>
		<g transform="translate(8.293 4.167)">
			<path class="st9" d="M22.4,120.3c5.9-3.1,22.2-11,23.2-11.2c0.3,9.3,2.4,31.5,3.8,40.6H0C-0.7,132.4,9.2,128,22.4,120.3z"/>
			<path class="st9" d="M109.1,120.3c-5.9-3.1-22.2-11-23.2-11.2c-0.3,9.3-2.4,31.5-3.8,40.6h49.4
				C132.2,132.4,122.4,128,109.1,120.3z"/>
			<path class="st6" d="M53.5,57.7c0.3,2.7-3.9,3-4.1,0.4C49.1,55.4,53.3,55.1,53.5,57.7z"/>
			<path class="st6" d="M78,57.7c-0.3,2.7,3.9,3,4.1,0.4C82.4,55.4,78.2,55.1,78,57.7z"/>
			<path class="st9" d="M68.6,0c28.4,4.3,37.3,32.6,36.5,57.9c1.3,15,1.1,37.2-0.5,48.1c-5,0.4-19.1-2.2-19.1-2.2l-3.7-4.3V89.1
				c10-10.8,10.8-18.6,10.9-33.4c0.8-6.9-5.6-25.2-10.8-31.4c-2.6-2.5-6-5.2-6-5.2s-12.3,0.5-18.5,5.8s-12.5,9.1-13.9,11.8
				c-8.7,15.1-6.3,41.4,6.8,52.9L49.9,100c-1.1,1.4-3.7,4.2-5.3,4.9c0,0-13.4,2.2-16.4,0.2c-3.2-16.5-2.7-39.3-0.6-55.4
				C31.6,22.8,39.5,0.9,68.6,0z"/>
		</g>
		<g transform="translate(4.394 0)">
			<path class="st6" d="M55.3,64.9c-3.7,0.1-3.7-5.8,0-5.7C59,59.2,59,65,55.3,64.9z M55.3,60.8c-1.7-0.1-1.7,2.6,0,2.5
				C56.9,63.3,56.9,60.9,55.3,60.8z"/>
			<path class="st6" d="M50.5,60.9c-2.7-1.5,2.8-5.4,4.8-5.1c1.8-0.4,5.8,1.5,4.6,3.6c-0.4,0.3-1,0.1-1.2-0.3
				c-1.7-3.1-6.4-1.5-7.4,1.4C51.1,60.7,50.8,60.9,50.5,60.9z"/>
			<path class="st6" d="M84,64.9c-3.9,0-3.6-6.1,0.2-5.7C87.8,59.5,87.5,65,84,64.9z M84,60.8c-1.6,0-1.5,2.6,0.1,2.5
				C85.7,63.3,85.6,60.7,84,60.8L84,60.8z"/>
			<path class="st6" d="M88.9,60.9c-0.3,0-0.6-0.2-0.7-0.5c-1-2.9-5.7-4.4-7.4-1.4c-0.2,0.4-0.6,0.6-1,0.4c-1.7-1.9,2.6-4.1,4.4-3.7
				C86,55.6,91.5,59.4,88.9,60.9z"/>
			<path class="st6" d="M70,86.9c-3.9-0.4-9.7,0-10.6-3c0.2-0.4,0.7-0.6,1.1-0.4c4.3,2.2,15.6,2.7,21.2-0.9
				C87.5,83.8,72.4,87.8,70,86.9z"/>
			<path class="st6" d="M68.8,78.4c-1.2,0-4.2-1.3-2.8-2.7c1.1-0.4,1.6,1.2,2.8,1.1C70,76.7,70,78.5,68.8,78.4L68.8,78.4z"/>
			<path class="st6" d="M70.7,91.5c-1.4,0-5.4-0.5-4.5-2.5c1.8-0.4,3.9,1.7,6.1,0.7C74.9,90,72.4,91.9,70.7,91.5z"/>
			<path class="st6" d="M90.1,48c-2.5-2-9.6-3-12.9-1.9c-0.4,0.1-0.9-0.2-0.9-0.6C76.2,42.2,94.3,44.9,90.1,48L90.1,48z"/>
			<path class="st6" d="M48.6,48c-4.3-3,14.5-5.9,13.8-2.4c-0.1,0.3-0.5,0.5-0.9,0.5C58.2,45,51.1,45.9,48.6,48z"/>
			<g transform="translate(45.023 80.157)">
				<path class="st6" d="M23.1,21.7C11.2,20.3-1.1,5.6,0.7,0.1c2.9,4.6,9.8,18.7,22.5,20.1C24.1,20.3,24,21.7,23.1,21.7L23.1,21.7z"
					/>
				<path class="st6" d="M26.2,21.7c-0.9,0-1-1.4-0.1-1.6C38.9,18.7,45.7,4.7,48.6-0.1C50.6,5.3,37.9,20.4,26.2,21.7z"/>
			</g>
			<g transform="translate(0 96.076)">
				<path class="st6" d="M53.7,8.5c-1.9-1.3-0.1-5.1-0.6-7.7C55.2-3.2,55.1,9.1,53.7,8.5z"/>
				<path class="st6" d="M0.8,58.5c-2.1-0.9,0.7-13.4,3.7-19.2c7.5-11.2,37.3-20.5,46.6-29.6c0.6-0.7,1.8,0.2,1.2,1
					c-9.9,9.9-36.2,16.6-46.5,29.4C1.7,46.4,2.8,56.7,0.8,58.5z"/>
				<path class="st6" d="M68.6,16.5c-4.1-0.7-13.6-3.6-13.8-8.1c0.4-0.3,1-0.3,1.2,0.2c2.2,3,8.6,5.8,12.7,6.3
					C69.5,15.1,69.5,16.5,68.6,16.5L68.6,16.5z"/>
				<path class="st6" d="M61.9,28.4c-5.9,0.1-9.4-10.7-10.9-14.8c-0.3-1.1,1.5-1.4,1.6-0.3c2.9,9.5,10.6,22.3,14.7,4.4
					C71.3,14.6,65.4,30.2,61.9,28.4z"/>
				<path class="st6" d="M53.3,58.5c-1.7-0.1-6.1-39.3-3.8-43.1c2,7.5,2.7,37.4,4.6,42.1C54.2,58,53.8,58.5,53.3,58.5z"/>
				<path class="st6" d="M44.3,58.5c-2.4-2.1-5.1-16.3-5.9-18c1.1-2.7,3.9-4.8,5.8-7c-0.4-0.6-7.7-4-6.6-5.2
					c0.6-0.1,8.5-13.5,9.4-11.6c1.6,0.2-7.7,11.5-7.6,11.9c10.7,6.4,6.5,3.8,0.6,11.9c0.7,2.5,3.9,14.4,5,17
					C45.2,57.9,44.8,58.6,44.3,58.5z"/>
				<g transform="translate(69.971)">
					<path class="st6" d="M15.7,8.5c-1.2,0.7-1.6-9-0.1-8.4C16.7-0.3,16.9,9.3,15.7,8.5z"/>
					<path class="st6" d="M68.5,58.5c-2-1.8-0.9-12.1-5.1-18.4C53.1,27.4,26.8,20.6,17,10.7c-0.8-0.8,0.6-2,1.2-1
						c9.3,9,39.1,18.4,46.6,29.6C67.9,45.2,70.6,57.4,68.5,58.5z"/>
					<path class="st6" d="M0.8,16.5c-0.9,0-1-1.4-0.1-1.6c4-0.5,10.4-3.3,12.7-6.3c0.2-0.4,0.7-0.5,1.1-0.3
						C15.3,12.4,4.4,16.1,0.8,16.5z"/>
					<path class="st6" d="M7.5,28.4C4,30.2-2,14.6,2.1,17.7c4,17.9,11.8,5.1,14.7-4.4c0.1-1.1,1.9-0.8,1.6,0.3
						C16.9,17.7,13.4,28.5,7.5,28.4z"/>
					<path class="st6" d="M16,58.5c-0.5,0-0.9-0.5-0.8-1c1.9-4.8,2.5-34.6,4.6-42.1C22.1,19.2,17.8,58.2,16,58.5z"/>
					<path class="st6" d="M25.1,58.5c-0.6,0-1-0.6-0.7-1.1c1.1-2.6,4.4-14.4,5-17c-5.9-8.1-10.1-5.5,0.6-11.9
						c0.1-0.6-9.5-11.6-7.5-12c0.9-1.3,8.8,11.6,9.3,11.7c1.2,1.2-6.2,4.6-6.6,5.2c1.9,2.2,4.7,4.4,5.8,7
						C30.1,42.2,27.5,56.4,25.1,58.5z"/>
				</g>
			</g>
			<path class="st6" d="M69.5,154.6c-2.1-1.8-0.5-11-1-16.1c0-0.4,0.4-0.8,0.8-0.8c0.4,0,0.8,0.4,0.8,0.8
				C69.6,146.9,71.4,153.4,69.5,154.6z"/>
			<path class="st6" d="M69.3,136c-0.6,0-0.9-0.5-0.8-1.2c0.6-7.9-1.1-16.5,1.1-17.9c1.7,2.4,0,9.9,0.5,18.3
				C70.1,135.7,69.7,136,69.3,136z"/>
			<path class="st6" d="M45.5,43.9c-3-5.6,29.9-26.1,33.3-20.9C69.6,24.4,52.3,34.7,45.5,43.9z"/>
			<path class="st6" d="M45.1,88.9c-6.3-9-4.4-37.3-0.6-42.7c0.2,7.7-4.8,30.3,1.3,41.6C46,88.3,45.6,88.9,45.1,88.9L45.1,88.9z"/>
			<path class="st6" d="M95.3,78.4c-0.5,0-0.9-0.5-0.8-1c4.4-17.5-1.9-40.9-14-54.2c5.9,0,14.8,20.6,16.3,31.3
				C97.4,65,98.1,74.1,95.3,78.4z"/>
			<path class="st6" d="M37.6,21.9c6.9-22.1,41.1-27.5,51.9-16c0.5,0.8-0.6,1.7-1.2,1C74.1-3.6,52.2,0.6,37.6,21.9z"/>
			<path class="st6" d="M113.3,61.8c-0.4,0-0.8-0.3-0.8-0.8c-0.1-4.6-0.4-9.7-0.9-15.4C109.3,21.1,94,12.5,91.7,8.4
				c4.5,0.2,18.5,13.4,21.4,37C113.1,50.6,115.4,58.8,113.3,61.8z"/>
			<path class="st6" d="M28.6,107.1c-5.9-25.6-1.1-68.6,7.7-83.6C30.2,40.7,25.9,80.7,28.6,107.1z"/>
			<path class="st6" d="M35.7,110.4c-2.8-2.2-6.2-29-3.5-34.6c0.5,0,0.9,0.4,0.8,0.9c-0.7,9.1,1.2,27,3.4,32.6
				C36.6,109.8,36.2,110.4,35.7,110.4z"/>
			<path class="st6" d="M40.7,108.4c-1.3,0-3.7-9.1-1.7-9.2c1.7,0.8,0.7,4.9,2,6.7c0.7-0.4,3.7-6.9,4.4-3.7c0,1.6,0.7,3.2,1.9,4.3
				c0.3,0.3,0.4,0.8,0.1,1.1c-1.6,1-2.9-2.1-3.3-3.4C43.7,104.6,41.4,108.6,40.7,108.4z"/>
			<path class="st6" d="M110.5,110.4c-0.5,0-0.9-0.6-0.7-1.1c3.6-8.1,1.2-35,3.6-44.6C115.3,70.6,113.8,107.7,110.5,110.4z"/>
			<path class="st6" d="M105,110.4c-0.6,0-1-0.6-0.7-1.1c2.3-5.2,2.5-20.6,2-27.7c-0.1-0.4,0.2-0.9,0.6-0.9c0.5-0.1,1,0.3,0.9,0.8
				C108,88.4,109.1,105.4,105,110.4z"/>
			<path class="st6" d="M100.2,107.4c-1.9-1.7-2.1-5.4-4.3-7.4c-0.2,2-0.9,4.9-3.1,6.5c-0.8,0.5-1.7-0.6-1-1.3
				c4.9-4.4-0.2-16,8.3-1.1c1.1-3.9,0.6-8,0-11.9C102.8,87,103.4,106.9,100.2,107.4z"/>
			<path class="st6" d="M49.7,105c-1.7,0.2-3.6-16-0.7-11.3C48.4,96.3,51.6,104.3,49.7,105z"/>
			<path class="st6" d="M55.7,72c-6.3,0.7-11.3-2-11.5-7.9c-0.1-2.1-0.2-7.1,3.5-8.2c0.9-0.2,1.3,1.2,0.4,1.5
				c-4,1.8-3.3,12.3,2.8,12.8c4.9,0.2,13.5,1.1,13.3-5.8c0.4-8.6-2.4-5.1-2.8-7.8C66.7,53.5,70.4,73.6,55.7,72z"/>
			<path class="st6" d="M83.5,72c-14.8,1.5-10.9-18.6-5.6-15.4c-0.3,2.8-3.4-0.9-2.9,7.9c-0.3,6.9,8.4,6,13.3,5.8
				c6.2-0.5,6.9-10.9,2.8-12.8c-0.9-0.3-0.5-1.7,0.4-1.5c3.7,1,3.6,6,3.5,8.2C94.7,70,89.8,72.7,83.5,72z"/>
			<path class="st6" d="M67.3,61.7c-3.5-2,6.3-3.1,5.7-0.6c-0.2,0.4-0.6,0.6-1,0.5C70.4,61,68.7,61.3,67.3,61.7z"/>
			<path class="st6" d="M45.1,62c-0.7-0.3-5.4,0.7-5.5-0.7c-0.2-1.7,4.7-0.6,5.5-0.9C46.3,60.3,46.3,62.1,45.1,62z"/>
			<path class="st6" d="M98.7,62c-0.8-0.3-5.4,0.7-5.5-0.7c-0.2-1.7,4.7-0.6,5.5-0.9C99.7,60.5,99.7,61.9,98.7,62z"/>
			<path class="st6" d="M38.5,44.6c-2.8-7.7,6.8-19.5,10.3-23c4.9-4.4,15-12.4,20-10.7C55.5,16.6,42.2,25.9,38.5,44.6z"/>
			<path class="st6" d="M59.7,23.8c-4.6-2.9,21-12.3,21.9-7.1c-0.1,0.5-0.6,0.8-1.1,0.6C74.5,15.4,65.1,19.7,59.7,23.8z"/>
			<path class="st6" d="M103.9,55.4c-0.4,0-0.8-0.3-0.8-0.8c-0.3-8.2-3.6-19.7-6.4-25C97.7,22.2,107.2,53.7,103.9,55.4z"/>
		</g>
	</g>
	<path class="st9" d="M833.5,3039h252.1c24.6,0,44.5,19.9,44.5,44.5l0,0c0,24.6-19.9,44.5-44.5,44.5H833.5
		c-24.6,0-44.5-19.9-44.5-44.5l0,0C789,3058.9,808.9,3039,833.5,3039z"/>
	<path class="st5" d="M848.8,3072l3.5,1.1c-2.1,9.7-16.8,6.1-15.6-3.3c-1.4-9.1,12.9-13.6,15.5-4.2l-3.6,0.9c-1.7-5.6-9.2-2.7-8.2,3
		C839.4,3076,847.6,3078.3,848.8,3072z M859.9,3078.5h-3.4v-13h3.2v1.8c0.9-2.1,3.3-2.8,5.2-1.5l-1.1,3
		C858.3,3066.2,860.2,3075.7,859.9,3078.5z M875.1,3074.4l3.4,0.6c-2.2,6.6-12.8,4.1-11.9-2.8c-0.6-9.3,13.5-8.9,12.1,0.9h-8.6
		C869.7,3076,874.3,3077.8,875.1,3074.4L875.1,3074.4z M875.3,3070.9c0.3-3.9-5.5-3.9-5.1,0L875.3,3070.9z M885.3,3069.5l-3.1-0.6
		c0.9-4.4,8.2-5,10.6-1.8c1.3,3.5-0.5,8,1.2,11.3h-3.4c-0.1-0.2-0.3-1.1-0.5-1.4c-8.3,6-13.5-6.1-0.3-7
		C890.4,3067.3,885.8,3067.1,885.3,3069.5z M889.9,3072.3c-1.7,0.5-6.2,0.9-4.1,3.6C888.2,3077.7,890.5,3074.7,889.9,3072.3z
		 M903.8,3065.6v2.7h-2.3v5.2c-0.3,1.7,0.5,3.1,2.3,2.1l0.3,2.7c-7.7,3-5.9-5.4-6.1-10h-1.6v-2.7h1.6v-2.6l3.4-2v4.6L903.8,3065.6z
		 M907.5,3063.8v-3.2h3.4v3.2L907.5,3063.8z M907.5,3078.5v-13h3.4v13H907.5z M919.2,3078.5l-5.2-13h3.6c0.6,1.6,2.7,7.3,3.1,8.8
		c0.5-1.7,2.6-7.2,3.2-8.8h3.5l-5.2,13H919.2z M938.3,3074.4l3.4,0.6c-2.2,6.6-12.8,4.1-11.9-2.8c-0.6-9.3,13.5-8.9,12.1,0.9h-8.6
		C932.9,3076,937.6,3077.8,938.3,3074.4L938.3,3074.4z M938.5,3070.9c0.3-3.9-5.5-3.9-5.1,0L938.5,3070.9z M965.6,3072l3.5,1.1
		c-2.1,9.7-16.8,6.1-15.6-3.3c-1.4-9.1,12.9-13.6,15.5-4.2l-3.6,0.9c-1.7-5.6-9.2-2.7-8.2,3C956.2,3076,964.4,3078.3,965.6,3072z
		 M972.7,3071.9c-0.3-8.8,13.8-8.6,13.4,0.1C986.5,3081,971.9,3080.9,972.7,3071.9z M976.2,3072.1c-0.5,5.1,6.9,5.1,6.3,0
		C983,3066.9,975.6,3067,976.2,3072.1z M1001.8,3078.5h-3.4c-0.4-2.5,1-8.4-0.9-10.3c-5.8-2.1-3.7,7.3-4,10.3H990v-13h3.2v1.9
		c1.7-2.5,5.7-3.1,7.8-0.7C1002.6,3069,1001.5,3075.9,1001.8,3078.5z M1017.8,3069.4l-3.4,0.6c-0.8-3.9-6-1.6-5.2,1.8
		c-0.9,3.8,4.7,6.3,5.3,1.7l3.4,0.6c-1.3,7.5-13.2,5.4-12.2-2.1C1004.8,3065,1016,3062.4,1017.8,3069.4z M1021.7,3063.8v-3.2h3.4
		v3.2L1021.7,3063.8z M1021.7,3078.5v-13h3.4v13H1021.7z M1037.4,3074.4l3.4,0.6c-2.2,6.6-12.8,4.1-11.9-2.8
		c-0.6-9.3,13.5-8.9,12.1,0.9h-8.6C1032,3076,1036.6,3077.8,1037.4,3074.4L1037.4,3074.4z M1037.6,3070.9c0.3-3.9-5.5-3.9-5.1,0
		L1037.6,3070.9z M1048.3,3078.5h-3.4v-13h3.2v1.8c0.9-2.1,3.3-2.8,5.2-1.5l-1.1,3C1046.7,3066.2,1048.6,3075.7,1048.3,3078.5z
		 M1055.7,3079.4l3.9,0.5c0.3,2,4.1,1.7,4.7,0c0.3-0.9,0.1-2.5,0.2-3.5c-3.3,4.8-9.9,0.6-9.2-4.5c-0.8-5.2,6.1-9.4,9.4-4.6v-1.8h3.2
		c-0.5,3.7,1.3,13.8-1.4,16.8C1063.2,3084.9,1055.2,3084.4,1055.7,3079.4z M1058.7,3071.8c-0.6,5.2,6.1,5.2,5.8,0.1
		C1065,3066.8,1058.3,3066.6,1058.7,3071.8z M1080,3074.4l3.4,0.6c-2.2,6.6-12.8,4.1-11.9-2.8c-0.6-9.3,13.5-8.9,12.1,0.9h-8.6
		C1074.6,3076,1079.3,3077.8,1080,3074.4L1080,3074.4z M1080.2,3070.9c0.3-3.9-5.5-3.9-5.1,0L1080.2,3070.9z"/>
	<path class="st5" d="M875.6,3093.9c-1.4,0.4-4.7,0.1-6.1,0.3c0.4-0.7,0.6-1.4,1.1-2.1l-2.5-0.5c-0.8,3.1-3,5.8-5.6,7.6
		c0.7,0.4,1.3,0.9,1.7,1.5c1.7-1.3,3.1-2.8,4.2-4.6l5.4-0.1c-1.2,4.5-4.8,8.1-9.2,9.7c0.6,0.5,1.2,1.2,1.5,1.9
		c5.5-2.1,8.9-7.1,10.5-12.6L875.6,3093.9z M883.6,3092.4c0.1,2.1,0.1,6.1,0,8.2h2.5c-0.1-2.1-0.1-6.1,0-8.2L883.6,3092.4z
		 M891.7,3092.4c0.4,5.8,0.8,12.3-6.4,13c0.6,0.6,1,1.3,1.3,2.1c8-1.3,7.7-8.7,7.6-15.1L891.7,3092.4z M908.8,3096
		c1.5,0,3.9-0.1,5.3,0.1v-2.2c-3.1,0.2-9.6,0.2-12.7,0v2.2c1.4-0.2,3.6-0.1,5.1-0.1v7.4c-1.6,0-4.9,0.1-6.4-0.1v2.3
		c3.2-0.2,12.2-0.2,15.4,0v-2.3c-1.5,0.2-5.1,0.1-6.7,0.1V3096z M930.9,3092c-3.1,4.1-7.9,6.7-12.8,8c0.5,0.6,0.9,1.3,1.2,2.1
		c2.3-0.7,4.4-1.7,6.4-2.9c0,1.5,0.1,6.9-0.1,8.3h2.5c-0.2-1.4-0.1-8.2-0.1-9.7c1.8-1.3,3.3-2.8,4.9-4.3L930.9,3092z M950.3,3099.2
		c0.8,0,1.5,0,2.3,0.1v-2.1c-3.2,0.2-12,0.2-15.2,0v2.1c1.5-0.2,5.1-0.1,6.7-0.1c0.1,3.1-2.1,5.8-5.1,6.4c0.6,0.5,1.1,1.2,1.5,2
		c4.2-1.5,5.9-4.4,6-8.4L950.3,3099.2z M939.3,3094.8c2.9-0.2,8.6-0.2,11.6,0v-2.2c-3,0.2-8.6,0.2-11.6,0V3094.8z M967.8,3094.9
		c-2.6,3.3-6.5,5.5-10.5,6.6c0.5,0.6,0.8,1.2,1.1,1.9c1.8-0.6,3.5-1.3,5.1-2.3c0,1.3,0.1,5.3-0.1,6.5l2.3,0
		c-0.2-1.2-0.1-6.6-0.1-7.8c1.5-1,2.7-2.3,4-3.5L967.8,3094.9z M988.8,3094.7l0.7-0.3c-0.4-1-0.9-2-1.6-2.8l-1.3,0.5
		c0.4,0.6,0.8,1.2,1.1,1.8c-2.5,0.1-9.4,0.2-11.9-0.1v2.3c1.5-0.2,9.1-0.1,10.8-0.1c-1.2,4.8-4.4,8.1-9.4,9.7
		c0.7,0.6,1.2,1.3,1.6,2.1c6-2.4,9-6.6,10.5-12.5L988.8,3094.7z M991.8,3093.6c-0.4-1-0.9-1.9-1.6-2.7l-1.3,0.5
		c0.6,0.9,1.2,1.8,1.5,2.8L991.8,3093.6z M1005.7,3105.7v1.1h2.4c-0.2-2.4-0.1-10.8,0-13.2c-2.6,0-9.9,0.2-12.5-0.1v2.3
		c1.6-0.2,8.5-0.1,10.2-0.1v7.8c-1.7-0.1-8.9,0.1-10.4-0.1v2.3C996.8,3105.6,1004.1,3105.7,1005.7,3105.7z M1013.9,3095
		c1.7,1,3.3,2.2,4.6,3.7l1.5-2c-1.4-1.3-3-2.5-4.6-3.5L1013.9,3095z M1014.5,3106.9c5.9-1,11.6-4.3,13.8-10.1
		c-0.7-0.5-1.4-1.1-1.9-1.8c-1.7,5.5-6.9,9-12.5,9.3L1014.5,3106.9z M1034,3094.1c1.7,0.6,3.3,1.5,4.8,2.5l1.2-2
		c-1.5-0.9-3.1-1.7-4.8-2.3L1034,3094.1z M1032.6,3098.5c1.7,0.7,3.4,1.6,4.9,2.6l1.1-2c-1.5-1-3.1-1.8-4.8-2.4L1032.6,3098.5z
		 M1033.6,3107.1c6.7-1.1,11.5-4.1,13.7-10c-0.7-0.4-1.3-1-1.9-1.6c-1.6,5.5-6.9,8.9-12.5,9.1L1033.6,3107.1z M1059.4,3099.2
		c1.1,0,3.1-0.1,4.2,0.1v-2c-2.3,0.2-8.1,0.2-10.4,0v2.1c1-0.2,3-0.1,4.1-0.1v5.8c-1.2,0-4.1,0.1-5.2-0.1v2c2.4-0.1,10.2-0.1,12.6,0
		v-2c-1.1,0.2-4.2,0.1-5.3,0.1L1059.4,3099.2z M1072.6,3092.5c0.2,6.1,0,10.3-3.5,13.1c0.7,0.5,1.3,1.1,1.8,1.7
		c4.1-3.5,3.8-9.2,4.1-14.8L1072.6,3092.5z M1077.3,3092.4c0.1,2.6,0.1,11.2-0.2,13.8l1.2,1.2c3.3-1.1,6.3-3.3,7.5-6.7
		c-0.7-0.5-1.2-1-1.7-1.7c-0.7,2.3-2.3,4.4-4.5,5.3c0.1-1.3,0-11,0.2-12L1077.3,3092.4z M1090.4,3094.3c1.7,0.6,3.3,1.4,4.8,2.5
		l1.2-2c-1.5-0.9-3.1-1.7-4.8-2.3L1090.4,3094.3z M1089,3098.6c1.7,0.7,3.4,1.5,4.9,2.6l1.1-2c-1.5-1-3.1-1.8-4.8-2.4L1089,3098.6z
		 M1099.6,3092.7c0.7,0.8,1.4,1.7,1.9,2.7l1.3-0.7c-0.5-1-1.1-1.9-1.9-2.6L1099.6,3092.7z M1090,3107.3c6.7-1.2,11.5-4.1,13.7-10
		c-0.7-0.4-1.3-1-1.9-1.6c-1.5,5.5-7,8.9-12.5,9.1L1090,3107.3z M1104.9,3093.5c-0.5-0.9-1.1-1.8-1.9-2.5l-1.2,0.6
		c0.7,0.8,1.3,1.7,1.8,2.6L1104.9,3093.5z M1117.2,3105c0.5-2.1,0.5-4.7,1.2-6.9l-1-0.9c-1.9,0.3-5.6,0.2-7.5,0.1v2
		c1.1-0.1,4.9,0,6.1-0.1c-0.2,1.6-0.6,4.2-0.9,5.8c-1.3,0-5.8,0.1-7-0.1v2.1c2.4-0.1,10.3-0.1,12.7,0v-2.1
		C1119.8,3105.1,1118.2,3105,1117.2,3105z"/>
	<g transform="translate(1099.015 2391.483)">
		<path class="st5" d="M267.5,483.3c17.1-69,120.2-45.3,105.5,24.2C355.9,576.6,252.8,552.9,267.5,483.3z"/>
		<path class="st5" d="M351.8,471.6c1.4,6-0.9,13.8-6.9,16c-0.5,3.9-4.2,14.5-6.1,16.9c0,0,0,8.6,0.3,9.9s4.8,3.6,5.7,3.8
			c9.8,4.4,24.5,10.7,34.7,16.8c7.1,5.3,7.3,22.2,7.1,28.1H253.3c-0.2-8,0.5-22.8,8.4-28.7c11.1-7.3,29.5-11.7,39.5-20.2
			c0,0,0-7.6,0-9.4c-2.6-3.2-5.2-14.1-5.9-16.9c-6.3-2.2-8.5-10.1-6.7-16.1l1.6-0.9l-2.4-11.5c0,0-4.3-9.1-4.8-10.9
			c-0.6-4.5,1.6-14.1,7.3-15.9c-0.5-9.8,12.7-15.8,20.2-15.3c2.2-11.5,19-10.9,25.4-3.7c10.6,1.5,22,15.9,16.8,26.3
			c1.3,2.8,5,11-1.3,14.1c-0.3,3.1-2.3,16.9-2.3,16.9C350.1,470.5,351.1,470.8,351.8,471.6z"/>
		<g transform="translate(256.124 411.567)">
			<path class="st9" d="M20.7,118.9c5-2.2,20.1-8.5,20.1-8.5c1.3,12.1,4.2,32.1,7.2,41.2H0C0,135.6,3.1,124.2,20.7,118.9z"/>
			<path class="st9" d="M107.2,118.9c-5-2.2-20.1-8.5-20.1-8.5c-1.3,12.1-4.2,32.1-7.2,41.2h48C127.9,135.6,124.8,124.2,107.2,118.9
				z"/>
			<path class="st10" d="M60.7,117.9l6.8-0.5l1.6,5.1l-0.5,8.6c1.5,3,2.3,17.4,2.7,20.3h-12l1.9-19.9c0,0-1.1-3.1-1.5-3.6
				s-0.3-7.7-0.3-7.7L60.7,117.9z"/>
			<path class="st6" d="M52,62.3c0,2.6-4,2.6-4,0C48.1,59.7,52.1,59.7,52,62.3z"/>
			<path class="st6" d="M77.9,60.3c2.6,0,2.6,4,0,3.9C75.3,64.3,75.3,60.3,77.9,60.3z"/>
			<path class="st9" d="M63.8,0.5C69.1-1,74.8,0.7,78.4,4.8c10,2.6,18.9,12.3,15.6,22.8c0.9,1.9,4.5,11.4,0.4,14.2
				c-1.1,5.5-0.2,13.5-1.4,17.4l-3.5,1.1C91.1,43.8,92.3,30,81,16c-2.4,5.2-9,12.8-13.5,15.8c-3,1.2-8.6-3.3-9.4-5.9
				c-3.2,4.3-9.8,8.5-12.1,7.6s-3.3-3.3-4.5-2.4s-5.2,5.8-5.2,8.1c0.1,7.3,1,13.2,2,19.1l-1.2,1.8l-2.9-0.8c0-10-9.9-29.8,2.1-36.3
				c-0.7-7.8,13.1-17.1,19-14C57.4,4.2,59,1.7,63.8,0.5z"/>
		</g>
		<g transform="translate(252.581 407.427)">
			<path class="st6" d="M53.6,69.1c-3.6,0.1-3.6-5.5,0-5.5C57.2,63.6,57.2,69.2,53.6,69.1z M53.6,65.2c-1.6,0-1.6,2.4,0,2.4
				C55.2,67.6,55.2,65.2,53.6,65.2z"/>
			<path class="st6" d="M49.3,64.9c-2.6-1.4,2.7-4.7,4.5-4.3c1.8-0.2,5.8,2.1,4.3,4c-0.4,0.2-0.8,0-1-0.4c-1.2-3-5.8-2.5-7,0.3
				C49.8,64.7,49.6,64.9,49.3,64.9z"/>
			<path class="st6" d="M81.4,69.1c-3.6,0.1-3.6-5.5,0-5.5C85,63.6,85,69.2,81.4,69.1z M81.4,65.2c-1.6,0-1.6,2.4,0,2.4
				C83,67.6,83,65.2,81.4,65.2z"/>
			<path class="st6" d="M85.8,64.9c-0.3,0-0.6-0.2-0.7-0.4c-1.2-2.8-5.8-3.3-7-0.3c-0.2,0.4-0.6,0.6-1,0.4c-1.5-1.9,2.4-4.2,4.2-4
				C83,60.2,88.4,63.5,85.8,64.9z"/>
			<path class="st6" d="M67.4,83.5c-1.3,0.1-4.8-1.3-3.5-2.9c0.4-0.2,0.8-0.1,1.1,0.2l0,0c0.7,0.7,1.6,1.1,2.6,1.1
				c1-0.1,1.2,1.4,0.2,1.5C67.6,83.5,67.5,83.5,67.4,83.5z"/>
			<path class="st6" d="M67.3,92.8c-4-0.2-9.3-0.8-9-3.6c3.4,0.9,10.6,4.3,18.8-0.4C82.1,90.1,68.8,93.4,67.3,92.8z"/>
			<path class="st6" d="M69.3,97.4c-1.4-0.2-5-0.3-4.7-2.2c1.4-0.9,3.4,1.3,5.2,0.7C71.2,96,70.6,97.8,69.3,97.4z"/>
			<g transform="translate(34.655 62.535)">
				<path class="st6" d="M60.1,17.3c-0.7,0-1-1-0.5-1.4c2.3-0.2,7-12.1,3.1-14.2c-0.9-0.3-1.8-0.1-2.4,0.6c-0.7,0.7-1.8-0.5-1-1.2
					l0,0C69.8-4.8,65.1,16.9,60.1,17.3z"/>
				<path class="st6" d="M35.4,44.7c-0.9,0-1-1.4-0.1-1.5c6-1.1,11.5-3.9,15.8-8.3c3.4-3.4,5.7-16.5,6.2-22c0.1-1,1.6-0.8,1.5,0.1
					l0,0C57.5,28.6,53.2,41.9,35.4,44.7z"/>
				<path class="st6" d="M5.6,17.3c-5-0.4-9.7-22.1,0.8-16.2c0.8,0.6-0.3,1.8-1,1.2l0,0C2.5,0.1,1,3.3,1.7,7.5
					C1.8,13.5,8.4,16.7,5.6,17.3L5.6,17.3z"/>
				<path class="st6" d="M30.4,44.7C12.5,41.9,8.2,28.6,7,13.1c-0.1-1,1.4-1.1,1.5-0.1l0,0c1.3,15.5,5.5,27.6,22,30.3
					C31.4,43.3,31.3,44.8,30.4,44.7L30.4,44.7z"/>
			</g>
			<g transform="translate(0 100.596)">
				<g transform="translate(68.166 0)">
					<path class="st6" d="M18.3,7.5c-1.6-0.2-0.7-7.3-1.1-6.7c0-1,1.5-1.1,1.5-0.1c0,0.1,0.1,3.4,0.3,5.9
						C19.1,7.1,18.8,7.5,18.3,7.5z"/>
					<path class="st6" d="M0.8,17.3c-0.9,0-1-1.3-0.2-1.5c3.9-1,12.9-5.2,15.7-8.2c0.3-0.3,0.8-0.3,1.1,0
						C17.2,11.5,4.2,16.2,0.8,17.3z"/>
					<path class="st6" d="M8.6,33.3c-1.8-0.7-6.4-12-7.8-14.3c-0.2-0.4,0-0.8,0.4-1c0.4-0.2,0.8,0,1,0.3c2.5,5.1,5.3,10.8,6.4,12.9
						c2.5-3.6,10.6-18,11-20.1C25.5,7,8.9,34.8,8.6,33.3z"/>
					<path class="st6" d="M65.8,55.8c-0.4,0-0.8-0.3-0.8-0.8C64,21.5,59.4,29,36.4,16.9c-6.6-2.8-21-9-15.4-9.3
						c6.1,4.9,34.3,14.5,39.5,19.9c2.9,2.7,6.3,9.6,6.2,27.6C66.6,55.5,66.2,55.9,65.8,55.8z"/>
					<path class="st6" d="M15.3,55.8c-0.5,0-0.9-0.6-0.7-1.1c3.8-7.5,5.4-34.3,8.1-43.3c0.4,0,0.7,0.4,0.7,0.8
						C22.3,22.5,19.9,49,15.3,55.8z"/>
					<path class="st6" d="M24.3,55.8c-0.6,0-1-0.7-0.6-1.2c2.4-3.2,6.9-13.9,7.9-16.3c-6.2-6.7-8.2-4.4,0-10.6
						c0.2-0.5-5.8-13.9-4-13.7c1.2-1.4,5.2,13.5,5.7,13.7c0.6,0.9-5,4.3-5.3,4.8c0.2,0.5,6,5.2,5.3,5.9C32.6,38.9,27.8,53,24.3,55.8
						z"/>
				</g>
				<path class="st6" d="M48.5,7.5c-1.6,0.1-0.1-7.4-0.5-6.7c0-1,1.6-0.9,1.5,0C49.3,0.2,50.1,7.2,48.5,7.5z"/>
				<path class="st6" d="M66.1,17.3c-3.5-1.1-16.4-5.8-16.6-9.7c0.3-0.3,0.8-0.3,1.1,0c2.8,2.9,11.8,7.2,15.7,8.2
					C67.1,16,67,17.3,66.1,17.3L66.1,17.3z"/>
				<path class="st6" d="M58.3,33.3c-1,0.2-14.6-21.9-11.9-22.8c1.8,1.7,8.6,16.8,11.8,20.7c1.2-2.1,4-7.8,6.4-12.9
					c0.2-0.4,0.6-0.5,1-0.4C67.5,17.8,58.6,34.4,58.3,33.3z"/>
				<path class="st6" d="M0.8,55.8c-2.6-31.2,7.6-30.1,29.1-40.3c7.5-3.2,14.6-6.3,16-7.9c0.6-0.7,1.8,0.3,1.1,1l0,0
					c-5.8,5-34.5,14.7-39.6,20c-2.3,2.1-6.1,8.3-6,26.5C1.5,55.5,1.2,55.9,0.8,55.8z"/>
				<path class="st6" d="M51.5,55.8c-4.5-6.9-7-33.4-8.1-43.5c0-0.4,0.3-0.8,0.7-0.8c2.7,9,4.3,35.8,8.1,43.3
					C52.4,55.3,52.1,55.9,51.5,55.8z"/>
				<path class="st6" d="M42.6,55.8c-3.5-2.9-8.4-16.9-8.9-17.4c-0.7-0.7,5.1-5.4,5.3-5.9c-0.3-0.6-5.9-3.9-5.3-4.8
					c0.4-0.2,4.4-15,5.7-13.7c1.8-0.3-4.2,13.2-4,13.7c8.2,6.2,6.2,3.9,0,10.6c1,2.4,5.5,13.1,7.9,16.3
					C43.6,55.1,43.2,55.9,42.6,55.8z"/>
			</g>
			<path class="st6" d="M67.6,136.7c-5.3,1-5.5-5-5.5-7.4c0-1,1.5-1,1.5,0l0,0c-0.3,7.4,3.4,6.2,8.3,5.3
				C75.6,136,68.8,137,67.6,136.7z"/>
			<path class="st6" d="M72.1,133.8c-1.7-0.6,0-3.4-0.6-4.9C73.2,125.2,73.9,133.8,72.1,133.8z"/>
			<path class="st6" d="M68.9,122.5c-1.1-0.5-2.8,0.6-3.4-0.5C65.1,119.7,71.9,121.1,68.9,122.5z"/>
			<path class="st6" d="M60.9,156.4c-0.4,0-0.8-0.4-0.8-0.8c0.5-1.7,0.5-18.8,2.9-19.2c0.4,0.1,0.7,0.5,0.6,0.9
				c-0.7,2.8-1.9,15.4-1.9,18.3C61.7,156.1,61.3,156.4,60.9,156.4z"/>
			<path class="st6" d="M74.9,156.4c-0.4,0-0.8-0.3-0.8-0.7c-0.1-2.9-1.3-15.5-1.9-18.3c-0.1-0.4,0.1-0.8,0.6-0.9
				c2.4,0.2,2.5,17.6,2.9,19.2C75.7,156.1,75.3,156.4,74.9,156.4z"/>
			<path class="st6" d="M54.1,77.2c-6.1,0-9.3-1.4-9.8-4.2c-0.3-2.6-3.3-14.3,3.8-14.1c1-0.1,1.2,1.4,0.2,1.5c-2,0.3-2.3,0.5-3,1.8
				c-0.7,1.2-0.3,6.3,0.5,10.5c-1.3,3,15.8,4.6,17.2,0.1c0.6-2.2,2.1-12.3-3.1-12.4c-0.4-0.1-0.7-0.5-0.6-0.9c0.1-0.4,0.5-0.7,1-0.6
				c6.1,0.1,5.2,11.2,4.2,14.3C64,76,58.1,77.5,54.1,77.2z"/>
			<path class="st6" d="M80.7,77.2c-9.2,0.1-11.6-2.7-11-11.7c-0.5-3.9,3.5-7.9,5.8-6c0.1,0.4-0.1,0.8-0.5,0.9
				c-5.3,0.1-3.7,10.3-3.1,12.4c1.4,4.5,18.5,2.9,17.2-0.1c0.8-4.2,1.2-9.3,0.5-10.5c-0.7-1.2-1-1.5-3-1.8c-1-0.1-0.8-1.7,0.2-1.5
				c7.1-0.3,4.1,11.5,3.8,14.1C90,75.8,86.8,77.2,80.7,77.2z"/>
			<path class="st6" d="M70.5,65.6c-0.7-0.3-7.2,0.8-7-0.8c-0.3-1.5,6.4-0.5,7-0.8C71.5,64.1,71.5,65.6,70.5,65.6z"/>
			<path class="st6" d="M47.2,51.7c-4.3-3.8,14.2-3.7,12.2-1.8C58.4,51.6,50.3,48.3,47.2,51.7z"/>
			<path class="st6" d="M88.1,51.7c-3.2-3.3-11.1,0-12.2-1.8C74,48,92.4,47.9,88.1,51.7z"/>
			<path class="st6" d="M39.8,46.1c-2.7-2.5,2.3-9.8,4.4-11.3c2.8-1.8,3.5,1.3,5.5,2.1c1.6,0.4,8.6-2.9,11.9-8.4
				c6.2-1.6-9.3,12-12.4,9.8c-1.6-0.1-2.9-3.4-4.3-2.3c-1.9,1.3-4.7,6.1-4.5,9.2C40.6,45.7,40.3,46.1,39.8,46.1z"/>
			<path class="st6" d="M69,36.7c-1.4,1.2-9.2-5.7-4.7-4.7c1.1,1.6,2.8,3.4,5,3.2c3.5-0.3,7.8-6.1,11.3-10.8c1.1-0.9,1.7-3.5,3.2-3
				C83,26,72.7,37.3,69,36.7z"/>
			<path class="st6" d="M93.8,43.7c-0.5,0-0.8-0.4-0.8-0.9c1.4-7.4-6.9-19-7.9-22C87.4,18.5,97.6,39.9,93.8,43.7z"/>
			<path class="st6" d="M93.3,61c-1.5,0.4,0.2-12.8-0.4-15.1c0-1,1.6-1,1.5,0c0,0.5,0,1.3,0,2.3C94.1,51.8,95.5,58.8,93.3,61z"/>
			<path class="st6" d="M41.1,61c-1.3,1.4-3.4-18.6-0.5-13.6C40.1,50.4,42.7,61.4,41.1,61L41.1,61z"/>
			<path class="st6" d="M38.5,24.1C33.2,16.5,52.3,7.6,57.1,8.8C59.3-2.3,77.7-1.6,82.5,4.4c0.3,0.3,0.2,0.8-0.1,1.1
				c-0.3,0.3-0.8,0.2-1.1-0.1c-1.7-2.2-8.6-4.7-14.5-3.4c-4.2,0.7-7.5,3.9-8.5,8c-0.1,0.4-0.5,0.7-0.9,0.5
				c-2.9-1.3-19.7,4.8-18.2,12.7C39.4,23.6,39,24.1,38.5,24.1z"/>
			<path class="st6" d="M35.6,53.2c-1.1-0.3-5-7.8-5.8-13.1c-1.8-8.5,7.8-18.8,6.6-13.4l0,0C23.5,37.3,39.1,53.1,35.6,53.2
				L35.6,53.2z"/>
			<path class="st6" d="M37.1,61.9c-1.2,0.3-1.5-5.9-1.9-6.4c-0.2-0.9,1.3-1.2,1.5-0.3C36.6,55.9,38.9,62,37.1,61.9z"/>
			<path class="st6" d="M101.2,30.3c-0.5,0-0.9-0.5-0.7-0.9c2.5-9.8-8.1-20.6-16.1-22.7c0-0.4,0.4-0.8,0.8-0.8
				C93.5,5.6,106.5,22.8,101.2,30.3z"/>
			<path class="st6" d="M98.9,47.2c-0.9,0-1-1.4-0.1-1.5c5.8-1.1,1.8-11.3-0.5-13.9c-0.3-0.3-0.3-0.8,0.1-1.1c0.3-0.3,0.8-0.3,1,0
				C102.7,34.5,106.3,46.2,98.9,47.2z"/>
			<path class="st6" d="M97,61.5c-0.5,0-0.9-0.6-0.7-1.1c0.9-1.9,1.9-9.7,1.8-11.7C101.1,43.8,98.8,61.9,97,61.5z"/>
			<path class="st6" d="M44.2,62.9h-2.4c-1,0-1-1.5,0-1.5c0,0,2.4,0,2.4,0C45.2,61.4,45.2,62.9,44.2,62.9L44.2,62.9z"/>
			<path class="st6" d="M93,62.9h-2.4c-1,0-1-1.5,0-1.5c0,0,2.4,0,2.4,0C94,61.3,94,62.9,93,62.9z"/>
		</g>
	</g>
	<path class="st11" d="M499.4,2981.1v-3.1h-7.8v-1.3h7.4v-5.1h-7.4v-1.2h9.9v-1.9h-9.9v-1.3c0.4-0.1,0.6-0.2,0.6-0.4l-3-0.2v1.9
		h-9.7v1.9h9.7v1.2h-7.1v5.1h7.1v1.3h-7.8v1.7h7.8v1.4H479v1.9h10.2v1.6h-8v1.8h8c0.5,2.8-1.7,1.6-4,1.8c0.4,0.6,0.6,1.2,0.8,1.9
		c5.2,0.1,5.7-0.5,5.6-3.7h5.4v1.1h2.4v-4.4h2.7v-1.9H499.4z M484.4,2973.1h4.8v1.9h-4.8V2973.1z M496.6,2975h-5v-1.9h5V2975z
		 M497,2979.6v1.4h-5.4v-1.4H497z M491.6,2984.5v-1.6h5.4v1.6H491.6z M526.8,2969.2h-7.6c0.2-0.5,0.5-1,0.7-1.6
		c0.2,0.1,0.5-0.1,0.6-0.3l-2.8-0.8c-0.9,2.6-2.4,5-4.4,6.9c0.7,0.4,1.3,0.8,1.9,1.4c0.6-0.5,1.1-1.1,1.6-1.7c0.6,1,1.3,1.9,2.1,2.7
		c-1.4,1-2.9,1.8-4.6,2.4c0.3-0.9,0.5-1.7,0.6-2.6c-0.8-0.1-2.8-0.1-3.6-0.1l1.1-1.2c-0.6-0.5-1.3-0.9-2-1.3
		c1.5-1.1,2.8-2.4,3.9-3.9c0.2-0.1,0.3-0.1,0.4-0.3l-1.8-1l-0.4,0.1h-8.5v2h6.7c-0.7,0.8-1.4,1.5-2.2,2.1c-0.8-0.4-1.5-0.7-2.2-1
		l-1.5,1.5c1.9,0.8,3.7,1.8,5.4,3H504v2.1h3.6c-0.8,2.3-2.2,4.4-3.9,6.1c0.5,0.7,0.8,1.5,1.1,2.2c1.5-1.6,2.7-3.5,3.5-5.5v6.9
		c0,0.8-2,0.3-2.8,0.3c0.3,0.7,0.6,1.5,0.7,2.2c3.4,0,4.3-0.3,4.3-2.5v-9.8h1.9c-0.3,1.3-0.7,2.6-1.1,3.9l1.6,0.8
		c0.5-1,0.9-2.1,1.2-3.2c0.3,0.4,0.6,0.8,0.9,1.2c2-0.7,3.9-1.7,5.5-2.9c1.6,1.2,3.4,2.2,5.3,2.8c0.4-0.7,0.9-1.4,1.5-2
		c-1.8-0.4-3.6-1.2-5.2-2.3c1.2-1.3,2.2-2.8,2.9-4.4h1.8V2969.2z M522.6,2971.2c-0.5,1.1-1.2,2.2-2.1,3.1c-1-0.9-1.8-1.9-2.4-3.1
		H522.6z M520.6,2981.2c0.1-0.6,0.2-1.3,0.3-1.9c0.3-0.1,0.5-0.2,0.6-0.4l-2.9-0.2c-0.1,0.8-0.2,1.7-0.4,2.5h-3.8v2h3.3
		c-0.9,2.4-2.7,4.2-5.1,5.1c0.6,0.5,1,1.1,1.4,1.8c3-1.2,5.3-3.7,6.1-6.8h3.3c-0.6,4.8-0.5,4.8-4.2,4.5c0.4,0.7,0.6,1.4,0.7,2.2
		c4.7,0.5,5.4-0.4,6.2-8.4C524.8,2981,521.9,2981.3,520.6,2981.2z"/>
	<path class="st11" d="M754.4,2969.5c-0.8-1.3-1.7-2.6-2.8-3.7l-1.2,0.8c1,1.1,1.9,2.4,2.7,3.7L754.4,2969.5z M751.2,2970.3
		c-0.8-1.4-1.7-2.6-2.8-3.8l-1.2,0.9c0.4,0.4,0.7,0.7,1,1.2h-13.8v2.3h13.8v-2.3c0.6,0.8,1.2,1.7,1.7,2.6L751.2,2970.3z
		 M741.4,2977.6c-0.5,4.1-2,7.5-6.9,10c0.7,0.5,1.3,1.1,1.9,1.7c5-2.5,7-7,7.6-11.2c0.3,0,0.5-0.1,0.6-0.3l-0.5-0.1h7.9v-2.4h-19.7
		v2.3H741.4z M775.6,2967c1.1,1,2,2.1,2.8,3.3l1.1-0.9c-0.8-1.2-1.7-2.3-2.8-3.3L775.6,2967z M777.8,2972.9h-5.2v-4.9
		c0.5-0.1,0.7-0.3,0.7-0.5l-3.2-0.2v5.6h-7v-4.5c0.4-0.1,0.7-0.3,0.7-0.6l-3.1-0.2v5.3h-4.6v2.4h4.6v5.8h2.5v-5.8h7
		c0.1,4.8-0.6,9.2-7.2,12.2c0.7,0.5,1.3,1.1,1.8,1.8c6.8-3.2,8.1-8.3,7.9-13.9h5.2V2972.9z M773.1,2969.1c1,1,1.9,2.1,2.7,3.3
		l1.1-0.9c-0.8-1.2-1.7-2.3-2.7-3.3L773.1,2969.1z M798.8,2967.4c-3.9,4.5-11.4,9.7-18.1,12.8c0.6,0.6,1.1,1.2,1.5,1.9
		c3.1-1.5,6-3.2,8.9-5.1v12.3h2.6V2976c0.3,0,0.5-0.2,0.6-0.4c-0.1-0.1-0.4-0.2-0.7-0.3c2.4-1.8,4.7-3.7,6.9-5.8
		c0.3,0.1,0.6,0,0.8-0.2L798.8,2967.4z M826.5,2973.7h-8.7c0.1-1.8,0.1-3.7,0.1-5.8c0.4,0,0.7-0.2,0.7-0.5l-3.3-0.2
		c0,2.4,0,4.6-0.1,6.5h-9.6v2.4h9.5c-0.5,5.4-2,8.7-7.1,11.5c0.7,0.5,1.4,1.1,2.1,1.7c5.5-3.2,7.1-7.1,7.5-13.2h8.9V2973.7z
		 M830.6,2979.6c0.3,0,0.6-0.2,0.8-0.4h19.9v-2.5h-20.9L830.6,2979.6z"/>
	<path class="st11" d="M1066.2,2970.2c-0.3,0.6-19.1,0-19.5,0.2v2.4h17.2c-2.2,2.9-4.8,5.4-7.7,7.5c-1.6-1.2-3.3-2.3-5.1-3.3
		l-1.7,1.8c4.2,2.5,8,5.7,11.3,9.3l2.2-1.9c-1.5-1.6-3.1-3.1-4.8-4.4c3.7-2.7,7-6,9.7-9.7c0.2,0,0.4-0.2,0.5-0.4L1066.2,2970.2z
		 M1072.1,2979.6c0.3,0,0.6-0.2,0.8-0.4h19.9v-2.5h-20.9L1072.1,2979.6z M1104,2973c0.7-1.5,1.4-3,1.9-4.6c0.3,0,0.6-0.1,0.7-0.4
		l-3.2-0.7c-1.1,4.4-3.8,9.3-6.7,11.8c0.8,0.3,1.5,0.8,2.2,1.2c1.5-1.5,2.7-3.1,3.8-4.9h6.2c-0.6,5.1-2.9,9.7-7.8,12.3
		c0.8,0.5,1.5,1,2.2,1.5c5.2-3,7.4-8,8.2-13.6c0.2,0,0.4-0.1,0.5-0.3h5.7v-2.4H1104z M1139.9,2968.3h-15.4v2.3h15.4V2968.3z
		 M1142.4,2975.3h-20.2v2.3h9.3c-0.5,4.2-1.8,7.3-6.9,9.8c0.7,0.5,1.3,1.1,1.9,1.7c5.3-2.6,6.9-6.7,7.6-11.1c0.2,0,0.5-0.1,0.5-0.3
		l-0.5-0.1h8.2V2975.3z M1162,2971.8c-4.3,4.4-9.3,7.9-14.9,10.4c0.5,0.5,0.9,1,1.2,1.6c2.7-1.3,5.3-2.8,7.7-4.5v10.1h2.1v-10.8
		c0.2,0,0.4-0.1,0.5-0.3c-0.1,0-0.3-0.1-0.6-0.2c1.9-1.4,3.7-2.9,5.4-4.5c0.2,0.1,0.6,0.1,0.7-0.1L1162,2971.8z M1171.9,2971.3
		c2.5,0.9,5,2,7.2,3.4l1.3-2.2c-2.3-1.4-4.8-2.5-7.4-3.3L1171.9,2971.3z M1174.4,2988.8c0.2-0.1,0.4-0.3,0.4-0.6
		c8.4-2.9,14.4-8.2,17.5-15.1c-0.8-0.4-1.6-0.9-2.3-1.4c-3,6.9-8.8,11.8-17.4,14.5L1174.4,2988.8z M1214.3,2966.8
		c1.2,1,2.2,2.1,3.1,3.4l1.2-1c-0.9-1.3-2-2.4-3.2-3.4L1214.3,2966.8z M1210.5,2967.6c1.2,1,2.2,2.1,3.2,3.4l1.2-1
		c-0.9-1.3-2-2.4-3.2-3.4L1210.5,2967.6z M1213.1,2971.4l-0.4,0.2h-7.8c0.5-0.9,1.1-2.1,1.5-3.1c0.3,0,0.6-0.1,0.8-0.4l-3.2-0.8
		c-1.5,4.3-4.2,8.1-7.9,10.9c0.7,0.5,1.4,1,2,1.6c2.1-1.6,3.9-3.6,5.3-5.8h7.9c-1.8,6.1-6.2,11.1-12,13.7c0.7,0.5,1.3,1.2,1.8,1.9
		c6.6-3.3,10.6-8.1,13.4-16.5c0.2-0.1,0.4-0.2,0.5-0.4L1213.1,2971.4z"/>
	<path class="st11" d="M1416.3,2967.8h-10.7v2.1h3l-1.6,0.4c0.8,1.8,1.8,3.4,3.2,4.8c-1.6,1-3.3,1.8-5.1,2.3c0.5,0.6,1,1.2,1.3,1.9
		c2-0.6,3.9-1.6,5.6-2.8c1.8,1.3,3.9,2.2,6.1,2.8c0.4-0.7,0.9-1.4,1.4-2c-2-0.4-3.9-1.1-5.7-2.2c1.9-1.8,3.4-4,4.2-6.4
		c0.1-0.1,0.2-0.2,0.3-0.3l-1.6-0.7L1416.3,2967.8z M1415,2969.9c-0.8,1.5-1.8,2.8-3,3.8c-1.2-1.1-2.1-2.4-2.8-3.8H1415z
		 M1406,2979.9c-0.6-1.9-1.5-3.6-2.5-5.2l-1.7,0.7c0.4,0.7,0.8,1.4,1.2,2.2l-3.4,0.1c1.7-2.2,3.3-4.5,4.8-6.9c0.2,0,0.5-0.1,0.7-0.2
		l-2.3-1.1c-0.7,1.3-1.6,2.9-2.6,4.4c-0.4-0.5-0.7-0.9-1.2-1.4c1-1.5,1.9-3.1,2.6-4.8c0.2,0,0.5-0.1,0.6-0.2l-2.4-1
		c-0.6,1.6-1.3,3.2-2.1,4.6c-0.2-0.2-0.4-0.4-0.7-0.6l-1.2,1.6c1.1,1.1,2.2,2.3,3.1,3.6c-0.5,0.7-1,1.4-1.5,1.9l-1.8,0l0.5,2.4
		c0.2,0,0.4-0.2,0.4-0.4c0.9,0,2-0.1,3.3-0.1v10.4h2.1v-10.5l1.8-0.1c0.2,0.4,0.3,0.9,0.4,1.4L1406,2979.9z M1418,2983.5v-2.1h-4.8
		v-2.8c0.4-0.1,0.6-0.2,0.6-0.4l-2.9-0.2v3.4h-4.5v2.1h4.5v3.6h-5.9v2.1h14.2v-2.1h-6v-3.6H1418z M1402.4,2981.6
		c0.7,1.6,1.2,3.3,1.6,5c0.9-0.3,1.4-0.5,1.9-0.7c-0.4-1.7-1-3.3-1.7-4.9L1402.4,2981.6z M1396.9,2981.2c-0.2,2-0.7,4.1-1.4,6
		c0.6,0.2,1.2,0.5,1.7,0.8c0.8-1.9,1.3-3.9,1.6-6c0.2,0,0.5,0,0.5-0.3L1396.9,2981.2z M1437.7,2983.8h5.9v-2.1h-5.9v-2.5h5.7v-11.3
		h-13.3v11.3h5.4v2.5h-5.5v2.1h5.5v3.3h-7.2v2.2h16v-2.2h-6.7V2983.8z M1435.5,2969.9v2.6h-3.3v-2.6H1435.5z M1437.7,2972.6v-2.6
		h3.4v2.6H1437.7z M1432.2,2974.5h3.3v2.7h-3.3V2974.5z M1437.7,2977.1v-2.7h3.4v2.7H1437.7z M1426.4,2977.5h2.8v-2.2h-2.8v-5.1h3
		v-2.2h-8.4v2.2h3.1v5.1h-2.9v2.2h2.9v6.1c-1.3,0.4-2.5,0.7-3.5,0.9l0.8,2.5c0.2-0.1,0.3-0.2,0.3-0.4c2-0.6,5.1-1.5,8.1-2.4
		c-0.2-1.8-0.3-1.9-0.3-2l-3.1,0.8V2977.5z"/>
	<g transform="translate(1357.584 2574.518) rotate(90)">
		<path class="st4" d="M75,301.8l2.5-32.5h47.1c8.3,0,15.1-13.2,15.1-29.6V33.1c0-16.3-6.7-29.6-15.1-29.6H19.5
			c-8.3,0-15.1,13.2-15.1,29.6v206.6c0,16.3,6.7,29.6,15.1,29.6h47.1l2.5,32.5"/>
		<path d="M71.3,299.4c-0.7,0-1.1-1.2-1-2.3c0.4-0.9,1.8-34.9,3.5-33.9c0,0,46.9,0,46.9,0c7.7,0,14-12.3,14-27.3
			c0,0,0-204.7,0-204.7c0-15.1-6.3-27.3-14-27.3H16C8.3,4,2,16.2,2,31.3V236c0,15.1,6.3,27.3,14,27.3c0.8,0.9,49.8-2.1,47.9,1.7
			c-0.4,0.5,3.9,35.5,1.7,34.4c-2.1,1.8-3-31.9-3.6-32.2H16c-8.8,0-16-14-16-31.3V31.3C0,14,7.2,0,16,0h104.7c8.8,0,16,14,16,31.3
			V236c0,17.2-7.2,31.3-16,31.3h-46C74.3,268,73.1,300.2,71.3,299.4z"/>
	</g>
	<g transform="translate(19.566 142.078)">
		<g transform="translate(1328.434 2084.847) rotate(90)">
			<path class="st4" d="M60.1,303.7l2-32.7h37.1c6.6,0,11.9-13.3,11.9-29.8V33.3c0-16.4-5.3-29.8-11.9-29.8H16.3
				C9.7,3.5,4.4,16.9,4.4,33.3v207.9c0,16.4,5.3,29.8,11.9,29.8h37.1l2,32.7"/>
			<path d="M56.4,301.3c-1.7,2.2,0.9-37.7,2-36.4c0,0,37.1,0,37.1,0c6.1,0,11.1-12.3,11.1-27.5v-206c0-15.2-5-27.5-11.1-27.5
				c0,0-82.8,0-82.8,0C6.6,4,1.6,16.3,1.6,31.5v206c0,15.2,5,27.5,11.1,27.5h37.1c0.4,0,0.7,0.7,0.8,1.7l2,32.4
				c0.2,2.2-1.3,3.5-1.6,0.6c0,0-1.9-30.7-1.9-30.7H12.7c-7,0-12.7-14.1-12.7-31.5v-206C0,14.1,5.7,0,12.7,0h82.8
				c7,0,12.7,14.1,12.7,31.5v206c0,17.4-5.7,31.5-12.7,31.5H59.1C58.7,269.6,57.9,302,56.4,301.3z"/>
		</g>
		<text transform="matrix(1 0 0 1 1095 2148)" class="st12 st13">作業をお願いします。</text>
	</g>
	<path d="M1140,2594.7c-0.2,1.8-0.5,3.7-0.8,5.2l-4,0.4l0.2,2.1l3.5-0.5c-0.8,3.5-2.1,6.9-3.9,10l1.9,0.9c1.9-3.5,3.2-7.3,4.1-11.1
		c2.5-0.5,5-0.3,4.8,3.3c0,3.5-1.2,8.3-5.5,4.5c-0.2,0.6-0.4,1.2-0.7,1.8c9,8.2,12.5-14.7,1.9-11.5c0.3-1.2,0.6-3.2,0.8-4.2
		c0.4,0,0.6-0.1,0.7-0.4L1140,2594.7z M1153.9,2604.5c-0.8-3-2.5-5.6-5-7.4l-1.6,1.2c2.2,1.8,3.8,4.3,4.4,7.1L1153.9,2604.5z
		 M1159.8,2594.8c-0.2,2.6-0.3,8.9-0.3,11.6c-0.6,8.6,10.7,7.6,14.5,2.4c-0.5-0.6-0.9-1.2-1.2-1.8c-12.6,10.7-11.5-2.8-10.7-11.5
		c0.4,0,0.6-0.2,0.7-0.5L1159.8,2594.8z M1185.1,2601.8c1.2-1,4.3-3.1,7-3.4l-0.2-2.2c-3.6,0.7-8.3,0.7-12.1,0.7c0,0.5,0,1.5,0,2
		c2.2,0,4.4,0,6.7-0.2v0c-1.1,0.6-2.2,1.3-3.2,2.1L1185.1,2601.8z M1193.1,2609.5c-4.3,1.1-16.4,1.5-10.4-5.5l-1.8-0.8
		c-7.4,9,6.1,9.9,12.3,8.4L1193.1,2609.5z M1199.1,2599c2.2,0.1,4.9,0.1,7.2,0c0,1.1,0.1,2.3,0.1,3.4c-1.9,0.1-6.7,0.2-2.9-1.8
		l-1.4-0.8c-4.9,3.2-0.4,4.8,4.4,4.3c0,0.9,0.1,1.8,0.1,2.6c-6.3-1.9-10,6-1.9,6.3c3.2,0,4.3-1.5,4.1-3.8c1.7,0.8,3.2,1.7,4.6,2.9
		l1.3-1.8c-1.8-1.3-3.8-2.4-5.9-3.1c0-0.8-0.1-1.9-0.1-3.1c1.9-0.1,3.9-0.3,5.8-0.7l-0.2-1.8c-1.8,0.4-3.7,0.7-5.6,0.8l-0.1-3.4
		c2.3-0.1,4.6-0.3,6.9-0.7l-0.2-1.9c-2.2,0.4-4.4,0.7-6.6,0.8c0-0.7,0-1.5,0-2.1c0.4-0.1,0.5-0.2,0.5-0.4l-2.7-0.1
		c0,0.7,0,1.8,0,2.8c-2.2,0.1-5,0.1-7.1,0L1199.1,2599z M1206.6,2609.5c0.5,2.7-4.9,2.2-4.8,0.3c0.1-1.8,3.3-1.8,4.8-1.3V2609.5z
		 M1231.3,2594.9c0.4,6.9,2.8,12.9-6.6,16.6c0.5,0.5,1,1.1,1.5,1.7c9.8-3.8,7.9-10.8,7.5-17.7c0.4-0.1,0.5-0.2,0.5-0.5
		L1231.3,2594.9z M1224.7,2606.1c-0.3-1.5,0.7-2.6,2.1-5c-0.4-0.4-0.7-0.9-1-1.3c-0.6,1-1.1,2-1.6,3c-0.1-2.2,0.2-4.4,0.7-6.6
		c0.3,0,0.5-0.1,0.6-0.4l-2.7-0.4c-0.6,3.6-1.1,7.4-0.1,10.9L1224.7,2606.1z M1241.1,2599c2.2,0.1,4.9,0.1,7.2,0
		c0,1.1,0.1,2.3,0.1,3.4c-1.9,0.1-6.7,0.2-2.9-1.8l-1.4-0.8c-4.9,3.2-0.4,4.8,4.4,4.3c0,0.9,0.1,1.8,0.1,2.6c-6.3-1.9-10,6-1.9,6.3
		c3.2,0,4.3-1.5,4.1-3.8c1.7,0.8,3.2,1.7,4.6,2.9l1.3-1.8c-1.8-1.3-3.8-2.4-5.9-3.1c0-0.8-0.1-1.9-0.1-3.1c1.9-0.1,3.9-0.3,5.8-0.7
		l-0.2-1.8c-1.8,0.4-3.7,0.7-5.6,0.8l-0.1-3.4c2.3-0.1,4.6-0.3,6.9-0.7l-0.2-1.9c-2.2,0.4-4.4,0.7-6.6,0.8c0-0.7,0-1.5,0-2.1
		c0.4-0.1,0.5-0.2,0.5-0.4l-2.7-0.1c0,0.7,0,1.8,0,2.8c-2.2,0.1-5,0.1-7.1,0L1241.1,2599z M1248.6,2609.5c0.5,2.7-4.9,2.2-4.8,0.3
		c0.1-1.8,3.3-1.8,4.8-1.3V2609.5z M1264.8,2594.8c-0.2,2.6-0.3,8.9-0.3,11.6c-0.6,8.6,10.7,7.6,14.5,2.4c-0.5-0.6-0.9-1.2-1.2-1.8
		c-12.6,10.7-11.5-2.8-10.7-11.5c0.4,0,0.6-0.2,0.7-0.5L1264.8,2594.8z M1294,2597.1c-1.7,0.6-3.5,1-5.3,1.1
		c0.2-1.1,0.4-2.2,0.5-3.1c0.3,0,0.5-0.2,0.6-0.5l-2.8-0.3c-0.1,1.3-0.3,2.7-0.5,4c-1.2,0-3,0-4,0l0,2c1,0,2.5,0,3.7,0
		c-0.7,4.2-1.9,8.2-3.7,12l2.1,0.8c1.7-4.1,3-8.5,3.7-12.9c2.1-0.1,4.1-0.5,6.1-1.1L1294,2597.1z M1292.4,2604.2
		c2.3-0.6,4.7-0.9,7.1-0.8v-2c-2.6,0-5.1,0.3-7.6,1.1L1292.4,2604.2z M1300,2610.7c-3.5,0.4-9.9,0.2-6.2-3.7l-1.8-0.7
		c-4.7,5.7,3.7,7.2,8,6.5L1300,2610.7z M1305.5,2607.8c-3.8,0-3.8,5.9,0,5.9C1309.3,2613.7,1309.3,2607.8,1305.5,2607.8z
		 M1305.5,2612.8c-2.7,0.1-2.7-4.2,0-4.1C1308.1,2608.7,1308.1,2612.9,1305.5,2612.8z M1140.7,2639.7v10.6h1.8v-9.1h8.6v7.2
		c-0.1,0.6-0.8,0.2-1.5,0.3v-3.8h-2.1v-1.2h3v-1.2h-3v-0.8c0.3,0,0.4-0.1,0.4-0.3l-1.9-0.1v1.3h-2.9v1.2h2.9v1.2h-2v4.6h1.4v-0.8
		h4.1c0.2,0.5,0.4,0.9,0.5,1.4c2.3,0,3-0.1,3-1.8v-8.8h-3.1c0.4-0.6,0.7-1.3,1-1.8c0.3,0,0.4-0.1,0.5-0.2l-0.7-0.2h3.1v-1.6h-6.1
		v-1.3c0.3,0,0.5-0.2,0.5-0.3l-2.4-0.1v1.8h-5.9v1.6h3.5l-0.8,0.2c0.4,0.7,0.6,1.4,0.8,2.1L1140.7,2639.7z M1144.9,2639.7l0.3-0.1
		c-0.2-0.8-0.5-1.5-0.9-2.2h4.7c-0.2,0.8-0.5,1.5-0.9,2.2l0.1,0H1144.9z M1145.3,2647.7v-1.6h2.9v1.6L1145.3,2647.7z M1134.6,2635.7
		c1.3,1,2.4,2.2,3.3,3.5l1.6-1.2c-0.9-1.3-2.1-2.5-3.4-3.4L1134.6,2635.7z M1134.5,2642.3v1.8h2.6v5.1c-0.9,0.8-1.8,1.5-2.8,2.2
		l1,2.1c0.2-0.1,0.2-0.2,0.2-0.4c0.8-0.7,1.7-1.5,2.6-2.4c2.4,3.7,10.9,2.3,15.3,2.4c0.1-0.7,0.3-1.3,0.6-2
		c-4-0.1-12.7,1.6-15.1-2.1v-6.9H1134.5z M1159.5,2641.7l4.8-1c-0.1-0.8-0.2-1.3-0.3-1.8c-1.1,0.2-2.2,0.4-4.5,0.9v-4.6
		c0.3-0.1,0.5-0.2,0.5-0.4l-2.5-0.1v5.5l-2.5,0.5l0.3,1.8l2.2-0.4c0.3,2-1.2,8,2.2,7.5c2.8,0.1,4.1,0.4,4.3-4
		c-0.6-0.2-1.2-0.4-1.8-0.8c-0.1,3.6-0.1,2.8-2.2,2.9C1158.9,2648,1159.8,2642.3,1159.5,2641.7z M1173.1,2635.8h-10v1.9h3.5
		c-0.1,5.6-0.5,11.4-5.6,14.5c0.6,0.4,1.1,1,1.4,1.6c5.6-3.5,6-10.2,6.2-16h3.9c-1.1,11.3,1.3,14.5-4.9,13.7c0.3,0.6,0.6,1.3,0.6,2
		c8.1,0.6,5.1-4.3,6.4-17.5C1174.4,2635.8,1173.4,2635.8,1173.1,2635.8z M1188.5,2644c0,0.8,0.1,2,0.1,3.2c-2.4-0.8-6.1,0-6.2,3
		c0,4.9,9.2,3.6,8.2-0.2c1.2,0.6,2.3,1.2,3.3,2l1-1.9c-1.3-0.9-2.8-1.7-4.3-2.3c-0.1-1.3-0.2-2.5-0.2-4L1188.5,2644z M1188.7,2649.8
		c0.2,2.5-4.6,2.3-4.5,0.3c0.1-1.9,3.1-1.7,4.5-1.1V2649.8z M1182.1,2634.4c-0.1,1.2-0.3,2.3-0.5,3.4c-1.1,0-3.1,0-4.3,0v1.9
		c1,0,3,0,3.9,0c-0.7,3.4-2.1,6.5-4.1,9.4l2.1,0.8c2-3.1,3.4-6.6,4.2-10.2c2.1-0.2,4.2-0.5,6.3-0.9l-0.3-2c-1.8,0.5-3.7,0.9-5.7,1
		c0.2-0.7,0.4-1.8,0.5-2.6c0.3,0,0.5-0.2,0.6-0.4L1182.1,2634.4z M1194.6,2639.9c-2.6,0.1-5.1,0.4-7.6,1.1l0.3,1.8
		c2.4-0.6,4.9-0.9,7.3-0.9L1194.6,2639.9z M1205.8,2634.6c-0.1,2.8,0,12.8-8.6,17.3c0.6,0.4,1.2,0.9,1.7,1.6
		c4.2-2.5,7.2-6.7,8.2-11.5c1.1,4.1,3.5,9,8.7,11.5c0.4-0.7,0.9-1.2,1.5-1.7c-8.1-4-9.3-12.8-9.3-16.6c0.3-0.1,0.5-0.2,0.5-0.4
		L1205.8,2634.6z M1224.1,2640.4h3v-1.9h-3v-4c0.3-0.1,0.5-0.2,0.5-0.4l-2.4-0.1v4.5h-3.5v1.9h3.3c-0.8,2.8-2.1,5.4-3.8,7.6
		c0.4,0.6,0.8,1.2,1,1.9c1.3-1.8,2.4-3.7,3.1-5.8v9.6h1.9v-9.5c0.7,0.9,1.4,1.9,2,2.9l1.2-1.7c-0.5-0.6-2.5-2.9-3.2-3.6
		L1224.1,2640.4z M1235.9,2638.5v-4c0.3,0,0.5-0.2,0.5-0.4l-2.5-0.1v4.5h-6.3v1.9h5.5c-1.6,3.3-3.9,6.1-6.8,8.2c0.5,0.5,1,1,1.4,1.6
		c2.5-2.1,4.6-4.6,6.2-7.4v8.3c0.2,1-2.6,0.4-3.5,0.5c0.3,0.7,0.5,1.4,0.7,2.1c4.3,0,4.9-0.5,4.9-2.6v-10.7h2.2v-1.9H1235.9z
		 M1244.5,2641.9c1.2-1.4,1.9-2.1,2.6-2.1c3.3,1.9,6.9,8.3,10.4,10.9l1.6-1.9c-9.6-7.5-8.9-18-19.8-4.8l1.8,2.1
		c0.2-0.2,0.3-0.4,0.3-0.7L1244.5,2641.9z M1263.3,2653.7h2v-13.8c0.3,0,0.5-0.1,0.5-0.3l-0.7-0.2c0.7-1.4,1.4-2.8,1.9-4.2
		c0.2,0,0.4-0.1,0.5-0.2l-2.3-0.8c-1.1,3.4-2.9,6.6-5.3,9.2c0.4,0.6,0.7,1.3,1,2c0.9-1,1.7-2,2.4-3L1263.3,2653.7z M1280.1,2637.5
		h-9.1c0.3-0.8,0.6-1.6,0.9-2.3c0.3,0,0.5-0.1,0.5-0.2l-2.4-0.7c-0.8,3-2.3,5.9-4.2,8.3c0.5,0.4,1,0.9,1.5,1.4
		c1.1-1.4,2.1-2.9,2.8-4.5h1.5v14.2h2.1v-5h6.1v-1.9h-6.1v-2.9h5.8v-1.8h-5.8v-2.7h6.4V2637.5z M1300.5,2647.1h-8.4v-1.3h6.6v-1.5
		h-6.6v-1.3h7.6v-1.6h-4.6c0.4-0.5,0.7-1.1,1-1.7c0.3,0,0.4-0.1,0.5-0.2l-0.4-0.1h4.3v-1.7h-3.1c0.6-0.8,1.1-1.6,1.5-2.5
		c0.3,0,0.4-0.1,0.5-0.2l-2.3-0.7c-0.4,1.1-1,2.1-1.6,3.1l0.8,0.3h-2.2v-3.1c0.3,0,0.5-0.2,0.5-0.4l-2.4-0.1v3.7h-2.1v-3.2
		c0.3,0,0.5-0.2,0.5-0.4l-2.4-0.1v3.7h-2.4l1.1-0.4c-0.4-1.1-1-2.1-1.7-3.1l-1.7,0.6c0.6,0.9,1.1,1.9,1.6,2.9h-3.2v1.7l4.9,0v0
		l-0.5,0.1c0.4,0.6,0.7,1.3,0.9,2h-4.4v1.6h7.4v1.3h-6.3v1.5h6.3v1.3h-8.3v1.7h6.6c-2.2,1.4-4.7,2.4-7.2,3c0.5,0.5,0.9,1.1,1.3,1.7
		c2.8-0.8,5.4-2.1,7.6-3.8v4.2h2v-4.3c2.2,1.9,4.8,3.3,7.7,4c0.4-0.7,0.8-1.2,1.3-1.8c-2.6-0.5-5.1-1.5-7.3-2.9h6.7V2647.1z
		 M1293.3,2641.4h-4.7l0.6-0.1c-0.2-0.7-0.5-1.3-0.9-1.9h5.8c-0.3,0.7-0.6,1.3-1,2L1293.3,2641.4z M1320.2,2641.4
		c-1.6,0.6-3.7,1.4-5.4,2.2c-0.5-3.3-3.8-3-5.7-1.4h0c0.6-0.9,1-1.9,1.3-3c2.6,0,5.2-0.4,7.7-1.1l-0.4-2c-2.2,0.7-4.5,1.1-6.8,1.2
		c0.2-0.7,0.4-1.4,0.5-2.1c0.3,0,0.5-0.2,0.5-0.4l-2.6-0.3c-0.1,1.1-0.3,2-0.5,2.9c-1.6,0-3.1,0-4.9,0v1.9c1.5,0,3,0,4.3,0
		c-0.8,2.9-2.7,5.4-5.1,7.3l1.4,1.4c2.2-2.1,6.9-8,8.3-3.5c-11.8,6.3-1.8,9.8,5.9,8.3l0-2c-4.6,0.8-14.4,0.2-5.6-4.5
		c0,0.9,0,1.9-0.1,2.8l2.1-0.1c0.1-1.2,0.1-2.4,0-3.5c1.7-0.7,3.8-1.4,5.4-1.9c0.1,0.1,0.3,0.1,0.5,0.1L1320.2,2641.4z
		 M1145.1,2674.5c0.3-0.1,0.5-0.2,0.5-0.4l-2.6-0.1v2.8h-7.3v12.4h2v-1.2h5.3v5.7h2.1v-5.7h5.6v1.1h2.1v-12.2h-7.7V2674.5z
		 M1143.1,2681.5h-5.3v-2.7h5.3V2681.5z M1150.7,2681.5h-5.6v-2.7h5.6V2681.5z M1137.8,2683.3h5.3v2.8h-5.3V2683.3z M1145.1,2683.3
		h5.6v2.8h-5.6V2683.3z M1159.8,2674.8c-0.2,2.6-0.3,8.9-0.3,11.6c-0.6,8.6,10.7,7.6,14.5,2.4c-0.5-0.6-0.9-1.2-1.2-1.8
		c-12.6,10.7-11.5-2.8-10.7-11.5c0.4,0,0.6-0.2,0.7-0.5L1159.8,2674.8z M1195.7,2682.4h-6v-2.6h5.3v-1.8h-3.2c0.7-0.9,1.4-1.8,2-2.8
		c0.3,0,0.5-0.1,0.5-0.2l-2.3-0.9c-0.6,1.2-1.3,2.4-2,3.5l0.9,0.4h-4.9l1.2-0.5c-0.4-1.2-1.1-2.3-1.9-3.3l-1.7,0.7
		c0.7,1,1.3,2,1.7,3.2h-2.4v1.8h4.8v2.6h-5.5v1.8h5.2c-0.4,1.7-1.7,3.5-5.2,4.9c0.5,0.4,1,0.9,1.3,1.4c3.1-1.4,4.6-3.1,5.4-4.9
		c1,2.4,3,4.2,5.4,5c0.3-0.6,0.8-1.2,1.3-1.7c-2.5-0.6-4.5-2.3-5.4-4.7h5.3L1195.7,2682.4z M1176.7,2675.7c1.4,0.9,2.6,2.1,3.6,3.4
		l1.6-1.3c-1-1.3-2.3-2.4-3.7-3.3L1176.7,2675.7z M1176.5,2682.3v1.8h2.8v5c-1,0.8-2,1.5-3.1,2.2l1,2.2c0.2-0.1,0.3-0.2,0.3-0.4
		c0.8-0.7,1.9-1.5,2.9-2.4c2.4,3.6,10.6,2.4,15.1,2.4c0.1-0.7,0.4-1.4,0.7-2c-4.1-0.2-12.2,1.7-14.9-2.1v-6.8H1176.5z
		 M1210.3,2674.9c0.4,6.9,2.8,12.9-6.6,16.6c0.5,0.5,1,1.1,1.5,1.7c9.8-3.8,7.9-10.8,7.5-17.7c0.4-0.1,0.5-0.2,0.5-0.5
		L1210.3,2674.9z M1203.7,2686.1c-0.3-1.5,0.7-2.6,2.1-5c-0.4-0.4-0.7-0.9-1-1.3c-0.6,1-1.1,2-1.6,3c-0.1-2.2,0.2-4.4,0.7-6.6
		c0.3,0,0.5-0.1,0.6-0.4l-2.7-0.4c-0.6,3.6-1.1,7.4-0.1,10.9L1203.7,2686.1z M1220.1,2679c2.2,0.1,4.9,0.1,7.2,0
		c0,1.1,0.1,2.3,0.1,3.4c-1.9,0.1-6.7,0.2-2.9-1.8l-1.4-0.8c-4.9,3.2-0.4,4.8,4.4,4.3c0,0.9,0.1,1.8,0.1,2.6c-6.3-1.9-10,6-1.9,6.3
		c3.2,0,4.3-1.5,4.1-3.8c1.7,0.8,3.2,1.7,4.6,2.9l1.3-1.8c-1.8-1.3-3.8-2.4-5.9-3.1c0-0.8-0.1-1.9-0.1-3.1c1.9-0.1,3.9-0.3,5.8-0.7
		l-0.2-1.8c-1.8,0.4-3.7,0.7-5.6,0.8l-0.1-3.4c2.3-0.1,4.6-0.3,6.9-0.7l-0.2-1.9c-2.2,0.4-4.4,0.7-6.6,0.8c0-0.7,0-1.5,0-2.1
		c0.4-0.1,0.5-0.2,0.5-0.4l-2.7-0.1c0,0.7,0,1.8,0,2.8c-2.2,0.1-5,0.1-7.1,0L1220.1,2679z M1227.6,2689.5c0.5,2.7-4.9,2.2-4.8,0.3
		c0.1-1.8,3.3-1.8,4.8-1.3V2689.5z M1240.1,2679.5c2.3-0.1,5.8-0.2,9.2-0.3c0,0.9,0,1.6,0.1,2.2c-7.3-3-7.1,10.3-0.3,6.6h0
		c-0.6,1.6-2.4,3-5.1,4c0.6,0.5,1.1,1.1,1.5,1.6c6.7-2,6.6-8.4,5.9-14.4c2.6-0.1,5.1-0.1,6.7-0.1v-2c-1.3,0-4.1,0.1-6.7,0.2
		c0-0.9,0-1.9,0-2.5c0.4-0.1,0.6-0.3,0.6-0.5l-2.9-0.1c0,0.6,0.1,2.8,0.1,3.1c-1.4,0.1-7.9,0.2-9.2,0.3L1240.1,2679.5z
		 M1247.7,2687.1c-2.8,0-2.6-4.5,0.1-4.4C1250.4,2682.4,1250.4,2687.2,1247.7,2687.1z M1261.6,2687.8c-7.6,1.6,1.3,10.5,2.9,2.9l0,0
		C1264.5,2689.1,1263.2,2687.8,1261.6,2687.8z M1261.6,2692.8c-2.7,0.1-2.7-4.2,0-4.1C1264.2,2688.6,1264.3,2692.9,1261.6,2692.8z"
		/>
	<path class="st14" d="M670.7,2372.7c-0.8-1.9,13.8-0.6,14.2-1c2.6,0.1,10.1,6.2,12.7,6.3c0.3,0.4,18.7-1,17.7,0.9
		c-0.4,0.8,1,5.6-0.8,5.5c0,0-37,0.2-37,0.2c-0.5,0-1,0.4-1.1,0.9c0.2,0-4.6,21.9-3.8,20.5c0,0,7.4-17.7,7.4-17.7
		c0.2-0.5,0.7-0.8,1.2-0.8h38.1c2.3-0.5-7.7,23.5-7.3,23.9c-0.2,0.5-0.7,0.8-1.2,0.8h-39.5c-0.5,0-0.9-0.4-0.9-0.9
		C670.5,2411.4,670.7,2372.7,670.7,2372.7z"/>
	<path class="st14" d="M770.7,2372.7c-0.8-1.9,13.8-0.6,14.2-1c2.6,0.1,10.1,6.2,12.7,6.3c0.3,0.4,18.7-1,17.7,0.9
		c-0.4,0.8,1,5.6-0.8,5.5c0,0-37,0.2-37,0.2c-0.5,0-1,0.4-1.1,0.9c0.2,0-4.6,21.9-3.8,20.5c0,0,7.4-17.7,7.4-17.7
		c0.2-0.5,0.7-0.8,1.2-0.8h38.1c2.3-0.5-7.7,23.5-7.3,23.9c-0.2,0.5-0.7,0.8-1.2,0.8h-39.5c-0.5,0-0.9-0.4-0.9-0.9
		C770.5,2411.4,770.7,2372.7,770.7,2372.7z"/>
	<g transform="translate(-2 51.526)">
		<path class="st8" d="M905.3,2481.4c1.4-1.4,3.6-1.4,5,0l16.7,16.7v-63.5c0-2,1.6-3.6,3.6-3.6c2,0,3.6,1.6,3.6,3.6v63.5l16.7-16.7
			c3.2-3.3,8.4,1.8,5,5c0,0-22.8,22.6-22.8,22.6l0,0c-1.3,1.3-3.7,1.3-5,0c0,0-22.8-22.6-22.8-22.6
			C904,2485,904,2482.8,905.3,2481.4z"/>
		<path class="st8" d="M1009,2459.6c-1.4,1.4-3.6,1.4-5,0l-16.7-16.7v63.5c0,2-1.6,3.6-3.6,3.6c-2,0-3.6-1.6-3.6-3.6V2443
			l-16.7,16.7c-3.2,3.3-8.4-1.8-5-5c0,0,22.8-22.6,22.8-22.6l0,0c1.3-1.3,3.7-1.3,5,0c0,0,22.8,22.6,22.8,22.6
			C1010.3,2456,1010.4,2458.2,1009,2459.6z"/>
		<rect x="1037" y="2420" class="st5" width="35" height="90"/>
		<rect x="834" y="2423" class="st5" width="35" height="90"/>
		<rect x="1092" y="2420" class="st5" width="35" height="90"/>
		<path class="st8" d="M1058.9,2446.2c0-1.1,0.1-2.3,0.1-3.5c0.3,0,0.5-0.2,0.5-0.4l-2.4-0.1c0,1.4,0,2.7-0.1,4h-4.1v6.4
			c-0.5-1.3-1.2-2.5-2-3.7l-1.4,0.6c0.4,0.6,0.7,1.2,1,1.8l-3.1,0.1c1.5-1.8,2.8-3.7,4.1-5.7c0.2,0,0.4-0.1,0.5-0.2l-2-0.9
			c-0.7,1.3-1.4,2.6-2.2,3.8c-0.3-0.4-0.7-0.8-1-1.2c0.8-1.3,1.6-2.6,2.2-4c0.3,0,0.4-0.1,0.5-0.2l-2-0.8c-0.5,1.4-1.1,2.7-1.8,3.9
			l-0.5-0.5l-1,1.3c1,0.9,1.9,1.9,2.6,3c-0.4,0.6-0.8,1.1-1.2,1.6l-1.6,0l0.4,2.1c0.2,0,0.3-0.1,0.4-0.3c0.8,0,1.7-0.1,2.8-0.1v8.7
			h1.8v-8.8l1.8-0.1c0.2,0.3,0.3,0.7,0.4,1.1l1.3-0.7v8.5h1.8v-5.7c0.3,0.3,0.6,0.6,0.9,1c1.2-1.3,2.1-2.9,2.5-4.7
			c0.8,1.4,1.6,2.9,2.2,4.4l1-0.9v3.8c-0.1,0.7-1.7,0.2-2.3,0.3c0.3,0.6,0.4,1.2,0.5,1.8c2.7,0,3.6-0.2,3.6-2.1v-13.5H1058.9z
			 M1056.9,2448c-0.2,3-0.8,5.6-2.2,7.4v-7.4H1056.9z M1061.3,2454.8c-0.8-1.7-1.8-3.3-2.8-4.9c0.1-0.6,0.2-1.2,0.2-1.9h2.6V2454.8z
			 M1049.8,2454.9c0.6,1.3,1,2.7,1.3,4.2c0.7-0.3,1.2-0.4,1.6-0.6c-0.3-1.4-0.8-2.8-1.4-4.1L1049.8,2454.9z M1045.1,2454.5
			c-0.2,1.7-0.6,3.4-1.2,5c0.5,0.2,1,0.4,1.4,0.7c0.7-1.6,1.1-3.3,1.3-5c0.2,0,0.4,0,0.5-0.2L1045.1,2454.5z M1048.5,2472.9v7.8h11
			v-7.8L1048.5,2472.9z M1050.5,2478.8v-4h7.1v4L1050.5,2478.8z M1047,2491.8v-0.9h4v0.8h2v-9h-7.9v9.2L1047,2491.8z M1051,2489h-4
			v-4.5h4V2489z M1055,2491.8h1.9v-0.9h4.2v0.8h2v-9h-8.1V2491.8z M1056.9,2484.6h4.2v4.4h-4.2V2484.6z"/>
		<path class="st8" d="M1114.8,2459.3v-1.7h3.1v-1.5h-3.1v-1.7h3.1v-1.5h-3.1v-1.6h3.6v-1.7h-3.3c0.3-0.6,0.6-1.2,0.8-1.7
			c0.3,0,0.4-0.1,0.5-0.2l-2.2-0.6c-0.3,0.9-0.6,1.8-0.9,2.6h-1.9c0.6-1.1,1.1-2.2,1.5-3.4h4v2.3h1.8v-3.9h-5.2
			c0.2-0.6,0.3-1.2,0.5-1.7c0.3,0,0.5-0.1,0.5-0.3l-2.3-0.5c-0.2,0.9-0.4,1.7-0.7,2.5h-4.3v3.9h1.7v-2.2h2c-0.8,2.4-2.3,4.6-4.3,6.3
			v-2.7h-3.9c0.4-1.5,0.7-3.1,1-4.6h3.5v-1.8h-7.7v1.8h2.3c-0.5,3.7-1.4,7.2-2.8,9.2c0.4,0.6,0.7,1.2,1,1.8c0.4-0.5,0.8-1.1,1.1-1.7
			v6.5h1.6v-1.7h4v-6.5c0.3,0.5,0.6,1.1,0.9,1.6c0.5-0.3,0.9-0.7,1.3-1.1v8.6h1.9v-0.9h8.2v-1.7H1114.8z M1110.6,2456.2v-1.7h2.3
			v1.7H1110.6z M1110.6,2453v-1.6h2.3v1.6H1110.6z M1112.9,2457.7v1.7h-2.3v-1.7H1112.9z M1102.6,2457.6v-5.9h2.3v5.9H1102.6z
			 M1116.3,2474.6c-0.4,5.4,0.3,5.9-3.4,5.5c0.3,0.5,0.4,1.1,0.5,1.7c5.6,0.5,4.2-1.8,4.8-8.8c-1.2-0.2-9-0.1-10.4-0.1v1.7h3.4
			c-0.1,0.6-0.2,1.1-0.4,1.7c-0.7-0.3-1.5-0.6-2.2-0.9l-0.9,1.4c0.9,0.3,1.7,0.6,2.5,1c-0.7,1.4-1.9,2.5-3.3,3.2
			c0.5,0.4,0.9,0.9,1.2,1.4c1.6-0.9,2.9-2.2,3.7-3.8c0.7,0.4,1.3,0.8,2,1.2l1-1.6c-0.7-0.5-1.5-0.9-2.3-1.3c0.3-0.8,0.5-1.6,0.6-2.4
			H1116.3z M1099.2,2475.7v1.6h7.6v-1.6H1099.2z M1100.1,2484.4v7.2h1.7v-0.9h4.5v-6.3H1100.1z M1104.5,2489.1h-2.8v-3.1h2.8
			L1104.5,2489.1z M1100.2,2472.9v1.6h5.9v-1.6H1100.2z M1100.1,2478.6v1.6h6.1v-1.6H1100.1z M1115.3,2484.3
			c-1.1-1.1-2.4-2.1-3.7-2.9l-1.2,1.1c1.4,0.8,2.6,1.8,3.7,3L1115.3,2484.3z M1106.2,2483v-1.6h-6.1v1.6H1106.2z M1112,2485
			c0.3,0,0.5-0.1,0.5-0.3l-2.3-0.1c0.4,1.8-1.3,7.5,2.1,7c2.4,0,3.8,0.6,4-3.2c-0.6-0.1-1.1-0.4-1.6-0.7c0,3-0.4,2.1-2,2.2
			C1111.4,2490.1,1112.2,2485.5,1112,2485z M1119.1,2490c-0.5-1.8-1.3-3.6-2.4-5.1l-1.6,0.7c1.1,1.6,1.8,3.3,2.2,5.2L1119.1,2490z
			 M1107.9,2485.2c-0.1,1.6-0.6,3.2-1.6,4.5l1.4,1c1.1-1.2,1.5-3.2,1.7-5.1L1107.9,2485.2z"/>
		<path class="st8" d="M845.5,2442.3c-1,3.3-2.6,6.4-4.8,9.1c0.4,0.6,0.7,1.3,0.9,2c0.7-0.9,1.4-1.8,2-2.8v11.3h1.9v-14.2
			c0.3,0,0.4-0.1,0.5-0.3l-0.6-0.2c0.6-1.3,1.2-2.6,1.7-4c0.3,0,0.5,0,0.5-0.2L845.5,2442.3z M860.9,2447.8v-1.9h-6.1v-3
			c0.3-0.1,0.5-0.2,0.5-0.4l-2.5-0.1v3.5h-6.1v1.9h5.2c-1.5,2.7-3.6,4.9-6.2,6.6c0.5,0.5,0.9,1,1.2,1.6c0.8-0.6,1.6-1.2,2.4-1.8v5.3
			c-0.9,0.1-1.7,0.3-2.3,0.4l0.9,2.1c0.2,0,0.3-0.2,0.3-0.3c2-0.4,4.9-1.1,7.8-1.7l-0.2-1.7c-1.5,0.3-3.1,0.6-4.5,0.8v-6.1
			c0.3,0,0.4-0.2,0.5-0.3l-0.8-0.2c0.9-1,1.7-2.1,2.4-3.3c1,5.7,2.9,10.2,6.5,12.5c0.4-0.6,0.9-1.2,1.4-1.7
			c-2.1-1.3-3.8-3.4-4.6-5.7c1.3-0.9,2.6-1.8,3.8-2.9c0.2,0,0.4,0,0.5-0.1l-1.7-1.7c-1,1.1-2.1,2.1-3.3,3c-0.5-1.6-0.9-3.2-1.1-4.8
			H860.9z M851.3,2487.8h8.7v-11.1H856c0.2-0.6,0.4-1.3,0.5-1.8h4.4v-1.7h-10.3v1.7h3.9c-0.1,0.6-0.2,1.2-0.4,1.8h-2.8V2487.8z
			 M846.8,2483.6h3.3v-5.6h-3.3v-1.6h3.5v-1.8h-3.5v-2c0.3,0,0.5-0.1,0.5-0.3l-2.3-0.1v2.5h-3.6v1.8h3.6v1.6h-3.1v5.6h2.7
			c-0.9,1.9-2.2,3.7-3.7,5.1c0.3,0.6,0.7,1.2,0.9,1.8c1.3-1.3,2.4-2.8,3.2-4.4v5.8h1.8v-6.1c0.8,0.9,1.6,1.8,2.3,2.8l1.2-1.5
			c-0.5-0.5-2.7-2.6-3.5-3.3L846.8,2483.6z M853.1,2483.1v-1.7h5v1.7L853.1,2483.1z M853.1,2479.9v-1.7h5v1.7L853.1,2479.9z
			 M853.1,2486.3v-1.7h5v1.7L853.1,2486.3z M845.1,2479.6v2.6h-1.7v-2.6L845.1,2479.6z M846.7,2482.1v-2.6h1.8v2.6L846.7,2482.1z
			 M853.1,2488c-1.2,1.1-2.6,2-4.1,2.5c0.5,0.4,0.9,0.8,1.3,1.3c1.5-0.6,3-1.5,4.2-2.6c0.1,0,0.3-0.1,0.4-0.2L853.1,2488z
			 M861.2,2490.9c-1.1-1-2.3-1.9-3.5-2.7l-1.5,0.9c1.2,0.8,2.4,1.8,3.5,2.9L861.2,2490.9z"/>
	</g>
	<path class="st14" d="M1106.7,2372.7c-0.8-1.9,13.8-0.6,14.2-1c2.6,0.1,10.1,6.2,12.7,6.3c0.3,0.4,18.7-1,17.7,0.9
		c-0.4,0.8,1,5.6-0.8,5.5c0,0-37,0.2-37,0.2c-0.5,0-1,0.4-1.1,0.9c0.2,0-4.6,21.9-3.8,20.5c0,0,7.4-17.7,7.4-17.7
		c0.2-0.5,0.7-0.8,1.2-0.8h38.1c2.3-0.5-7.7,23.5-7.3,23.9c-0.2,0.5-0.7,0.8-1.2,0.8h-39.5c-0.5,0-0.9-0.4-0.9-0.9
		C1106.5,2411.4,1106.7,2372.7,1106.7,2372.7z"/>
	<path class="st14" d="M1206.7,2372.7c-0.8-1.9,13.8-0.6,14.2-1c2.6,0.1,10.1,6.2,12.7,6.3c0.3,0.4,18.7-1,17.7,0.9
		c-0.4,0.8,1,5.6-0.8,5.5c0,0-37,0.2-37,0.2c-0.5,0-1,0.4-1.1,0.9c0.2,0-4.6,21.9-3.8,20.5c0,0,7.4-17.7,7.4-17.7
		c0.2-0.5,0.7-0.8,1.2-0.8h38.1c2.3-0.5-7.7,23.5-7.3,23.9c-0.2,0.5-0.7,0.8-1.2,0.8h-39.5c-0.5,0-0.9-0.4-0.9-0.9
		C1206.5,2411.4,1206.7,2372.7,1206.7,2372.7z"/>
	<path class="st7" d="M959.1,2642.2c105.4,1.7,105.4,140.3,0,142C853.7,2782.5,853.8,2643.9,959.1,2642.2z"/>
	<g transform="translate(891.275 2605.325)">
		<path class="st5" d="M13.3,75.1c13.1-74,123.5-56.4,112.9,18C113.1,167.1,2.7,149.5,13.3,75.1z"/>
		<path class="st5" d="M87,105.9c12.3,11,35.1,18,46.9,29.2c3.9,4.1,6.8,16.2,6.8,20.6H0.8c-1-24.7,22.8-29.6,38-39.4
			c1.4-1.2,12-6.7,12.7-7.4s4.4-5.6,3-4.6c-16.3,4.3-24.2,2-28.6-16C25.2,85.7,28,74.6,29.8,70c4.4-18.4-10.2-21,8.9-42.1
			C35.2,12.4,54.9,2,68.4,1C78,0.3,88,5,90.9,8.2c21.6,4.5,17.1,28,19.3,43.9c0.6,11.5,7.8,22.9,4.5,34.8
			c-1.3,11.2-16.5,19.2-27.9,15.2C87.3,105.8,87,105.9,87,105.9z"/>
		<g transform="translate(3.958 3.813)">
			<path class="st9" d="M22.7,122c6-3.1,22.5-11.2,23.6-11.4c0.3,9.4,2.5,32,3.9,41.2H0C-0.7,134.3,9.3,129.9,22.7,122z"/>
			<path class="st9" d="M110.8,122c-6-3.1-22.5-11.2-23.6-11.4c-0.3,9.4-2.5,32-3.9,41.2h50.2C134.2,134.3,124.2,129.9,110.8,122z"
				/>
			<path class="st6" d="M79.2,58.7c0,2.9,4.5,2.9,4.5,0C83.7,55.8,79.2,55.8,79.2,58.7z"/>
			<path class="st6" d="M51.8,56.5c2.9,0,2.9,4.5,0,4.5C48.9,61,48.9,56.4,51.8,56.5z"/>
			<path class="st9" d="M55.9,1.4c-8.3,2.4-21.7,13.7-18.5,23.4c-8.7,9.3-13.5,18.7-7.6,30.8c0.6,9-4.9,16.7-4.9,26.6
				c2.4,14.8,10.3,24.2,25.8,18.5c0-1.7,1-9.2,1-9.2c-9-7.2-16.7-30.1-13.4-42.9c2.1-6.8,5.6-10.9,7.7-14.2
				c5.4-5.9,4.5-14.3,7.2-20.6c5.1-5,14.5-4.6,18.1,1.9c26.9,2.1,9.5,17.1,17.7,31.4c11.2,13.2,4.1,33.5-6.6,44l0.6,8.3
				c14,0.7,23.5-1.6,24.9-20.2c1-10.1-5.3-26.5-4.8-35.3c-0.2-2.9-1.9-21.3-4.5-26.3s-7.1-8-12.4-10.1C80.3,0.8,64.2-1.9,55.9,1.4z"
				/>
		</g>
		<g transform="translate(0 0)">
			<path class="st6" d="M85.4,65.6c-7.8-1.7,1.4-10.9,3-3l0,0C88.5,64.2,87.1,65.6,85.4,65.6z M85.4,61.1c-1.8,0-1.8,2.9,0,2.8
				C87.3,64,87.3,61.1,85.4,61.1z"/>
			<path class="st6" d="M90.6,60.9c-0.3,0-0.6-0.2-0.7-0.5c-1.5-3-6.5-3.5-8-0.3c-0.2,0.4-0.7,0.6-1.1,0.4c-0.4-0.2-0.6-0.7-0.4-1.1
				c1.9-4.2,8.1-4,10.5-0.5l1.2-0.7c0.9-0.5,1.7,0.9,0.8,1.4C92.7,59.8,90.9,61,90.6,60.9z"/>
			<path class="st6" d="M55.8,65.6c-7.8-1.7,1.4-10.9,3-3l0,0C58.8,64.2,57.4,65.6,55.8,65.6z M55.8,61.1c-1.8,0-1.8,2.9,0,2.8
				C57.6,64,57.6,61.1,55.8,61.1z"/>
			<path class="st6" d="M50.6,60.9c-0.3,0.1-2-1.1-2.3-1.2c-0.9-0.5-0.1-1.9,0.8-1.4c0,0,1.2,0.7,1.2,0.7c2.5-3.5,8.7-3.7,10.5,0.5
				c0.2,0.4,0,0.9-0.4,1.1s-0.9,0-1.1-0.4c-1.5-3.2-6.5-2.7-8,0.3C51.2,60.7,50.9,60.9,50.6,60.9L50.6,60.9z"/>
			<path class="st6" d="M71.1,87.7c-3.6-0.3-9.2-0.2-9.9-3.1c0.2-0.4,0.8-0.6,1.1-0.3c4,2.3,14.3,2.7,19.5-0.9
				C87.2,84.8,73.5,88.5,71.1,87.7z"/>
			<path class="st6" d="M69.9,78.3c-1.2,0-4.2-1.3-2.9-2.7c0.4-0.3,0.9-0.2,1.1,0.2l0,0c0.6,1.1,2.5,0.5,2.6,1.7
				C70.7,77.9,70.3,78.3,69.9,78.3z"/>
			<path class="st6" d="M71.8,92.4c-1.6,0.6-7.6-2.6-3.5-2.7c1.5,1,3.4,1.3,5.1,0.8c0.4-0.2,0.9,0,1.1,0.4
				C74.8,92.3,72.7,92.3,71.8,92.4z"/>
			<path class="st6" d="M93,47.1c-3-3.5-9.6-5.3-13.2-2.2c-0.3,0.3-0.8,0.3-1.1,0c-0.5-2.8,5-3.3,7.9-3C88.5,41.6,95.8,45.1,93,47.1
				z"/>
			<path class="st6" d="M47.6,47.4c-0.7,0-1.1-0.9-0.6-1.4c4.4-4.8,14.1-6.8,16.8-1.4c-0.2,0.4-0.8,0.5-1.1,0.2
				C57.9,41.5,52.3,43.4,47.6,47.4z"/>
			<g transform="translate(45.713 80.849)">
				<path class="st6" d="M23.5,22.1C11.6,22.9-5.3-2.6,1.6,0.6l0,0c1.2,5.1,10.4,18.5,22,19.8C24.5,20.6,24.5,22.1,23.5,22.1
					L23.5,22.1z"/>
				<path class="st6" d="M26.6,22.1c-1,0-1.1-1.5-0.1-1.6c13.1-1.3,19.8-15.9,23-20.4C50.8,5.9,38.7,20.5,26.6,22.1z"/>
			</g>
			<g transform="translate(0 97.011)">
				<path class="st6" d="M54.5,8.6c-1.9-1.3-0.1-5.2-0.7-7.8c0-1,1.6-1,1.6,0l0,0C55,3.5,56.4,7.1,54.5,8.6z"/>
				<path class="st6" d="M0.8,59.4c-2.1-1,0.7-13.6,3.8-19.5c7.6-11.4,37.9-20.9,47.3-30c0.6-0.9,2,0.2,1.3,1
					c-10,10-36.7,16.9-47.2,29.9C1.7,47.1,2.9,57.6,0.8,59.4z"/>
				<path class="st6" d="M69.6,16.8c-4.5-0.5-11.4-3.5-14.1-7c-0.6-0.8,0.7-1.8,1.3-1l0,0c2.3,3,8.8,5.9,12.9,6.4
					C70.7,15.3,70.6,16.8,69.6,16.8L69.6,16.8z"/>
				<path class="st6" d="M62.8,28.9c-1.7-0.1-3.3-0.8-4.5-2c-1.2-0.4-9.9-17-5-13.4c1.3,3.4,6.2,18.4,11.9,12.2
					c1.3-2.5,2.3-5.1,3-7.8C72.4,14.5,66.5,30.7,62.8,28.9z"/>
				<path class="st6" d="M54.1,59.4c-1.7-0.1-6.2-39.9-3.9-43.8c2.1,7.6,2.7,38,4.7,42.8C55,58.9,54.6,59.4,54.1,59.4z"/>
				<path class="st6" d="M45,59.4c-2.5-2.1-5.2-16.6-6-18.3c1.1-2.7,3.9-4.9,5.9-7.2c-0.4-0.7-7.9-4-6.7-5.3
					c0.5-0.1,8.7-13.6,9.5-11.9c1.9,0.3-7.8,11.7-7.7,12.2c10.9,6.6,6.7,3.8,0.6,12.1c0.7,2.6,4,14.6,5.1,17.2
					C45.9,58.8,45.5,59.4,45,59.4z"/>
				<g transform="translate(71.043)">
					<path class="st6" d="M15.9,8.6c-1.9-1.5-0.5-5-1-7.8c0-1,1.6-1,1.6,0l0,0C16.1,3.4,17.8,7.3,15.9,8.6z"/>
					<path class="st6" d="M69.6,59.4c-2-1.8-0.9-12.3-5.2-18.7C54,27.8,27.2,20.9,17.2,10.9c-0.6-0.8,0.6-1.8,1.3-1
						c9.5,9.2,39.6,18.7,47.3,30C69,45.9,71.7,58.3,69.6,59.4z"/>
					<path class="st6" d="M0.8,16.8c-1,0-1.1-1.5-0.1-1.6c4.1-0.5,10.6-3.4,12.9-6.4c0.3-0.4,0.8-0.4,1.1-0.2
						C14.8,13.1,4.9,16.1,0.8,16.8z"/>
					<path class="st6" d="M7.6,28.9C3.9,30.7-2,14.4,2.2,18c1.1,4.1,3.4,12.7,8.8,7.7c1.7-1.6,5.8-10.3,6.1-12.2
						c0.2-1,1.8-0.8,1.6,0.3l0,0C17.1,18,13.6,29,7.6,28.9z"/>
					<path class="st6" d="M16.3,59.4c-0.5,0-0.9-0.5-0.8-1c1.9-4.8,2.6-35.1,4.7-42.8C22.4,19.5,18,59.1,16.3,59.4z"/>
					<path class="st6" d="M25.4,59.4c-0.6,0-1-0.6-0.7-1.1c1.1-2.6,4.4-14.7,5.1-17.2c-6-8.3-10.2-5.6,0.6-12.1l-7.9-11.1
						c-0.6-0.8,0.7-1.8,1.3-0.9c0,0,8.4,11.8,8.4,11.8c1.2,1.2-6.3,4.6-6.7,5.3c1.9,2.3,4.8,4.4,5.9,7.2
						C30.6,42.9,27.9,57.3,25.4,59.4z"/>
				</g>
			</g>
			<path class="st6" d="M70.6,156.4c-2.1-1.8-0.5-11.2-1-16.4c0-0.4,0.4-0.8,0.8-0.8l0,0c0.4,0,0.8,0.4,0.8,0.8l0,0
				C70.6,148.7,72.5,155.4,70.6,156.4z"/>
			<path class="st6" d="M70.4,137.6c-0.6,0-0.9-0.5-0.8-1.2c0.6-8-1.1-16.8,1.1-18.2c1.8,2.4,0,10,0.5,18.6
				C71.1,137.3,70.8,137.6,70.4,137.6z"/>
			<path class="st6" d="M97.1,77c-0.6,0-1-0.6-0.8-1.1c3.1-7.9,2.2-14.1-3.3-23c-0.4-1.2-2.5-3.1-1.2-4.2
				C98.9,56.3,102.7,69.3,97.1,77z"/>
			<path class="st6" d="M90.5,41.5c-2.2-2.1,0.5-7.4,0.1-10.4c-0.4-6-6.4-10.5-12.3-10.2c-0.4,0-0.8-0.4-0.8-0.8
				c5.7-3.3,14.7,4.5,14.7,11C91.7,33.5,92.2,40.2,90.5,41.5z"/>
			<path class="st6" d="M41.7,104.8c-6.7-8.3,3.5-16.4-0.1-25.3c-2.1-5.8-3.4-16.5-1.9-22.5c1.8-7.5,5.4-14.5,10.4-20.4
				c7-7.8,0.3-19,11.1-22.8c2.4-2.3,16.7,2.2,11.1,3.3c-8.1-5.9-18.2,0.1-17.1,10.5c0,2.9,0,5.6-3.9,10c-4.8,5.7-8.3,12.5-10.1,19.8
				c-1.4,5.6-0.2,16,1.8,21.6c3.6,9.3-5.2,15.7-0.7,24.7C42.7,104.2,42.3,104.8,41.7,104.8L41.7,104.8z"/>
			<path class="st6" d="M48.3,102.9c-2.8,0.6-4.1-16.1-0.9-11.6c-0.2,2.2-0.6,7.9,1.5,10.3C49.3,102.1,48.9,103,48.3,102.9z"/>
			<path class="st6" d="M37.8,106.5C11.3,88.8,35.4,71.3,29,56.8C24,48,30.7,36,35.2,30.4c1.5-3,3.7-1.5,1.3,0.9
				c-17.6,23.1,2.3,20.3-7.7,43.8c-6.6,16.7,4.6,27.2,9.4,29.9C38.9,105.4,38.6,106.6,37.8,106.5L37.8,106.5z"/>
			<path class="st6" d="M98.1,102.9c-1,0-1.1-1.6,0-1.6c13.8,1.7,19.9-22.8,14.7-33.7c-7.7-18,1.2-52.6-19.1-58
				c-0.9-0.5-0.1-2,0.8-1.4c11.9,6.4,14.8,9,15.8,36.2c0,21.4,7.8,20.9,5.4,39.1C113.4,94.7,109.6,102.4,98.1,102.9z"/>
			<path class="st6" d="M38.8,27.2C30.7,6.4,75.4-9,89.2,5.9c0.8,0.7-0.3,1.9-1.1,1.2C75.5-6.1,36.4,6,39.6,25.7
				C39.7,26.3,39.7,27.2,38.8,27.2z"/>
			<path class="st6" d="M92.2,99.4c-2.7-2,0.4-6,2.1-7.7c1.4-1.5,2.8-3,3.2-5c0.1-0.4,0.6-0.7,1-0.6c1.8,1.9-2,5.2-3,6.7
				C91.5,96.2,94,99,92.2,99.4z"/>
			<path class="st6" d="M103.5,84.2c-0.6,0-1-0.7-0.7-1.3c3.8-5.7,2.9-18.2,1.1-24.9c-0.1-0.4,0.1-0.9,0.6-1
				C108.3,60.5,108.1,80.9,103.5,84.2z"/>
			<path class="st6" d="M101.5,51c-2.8-1.3-6-17.3-2.4-21.5c0.4,0.1,0.7,0.4,0.7,0.8c-1.1,8.4-0.3,14.8,2.4,19.5
				C102.5,50.3,102.1,51,101.5,51L101.5,51z"/>
			<path class="st6" d="M35.9,54.6c-3.4-2.7,5.1-22.7,10.3-21.2c0.2,0.4,0.1,0.9-0.2,1.1c-5.7,3.7-9,12.5-9.2,19.3
				C36.7,54.2,36.3,54.6,35.9,54.6z"/>
			<path class="st6" d="M33.6,96c-4.8-2.5-1.1-29.6,1.3-23.7l0,0c-1.4,6.4-3.9,13.8-0.6,22.6C34.5,95.4,34.1,96,33.6,96z"/>
			<path class="st6" d="M52.8,12.5c-0.7,0-1.1-1-0.5-1.4c9.9-9.7,34.8-2.4,27.9-0.5l0,0C76.4,7.6,63,5,52.8,12.5z"/>
		</g>
	</g>
</g>
</svg>
