<?xml version="1.0" encoding="utf-8"?>
<!-- Generator: Adobe Illustrator 25.4.1, SVG Export Plug-In . SVG Version: 6.00 Build 0)  -->
<svg version="1.1" id="レイヤー_1" xmlns="http://www.w3.org/2000/svg" xmlns:xlink="http://www.w3.org/1999/xlink" x="0px"
	 y="0px" viewBox="0 0 186.6 154" style="enable-background:new 0 0 186.6 154;" xml:space="preserve">
<style type="text/css">
	.st0{fill:#54A762;stroke:#FFFFFF;stroke-width:1.5;}
	.st1{fill:#FFFFFF;}
	.st2{fill:#54A762;}
</style>
<g id="グループ_1576" transform="translate(0.75 0)">
	<g id="グループ_1571" transform="translate(0 33.716)">
		<g id="グループ_1570" transform="translate(22.879)">
			<path id="パス_2199" class="st0" d="M105.8,5.5H29c-7,0-12.7,5.7-12.7,12.7v11.9h11v-9.6c0-2.7,2.1-4.8,4.8-4.8l0,0h70.5
				c2.7,0,4.8,2.1,4.8,4.8l0,0v45.3c0,2.7-2.1,4.8-4.8,4.8l0,0H69.8v15.9c0,0-0.1,21-0.1,21.2c-0.1,2.1-0.7,4.2-1.8,6.1h22.8
				c2.7,0,4.8-2.2,4.8-4.8v-6.2c0-2.7-2.2-4.8-4.8-4.8l0,0H79v-8.5h26.8c7,0,12.7-5.7,12.7-12.7V18.2
				C118.5,11.2,112.8,5.5,105.8,5.5L105.8,5.5L105.8,5.5z M99.6,83.2c-2.2,0-4-1.8-4-3.9c0-2.2,1.8-4,3.9-4c2.2,0,4,1.8,4,3.9l0,0
				C103.5,81.4,101.8,83.2,99.6,83.2z"/>
		</g>
		<path id="パス_2200" class="st0" d="M80.8,36.6H35.4c-3.8,0-6.9,3.1-6.9,6.9v9.7H38v-5.8h40.3V95H55.8v7.7
			c0.6-0.5,1.4-0.8,2.2-0.8c2.2,0,4,1.8,4,4s-1.8,4-4,4c-0.8,0-1.6-0.3-2.2-0.8v1.1c0,1.3-0.2,2.6-0.7,3.8h25.7
			c3.8,0,6.9-3.1,6.9-6.9V43.5C87.7,39.7,84.6,36.6,80.8,36.6L80.8,36.6z"/>
		<path id="パス_2201" class="st0" d="M46.6,59h-26c-2.4,0-4.3,1.9-4.3,4.3v46.2c0,2.4,1.9,4.3,4.3,4.3l0,0h26
			c2.4,0,4.3-1.9,4.3-4.3l0,0V63.3C50.9,60.9,49,59,46.6,59L46.6,59L46.6,59z M33.6,111.4c-1.8,0-3.3-1.5-3.3-3.3s1.5-3.3,3.3-3.3
			s3.3,1.5,3.3,3.3C36.9,109.9,35.5,111.4,33.6,111.4z M43.9,97.9H23.3V67.6h20.6V97.9z"/>
	</g>
	<path id="長方形_2484" class="st1" d="M122.3,5.5h25.8c10.5,0,19,8.5,19,19v20.4c0,10.5-8.5,19-19,19h-25.8
		c-10.5,0-19-8.5-19-19V24.5C103.3,14,111.8,5.5,122.3,5.5z"/>
	<g id="グループ_1575" transform="translate(94.313 3.959)">
		<g id="グループ_1574">
			<path id="パス_2204" class="st2" d="M56,52.7c-0.3-0.2-0.6-0.4-0.8-0.7c-0.1-0.1-0.2-0.3-0.2-0.4H20.3V17.3h47.1v22.4
				c1,0.1,1.8,0.7,2.2,1.7c0.3-0.2,0.7-0.3,1-0.3c0.2,0,0.5,0,0.7,0V8.8c0-1.8-1.4-3.3-3.3-3.3H19.6c-1.8,0-3.3,1.5-3.3,3.3v43.4
				c0,1.8,1.5,3.3,3.3,3.3h36.1c-0.3-0.6-0.3-1.2-0.2-1.8C55.6,53.3,55.8,53,56,52.7L56,52.7z M63.8,11.1c0-0.7,0.5-1.2,1.2-1.2l0,0
				h1.2c0.7,0,1.2,0.5,1.2,1.2v1.4c0,0.7-0.5,1.2-1.2,1.2H65c-0.7,0-1.2-0.5-1.2-1.2l0,0V11.1z M58.1,11.1c0-0.7,0.5-1.2,1.2-1.2
				l0,0h1.2c0.7,0,1.2,0.5,1.2,1.2l0,0v1.4c0,0.7-0.5,1.2-1.2,1.2l0,0h-1.2c-0.7,0-1.2-0.5-1.2-1.2l0,0V11.1z M52.4,11.1
				c0-0.7,0.5-1.2,1.2-1.2l0,0h1.2c0.7,0,1.2,0.5,1.2,1.2v1.4c0,0.7-0.5,1.2-1.2,1.2h-1.2c-0.7,0-1.2-0.5-1.2-1.2l0,0V11.1z"/>
			<path id="パス_2205" class="st2" d="M75.2,50.4l-0.4-2.1c0-0.3-0.3-0.5-0.6-0.4l0,0l-1.9,0.3c-0.2-0.5-0.5-1-0.8-1.5l1.2-1.4
				c0.2-0.2,0.2-0.5-0.1-0.7L71,43.2c-0.1-0.1-0.2-0.1-0.4-0.1c-0.1,0-0.3,0.1-0.4,0.2L69,44.7c-0.5-0.3-1-0.4-1.6-0.6v-1.9
				c0-0.3-0.2-0.5-0.5-0.5h-2.1c-0.3,0-0.5,0.2-0.5,0.5v1.9c-0.5,0.1-1.1,0.3-1.6,0.6l-1.2-1.4c-0.2-0.2-0.5-0.2-0.7-0.1l0,0
				l-1.5,1.4c-0.1,0.1-0.2,0.2-0.2,0.4c0,0.1,0,0.3,0.1,0.4l1.2,1.4c-0.3,0.4-0.6,0.9-0.8,1.5L57.7,48c-0.3-0.1-0.5,0.1-0.6,0.4l0,0
				l-0.4,2.1c0,0.1,0,0.3,0.1,0.4c0.1,0.1,0.2,0.2,0.3,0.2l1.9,0.3c0,0.6,0.1,1.1,0.3,1.6l-1.6,0.9c-0.1,0.1-0.2,0.2-0.2,0.3
				s0,0.3,0.1,0.4l1.1,1.8c0.1,0.1,0.2,0.2,0.3,0.2h0.1c0.1,0,0.2,0,0.3-0.1l1.6-0.9c0.4,0.4,0.8,0.8,1.3,1.1l-0.7,1.8
				c0,0.1,0,0.3,0,0.4c0.1,0.1,0.2,0.2,0.3,0.3l2,0.7c0.1,0,0.1,0,0.2,0c0.1,0,0.2,0,0.2,0c0.1-0.1,0.2-0.2,0.3-0.3l0.6-1.8
				c0.3,0,0.6,0.1,0.8,0.1c0.3,0,0.6,0,0.8-0.1l0.6,1.8c0.1,0.1,0.2,0.2,0.3,0.3c0.1,0,0.1,0,0.2,0s0.1,0,0.2,0l2-0.7
				c0.1,0,0.2-0.1,0.3-0.3c0.1-0.1,0.1-0.3,0-0.4l-0.6-1.8c0.5-0.3,0.9-0.7,1.3-1.1l1.6,0.9c0.1,0.1,0.3,0.1,0.4,0.1
				c0.1,0,0.2-0.1,0.3-0.2l1.1-1.8c0.1-0.1,0.1-0.3,0.1-0.4c0-0.1-0.1-0.3-0.3-0.3L72.7,53c0.2-0.5,0.3-1.1,0.3-1.6l1.9-0.3
				c0.1,0,0.3-0.1,0.3-0.2C75.2,50.7,75.3,50.5,75.2,50.4L75.2,50.4z M66,53.7c-1.6,0-2.8-1.3-2.8-2.8c0-1.6,1.3-2.8,2.8-2.8
				c1.6,0,2.8,1.3,2.8,2.8C68.9,52.4,67.6,53.7,66,53.7L66,53.7z"/>
		</g>
		<path id="パス_2206" class="st2" d="M39.4,36.3c0-0.7-0.4-1.3-1-1.6l-5.5-2.6l5.5-2.6c0.6-0.3,1-0.9,1-1.6l0,0
			c0-0.9-0.7-1.7-1.7-1.7l0,0c-0.3,0-0.5,0-0.7,0.2l-8.9,4.1c-0.6,0.3-1,0.9-1,1.6v0.1c0,0.7,0.4,1.3,1,1.6l8.9,4.1
			c0.2,0.1,0.5,0.2,0.7,0.2c0.3,0,0.7-0.1,0.9-0.3C39.1,37.5,39.4,36.9,39.4,36.3L39.4,36.3z"/>
		<path id="パス_2207" class="st2" d="M48.2,22.1c-0.3-0.4-0.8-0.7-1.4-0.7l0,0c-0.7,0-1.4,0.5-1.6,1.2l-5.8,18.1
			c-0.3,0.9,0.2,1.9,1.1,2.2C40.7,43,40.8,43,41,43l0,0c0.7,0,1.4-0.5,1.6-1.2l5.8-18.1C48.6,23.1,48.5,22.5,48.2,22.1L48.2,22.1z"
			/>
		<path id="パス_2208" class="st2" d="M59.5,30.5l-8.9-4.1c-0.2-0.1-0.5-0.2-0.7-0.2c-0.9,0-1.7,0.7-1.7,1.7c0,0,0,0,0,0.1l0,0
			c0,0.7,0.4,1.3,1,1.6l5.5,2.6l-5.5,2.6c-0.6,0.3-1,0.9-1,1.6v0.1c0,0.9,0.8,1.7,1.7,1.7l0,0c0.3,0,0.5-0.1,0.7-0.2l8.9-4.1
			c0.6-0.3,1-0.9,1-1.6v-0.1C60.5,31.4,60.1,30.8,59.5,30.5L59.5,30.5z"/>
	</g>
</g>
</svg>
