<?xml version="1.0" encoding="utf-8"?>
<!-- Generator: Adobe Illustrator 25.4.1, SVG Export Plug-In . SVG Version: 6.00 Build 0)  -->
<svg version="1.1" id="レイヤー_1" xmlns="http://www.w3.org/2000/svg" xmlns:xlink="http://www.w3.org/1999/xlink" x="0px"
	 y="0px" viewBox="0 0 192.5 210" style="enable-background:new 0 0 192.5 210;" xml:space="preserve">
<style type="text/css">
	.st0{fill:#B4A28F;}
</style>
<g transform="translate(-652.58 -822.272)">
	<path class="st0" d="M764.369,950.956c0.092-8.582-6.791-15.614-15.373-15.705c-8.582-0.092-15.614,6.791-15.705,15.373
		c-0.06,5.578,2.875,10.761,7.69,13.578l-5.193,27.721h26.1l-5.189-27.721C761.452,961.488,764.381,956.43,764.369,950.956z
		 M754.195,959.92c-1.808,1.059-2.756,3.14-2.369,5.2l4.089,21.845h-14.147l4.091-21.845c0.383-2.043-0.547-4.107-2.331-5.174
		c-3.188-1.888-5.18-5.282-5.274-8.986c0-5.84,4.735-10.575,10.575-10.575s10.575,4.735,10.575,10.575
		C759.427,954.672,757.432,958.104,754.195,959.92z"/>
	<path class="st0" d="M712.36,906.369h6.764c4.098-0.012,7.417-3.331,7.429-7.429v-14.85c0.009-12.302,9.989-22.268,22.291-22.259
		c12.29,0.009,22.251,9.969,22.259,22.259v14.849c0.012,4.098,3.331,7.417,7.429,7.429h6.769c4.098-0.012,7.417-3.331,7.429-7.429
		V884.09c-0.014-24.245-19.68-43.889-43.925-43.875c-24.226,0.014-43.861,19.649-43.875,43.875v14.849
		C704.942,903.038,708.261,906.358,712.36,906.369z M709.571,884.09c0.014-21.684,17.603-39.251,39.287-39.237
		c21.664,0.014,39.223,17.573,39.237,39.237v14.849c-0.02,1.533-1.257,2.77-2.79,2.79h-6.773c-1.532-0.02-2.77-1.258-2.79-2.79
		V884.09c-0.089-14.864-12.211-26.841-27.075-26.752c-14.738,0.089-26.663,12.014-26.752,26.752v14.849
		c-0.02,1.532-1.258,2.77-2.79,2.79h-6.764c-1.532-0.02-2.769-1.258-2.789-2.79L709.571,884.09z"/>
	<path class="st0" d="M818.47,1001.135l-5.552-74.929c-0.673-7.391-6.807-13.087-14.227-13.212H698.97
		c-7.42,0.125-13.554,5.821-14.227,13.212l-5.552,74.929c-0.587,6.685,4.356,12.579,11.04,13.167
		c0.409,0.036,0.819,0.051,1.229,0.045h114.75c6.71,0.086,12.219-5.283,12.306-11.992
		C818.521,1001.948,818.506,1001.541,818.47,1001.135z M811.633,1007.089c-1.407,1.496-3.378,2.331-5.431,2.3H691.455
		c-3.969,0.09-7.26-3.054-7.351-7.024c-0.007-0.286,0.004-0.572,0.032-0.857l5.552-74.93c0.484-4.797,4.458-8.486,9.277-8.614
		h99.728c4.819,0.128,8.793,3.817,9.277,8.614l5.551,74.93c0.183,2.043-0.501,4.068-1.885,5.581H811.633z"/>
</g>
</svg>
