<?xml version="1.0" encoding="utf-8"?>
<!-- Generator: Adobe Illustrator 25.4.1, SVG Export Plug-In . SVG Version: 6.00 Build 0)  -->
<svg version="1.1" id="レイヤー_1" xmlns="http://www.w3.org/2000/svg" xmlns:xlink="http://www.w3.org/1999/xlink" x="0px"
	 y="0px" viewBox="0 0 1589.62 540.09" style="enable-background:new 0 0 1589.62 540.09;" xml:space="preserve">
<style type="text/css">
	.st0{fill:#1A1311;}
	.st1{enable-background:new    ;}
	.st2{fill:#4AD160;}
	.st3{fill:#343434;}
	.st4{fill:none;stroke:#4AD160;stroke-width:8;stroke-linecap:round;}
	.st5{fill:none;stroke:#FF0000;stroke-width:3;}
	.st6{fill:#202020;}
	.st7{fill:#2086C4;}
	.st8{fill:none;stroke:#707070;stroke-width:3;stroke-dasharray:3;}
</style>
<g id="グループ_1775" transform="translate(1299.673 816.075) rotate(180)">
	<path id="パス_2628" class="st0" d="M473.364,275.985c-128.163,0-232.435,45.105-232.435,100.557
		c0,16.885,9.863,33.586,28.527,48.295c1.069,0.594,2.326,0.753,3.51,0.444c1.233-0.3,1.685-0.974,1-1.515
		c-18.246-14.386-27.895-30.716-27.895-47.224c0-54.222,101.954-98.332,227.29-98.332s227.29,44.11,227.29,98.332
		S598.7,474.87,473.364,474.87c-36.08,0-70.583-3.566-102.57-10.588c-5.309-1.163-14.383-3.385-23.161-5.643L375.092,454
		c1.332-0.231,1.981-0.875,1.463-1.444c-0.972-0.669-2.18-0.899-3.329-0.633l-31.157,5.277c-6.032-1.582-11.473-3.072-14.818-4.11
		c-1.19-0.349-2.467-0.253-3.592,0.27c-0.822,0.5-0.534,1.195,0.608,1.554c2.794,0.85,7.035,2.023,11.81,3.3l-14.7,2.489
		L251.4,476.147l52.345-36.213c0.764-0.519,0.386-1.209-0.822-1.532c-1.187-0.323-2.452-0.196-3.551,0.356l-57.26,39.616
		c-0.616,0.423-0.51,0.978,0.279,1.34c0.601,0.253,1.248,0.376,1.9,0.363c0.392,0,0.783-0.041,1.167-0.121l78.037-17.227
		l18.081-3.065c9.9,2.581,20.826,5.28,26.9,6.606c32.7,7.186,68.01,10.83,104.888,10.83c128.172,0,232.444-45.113,232.444-100.557
		S601.536,275.985,473.364,275.985z"/>
</g>
<g class="st1">
	<path d="M665.13,437.27c-2.07,5.221-4.77,9.811-8.145,13.14l-3.735-2.34c3.195-3.015,5.985-7.154,7.785-12.329L665.13,437.27z
		 M674.85,430.611v19.664c0,5.984-4.59,5.939-11.294,5.85c-0.225-1.17-0.72-2.88-1.26-4.14c1.35,0.045,3.015,0.09,4.32,0.09
		c2.745,0,3.69,0,3.69-1.71v-19.754h-14.714v-4.275h14.714v-9.089l5.76,0.27c-0.09,0.495-0.405,0.9-1.215,0.99v7.829h14.669v4.275
		H674.85z M682.904,435.381c3.24,3.646,6.84,8.82,9.089,12.734l-4.05,2.34c-1.979-3.959-5.85-9.899-8.685-13.185L682.904,435.381z
		 M688.394,414.592c2.745,0,4.95,2.25,4.95,4.995s-2.205,4.949-4.95,4.949c-2.745,0-4.95-2.204-4.95-4.949
		C683.445,416.752,685.739,414.592,688.394,414.592z M691.769,419.587c0-1.89-1.53-3.375-3.375-3.375s-3.375,1.485-3.375,3.375
		c0,1.845,1.53,3.375,3.375,3.375C690.329,422.962,691.769,421.342,691.769,419.587z"/>
	<path d="M733.124,420.441c-0.225,0.226-0.54,0.405-0.99,0.405c-0.135,0-0.27,0-0.45-0.045c-3.465,3.465-8.1,7.335-12.419,10.484
		c0.405,0.18,0.945,0.405,1.215,0.495c-0.09,0.36-0.495,0.675-1.08,0.765v23.76h-4.725v-22.095
		c-4.41,3.06-10.485,6.525-15.975,9.225c-0.63-1.035-1.8-2.609-2.7-3.465c12.015-5.444,25.469-14.895,32.534-22.949L733.124,420.441
		z"/>
	<path d="M738.886,420.172c4.59,1.395,9.99,3.779,13.275,5.984l-2.34,4.05c-3.24-2.25-8.594-4.635-13.049-6.21L738.886,420.172z
		 M738.031,450.95c15.524-4.77,26.054-13.68,31.363-26.099c1.305,1.035,2.835,1.89,4.14,2.609
		c-5.58,12.285-16.469,21.914-31.544,27.089c-0.045,0.45-0.36,0.9-0.72,1.08L738.031,450.95z"/>
	<path d="M802.695,441.501c-4.14-2.34-10.214-5.22-14.895-7.064v21.778h-4.725v-39.373l6.03,0.36
		c-0.045,0.495-0.45,0.854-1.305,1.034v12.87l0.9-1.26c5.13,1.89,11.97,4.904,16.514,7.289L802.695,441.501z"/>
	<path d="M809.672,433.131c0.945-0.18,2.475-0.585,4.274-1.08c6.165-1.845,12.375-3.06,16.109-3.06c6.165,0,11.79,3.24,11.79,10.71
		c0,10.079-9.54,13.725-22.14,14.714c-0.225-0.989-0.854-3.104-1.26-3.915c10.755-0.72,18.944-3.6,18.944-10.484
		c0-5.039-3.555-7.199-7.875-7.199c-3.149,0-8.324,1.035-14.624,3.194c-0.945,0.36-2.07,0.766-2.835,1.035
		c-0.135,0.405-0.495,0.72-0.9,0.81L809.672,433.131z"/>
	<path d="M845.898,421.297c1.35,0,3.285-0.045,4.545-0.135c4.59-0.36,25.649-1.756,32.398-1.936l0.045,4.77
		c-3.689-0.135-6.074,0.136-9.539,2.476c-5.805,3.689-12.104,10.395-12.104,15.839c0,5.67,4.454,9,14.939,10.26l-2.16,4.455
		c-12.824-1.665-17.685-6.795-17.685-14.67c0-5.895,5.625-13.319,13.05-18.224c-4.95,0.27-17.055,1.305-21.959,1.8
		c-0.135,0.314-0.675,0.63-1.08,0.72L845.898,421.297z"/>
	<path d="M887.162,450.636c0-2.07,1.44-3.601,3.375-3.601c1.98,0,3.33,1.485,3.33,3.601c0,2.069-1.305,3.555-3.375,3.555
		S887.162,452.615,887.162,450.636z"/>
	<path d="M898.188,450.636c0-2.07,1.439-3.601,3.375-3.601c1.979,0,3.329,1.485,3.329,3.601c0,2.069-1.305,3.555-3.374,3.555
		C899.447,454.19,898.188,452.615,898.188,450.636z"/>
	<path d="M909.212,450.636c0-2.07,1.44-3.601,3.375-3.601c1.98,0,3.33,1.485,3.33,3.601c0,2.069-1.305,3.555-3.375,3.555
		S909.212,452.615,909.212,450.636z"/>
	<path d="M929.057,443.525c-0.045-0.314-0.226-2.024-0.226-2.43c0-2.52,1.171-4.904,4.051-7.604
		c2.834-2.565,4.544-4.229,4.544-6.524c0-2.34-2.069-4.096-6.569-4.096c-2.655,0-5.444,0.721-7.199,1.71l-1.53-3.689
		c2.43-1.215,5.85-2.16,9.449-2.16c8.055,0,11.205,3.78,11.205,7.604c0,3.646-2.565,6.165-5.715,8.82
		c-2.43,2.16-3.51,4.095-3.51,6.39c0,0.405,0,0.54,0.18,1.979H929.057z M928.156,450.725c0-2.43,1.62-3.645,3.375-3.645
		c1.98,0,3.33,1.484,3.33,3.555c0,1.845-1.17,3.51-3.42,3.51C929.552,454.145,928.156,452.66,928.156,450.725z"/>
</g>
<g id="グループ_1783" transform="translate(-134 -6587.305)">
	<g class="st1">
		<path class="st2" d="M863.204,6606.171c3.24,0.791,7.091,2.123,9.467,3.275l-1.548,3.131c-2.339-1.151-6.299-2.591-9.431-3.419
			L863.204,6606.171z M864.788,6623.376c11.338-3.707,19.401-9.719,24.225-20.445c0.72,0.648,2.34,1.8,3.132,2.304
			c-4.859,10.438-13.462,17.206-24.153,20.913c0.108,0.324-0.108,0.757-0.468,0.937L864.788,6623.376z M867.379,6597.279
			c3.24,0.937,6.983,2.304,9.431,3.527l-1.692,3.061c-2.556-1.368-6.083-2.772-9.323-3.708L867.379,6597.279z"/>
		<path class="st2" d="M896.648,6598.684c3.671,1.115,7.991,3.023,10.619,4.787l-1.872,3.239c-2.592-1.8-6.875-3.707-10.439-4.967
			L896.648,6598.684z M895.964,6623.305c12.418-3.816,20.841-10.943,25.088-20.878c1.044,0.828,2.268,1.512,3.312,2.088
			c-4.464,9.827-13.174,17.53-25.233,21.669c-0.036,0.36-0.288,0.721-0.576,0.864L895.964,6623.305z"/>
		<path class="st2" d="M927.357,6600.303h22.677l0.252-0.144l3.275,2.376c-0.144,0.18-0.324,0.323-0.54,0.432
			c-3.096,13.462-9.251,20.229-20.301,24.477c-0.504-0.863-1.548-2.231-2.268-2.987c10.115-3.707,16.162-10.187,18.25-20.697
			h-21.345V6600.303z M954.857,6594.076c2.16,0,3.888,1.764,3.888,3.923c0,2.16-1.728,3.888-3.888,3.888
			c-2.195,0-3.924-1.728-3.924-3.888C950.933,6595.768,952.733,6594.076,954.857,6594.076z M957.448,6597.999
			c0-1.476-1.152-2.663-2.592-2.663c-1.476,0-2.628,1.188-2.628,2.663c0,1.44,1.152,2.628,2.628,2.628
			C956.368,6600.627,957.448,6599.367,957.448,6597.999z"/>
		<path class="st2" d="M968.684,6601.635c-0.036,0.396-0.359,0.648-0.863,0.72c-0.217,10.007-1.116,18.574-6.336,25.161
			c-0.792-0.576-2.123-1.368-3.131-1.872c5.039-5.723,5.687-14.901,5.759-24.333L968.684,6601.635z M977.971,6621.324
			c5.363-2.771,8.783-7.811,10.618-13.75c0.756,0.612,2.34,1.512,3.204,1.979c-2.592,7.344-6.911,12.635-14.542,16.378
			c-0.145,0.324-0.468,0.612-0.72,0.828l-2.7-3.239l0.504-0.648v-25.988l4.535,0.252c-0.071,0.359-0.323,0.684-0.899,0.792V6621.324
			z"/>
	</g>
	<g class="st1">
		<path class="st2" d="M893.405,6654.32c2.55,0.48,4.74,2.55,4.74,5.729c0,3.69-2.82,6.78-7.95,6.78c-2.34,0-4.44-0.69-5.52-1.41
			l0.9-2.67c0.81,0.54,2.61,1.29,4.47,1.29c3.21,0,4.53-2.1,4.53-4.109c0-2.91-2.46-4.26-5.13-4.26h-1.53v-2.49h1.47
			c1.95,0,4.5-1.17,4.5-3.66c0-1.77-1.14-3.18-3.54-3.18c-1.59,0-3.15,0.75-4.02,1.35l-0.87-2.489c1.14-0.84,3.33-1.65,5.669-1.65
			c4.23,0,6.3,2.55,6.3,5.43c0,2.311-1.44,4.32-4.02,5.28V6654.32z"/>
		<path class="st2" d="M925.174,6648.951c-0.06,0.149-0.15,0.329-0.3,0.42c-0.45,8.909-1.32,14.339-2.46,16.319
			c-0.99,1.649-2.49,2.31-4.17,2.31c-1.26,0-3.27-0.24-5.37-0.66c0.03-0.81-0.06-2.16-0.18-3c2.04,0.45,4.26,0.721,4.98,0.721
			c0.99,0,1.62-0.271,2.13-1.32c0.81-1.561,1.53-6.33,1.8-12.51h-8.43c-1.44,6.63-4.17,12.51-9.629,16.829
			c-0.54-0.54-1.65-1.38-2.43-1.829c5.07-3.87,7.62-9.03,8.91-15.03h-7.8v-2.789h8.34c0.33-2.101,0.45-3.87,0.6-6.3l3.99,0.359
			c-0.06,0.33-0.33,0.51-0.84,0.601c-0.18,2.04-0.3,3.539-0.6,5.34h8.7l0.57-0.21L925.174,6648.951z"/>
		<path class="st2" d="M951.634,6642.591v22.77c0,3.42-1.47,3.84-8.279,3.779c-0.18-0.81-0.72-2.189-1.2-2.97
			c1.32,0.061,2.64,0.09,3.69,0.09c2.609,0,2.789,0,2.789-0.93v-5.609h-13.679c-0.81,3.479-2.46,6.959-5.61,9.479
			c-0.42-0.57-1.5-1.681-2.13-2.101c5.1-4.079,5.58-10.109,5.58-14.909v-9.6H951.634z M935.705,6652.521
			c0,1.38-0.09,2.88-0.27,4.439h13.199v-4.439H935.705z M948.634,6645.351h-12.929v4.44h12.929V6645.351z"/>
		<path class="st2" d="M973.714,6654.2c0.181,3.9-1.71,5.4-3.989,5.4c-1.41,0-2.61-0.45-4.77-1.53c-1.62-0.84-2.761-1.47-3.84-1.47
			c-1.11,0-1.801,0.81-1.86,2.819h-2.31c-0.09-3.63,1.77-5.34,4.199-5.34c1.44,0,2.61,0.511,4.71,1.561
			c1.68,0.84,2.79,1.38,3.87,1.38c1.109,0,1.649-0.96,1.68-2.82H973.714z"/>
	</g>
	<g class="st1">
		<path class="st2" d="M1215.065,6654.051c1.05-1.32,2.73-2.34,4.92-2.34c3.63,0,6.27,2.729,6.27,7.169c0,4.2-2.67,7.95-7.14,7.95
			c-4.8,0-7.619-3.93-7.619-9.54c0-4.409,1.47-7.919,3.63-10.199c2.34-2.46,5.879-3.51,9.06-3.51l0.029,2.76
			c-6.419,0-8.729,4.38-9.209,7.71H1215.065z M1222.775,6659.09c0-2.939-1.5-4.89-3.87-4.89c-2.01,0-3.96,1.891-3.96,3.93
			c0.061,3.54,1.53,6.09,4.17,6.09C1221.395,6664.22,1222.775,6662.061,1222.775,6659.09z"/>
		<path class="st2" d="M1252.174,6648.951c-0.06,0.149-0.149,0.329-0.3,0.42c-0.45,8.909-1.32,14.339-2.46,16.319
			c-0.99,1.649-2.49,2.31-4.17,2.31c-1.26,0-3.27-0.24-5.369-0.66c0.029-0.81-0.061-2.16-0.181-3c2.04,0.45,4.26,0.721,4.98,0.721
			c0.989,0,1.619-0.271,2.13-1.32c0.81-1.561,1.529-6.33,1.8-12.51h-8.43c-1.44,6.63-4.17,12.51-9.63,16.829
			c-0.54-0.54-1.649-1.38-2.43-1.829c5.069-3.87,7.619-9.03,8.909-15.03h-7.8v-2.789h8.34c0.33-2.101,0.45-3.87,0.601-6.3
			l3.989,0.359c-0.06,0.33-0.33,0.51-0.84,0.601c-0.18,2.04-0.3,3.539-0.6,5.34h8.699l0.57-0.21L1252.174,6648.951z"/>
		<path class="st2" d="M1278.634,6642.591v22.77c0,3.42-1.47,3.84-8.279,3.779c-0.18-0.81-0.72-2.189-1.2-2.97
			c1.32,0.061,2.64,0.09,3.69,0.09c2.609,0,2.789,0,2.789-0.93v-5.609h-13.679c-0.811,3.479-2.46,6.959-5.61,9.479
			c-0.42-0.57-1.5-1.681-2.13-2.101c5.1-4.079,5.58-10.109,5.58-14.909v-9.6H1278.634z M1262.705,6652.521
			c0,1.38-0.091,2.88-0.271,4.439h13.199v-4.439H1262.705z M1275.634,6645.351h-12.929v4.44h12.929V6645.351z"/>
		<path class="st2" d="M1300.714,6654.2c0.181,3.9-1.71,5.4-3.989,5.4c-1.41,0-2.61-0.45-4.77-1.53c-1.62-0.84-2.761-1.47-3.84-1.47
			c-1.11,0-1.801,0.81-1.86,2.819h-2.31c-0.09-3.63,1.77-5.34,4.199-5.34c1.44,0,2.61,0.511,4.71,1.561
			c1.68,0.84,2.79,1.38,3.87,1.38c1.109,0,1.649-0.96,1.68-2.82H1300.714z"/>
	</g>
	<g class="st1">
		<path class="st2" d="M1536.605,6666.5v-19.409h-0.06l-3.811,2.1l-0.779-2.55l5.1-2.729h2.939v22.589H1536.605z"/>
		<path class="st2" d="M1560.965,6666.5h-13.74v-2.13l2.37-2.49c4.77-4.89,7.409-8.01,7.409-11.399c0-2.189-1.05-4.109-3.899-4.109
			c-1.739,0-3.3,0.93-4.351,1.77l-1.049-2.49c1.379-1.14,3.569-2.1,6.09-2.1c4.649,0,6.689,3.15,6.689,6.57
			c0,4.14-2.82,7.589-6.75,11.549l-1.859,1.891v0.06h9.09V6666.5z"/>
		<path class="st2" d="M1587.604,6648.951c-0.06,0.149-0.149,0.329-0.299,0.42c-0.451,8.909-1.32,14.339-2.461,16.319
			c-0.99,1.649-2.49,2.31-4.17,2.31c-1.26,0-3.27-0.24-5.369-0.66c0.029-0.81-0.061-2.16-0.18-3c2.039,0.45,4.26,0.721,4.979,0.721
			c0.989,0,1.62-0.271,2.13-1.32c0.811-1.561,1.529-6.33,1.8-12.51h-8.43c-1.44,6.63-4.17,12.51-9.63,16.829
			c-0.539-0.54-1.65-1.38-2.43-1.829c5.07-3.87,7.619-9.03,8.91-15.03h-7.801v-2.789h8.34c0.33-2.101,0.451-3.87,0.601-6.3
			l3.989,0.359c-0.06,0.33-0.33,0.51-0.84,0.601c-0.18,2.04-0.3,3.539-0.6,5.34h8.699l0.57-0.21L1587.604,6648.951z"/>
		<path class="st2" d="M1614.065,6642.591v22.77c0,3.42-1.471,3.84-8.28,3.779c-0.18-0.81-0.72-2.189-1.2-2.97
			c1.32,0.061,2.641,0.09,3.69,0.09c2.61,0,2.79,0,2.79-0.93v-5.609h-13.68c-0.811,3.479-2.46,6.959-5.609,9.479
			c-0.42-0.57-1.5-1.681-2.131-2.101c5.1-4.079,5.58-10.109,5.58-14.909v-9.6H1614.065z M1598.135,6652.521
			c0,1.38-0.09,2.88-0.27,4.439h13.199v-4.439H1598.135z M1611.065,6645.351h-12.93v4.44h12.93V6645.351z"/>
		<path class="st2" d="M1636.145,6654.2c0.18,3.9-1.711,5.4-3.99,5.4c-1.41,0-2.609-0.45-4.77-1.53c-1.62-0.84-2.76-1.47-3.84-1.47
			c-1.11,0-1.801,0.81-1.859,2.819h-2.311c-0.09-3.63,1.77-5.34,4.199-5.34c1.44,0,2.61,0.511,4.711,1.561
			c1.68,0.84,2.789,1.38,3.869,1.38c1.109,0,1.65-0.96,1.68-2.82H1636.145z"/>
	</g>
	<g class="st1">
		<path class="st2" d="M1169.865,6613.657c2.699-2.771,7.99-8.747,10.187-11.122c1.08-1.116,2.159-1.656,3.239-1.656
			c1.116,0,2.231,0.648,3.42,1.656c4.428,4.031,12.022,12.274,17.098,18.825l-3.06,2.844c-4.68-6.587-12.274-15.118-15.73-18.394
			c-0.684-0.648-1.151-1.008-1.619-1.008c-0.396,0.036-0.864,0.396-1.476,1.044c-1.44,1.584-6.228,7.235-8.531,9.826
			c0.072,0.396-0.072,0.828-0.432,1.152L1169.865,6613.657z M1194.233,6598.72c1.584,1.403,3.42,3.6,4.428,5.111l-1.764,1.439
			c-0.936-1.512-2.916-3.888-4.319-5.147L1194.233,6598.72z M1198.588,6595.552c1.62,1.404,3.456,3.527,4.464,5.039l-1.764,1.404
			c-0.972-1.476-2.952-3.779-4.355-5.039L1198.588,6595.552z"/>
		<path class="st2" d="M1206.836,6609.446h30.057v3.6h-28.617c-0.216,0.359-0.684,0.611-1.151,0.647L1206.836,6609.446z"/>
		<path class="st2" d="M1242.045,6606.171c3.239,0.791,7.091,2.123,9.467,3.275l-1.548,3.131c-2.34-1.151-6.3-2.591-9.431-3.419
			L1242.045,6606.171z M1243.629,6623.376c11.338-3.707,19.401-9.719,24.225-20.445c0.72,0.648,2.34,1.8,3.132,2.304
			c-4.859,10.438-13.463,17.206-24.153,20.913c0.108,0.324-0.107,0.757-0.468,0.937L1243.629,6623.376z M1246.22,6597.279
			c3.24,0.937,6.983,2.304,9.432,3.527l-1.692,3.061c-2.556-1.368-6.083-2.772-9.322-3.708L1246.22,6597.279z"/>
		<path class="st2" d="M1277.216,6605.595c1.008,2.195,2.16,5.579,2.628,7.703l-2.808,0.792c-0.432-2.196-1.476-5.399-2.556-7.667
			L1277.216,6605.595z M1298.418,6606.206c-0.108,0.252-0.433,0.396-0.828,0.396c-2.88,10.547-8.315,16.918-16.774,20.337
			c-0.396-0.611-1.332-1.728-1.943-2.304c8.099-3.096,13.282-8.927,15.802-19.617L1298.418,6606.206z M1285.891,6604.011
			c0.757,2.304,1.44,5.759,1.692,8.027l-2.916,0.611c-0.288-2.34-0.972-5.651-1.728-8.026L1285.891,6604.011z"/>
		<path class="st2" d="M1328.478,6603.183c-0.107,0.252-0.432,0.468-0.647,0.612c-3.924,11.698-9.684,19.006-19.546,23.973
			c-0.576-0.828-1.62-2.016-2.628-2.771c9.215-4.392,14.759-11.123,17.566-19.905h-11.663c-1.943,2.987-4.787,6.155-7.847,8.566
			c-0.684-0.684-1.944-1.728-2.916-2.304c4.788-3.707,9.071-9.286,11.411-15.441l4.571,1.151c-0.108,0.36-0.576,0.54-1.08,0.54
			c-0.647,1.439-1.403,2.808-2.124,4.104h11.447l0.539-0.216L1328.478,6603.183z"/>
	</g>
	<g class="st1">
		<path class="st2" d="M1493.695,6601.959c-0.072,0.324-0.433,0.54-0.973,0.612c-1.367,8.566-4.319,17.602-8.494,23.001
			c-0.937-0.685-2.304-1.368-3.42-1.836c3.995-5.004,6.983-13.75,8.062-22.749L1493.695,6601.959z M1510.18,6625.356
			c-1.691-6.048-5.579-16.091-9.215-22.966l3.384-1.619c3.672,6.551,7.703,16.521,9.575,23.001L1510.18,6625.356z M1510.792,6594.58
			c2.159,0,3.959,1.764,3.959,3.959c0,2.196-1.8,3.96-3.959,3.96c-2.232,0-3.996-1.764-3.996-3.96
			C1506.796,6596.271,1508.632,6594.58,1510.792,6594.58z M1513.455,6598.539c0-1.512-1.188-2.699-2.663-2.699
			c-1.512,0-2.7,1.188-2.7,2.699c0,1.477,1.188,2.7,2.7,2.7C1512.34,6601.239,1513.455,6599.943,1513.455,6598.539z"/>
		<path class="st2" d="M1517.816,6609.446h30.057v3.6h-28.617c-0.216,0.359-0.684,0.611-1.151,0.647L1517.816,6609.446z"/>
		<path class="st2" d="M1579.517,6600.879c-0.107,0.216-0.324,0.396-0.612,0.504c-2.987,13.57-9.754,21.525-21.561,25.881
			c-0.54-0.899-1.692-2.231-2.412-2.951c11.015-3.6,17.422-11.411,19.474-21.13h-22.569v-3.419h23.901l0.647-0.433
			L1579.517,6600.879z"/>
		<path class="st2" d="M1603.422,6606.062v2.88h-8.495v12.994h10.511v2.844h-24.188v-2.844h10.51v-12.994h-8.387v-2.88H1603.422z"/>
		<path class="st2" d="M1635.498,6603.183c-0.107,0.252-0.432,0.468-0.647,0.612c-3.924,11.698-9.684,19.006-19.546,23.973
			c-0.576-0.828-1.62-2.016-2.628-2.771c9.215-4.392,14.759-11.123,17.566-19.905h-11.663c-1.943,2.987-4.787,6.155-7.847,8.566
			c-0.684-0.684-1.944-1.728-2.916-2.304c4.788-3.707,9.071-9.286,11.411-15.441l4.571,1.151c-0.108,0.36-0.576,0.54-1.08,0.54
			c-0.647,1.439-1.403,2.808-2.124,4.104h11.447l0.539-0.216L1635.498,6603.183z"/>
		<path class="st2" d="M1659.115,6615.745c-3.312-1.872-8.171-4.176-11.915-5.651v17.422h-3.779v-31.496l4.823,0.288
			c-0.035,0.396-0.359,0.684-1.044,0.828v10.295l0.721-1.008c4.104,1.512,9.574,3.923,13.21,5.831L1659.115,6615.745z"/>
	</g>
	<g id="グループ_1587" transform="translate(0 2218)">
		<g class="st1">
			<path class="st3" d="M827.116,4501.559v6.048h-16.633l-1.575,11.278c0.945-0.063,1.827-0.189,3.15-0.189
				c8.632,0,16.066,5.04,16.066,14.743c0,9.135-6.993,16.255-17.326,16.255c-4.662,0-8.884-1.261-11.089-2.646l1.638-5.544
				c1.89,1.07,5.355,2.394,9.199,2.394c5.355,0,10.144-3.654,10.144-9.828c0-6.111-4.158-9.955-12.601-9.955
				c-2.395,0-4.159,0.126-5.733,0.378l2.961-22.933H827.116z"/>
			<path class="st3" d="M862.522,4501.559v6.048h-16.633l-1.575,11.278c0.945-0.063,1.827-0.189,3.15-0.189
				c8.632,0,16.066,5.04,16.066,14.743c0,9.135-6.993,16.255-17.326,16.255c-4.662,0-8.884-1.261-11.089-2.646l1.638-5.544
				c1.89,1.07,5.355,2.394,9.199,2.394c5.355,0,10.144-3.654,10.144-9.828c0-6.111-4.158-9.955-12.601-9.955
				c-2.394,0-4.158,0.126-5.733,0.378l2.961-22.933H862.522z"/>
			<path class="st3" d="M881.169,4539.234c-1.827,6.301-4.978,14.113-7.372,18.082l-5.041,0.504
				c1.764-4.788,3.654-12.349,4.474-17.893L881.169,4539.234z"/>
			<path class="st3" d="M885.703,4525.374c0-15.499,5.859-24.571,15.688-24.571c10.018,0,15.058,9.702,15.058,24.067
				c0,16.065-5.796,24.823-15.562,24.823C890.996,4549.693,885.703,4539.928,885.703,4525.374z M909.078,4525.122
				c0-11.278-2.394-18.523-7.938-18.523c-4.789,0-8.064,6.679-8.064,18.523c0,11.781,2.898,18.712,7.938,18.712
				C907.188,4543.834,909.078,4534.95,909.078,4525.122z"/>
			<path class="st3" d="M921.109,4525.374c0-15.499,5.859-24.571,15.688-24.571c10.018,0,15.058,9.702,15.058,24.067
				c0,16.065-5.796,24.823-15.562,24.823C926.402,4549.693,921.109,4539.928,921.109,4525.374z M944.484,4525.122
				c0-11.278-2.395-18.523-7.938-18.523c-4.789,0-8.064,6.679-8.064,18.523c0,11.781,2.898,18.712,7.938,18.712
				C942.593,4543.834,944.484,4534.95,944.484,4525.122z"/>
			<path class="st3" d="M956.515,4525.374c0-15.499,5.859-24.571,15.688-24.571c10.018,0,15.058,9.702,15.058,24.067
				c0,16.065-5.796,24.823-15.562,24.823C961.807,4549.693,956.515,4539.928,956.515,4525.374z M979.889,4525.122
				c0-11.278-2.394-18.523-7.938-18.523c-4.788,0-8.064,6.679-8.064,18.523c0,11.781,2.898,18.712,7.938,18.712
				C977.999,4543.834,979.889,4534.95,979.889,4525.122z"/>
		</g>
		<g class="st1">
			<path class="st3" d="M1028.027,4518.712v31.548c0,4.536-2.101,4.956-9.956,4.956c-0.168-1.134-0.84-2.94-1.471-3.99
				c1.387,0.042,2.73,0.084,3.865,0.084c3.444,0,3.528,0,3.528-1.092v-11.889h-27.389v16.929h-3.99v-36.546H1028.027z
				 M996.605,4522.661v11.721h11.468v-11.721H996.605z M1012.022,4534.381h11.972v-11.721h-11.972V4534.381z"/>
		</g>
		<g class="st1">
			<path class="st3" d="M1035.886,4552h-2.548l9.776-18.98h2.548L1035.886,4552z"/>
			<path class="st3" d="M1060.534,4553.326l-1.273-3.406c0.441,0.078,1.04,0.156,2.054,0.156c0.754,0,0.962-0.208,0.962-0.78v-4.29
				h-7.826c-0.858,3.692-2.002,5.72-4.992,8.008l-2.574-2.132c1.847-1.481,4.836-3.848,4.836-9.646v-9.698h13.573v19.163
				C1065.293,4553.145,1063.187,4553.326,1060.534,4553.326z M1062.277,4539.571h-7.384c0,1.456-0.053,2.132-0.104,2.704h7.488
				V4539.571z M1062.277,4534.268h-7.384v2.704h7.384V4534.268z"/>
		</g>
	</g>
	<g id="グループ_1588" transform="translate(324 2218)">
		<g class="st1">
			<path class="st3" d="M827.115,4501.559v6.048h-16.633l-1.575,11.278c0.945-0.063,1.827-0.189,3.15-0.189
				c8.632,0,16.065,5.04,16.065,14.743c0,9.135-6.993,16.255-17.325,16.255c-4.662,0-8.884-1.261-11.089-2.646l1.638-5.544
				c1.891,1.07,5.355,2.394,9.199,2.394c5.354,0,10.144-3.654,10.144-9.828c0-6.111-4.158-9.955-12.601-9.955
				c-2.395,0-4.159,0.126-5.733,0.378l2.961-22.933H827.115z"/>
			<path class="st3" d="M834.737,4525.374c0-15.499,5.859-24.571,15.688-24.571c10.018,0,15.058,9.702,15.058,24.067
				c0,16.065-5.796,24.823-15.562,24.823C840.029,4549.693,834.737,4539.928,834.737,4525.374z M858.112,4525.122
				c0-11.278-2.395-18.523-7.938-18.523c-4.789,0-8.064,6.679-8.064,18.523c0,11.781,2.897,18.712,7.938,18.712
				C856.221,4543.834,858.112,4534.95,858.112,4525.122z"/>
			<path class="st3" d="M881.168,4539.234c-1.827,6.301-4.978,14.113-7.371,18.082l-5.041,0.504
				c1.765-4.788,3.654-12.349,4.474-17.893L881.168,4539.234z"/>
			<path class="st3" d="M885.703,4525.374c0-15.499,5.859-24.571,15.688-24.571c10.018,0,15.058,9.702,15.058,24.067
				c0,16.065-5.796,24.823-15.562,24.823C890.995,4549.693,885.703,4539.928,885.703,4525.374z M909.077,4525.122
				c0-11.278-2.394-18.523-7.938-18.523c-4.788,0-8.064,6.679-8.064,18.523c0,11.781,2.898,18.712,7.938,18.712
				C907.188,4543.834,909.077,4534.95,909.077,4525.122z"/>
			<path class="st3" d="M921.109,4525.374c0-15.499,5.859-24.571,15.688-24.571c10.018,0,15.058,9.702,15.058,24.067
				c0,16.065-5.796,24.823-15.562,24.823C926.402,4549.693,921.109,4539.928,921.109,4525.374z M944.484,4525.122
				c0-11.278-2.395-18.523-7.938-18.523c-4.789,0-8.064,6.679-8.064,18.523c0,11.781,2.897,18.712,7.938,18.712
				C942.593,4543.834,944.484,4534.95,944.484,4525.122z"/>
			<path class="st3" d="M956.515,4525.374c0-15.499,5.859-24.571,15.688-24.571c10.018,0,15.058,9.702,15.058,24.067
				c0,16.065-5.796,24.823-15.562,24.823C961.807,4549.693,956.515,4539.928,956.515,4525.374z M979.889,4525.122
				c0-11.278-2.394-18.523-7.938-18.523c-4.788,0-8.064,6.679-8.064,18.523c0,11.781,2.898,18.712,7.938,18.712
				C977.999,4543.834,979.889,4534.95,979.889,4525.122z"/>
		</g>
		<g class="st1">
			<path class="st3" d="M1028.027,4518.712v31.548c0,4.536-2.101,4.956-9.956,4.956c-0.168-1.134-0.84-2.94-1.471-3.99
				c1.387,0.042,2.73,0.084,3.865,0.084c3.444,0,3.528,0,3.528-1.092v-11.889h-27.389v16.929h-3.99v-36.546H1028.027z
				 M996.605,4522.661v11.721h11.468v-11.721H996.605z M1012.022,4534.381h11.972v-11.721h-11.972V4534.381z"/>
		</g>
		<g class="st1">
			<path class="st3" d="M1035.886,4552h-2.548l9.776-18.98h2.548L1035.886,4552z"/>
			<path class="st3" d="M1060.534,4553.326l-1.273-3.406c0.441,0.078,1.04,0.156,2.054,0.156c0.754,0,0.962-0.208,0.962-0.78v-4.29
				h-7.826c-0.858,3.692-2.002,5.72-4.992,8.008l-2.574-2.132c1.847-1.481,4.836-3.848,4.836-9.646v-9.698h13.573v19.163
				C1065.293,4553.145,1063.187,4553.326,1060.534,4553.326z M1062.277,4539.571h-7.384c0,1.456-0.053,2.132-0.104,2.704h7.488
				V4539.571z M1062.277,4534.268h-7.384v2.704h7.384V4534.268z"/>
		</g>
	</g>
	<g id="グループ_1589" transform="translate(655 2218)">
		<g class="st1">
			<path class="st3" d="M825.1,4549h-6.867v-12.538h-19.847v-4.725l18.586-30.179h8.128v29.359h5.922v5.544H825.1V4549z
				 M805.253,4530.918h12.979v-14.239c0-2.709,0.126-5.544,0.314-8.253h-0.252c-1.449,3.024-2.646,5.355-3.969,7.875l-9.073,14.491
				V4530.918z"/>
			<path class="st3" d="M862.522,4501.559v6.048h-16.633l-1.575,11.278c0.944-0.063,1.827-0.189,3.149-0.189
				c8.632,0,16.066,5.04,16.066,14.743c0,9.135-6.993,16.255-17.326,16.255c-4.662,0-8.884-1.261-11.089-2.646l1.639-5.544
				c1.89,1.07,5.355,2.394,9.198,2.394c5.355,0,10.144-3.654,10.144-9.828c0-6.111-4.158-9.955-12.601-9.955
				c-2.395,0-4.158,0.126-5.733,0.378l2.961-22.933H862.522z"/>
			<path class="st3" d="M881.168,4539.234c-1.827,6.301-4.978,14.113-7.371,18.082l-5.041,0.504
				c1.765-4.788,3.654-12.349,4.474-17.893L881.168,4539.234z"/>
			<path class="st3" d="M885.703,4525.374c0-15.499,5.859-24.571,15.688-24.571c10.018,0,15.058,9.702,15.058,24.067
				c0,16.065-5.796,24.823-15.562,24.823C890.995,4549.693,885.703,4539.928,885.703,4525.374z M909.077,4525.122
				c0-11.278-2.394-18.523-7.938-18.523c-4.788,0-8.064,6.679-8.064,18.523c0,11.781,2.898,18.712,7.938,18.712
				C907.188,4543.834,909.077,4534.95,909.077,4525.122z"/>
			<path class="st3" d="M921.109,4525.374c0-15.499,5.859-24.571,15.688-24.571c10.018,0,15.058,9.702,15.058,24.067
				c0,16.065-5.796,24.823-15.562,24.823C926.402,4549.693,921.109,4539.928,921.109,4525.374z M944.484,4525.122
				c0-11.278-2.395-18.523-7.938-18.523c-4.789,0-8.064,6.679-8.064,18.523c0,11.781,2.897,18.712,7.938,18.712
				C942.593,4543.834,944.484,4534.95,944.484,4525.122z"/>
			<path class="st3" d="M956.515,4525.374c0-15.499,5.859-24.571,15.688-24.571c10.018,0,15.058,9.702,15.058,24.067
				c0,16.065-5.796,24.823-15.562,24.823C961.807,4549.693,956.515,4539.928,956.515,4525.374z M979.889,4525.122
				c0-11.278-2.394-18.523-7.938-18.523c-4.788,0-8.064,6.679-8.064,18.523c0,11.781,2.898,18.712,7.938,18.712
				C977.999,4543.834,979.889,4534.95,979.889,4525.122z"/>
		</g>
		<g class="st1">
			<path class="st3" d="M1028.027,4518.712v31.548c0,4.536-2.101,4.956-9.956,4.956c-0.168-1.134-0.84-2.94-1.471-3.99
				c1.387,0.042,2.73,0.084,3.865,0.084c3.445,0,3.529,0,3.529-1.092v-11.889h-27.389v16.929h-3.991v-36.546H1028.027z
				 M996.606,4522.661v11.721h11.467v-11.721H996.606z M1012.022,4534.381h11.973v-11.721h-11.973V4534.381z"/>
		</g>
		<g class="st1">
			<path class="st3" d="M1035.886,4552h-2.548l9.776-18.98h2.548L1035.886,4552z"/>
			<path class="st3" d="M1060.534,4553.326l-1.273-3.406c0.441,0.078,1.04,0.156,2.054,0.156c0.754,0,0.962-0.208,0.962-0.78v-4.29
				h-7.826c-0.858,3.692-2.002,5.72-4.992,8.008l-2.574-2.132c1.847-1.481,4.836-3.848,4.836-9.646v-9.698h13.573v19.163
				C1065.293,4553.145,1063.187,4553.326,1060.534,4553.326z M1062.277,4539.571h-7.384c0,1.456-0.053,2.132-0.104,2.704h7.488
				V4539.571z M1062.277,4534.268h-7.384v2.704h7.384V4534.268z"/>
		</g>
	</g>
	<g id="グループ_1776" transform="translate(-40.5 -249.5)">
		<g id="グループ_1585" transform="translate(2591 -346)">
			<g class="st1">
				<path class="st2" d="M-2054.671,7387.123c0-28.783,10.881-45.632,29.134-45.632c18.604,0,27.964,18.02,27.964,44.696
					c0,29.836-10.764,46.1-28.9,46.1C-2044.842,7432.287-2054.671,7414.151-2054.671,7387.123z M-2011.262,7386.655
					c0-20.943-4.446-34.399-14.743-34.399c-8.892,0-14.977,12.402-14.977,34.399c0,21.88,5.382,34.75,14.743,34.75
					C-2014.772,7421.405-2011.262,7404.908-2011.262,7386.655z"/>
			</g>
			<g class="st1">
				<path class="st2" d="M-1956.313,7398.54v29.29c0,4.212-1.95,4.602-9.243,4.602c-0.156-1.053-0.78-2.729-1.365-3.705
					c1.287,0.039,2.535,0.078,3.588,0.078c3.198,0,3.276,0,3.276-1.014v-11.037h-25.429v15.717h-3.705v-33.931H-1956.313z
					 M-1985.486,7402.206v10.882h10.647v-10.882H-1985.486z M-1971.173,7413.088h11.115v-10.882h-11.115V7413.088z"/>
			</g>
			<line id="線_18" class="st4" x1="-1993.181" y1="7330.961" x2="-1998.95" y2="7342.499"/>
			<line id="線_19" class="st4" x1="-1980.594" y1="7347.219" x2="-1991.083" y2="7352.464"/>
			<line id="線_20" class="st4" x1="-1977.447" y1="7365.575" x2="-1988.985" y2="7365.575"/>
		</g>
		<g class="st1">
			<path class="st3" d="M203.722,6908.073c-4.515,3.849-9.399,7.475-14.431,10.509c-0.962-1.554-2.886-4.07-4.366-5.477
				c12.803-7.326,25.458-19.686,31.082-29.454l9.473,0.593c-0.222,0.739-0.814,1.184-1.702,1.332
				c7.104,9.842,20.277,20.795,31.526,26.567c-1.702,1.702-3.331,3.996-4.663,6.068c-4.81-2.886-9.843-6.513-14.579-10.435v6.29
				h-32.34V6908.073z M238.874,6922.504l1.48-0.222l4.81,1.776c-0.148,0.443-0.444,0.962-0.74,1.332
				c-3.108,7.03-8.733,19.02-13.395,28.418l-7.475-1.998c3.7-6.957,7.918-15.911,10.953-22.646h-40.629v-6.661H238.874z
				 M235.766,6907.556c-6.438-5.402-12.285-11.323-16.059-16.651c-3.552,5.18-8.955,11.101-15.393,16.651H235.766z"/>
			<path class="st3" d="M289.119,6886.464c-0.222,0.74-0.962,1.332-2.22,1.48c-0.444,2.886-1.184,6.586-1.776,9.103
				c6.217-0.37,14.061-1.629,19.981-3.479l0.962,7.03c-6.661,1.555-14.431,2.738-22.276,3.33
				c-3.478,13.839-8.141,25.31-14.875,35.893l-7.252-2.664c6.438-9.473,11.471-20.573,14.283-33.08
				c-1.554,0.074-3.479,0.074-5.106,0.074h-8.659v-6.734h8.511c2.294,0,4.588,0,6.512-0.074c0.74-3.626,1.332-7.771,1.776-11.841
				L289.119,6886.464z M308.434,6918.434c0.074,5.181,0.37,9.325,0.74,13.987c4.366,1.776,10.657,4.885,15.097,7.992l-3.552,6.809
				c-3.404-2.664-8.141-5.402-11.545-7.03c0,4.07-1.628,12.211-14.431,12.211c-8.067-0.074-14.653-3.922-14.579-11.396
				c0.074-7.475,7.623-11.471,14.727-11.471c2.22,0,4.514,0.37,7.03,0.962c-0.296-4.145-0.518-8.362-0.518-11.249L308.434,6918.434z
				 M302.365,6937.083c-2.516-1.036-5.402-1.479-7.622-1.479c-3.997,0-8.215,1.702-8.215,5.402c0,3.404,3.404,5.254,8.363,5.254
				c4.144,0,7.474-1.85,7.474-6.438V6937.083z M323.531,6911.995c-8.141,0.074-18.057,1.259-25.902,3.257l-1.11-6.438
				c8.437-2.221,18.501-3.774,26.642-3.774L323.531,6911.995z"/>
			<path class="st3" d="M346.616,6900.747c-0.296,0.74-0.888,1.109-1.924,1.258c-0.74,10.583-1.85,18.131-3.035,19.833h0.074
				c6.734-4.736,17.317-8.214,25.754-8.214c10.953,0,18.501,5.92,18.427,16.577c-0.148,13.913-11.101,20.425-40.185,21.535
				c-0.592-1.776-1.628-4.736-2.664-6.734c25.162-1.11,34.856-4.958,34.931-14.653c0.074-6.143-4.366-10.064-11.989-10.064
				c-11.545,0-23.756,6.956-26.198,11.545l-6.956-3.108c1.554-1.332,4.218-15.171,4.366-29.158L346.616,6900.747z M346.468,6885.724
				c9.398,1.036,21.091,3.183,28.566,6.143l-2.442,7.179c-7.549-3.108-19.315-5.328-28.344-6.513L346.468,6885.724z"/>
		</g>
		<g class="st1">
			<path class="st2" d="M447.634,6917.714c-0.222,0.296-0.592,0.444-1.036,0.444c-0.222,0-0.444,0-0.666-0.074
				c-1.406,1.85-3.848,4.515-5.92,6.586c2.368,2.368,4.588,4.589,5.477,5.551l-4.218,5.328c-1.554-2.294-4.736-6.216-7.548-9.473
				v29.011h-6.883v-26.42c-2.886,3.107-5.846,5.92-8.732,8.141c-0.74-1.776-2.59-5.106-3.774-6.291
				c7.845-5.477,15.985-15.171,20.795-24.865h-18.723v-6.365h10.435v-13.542l8.584,0.518c-0.074,0.592-0.518,1.036-1.702,1.258
				v11.767h5.18l1.11-0.369l4.663,2.812c-0.148,0.444-0.592,0.74-1.11,0.889c-2.22,5.624-5.476,11.396-9.176,16.65
				c0.666,0.593,1.48,1.332,2.368,2.221c1.998-2.517,4.292-5.772,5.624-8.066L447.634,6917.714z M479.309,6892.108l3.922,0.222
				c0,0.518-0.074,1.628-0.074,2.442c-0.814,39.001-1.628,51.804-4.44,55.651c-2.072,3.034-3.997,4.145-10.953,4.145
				c-1.924,0-3.922-0.074-5.994-0.148c-0.074-1.998-0.962-5.18-2.22-7.252c4.366,0.37,8.214,0.37,10.064,0.37
				c1.184,0,1.85-0.296,2.59-1.332c2.22-2.517,3.034-14.875,3.7-47.438h-13.395c-0.592,20.203-1.924,43.589-19.389,56.392
				c-1.184-1.85-3.404-4.144-5.329-5.402c15.985-10.952,17.244-31.6,17.688-50.989h-11.915v-6.66H479.309z"/>
			<path class="st2" d="M526.667,6930.812v6.143h-37.373v-6.143h7.031v-29.454h-6.143v-6.142h6.143v-8.659l8.066,0.519
				c-0.074,0.592-0.592,0.962-1.702,1.184v6.957h11.767v-8.659l8.141,0.519c-0.074,0.592-0.518,1.035-1.628,1.184v6.957h5.329v6.142
				h-5.329v29.454H526.667z M506.907,6940.729c-0.222,0.518-0.74,0.74-1.702,0.666c-2.442,4.811-6.586,10.213-10.509,13.691
				c-1.258-1.259-3.7-3.034-5.254-3.997c3.7-3.034,7.548-8.141,9.769-12.95L506.907,6940.729z M514.456,6901.358h-11.767v5.847
				h11.767V6901.358z M502.689,6912.682v6.068h11.767v-6.068H502.689z M502.689,6924.227v6.586h11.767v-6.586H502.689z
				 M556.417,6889.296v57.65c0,6.956-2.665,8.288-14.653,8.141c-0.222-1.851-1.184-4.885-2.072-6.735
				c2.146,0.148,4.367,0.148,6.069,0.148c3.478,0,3.848,0,3.848-1.554v-17.021h-14.135c-0.962,9.103-3.256,18.575-8.51,25.458
				c-1.11-1.185-3.922-3.33-5.477-4.07l0.592-0.814l-3.108,1.776c-1.406-3.034-4.884-7.845-7.845-11.396l5.402-2.961
				c2.517,2.887,5.551,6.734,7.327,9.621c5.106-9.398,5.625-21.388,5.625-31.009v-27.233H556.417z M536.14,6916.529
				c0,2.221-0.074,4.589-0.148,7.031h13.617v-10.879H536.14V6916.529z M549.609,6895.66H536.14v10.73h13.469V6895.66z"/>
			<path class="st2" d="M573.951,6943.764v-22.646c-1.85,0.518-3.922,0.962-6.216,1.332c-0.592-1.48-2.146-4.145-3.33-5.402
				c9.473-1.554,14.949-3.774,18.057-6.513h-8.437l-0.37,0.889l-6.438-0.37c1.554-3.553,3.331-8.585,4.515-12.803h14.727v-3.701
				h-18.649v-4.366h18.649v-4.439l8.066,0.518c-0.074,0.592-0.592,0.962-1.702,1.11v2.812h10.213v-4.439l8.362,0.518
				c-0.074,0.592-0.592,0.962-1.702,1.184v2.738h16.429v12.434h-16.429v3.552h16.059l1.48-0.147l3.774,0.443l-0.222,1.702
				c-0.666,7.4-1.406,9.547-6.142,9.991c-0.37,0-0.888,0-1.48,0.073v25.532H573.951z M593.563,6947.39
				c-0.444,0.444-0.814,0.444-1.851,0.444c-5.994,2.664-15.023,5.624-22.498,7.326c-1.11-1.332-3.256-3.7-4.662-4.81
				c7.475-1.406,16.503-3.923,21.832-6.513L593.563,6947.39z M576.911,6902.617l-1.258,3.552h9.917
				c0.444-1.11,0.666-2.294,0.814-3.552H576.911z M616.06,6923.486v-3.849h-35.3v3.849H616.06z M616.06,6931.479v-3.922h-35.3v3.922
				H616.06z M616.06,6939.545v-3.996h-35.3v3.996H616.06z M603.035,6910.535h-12.211c-0.962,1.702-2.22,3.33-3.997,4.811h16.208
				V6910.535z M603.035,6906.169v-3.552h-10.287c-0.074,1.258-0.222,2.441-0.444,3.552H603.035z M592.822,6894.55v3.701h10.213
				v-3.701H592.822z M623.979,6955.16c-4.588-2.22-12.581-5.254-20.722-7.696l5.625-3.626c8.141,2.368,17.391,5.477,22.793,7.771
				L623.979,6955.16z M619.686,6894.55h-9.991v3.701h9.991V6894.55z M617.318,6915.346c-0.222-0.592-0.444-1.258-0.74-1.702
				c1.628,0.148,3.035,0.222,3.997,0.222c2.442,0,2.886,0,3.33-3.33h-14.209v4.811H617.318z"/>
			<path class="st2" d="M701.383,6890.85v55.356c0,7.696-3.331,8.584-17.835,8.437c-0.296-1.924-1.406-4.959-2.368-6.809
				c2.886,0.148,5.846,0.148,8.066,0.148c4.884,0,5.106,0,5.106-1.851v-13.543h-18.575v21.535h-6.882v-21.535h-17.169
				c-1.258,8.289-3.922,16.799-9.473,22.941c-1.036-1.406-3.922-3.848-5.476-4.662c8.214-9.177,8.955-22.497,8.955-33.08v-26.938
				H701.383z M652.687,6917.862c0,2.516-0.074,5.254-0.296,8.066h16.503v-10.879h-16.208V6917.862z M668.895,6897.584h-16.208
				v10.879h16.208V6897.584z M694.352,6908.463v-10.879h-18.575v10.879H694.352z M675.777,6925.929h18.575v-10.879h-18.575V6925.929
				z"/>
		</g>
		<g class="st1">
			<path class="st2" d="M734.404,6904.079c-0.174,0.812-0.87,1.102-1.914,1.16c-0.638,3.016-1.566,8.294-2.262,11.716
				c2.088-0.232,4.292-0.406,5.626-0.406c9.222-0.059,12.18,6.206,12.18,15.079c0,2.32-0.406,8.004-1.74,12.238
				c-1.798,6.496-5.625,9.686-10.788,9.686c-2.32,0-5.626-1.102-10.498-4.93c0.812-1.45,1.566-3.248,2.03-4.93
				c4.292,3.189,6.67,3.886,8.352,3.886c2.784,0,4.408-2.03,5.452-5.51c0.928-3.074,1.508-8.12,1.508-10.672
				c-0.058-6.148-2.03-9.512-6.96-9.454c-1.566,0-3.712,0.116-6.264,0.464c-2.784,11.194-6.032,21.401-11.31,30.739l-5.336-2.552
				c5.162-8.874,8.236-17.283,10.788-27.549l-9.57,1.334l-0.464-5.685l11.136-1.218c0.812-4.233,1.624-9.338,2.204-14.325
				L734.404,6904.079z M751.107,6912.373c-1.392-2.494-4.756-6.264-7.134-8.12l2.726-1.972c2.726,2.088,5.858,5.51,7.366,8.004
				L751.107,6912.373z M758.647,6935.92c-1.624-7.829-5.8-15.195-10.614-19.371l4.756-3.074c5.568,4.872,10.15,12.354,11.89,20.357
				L758.647,6935.92z M760.097,6909.995c-1.392-2.437-4.756-6.206-7.192-8.062l2.784-2.029c2.726,2.146,5.8,5.567,7.366,8.062
				L760.097,6909.995z"/>
		</g>
		<g class="st1">
			<path class="st2" d="M215.768,7036.832v5.376h-14.784l-1.4,10.024c0.84-0.057,1.624-0.168,2.8-0.168
				c7.672,0,14.28,4.479,14.28,13.104c0,8.12-6.216,14.448-15.4,14.448c-4.144,0-7.896-1.12-9.856-2.353l1.456-4.928
				c1.68,0.952,4.76,2.128,8.176,2.128c4.76,0,9.016-3.248,9.016-8.735c0-5.433-3.696-8.849-11.2-8.849
				c-2.128,0-3.696,0.112-5.096,0.336l2.632-20.384H215.768z"/>
			<path class="st2" d="M223.72,7058c0-13.775,5.208-21.84,13.944-21.84c8.904,0,13.384,8.624,13.384,21.392
				c0,14.28-5.152,22.064-13.832,22.064C228.424,7079.616,223.72,7070.936,223.72,7058z M244.496,7057.776
				c0-10.024-2.128-16.464-7.056-16.464c-4.256,0-7.168,5.936-7.168,16.464c0,10.472,2.576,16.632,7.056,16.632
				C242.816,7074.408,244.496,7066.512,244.496,7057.776z"/>
			<path class="st2" d="M266.168,7070.32c-1.624,5.6-4.424,12.544-6.552,16.071l-4.48,0.448c1.568-4.256,3.248-10.976,3.976-15.904
				L266.168,7070.32z"/>
			<path class="st2" d="M271.375,7058c0-13.775,5.208-21.84,13.944-21.84c8.904,0,13.384,8.624,13.384,21.392
				c0,14.28-5.152,22.064-13.832,22.064C276.079,7079.616,271.375,7070.936,271.375,7058z M292.152,7057.776
				c0-10.024-2.128-16.464-7.056-16.464c-4.256,0-7.168,5.936-7.168,16.464c0,10.472,2.576,16.632,7.056,16.632
				C290.471,7074.408,292.152,7066.512,292.152,7057.776z"/>
			<path class="st2" d="M304.023,7058c0-13.775,5.208-21.84,13.944-21.84c8.904,0,13.384,8.624,13.384,21.392
				c0,14.28-5.152,22.064-13.832,22.064C308.727,7079.616,304.023,7070.936,304.023,7058z M324.799,7057.776
				c0-10.024-2.128-16.464-7.056-16.464c-4.256,0-7.168,5.936-7.168,16.464c0,10.472,2.576,16.632,7.056,16.632
				C323.119,7074.408,324.799,7066.512,324.799,7057.776z"/>
			<path class="st2" d="M336.671,7058c0-13.775,5.208-21.84,13.944-21.84c8.904,0,13.384,8.624,13.384,21.392
				c0,14.28-5.152,22.064-13.832,22.064C341.375,7079.616,336.671,7070.936,336.671,7058z M357.447,7057.776
				c0-10.024-2.128-16.464-7.056-16.464c-4.256,0-7.168,5.936-7.168,16.464c0,10.472,2.576,16.632,7.056,16.632
				C355.767,7074.408,357.447,7066.512,357.447,7057.776z"/>
		</g>
		<g class="st1">
			<path class="st2" d="M402.933,7050.58v29.29c0,4.212-1.95,4.602-9.243,4.602c-0.156-1.053-0.78-2.729-1.365-3.705
				c1.287,0.039,2.535,0.078,3.588,0.078c3.198,0,3.276,0,3.276-1.014v-11.037H373.76v15.717h-3.705v-33.931H402.933z
				 M373.76,7054.246v10.882h10.647v-10.882H373.76z M388.074,7065.128h11.115v-10.882h-11.115V7065.128z"/>
		</g>
		<g class="st1">
			<path class="st2" d="M693.76,7021.942c-0.148,0.813-0.888,1.258-2.368,1.332c-2.664,12.581-3.848,25.827-3.848,32.858
				c0,4.884,0.148,9.546,0.666,12.507c1.184-2.887,4.218-9.843,5.181-12.359l3.774,5.106c-2.738,6.29-5.18,10.435-6.216,13.839
				c-0.37,1.258-0.592,2.368-0.592,3.479c0,0.888,0.148,1.702,0.37,2.516l-7.326,1.185c-2.442-7.104-3.331-16.06-3.331-25.976
				c0-9.843,1.48-23.46,3.626-35.967L693.76,7021.942z M739.496,7076.632c-2.59,0.148-5.328,0.222-8.066,0.222
				c-5.033,0-9.917-0.222-13.395-0.739c-9.695-1.333-13.913-6.587-13.913-12.729c0-5.181,2.664-9.62,6.661-14.505l6.957,2.517
				c-3.552,3.552-5.92,7.104-5.92,11.026c0,6.883,9.25,7.326,17.761,7.326c3.33,0,6.957-0.147,10.139-0.518L739.496,7076.632z
				 M705.453,7030.083c8.955-0.223,22.35-1.185,31.749-2.812l0.74,7.252c-9.103,1.555-23.682,2.517-32.266,2.665L705.453,7030.083z"
				/>
		</g>
		<path id="Icon_awesome-long-arrow-alt-right" d="M483.352,7044.839h-46.504c-1.019,0-1.846,0.825-1.848,1.844v8.625
			c0,1.021,0.827,1.848,1.848,1.848c0,0,0,0,0,0h46.5v7.094c0.005,2.043,1.665,3.696,3.709,3.691
			c0.975-0.002,1.91-0.389,2.601-1.077l13.259-13.251c1.442-1.444,1.442-3.784,0-5.228l-13.254-13.254
			c-1.448-1.441-3.791-1.436-5.233,0.012c-0.688,0.691-1.075,1.626-1.077,2.602L483.352,7044.839z"/>
		<line id="線_39" class="st5" x1="174.5" y1="7060.5" x2="413.5" y2="7060.5"/>
	</g>
	<g class="st1">
		<path class="st6" d="M1047.607,6729.667l5.061,5.061l5.061-5.061l0.445,0.445l-5.061,5.061l5.061,5.061l-0.445,0.444l-5.061-5.061
			l-5.075,5.076l-0.445-0.444l5.076-5.076l-5.061-5.061L1047.607,6729.667z M1048.297,6736.323c-0.629,0-1.15-0.521-1.15-1.15
			s0.521-1.15,1.15-1.15s1.15,0.521,1.15,1.15C1049.448,6735.832,1048.895,6736.323,1048.297,6736.323z M1051.518,6730.802
			c0-0.628,0.521-1.149,1.149-1.149s1.15,0.521,1.15,1.149c0,0.629-0.521,1.15-1.15,1.15
			C1052.008,6731.952,1051.518,6731.4,1051.518,6730.802z M1053.818,6739.543c0,0.629-0.521,1.15-1.15,1.15s-1.149-0.521-1.149-1.15
			s0.521-1.15,1.149-1.15C1053.327,6738.393,1053.818,6738.945,1053.818,6739.543z M1057.038,6734.022
			c0.629,0,1.149,0.521,1.149,1.15s-0.521,1.15-1.149,1.15s-1.15-0.521-1.15-1.15
			C1055.888,6734.514,1056.44,6734.022,1057.038,6734.022z"/>
		<path class="st6" d="M1063.468,6741v-9.922h-0.031l-1.947,1.073l-0.398-1.303l2.606-1.396h1.503V6741H1063.468z"/>
	</g>
	<g class="st1">
		<path class="st6" d="M1371.607,6729.667l5.061,5.061l5.061-5.061l0.445,0.445l-5.061,5.061l5.061,5.061l-0.445,0.444l-5.061-5.061
			l-5.075,5.076l-0.445-0.444l5.076-5.076l-5.061-5.061L1371.607,6729.667z M1372.297,6736.323c-0.629,0-1.15-0.521-1.15-1.15
			s0.521-1.15,1.15-1.15s1.15,0.521,1.15,1.15C1373.448,6735.832,1372.895,6736.323,1372.297,6736.323z M1375.518,6730.802
			c0-0.628,0.521-1.149,1.149-1.149s1.15,0.521,1.15,1.149c0,0.629-0.521,1.15-1.15,1.15
			C1376.008,6731.952,1375.518,6731.4,1375.518,6730.802z M1377.818,6739.543c0,0.629-0.521,1.15-1.15,1.15s-1.149-0.521-1.149-1.15
			s0.521-1.15,1.149-1.15C1377.327,6738.393,1377.818,6738.945,1377.818,6739.543z M1381.038,6734.022
			c0.629,0,1.149,0.521,1.149,1.15s-0.521,1.15-1.149,1.15s-1.15-0.521-1.15-1.15
			C1379.888,6734.514,1380.44,6734.022,1381.038,6734.022z"/>
		<path class="st6" d="M1387.468,6741v-9.922h-0.031l-1.947,1.073l-0.398-1.303l2.606-1.396h1.503V6741H1387.468z"/>
	</g>
	<g class="st1">
		<path class="st6" d="M1697.607,6729.667l5.061,5.061l5.061-5.061l0.445,0.445l-5.061,5.061l5.061,5.061l-0.445,0.444l-5.061-5.061
			l-5.075,5.076l-0.445-0.444l5.076-5.076l-5.061-5.061L1697.607,6729.667z M1698.297,6736.323c-0.629,0-1.15-0.521-1.15-1.15
			s0.521-1.15,1.15-1.15s1.15,0.521,1.15,1.15C1699.448,6735.832,1698.895,6736.323,1698.297,6736.323z M1701.518,6730.802
			c0-0.628,0.521-1.149,1.149-1.149s1.15,0.521,1.15,1.149c0,0.629-0.521,1.15-1.15,1.15
			C1702.008,6731.952,1701.518,6731.4,1701.518,6730.802z M1703.818,6739.543c0,0.629-0.521,1.15-1.15,1.15s-1.149-0.521-1.149-1.15
			s0.521-1.15,1.149-1.15C1703.327,6738.393,1703.818,6738.945,1703.818,6739.543z M1707.038,6734.022
			c0.629,0,1.149,0.521,1.149,1.15s-0.521,1.15-1.149,1.15s-1.15-0.521-1.15-1.15
			C1705.888,6734.514,1706.44,6734.022,1707.038,6734.022z"/>
		<path class="st6" d="M1713.468,6741v-9.922h-0.031l-1.947,1.073l-0.398-1.303l2.606-1.396h1.503V6741H1713.468z"/>
	</g>
	<g class="st1">
		<path class="st7" d="M826.62,6846v-19.409h-0.06l-3.81,2.1l-0.78-2.55l5.1-2.729h2.94V6846H826.62z"/>
		<path class="st7" d="M836.97,6834.75c0-7.379,2.79-11.699,7.47-11.699c4.77,0,7.17,4.62,7.17,11.46
			c0,7.649-2.76,11.819-7.41,11.819C839.49,6846.33,836.97,6841.68,836.97,6834.75z M848.1,6834.631c0-5.37-1.14-8.82-3.78-8.82
			c-2.28,0-3.84,3.18-3.84,8.82c0,5.609,1.38,8.909,3.78,8.909C847.199,6843.54,848.1,6839.311,848.1,6834.631z"/>
		<path class="st7" d="M859.08,6841.351c-0.87,2.999-2.37,6.72-3.51,8.609l-2.4,0.24c0.84-2.28,1.74-5.88,2.13-8.521
			L859.08,6841.351z"/>
		<path class="st7" d="M861.239,6834.75c0-7.379,2.79-11.699,7.47-11.699c4.77,0,7.17,4.62,7.17,11.46
			c0,7.649-2.76,11.819-7.41,11.819C863.759,6846.33,861.239,6841.68,861.239,6834.75z M872.369,6834.631
			c0-5.37-1.14-8.82-3.78-8.82c-2.28,0-3.84,3.18-3.84,8.82c0,5.609,1.38,8.909,3.78,8.909
			C871.469,6843.54,872.369,6839.311,872.369,6834.631z"/>
		<path class="st7" d="M878.099,6834.75c0-7.379,2.79-11.699,7.47-11.699c4.77,0,7.17,4.62,7.17,11.46
			c0,7.649-2.76,11.819-7.41,11.819C880.619,6846.33,878.099,6841.68,878.099,6834.75z M889.229,6834.631
			c0-5.37-1.14-8.82-3.78-8.82c-2.28,0-3.84,3.18-3.84,8.82c0,5.609,1.38,8.909,3.78,8.909
			C888.329,6843.54,889.229,6839.311,889.229,6834.631z"/>
		<path class="st7" d="M894.96,6834.75c0-7.379,2.79-11.699,7.47-11.699c4.77,0,7.17,4.62,7.17,11.46
			c0,7.649-2.76,11.819-7.41,11.819C897.48,6846.33,894.96,6841.68,894.96,6834.75z M906.089,6834.631c0-5.37-1.14-8.82-3.78-8.82
			c-2.28,0-3.84,3.18-3.84,8.82c0,5.609,1.38,8.909,3.78,8.909C905.189,6843.54,906.089,6839.311,906.089,6834.631z"/>
		<path class="st7" d="M920.129,6835.051c-1.38,3.479-3.18,6.539-5.43,8.76l-2.49-1.561c2.13-2.01,3.99-4.77,5.189-8.22
			L920.129,6835.051z M926.609,6830.61v13.109c0,3.99-3.06,3.96-7.53,3.9c-0.15-0.78-0.48-1.92-0.84-2.76
			c0.9,0.029,2.01,0.06,2.88,0.06c1.83,0,2.459,0,2.459-1.14v-13.17h-9.81v-2.85h9.81v-6.06l3.84,0.18
			c-0.06,0.33-0.27,0.6-0.81,0.66v5.22h9.779v2.85H926.609z M931.979,6833.79c2.16,2.431,4.56,5.88,6.06,8.49l-2.7,1.56
			c-1.32-2.64-3.9-6.6-5.79-8.789L931.979,6833.79z M935.638,6819.931c1.83,0,3.299,1.5,3.299,3.33s-1.47,3.3-3.299,3.3
			s-3.3-1.47-3.3-3.3C932.339,6821.371,933.868,6819.931,935.638,6819.931z M937.888,6823.261c0-1.26-1.02-2.25-2.25-2.25
			s-2.25,0.99-2.25,2.25c0,1.23,1.02,2.25,2.25,2.25C936.928,6825.511,937.888,6824.431,937.888,6823.261z"/>
		<path class="st7" d="M965.458,6823.831c-0.15,0.149-0.36,0.27-0.66,0.27c-0.09,0-0.18,0-0.3-0.029
			c-2.31,2.31-5.399,4.89-8.279,6.989c0.27,0.12,0.63,0.271,0.81,0.33c-0.06,0.24-0.33,0.45-0.72,0.51v15.84h-3.15v-14.729
			c-2.939,2.04-6.989,4.35-10.649,6.149c-0.42-0.689-1.2-1.74-1.8-2.31c8.01-3.63,16.979-9.93,21.689-15.3L965.458,6823.831z"/>
		<path class="st7" d="M969.3,6823.651c3.06,0.93,6.659,2.52,8.85,3.989l-1.56,2.7c-2.16-1.5-5.73-3.09-8.7-4.14L969.3,6823.651z
			 M968.73,6844.17c10.35-3.18,17.369-9.119,20.909-17.399c0.87,0.69,1.891,1.26,2.76,1.74c-3.72,8.189-10.979,14.609-21.028,18.06
			c-0.03,0.3-0.24,0.6-0.48,0.72L968.73,6844.17z"/>
		<path class="st7" d="M1011.84,6837.87c-2.761-1.56-6.811-3.479-9.93-4.71v14.52h-3.15v-26.249l4.021,0.24
			c-0.03,0.33-0.301,0.57-0.87,0.69v8.579l0.6-0.84c3.42,1.26,7.979,3.27,11.01,4.86L1011.84,6837.87z"/>
	</g>
	<g class="st1">
		<path class="st7" d="M1162.619,6846v-19.409h-0.06l-3.81,2.1l-0.78-2.55l5.1-2.729h2.94V6846H1162.619z"/>
		<path class="st7" d="M1172.97,6834.75c0-7.379,2.79-11.699,7.47-11.699c4.77,0,7.17,4.62,7.17,11.46
			c0,7.649-2.761,11.819-7.41,11.819C1175.49,6846.33,1172.97,6841.68,1172.97,6834.75z M1184.1,6834.631
			c0-5.37-1.141-8.82-3.78-8.82c-2.28,0-3.84,3.18-3.84,8.82c0,5.609,1.38,8.909,3.78,8.909
			C1183.199,6843.54,1184.1,6839.311,1184.1,6834.631z"/>
		<path class="st7" d="M1195.079,6841.351c-0.87,2.999-2.37,6.72-3.51,8.609l-2.399,0.24c0.84-2.28,1.739-5.88,2.13-8.521
			L1195.079,6841.351z"/>
		<path class="st7" d="M1197.24,6834.75c0-7.379,2.79-11.699,7.47-11.699c4.77,0,7.17,4.62,7.17,11.46
			c0,7.649-2.761,11.819-7.41,11.819C1199.759,6846.33,1197.24,6841.68,1197.24,6834.75z M1208.369,6834.631
			c0-5.37-1.141-8.82-3.78-8.82c-2.28,0-3.84,3.18-3.84,8.82c0,5.609,1.38,8.909,3.78,8.909
			C1207.469,6843.54,1208.369,6839.311,1208.369,6834.631z"/>
		<path class="st7" d="M1214.099,6834.75c0-7.379,2.79-11.699,7.47-11.699c4.771,0,7.17,4.62,7.17,11.46
			c0,7.649-2.76,11.819-7.409,11.819C1216.619,6846.33,1214.099,6841.68,1214.099,6834.75z M1225.229,6834.631
			c0-5.37-1.14-8.82-3.78-8.82c-2.279,0-3.84,3.18-3.84,8.82c0,5.609,1.381,8.909,3.78,8.909
			C1224.328,6843.54,1225.229,6839.311,1225.229,6834.631z"/>
		<path class="st7" d="M1230.959,6834.75c0-7.379,2.79-11.699,7.47-11.699c4.771,0,7.17,4.62,7.17,11.46
			c0,7.649-2.76,11.819-7.409,11.819C1233.48,6846.33,1230.959,6841.68,1230.959,6834.75z M1242.089,6834.631
			c0-5.37-1.14-8.82-3.78-8.82c-2.279,0-3.84,3.18-3.84,8.82c0,5.609,1.381,8.909,3.78,8.909
			C1241.189,6843.54,1242.089,6839.311,1242.089,6834.631z"/>
		<path class="st7" d="M1256.129,6835.051c-1.38,3.479-3.18,6.539-5.43,8.76l-2.49-1.561c2.13-2.01,3.99-4.77,5.189-8.22
			L1256.129,6835.051z M1262.609,6830.61v13.109c0,3.99-3.06,3.96-7.529,3.9c-0.15-0.78-0.48-1.92-0.84-2.76
			c0.899,0.029,2.01,0.06,2.88,0.06c1.829,0,2.459,0,2.459-1.14v-13.17h-9.81v-2.85h9.81v-6.06l3.84,0.18
			c-0.06,0.33-0.27,0.6-0.81,0.66v5.22h9.779v2.85H1262.609z M1267.979,6833.79c2.159,2.431,4.56,5.88,6.06,8.49l-2.7,1.56
			c-1.319-2.64-3.899-6.6-5.789-8.789L1267.979,6833.79z M1271.638,6819.931c1.83,0,3.3,1.5,3.3,3.33s-1.47,3.3-3.3,3.3
			c-1.829,0-3.3-1.47-3.3-3.3C1268.338,6821.371,1269.868,6819.931,1271.638,6819.931z M1273.888,6823.261
			c0-1.26-1.02-2.25-2.25-2.25c-1.229,0-2.249,0.99-2.249,2.25c0,1.23,1.02,2.25,2.249,2.25
			C1272.928,6825.511,1273.888,6824.431,1273.888,6823.261z"/>
		<path class="st7" d="M1301.458,6823.831c-0.15,0.149-0.36,0.27-0.66,0.27c-0.09,0-0.18,0-0.3-0.029
			c-2.31,2.31-5.399,4.89-8.279,6.989c0.27,0.12,0.63,0.271,0.81,0.33c-0.06,0.24-0.33,0.45-0.72,0.51v15.84h-3.15v-14.729
			c-2.939,2.04-6.989,4.35-10.649,6.149c-0.42-0.689-1.2-1.74-1.8-2.31c8.01-3.63,16.979-9.93,21.689-15.3L1301.458,6823.831z"/>
		<path class="st7" d="M1305.3,6823.651c3.06,0.93,6.659,2.52,8.85,3.989l-1.56,2.7c-2.16-1.5-5.73-3.09-8.7-4.14L1305.3,6823.651z
			 M1304.73,6844.17c10.35-3.18,17.369-9.119,20.909-17.399c0.87,0.69,1.891,1.26,2.76,1.74c-3.72,8.189-10.979,14.609-21.028,18.06
			c-0.03,0.3-0.24,0.6-0.48,0.72L1304.73,6844.17z"/>
		<path class="st7" d="M1347.84,6837.87c-2.761-1.56-6.811-3.479-9.93-4.71v14.52h-3.15v-26.249l4.021,0.24
			c-0.03,0.33-0.301,0.57-0.87,0.69v8.579l0.6-0.84c3.42,1.26,7.979,3.27,11.01,4.86L1347.84,6837.87z"/>
	</g>
	<g class="st1">
		<path class="st7" d="M1482.619,6846v-19.409h-0.06l-3.81,2.1l-0.78-2.55l5.1-2.729h2.94V6846H1482.619z"/>
		<path class="st7" d="M1492.97,6834.75c0-7.379,2.79-11.699,7.47-11.699c4.77,0,7.17,4.62,7.17,11.46
			c0,7.649-2.761,11.819-7.41,11.819C1495.49,6846.33,1492.97,6841.68,1492.97,6834.75z M1504.1,6834.631
			c0-5.37-1.141-8.82-3.78-8.82c-2.28,0-3.84,3.18-3.84,8.82c0,5.609,1.38,8.909,3.78,8.909
			C1503.199,6843.54,1504.1,6839.311,1504.1,6834.631z"/>
		<path class="st7" d="M1515.079,6841.351c-0.87,2.999-2.37,6.72-3.51,8.609l-2.399,0.24c0.84-2.28,1.739-5.88,2.13-8.521
			L1515.079,6841.351z"/>
		<path class="st7" d="M1517.24,6834.75c0-7.379,2.79-11.699,7.47-11.699c4.77,0,7.17,4.62,7.17,11.46
			c0,7.649-2.761,11.819-7.41,11.819C1519.759,6846.33,1517.24,6841.68,1517.24,6834.75z M1528.369,6834.631
			c0-5.37-1.141-8.82-3.78-8.82c-2.28,0-3.84,3.18-3.84,8.82c0,5.609,1.38,8.909,3.78,8.909
			C1527.469,6843.54,1528.369,6839.311,1528.369,6834.631z"/>
		<path class="st7" d="M1534.099,6834.75c0-7.379,2.79-11.699,7.47-11.699c4.771,0,7.17,4.62,7.17,11.46
			c0,7.649-2.76,11.819-7.409,11.819C1536.619,6846.33,1534.099,6841.68,1534.099,6834.75z M1545.229,6834.631
			c0-5.37-1.14-8.82-3.78-8.82c-2.279,0-3.84,3.18-3.84,8.82c0,5.609,1.381,8.909,3.78,8.909
			C1544.328,6843.54,1545.229,6839.311,1545.229,6834.631z"/>
		<path class="st7" d="M1550.959,6834.75c0-7.379,2.79-11.699,7.47-11.699c4.771,0,7.17,4.62,7.17,11.46
			c0,7.649-2.76,11.819-7.409,11.819C1553.48,6846.33,1550.959,6841.68,1550.959,6834.75z M1562.089,6834.631
			c0-5.37-1.14-8.82-3.78-8.82c-2.279,0-3.84,3.18-3.84,8.82c0,5.609,1.381,8.909,3.78,8.909
			C1561.189,6843.54,1562.089,6839.311,1562.089,6834.631z"/>
		<path class="st7" d="M1576.129,6835.051c-1.38,3.479-3.18,6.539-5.43,8.76l-2.49-1.561c2.13-2.01,3.99-4.77,5.189-8.22
			L1576.129,6835.051z M1582.609,6830.61v13.109c0,3.99-3.06,3.96-7.529,3.9c-0.15-0.78-0.48-1.92-0.84-2.76
			c0.899,0.029,2.01,0.06,2.88,0.06c1.829,0,2.459,0,2.459-1.14v-13.17h-9.81v-2.85h9.81v-6.06l3.84,0.18
			c-0.06,0.33-0.27,0.6-0.81,0.66v5.22h9.779v2.85H1582.609z M1587.979,6833.79c2.159,2.431,4.56,5.88,6.06,8.49l-2.7,1.56
			c-1.319-2.64-3.899-6.6-5.789-8.789L1587.979,6833.79z M1591.638,6819.931c1.83,0,3.3,1.5,3.3,3.33s-1.47,3.3-3.3,3.3
			c-1.829,0-3.3-1.47-3.3-3.3C1588.338,6821.371,1589.868,6819.931,1591.638,6819.931z M1593.888,6823.261
			c0-1.26-1.02-2.25-2.25-2.25c-1.229,0-2.249,0.99-2.249,2.25c0,1.23,1.02,2.25,2.249,2.25
			C1592.928,6825.511,1593.888,6824.431,1593.888,6823.261z"/>
		<path class="st7" d="M1621.458,6823.831c-0.15,0.149-0.36,0.27-0.66,0.27c-0.09,0-0.18,0-0.3-0.029
			c-2.31,2.31-5.399,4.89-8.279,6.989c0.27,0.12,0.63,0.271,0.81,0.33c-0.06,0.24-0.33,0.45-0.72,0.51v15.84h-3.15v-14.729
			c-2.939,2.04-6.989,4.35-10.649,6.149c-0.42-0.689-1.2-1.74-1.8-2.31c8.01-3.63,16.979-9.93,21.689-15.3L1621.458,6823.831z"/>
		<path class="st7" d="M1625.3,6823.651c3.06,0.93,6.659,2.52,8.85,3.989l-1.56,2.7c-2.16-1.5-5.73-3.09-8.7-4.14L1625.3,6823.651z
			 M1624.73,6844.17c10.35-3.18,17.369-9.119,20.909-17.399c0.87,0.69,1.891,1.26,2.76,1.74c-3.72,8.189-10.979,14.609-21.028,18.06
			c-0.03,0.3-0.24,0.6-0.48,0.72L1624.73,6844.17z"/>
		<path class="st7" d="M1667.84,6837.87c-2.761-1.56-6.811-3.479-9.93-4.71v14.52h-3.15v-26.249l4.021,0.24
			c-0.03,0.33-0.301,0.57-0.87,0.69v8.579l0.6-0.84c3.42,1.26,7.979,3.27,11.01,4.86L1667.84,6837.87z"/>
	</g>
	<line id="線_40" class="st8" x1="785.5" y1="6794.5" x2="1722.5" y2="6794.5"/>
	<line id="線_41" class="st8" x1="1093" y1="6855.5" x2="1093" y2="6597.305"/>
	<line id="線_42" class="st8" x1="1423" y1="6855.5" x2="1423" y2="6587.305"/>
	<g class="st1">
		<path class="st6" d="M1069.099,6881.878l4.073,4.073l4.073-4.073l0.358,0.357l-4.073,4.074l4.073,4.073l-0.358,0.358l-4.073-4.074
			l-4.086,4.086l-0.358-0.357l4.086-4.086l-4.073-4.074L1069.099,6881.878z M1069.654,6887.236c-0.506,0-0.926-0.42-0.926-0.926
			c0-0.507,0.42-0.926,0.926-0.926c0.507,0,0.927,0.419,0.927,0.926C1070.58,6886.84,1070.135,6887.236,1069.654,6887.236z
			 M1072.246,6882.792c0-0.506,0.42-0.926,0.926-0.926s0.926,0.42,0.926,0.926s-0.42,0.926-0.926,0.926
			C1072.642,6883.717,1072.246,6883.273,1072.246,6882.792z M1074.098,6889.828c0,0.506-0.42,0.926-0.926,0.926
			s-0.926-0.42-0.926-0.926s0.42-0.926,0.926-0.926C1073.703,6888.902,1074.098,6889.346,1074.098,6889.828z M1076.691,6885.384
			c0.506,0,0.926,0.419,0.926,0.926c0,0.506-0.42,0.926-0.926,0.926c-0.507,0-0.926-0.42-0.926-0.926
			C1075.765,6885.779,1076.209,6885.384,1076.691,6885.384z"/>
		<path class="st6" d="M1082.475,6891v-7.986h-0.024l-1.567,0.863l-0.321-1.049l2.099-1.123h1.21V6891H1082.475z"/>
		<path class="st6" d="M1093.976,6885.396c-0.444,0.667-0.901,1.271-1.383,1.79c-0.123-0.296-0.42-0.889-0.604-1.16
			c1.197-1.223,2.383-3.333,3.099-5.432l1.357,0.469c-0.049,0.087-0.16,0.148-0.321,0.136c-0.32,0.84-0.703,1.679-1.123,2.481
			l0.42,0.111c-0.024,0.099-0.111,0.173-0.296,0.185v8.123h-1.148V6885.396z M1103.765,6883.273v1.16h-1.58v6.185
			c0,0.777-0.186,1.111-0.679,1.296c-0.494,0.186-1.333,0.21-2.593,0.21c-0.062-0.333-0.247-0.852-0.42-1.185
			c0.531,0.024,1.037,0.037,1.444,0.037c0.976,0,1.062,0,1.062-0.358v-6.185h-4.976v-1.16H1101v-2.604l1.469,0.086
			c-0.013,0.111-0.074,0.173-0.284,0.198v2.32H1103.765z M1098.395,6889.099c-0.271-0.827-1.024-2.123-1.728-3.073l1.012-0.494
			c0.716,0.926,1.506,2.173,1.814,3L1098.395,6889.099z"/>
		<path class="st6" d="M1115.933,6887.692v1.124h-2.42c-0.444,2.987-1,3.283-2.753,3.283c-0.432,0-0.975-0.024-1.519-0.062
			c-0.024-0.333-0.185-0.84-0.419-1.16c0.913,0.086,1.802,0.086,2.16,0.086c0.296,0,0.469-0.013,0.642-0.16
			c0.271-0.234,0.494-0.84,0.691-1.987h-7.592v-1.124h7.752c0.062-0.481,0.111-1.012,0.173-1.617h-4.839
			c-0.05,0.21-0.099,0.42-0.148,0.605l-1.222-0.111c0.42-1.543,0.963-4.136,1.271-6.062l1.481,0.148
			c-0.025,0.111-0.111,0.173-0.309,0.186c-0.074,0.432-0.161,0.901-0.26,1.383h5.975v1.123h-6.196
			c-0.111,0.556-0.234,1.11-0.346,1.642h4.938l0.271-0.024l0.691,0.136c-0.013,0.086-0.037,0.222-0.074,0.333
			c-0.074,0.864-0.147,1.604-0.222,2.259H1115.933z"/>
		<path class="st6" d="M1120.36,6886.495c-0.567,1.432-1.309,2.691-2.234,3.604l-1.024-0.642c0.877-0.827,1.642-1.963,2.136-3.383
			L1120.36,6886.495z M1123.027,6884.667v5.395c0,1.643-1.26,1.63-3.099,1.605c-0.062-0.321-0.197-0.79-0.346-1.136
			c0.37,0.012,0.827,0.024,1.185,0.024c0.753,0,1.013,0,1.013-0.469v-5.42h-4.037v-1.173h4.037v-2.493l1.58,0.074
			c-0.024,0.136-0.111,0.247-0.333,0.271v2.147h4.023v1.173H1123.027z M1125.236,6885.976c0.889,1,1.877,2.42,2.494,3.494
			l-1.111,0.642c-0.543-1.086-1.604-2.716-2.383-3.617L1125.236,6885.976z M1126.741,6880.273c0.754,0,1.358,0.617,1.358,1.37
			s-0.604,1.358-1.358,1.358c-0.753,0-1.357-0.605-1.357-1.358C1125.384,6880.866,1126.014,6880.273,1126.741,6880.273z
			 M1127.667,6881.643c0-0.518-0.419-0.926-0.926-0.926c-0.506,0-0.926,0.408-0.926,0.926c0,0.507,0.42,0.926,0.926,0.926
			C1127.273,6882.569,1127.667,6882.125,1127.667,6881.643z"/>
		<path class="st6" d="M1139.008,6881.878c-0.062,0.062-0.148,0.11-0.271,0.11c-0.037,0-0.074,0-0.124-0.012
			c-0.95,0.95-2.222,2.012-3.407,2.876c0.111,0.05,0.26,0.111,0.334,0.136c-0.025,0.099-0.136,0.186-0.297,0.21v6.518h-1.296v-6.061
			c-1.21,0.839-2.876,1.79-4.382,2.53c-0.173-0.284-0.494-0.716-0.741-0.95c3.296-1.494,6.987-4.086,8.925-6.296L1139.008,6881.878z
			"/>
		<path class="st6" d="M1140.584,6881.804c1.26,0.383,2.74,1.037,3.642,1.642l-0.642,1.111c-0.889-0.617-2.358-1.271-3.58-1.704
			L1140.584,6881.804z M1140.35,6890.248c4.259-1.309,7.147-3.753,8.604-7.16c0.357,0.284,0.777,0.519,1.135,0.717
			c-1.53,3.369-4.518,6.011-8.653,7.431c-0.012,0.124-0.099,0.247-0.197,0.297L1140.35,6890.248z"/>
		<path class="st6" d="M1158.085,6887.655c-1.136-0.642-2.802-1.432-4.086-1.938v5.975h-1.296v-10.802l1.654,0.099
			c-0.013,0.137-0.124,0.235-0.358,0.284v3.53l0.247-0.346c1.407,0.519,3.283,1.346,4.53,2L1158.085,6887.655z"/>
		<path class="st6" d="M1170.586,6886.125c-0.024,0.013-0.049,0.013-0.074,0.013c-0.073,0-0.147-0.025-0.21-0.062
			c-0.926,0.284-2.209,0.729-3.185,1.124c0.024,0.271,0.037,0.58,0.037,0.926c0,0.333-0.013,0.703-0.037,1.11l-1.247,0.087
			c0.05-0.531,0.074-1.223,0.05-1.642c-1.16,0.58-2.074,1.296-2.074,1.9c0,0.617,0.766,0.914,2.309,0.914
			c1.136,0,2.296-0.05,3.086-0.148l0.013,1.148c-0.691,0.073-1.766,0.099-3.11,0.099c-2.37,0-3.494-0.543-3.494-1.95
			c0-1.037,1.358-2.124,3.148-3.037c-0.062-0.556-0.309-0.913-0.741-0.913c-0.864,0-1.765,0.469-2.814,1.653
			c-0.321,0.358-0.79,0.84-1.333,1.346l-0.852-0.839c0.58-0.519,1.234-1.099,1.629-1.605c0.543-0.691,1.111-1.777,1.358-2.666
			l-0.568,0.013c-0.493,0-1.37,0-1.987-0.013v-1.111c0.729,0.025,1.604,0.037,2.123,0.037l0.753-0.012
			c0.111-0.531,0.21-1.05,0.297-1.704l1.556,0.173c-0.025,0.124-0.137,0.197-0.297,0.223c-0.086,0.444-0.185,0.852-0.296,1.259
			c0.913-0.024,2.543-0.222,3.987-0.703l0.21,1.172c-1.358,0.42-3.148,0.58-4.519,0.63c-0.247,0.79-0.506,1.42-0.74,1.753h0.012
			c0.494-0.407,1.21-0.691,1.84-0.691c0.765,0,1.346,0.543,1.519,1.519c0.999-0.444,2.222-0.901,3.172-1.271L1170.586,6886.125z"/>
		<path class="st6" d="M1174.865,6888.038v2.197c0.976,0.42,1.938,0.42,4.642,0.42c1.346,0,3.013-0.013,3.604-0.037
			c-0.185,0.271-0.395,0.803-0.469,1.16h-4.826c-2.568,0-4.074-0.383-5.012-2.024c-0.137,0.951-0.346,1.803-0.643,2.42
			c-0.21-0.136-0.617-0.333-0.876-0.433c0.556-1.185,0.703-3.357,0.753-5.53l1.259,0.186c-0.013,0.111-0.099,0.16-0.247,0.173
			c-0.012,0.407-0.037,0.827-0.062,1.234c0.21,0.729,0.481,1.271,0.84,1.679v-4.012h-2.346v-1.049h2.309v-1.457h-1.987v-1.024h1.987
			v-1.42l1.357,0.087c-0.012,0.099-0.086,0.16-0.271,0.185v1.148h1.814v1.024h-1.814v1.457h2.037v0.53
			c1.012-0.593,1.567-1.604,1.765-2.963h-1.592v-0.987h4.642l0.246-0.024l0.618,0.074c0,0.099-0.013,0.222-0.025,0.333
			c-0.111,2.234-0.234,3.11-0.506,3.444c-0.321,0.37-0.704,0.383-1.37,0.383c-0.234,0-0.506,0-0.79-0.013
			c-0.013-0.296-0.124-0.729-0.284-0.987c0.519,0.037,0.667,0.037,1.186,0.037c0.136,0,0.222-0.025,0.296-0.111
			c0.148-0.173,0.247-0.741,0.321-2.148h-1.605c-0.246,1.729-0.975,3.05-2.246,3.753c-0.136-0.148-0.42-0.37-0.654-0.543v0.271
			h-2.05v1.53h1.815v1.037H1174.865z M1182.297,6890.161h-1.123v-0.518h-2.642v0.543h-1.074v-4.395h4.839V6890.161z
			 M1178.532,6888.655h2.642v-1.889h-2.642V6888.655z"/>
		<path class="st6" d="M1188.441,6887.433c0.383-0.186,0.777-0.26,1.123-0.26c0.654,0,1.099,0.519,1.099,1.223
			c0,0.32-0.024,0.703-0.024,0.975c0,1.111,0.617,1.111,1.469,1.111c0.531,0,1.186-0.037,1.667-0.123
			c-0.013,0.777,0.037,1.197,0.037,1.222c-0.494,0.05-1.087,0.074-1.63,0.074c-0.481,0-0.926-0.024-1.234-0.062
			c-0.95-0.124-1.494-0.753-1.506-1.543c0-0.297,0.024-0.815,0.024-1.161c0-0.444-0.186-0.703-0.556-0.703
			c-0.593,0-1.407,0.333-2.123,1.012c-0.667,0.654-1.975,1.963-2.357,2.42c0,0-0.198-0.247-0.926-0.95
			c1.209-1.186,4.802-4.604,5.938-5.691c-0.852,0.087-3.309,0.223-4.642,0.297c-0.062,0.099-0.099,0.147-0.197,0.147l-0.099-1.345
			c1.703-0.037,4.876-0.173,6.147-0.284l0.209-0.124l0.951,0.89c-0.074,0.049-0.173,0.099-0.309,0.099
			c-0.778,0.666-2.099,1.863-3.062,2.765V6887.433z M1191.144,6882.804c-1.296-0.371-3.592-0.717-5.16-0.815l0.272-1.147
			c1.666,0.086,3.789,0.383,5.196,0.777L1191.144,6882.804z"/>
		<path class="st6" d="M1197.584,6885.816c0.753-0.358,1.864-0.568,2.703-0.568c1.914,0,3.186,1.136,3.186,3.013
			c0,2.234-1.95,3.493-4.53,3.493c-1.605,0-2.716-0.691-2.716-1.864c0-0.95,0.963-1.728,2.11-1.728c1.346,0,2.296,0.987,2.494,2.073
			c0.802-0.32,1.357-1.012,1.357-1.95c0-1.197-0.926-1.963-2.32-1.963c-1.766,0-3.444,0.766-4.296,1.58
			c-0.321,0.309-0.815,0.814-1.136,1.173l-0.877-0.864c0.976-1.012,4.296-4.172,5.963-5.715c-0.654,0.086-2.963,0.197-4.147,0.246
			c-0.025,0.087-0.161,0.173-0.272,0.198l-0.123-1.42c1.63,0,4.963-0.123,5.814-0.259l0.185-0.1l0.853,1.037
			c-0.087,0.074-0.21,0.111-0.346,0.136c-0.753,0.58-2.901,2.568-3.901,3.469V6885.816z M1198.757,6890.679
			c0.271,0,0.679-0.049,0.926-0.099c-0.111-0.802-0.716-1.432-1.456-1.432c-0.519,0-0.988,0.284-0.988,0.74
			C1197.239,6890.519,1198.09,6890.679,1198.757,6890.679z"/>
		<path class="st6" d="M1207.937,6888.038v2.197c0.976,0.42,1.938,0.42,4.642,0.42c1.346,0,3.013-0.013,3.604-0.037
			c-0.185,0.271-0.395,0.803-0.469,1.16h-4.826c-2.568,0-4.074-0.383-5.012-2.024c-0.137,0.951-0.346,1.803-0.643,2.42
			c-0.21-0.136-0.617-0.333-0.876-0.433c0.556-1.185,0.703-3.357,0.753-5.53l1.259,0.186c-0.013,0.111-0.099,0.16-0.247,0.173
			c-0.012,0.407-0.037,0.827-0.062,1.234c0.21,0.729,0.481,1.271,0.84,1.679v-4.012h-2.346v-1.049h2.309v-1.457h-1.987v-1.024h1.987
			v-1.42l1.357,0.087c-0.012,0.099-0.086,0.16-0.271,0.185v1.148h1.814v1.024h-1.814v1.457h2.037v0.53
			c1.012-0.593,1.567-1.604,1.765-2.963h-1.592v-0.987h4.642l0.246-0.024l0.618,0.074c0,0.099-0.013,0.222-0.025,0.333
			c-0.111,2.234-0.234,3.11-0.506,3.444c-0.321,0.37-0.704,0.383-1.37,0.383c-0.234,0-0.506,0-0.79-0.013
			c-0.013-0.296-0.124-0.729-0.284-0.987c0.519,0.037,0.667,0.037,1.186,0.037c0.136,0,0.222-0.025,0.296-0.111
			c0.148-0.173,0.247-0.741,0.321-2.148h-1.605c-0.246,1.729-0.975,3.05-2.246,3.753c-0.136-0.148-0.42-0.37-0.654-0.543v0.271
			h-2.05v1.53h1.815v1.037H1207.937z M1215.368,6890.161h-1.123v-0.518h-2.642v0.543h-1.074v-4.395h4.839V6890.161z
			 M1211.604,6888.655h2.642v-1.889h-2.642V6888.655z"/>
		<path class="st6" d="M1219.549,6885.42v4.024c0.839,1.358,2.48,1.358,4.666,1.358c1.42,0,3.123-0.037,4.209-0.124
			c-0.136,0.271-0.309,0.815-0.37,1.148c-0.926,0.037-2.333,0.062-3.604,0.062c-2.691,0-4.246,0-5.395-1.469
			c-0.53,0.519-1.074,1.024-1.53,1.42c0,0.123-0.037,0.173-0.136,0.234l-0.605-1.247c0.494-0.346,1.111-0.827,1.642-1.296v-3.024
			h-1.518v-1.087H1219.549z M1217.895,6880.853c0.74,0.556,1.617,1.396,2,2.013l-0.951,0.729c-0.357-0.617-1.197-1.481-1.938-2.087
			L1217.895,6880.853z M1221.622,6885.693v4.518h-1.024v-5.432h0.976v-3.839h5.196v3.839h0.963v4.357
			c0,0.963-0.346,1.087-1.962,1.087c-0.037-0.284-0.173-0.667-0.297-0.938c0.271,0.013,0.531,0.024,0.716,0.024
			c0.433,0,0.481,0,0.481-0.173v-3.443H1221.622z M1225.758,6886.372v2.69h-2.395v0.457h-0.864v-3.147H1225.758z M1222.598,6881.829
			v2.95h1v-2.037h2.099v-0.913H1222.598z M1224.881,6888.285v-1.123h-1.518v1.123H1224.881z M1225.697,6884.779v-1.271h-1.247v1.271
			H1225.697z"/>
		<path class="st6" d="M1230.519,6884.73c0.593,0.629,1.234,1.345,1.827,2.073c0.296-0.864,0.53-1.827,0.691-2.863l1.37,0.271
			c-0.024,0.099-0.124,0.16-0.296,0.16c-0.235,1.271-0.544,2.42-0.976,3.456c0.567,0.766,1.062,1.494,1.357,2.111l-0.938,0.803
			c-0.234-0.507-0.58-1.099-1-1.729c-0.679,1.21-1.568,2.185-2.729,2.9c-0.147-0.246-0.493-0.666-0.716-0.876
			c1.197-0.691,2.086-1.716,2.729-3.037c-0.667-0.913-1.433-1.826-2.148-2.604L1230.519,6884.73z M1240.703,6883.433v1.136h-1.42v6
			c0,1.308-0.506,1.518-2.729,1.518c-0.049-0.346-0.222-0.9-0.383-1.246c0.445,0.012,0.853,0.024,1.173,0.024
			c0.729,0,0.778,0,0.778-0.296v-6h-3.296v-0.889h-5.642v-1.086h2.469v-2.05l1.407,0.087c-0.013,0.099-0.086,0.16-0.284,0.197v1.766
			h2.457v0.839h2.889v-2.9l1.444,0.074c-0.013,0.11-0.087,0.173-0.284,0.209v2.617H1240.703z M1235.802,6885.729
			c0.593,0.84,1.186,1.963,1.383,2.716l-1.013,0.507c-0.185-0.741-0.74-1.901-1.32-2.766L1235.802,6885.729z"/>
		<path class="st6" d="M1243.686,6883.199v2.074c0,1.963-0.186,4.888-1.284,6.813c-0.21-0.197-0.728-0.543-1-0.666
			c1.025-1.79,1.111-4.346,1.111-6.147v-3.197h4.543v-1.543l1.506,0.086c-0.013,0.111-0.086,0.173-0.284,0.21v1.247h4.691v1.123
			H1243.686z M1245.772,6886.915c-0.147,1.383-0.432,3.037-1.037,4.036l-1.049-0.481c0.593-0.95,0.889-2.443,1.024-3.789
			L1245.772,6886.915z M1247.599,6890.433c0,0.432,0.074,0.506,0.469,0.506h1.284c0.407,0,0.481-0.309,0.519-2.099
			c0.259,0.197,0.74,0.395,1.049,0.481c-0.11,2.086-0.395,2.666-1.48,2.666h-1.544c-1.16,0-1.456-0.357-1.456-1.543v-4.456
			l1.444,0.086c-0.013,0.1-0.087,0.173-0.284,0.198V6890.433z M1247.365,6883.334c1.024,0.47,2.395,1.247,3.073,1.827l-0.826,0.864
			c-0.643-0.568-1.976-1.396-3.037-1.926L1247.365,6883.334z M1252.031,6891c-0.173-1.086-0.852-2.766-1.604-4.062l1.049-0.395
			c0.778,1.246,1.506,2.889,1.704,3.987L1252.031,6891z"/>
		<path class="st6" d="M1254.927,6891.395c-0.37-0.926-0.519-2.876-0.519-4.542c0-1.716,0.26-3.679,0.643-5.666l1.592,0.309
			c-0.024,0.123-0.173,0.21-0.345,0.222c-0.729,2.729-0.729,4.852-0.729,5.716c0,0.642,0.012,1.296,0.074,1.617
			c0.222-0.605,0.666-1.704,0.889-2.223l0.691,0.778c-0.124,0.247-1.223,2.469-1.223,3.123c0,0.173,0.037,0.346,0.099,0.58
			L1254.927,6891.395z M1258.137,6883.94c0.531,0.024,2.333,0.012,2.901-0.037c-0.05-1.013-0.087-1.889-0.1-2.803l1.617,0.062
			c-0.012,0.124-0.11,0.223-0.309,0.26c-0.012,0.703,0,1.296,0.037,2.395c0.901-0.111,1.654-0.271,2.271-0.469l0.123,1.21
			c-0.567,0.173-1.382,0.309-2.357,0.395c0.05,1.234,0.111,2.506,0.148,3.309c0.889,0.383,1.777,0.926,2.407,1.493l-0.654,1.136
			c-0.444-0.469-1.05-0.95-1.716-1.283c-0.062,1.234-0.556,2.012-2.197,2.012c-1.481,0-2.42-0.766-2.42-1.889
			c0-1.271,1.223-1.913,2.432-1.913c0.309,0,0.617,0.049,0.938,0.11c-0.05-0.703-0.099-1.852-0.16-2.888
			c-0.371,0.012-0.84,0.036-1.148,0.036h-1.802L1258.137,6883.94z M1261.359,6889.026c-0.32-0.124-0.691-0.198-1.037-0.198
			c-0.666,0-1.395,0.234-1.395,0.889c0,0.58,0.617,0.853,1.37,0.853c0.766,0,1.074-0.396,1.074-1.173L1261.359,6889.026z"/>
		<path class="st6" d="M1277.204,6881.397v1.172h-1.494v7.95c0,1.432-0.629,1.556-3.406,1.556c-0.062-0.346-0.309-0.926-0.494-1.26
			c0.567,0.037,1.173,0.05,1.63,0.05c0.987,0,1.049,0,1.049-0.37v-7.926h-8.468v-1.172H1277.204z M1272.427,6888.952h-4.11v0.987
			h-1.136v-5.716h5.246V6888.952z M1271.279,6885.334h-2.962v2.506h2.962V6885.334z"/>
		<path class="st6" d="M1281.558,6880.866c-0.037,0.087-0.148,0.148-0.309,0.16c-0.247,0.667-0.63,1.519-1,2.247
			c0.716-0.024,1.506-0.05,2.296-0.087c-0.234-0.419-0.506-0.839-0.766-1.209l0.988-0.407c0.642,0.876,1.346,2.036,1.604,2.814
			l-1.049,0.469c-0.062-0.21-0.161-0.444-0.272-0.691c-1.653,0.124-3.333,0.21-4.432,0.284c-0.012,0.099-0.099,0.16-0.197,0.173
			l-0.357-1.296l0.987-0.025c0.42-0.827,0.876-1.95,1.136-2.802L1281.558,6880.866z M1283.496,6885.236v5.629
			c0,1.024-0.42,1.234-2.173,1.234c-0.05-0.321-0.223-0.777-0.383-1.062c0.309,0.013,0.604,0.024,0.839,0.024
			c0.494,0,0.556,0,0.556-0.21v-1h-2.32v2.26h-1.087v-6.876H1283.496z M1282.335,6886.21h-2.32v0.89h2.32V6886.21z
			 M1280.015,6888.963h2.32V6888h-2.32V6888.963z M1288.064,6885.013c0.444,0,0.53-0.197,0.58-1.37
			c0.246,0.186,0.728,0.37,1.049,0.433c-0.123,1.567-0.457,1.987-1.53,1.987h-1.951c-1.32,0-1.653-0.334-1.653-1.519v-3.987
			l1.456,0.087c-0.012,0.11-0.086,0.172-0.284,0.209v1.667c0.976-0.346,1.963-0.753,2.617-1.111l0.815,0.901
			c-0.05,0.037-0.074,0.037-0.26,0.037c-0.803,0.383-2.024,0.79-3.173,1.136v1.049c0,0.42,0.087,0.481,0.617,0.481H1288.064z
			 M1285.718,6890.458c0,0.432,0.099,0.506,0.654,0.506h1.777c0.494,0,0.58-0.234,0.63-1.593c0.259,0.186,0.728,0.371,1.049,0.444
			c-0.148,1.717-0.469,2.173-1.58,2.173h-2.024c-1.32,0-1.666-0.346-1.666-1.519v-4.098l1.456,0.086
			c-0.012,0.099-0.099,0.173-0.296,0.21v1.567c1.037-0.357,2.073-0.814,2.753-1.259l0.839,0.926c-0.062,0.05-0.147,0.05-0.271,0.05
			c-0.802,0.456-2.123,0.901-3.32,1.259V6890.458z"/>
		<path class="st6" d="M1290.491,6882.113c0.37,0,0.9-0.013,1.246-0.037c1.26-0.099,7.037-0.481,8.889-0.531l0.012,1.309
			c-1.012-0.037-1.666,0.037-2.617,0.679c-1.592,1.013-3.32,2.852-3.32,4.346c0,1.556,1.223,2.469,4.099,2.814l-0.593,1.222
			c-3.519-0.456-4.852-1.863-4.852-4.023c0-1.617,1.543-3.654,3.58-5c-1.444,0.111-4.679,0.358-6.024,0.494
			c-0.036,0.086-0.185,0.173-0.296,0.197L1290.491,6882.113z M1298.626,6884.816c0.556,0.432,1.234,1.16,1.58,1.691l-0.605,0.469
			c-0.309-0.493-1.049-1.309-1.53-1.691L1298.626,6884.816z M1300.021,6883.717c0.58,0.457,1.247,1.136,1.58,1.679l-0.593,0.481
			c-0.309-0.469-0.999-1.259-1.543-1.691L1300.021,6883.717z"/>
		<path class="st6" d="M1302.288,6882.631c0.777-0.025,4.567-0.124,5.419-0.161c0-0.173-0.05-1.493-0.074-1.826l1.679,0.073
			c-0.012,0.111-0.123,0.235-0.346,0.271c0,0.321,0.013,0.914,0.025,1.457c1.567-0.05,3.172-0.086,3.962-0.099v1.16
			c-0.95-0.013-2.419,0-3.938,0.05c0.012,0.456,0.012,0.9,0.024,1.209c0.024,0.433,0.037,0.754,0.05,1.148
			c0.16,0.481,0.173,1.062,0.173,1.358c0,2.53-1.741,4.012-3.716,4.765c-0.21-0.284-0.63-0.716-0.901-0.963
			c1.593-0.568,2.604-1.396,2.975-2.346h-0.012c-0.197,0.247-0.556,0.433-0.963,0.433c-1.099,0-2.136-0.89-2.136-2.21
			c0-1.358,1.111-2.346,2.309-2.346c0.37,0,0.729,0.099,0.975,0.271c0-0.049-0.012-0.099-0.012-0.136
			c-0.013-0.234-0.025-0.729-0.037-1.16c-2.037,0.062-4.062,0.111-5.419,0.186L1302.288,6882.631z M1307.979,6886.927
			c0-0.89-0.37-1.334-1.086-1.334c-0.717,0-1.26,0.544-1.26,1.358c0,0.74,0.556,1.234,1.173,1.234
			C1307.559,6888.186,1307.979,6887.593,1307.979,6886.927z"/>
		<path class="st6" d="M1318.837,6881.137c-0.037,0.173-0.185,0.234-0.407,0.247c-0.136,0.642-0.333,1.766-0.481,2.493
			c0.444-0.049,0.914-0.086,1.197-0.086c1.963-0.013,2.593,1.32,2.593,3.209c0,0.494-0.087,1.704-0.37,2.605
			c-0.383,1.382-1.197,2.062-2.296,2.062c-0.494,0-1.198-0.235-2.234-1.05c0.173-0.309,0.333-0.691,0.432-1.049
			c0.913,0.679,1.42,0.827,1.777,0.827c0.593,0,0.938-0.433,1.16-1.173c0.198-0.654,0.321-1.729,0.321-2.271
			c-0.013-1.309-0.432-2.024-1.481-2.013c-0.333,0-0.79,0.025-1.333,0.1c-0.593,2.382-1.284,4.555-2.407,6.542l-1.136-0.543
			c1.099-1.889,1.753-3.679,2.296-5.863l-2.036,0.283l-0.099-1.209l2.37-0.26c0.172-0.901,0.345-1.987,0.469-3.049
			L1318.837,6881.137z M1322.393,6882.903c-0.297-0.531-1.013-1.333-1.519-1.729l0.58-0.42c0.58,0.444,1.247,1.173,1.568,1.704
			L1322.393,6882.903z M1323.997,6887.915c-0.346-1.667-1.234-3.234-2.259-4.123l1.012-0.654c1.186,1.037,2.161,2.629,2.531,4.333
			L1323.997,6887.915z M1324.306,6882.396c-0.296-0.518-1.012-1.32-1.53-1.716l0.592-0.432c0.581,0.457,1.235,1.186,1.568,1.716
			L1324.306,6882.396z"/>
		<path class="st6" d="M1326.821,6888.482c0.876,0.729,2.098,1.951,2.715,2.679l-1.012,0.926c-0.58-0.753-1.84-2.086-2.63-2.789
			L1326.821,6888.482z"/>
		<path class="st6" d="M1335.78,6888.038v2.197c0.976,0.42,1.938,0.42,4.642,0.42c1.346,0,3.013-0.013,3.604-0.037
			c-0.185,0.271-0.395,0.803-0.469,1.16h-4.826c-2.568,0-4.074-0.383-5.012-2.024c-0.137,0.951-0.346,1.803-0.643,2.42
			c-0.21-0.136-0.617-0.333-0.876-0.433c0.556-1.185,0.703-3.357,0.753-5.53l1.259,0.186c-0.013,0.111-0.099,0.16-0.247,0.173
			c-0.012,0.407-0.037,0.827-0.062,1.234c0.21,0.729,0.481,1.271,0.84,1.679v-4.012h-2.346v-1.049h2.309v-1.457h-1.987v-1.024h1.987
			v-1.42l1.357,0.087c-0.012,0.099-0.086,0.16-0.271,0.185v1.148h1.814v1.024h-1.814v1.457h2.037v0.53
			c1.012-0.593,1.567-1.604,1.765-2.963h-1.592v-0.987h4.642l0.246-0.024l0.618,0.074c0,0.099-0.013,0.222-0.025,0.333
			c-0.111,2.234-0.234,3.11-0.506,3.444c-0.321,0.37-0.704,0.383-1.37,0.383c-0.234,0-0.506,0-0.79-0.013
			c-0.013-0.296-0.124-0.729-0.284-0.987c0.519,0.037,0.667,0.037,1.186,0.037c0.136,0,0.222-0.025,0.296-0.111
			c0.148-0.173,0.247-0.741,0.321-2.148h-1.605c-0.246,1.729-0.975,3.05-2.246,3.753c-0.136-0.148-0.42-0.37-0.654-0.543v0.271
			h-2.05v1.53h1.815v1.037H1335.78z M1343.211,6890.161h-1.123v-0.518h-2.642v0.543h-1.074v-4.395h4.839V6890.161z
			 M1339.447,6888.655h2.642v-1.889h-2.642V6888.655z"/>
		<path class="st6" d="M1347.392,6885.42v4.024c0.839,1.358,2.48,1.358,4.666,1.358c1.42,0,3.123-0.037,4.209-0.124
			c-0.136,0.271-0.309,0.815-0.37,1.148c-0.926,0.037-2.333,0.062-3.604,0.062c-2.691,0-4.246,0-5.395-1.469
			c-0.53,0.519-1.074,1.024-1.53,1.42c0,0.123-0.037,0.173-0.136,0.234l-0.605-1.247c0.494-0.346,1.111-0.827,1.642-1.296v-3.024
			h-1.518v-1.087H1347.392z M1345.738,6880.853c0.74,0.556,1.617,1.396,2,2.013l-0.951,0.729c-0.357-0.617-1.197-1.481-1.938-2.087
			L1345.738,6880.853z M1349.465,6885.693v4.518h-1.024v-5.432h0.976v-3.839h5.196v3.839h0.963v4.357
			c0,0.963-0.346,1.087-1.962,1.087c-0.037-0.284-0.173-0.667-0.297-0.938c0.271,0.013,0.531,0.024,0.716,0.024
			c0.433,0,0.481,0,0.481-0.173v-3.443H1349.465z M1353.601,6886.372v2.69h-2.395v0.457h-0.864v-3.147H1353.601z M1350.441,6881.829
			v2.95h1v-2.037h2.099v-0.913H1350.441z M1352.724,6888.285v-1.123h-1.518v1.123H1352.724z M1353.539,6884.779v-1.271h-1.247v1.271
			H1353.539z"/>
		<path class="st6" d="M1357.312,6882.36h7.777l0.087-0.05l1.123,0.814c-0.05,0.062-0.111,0.111-0.186,0.148
			c-1.062,4.617-3.172,6.938-6.962,8.395c-0.173-0.297-0.531-0.766-0.777-1.025c3.469-1.271,5.542-3.493,6.258-7.098h-7.32V6882.36z
			 M1366.743,6880.224c0.74,0,1.333,0.604,1.333,1.346c0,0.74-0.593,1.333-1.333,1.333c-0.753,0-1.346-0.593-1.346-1.333
			C1365.398,6880.804,1366.015,6880.224,1366.743,6880.224z M1367.632,6881.57c0-0.507-0.395-0.914-0.889-0.914
			c-0.506,0-0.901,0.407-0.901,0.914c0,0.493,0.396,0.9,0.901,0.9C1367.262,6882.47,1367.632,6882.039,1367.632,6881.57z"/>
		<path class="st6" d="M1378.01,6884.927c-0.05,0.074-0.111,0.123-0.21,0.16c-1.062,3.753-3.037,5.567-6.74,6.604
			c-0.147-0.297-0.493-0.729-0.74-0.987c3.222-0.79,5.296-2.506,5.975-5.012h-7.814v-1.148h8.333l0.147-0.099L1378.01,6884.927z
			 M1376.726,6882.533h-7.036v-1.136h7.036V6882.533z"/>
		<path class="st6" d="M1379.735,6881.804c1.26,0.383,2.74,1.037,3.642,1.642l-0.642,1.111c-0.889-0.617-2.358-1.271-3.58-1.704
			L1379.735,6881.804z M1379.5,6890.248c4.259-1.309,7.147-3.753,8.604-7.16c0.357,0.284,0.777,0.519,1.135,0.717
			c-1.53,3.369-4.518,6.011-8.653,7.431c-0.012,0.124-0.099,0.247-0.197,0.297L1379.5,6890.248z"/>
		<path class="st6" d="M1392.865,6881.483c-0.025,0.136-0.148,0.21-0.396,0.223c-0.444,2.099-0.642,4.308-0.642,5.48
			c0,0.814,0.024,1.593,0.111,2.086c0.197-0.481,0.703-1.642,0.863-2.062l0.63,0.853c-0.457,1.049-0.864,1.74-1.037,2.308
			c-0.062,0.21-0.099,0.396-0.099,0.58c0,0.148,0.024,0.284,0.062,0.42l-1.222,0.197c-0.407-1.185-0.556-2.679-0.556-4.332
			c0-1.643,0.247-3.913,0.604-6L1392.865,6881.483z M1400.494,6890.606c-0.433,0.024-0.89,0.036-1.346,0.036
			c-0.84,0-1.654-0.036-2.234-0.123c-1.617-0.223-2.321-1.099-2.321-2.123c0-0.864,0.444-1.604,1.111-2.42l1.16,0.42
			c-0.593,0.593-0.987,1.186-0.987,1.839c0,1.148,1.543,1.223,2.963,1.223c0.556,0,1.16-0.024,1.69-0.087L1400.494,6890.606z
			 M1394.816,6882.841c1.493-0.037,3.728-0.198,5.296-0.47l0.123,1.21c-1.519,0.259-3.95,0.42-5.382,0.444L1394.816,6882.841z"/>
		<path class="st6" d="M1404.81,6885.779c0.371,0.333,1.481,1.469,1.729,1.766l-0.679,0.913c-0.197-0.358-0.643-1-1.05-1.53v5.159
			h-1.136V6887c-0.432,1.161-0.95,2.271-1.493,3c-0.111-0.333-0.383-0.814-0.568-1.099c0.691-0.852,1.407-2.37,1.84-3.69h-1.679
			v-1.099h1.9v-1.741c-0.543,0.148-1.11,0.284-1.642,0.407c-0.049-0.234-0.222-0.629-0.357-0.852
			c1.432-0.346,3.036-0.864,3.938-1.395l0.976,0.852c-0.062,0.05-0.161,0.074-0.284,0.05c-0.407,0.209-0.926,0.407-1.494,0.592
			v2.087h1.605v1.099h-1.605V6885.779z M1412.464,6886.446l0.765,0.32c-0.024,0.087-0.074,0.124-0.136,0.161
			c-0.987,2.925-3.419,4.443-6.369,5.172c-0.111-0.296-0.383-0.74-0.593-0.987c1.271-0.247,2.469-0.704,3.469-1.383
			c-0.346-0.309-0.803-0.642-1.21-0.889l0.777-0.654c0.433,0.234,0.914,0.556,1.271,0.864c0.481-0.457,0.89-0.987,1.198-1.593
			h-2.284c-0.654,0.642-1.469,1.271-2.469,1.803c-0.16-0.26-0.494-0.643-0.74-0.815c1.543-0.728,2.629-1.753,3.283-2.716
			c-0.753,0.433-1.58,0.766-2.432,1.013c-0.136-0.271-0.407-0.691-0.617-0.913c1-0.247,1.975-0.643,2.814-1.186
			c-0.309-0.284-0.704-0.604-1.074-0.827l0.729-0.593c0.383,0.223,0.827,0.531,1.147,0.815c0.47-0.407,0.864-0.864,1.173-1.383
			h-2.283c-0.519,0.53-1.136,1.037-1.889,1.481c-0.161-0.247-0.507-0.63-0.753-0.803c1.456-0.753,2.407-1.839,2.9-2.802l1.333,0.222
			c-0.024,0.099-0.123,0.161-0.283,0.161c-0.148,0.259-0.309,0.519-0.494,0.777h2.136l0.197-0.037l0.753,0.346
			c-0.012,0.062-0.074,0.111-0.136,0.148c-0.53,1.357-1.469,2.407-2.629,3.209l1.012,0.161c-0.037,0.099-0.123,0.16-0.284,0.173
			c-0.16,0.259-0.333,0.518-0.543,0.79h2.05L1412.464,6886.446z"/>
		<path class="st6" d="M1415.891,6887.1c-0.396,0.432-0.79,0.839-1.186,1.185c-0.16-0.247-0.518-0.729-0.74-0.95
			c1.186-0.951,2.53-2.58,3.357-4.123l1.309,0.543c-0.049,0.086-0.16,0.136-0.32,0.111c-0.346,0.58-0.754,1.185-1.198,1.765
			l0.247,0.074c-0.024,0.099-0.111,0.186-0.296,0.197v6.185h-1.173V6887.1z M1418.138,6881.088c-0.05,0.086-0.148,0.123-0.309,0.11
			c-0.754,0.914-2.05,2.148-3.197,2.938c-0.148-0.26-0.457-0.716-0.654-0.938c1.024-0.679,2.234-1.777,2.852-2.666
			L1418.138,6881.088z M1425.569,6884.866v1.11h-1.876v4.716c0,1.259-0.519,1.407-3.012,1.383c-0.05-0.334-0.21-0.827-0.371-1.16
			c0.481,0.012,0.963,0.024,1.321,0.024c0.777,0,0.864,0,0.864-0.26v-4.703h-3.976v-1.11H1425.569z M1425.087,6881.286v1.123h-6.11
			v-1.123H1425.087z"/>
		<path class="st6" d="M1428.749,6882.236c-0.024,0.111-0.16,0.197-0.333,0.21c-0.173,0.963-0.271,2.197-0.271,3.309
			c0,3.357,1.099,4.086,1.729,4.086c0.456-0.013,1.036-1.26,1.382-2.444c0.247,0.222,0.717,0.604,1.013,0.753
			c-0.704,2.197-1.494,3.012-2.457,3.012c-1.74,0-2.74-2.16-2.876-4.32c-0.037-0.469-0.049-0.987-0.049-1.53
			c0-1.087,0.062-2.284,0.197-3.396L1428.749,6882.236z M1436.267,6888.087c-0.357-2.186-1.419-3.617-3.012-4.53l0.777-0.926
			c1.766,0.95,3.148,2.69,3.519,5.049L1436.267,6888.087z"/>
		<path class="st6" d="M1446.015,6883.532c-0.987,0.334-2.309,0.556-3.58,0.654c-0.493,2.704-1.259,5.506-2.185,7.567l-1.259-0.444
			c0.987-1.975,1.716-4.419,2.172-7.061c-0.185,0.012-0.382,0.012-0.555,0.012c-0.593,0-1.161,0-1.593-0.012l-0.013-1.173
			c0.396,0.024,1.037,0.024,1.63,0.024c0.222,0,0.457,0,0.703-0.013c0.1-0.74,0.198-1.604,0.272-2.345l1.666,0.16
			c-0.024,0.136-0.186,0.247-0.358,0.271c-0.073,0.494-0.173,1.16-0.283,1.803c1.099-0.111,2.209-0.309,3.135-0.654
			L1446.015,6883.532z M1449.286,6891.543c-0.37,0.024-0.766,0.037-1.173,0.037c-1.037,0-2.099-0.086-2.79-0.259
			c-0.987-0.247-1.506-0.938-1.493-1.778c0-0.703,0.383-1.357,0.777-1.814l1.037,0.407c-0.407,0.444-0.604,0.877-0.604,1.223
			c0,0.864,0.926,1.024,2.802,1.024c0.494,0,1-0.013,1.469-0.062L1449.286,6891.543z M1444.559,6885.458
			c1.246-0.395,2.999-0.642,4.443-0.617v1.173c-1.357-0.049-2.926,0.136-4.172,0.494L1444.559,6885.458z"/>
		<path class="st6" d="M1453.344,6881.1c-0.024,0.148-0.136,0.247-0.383,0.271c-0.099,1.556-0.222,4.617-0.222,6.432
			c0,1.716,0.852,2.519,2.283,2.519c1.358,0,2.803-0.679,4.21-2.186c0.148,0.271,0.543,0.877,0.729,1.074
			c-1.494,1.593-3.173,2.383-4.95,2.383c-2.506,0-3.604-1.407-3.604-3.79c0-1.604,0.099-5.308,0.197-6.814L1453.344,6881.1z"/>
		<path class="st6" d="M1460.71,6882.36c0.766,0.049,1.864,0.049,2.765,0.049c0.47,0,0.976-0.013,1.42-0.024
			c-0.013-0.568-0.024-1.21-0.024-1.617l1.592,0.086c-0.012,0.136-0.11,0.21-0.32,0.247c0,0.346,0,0.852,0.012,1.234
			c1.346-0.074,2.691-0.185,3.901-0.444l0.136,1.136c-1.186,0.234-2.519,0.346-4.049,0.407l0.037,1.987
			c1.16-0.073,2.407-0.234,3.283-0.444l0.124,1.087c-0.927,0.197-2.186,0.346-3.383,0.395c0.024,0.716,0.05,1.358,0.074,1.827
			c1.136,0.37,2.309,0.987,3.481,1.84l-0.741,1.062c-0.938-0.778-1.852-1.346-2.691-1.716v0.469c-0.012,1.099-0.79,1.79-2.395,1.79
			c-1.617,0-2.74-0.741-2.74-1.901c0-1.222,1.333-1.913,2.765-1.913c0.358,0,0.741,0.012,1.124,0.099
			c-0.013-0.444-0.025-0.963-0.05-1.519c-0.259,0.013-0.519,0.013-0.766,0.013c-2.16,0-3.012-0.26-3.012-1.123
			c0-0.481,0.37-0.914,1.21-1.444l0.839,0.481c-0.728,0.357-0.802,0.58-0.802,0.716c0,0.296,0.481,0.346,1.469,0.357
			c0.309,0,0.679,0,1.024-0.012c-0.024-0.68-0.037-1.358-0.062-2.013c-0.457,0.013-0.987,0.024-1.457,0.024
			c-0.814,0-1.999-0.012-2.765-0.036V6882.36z M1465.129,6889.038c-0.432-0.123-0.864-0.185-1.246-0.185
			c-0.84,0-1.593,0.345-1.593,0.95c0,0.617,0.716,0.926,1.654,0.926c0.852,0,1.185-0.37,1.185-1.099V6889.038z"/>
		<path class="st6" d="M1471.471,6882.631c0.777-0.025,4.567-0.124,5.419-0.161c0-0.173-0.05-1.493-0.074-1.826l1.679,0.073
			c-0.012,0.111-0.123,0.235-0.346,0.271c0,0.321,0.013,0.914,0.025,1.457c1.567-0.05,3.172-0.086,3.962-0.099v1.16
			c-0.95-0.013-2.419,0-3.938,0.05c0.012,0.456,0.012,0.9,0.024,1.209c0.024,0.433,0.037,0.754,0.05,1.148
			c0.16,0.481,0.173,1.062,0.173,1.358c0,2.53-1.741,4.012-3.716,4.765c-0.21-0.284-0.63-0.716-0.901-0.963
			c1.593-0.568,2.604-1.396,2.975-2.346h-0.012c-0.197,0.247-0.556,0.433-0.963,0.433c-1.099,0-2.136-0.89-2.136-2.21
			c0-1.358,1.111-2.346,2.309-2.346c0.37,0,0.729,0.099,0.975,0.271c0-0.049-0.012-0.099-0.012-0.136
			c-0.013-0.234-0.025-0.729-0.037-1.16c-2.037,0.062-4.062,0.111-5.419,0.186L1471.471,6882.631z M1477.161,6886.927
			c0-0.89-0.37-1.334-1.086-1.334c-0.717,0-1.26,0.544-1.26,1.358c0,0.74,0.556,1.234,1.173,1.234
			C1476.741,6888.186,1477.161,6887.593,1477.161,6886.927z"/>
		<path class="st6" d="M1485.231,6890.359c0,0.95-0.777,1.728-1.729,1.728c-0.95,0-1.728-0.777-1.728-1.728
			c0-0.951,0.777-1.729,1.728-1.729C1484.478,6888.63,1485.231,6889.433,1485.231,6890.359z M1484.712,6890.359
			c0-0.667-0.543-1.21-1.21-1.21c-0.679,0-1.222,0.543-1.222,1.21c0,0.679,0.543,1.222,1.222,1.222
			C1484.194,6891.581,1484.712,6891.013,1484.712,6890.359z"/>
		<path class="st6" d="M1493.128,6892.679c-0.827-1.123-1.729-2.95-1.729-5.679c0.013-2.752,0.901-4.579,1.729-5.715h1.074
			c-0.926,1.333-1.617,3.185-1.617,5.728c0,2.493,0.716,4.309,1.617,5.666H1493.128z"/>
		<path class="st6" d="M1498.372,6888.038v2.197c0.976,0.42,1.938,0.42,4.642,0.42c1.346,0,3.013-0.013,3.604-0.037
			c-0.185,0.271-0.395,0.803-0.469,1.16h-4.826c-2.568,0-4.074-0.383-5.012-2.024c-0.137,0.951-0.346,1.803-0.643,2.42
			c-0.21-0.136-0.617-0.333-0.876-0.433c0.556-1.185,0.703-3.357,0.753-5.53l1.259,0.186c-0.013,0.111-0.099,0.16-0.247,0.173
			c-0.012,0.407-0.037,0.827-0.062,1.234c0.21,0.729,0.481,1.271,0.84,1.679v-4.012h-2.346v-1.049h2.309v-1.457h-1.987v-1.024h1.987
			v-1.42l1.357,0.087c-0.012,0.099-0.086,0.16-0.271,0.185v1.148h1.814v1.024h-1.814v1.457h2.037v0.53
			c1.012-0.593,1.567-1.604,1.765-2.963h-1.592v-0.987h4.642l0.246-0.024l0.618,0.074c0,0.099-0.013,0.222-0.025,0.333
			c-0.111,2.234-0.234,3.11-0.506,3.444c-0.321,0.37-0.704,0.383-1.37,0.383c-0.234,0-0.506,0-0.79-0.013
			c-0.013-0.296-0.124-0.729-0.284-0.987c0.519,0.037,0.667,0.037,1.186,0.037c0.136,0,0.222-0.025,0.296-0.111
			c0.148-0.173,0.247-0.741,0.321-2.148h-1.605c-0.246,1.729-0.975,3.05-2.246,3.753c-0.136-0.148-0.42-0.37-0.654-0.543v0.271
			h-2.05v1.53h1.815v1.037H1498.372z M1505.804,6890.161h-1.123v-0.518h-2.642v0.543h-1.074v-4.395h4.839V6890.161z
			 M1502.039,6888.655h2.642v-1.889h-2.642V6888.655z"/>
		<path class="st6" d="M1509.985,6885.42v4.024c0.839,1.358,2.48,1.358,4.666,1.358c1.42,0,3.123-0.037,4.209-0.124
			c-0.136,0.271-0.309,0.815-0.37,1.148c-0.926,0.037-2.333,0.062-3.604,0.062c-2.691,0-4.246,0-5.395-1.469
			c-0.53,0.519-1.074,1.024-1.53,1.42c0,0.123-0.037,0.173-0.136,0.234l-0.605-1.247c0.494-0.346,1.111-0.827,1.642-1.296v-3.024
			h-1.518v-1.087H1509.985z M1508.33,6880.853c0.74,0.556,1.617,1.396,2,2.013l-0.951,0.729c-0.357-0.617-1.197-1.481-1.938-2.087
			L1508.33,6880.853z M1512.058,6885.693v4.518h-1.024v-5.432h0.976v-3.839h5.196v3.839h0.963v4.357
			c0,0.963-0.346,1.087-1.962,1.087c-0.037-0.284-0.173-0.667-0.297-0.938c0.271,0.013,0.531,0.024,0.716,0.024
			c0.433,0,0.481,0,0.481-0.173v-3.443H1512.058z M1516.194,6886.372v2.69h-2.395v0.457h-0.864v-3.147H1516.194z M1513.033,6881.829
			v2.95h1v-2.037h2.099v-0.913H1513.033z M1515.317,6888.285v-1.123h-1.518v1.123H1515.317z M1516.132,6884.779v-1.271h-1.247v1.271
			H1516.132z"/>
		<path class="st6" d="M1521.387,6885.396c-0.445,0.667-0.901,1.271-1.383,1.79c-0.124-0.296-0.42-0.889-0.605-1.16
			c1.198-1.223,2.383-3.333,3.099-5.432l1.358,0.469c-0.05,0.087-0.161,0.148-0.321,0.136c-0.321,0.84-0.704,1.679-1.123,2.481
			l0.419,0.111c-0.024,0.099-0.11,0.173-0.296,0.185v8.123h-1.147V6885.396z M1531.249,6883.717h-3.74v1.593h3.432v1.073h-3.432
			v1.68h3.593v1.099h-3.593v2.925h-1.21v-8.369h-0.876c-0.494,1.013-1.062,1.95-1.654,2.666c-0.21-0.222-0.63-0.629-0.889-0.814
			c0.976-1.123,1.913-3.049,2.457-4.9l1.419,0.432c-0.037,0.099-0.148,0.148-0.309,0.136c-0.148,0.444-0.32,0.901-0.519,1.358h5.32
			V6883.717z"/>
		<path class="st6" d="M1543.243,6889.173h-3.95c1.124,0.778,2.729,1.42,4.271,1.716c-0.259,0.247-0.604,0.729-0.777,1.05
			c-1.642-0.433-3.321-1.284-4.506-2.37v2.53h-1.148v-2.444c-1.197,1-2.9,1.827-4.469,2.259c-0.173-0.296-0.506-0.74-0.765-0.987
			c1.506-0.32,3.135-0.975,4.246-1.753h-3.9v-0.987h4.888v-0.766h-3.716v-0.876h3.716v-0.753h-4.333v-0.938h2.58
			c-0.11-0.346-0.32-0.803-0.53-1.148l0.296-0.049v-0.013l-2.852,0.013v-0.976h1.864c-0.186-0.493-0.568-1.185-0.913-1.703
			l1.012-0.346c0.396,0.543,0.84,1.309,1.013,1.802l-0.667,0.247h1.407v-2.16l1.395,0.087c-0.012,0.11-0.11,0.197-0.296,0.222v1.852
			h1.247v-2.16l1.407,0.087c-0.013,0.123-0.111,0.197-0.297,0.222v1.852h1.309l-0.456-0.173c0.309-0.506,0.703-1.296,0.913-1.852
			l1.333,0.433c-0.037,0.086-0.136,0.136-0.296,0.123c-0.223,0.432-0.58,1.013-0.901,1.469h1.84v0.976h-2.519l0.234,0.074
			c-0.037,0.086-0.136,0.123-0.296,0.123c-0.148,0.296-0.371,0.679-0.593,1h2.703v0.938h-4.456v0.753h3.852v0.876h-3.852v0.766
			h4.962V6889.173z M1538.862,6884.816c0.186-0.321,0.407-0.766,0.58-1.16h-3.382c0.234,0.37,0.456,0.814,0.543,1.123l-0.37,0.074
			h2.74L1538.862,6884.816z"/>
		<path class="st6" d="M1545.363,6891.395c-0.37-0.926-0.519-2.876-0.519-4.542c0-1.716,0.26-3.679,0.643-5.666l1.592,0.309
			c-0.024,0.123-0.173,0.21-0.345,0.222c-0.729,2.729-0.729,4.852-0.729,5.716c0,0.642,0.012,1.296,0.074,1.617
			c0.222-0.605,0.666-1.704,0.889-2.223l0.691,0.778c-0.124,0.247-1.223,2.469-1.223,3.123c0,0.173,0.037,0.346,0.099,0.58
			L1545.363,6891.395z M1548.573,6883.94c0.531,0.024,2.333,0.012,2.901-0.037c-0.05-1.013-0.087-1.889-0.1-2.803l1.617,0.062
			c-0.012,0.124-0.11,0.223-0.309,0.26c-0.012,0.703,0,1.296,0.037,2.395c0.901-0.111,1.654-0.271,2.271-0.469l0.123,1.21
			c-0.567,0.173-1.382,0.309-2.357,0.395c0.05,1.234,0.111,2.506,0.148,3.309c0.889,0.383,1.777,0.926,2.407,1.493l-0.654,1.136
			c-0.444-0.469-1.05-0.95-1.716-1.283c-0.062,1.234-0.556,2.012-2.197,2.012c-1.481,0-2.42-0.766-2.42-1.889
			c0-1.271,1.223-1.913,2.432-1.913c0.309,0,0.617,0.049,0.938,0.11c-0.05-0.703-0.099-1.852-0.16-2.888
			c-0.371,0.012-0.84,0.036-1.148,0.036h-1.802L1548.573,6883.94z M1551.794,6889.026c-0.32-0.124-0.691-0.198-1.037-0.198
			c-0.666,0-1.395,0.234-1.395,0.889c0,0.58,0.617,0.853,1.37,0.853c0.766,0,1.074-0.396,1.074-1.173L1551.794,6889.026z"/>
		<path class="st6" d="M1563.073,6883.631c-0.629,0.197-1.395,0.345-2.259,0.456c-0.013,0.679-0.013,1.396-0.013,2.013
			c0.901-0.297,1.852-0.494,2.568-0.494c2.049,0,3.493,1.086,3.493,2.95c0,1.729-1,3-3.024,3c-0.877,0-1.691-0.309-2.357-1.123
			c0.222-0.272,0.444-0.643,0.617-0.927c0.53,0.654,1.123,0.914,1.765,0.914c1.148,0,1.753-0.814,1.753-1.864
			c0-1.086-0.802-1.889-2.271-1.889c-0.74,0-1.666,0.197-2.543,0.494c0,0.938,0.013,2.271,0.013,2.592
			c0,1.111-0.729,2.037-2.111,2.037c-1.086,0-2.185-0.642-2.185-2c0-0.814,0.567-1.691,1.519-2.37c0.444-0.333,1-0.629,1.592-0.889
			v-2.346c-0.852,0.062-1.802,0.074-2.839,0.074l-0.013-1.185c1.05,0.012,2,0,2.852-0.05v-2.21l1.617,0.062
			c-0.012,0.147-0.136,0.259-0.333,0.283c-0.037,0.47-0.049,1.124-0.062,1.741c0.753-0.099,1.444-0.247,2.049-0.481
			L1563.073,6883.631z M1559.628,6887.655c-0.382,0.186-1.987,1-1.987,2.099c0,0.568,0.346,0.988,1.037,0.988
			c0.556,0,0.963-0.358,0.963-1.05C1559.641,6889.383,1559.641,6888.507,1559.628,6887.655z M1566.603,6884.964
			c-0.654-0.63-1.802-1.297-2.802-1.716l0.604-1.013c1.074,0.407,2.223,1.087,2.914,1.691L1566.603,6884.964z"/>
		<path class="st6" d="M1576.845,6883.631l0.876,0.481c-0.036,0.062-0.123,0.099-0.185,0.136c-0.568,0.863-1.346,1.604-2.271,2.246
			c1.357,0.568,2.975,0.951,4.679,1.148c-0.26,0.271-0.58,0.79-0.753,1.123c-0.519-0.074-1.013-0.173-1.506-0.284v3.58h-1.198
			v-0.383h-4.678v0.407h-1.148v-3.493c-0.593,0.173-1.197,0.321-1.79,0.444c-0.111-0.296-0.357-0.777-0.567-1.037
			c1.617-0.271,3.283-0.765,4.728-1.456c-0.543-0.37-1.024-0.778-1.457-1.234c-0.518,0.37-1.11,0.728-1.777,1.049
			c-0.16-0.271-0.519-0.679-0.777-0.864c1.716-0.703,2.9-1.728,3.53-2.666h-2.481v1.42h-1.147v-2.481h4.579v-1.247l1.481,0.087
			c-0.012,0.11-0.086,0.173-0.283,0.209v0.951h4.666v2.481h-1.197v-1.42h-5.395l1.222,0.222c-0.024,0.111-0.123,0.173-0.296,0.173
			c-0.111,0.148-0.235,0.309-0.358,0.457h3.309L1576.845,6883.631z M1576.697,6888.223c-0.926-0.271-1.79-0.617-2.58-1.024
			c-0.728,0.395-1.506,0.74-2.308,1.024H1576.697z M1571.809,6890.705h4.678v-1.507h-4.678V6890.705z M1572.475,6884.582
			l-0.074,0.062c0.47,0.481,1.05,0.926,1.729,1.296c0.654-0.395,1.234-0.852,1.691-1.357H1572.475z"/>
		<path class="st6" d="M1583.569,6884.273v0.691c0.345,0.456,1.271,1.863,1.48,2.197c-0.16,0.234-0.333,0.469-0.617,0.852
			c-0.173-0.396-0.53-1.074-0.863-1.667v5.74h-1.074v-5.345c-0.383,1.197-0.852,2.309-1.358,3.037
			c-0.11-0.309-0.383-0.753-0.556-1.013c0.754-1.024,1.47-2.889,1.815-4.493h-1.543v-1.087h1.642v-2.653l1.357,0.074
			c-0.012,0.099-0.086,0.16-0.283,0.197v2.382h1.357v1.087H1583.569z M1584.457,6890.556c0.765-0.358,1.913-0.976,3.036-1.567
			l0.26,0.852c-0.926,0.604-1.914,1.21-2.556,1.592c0,0.1-0.049,0.186-0.136,0.235L1584.457,6890.556z M1589.135,6887.013
			c0.173,0.481,0.383,0.938,0.643,1.37c0.481-0.444,1.073-1.074,1.407-1.53l1.024,0.765c-0.037,0.05-0.111,0.074-0.186,0.074
			c-0.037,0-0.086,0-0.123-0.012c-0.407,0.419-1.136,1.036-1.642,1.407c0.58,0.728,1.309,1.32,2.16,1.666
			c-0.234,0.21-0.58,0.642-0.741,0.938c-1.062-0.556-1.913-1.481-2.543-2.617v1.79c0,1.136-0.518,1.247-2.185,1.247
			c-0.037-0.297-0.186-0.766-0.321-1.062c0.284,0.012,0.593,0.024,0.815,0.024c0.506,0,0.556,0,0.556-0.21v-4.271h-3.037v-0.963
			H1588v-0.827h-2.358v-0.938H1588v-0.803h-2.716v-0.963h1.357c-0.136-0.383-0.358-0.852-0.58-1.222l0.926-0.321
			c0.296,0.444,0.593,1.049,0.716,1.444l-0.271,0.099h2.173l-0.21-0.074c0.234-0.432,0.543-1.073,0.691-1.519l1.296,0.42
			c-0.05,0.087-0.148,0.124-0.296,0.124c-0.161,0.296-0.396,0.703-0.63,1.049h1.543v0.963h-2.864v0.803h2.543v0.938h-2.543v0.827
			h3.062v0.963h-3.062V6887.013z M1586.493,6889.075c-0.234-0.457-0.765-1.148-1.222-1.654l0.803-0.519
			c0.469,0.47,1.024,1.136,1.271,1.58L1586.493,6889.075z"/>
		<path class="st6" d="M1599.587,6883.137c-0.037,0.111-0.16,0.197-0.333,0.197c-0.481,4.049-1.741,6.926-3.814,6.926
			c-1.198,0-2.161-1.099-2.161-3.124c0-3.061,2.407-5.456,5.604-5.456c3.543,0,5.21,2.16,5.21,4.703
			c0,2.926-1.593,4.383-4.642,5.136c-0.186-0.284-0.47-0.716-0.778-1.05c2.827-0.555,4.111-1.913,4.111-4.049
			c0-2.012-1.333-3.592-3.913-3.592c-0.173,0-0.334,0.013-0.507,0.024L1599.587,6883.137z M1598.007,6882.927
			c-2.173,0.383-3.53,2.21-3.53,4.173c0,1.172,0.432,1.938,1,1.938C1596.81,6889.038,1597.747,6886.063,1598.007,6882.927z"/>
		<path class="st6" d="M1607.779,6884.754c-0.642,0.469-1.333,0.913-2.024,1.283c-0.16-0.259-0.481-0.69-0.716-0.926
			c2.16-1.086,4.247-2.999,5.21-4.592l1.617,0.099c-0.037,0.124-0.148,0.197-0.297,0.223c1.21,1.629,3.383,3.271,5.283,4.098
			c-0.283,0.297-0.555,0.691-0.765,1.05c-0.667-0.346-1.37-0.79-2.037-1.271v0.913h-6.271V6884.754z M1607.063,6892.112v-5.062
			h7.753v5.062h-1.197v-0.494h-5.407v0.494H1607.063z M1613.865,6884.582c-1.197-0.889-2.296-1.913-2.999-2.876
			c-0.643,0.926-1.667,1.962-2.864,2.876H1613.865z M1613.618,6888.099h-5.407v2.47h5.407V6888.099z"/>
		<path class="st6" d="M1620.28,6889.606c-0.358,0.889-0.901,1.716-1.864,2.209l-0.901-0.642c0.864-0.42,1.481-1.16,1.79-1.938
			L1620.28,6889.606z M1628.859,6883.754v0.913h-11.246v-0.913h3.136c-0.111-0.358-0.271-0.79-0.444-1.123l0.543-0.161h-2.395
			v-0.913h4.185v-1.05l1.457,0.087c-0.013,0.111-0.087,0.173-0.284,0.21v0.753h4.209v0.913h-1.863l0.309,0.087
			c-0.037,0.086-0.136,0.123-0.284,0.123c-0.148,0.321-0.358,0.716-0.58,1.074H1628.859z M1626.983,6885.162v3.604h-3.84
			c0.568,0.247,1.124,0.556,1.457,0.814c-0.654,0.68-0.679,0.729-0.716,0.766c-0.469-0.383-1.42-0.889-2.197-1.197l0.37-0.383
			h-2.543v-3.604H1626.983z M1625.834,6886.582v-0.643h-5.222v0.643H1625.834z M1625.834,6887.976v-0.654h-5.222v0.654H1625.834z
			 M1621.921,6890.742c0,0.296,0.099,0.333,0.642,0.333h1.778c0.456,0,0.543-0.136,0.592-1.16c0.223,0.173,0.667,0.309,0.963,0.37
			c-0.11,1.37-0.432,1.703-1.432,1.703h-2.024c-1.321,0-1.654-0.271-1.654-1.246v-1.297l1.42,0.074
			c-0.013,0.111-0.087,0.186-0.284,0.21V6890.742z M1624.501,6883.754c0.173-0.37,0.37-0.864,0.519-1.284h-3.617
			c0.223,0.407,0.42,0.926,0.506,1.284H1624.501z M1628.019,6891.803c-0.444-0.617-1.456-1.494-2.32-2.074l0.877-0.593
			c0.863,0.531,1.9,1.37,2.382,2L1628.019,6891.803z"/>
		<path class="st6" d="M1636.36,6883.137c-0.037,0.111-0.16,0.197-0.333,0.197c-0.481,4.049-1.74,6.926-3.814,6.926
			c-1.197,0-2.16-1.099-2.16-3.124c0-3.061,2.407-5.456,5.604-5.456c3.543,0,5.209,2.16,5.209,4.703
			c0,2.926-1.592,4.383-4.642,5.136c-0.185-0.284-0.469-0.716-0.777-1.05c2.827-0.555,4.11-1.913,4.11-4.049
			c0-2.012-1.333-3.592-3.913-3.592c-0.173,0-0.333,0.013-0.506,0.024L1636.36,6883.137z M1634.78,6882.927
			c-2.172,0.383-3.53,2.21-3.53,4.173c0,1.172,0.433,1.938,1,1.938C1633.582,6889.038,1634.521,6886.063,1634.78,6882.927z"/>
		<path class="st6" d="M1648.589,6887.544c-0.74,0.086-1.79,0.147-2.753,0.147c-0.062,0.63-0.062,0.704-0.062,0.914
			c0,1.617,0.963,1.913,2.234,1.913c0.519,0,1.074-0.074,1.556-0.21c0.703-0.185,1.062-0.679,1.062-1.333
			c0-0.617-0.309-1.37-0.938-2.148c0.321-0.099,0.84-0.283,1.123-0.407c0.741,1.013,1.111,1.963,1.111,2.766
			c0,2.481-3.222,2.481-3.938,2.481c-1.827,0-3.407-0.47-3.407-3.111c0-0.284,0.024-0.593,0.049-0.913
			c-0.9-0.037-2.642-0.124-2.642-1.506c0.013-0.519,0.321-1.099,1.037-1.643l0.926,0.457c-0.493,0.309-0.803,0.691-0.803,1
			c0,0.556,0.815,0.58,1.568,0.604c0.074-0.753,0.16-1.617,0.271-2.493c-0.84-0.074-1.827-0.296-2.493-0.617l0.271-1.136
			c0.654,0.309,1.481,0.531,2.345,0.63c0.087-0.729,0.186-1.481,0.247-2.111l1.704,0.197c-0.025,0.148-0.186,0.247-0.42,0.271
			c-0.087,0.481-0.186,1.111-0.284,1.741c0.333,0.024,0.716,0.037,1.099,0.037c0.432,0,0.877-0.013,1.259-0.05l-0.049,1.136
			c-0.358,0.024-0.79,0.037-1.223,0.037c-0.432,0-0.863-0.013-1.246-0.037c-0.099,0.827-0.198,1.667-0.271,2.432
			c0.9-0.012,1.876-0.074,2.653-0.185L1648.589,6887.544z"/>
		<path class="st6" d="M1661.3,6885.199c-0.037,0.013-0.074,0.013-0.111,0.013c-0.099,0-0.197-0.025-0.283-0.074
			c-3.691,1.037-6.729,2.493-6.716,3.987c0.013,1.049,1.148,1.432,3.024,1.432s3.469-0.173,4.333-0.309l0.111,1.247
			c-0.889,0.123-2.494,0.234-4.493,0.234c-2.396,0-4.223-0.58-4.247-2.531c-0.012-1.32,1.234-2.443,3.123-3.443
			c-0.444-0.827-0.593-2.234-0.567-4.95l1.79,0.148c-0.025,0.16-0.136,0.271-0.396,0.296c-0.024,1.95,0.024,3.234,0.333,3.938
			c1.099-0.493,2.358-0.963,3.667-1.407L1661.3,6885.199z"/>
		<path class="st6" d="M1664.493,6887.1c-0.396,0.432-0.79,0.839-1.186,1.185c-0.16-0.247-0.518-0.729-0.74-0.95
			c1.186-0.951,2.53-2.58,3.357-4.123l1.309,0.543c-0.049,0.086-0.16,0.136-0.32,0.111c-0.346,0.58-0.754,1.185-1.198,1.765
			l0.247,0.074c-0.024,0.099-0.111,0.186-0.296,0.197v6.185h-1.173V6887.1z M1666.74,6881.088c-0.05,0.086-0.148,0.123-0.309,0.11
			c-0.754,0.914-2.05,2.148-3.197,2.938c-0.148-0.26-0.457-0.716-0.654-0.938c1.024-0.679,2.234-1.777,2.852-2.666L1666.74,6881.088
			z M1674.171,6884.866v1.11h-1.876v4.716c0,1.259-0.519,1.407-3.012,1.383c-0.05-0.334-0.21-0.827-0.371-1.16
			c0.481,0.012,0.963,0.024,1.321,0.024c0.777,0,0.864,0,0.864-0.26v-4.703h-3.976v-1.11H1674.171z M1673.69,6881.286v1.123h-6.11
			v-1.123H1673.69z"/>
		<path class="st6" d="M1677.352,6882.236c-0.024,0.111-0.16,0.197-0.333,0.21c-0.173,0.963-0.271,2.197-0.271,3.309
			c0,3.357,1.099,4.086,1.729,4.086c0.456-0.013,1.036-1.26,1.382-2.444c0.247,0.222,0.717,0.604,1.013,0.753
			c-0.704,2.197-1.494,3.012-2.457,3.012c-1.74,0-2.74-2.16-2.876-4.32c-0.037-0.469-0.049-0.987-0.049-1.53
			c0-1.087,0.062-2.284,0.197-3.396L1677.352,6882.236z M1684.869,6888.087c-0.357-2.186-1.419-3.617-3.012-4.53l0.777-0.926
			c1.766,0.95,3.148,2.69,3.519,5.049L1684.869,6888.087z"/>
		<path class="st6" d="M1687.347,6882.36c0.766,0.049,1.864,0.049,2.765,0.049c0.47,0,0.976-0.013,1.42-0.024
			c-0.013-0.568-0.024-1.21-0.024-1.617l1.592,0.086c-0.012,0.136-0.11,0.21-0.32,0.247c0,0.346,0,0.852,0.012,1.234
			c1.346-0.074,2.691-0.185,3.901-0.444l0.136,1.136c-1.186,0.234-2.519,0.346-4.049,0.407l0.037,1.987
			c1.16-0.073,2.407-0.234,3.283-0.444l0.124,1.087c-0.927,0.197-2.186,0.346-3.383,0.395c0.024,0.716,0.05,1.358,0.074,1.827
			c1.136,0.37,2.309,0.987,3.481,1.84l-0.741,1.062c-0.938-0.778-1.852-1.346-2.691-1.716v0.469c-0.012,1.099-0.79,1.79-2.395,1.79
			c-1.617,0-2.74-0.741-2.74-1.901c0-1.222,1.333-1.913,2.765-1.913c0.358,0,0.741,0.012,1.124,0.099
			c-0.013-0.444-0.025-0.963-0.05-1.519c-0.259,0.013-0.519,0.013-0.766,0.013c-2.16,0-3.012-0.26-3.012-1.123
			c0-0.481,0.37-0.914,1.21-1.444l0.839,0.481c-0.728,0.357-0.802,0.58-0.802,0.716c0,0.296,0.481,0.346,1.469,0.357
			c0.309,0,0.679,0,1.024-0.012c-0.024-0.68-0.037-1.358-0.062-2.013c-0.457,0.013-0.987,0.024-1.457,0.024
			c-0.814,0-1.999-0.012-2.765-0.036V6882.36z M1691.766,6889.038c-0.432-0.123-0.864-0.185-1.246-0.185
			c-0.84,0-1.593,0.345-1.593,0.95c0,0.617,0.716,0.926,1.654,0.926c0.852,0,1.185-0.37,1.185-1.099V6889.038z"/>
		<path class="st6" d="M1698.108,6882.631c0.777-0.025,4.567-0.124,5.419-0.161c0-0.173-0.05-1.493-0.074-1.826l1.679,0.073
			c-0.012,0.111-0.123,0.235-0.346,0.271c0,0.321,0.013,0.914,0.025,1.457c1.567-0.05,3.172-0.086,3.962-0.099v1.16
			c-0.95-0.013-2.419,0-3.938,0.05c0.012,0.456,0.012,0.9,0.024,1.209c0.024,0.433,0.037,0.754,0.05,1.148
			c0.16,0.481,0.173,1.062,0.173,1.358c0,2.53-1.741,4.012-3.716,4.765c-0.21-0.284-0.63-0.716-0.901-0.963
			c1.593-0.568,2.604-1.396,2.975-2.346h-0.012c-0.197,0.247-0.556,0.433-0.963,0.433c-1.099,0-2.136-0.89-2.136-2.21
			c0-1.358,1.111-2.346,2.309-2.346c0.37,0,0.729,0.099,0.975,0.271c0-0.049-0.012-0.099-0.012-0.136
			c-0.013-0.234-0.025-0.729-0.037-1.16c-2.037,0.062-4.062,0.111-5.419,0.186L1698.108,6882.631z M1703.798,6886.927
			c0-0.89-0.37-1.334-1.086-1.334c-0.717,0-1.26,0.544-1.26,1.358c0,0.74,0.556,1.234,1.173,1.234
			C1703.378,6888.186,1703.798,6887.593,1703.798,6886.927z"/>
		<path class="st6" d="M1710.657,6881.286c0.827,1.11,1.716,2.926,1.716,5.69c-0.013,2.753-0.889,4.556-1.716,5.703h-1.074
			c0.901-1.333,1.617-3.185,1.617-5.703s-0.704-4.345-1.617-5.69H1710.657z"/>
	</g>
</g>
<g>
</g>
<g>
</g>
<g>
</g>
<g>
</g>
<g>
</g>
<g>
</g>
<g>
</g>
<g>
</g>
<g>
</g>
<g>
</g>
<g>
</g>
</svg>
