<svg xmlns="http://www.w3.org/2000/svg" xmlns:xlink="http://www.w3.org/1999/xlink" width="518.805" height="381.104" viewBox="0 0 518.805 381.104"><defs><style>.a,.d{fill:#1a62a3;font-family:KozGoPro-Medium, Kozuka Gothic Pro;font-weight:500;}.a{font-size:85px;}.b{font-size:38px;}.c{fill:#fff;}.d{font-size:28px;}.e{fill:#3b3938;}.f{fill:#b4a28f;}.g{fill:#ddd;}.h{fill:#343434;}.i{filter:url(#a);}</style><filter id="a"><feOffset dy="3" input="SourceAlpha"/><feGaussianBlur stdDeviation="3" result="b"/><feFlood flood-opacity="0.161" result="c"/><feComposite operator="out" in="SourceGraphic" in2="b"/><feComposite operator="in" in="c"/><feComposite operator="in" in2="SourceGraphic"/></filter></defs><g transform="translate(-327 -7090.294)"><text class="a" transform="translate(533 7459.398)"><tspan x="-205.923" y="0">10,000</tspan><tspan class="b" y="0">ポイント</tspan></text><g data-type="innerShadowGroup"><path class="c" d="M0,139.411l85.229-10.165C116.321,143.85,159.971,153,208.471,153c94.135,0,170.428-34.261,170.428-76.49C378.9,34.242,302.605,0,208.471,0,114.356,0,38.053,34.242,38.053,76.513c0,13.778,8.275,26.692,22.507,37.864Z" transform="translate(466.907 7090.294)"/><g class="i" transform="matrix(1, 0, 0, 1, 327, 7090.29)"><path class="c" d="M0,139.411l85.229-10.165C116.321,143.85,159.971,153,208.471,153c94.135,0,170.428-34.261,170.428-76.49C378.9,34.242,302.605,0,208.471,0,114.356,0,38.053,34.242,38.053,76.513c0,13.778,8.275,26.692,22.507,37.864Z" transform="translate(139.91)"/></g></g><text class="d" transform="translate(541 7177.398)"><tspan x="0" y="0">こんなにできるの！?</tspan></text><g transform="translate(336 7166.398)"><path class="c" d="M144.726,17.395c-1.984-2.443-6.339-4.115-12.194-3.884a13.156,13.156,0,0,1,.435,4.827s-13.645-1.645-17.153,2.759c.846,1.113,2.153,1.355,3.072,2.42-1.676.749-10.047,3.6-10.867,5.562a9.88,9.88,0,0,1,2.681,1.493s-9.355,6.3-10.348,10.123c1.137-.314,3.168-.653,4.427,0-1.935,1.476-7.505,12.4-7.442,15.793,1.412-.429,2.918-.781,3.79-.472C99.748,57.9,98.073,64.89,98.572,67.6c.523-.146,2.953-.583,2.953-.583s.256,10.043,2.119,13.164a14.638,14.638,0,0,0,.194,9.263,15.492,15.492,0,0,0,4.238,6.288,15.606,15.606,0,0,0,2.682,1.434s2.737,10.827,3.453,12.5a37.964,37.964,0,0,0,2.733,5.4c-.016,1.863,0,9.92,0,9.92a16.2,16.2,0,0,1-3.86,3.246c-2.172,1.23-17.363,8.09-19.888,9.2s-15.654,7.124-18,8.893-5.349,6.65-6.646,9.713-2.074,12.709-2.139,14.479-.106,6.182-.106,6.182H207.082s-.12-14.589-1.046-17.428-3.339-10.235-6.485-12.316-14.614-7.815-16.137-8.444-19.647-9.048-20.566-9.29-5.653-2.6-5.972-4.035-.272-10.495-.272-10.495,3.622-6.761,4.268-9.248,1.715-6.648,2.134-8.572a13.334,13.334,0,0,0,5.7-4.688c1.035-1.626,1.929-6.417,2.063-8.757a7.38,7.38,0,0,0-.448-3.485s1.6-4.826,1.888-6.423.313-7.024.313-7.024l2.149.691s-.459-6.15-.732-7.818-1.1-6.826-1.258-7.081a11.831,11.831,0,0,0,3.194.793s-2.777-11.226-3.266-12.1c-.345-.852,2.05-.58,2.05-.58s-4.728-8.815-6.339-10.492a30.609,30.609,0,0,0-3.87-3.59,36.313,36.313,0,0,1,3.592-1.161c-.9-1.283-7.681-5.5-13.252-4.083-.235-1.071-2.7-6.206-4.246-7.331a6.072,6.072,0,0,0-2.682-1.234s-.069-.073,0,.617S144.726,17.395,144.726,17.395Z" transform="translate(-65.495 -11.882)"/><g transform="translate(3.744 3.375)"><circle class="e" cx="2.087" cy="2.087" r="2.087" transform="translate(50.828 65.468)"/><circle class="e" cx="2.087" cy="2.087" r="2.087" transform="translate(80.214 65.468)"/><path class="f" d="M91.292,149.657c5.309-2.3,21.224-8.995,21.224-8.995.556,5.629,3.508,26.419,4.128,29.573s3.488,13.956,3.488,13.956H69.421c0-5.259,1.016-21.2,6.871-26.132S84.412,152.633,91.292,149.657Z" transform="translate(-69.421 -22.747)"/><path class="f" d="M188.01,149.657c-5.308-2.3-21.224-8.995-21.224-8.995-.556,5.629-3.507,26.419-4.128,29.573s-3.488,13.956-3.488,13.956h50.712c0-5.259-1.017-21.2-6.871-26.132S194.892,152.633,188.01,149.657Z" transform="translate(-74.666 -22.747)"/><path class="g" d="M137.5,149.132l7.209-.477,1.694,5.413-.476,9.128a13.163,13.163,0,0,1,.968,3.15c.236,1.587,1.852,17.353,1.852,18.312h-12.7l2.056-21.033s-1.212-3.272-1.549-3.789-.29-8.139-.29-8.139Z" transform="translate(-73.315 -23.214)"/><path class="h" d="M172.123,50.978a12.671,12.671,0,0,1,3.29.339s-2.685-9.968-4.088-11.855a6.38,6.38,0,0,0,2.179-.049s-5.3-8.855-9.679-11.565a10.1,10.1,0,0,0-1.009-.539,27.621,27.621,0,0,1,2.721-2.885c-2.339-1.791-7.815-1.9-11.508-1.48.071-2.87-.623-6.006-3.645-7.516-.278,1.751-1.817,3.753-3.1,5.157a18.681,18.681,0,0,0-9.151-4.558,26.586,26.586,0,0,1,1.877,6.443c-3.7-1.748-13.173-2.978-17.578-1.52a19.805,19.805,0,0,1,4.973,3.848,39.384,39.384,0,0,0-10.159,4.381,4.375,4.375,0,0,1,2.4,1.161c-2.976.653-8.154,3.823-9.751,6.243a30.035,30.035,0,0,1,2.928,1.161,104.919,104.919,0,0,0-6.968,9.1,32.189,32.189,0,0,0-3.388,7.4,10.643,10.643,0,0,1,2.759,0s-1.863,5.456-2.328,7.4a34.828,34.828,0,0,0-.43,5.761h1.145s.379,8.287.743,9.625,1.42,3.868,1.42,3.868l3.676-1.351s-.547-8.59,1.921-12.662,8.613-9.807,8.613-9.807l-.234,4.913s8.19-5.481,9.371-6.584,4.793-4.062,4.793-4.062L132.565,61s5.538-3.949,6.749-5.157,7.415-8.707,9.405-10.667c.467,2.3,2.655,5.785,4,7.675s5.729,6.985,5.729,6.985l1.016-6.095s4.259,7.451,5.9,9.242a46.774,46.774,0,0,1,3.85,5.323l-.153,4.863-.5,6.581,3.4.845a19.766,19.766,0,0,0,2.352-6.9,80.67,80.67,0,0,0-.5-11.825A69.378,69.378,0,0,0,172.123,50.978Z" transform="translate(-71.352 -15.428)"/></g><g transform="translate(0 0)"><path class="e" d="M125.44,89.891A2.894,2.894,0,1,1,128.335,87,2.9,2.9,0,0,1,125.44,89.891Zm0-4.174A1.28,1.28,0,1,0,126.72,87,1.281,1.281,0,0,0,125.44,85.717Z" transform="translate(-68.781 -16.066)"/><path class="e" d="M120.687,85.212a.818.818,0,0,1-.342-.075.808.808,0,0,1-.39-1.073,6,6,0,0,1,5.531-3.386,5.207,5.207,0,0,1,4.847,3.136.808.808,0,1,1-1.478.651,3.586,3.586,0,0,0-3.387-2.172h-.049a4.435,4.435,0,0,0-4,2.454A.808.808,0,0,1,120.687,85.212Z" transform="translate(-68.626 -15.866)"/><path class="e" d="M156.65,89.891A2.894,2.894,0,1,1,159.545,87,2.9,2.9,0,0,1,156.65,89.891Zm0-4.174A1.28,1.28,0,1,0,157.93,87,1.281,1.281,0,0,0,156.65,85.717Z" transform="translate(-70.605 -16.066)"/><path class="e" d="M161.111,85.212a.808.808,0,0,1-.733-.466,4.438,4.438,0,0,0-4-2.454h-.05a3.586,3.586,0,0,0-3.387,2.172.808.808,0,1,1-1.478-.651,5.208,5.208,0,0,1,4.847-3.136h.07a5.994,5.994,0,0,1,5.461,3.386.808.808,0,0,1-.39,1.073A.817.817,0,0,1,161.111,85.212Z" transform="translate(-70.467 -15.866)"/><path class="e" d="M140.848,105.652a4.957,4.957,0,0,1-3.955-1.913.807.807,0,1,1,1.363-.865A3.431,3.431,0,0,0,141,104.03a.808.808,0,1,1,.212,1.6A2.9,2.9,0,0,1,140.848,105.652Z" transform="translate(-69.612 -17.141)"/><path class="e" d="M140.409,116.021c-4.231,0-7.846-1.108-9.463-2.636a.807.807,0,1,1,1.109-1.173c2.333,2.2,11.21,3.744,18.714-.355a.807.807,0,1,1,.774,1.417A23.431,23.431,0,0,1,140.409,116.021Z" transform="translate(-69.257 -17.682)"/><path class="e" d="M142.923,121.347a9.57,9.57,0,0,1-4.69-1.225.808.808,0,0,1,.869-1.361,7.994,7.994,0,0,0,4.313.951.807.807,0,1,1,.144,1.608C143.354,121.338,143.141,121.347,142.923,121.347Z" transform="translate(-69.676 -18.084)"/><path class="e" d="M163.571,70.427A.8.8,0,0,1,163,70.19c-3.605-3.613-9.453-3.088-13.126-.76a.807.807,0,1,1-.864-1.363c4.308-2.732,10.889-3.272,15.134.982a.808.808,0,0,1-.572,1.378Z" transform="translate(-70.306 -15.004)"/><path class="e" d="M117.4,70.662a.808.808,0,0,1-.524-1.422,14.99,14.99,0,0,1,10.352-2.889,6.7,6.7,0,0,1,4.779,2.21.807.807,0,1,1-1.276.989,5.259,5.259,0,0,0-3.668-1.592,13.248,13.248,0,0,0-9.139,2.511A.8.8,0,0,1,117.4,70.662Z" transform="translate(-68.434 -15.025)"/><g transform="translate(36.627 66.376)"><path class="e" d="M171.713,100.62a.808.808,0,0,1-.482-1.456c1.564-1.165,3.747-3.353,4.649-8.889.551-3.376-.305-5.5-1.4-6.116a2.337,2.337,0,0,0-2.57.612.807.807,0,0,1-1.055-1.222c1.46-1.26,3.069-1.552,4.413-.8,1.962,1.1,2.806,4.082,2.2,7.785-1,6.114-3.49,8.592-5.279,9.925A.807.807,0,0,1,171.713,100.62Z" transform="translate(-108.215 -82.34)"/><path class="e" d="M143.979,130.881a.807.807,0,0,1-.114-1.606c4.534-.655,11.073-4.685,16.661-10.268,3.686-3.682,6.059-16.786,6.575-22.2a.808.808,0,0,1,1.608.153c-.557,5.825-3.008,19.158-7.042,23.188-5.907,5.9-12.64,10.011-17.571,10.722A.815.815,0,0,1,143.979,130.881Z" transform="translate(-106.613 -83.143)"/><path class="e" d="M110.3,100.62a.809.809,0,0,1-.482-.16c-1.789-1.333-4.282-3.811-5.279-9.925-.6-3.7.24-6.686,2.2-7.785,1.344-.752,2.952-.461,4.412.8a.807.807,0,1,1-1.055,1.222,2.336,2.336,0,0,0-2.57-.612c-1.092.612-1.948,2.74-1.4,6.116.9,5.535,3.086,7.725,4.65,8.889a.808.808,0,0,1-.483,1.456Z" transform="translate(-104.344 -82.34)"/><path class="e" d="M136.886,130.881a.818.818,0,0,1-.117-.008c-4.93-.712-11.663-4.821-17.571-10.722-4.034-4.03-6.485-17.362-7.041-23.188a.807.807,0,1,1,1.607-.153c.516,5.412,2.888,18.516,6.575,22.2,5.588,5.582,12.128,9.613,16.662,10.268a.807.807,0,0,1-.115,1.606Z" transform="translate(-104.801 -83.143)"/></g><path class="e" d="M111.872,70.359a.788.788,0,0,1-.323-.069.807.807,0,0,1-.416-1.063A35.773,35.773,0,0,1,120.259,57.7a.808.808,0,0,1,1.292.849,13.822,13.822,0,0,0-.476,3.869c4.381-2.451,10.084-7.063,12.969-11.325a.807.807,0,0,1,1.461.606c-.4,2.042-1.308,7.051-1.566,9.725,4.375-2.655,11.878-11.1,14.613-15.169a.808.808,0,0,1,1.34.9c-2.622,3.9-11.663,14.462-16.531,16.366a.807.807,0,0,1-1.1-.717,58.959,58.959,0,0,1,1.064-8.191,46.912,46.912,0,0,1-12.715,9.874.807.807,0,0,1-1.165-.752c.009-.273.01-.571.012-.891,0-.7.007-1.481.088-2.332a33.623,33.623,0,0,0-6.933,9.355A.805.805,0,0,1,111.872,70.359Z" transform="translate(-68.11 -13.834)"/><path class="e" d="M171.524,68.578a.8.8,0,0,1-.473-.153c-2.643-1.918-6.206-7.259-8.448-11.31-.036.92-.025,1.97-.019,2.7.009.911.017,1.772-.021,2.414a.807.807,0,0,1-1.31.584c-1.482-1.184-7.968-8.678-8.16-11.538a.808.808,0,1,1,1.612-.107c.107,1.616,3.955,6.606,6.268,9.116,0-.15,0-.3,0-.454-.028-2.971,0-4.833.653-5.634a.807.807,0,0,1,1.35.153c2,4.059,6.249,10.754,9.026,12.768a.807.807,0,0,1-.475,1.461Z" transform="translate(-70.567 -14.097)"/><path class="e" d="M172.413,79.918a.815.815,0,0,1-.261-.043.806.806,0,0,1-.5-1.023,11.981,11.981,0,0,1,1.247-2.554c-.363.059-.736.119-1.1.158a.808.808,0,0,1-.765-1.245c.033-.05.075-.119.128-.2a16.965,16.965,0,0,1,1.973-2.657,6.046,6.046,0,0,0-1.784.539.808.808,0,0,1-.75-1.43c1.219-.639,3.8-1.154,4.9-.471a.807.807,0,0,1,.058,1.333,10.766,10.766,0,0,0-2.176,2.263,2.883,2.883,0,0,1,1.988.141.807.807,0,0,1-.1,1.407c-.86.4-1.743,2.2-2.1,3.24A.808.808,0,0,1,172.413,79.918Z" transform="translate(-71.564 -15.281)"/><path class="e" d="M109.653,80.31a.808.808,0,0,1-.788-.636,5.57,5.57,0,0,0-1.406-2.877.807.807,0,0,1,.065-1.409,2.181,2.181,0,0,1,1.506-.006,8.777,8.777,0,0,0-1.458-1.858.808.808,0,0,1,.212-1.319c1.039-.487,3.231.214,4.224.89a.807.807,0,1,1-.909,1.334,4.624,4.624,0,0,0-1.094-.51,15.025,15.025,0,0,1,1.219,2.179l.087.182a.807.807,0,0,1-.9,1.148c-.219-.05-.443-.11-.666-.171a10.612,10.612,0,0,1,.7,2.076.808.808,0,0,1-.619.959A.824.824,0,0,1,109.653,80.31Z" transform="translate(-67.877 -15.361)"/><path class="e" d="M148.815,18.215a.807.807,0,0,1-.688-.384c-1.629-2.644-8.241-3.888-10.929-3.4a.808.808,0,0,1-.285-1.59c3.092-.554,10.536.814,12.589,4.147a.808.808,0,0,1-.686,1.231Z" transform="translate(-69.582 -11.894)"/><path class="e" d="M118.837,22.188a.808.808,0,0,1-.492-1.449c5.046-3.861,16.682-4.359,20.762-1.783a.807.807,0,1,1-.862,1.365c-3.613-2.28-14.389-1.765-18.918,1.7A.806.806,0,0,1,118.837,22.188Z" transform="translate(-68.517 -12.165)"/><path class="e" d="M102.415,42.135a.8.8,0,0,1-.4-.106.808.808,0,0,1-.3-1.1c1.736-3.042,6.091-7.924,9.443-9.859a10.325,10.325,0,0,0-1.474-.161.807.807,0,0,1-.577-1.327c2.491-2.956,8.98-5.418,12.79-6.222a.808.808,0,0,1,.333,1.581,30.468,30.468,0,0,0-10.674,4.56,4.253,4.253,0,0,1,2.037,1.007.809.809,0,0,1-.338,1.4c-2.611.636-8.1,6.253-10.136,9.825A.806.806,0,0,1,102.415,42.135Z" transform="translate(-67.558 -12.515)"/><path class="e" d="M100.437,69.977a.808.808,0,0,1-.807-.791c-.12-5.906.872-8.636,2.089-10.954a11.791,11.791,0,0,0-2.39.64.809.809,0,0,1-1.1-.744c-.057-4.93,6.35-15.617,9.829-18.56A.807.807,0,1,1,109.1,40.8c-2.922,2.473-8.347,11.395-9.155,16.167a9.821,9.821,0,0,1,3.252-.422.808.808,0,0,1,.629,1.2c-1.459,2.594-2.718,4.834-2.585,11.407a.806.806,0,0,1-.791.824Z" transform="translate(-67.36 -13.452)"/><path class="e" d="M158.617,19.845a.807.807,0,0,1-.778-.592c-1.078-3.9-3.154-5.112-5.237-5.84a.807.807,0,0,1,.533-1.524c2.239.783,4.973,2.28,6.26,6.935a.807.807,0,0,1-.779,1.023Z" transform="translate(-70.506 -11.843)"/><path class="e" d="M173.612,26.181a.805.805,0,0,1-.675-.363c-1.795-2.724-7.707-4.42-10.329-4a.808.808,0,0,1-.254-1.6c3.152-.5,9.755,1.406,11.931,4.709a.807.807,0,0,1-.673,1.251Z" transform="translate(-71.068 -12.328)"/><path class="e" d="M182.075,54.709a.807.807,0,0,1-.805-.754c-.277-4.213-3.841-12.323-3.876-12.405a.808.808,0,0,1,.681-1.132c.269-.019.881-.058,1.488-.065-1.551-4.024-6.277-10.593-9.458-12.306a.807.807,0,0,1,.766-1.422c3.854,2.076,9.524,10.225,10.609,14.4a.807.807,0,0,1-.985.985,6.514,6.514,0,0,0-1.164-.032c1.006,2.414,3.316,8.294,3.553,11.875a.808.808,0,0,1-.752.86Z" transform="translate(-71.536 -12.701)"/><path class="e" d="M177.863,79.926a.8.8,0,0,1-.3-.059.807.807,0,0,1-.446-1.051c.736-1.828.935-7.474.874-9.952a.807.807,0,0,1,1.124-.762l1.213.516a77.339,77.339,0,0,0-2.065-13.478.808.808,0,0,1,1.544-.474c.686,2.238,2.333,11.367,2.123,15.207a.807.807,0,0,1-1.115.7c-.287-.118-.759-.317-1.2-.507-.018,2.51-.2,7.372-1,9.352A.807.807,0,0,1,177.863,79.926Z" transform="translate(-71.967 -14.312)"/><path class="e" d="M104.558,80.92a.807.807,0,0,1-.751-.51c-.786-1.987-1.648-7.906-.7-11.615a.807.807,0,0,1,1.564.4c-.824,3.215-.081,8.811.635,10.62a.807.807,0,0,1-.75,1.1Z" transform="translate(-67.621 -15.136)"/><g transform="translate(0 105.536)"><g transform="translate(72.044)"><path class="e" d="M162.456,132.9a.808.808,0,0,1-.8-.75c-.193-2.7-.306-7.346-.307-7.393a.808.808,0,1,1,1.615-.039c0,.046.113,4.657.3,7.318a.807.807,0,0,1-.749.862C162.5,132.9,162.476,132.9,162.456,132.9Z" transform="translate(-143.093 -123.93)"/><path class="e" d="M142.768,143.779a.807.807,0,0,1-.2-1.589c4.14-1.061,13.617-5.535,16.613-8.635a.808.808,0,0,1,1.162,1.123c-3.223,3.334-12.964,7.947-17.374,9.076A.776.776,0,0,1,142.768,143.779Z" transform="translate(-141.96 -124.478)"/><path class="e" d="M151.058,160.933h-.037a.81.81,0,0,1-.562-.265c-1.013-1.12-6.5-12.573-7.594-14.857a.807.807,0,1,1,1.457-.7c2.595,5.437,5.55,11.409,6.8,13.626,2.635-3.8,11.2-18.971,11.627-21.265a.807.807,0,1,1,1.587.3c-.533,2.859-11.094,21.431-12.736,22.947A.811.811,0,0,1,151.058,160.933Z" transform="translate(-142.008 -124.683)"/><path class="e" d="M212.79,184.569h-.008a.808.808,0,0,1-.8-.814c.162-19.439-3.679-25.889-5.983-28-3.744-3.435-14.671-8.165-24.313-12.338-8.433-3.65-15.715-6.8-17.5-8.751a.808.808,0,0,1,1.192-1.09c1.549,1.694,9.029,4.932,16.947,8.359,9.758,4.224,20.819,9.012,24.762,12.63,3.056,2.8,6.665,10.148,6.506,29.207A.807.807,0,0,1,212.79,184.569Z" transform="translate(-143.247 -124.478)"/><path class="e" d="M159.12,184.844a.819.819,0,0,1-.306-.06.809.809,0,0,1-.442-1.054c3.19-7.788,7-34.543,7.684-44.964a.808.808,0,1,1,1.612.106c-.695,10.509-4.555,37.545-7.8,45.47A.808.808,0,0,1,159.12,184.844Z" transform="translate(-142.916 -124.753)"/><path class="e" d="M169.141,185.007a.807.807,0,0,1-.643-1.295c2.543-3.359,7.266-14.671,8.3-17.193l-5.709-5.584a.808.808,0,0,1,.067-1.213l5.64-4.42-4.763-13.427a.807.807,0,0,1,1.522-.54l4.958,13.974a.808.808,0,0,1-.263.906l-5.373,4.211,5.439,5.319a.811.811,0,0,1,.184.881c-.233.574-5.736,14.122-8.718,18.061A.809.809,0,0,1,169.141,185.007Z" transform="translate(-143.502 -124.916)"/></g><path class="e" d="M119.875,132.9c-.02,0-.039,0-.058,0a.808.808,0,0,1-.749-.862c.19-2.661.3-7.272.3-7.318a.82.82,0,0,1,.827-.788.808.808,0,0,1,.787.827c0,.047-.114,4.7-.307,7.393A.807.807,0,0,1,119.875,132.9Z" transform="translate(-68.578 -123.93)"/><path class="e" d="M138.528,143.779a.776.776,0,0,1-.2-.025c-4.41-1.129-14.151-5.742-17.375-9.076a.808.808,0,0,1,1.162-1.123c3,3.1,12.474,7.574,16.613,8.635a.807.807,0,0,1-.2,1.589Z" transform="translate(-68.675 -124.478)"/><path class="e" d="M130.054,160.933a.809.809,0,0,1-.547-.214c-1.641-1.516-12.2-20.089-12.736-22.947a.807.807,0,1,1,1.587-.3c.428,2.295,8.993,17.47,11.627,21.265,1.255-2.217,4.211-8.19,6.8-13.626a.808.808,0,0,1,1.458.7c-1.09,2.284-6.581,13.736-7.595,14.857a.806.806,0,0,1-.562.265Z" transform="translate(-68.443 -124.683)"/><path class="e" d="M66.256,184.569a.807.807,0,0,1-.807-.8c-.165-19.822,4.2-26.807,6.811-29.207,3.944-3.618,15-8.406,24.763-12.63,7.918-3.427,15.4-6.665,16.946-8.359a.808.808,0,1,1,1.192,1.09c-1.782,1.948-9.064,5.1-17.5,8.751-9.641,4.173-20.569,8.9-24.312,12.338-2.417,2.218-6.449,8.806-6.289,28a.808.808,0,0,1-.8.814Z" transform="translate(-65.444 -124.478)"/><path class="e" d="M122.749,184.844a.809.809,0,0,1-.748-.5c-3.246-7.926-7.106-34.962-7.8-45.47a.807.807,0,1,1,1.611-.106c.688,10.42,4.494,37.176,7.684,44.964a.808.808,0,0,1-.748,1.114Z" transform="translate(-68.294 -124.753)"/><path class="e" d="M112.674,185.007a.809.809,0,0,1-.644-.32c-2.982-3.939-8.485-17.487-8.718-18.061a.808.808,0,0,1,.184-.881l5.438-5.319-5.372-4.211a.808.808,0,0,1-.264-.906l4.958-13.974a.808.808,0,0,1,1.522.54L105.016,155.3l5.64,4.42a.808.808,0,0,1,.067,1.213l-5.709,5.584c1.039,2.522,5.76,13.834,8.3,17.193a.807.807,0,0,1-.643,1.295Z" transform="translate(-67.654 -124.916)"/></g><path class="e" d="M140.961,165.1a10.224,10.224,0,0,1-3.673-.537c-2.037-.846-2.094-7.241-2.094-7.306a.807.807,0,0,1,1.615,0c0,2.742.686,5.491,1.135,5.833,1.671.691,6.015.386,7.667-.2a.808.808,0,0,1,.54,1.523A18.272,18.272,0,0,1,140.961,165.1Z" transform="translate(-69.521 -20.294)"/><path class="e" d="M146.341,161.968a.838.838,0,0,1-.152-.014.808.808,0,0,1-.643-.944,16.756,16.756,0,0,0,.137-4.194.808.808,0,0,1,1.608-.15,18.248,18.248,0,0,1-.159,4.646A.807.807,0,0,1,146.341,161.968Z" transform="translate(-70.125 -20.264)"/><path class="e" d="M142.531,149.557a.807.807,0,0,1-.264-.044,6.266,6.266,0,0,0-2.3.012.807.807,0,1,1-.447-1.552,7.493,7.493,0,0,1,3.273.013.807.807,0,0,1-.263,1.57Z" transform="translate(-69.739 -19.789)"/><path class="e" d="M133.795,186.44h-.026a.807.807,0,0,1-.781-.832c.088-2.81,1.334-16.337,2.1-19.668a.808.808,0,0,1,1.574.361c-.691,3.009-1.964,16.306-2.059,19.358A.807.807,0,0,1,133.795,186.44Z" transform="translate(-69.392 -20.812)"/><path class="e" d="M149.36,186.44a.807.807,0,0,1-.807-.782c-.1-3.053-1.368-16.349-2.058-19.358a.807.807,0,0,1,1.573-.361c.765,3.331,2.011,16.859,2.1,19.668a.808.808,0,0,1-.782.832Z" transform="translate(-70.18 -20.812)"/></g></g></g></svg>