<svg xmlns="http://www.w3.org/2000/svg" width="1588.5" height="540.089" viewBox="0 0 1588.5 540.089">
  <g id="グループ_1825" data-name="グループ 1825" transform="translate(-134 -7234.305)">
    <path id="パス_2987" data-name="パス 2987" d="M-103.44-12.24a5.639,5.639,0,0,0,4.02-5.28c0-2.88-2.07-5.43-6.3-5.43a10.262,10.262,0,0,0-5.67,1.65l.87,2.49a7.607,7.607,0,0,1,4.02-1.35c2.4,0,3.54,1.41,3.54,3.18,0,2.49-2.55,3.66-4.5,3.66h-1.47v2.49h1.53c2.67,0,5.13,1.35,5.13,4.26,0,2.01-1.32,4.11-4.53,4.11a8.9,8.9,0,0,1-4.47-1.29l-.9,2.67A10.713,10.713,0,0,0-106.65.33c5.13,0,7.95-3.09,7.95-6.78a5.684,5.684,0,0,0-4.74-5.73Zm31.08-6.06-.57.21h-8.7c.3-1.8.42-3.3.6-5.34.51-.09.78-.27.84-.6l-3.99-.36c-.15,2.43-.27,4.2-.6,6.3h-8.34v2.79h7.8c-1.29,6-3.84,11.16-8.91,15.03A14.287,14.287,0,0,1-91.8,1.56c5.46-4.32,8.19-10.2,9.63-16.83h8.43c-.27,6.18-.99,10.95-1.8,12.51a2.039,2.039,0,0,1-2.13,1.32,31.583,31.583,0,0,1-4.98-.72,20.378,20.378,0,0,1,.18,3,30.63,30.63,0,0,0,5.37.66A4.591,4.591,0,0,0-72.93-.81c1.14-1.98,2.01-7.41,2.46-16.32a.842.842,0,0,0,.3-.42Zm11.91-5.61v9.6c0,4.8-.48,10.83-5.58,14.91A11.776,11.776,0,0,1-63.9,2.7a16.621,16.621,0,0,0,5.61-9.48h13.68v5.61c0,.93-.18.93-2.79.93-1.05,0-2.37-.03-3.69-.09a11.869,11.869,0,0,1,1.2,2.97c6.81.06,8.28-.36,8.28-3.78V-23.91Zm15.84,7.2H-57.54v-4.44h12.93Zm0,2.73v4.44h-13.2a39.077,39.077,0,0,0,.27-4.44Zm34.38-5.25h-9.81v-2.13H-8.31v-2.58H-34.8v2.58h11.94v2.13H-32.1V-7.86h9a7.451,7.451,0,0,1-1.59,3.51,12.659,12.659,0,0,1-2.64-3.3l-2.49.87a15.41,15.41,0,0,0,3.15,4.17A24.189,24.189,0,0,1-35.43.3a13.12,13.12,0,0,1,1.68,2.43c4.29-.9,7.26-2.13,9.33-3.63,3.84,2.37,9.03,3.21,15.75,3.66A7.335,7.335,0,0,1-7.38,0c-6.57-.24-11.46-.81-15.03-2.79a10.035,10.035,0,0,0,2.16-5.07h10.02ZM-22.86-17.1v2.52H-29.4V-17.1Zm9.81,2.52h-6.99V-17.1h6.99ZM-29.4-12.57h6.54v2.55H-29.4Zm9.36,2.55v-2.55h6.99v2.55ZM3.03-7.77H8.55V-10.2H3.03v-2.46a1.338,1.338,0,0,0,.54-.21H9v-2.37H5.16a38.674,38.674,0,0,0,1.53-3.57c.39-.03.63-.12.69-.33l-2.46-.69H8.37V-22.2H3.03v-2.55c.48-.06.66-.24.69-.48L.27-25.44v3.24H-4.95v2.37h3.54l-1.98.57a17.378,17.378,0,0,1,1.17,4.02H-5.55v2.37H.27v2.67H-5.19v2.43H-.18a20.145,20.145,0,0,1-5.7,6.33A10.953,10.953,0,0,1-3.99.57,21.374,21.374,0,0,0,.27-4.26v6.9H3.03V-4.5c1.14,1.05,2.46,2.31,3.09,3L7.74-3.57C7.02-4.2,4.02-6.48,3.03-7.14Zm9.66-7.53v-4.71a49.552,49.552,0,0,0,8.76-3.15.817.817,0,0,0,.75-.15l-2.73-2.07a35.1,35.1,0,0,1-7.86,3.24l-1.65-.48v10.38c0,4.17-.39,9.27-4.11,12.99A6.765,6.765,0,0,1,7.89,2.73c4.71-4.71,4.8-11.94,4.8-15.39H16.5V2.67h2.76V-12.66h3.21V-15.3Zm-9.39.06H-.51l.66-.21a16.337,16.337,0,0,0-1.32-4.38H4.26a33.1,33.1,0,0,1-1.5,4.41Zm43.56-7.68a3.233,3.233,0,0,0,3.27,3.24,3.227,3.227,0,0,0,3.24-3.24,3.252,3.252,0,0,0-3.24-3.27A3.258,3.258,0,0,0,46.86-22.92Zm3.27,2.19a2.183,2.183,0,0,1-2.19-2.19,2.19,2.19,0,0,1,2.19-2.22,2.184,2.184,0,0,1,2.16,2.22A2.176,2.176,0,0,1,50.13-20.73ZM27.21-18.12H45C43.26-9.36,38.22-3.96,29.79-.87a16.5,16.5,0,0,1,1.89,2.49c9.21-3.54,14.34-9.18,16.92-20.4a1.328,1.328,0,0,0,.45-.36l-2.73-1.98-.21.12H27.21ZM76.8-23.34H59.7v2.76H76.8Zm.57,7.41-.36.24H56.76v2.79H75.75C74.1-6.81,69.06-2.64,61.23-.72a12.237,12.237,0,0,1,1.8,2.4c9-2.52,13.8-6.93,16.38-16.05a.977.977,0,0,0,.51-.39Zm9.54-3.87a41.088,41.088,0,0,1,8.7,4.14l1.56-2.7a37.052,37.052,0,0,0-8.85-3.99Zm3,21.09a.96.96,0,0,0,.48-.72c10.05-3.45,17.31-9.87,21.03-18.06a20,20,0,0,1-2.76-1.74C105.12-10.95,98.1-5.01,87.75-1.83Z" transform="translate(932 7313.5)" fill="#2086c4"/>
    <path id="パス_2988" data-name="パス 2988" d="M-108.84-12.45c.48-3.33,2.79-7.71,9.21-7.71l-.03-2.76a12.6,12.6,0,0,0-9.06,3.51,14.624,14.624,0,0,0-3.63,10.2c0,5.61,2.82,9.54,7.62,9.54,4.47,0,7.14-3.75,7.14-7.95,0-4.44-2.64-7.17-6.27-7.17a6.177,6.177,0,0,0-4.92,2.34Zm4.11,10.17c-2.64,0-4.11-2.55-4.17-6.09a4.16,4.16,0,0,1,3.96-3.93c2.37,0,3.87,1.95,3.87,4.89C-101.07-4.44-102.45-2.28-104.73-2.28ZM-72.36-18.3l-.57.21h-8.7c.3-1.8.42-3.3.6-5.34.51-.09.78-.27.84-.6l-3.99-.36c-.15,2.43-.27,4.2-.6,6.3h-8.34v2.79h7.8c-1.29,6-3.84,11.16-8.91,15.03A14.287,14.287,0,0,1-91.8,1.56c5.46-4.32,8.19-10.2,9.63-16.83h8.43c-.27,6.18-.99,10.95-1.8,12.51a2.039,2.039,0,0,1-2.13,1.32,31.583,31.583,0,0,1-4.98-.72,20.378,20.378,0,0,1,.18,3,30.63,30.63,0,0,0,5.37.66A4.591,4.591,0,0,0-72.93-.81c1.14-1.98,2.01-7.41,2.46-16.32a.842.842,0,0,0,.3-.42Zm11.91-5.61v9.6c0,4.8-.48,10.83-5.58,14.91A11.776,11.776,0,0,1-63.9,2.7a16.621,16.621,0,0,0,5.61-9.48h13.68v5.61c0,.93-.18.93-2.79.93-1.05,0-2.37-.03-3.69-.09a11.869,11.869,0,0,1,1.2,2.97c6.81.06,8.28-.36,8.28-3.78V-23.91Zm15.84,7.2H-57.54v-4.44h12.93Zm0,2.73v4.44h-13.2a39.077,39.077,0,0,0,.27-4.44Zm34.38-5.25h-9.81v-2.13H-8.31v-2.58H-34.8v2.58h11.94v2.13H-32.1V-7.86h9a7.451,7.451,0,0,1-1.59,3.51,12.659,12.659,0,0,1-2.64-3.3l-2.49.87a15.41,15.41,0,0,0,3.15,4.17A24.189,24.189,0,0,1-35.43.3a13.12,13.12,0,0,1,1.68,2.43c4.29-.9,7.26-2.13,9.33-3.63,3.84,2.37,9.03,3.21,15.75,3.66A7.335,7.335,0,0,1-7.38,0c-6.57-.24-11.46-.81-15.03-2.79a10.035,10.035,0,0,0,2.16-5.07h10.02ZM-22.86-17.1v2.52H-29.4V-17.1Zm9.81,2.52h-6.99V-17.1h6.99ZM-29.4-12.57h6.54v2.55H-29.4Zm9.36,2.55v-2.55h6.99v2.55ZM3.03-7.77H8.55V-10.2H3.03v-2.46a1.338,1.338,0,0,0,.54-.21H9v-2.37H5.16a38.674,38.674,0,0,0,1.53-3.57c.39-.03.63-.12.69-.33l-2.46-.69H8.37V-22.2H3.03v-2.55c.48-.06.66-.24.69-.48L.27-25.44v3.24H-4.95v2.37h3.54l-1.98.57a17.378,17.378,0,0,1,1.17,4.02H-5.55v2.37H.27v2.67H-5.19v2.43H-.18a20.145,20.145,0,0,1-5.7,6.33A10.953,10.953,0,0,1-3.99.57,21.374,21.374,0,0,0,.27-4.26v6.9H3.03V-4.5c1.14,1.05,2.46,2.31,3.09,3L7.74-3.57C7.02-4.2,4.02-6.48,3.03-7.14Zm9.66-7.53v-4.71a49.552,49.552,0,0,0,8.76-3.15.817.817,0,0,0,.75-.15l-2.73-2.07a35.1,35.1,0,0,1-7.86,3.24l-1.65-.48v10.38c0,4.17-.39,9.27-4.11,12.99A6.765,6.765,0,0,1,7.89,2.73c4.71-4.71,4.8-11.94,4.8-15.39H16.5V2.67h2.76V-12.66h3.21V-15.3Zm-9.39.06H-.51l.66-.21a16.337,16.337,0,0,0-1.32-4.38H4.26a33.1,33.1,0,0,1-1.5,4.41Zm43.56-7.68a3.233,3.233,0,0,0,3.27,3.24,3.227,3.227,0,0,0,3.24-3.24,3.252,3.252,0,0,0-3.24-3.27A3.258,3.258,0,0,0,46.86-22.92Zm3.27,2.19a2.183,2.183,0,0,1-2.19-2.19,2.19,2.19,0,0,1,2.19-2.22,2.184,2.184,0,0,1,2.16,2.22A2.176,2.176,0,0,1,50.13-20.73ZM27.21-18.12H45C43.26-9.36,38.22-3.96,29.79-.87a16.5,16.5,0,0,1,1.89,2.49c9.21-3.54,14.34-9.18,16.92-20.4a1.328,1.328,0,0,0,.45-.36l-2.73-1.98-.21.12H27.21ZM76.8-23.34H59.7v2.76H76.8Zm.57,7.41-.36.24H56.76v2.79H75.75C74.1-6.81,69.06-2.64,61.23-.72a12.237,12.237,0,0,1,1.8,2.4c9-2.52,13.8-6.93,16.38-16.05a.977.977,0,0,0,.51-.39Zm9.54-3.87a41.088,41.088,0,0,1,8.7,4.14l1.56-2.7a37.052,37.052,0,0,0-8.85-3.99Zm3,21.09a.96.96,0,0,0,.48-.72c10.05-3.45,17.31-9.87,21.03-18.06a20,20,0,0,1-2.76-1.74C105.12-10.95,98.1-5.01,87.75-1.83Z" transform="translate(1259 7313.5)" fill="#2086c4"/>
    <path id="パス_2989" data-name="パス 2989" d="M-110.85,0V-22.59h-2.94l-5.1,2.73.78,2.55,3.81-2.1h.06V0Zm20.97-2.88h-9.09v-.06l1.86-1.89c3.93-3.96,6.75-7.41,6.75-11.55,0-3.42-2.04-6.57-6.69-6.57a9.755,9.755,0,0,0-6.09,2.1l1.05,2.49a7.259,7.259,0,0,1,4.35-1.77c2.85,0,3.9,1.92,3.9,4.11,0,3.39-2.64,6.51-7.41,11.4l-2.37,2.49V0h13.74ZM-63.93-18.3l-.57.21h-8.7c.3-1.8.42-3.3.6-5.34.51-.09.78-.27.84-.6l-3.99-.36c-.15,2.43-.27,4.2-.6,6.3h-8.34v2.79h7.8c-1.29,6-3.84,11.16-8.91,15.03a14.286,14.286,0,0,1,2.43,1.83c5.46-4.32,8.19-10.2,9.63-16.83h8.43c-.27,6.18-.99,10.95-1.8,12.51a2.039,2.039,0,0,1-2.13,1.32,31.583,31.583,0,0,1-4.98-.72,20.378,20.378,0,0,1,.18,3,30.63,30.63,0,0,0,5.37.66A4.591,4.591,0,0,0-64.5-.81c1.14-1.98,2.01-7.41,2.46-16.32a.842.842,0,0,0,.3-.42Zm11.91-5.61v9.6c0,4.8-.48,10.83-5.58,14.91a11.776,11.776,0,0,1,2.13,2.1,16.621,16.621,0,0,0,5.61-9.48h13.68v5.61c0,.93-.18.93-2.79.93-1.05,0-2.37-.03-3.69-.09a11.869,11.869,0,0,1,1.2,2.97c6.81.06,8.28-.36,8.28-3.78V-23.91Zm15.84,7.2H-49.11v-4.44h12.93Zm0,2.73v4.44h-13.2a39.077,39.077,0,0,0,.27-4.44ZM-1.8-19.23h-9.81v-2.13H.12v-2.58H-26.37v2.58h11.94v2.13h-9.24V-7.86h9a7.451,7.451,0,0,1-1.59,3.51,12.659,12.659,0,0,1-2.64-3.3l-2.49.87a15.41,15.41,0,0,0,3.15,4.17A24.189,24.189,0,0,1-27,.3a13.121,13.121,0,0,1,1.68,2.43c4.29-.9,7.26-2.13,9.33-3.63C-12.15,1.47-6.96,2.31-.24,2.76A7.335,7.335,0,0,1,1.05,0C-5.52-.24-10.41-.81-13.98-2.79a10.035,10.035,0,0,0,2.16-5.07H-1.8ZM-14.43-17.1v2.52h-6.54V-17.1Zm9.81,2.52h-6.99V-17.1h6.99Zm-16.35,2.01h6.54v2.55h-6.54Zm9.36,2.55v-2.55h6.99v2.55ZM11.46-7.77h5.52V-10.2H11.46v-2.46a1.338,1.338,0,0,0,.54-.21h5.43v-2.37H13.59a38.674,38.674,0,0,0,1.53-3.57c.39-.03.63-.12.69-.33l-2.46-.69H16.8V-22.2H11.46v-2.55c.48-.06.66-.24.69-.48L8.7-25.44v3.24H3.48v2.37H7.02l-1.98.57a17.378,17.378,0,0,1,1.17,4.02H2.88v2.37H8.7v2.67H3.24v2.43H8.25a20.145,20.145,0,0,1-5.7,6.33A10.953,10.953,0,0,1,4.44.57,21.374,21.374,0,0,0,8.7-4.26v6.9h2.76V-4.5c1.14,1.05,2.46,2.31,3.09,3l1.62-2.07c-.72-.63-3.72-2.91-4.71-3.57Zm9.66-7.53v-4.71a49.552,49.552,0,0,0,8.76-3.15.817.817,0,0,0,.75-.15L27.9-25.38a35.1,35.1,0,0,1-7.86,3.24l-1.65-.48v10.38c0,4.17-.39,9.27-4.11,12.99a6.765,6.765,0,0,1,2.04,1.98c4.71-4.71,4.8-11.94,4.8-15.39h3.81V2.67h2.76V-12.66H30.9V-15.3Zm-9.39.06H7.92l.66-.21a16.337,16.337,0,0,0-1.32-4.38h5.43a33.1,33.1,0,0,1-1.5,4.41Zm43.56-7.68a3.233,3.233,0,0,0,3.27,3.24,3.227,3.227,0,0,0,3.24-3.24,3.252,3.252,0,0,0-3.24-3.27A3.258,3.258,0,0,0,55.29-22.92Zm3.27,2.19a2.183,2.183,0,0,1-2.19-2.19,2.19,2.19,0,0,1,2.19-2.22,2.184,2.184,0,0,1,2.16,2.22A2.176,2.176,0,0,1,58.56-20.73ZM35.64-18.12H53.43C51.69-9.36,46.65-3.96,38.22-.87a16.5,16.5,0,0,1,1.89,2.49c9.21-3.54,14.34-9.18,16.92-20.4a1.328,1.328,0,0,0,.45-.36l-2.73-1.98-.21.12H35.64Zm49.59-5.22H68.13v2.76h17.1Zm.57,7.41-.36.24H65.19v2.79H84.18C82.53-6.81,77.49-2.64,69.66-.72a12.237,12.237,0,0,1,1.8,2.4c9-2.52,13.8-6.93,16.38-16.05a.977.977,0,0,0,.51-.39Zm9.54-3.87a41.088,41.088,0,0,1,8.7,4.14l1.56-2.7a37.052,37.052,0,0,0-8.85-3.99Zm3,21.09a.96.96,0,0,0,.48-.72c10.05-3.45,17.31-9.87,21.03-18.06a19.994,19.994,0,0,1-2.76-1.74c-3.54,8.28-10.56,14.22-20.91,17.4Z" transform="translate(1586 7313.5)" fill="#2086c4"/>
    <g id="グループ_1587" data-name="グループ 1587" transform="translate(0 2865)">
      <path id="パス_2986" data-name="パス 2986" d="M8.316-47.439,5.355-24.507a35.7,35.7,0,0,1,5.733-.378c8.442,0,12.6,3.843,12.6,9.954C23.688-8.757,18.9-5.1,13.545-5.1A19.675,19.675,0,0,1,4.347-7.5L2.709-1.953A22.533,22.533,0,0,0,13.8.693c10.332,0,17.325-7.119,17.325-16.254,0-9.7-7.434-14.742-16.065-14.742-1.323,0-2.2.126-3.15.189l1.575-11.277H30.114v-6.048Zm35.406,0L40.761-24.507a35.7,35.7,0,0,1,5.733-.378c8.442,0,12.6,3.843,12.6,9.954,0,6.174-4.788,9.828-10.143,9.828a19.675,19.675,0,0,1-9.2-2.394L38.115-1.953A22.533,22.533,0,0,0,49.2.693c10.332,0,17.325-7.119,17.325-16.254,0-9.7-7.434-14.742-16.065-14.742-1.323,0-2.205.126-3.15.189l1.575-11.277H65.52v-6.048ZM76.23-9.072A103.22,103.22,0,0,1,71.757,8.82l5.04-.5c2.394-3.969,5.544-11.781,7.371-18.081ZM103.887.693c9.765,0,15.561-8.757,15.561-24.822,0-14.364-5.04-24.066-15.057-24.066-9.828,0-15.687,9.072-15.687,24.57C88.7-9.072,94,.693,103.887.693Zm.126-5.859c-5.04,0-7.938-6.93-7.938-18.711,0-11.844,3.276-18.522,8.064-18.522,5.544,0,7.938,7.245,7.938,18.522C112.077-14.049,110.187-5.166,104.013-5.166ZM139.293.693c9.765,0,15.561-8.757,15.561-24.822,0-14.364-5.04-24.066-15.057-24.066-9.828,0-15.687,9.072-15.687,24.57C124.11-9.072,129.4.693,139.293.693Zm.126-5.859c-5.04,0-7.938-6.93-7.938-18.711,0-11.844,3.276-18.522,8.064-18.522,5.544,0,7.938,7.245,7.938,18.522C147.483-14.049,145.593-5.166,139.419-5.166ZM174.7.693c9.765,0,15.561-8.757,15.561-24.822,0-14.364-5.04-24.066-15.057-24.066-9.828,0-15.687,9.072-15.687,24.57C159.516-9.072,164.808.693,174.7.693Zm.126-5.859c-5.04,0-7.938-6.93-7.938-18.711,0-11.844,3.276-18.522,8.064-18.522,5.544,0,7.938,7.245,7.938,18.522C182.889-14.049,181-5.166,174.825-5.166ZM196.035-32.8V3.738h3.99V-13.188h27.384V-1.3c0,1.092-.084,1.092-3.528,1.092-1.134,0-2.478-.042-3.864-.084a13.114,13.114,0,0,1,1.47,3.99c7.854,0,9.954-.42,9.954-4.956V-32.8Zm15.456,3.948v11.718H200.025V-28.854Zm3.948,0h11.97v11.718h-11.97Z" transform="translate(797 4549)" fill="#343434"/>
      <path id="パス_2996" data-name="パス 2996" d="M12.662-18.98H10.114L.338,0H2.886ZM33.462-1.3V-20.462H19.89v9.7a11.077,11.077,0,0,1-4.836,9.646l2.574,2.132c2.99-2.288,4.134-4.316,4.992-8.008h7.826V-2.7c0,.572-.208.78-.962.78A11.212,11.212,0,0,1,27.43-2.08L28.7,1.326C31.356,1.326,33.462,1.144,33.462-1.3ZM30.446-15.028H23.062v-2.7h7.384Zm0,5.3H22.958a26.726,26.726,0,0,0,.1-2.7h7.384Z" transform="translate(1033 4552)" fill="#343434"/>
    </g>
    <g id="グループ_1588" data-name="グループ 1588" transform="translate(324 2865)">
      <path id="パス_2993" data-name="パス 2993" d="M8.316-47.439,5.355-24.507a35.7,35.7,0,0,1,5.733-.378c8.442,0,12.6,3.843,12.6,9.954C23.688-8.757,18.9-5.1,13.545-5.1A19.675,19.675,0,0,1,4.347-7.5L2.709-1.953A22.533,22.533,0,0,0,13.8.693c10.332,0,17.325-7.119,17.325-16.254,0-9.7-7.434-14.742-16.065-14.742-1.323,0-2.2.126-3.15.189l1.575-11.277H30.114v-6.048ZM52.92.693c9.765,0,15.561-8.757,15.561-24.822,0-14.364-5.04-24.066-15.057-24.066-9.828,0-15.687,9.072-15.687,24.57C37.737-9.072,43.029.693,52.92.693Zm.126-5.859c-5.04,0-7.938-6.93-7.938-18.711,0-11.844,3.276-18.522,8.064-18.522,5.544,0,7.938,7.245,7.938,18.522C61.11-14.049,59.22-5.166,53.046-5.166ZM76.23-9.072A103.22,103.22,0,0,1,71.757,8.82l5.04-.5c2.394-3.969,5.544-11.781,7.371-18.081ZM103.887.693c9.765,0,15.561-8.757,15.561-24.822,0-14.364-5.04-24.066-15.057-24.066-9.828,0-15.687,9.072-15.687,24.57C88.7-9.072,94,.693,103.887.693Zm.126-5.859c-5.04,0-7.938-6.93-7.938-18.711,0-11.844,3.276-18.522,8.064-18.522,5.544,0,7.938,7.245,7.938,18.522C112.077-14.049,110.187-5.166,104.013-5.166ZM139.293.693c9.765,0,15.561-8.757,15.561-24.822,0-14.364-5.04-24.066-15.057-24.066-9.828,0-15.687,9.072-15.687,24.57C124.11-9.072,129.4.693,139.293.693Zm.126-5.859c-5.04,0-7.938-6.93-7.938-18.711,0-11.844,3.276-18.522,8.064-18.522,5.544,0,7.938,7.245,7.938,18.522C147.483-14.049,145.593-5.166,139.419-5.166ZM174.7.693c9.765,0,15.561-8.757,15.561-24.822,0-14.364-5.04-24.066-15.057-24.066-9.828,0-15.687,9.072-15.687,24.57C159.516-9.072,164.808.693,174.7.693Zm.126-5.859c-5.04,0-7.938-6.93-7.938-18.711,0-11.844,3.276-18.522,8.064-18.522,5.544,0,7.938,7.245,7.938,18.522C182.889-14.049,181-5.166,174.825-5.166ZM196.035-32.8V3.738h3.99V-13.188h27.384V-1.3c0,1.092-.084,1.092-3.528,1.092-1.134,0-2.478-.042-3.864-.084a13.114,13.114,0,0,1,1.47,3.99c7.854,0,9.954-.42,9.954-4.956V-32.8Zm15.456,3.948v11.718H200.025V-28.854Zm3.948,0h11.97v11.718h-11.97Z" transform="translate(797 4549)" fill="#343434"/>
      <path id="パス_2994" data-name="パス 2994" d="M12.662-18.98H10.114L.338,0H2.886ZM33.462-1.3V-20.462H19.89v9.7a11.077,11.077,0,0,1-4.836,9.646l2.574,2.132c2.99-2.288,4.134-4.316,4.992-8.008h7.826V-2.7c0,.572-.208.78-.962.78A11.212,11.212,0,0,1,27.43-2.08L28.7,1.326C31.356,1.326,33.462,1.144,33.462-1.3ZM30.446-15.028H23.062v-2.7h7.384Zm0,5.3H22.958a26.726,26.726,0,0,0,.1-2.7h7.384Z" transform="translate(1033 4552)" fill="#343434"/>
    </g>
    <g id="グループ_1589" data-name="グループ 1589" transform="translate(655 2865)">
      <path id="パス_2990" data-name="パス 2990" d="M28.1-12.537H34.02v-5.544H28.1V-47.439H19.971L1.386-17.262v4.725H21.231V0H28.1ZM8.253-18.207,17.325-32.7c1.323-2.52,2.52-4.851,3.969-7.875h.252c-.189,2.709-.315,5.544-.315,8.253v14.238H8.253ZM43.722-47.439,40.761-24.507a35.7,35.7,0,0,1,5.733-.378c8.442,0,12.6,3.843,12.6,9.954,0,6.174-4.788,9.828-10.143,9.828a19.675,19.675,0,0,1-9.2-2.394L38.115-1.953A22.533,22.533,0,0,0,49.2.693c10.332,0,17.325-7.119,17.325-16.254,0-9.7-7.434-14.742-16.065-14.742-1.323,0-2.205.126-3.15.189l1.575-11.277H65.52v-6.048ZM76.23-9.072A103.22,103.22,0,0,1,71.757,8.82l5.04-.5c2.394-3.969,5.544-11.781,7.371-18.081ZM103.887.693c9.765,0,15.561-8.757,15.561-24.822,0-14.364-5.04-24.066-15.057-24.066-9.828,0-15.687,9.072-15.687,24.57C88.7-9.072,94,.693,103.887.693Zm.126-5.859c-5.04,0-7.938-6.93-7.938-18.711,0-11.844,3.276-18.522,8.064-18.522,5.544,0,7.938,7.245,7.938,18.522C112.077-14.049,110.187-5.166,104.013-5.166ZM139.293.693c9.765,0,15.561-8.757,15.561-24.822,0-14.364-5.04-24.066-15.057-24.066-9.828,0-15.687,9.072-15.687,24.57C124.11-9.072,129.4.693,139.293.693Zm.126-5.859c-5.04,0-7.938-6.93-7.938-18.711,0-11.844,3.276-18.522,8.064-18.522,5.544,0,7.938,7.245,7.938,18.522C147.483-14.049,145.593-5.166,139.419-5.166ZM174.7.693c9.765,0,15.561-8.757,15.561-24.822,0-14.364-5.04-24.066-15.057-24.066-9.828,0-15.687,9.072-15.687,24.57C159.516-9.072,164.808.693,174.7.693Zm.126-5.859c-5.04,0-7.938-6.93-7.938-18.711,0-11.844,3.276-18.522,8.064-18.522,5.544,0,7.938,7.245,7.938,18.522C182.889-14.049,181-5.166,174.825-5.166ZM196.035-32.8V3.738h3.99V-13.188h27.384V-1.3c0,1.092-.084,1.092-3.528,1.092-1.134,0-2.478-.042-3.864-.084a13.114,13.114,0,0,1,1.47,3.99c7.854,0,9.954-.42,9.954-4.956V-32.8Zm15.456,3.948v11.718H200.025V-28.854Zm3.948,0h11.97v11.718h-11.97Z" transform="translate(797 4549)" fill="#343434"/>
      <path id="パス_2991" data-name="パス 2991" d="M12.662-18.98H10.114L.338,0H2.886ZM33.462-1.3V-20.462H19.89v9.7a11.077,11.077,0,0,1-4.836,9.646l2.574,2.132c2.99-2.288,4.134-4.316,4.992-8.008h7.826V-2.7c0,.572-.208.78-.962.78A11.212,11.212,0,0,1,27.43-2.08L28.7,1.326C31.356,1.326,33.462,1.144,33.462-1.3ZM30.446-15.028H23.062v-2.7h7.384Zm0,5.3H22.958a26.726,26.726,0,0,0,.1-2.7h7.384Z" transform="translate(1033 4552)" fill="#343434"/>
    </g>
    <g id="グループ_1776" data-name="グループ 1776" transform="translate(-40.5 397.5)">
      <g id="グループ_1585" data-name="グループ 1585" transform="translate(2591 -346)">
        <path id="パス_2983" data-name="パス 2983" d="M32.526,1.287c18.135,0,28.9-16.263,28.9-46.1,0-26.676-9.36-44.694-27.963-44.694C15.21-89.5,4.329-72.657,4.329-43.875,4.329-16.848,14.157,1.287,32.526,1.287ZM32.76-9.594c-9.36,0-14.742-12.87-14.742-34.749,0-22,6.084-34.4,14.976-34.4,10.3,0,14.742,13.455,14.742,34.4C47.736-26.091,44.226-9.594,32.76-9.594Z" transform="translate(-2059 7431)" fill="#2086c4"/>
        <path id="パス_2984" data-name="パス 2984" d="M3.2-30.459V3.471H6.9V-12.246H32.331V-1.209c0,1.014-.078,1.014-3.276,1.014-1.053,0-2.3-.039-3.588-.078a12.177,12.177,0,0,1,1.365,3.7c7.293,0,9.243-.39,9.243-4.6V-30.459ZM17.55-26.793v10.881H6.9V-26.793Zm3.666,0H32.331v10.881H21.216Z" transform="translate(-1992 7429)" fill="#2086c4"/>
        <line id="線_18" data-name="線 18" x1="5.769" y2="11.538" transform="translate(-1998.95 7330.961)" fill="none" stroke="#2086c4" stroke-linecap="round" stroke-width="8"/>
        <line id="線_19" data-name="線 19" x1="10.489" y2="5.245" transform="translate(-1991.083 7347.219)" fill="none" stroke="#2086c4" stroke-linecap="round" stroke-width="8"/>
        <line id="線_20" data-name="線 20" x1="11.538" transform="translate(-1988.985 7365.575)" fill="none" stroke="#2086c4" stroke-linecap="round" stroke-width="8"/>
      </g>
      <path id="パス_2980" data-name="パス 2980" d="M20.72-32.93H53.058v-6.29A121.083,121.083,0,0,0,67.636-28.786,37.716,37.716,0,0,1,72.3-34.854C61.05-40.626,47.878-51.578,40.774-61.42a1.936,1.936,0,0,0,1.7-1.332L33-63.344C27.38-53.576,14.726-41.218,1.924-33.892A32.955,32.955,0,0,1,6.29-28.416,110.481,110.481,0,0,0,20.72-38.924Zm.592-6.512A91.6,91.6,0,0,0,36.7-56.092c3.774,5.328,9.62,11.248,16.058,16.65ZM10.878-24.494v6.66H51.5C48.47-11.1,44.252-2.146,40.552,4.81l7.474,2c4.662-9.4,10.286-21.386,13.394-28.416a4.713,4.713,0,0,0,.74-1.332l-4.81-1.776-1.48.222ZM119.14-27.75c0,2.886.222,7.1.518,11.248a30.769,30.769,0,0,0-7.03-.962c-7.1,0-14.652,4-14.726,11.47S104.414,5.328,112.48,5.4c12.8,0,14.43-8.14,14.43-12.21A68.926,68.926,0,0,1,138.454.222l3.552-6.808a85.255,85.255,0,0,0-15.1-7.992c-.37-4.662-.666-8.806-.74-13.986ZM120.1-7.178c0,4.588-3.33,6.438-7.474,6.438-4.958,0-8.362-1.85-8.362-5.254,0-3.7,4.218-5.4,8.214-5.4a21.054,21.054,0,0,1,7.622,1.48ZM96.718-61.494c-.444,4.07-1.036,8.214-1.776,11.84-1.924.074-4.218.074-6.512.074H79.92v6.734h8.658c1.628,0,3.552,0,5.106-.074A96.263,96.263,0,0,1,79.4-9.842l7.252,2.664c6.734-10.582,11.4-22.052,14.874-35.89A150.125,150.125,0,0,0,123.8-46.4l-.962-7.03a91.147,91.147,0,0,1-19.98,3.478c.592-2.516,1.332-6.216,1.776-9.1a2.382,2.382,0,0,0,2.22-1.48ZM140.9-41.958a112.27,112.27,0,0,0-26.64,3.774l1.11,6.438A117.091,117.091,0,0,1,141.266-35Zm29.23-12.506c9.028,1.184,20.794,3.4,28.342,6.512l2.442-7.178c-7.474-2.96-19.166-5.106-28.564-6.142Zm-7.03,7.03c-.148,13.986-2.812,27.824-4.366,29.156l6.956,3.108c2.442-4.588,14.652-11.544,26.2-11.544,7.622,0,12.062,3.922,11.988,10.064C203.8-6.956,194.1-3.108,168.942-2a52.766,52.766,0,0,1,2.664,6.734c29.082-1.11,40.034-7.622,40.182-21.534.074-10.656-7.474-16.576-18.426-16.576A49.368,49.368,0,0,0,167.61-25.16h-.074c1.184-1.7,2.294-9.25,3.034-19.832a2.11,2.11,0,0,0,1.924-1.258Z" transform="translate(183 6947)" fill="#343434"/>
      <path id="パス_2981" data-name="パス 2981" d="M-147.622-35.076a76.8,76.8,0,0,1-5.624,8.066c-.888-.888-1.7-1.628-2.368-2.22a81.947,81.947,0,0,0,9.176-16.65,1.54,1.54,0,0,0,1.11-.888l-4.662-2.812-1.11.37h-5.18V-60.976c1.184-.222,1.628-.666,1.7-1.258l-8.584-.518V-49.21H-173.6v6.364h18.722c-4.81,9.694-12.95,19.388-20.794,24.864a26.279,26.279,0,0,1,3.774,6.29,73.148,73.148,0,0,0,8.732-8.14V6.586h6.882V-22.422c2.812,3.256,5.994,7.178,7.548,9.472l4.218-5.328c-.888-.962-3.108-3.182-5.476-5.55a75.216,75.216,0,0,0,5.92-6.586,2.049,2.049,0,0,0,.666.074,1.242,1.242,0,0,0,1.036-.444Zm1.184-21.312v6.66h11.914c-.444,19.388-1.7,40.034-17.686,50.986a20.534,20.534,0,0,1,5.328,5.4c17.464-12.8,18.8-36.186,19.388-56.388H-114.1c-.666,32.56-1.48,44.918-3.7,47.434a2.725,2.725,0,0,1-2.59,1.332c-1.85,0-5.7,0-10.064-.37a17.445,17.445,0,0,1,2.22,7.252c2.072.074,4.07.148,5.994.148,6.956,0,8.88-1.11,10.952-4.144,2.812-3.848,3.626-16.65,4.44-55.648,0-.814.074-1.924.074-2.442l-3.922-.222Zm77.4,38.7V-47.138h5.328V-53.28h-5.328v-6.956c1.11-.148,1.554-.592,1.628-1.184l-8.14-.518v8.658H-87.312v-6.956c1.11-.222,1.628-.592,1.7-1.184l-8.066-.518v8.658h-6.142v6.142h6.142v29.452h-7.03v6.142h37.37v-6.142Zm-6.512-18.13v6.068H-87.312v-6.068Zm0-5.476H-87.312v-5.846h11.766Zm0,17.02v6.586H-87.312v-6.586ZM-60.524-59.2v27.232c0,9.62-.518,21.608-5.624,31.006a82.833,82.833,0,0,0-7.326-9.62l-5.4,2.96c2.96,3.552,6.438,8.362,7.844,11.4L-67.924,2l-.592.814a25.093,25.093,0,0,1,5.476,4.07C-57.786,0-55.492-9.472-54.53-18.574H-40.4v17.02C-40.4,0-40.766,0-44.244,0c-1.7,0-3.922,0-6.068-.148A26.1,26.1,0,0,1-48.24,6.586c11.988.148,14.652-1.184,14.652-8.14V-59.2ZM-40.4-42.106H-53.864v-10.73H-40.4Zm-13.468,6.29H-40.4v10.878H-54.012c.074-2.442.148-4.81.148-7.03ZM-90.79-10.36a39.362,39.362,0,0,1-9.768,12.95,35.092,35.092,0,0,1,5.254,4A50.383,50.383,0,0,0-84.8-7.1c.962.074,1.48-.148,1.7-.666ZM33.16-4.736v-25.53a11.512,11.512,0,0,1,1.48-.074c4.736-.444,5.476-2.59,6.142-9.99l.222-1.7-3.774-.444-1.48.148H19.692V-45.88H36.12V-58.312H19.692V-61.05c1.11-.222,1.628-.592,1.7-1.184l-8.362-.518v4.44H2.82v-2.812c1.11-.148,1.628-.518,1.7-1.11l-8.066-.518v4.44H-22.192v4.366H-3.544v3.7H-18.27a107.7,107.7,0,0,1-4.514,12.8l6.438.37.37-.888H-7.54C-10.648-35.224-16.124-33-25.6-31.45a21.747,21.747,0,0,1,3.33,5.4A56.577,56.577,0,0,0-16.05-27.38V-4.736Zm-42.4-20.276V-28.86h35.3v3.848Zm28.934-8.14v-4.81H33.9c-.444,3.33-.888,3.33-3.33,3.33-.962,0-2.368-.074-4-.222a9.056,9.056,0,0,1,.74,1.7Zm-6.66,0H-3.174a17.087,17.087,0,0,0,4-4.81h12.21ZM2.3-42.328a25.865,25.865,0,0,0,.444-3.552H13.032v3.552Zm10.73-11.618v3.7H2.82v-3.7ZM-9.242-17.02v-3.922h35.3v3.922Zm0,8.066v-4h35.3v4ZM29.682-50.246h-9.99v-3.7h9.99Zm-33.3,4.366a13.821,13.821,0,0,1-.814,3.552h-9.916l1.258-3.552Zm0,41.218C-8.946-2.072-17.974.444-25.448,1.85a40.816,40.816,0,0,1,4.662,4.81A135.982,135.982,0,0,0,1.71-.666c1.036,0,1.406,0,1.85-.444ZM41.67,3.108a236.189,236.189,0,0,0-22.792-7.77L13.254-1.036a156.4,156.4,0,0,1,20.72,7.7ZM55.73-57.646V-30.71c0,10.582-.74,23.9-8.954,33.078A22.066,22.066,0,0,1,52.252,7.03C57.8.888,60.466-7.622,61.724-15.91H78.892V5.624h6.882V-15.91h18.574V-2.368c0,1.85-.222,1.85-5.106,1.85-2.22,0-5.18,0-8.066-.148a26.624,26.624,0,0,1,2.368,6.808c14.5.148,17.834-.74,17.834-8.436V-57.646ZM78.892-40.034H62.686V-50.912H78.892Zm6.882,0V-50.912h18.574v10.878ZM62.686-33.448H78.892V-22.57H62.39c.222-2.812.3-5.55.3-8.066Zm23.088,0h18.574V-22.57H85.774Zm87.282-9.008a36.59,36.59,0,0,0-7.366-8.062l-2.784,2.03a33.6,33.6,0,0,1,7.192,8.062Zm-8.99,2.32a33.852,33.852,0,0,0-7.366-8l-2.726,1.972a33.732,33.732,0,0,1,7.134,8.12ZM136.574-47.27c-.58,4.988-1.392,10.092-2.2,14.326l-11.136,1.218.464,5.684,9.57-1.334A99.865,99.865,0,0,1,122.48.174l5.336,2.552c5.278-9.338,8.526-19.546,11.31-30.74a47.316,47.316,0,0,1,6.264-.464c4.93-.058,6.9,3.306,6.96,9.454a45.845,45.845,0,0,1-1.508,10.672c-1.044,3.48-2.668,5.51-5.452,5.51-1.682,0-4.06-.7-8.352-3.886a23.176,23.176,0,0,1-2.03,4.93c4.872,3.828,8.178,4.93,10.5,4.93,5.162,0,8.99-3.19,10.788-9.686a47.877,47.877,0,0,0,1.74-12.238c0-8.874-2.958-15.138-12.18-15.08-1.334,0-3.538.174-5.626.406.7-3.422,1.624-8.7,2.262-11.716,1.044-.058,1.74-.348,1.914-1.16ZM174.68-16.588a38.82,38.82,0,0,0-11.89-20.358l-4.756,3.074c4.814,4.176,8.99,11.542,10.614,19.372Z" transform="translate(590 6948.5)" fill="#2086c4"/>
      <path id="パス_2982" data-name="パス 2982" d="M7.392-42.168,4.76-21.784a31.735,31.735,0,0,1,5.1-.336c7.5,0,11.2,3.416,11.2,8.848,0,5.488-4.256,8.736-9.016,8.736A17.489,17.489,0,0,1,3.864-6.664L2.408-1.736A20.029,20.029,0,0,0,12.264.616c9.184,0,15.4-6.328,15.4-14.448,0-8.624-6.608-13.1-14.28-13.1-1.176,0-1.96.112-2.8.168l1.4-10.024H26.768v-5.376ZM48.216.616c8.68,0,13.832-7.784,13.832-22.064,0-12.768-4.48-21.392-13.384-21.392C39.928-42.84,34.72-34.776,34.72-21,34.72-8.064,39.424.616,48.216.616Zm.112-5.208c-4.48,0-7.056-6.16-7.056-16.632,0-10.528,2.912-16.464,7.168-16.464,4.928,0,7.056,6.44,7.056,16.464C55.5-12.488,53.816-4.592,48.328-4.592ZM70.112-8.064a91.751,91.751,0,0,1-3.976,15.9l4.48-.448A80.19,80.19,0,0,0,77.168-8.68ZM95.872.616c8.68,0,13.832-7.784,13.832-22.064,0-12.768-4.48-21.392-13.384-21.392-8.736,0-13.944,8.064-13.944,21.84C82.376-8.064,87.08.616,95.872.616Zm.112-5.208c-4.48,0-7.056-6.16-7.056-16.632,0-10.528,2.912-16.464,7.168-16.464,4.928,0,7.056,6.44,7.056,16.464C103.152-12.488,101.472-4.592,95.984-4.592ZM128.52.616c8.68,0,13.832-7.784,13.832-22.064,0-12.768-4.48-21.392-13.384-21.392-8.736,0-13.944,8.064-13.944,21.84C115.024-8.064,119.728.616,128.52.616Zm.112-5.208c-4.48,0-7.056-6.16-7.056-16.632,0-10.528,2.912-16.464,7.168-16.464,4.928,0,7.056,6.44,7.056,16.464C135.8-12.488,134.12-4.592,128.632-4.592ZM161.168.616C169.848.616,175-7.168,175-21.448c0-12.768-4.48-21.392-13.384-21.392-8.736,0-13.944,8.064-13.944,21.84C147.672-8.064,152.376.616,161.168.616Zm.112-5.208c-4.48,0-7.056-6.16-7.056-16.632,0-10.528,2.912-16.464,7.168-16.464,4.928,0,7.056,6.44,7.056,16.464C168.448-12.488,166.768-4.592,161.28-4.592Zm20.166-25.867V3.471h3.705V-12.246h25.428V-1.209c0,1.014-.078,1.014-3.276,1.014-1.053,0-2.3-.039-3.588-.078a12.177,12.177,0,0,1,1.365,3.7c7.293,0,9.243-.39,9.243-4.6V-30.459ZM195.8-26.793v10.881H185.151V-26.793Zm3.666,0h11.115v10.881H199.464Z" transform="translate(189 7079)" fill="#2086c4"/>
      <path id="パス_2985" data-name="パス 2985" d="M-25.826-58.534c-2.146,12.506-3.626,26.122-3.626,35.964,0,9.916.888,18.87,3.33,25.974L-18.8,2.22A9.4,9.4,0,0,1-19.166-.3a12.246,12.246,0,0,1,.592-3.478c1.036-3.4,3.478-7.548,6.216-13.838l-3.774-5.106c-.962,2.516-4,9.472-5.18,12.358a83.415,83.415,0,0,1-.666-12.506A179.568,179.568,0,0,1-18.13-55.722c1.48-.074,2.22-.518,2.368-1.332ZM-3.848-41.81a257.34,257.34,0,0,0,32.264-2.664l-.74-7.252A248.915,248.915,0,0,1-4.07-48.914ZM30.192-9.768a91.158,91.158,0,0,1-10.138.518c-8.51,0-17.76-.444-17.76-7.326,0-3.922,2.368-7.474,5.92-11.026L1.258-30.118c-4,4.884-6.66,9.324-6.66,14.5,0,6.142,4.218,11.4,13.912,12.728a98.877,98.877,0,0,0,13.394.74c2.738,0,5.476-.074,8.066-.222Z" transform="translate(711 7079)" fill="#2086c4"/>
      <path id="Icon_awesome-long-arrow-alt-right" data-name="Icon awesome-long-arrow-alt-right" d="M48.352,21.056H1.848A1.848,1.848,0,0,0,0,22.9v8.625a1.848,1.848,0,0,0,1.848,1.848h46.5v7.094a3.7,3.7,0,0,0,6.31,2.614L67.917,29.83a3.7,3.7,0,0,0,0-5.228L54.663,11.348a3.7,3.7,0,0,0-6.31,2.614Z" transform="translate(435 7023.783)"/>
      <line id="線_39" data-name="線 39" x2="239" transform="translate(174.5 7060.5)" fill="none" stroke="red" stroke-width="3"/>
    </g>
    <path id="パス_2997" data-name="パス 2997" d="M7.67-9.051A1.159,1.159,0,0,0,8.821-10.2,1.159,1.159,0,0,0,7.67-11.352,1.159,1.159,0,0,0,6.52-10.2,1.159,1.159,0,0,0,7.67-9.051ZM2.163-10.891,7.225-5.829,2.148-.752l.445.445L7.67-5.384,12.732-.322l.445-.445L8.115-5.829l5.062-5.062-.445-.445L7.67-6.274,2.608-11.336ZM4.449-5.829A1.159,1.159,0,0,0,3.3-6.98,1.159,1.159,0,0,0,2.148-5.829,1.159,1.159,0,0,0,3.3-4.679,1.159,1.159,0,0,0,4.449-5.829Zm6.443,0a1.159,1.159,0,0,0,1.151,1.15,1.159,1.159,0,0,0,1.15-1.15,1.159,1.159,0,0,0-1.15-1.151A1.159,1.159,0,0,0,10.891-5.829ZM7.67-2.608A1.159,1.159,0,0,0,6.52-1.457,1.159,1.159,0,0,0,7.67-.307a1.159,1.159,0,0,0,1.151-1.15A1.159,1.159,0,0,0,7.67-2.608ZM20.2,0V-11.551H18.7l-2.608,1.4.4,1.3,1.948-1.074h.031V0Z" transform="translate(1045 7388)" fill="#202020"/>
    <path id="パス_2995" data-name="パス 2995" d="M7.67-9.051A1.159,1.159,0,0,0,8.821-10.2,1.159,1.159,0,0,0,7.67-11.352,1.159,1.159,0,0,0,6.52-10.2,1.159,1.159,0,0,0,7.67-9.051ZM2.163-10.891,7.225-5.829,2.148-.752l.445.445L7.67-5.384,12.732-.322l.445-.445L8.115-5.829l5.062-5.062-.445-.445L7.67-6.274,2.608-11.336ZM4.449-5.829A1.159,1.159,0,0,0,3.3-6.98,1.159,1.159,0,0,0,2.148-5.829,1.159,1.159,0,0,0,3.3-4.679,1.159,1.159,0,0,0,4.449-5.829Zm6.443,0a1.159,1.159,0,0,0,1.151,1.15,1.159,1.159,0,0,0,1.15-1.15,1.159,1.159,0,0,0-1.15-1.151A1.159,1.159,0,0,0,10.891-5.829ZM7.67-2.608A1.159,1.159,0,0,0,6.52-1.457,1.159,1.159,0,0,0,7.67-.307a1.159,1.159,0,0,0,1.151-1.15A1.159,1.159,0,0,0,7.67-2.608ZM20.2,0V-11.551H18.7l-2.608,1.4.4,1.3,1.948-1.074h.031V0Z" transform="translate(1369 7388)" fill="#202020"/>
    <path id="パス_2992" data-name="パス 2992" d="M7.67-9.051A1.159,1.159,0,0,0,8.821-10.2,1.159,1.159,0,0,0,7.67-11.352,1.159,1.159,0,0,0,6.52-10.2,1.159,1.159,0,0,0,7.67-9.051ZM2.163-10.891,7.225-5.829,2.148-.752l.445.445L7.67-5.384,12.732-.322l.445-.445L8.115-5.829l5.062-5.062-.445-.445L7.67-6.274,2.608-11.336ZM4.449-5.829A1.159,1.159,0,0,0,3.3-6.98,1.159,1.159,0,0,0,2.148-5.829,1.159,1.159,0,0,0,3.3-4.679,1.159,1.159,0,0,0,4.449-5.829Zm6.443,0a1.159,1.159,0,0,0,1.151,1.15,1.159,1.159,0,0,0,1.15-1.15,1.159,1.159,0,0,0-1.15-1.151A1.159,1.159,0,0,0,10.891-5.829ZM7.67-2.608A1.159,1.159,0,0,0,6.52-1.457,1.159,1.159,0,0,0,7.67-.307a1.159,1.159,0,0,0,1.151-1.15A1.159,1.159,0,0,0,7.67-2.608ZM20.2,0V-11.551H18.7l-2.608,1.4.4,1.3,1.948-1.074h.031V0Z" transform="translate(1695 7388)" fill="#202020"/>
    <path id="パス_2998" data-name="パス 2998" d="M11.01,0V-22.59H8.07l-5.1,2.73.78,2.55,3.81-2.1h.06V0ZM25.2.33c4.65,0,7.41-4.17,7.41-11.82,0-6.84-2.4-11.46-7.17-11.46-4.68,0-7.47,4.32-7.47,11.7C17.97-4.32,20.49.33,25.2.33Zm.06-2.79c-2.4,0-3.78-3.3-3.78-8.91,0-5.64,1.56-8.82,3.84-8.82,2.64,0,3.78,3.45,3.78,8.82C29.1-6.69,28.2-2.46,25.26-2.46ZM36.3-4.32A49.153,49.153,0,0,1,34.17,4.2l2.4-.24a42.959,42.959,0,0,0,3.51-8.61ZM49.47.33c4.65,0,7.41-4.17,7.41-11.82,0-6.84-2.4-11.46-7.17-11.46-4.68,0-7.47,4.32-7.47,11.7C42.24-4.32,44.76.33,49.47.33Zm.06-2.79c-2.4,0-3.78-3.3-3.78-8.91,0-5.64,1.56-8.82,3.84-8.82,2.64,0,3.78,3.45,3.78,8.82C53.37-6.69,52.47-2.46,49.53-2.46ZM66.33.33c4.65,0,7.41-4.17,7.41-11.82,0-6.84-2.4-11.46-7.17-11.46-4.68,0-7.47,4.32-7.47,11.7C59.1-4.32,61.62.33,66.33.33Zm.06-2.79c-2.4,0-3.78-3.3-3.78-8.91,0-5.64,1.56-8.82,3.84-8.82,2.64,0,3.78,3.45,3.78,8.82C70.23-6.69,69.33-2.46,66.39-2.46ZM83.19.33c4.65,0,7.41-4.17,7.41-11.82,0-6.84-2.4-11.46-7.17-11.46-4.68,0-7.47,4.32-7.47,11.7C75.96-4.32,78.48.33,83.19.33Zm.06-2.79c-2.4,0-3.78-3.3-3.78-8.91,0-5.64,1.56-8.82,3.84-8.82,2.64,0,3.78,3.45,3.78,8.82C87.09-6.69,86.19-2.46,83.25-2.46Zm30.69-20.28a3.29,3.29,0,0,0,3.3,3.3,3.29,3.29,0,0,0,3.3-3.3,3.316,3.316,0,0,0-3.3-3.33A3.316,3.316,0,0,0,113.94-22.74Zm3.3,2.25a2.266,2.266,0,0,1-2.25-2.25,2.247,2.247,0,0,1,2.25-2.25,2.247,2.247,0,0,1,2.25,2.25A2.266,2.266,0,0,1,117.24-20.49Zm.75,5.1v-2.85h-9.78v-5.22a.8.8,0,0,0,.81-.66l-3.84-.18v6.06H95.37v2.85h9.81V-2.22c0,1.14-.63,1.14-2.46,1.14-.87,0-1.98-.03-2.88-.06a15.145,15.145,0,0,1,.84,2.76c4.47.06,7.53.09,7.53-3.9V-15.39Zm-6.84,4.44a51.174,51.174,0,0,1,5.79,8.79l2.7-1.56a56.617,56.617,0,0,0-6.06-8.49ZM99-11.97a20.487,20.487,0,0,1-5.19,8.22L96.3-2.19a25.446,25.446,0,0,0,5.43-8.76Zm46.5-12.48c-4.71,5.37-13.68,11.67-21.69,15.3a13.291,13.291,0,0,1,1.8,2.31,88.8,88.8,0,0,0,10.65-6.15V1.74h3.15V-14.1a.819.819,0,0,0,.72-.51c-.18-.06-.54-.21-.81-.33a74.175,74.175,0,0,0,8.28-6.99,1.125,1.125,0,0,0,.3.03.9.9,0,0,0,.66-.27Zm9.69,4.65a41.087,41.087,0,0,1,8.7,4.14l1.56-2.7a37.052,37.052,0,0,0-8.85-3.99Zm3,21.09a.96.96,0,0,0,.48-.72c10.05-3.45,17.31-9.87,21.03-18.06a20,20,0,0,1-2.76-1.74c-3.54,8.28-10.56,14.22-20.91,17.4Zm48.63-12.33a105.162,105.162,0,0,0-11.01-4.86l-.6.84v-8.58c.57-.12.84-.36.87-.69l-4.02-.24V1.68h3.15V-12.84a89.063,89.063,0,0,1,9.93,4.71Z" transform="translate(819 7493)" fill="#2086c4"/>
    <path id="パス_2999" data-name="パス 2999" d="M11.01,0V-22.59H8.07l-5.1,2.73.78,2.55,3.81-2.1h.06V0ZM25.2.33c4.65,0,7.41-4.17,7.41-11.82,0-6.84-2.4-11.46-7.17-11.46-4.68,0-7.47,4.32-7.47,11.7C17.97-4.32,20.49.33,25.2.33Zm.06-2.79c-2.4,0-3.78-3.3-3.78-8.91,0-5.64,1.56-8.82,3.84-8.82,2.64,0,3.78,3.45,3.78,8.82C29.1-6.69,28.2-2.46,25.26-2.46ZM36.3-4.32A49.153,49.153,0,0,1,34.17,4.2l2.4-.24a42.959,42.959,0,0,0,3.51-8.61ZM49.47.33c4.65,0,7.41-4.17,7.41-11.82,0-6.84-2.4-11.46-7.17-11.46-4.68,0-7.47,4.32-7.47,11.7C42.24-4.32,44.76.33,49.47.33Zm.06-2.79c-2.4,0-3.78-3.3-3.78-8.91,0-5.64,1.56-8.82,3.84-8.82,2.64,0,3.78,3.45,3.78,8.82C53.37-6.69,52.47-2.46,49.53-2.46ZM66.33.33c4.65,0,7.41-4.17,7.41-11.82,0-6.84-2.4-11.46-7.17-11.46-4.68,0-7.47,4.32-7.47,11.7C59.1-4.32,61.62.33,66.33.33Zm.06-2.79c-2.4,0-3.78-3.3-3.78-8.91,0-5.64,1.56-8.82,3.84-8.82,2.64,0,3.78,3.45,3.78,8.82C70.23-6.69,69.33-2.46,66.39-2.46ZM83.19.33c4.65,0,7.41-4.17,7.41-11.82,0-6.84-2.4-11.46-7.17-11.46-4.68,0-7.47,4.32-7.47,11.7C75.96-4.32,78.48.33,83.19.33Zm.06-2.79c-2.4,0-3.78-3.3-3.78-8.91,0-5.64,1.56-8.82,3.84-8.82,2.64,0,3.78,3.45,3.78,8.82C87.09-6.69,86.19-2.46,83.25-2.46Zm30.69-20.28a3.29,3.29,0,0,0,3.3,3.3,3.29,3.29,0,0,0,3.3-3.3,3.316,3.316,0,0,0-3.3-3.33A3.316,3.316,0,0,0,113.94-22.74Zm3.3,2.25a2.266,2.266,0,0,1-2.25-2.25,2.247,2.247,0,0,1,2.25-2.25,2.247,2.247,0,0,1,2.25,2.25A2.266,2.266,0,0,1,117.24-20.49Zm.75,5.1v-2.85h-9.78v-5.22a.8.8,0,0,0,.81-.66l-3.84-.18v6.06H95.37v2.85h9.81V-2.22c0,1.14-.63,1.14-2.46,1.14-.87,0-1.98-.03-2.88-.06a15.145,15.145,0,0,1,.84,2.76c4.47.06,7.53.09,7.53-3.9V-15.39Zm-6.84,4.44a51.174,51.174,0,0,1,5.79,8.79l2.7-1.56a56.617,56.617,0,0,0-6.06-8.49ZM99-11.97a20.487,20.487,0,0,1-5.19,8.22L96.3-2.19a25.446,25.446,0,0,0,5.43-8.76Zm46.5-12.48c-4.71,5.37-13.68,11.67-21.69,15.3a13.291,13.291,0,0,1,1.8,2.31,88.8,88.8,0,0,0,10.65-6.15V1.74h3.15V-14.1a.819.819,0,0,0,.72-.51c-.18-.06-.54-.21-.81-.33a74.175,74.175,0,0,0,8.28-6.99,1.125,1.125,0,0,0,.3.03.9.9,0,0,0,.66-.27Zm9.69,4.65a41.087,41.087,0,0,1,8.7,4.14l1.56-2.7a37.052,37.052,0,0,0-8.85-3.99Zm3,21.09a.96.96,0,0,0,.48-.72c10.05-3.45,17.31-9.87,21.03-18.06a20,20,0,0,1-2.76-1.74c-3.54,8.28-10.56,14.22-20.91,17.4Zm48.63-12.33a105.162,105.162,0,0,0-11.01-4.86l-.6.84v-8.58c.57-.12.84-.36.87-.69l-4.02-.24V1.68h3.15V-12.84a89.063,89.063,0,0,1,9.93,4.71Z" transform="translate(1155 7493)" fill="#2086c4"/>
    <path id="パス_3000" data-name="パス 3000" d="M11.01,0V-22.59H8.07l-5.1,2.73.78,2.55,3.81-2.1h.06V0ZM25.2.33c4.65,0,7.41-4.17,7.41-11.82,0-6.84-2.4-11.46-7.17-11.46-4.68,0-7.47,4.32-7.47,11.7C17.97-4.32,20.49.33,25.2.33Zm.06-2.79c-2.4,0-3.78-3.3-3.78-8.91,0-5.64,1.56-8.82,3.84-8.82,2.64,0,3.78,3.45,3.78,8.82C29.1-6.69,28.2-2.46,25.26-2.46ZM36.3-4.32A49.153,49.153,0,0,1,34.17,4.2l2.4-.24a42.959,42.959,0,0,0,3.51-8.61ZM49.47.33c4.65,0,7.41-4.17,7.41-11.82,0-6.84-2.4-11.46-7.17-11.46-4.68,0-7.47,4.32-7.47,11.7C42.24-4.32,44.76.33,49.47.33Zm.06-2.79c-2.4,0-3.78-3.3-3.78-8.91,0-5.64,1.56-8.82,3.84-8.82,2.64,0,3.78,3.45,3.78,8.82C53.37-6.69,52.47-2.46,49.53-2.46ZM66.33.33c4.65,0,7.41-4.17,7.41-11.82,0-6.84-2.4-11.46-7.17-11.46-4.68,0-7.47,4.32-7.47,11.7C59.1-4.32,61.62.33,66.33.33Zm.06-2.79c-2.4,0-3.78-3.3-3.78-8.91,0-5.64,1.56-8.82,3.84-8.82,2.64,0,3.78,3.45,3.78,8.82C70.23-6.69,69.33-2.46,66.39-2.46ZM83.19.33c4.65,0,7.41-4.17,7.41-11.82,0-6.84-2.4-11.46-7.17-11.46-4.68,0-7.47,4.32-7.47,11.7C75.96-4.32,78.48.33,83.19.33Zm.06-2.79c-2.4,0-3.78-3.3-3.78-8.91,0-5.64,1.56-8.82,3.84-8.82,2.64,0,3.78,3.45,3.78,8.82C87.09-6.69,86.19-2.46,83.25-2.46Zm30.69-20.28a3.29,3.29,0,0,0,3.3,3.3,3.29,3.29,0,0,0,3.3-3.3,3.316,3.316,0,0,0-3.3-3.33A3.316,3.316,0,0,0,113.94-22.74Zm3.3,2.25a2.266,2.266,0,0,1-2.25-2.25,2.247,2.247,0,0,1,2.25-2.25,2.247,2.247,0,0,1,2.25,2.25A2.266,2.266,0,0,1,117.24-20.49Zm.75,5.1v-2.85h-9.78v-5.22a.8.8,0,0,0,.81-.66l-3.84-.18v6.06H95.37v2.85h9.81V-2.22c0,1.14-.63,1.14-2.46,1.14-.87,0-1.98-.03-2.88-.06a15.145,15.145,0,0,1,.84,2.76c4.47.06,7.53.09,7.53-3.9V-15.39Zm-6.84,4.44a51.174,51.174,0,0,1,5.79,8.79l2.7-1.56a56.617,56.617,0,0,0-6.06-8.49ZM99-11.97a20.487,20.487,0,0,1-5.19,8.22L96.3-2.19a25.446,25.446,0,0,0,5.43-8.76Zm46.5-12.48c-4.71,5.37-13.68,11.67-21.69,15.3a13.291,13.291,0,0,1,1.8,2.31,88.8,88.8,0,0,0,10.65-6.15V1.74h3.15V-14.1a.819.819,0,0,0,.72-.51c-.18-.06-.54-.21-.81-.33a74.175,74.175,0,0,0,8.28-6.99,1.125,1.125,0,0,0,.3.03.9.9,0,0,0,.66-.27Zm9.69,4.65a41.087,41.087,0,0,1,8.7,4.14l1.56-2.7a37.052,37.052,0,0,0-8.85-3.99Zm3,21.09a.96.96,0,0,0,.48-.72c10.05-3.45,17.31-9.87,21.03-18.06a20,20,0,0,1-2.76-1.74c-3.54,8.28-10.56,14.22-20.91,17.4Zm48.63-12.33a105.162,105.162,0,0,0-11.01-4.86l-.6.84v-8.58c.57-.12.84-.36.87-.69l-4.02-.24V1.68h3.15V-12.84a89.063,89.063,0,0,1,9.93,4.71Z" transform="translate(1475 7493)" fill="#2086c4"/>
    <g id="グループ_1775" data-name="グループ 1775" transform="translate(1433.673 8050.379) rotate(180)">
      <path id="パス_2628" data-name="パス 2628" d="M473.364,275.985c-128.163,0-232.435,45.105-232.435,100.557,0,16.885,9.863,33.586,28.527,48.295a4.756,4.756,0,0,0,3.51.444c1.233-.3,1.685-.974,1-1.515-18.246-14.386-27.895-30.716-27.895-47.224,0-54.222,101.954-98.332,227.29-98.332s227.29,44.11,227.29,98.332S598.7,474.87,473.364,474.87c-36.08,0-70.583-3.566-102.57-10.588-5.309-1.163-14.383-3.385-23.161-5.643L375.092,454c1.332-.231,1.981-.875,1.463-1.444a4.2,4.2,0,0,0-3.329-.633L342.069,457.2c-6.032-1.582-11.473-3.072-14.818-4.11a5.112,5.112,0,0,0-3.592.27c-.822.5-.534,1.195.608,1.554,2.794.85,7.035,2.023,11.81,3.3l-14.7,2.489L251.4,476.147l52.345-36.213c.764-.519.386-1.209-.822-1.532a4.989,4.989,0,0,0-3.551.356l-57.26,39.616c-.616.423-.51.978.279,1.34a4.661,4.661,0,0,0,1.9.363,5.723,5.723,0,0,0,1.167-.121l78.037-17.227,18.081-3.065c9.9,2.581,20.826,5.28,26.9,6.606,32.7,7.186,68.01,10.83,104.888,10.83,128.172,0,232.444-45.113,232.444-100.557S601.536,275.985,473.364,275.985Z" transform="translate(0 0)" fill="#1a1311"/>
    </g>
    <line id="線_40" data-name="線 40" x2="937" transform="translate(785.5 7441.5)" fill="none" stroke="#707070" stroke-width="3" stroke-dasharray="3"/>
    <line id="線_41" data-name="線 41" y1="258.195" transform="translate(1093 7244.305)" fill="none" stroke="#707070" stroke-width="3" stroke-dasharray="3"/>
    <line id="線_42" data-name="線 42" y1="268.195" transform="translate(1423 7234.305)" fill="none" stroke="#707070" stroke-width="3" stroke-dasharray="3"/>
    <path id="パス_3001" data-name="パス 3001" d="M33.345-34.11a4.936,4.936,0,0,0,4.95,4.95,4.936,4.936,0,0,0,4.95-4.95A4.974,4.974,0,0,0,38.3-39.1,4.974,4.974,0,0,0,33.345-34.11Zm4.95,3.375A3.4,3.4,0,0,1,34.92-34.11,3.37,3.37,0,0,1,38.3-37.485,3.37,3.37,0,0,1,41.67-34.11,3.4,3.4,0,0,1,38.3-30.735Zm1.125,7.65V-27.36H24.75v-7.83a1.192,1.192,0,0,0,1.215-.99l-5.76-.27v9.09H5.49v4.275H20.2V-3.33c0,1.71-.945,1.71-3.69,1.71-1.305,0-2.97-.045-4.32-.09a22.718,22.718,0,0,1,1.26,4.14c6.7.09,11.3.135,11.3-5.85V-23.085Zm-10.26,6.66A76.761,76.761,0,0,1,37.845-3.24L41.9-5.58a84.925,84.925,0,0,0-9.09-12.735Zm-18.225-1.53A30.73,30.73,0,0,1,3.15-5.625l3.735,2.34a38.168,38.168,0,0,0,8.145-13.14Zm69.75-18.72c-7.065,8.055-20.52,17.5-32.535,22.95a19.936,19.936,0,0,1,2.7,3.465,133.2,133.2,0,0,0,15.975-9.225V2.61H71.55V-21.15a1.229,1.229,0,0,0,1.08-.765c-.27-.09-.81-.315-1.215-.5A111.26,111.26,0,0,0,83.835-32.9a1.688,1.688,0,0,0,.45.045,1.346,1.346,0,0,0,.99-.4ZM95.22-29.7a61.631,61.631,0,0,1,13.05,6.21l2.34-4.05a55.578,55.578,0,0,0-13.275-5.985Zm4.5,31.635a1.44,1.44,0,0,0,.72-1.08c15.075-5.175,25.965-14.8,31.545-27.09a29.991,29.991,0,0,1-4.14-2.61c-5.31,12.42-15.84,21.33-31.365,26.1ZM172.665-16.56a157.743,157.743,0,0,0-16.515-7.29l-.9,1.26V-35.46c.855-.18,1.26-.54,1.3-1.035l-6.03-.36V2.52h4.725V-19.26a133.593,133.593,0,0,1,14.9,7.065Zm14.94.72a1.256,1.256,0,0,0,.9-.81c.765-.27,1.89-.675,2.835-1.035,6.3-2.16,11.475-3.195,14.625-3.195,4.32,0,7.875,2.16,7.875,7.2,0,6.885-8.19,9.765-18.945,10.485A24.926,24.926,0,0,1,196.155.72c12.6-.99,22.14-4.635,22.14-14.715,0-7.47-5.625-10.71-11.79-10.71-3.735,0-9.945,1.215-16.11,3.06-1.8.5-3.33.9-4.275,1.08Zm40.59-11.2a1.725,1.725,0,0,0,1.08-.72c4.9-.5,17.01-1.53,21.96-1.8-7.425,4.905-13.05,12.33-13.05,18.225,0,7.875,4.86,13.005,17.685,14.67l2.16-4.455c-10.485-1.26-14.94-4.59-14.94-10.26,0-5.445,6.3-12.15,12.1-15.84,3.465-2.34,5.85-2.61,9.54-2.475l-.045-4.77c-6.75.18-27.81,1.575-32.4,1.935-1.26.09-3.2.135-4.545.135ZM275.04.5a3.285,3.285,0,0,0,3.375-3.555,3.314,3.314,0,0,0-3.33-3.6,3.4,3.4,0,0,0-3.375,3.6A3.3,3.3,0,0,0,275.04.5Zm11.025,0A3.285,3.285,0,0,0,289.44-3.06a3.314,3.314,0,0,0-3.33-3.6,3.4,3.4,0,0,0-3.375,3.6A3.3,3.3,0,0,0,286.065.5ZM297.09.5a3.285,3.285,0,0,0,3.375-3.555,3.314,3.314,0,0,0-3.33-3.6,3.4,3.4,0,0,0-3.375,3.6A3.3,3.3,0,0,0,297.09.5ZM325.935-10.17a13.018,13.018,0,0,1-.18-1.98c0-2.3,1.08-4.23,3.51-6.39,3.15-2.655,5.715-5.175,5.715-8.82,0-3.825-3.15-7.605-11.2-7.605a21.849,21.849,0,0,0-9.45,2.16l1.53,3.69a15.741,15.741,0,0,1,7.2-1.71c4.5,0,6.57,1.755,6.57,4.1,0,2.3-1.71,3.96-4.545,6.525-2.88,2.7-4.05,5.085-4.05,7.6,0,.405.18,2.115.225,2.43ZM323.64.45a3.3,3.3,0,0,0,3.42-3.51,3.3,3.3,0,0,0-3.33-3.555,3.335,3.335,0,0,0-3.375,3.645A3.279,3.279,0,0,0,323.64.45Z" transform="translate(785 7688)"/>
  </g>
</svg>
