<?xml version="1.0" encoding="utf-8"?>
<!-- Generator: Adobe Illustrator 25.4.1, SVG Export Plug-In . SVG Version: 6.00 Build 0)  -->
<svg version="1.1" id="レイヤー_1" xmlns="http://www.w3.org/2000/svg" xmlns:xlink="http://www.w3.org/1999/xlink" x="0px"
	 y="0px" viewBox="0 0 182.8 153.2" style="enable-background:new 0 0 182.8 153.2;" xml:space="preserve">
<style type="text/css">
	.st0{fill:#1A62A3;stroke:#FFFFFF;stroke-width:1.4236;}
	.st1{fill:#FFFFFF;}
	.st2{fill:#1A62A3;}
</style>
<g transform="translate(0.75 0)">
	<g transform="translate(0 33.716)">
		<g transform="translate(22.879)">
			<path class="st0" d="M102.1,7H29.2c-6.6,0-12,5.4-12,12v11.3h10.5v-9.1c0-2.5,2-4.6,4.6-4.6c0,0,0,0,0,0h66.9
				c2.5,0,4.6,2,4.6,4.5c0,0,0,0,0,0v43c0,2.5-2,4.6-4.6,4.6c0,0,0,0,0,0H67.9v15c0,0-0.1,20-0.1,20.1c-0.1,2-0.7,4-1.7,5.8h21.7
				c2.5,0,4.6-2,4.6-4.6v-5.8c0-2.5-2-4.6-4.6-4.6c0,0,0,0,0,0H76.6v-8.1h25.4c6.6,0,12-5.4,12-12.1V19.1
				C114.1,12.4,108.7,7,102.1,7C102.1,7,102.1,7,102.1,7L102.1,7z M96.2,80.8c-2.1,0-3.8-1.7-3.8-3.7c0-2.1,1.7-3.8,3.7-3.8
				c2.1,0,3.8,1.7,3.8,3.7c0,0,0,0,0,0C99.9,79.1,98.2,80.8,96.2,80.8z"/>
		</g>
		<path class="st0" d="M79.5,36.5H36.4c-3.6,0-6.6,3-6.6,6.6v9.2h9v-5.5h38.2V92H55.8v7.3c0.6-0.5,1.3-0.7,2.1-0.7
			c2.1,0,3.8,1.7,3.8,3.8c0,2.1-1.7,3.8-3.8,3.8c-0.8,0-1.5-0.3-2.1-0.7v1.1c0,1.2-0.2,2.4-0.7,3.6h24.4c3.6,0,6.6-3,6.6-6.6V43.1
			C86.1,39.5,83.1,36.5,79.5,36.5L79.5,36.5z"/>
		<path class="st0" d="M47,57.8H22.4c-2.3,0-4.1,1.8-4.1,4.1v43.9c0,2.3,1.8,4.1,4.1,4.1c0,0,0,0,0,0H47c2.3,0,4.1-1.8,4.1-4.1
			c0,0,0,0,0,0V61.9C51.1,59.6,49.3,57.8,47,57.8C47,57.8,47,57.8,47,57.8L47,57.8z M34.7,107.6c-1.7,0-3.2-1.4-3.2-3.2
			s1.4-3.2,3.2-3.2c1.7,0,3.2,1.4,3.2,3.1C37.9,106.1,36.5,107.6,34.7,107.6z M44.5,94.8H25V66h19.5L44.5,94.8z"/>
	</g>
	<path class="st1" d="M118.9,8.7h24.4c10,0,18,8.1,18,18v19.4c0,10-8.1,18-18,18h-24.4c-10,0-18-8.1-18-18V26.8
		C100.9,16.8,109,8.7,118.9,8.7z"/>
	<g transform="translate(94.313 3.959)">
		<path class="st2" d="M51.2,53.3c-0.3-0.2-0.5-0.4-0.7-0.7c-0.1-0.1-0.2-0.3-0.2-0.4H17.3V19.8H62V41c0.9,0.1,1.7,0.7,2.1,1.6
			c0.3-0.2,0.6-0.3,1-0.3c0.2,0,0.5,0,0.7,0V11.7c0-1.7-1.4-3.1-3.1-3.1h-46c-1.7,0-3.1,1.4-3.1,3.1v41.2c0,1.7,1.4,3.1,3.1,3.1
			h34.3c-0.3-0.5-0.3-1.2-0.2-1.7C50.8,53.9,51,53.6,51.2,53.3L51.2,53.3z M58.5,13.8c0-0.6,0.5-1.2,1.2-1.2c0,0,0,0,0,0h1.2
			c0.6,0,1.2,0.5,1.2,1.2v1.3c0,0.6-0.5,1.2-1.2,1.2h-1.2c-0.6,0-1.2-0.5-1.2-1.2c0,0,0,0,0,0V13.8z M53.1,13.8
			c0-0.6,0.5-1.2,1.2-1.2c0,0,0,0,0,0h1.2c0.6,0,1.2,0.5,1.2,1.2c0,0,0,0,0,0v1.3c0,0.6-0.5,1.2-1.1,1.2c0,0,0,0,0,0h-1.2
			c-0.6,0-1.2-0.5-1.2-1.2c0,0,0,0,0,0L53.1,13.8z M47.7,13.8c0-0.6,0.5-1.2,1.1-1.2c0,0,0,0,0,0h1.2c0.6,0,1.2,0.5,1.2,1.2v1.3
			c0,0.6-0.5,1.2-1.2,1.2h-1.2c-0.6,0-1.2-0.5-1.2-1.2c0,0,0,0,0,0V13.8z"/>
		<path class="st2" d="M69.4,51.1l-0.4-2c0-0.3-0.3-0.4-0.5-0.4c0,0,0,0,0,0l-1.8,0.3c-0.2-0.5-0.5-1-0.8-1.4l1.1-1.4
			c0.2-0.2,0.1-0.5-0.1-0.7l-1.5-1.3c-0.1-0.1-0.2-0.1-0.4-0.1c-0.1,0-0.2,0.1-0.3,0.2l-1.2,1.4c-0.5-0.2-1-0.4-1.5-0.6v-1.8
			c0-0.3-0.2-0.5-0.5-0.5h-2c-0.3,0-0.5,0.2-0.5,0.5v1.8c-0.5,0.1-1,0.3-1.5,0.6l-1.2-1.4c-0.2-0.2-0.5-0.2-0.7-0.1c0,0,0,0,0,0
			l-1.5,1.3c-0.1,0.1-0.2,0.2-0.2,0.3c0,0.1,0,0.3,0.1,0.4l1.2,1.4c-0.3,0.4-0.6,0.9-0.8,1.4l-1.8-0.3c-0.3-0.1-0.5,0.1-0.6,0.4
			c0,0,0,0,0,0l-0.3,2c0,0.1,0,0.3,0.1,0.4c0.1,0.1,0.2,0.2,0.3,0.2l1.8,0.3c0,0.5,0.1,1.1,0.3,1.6l-1.5,0.9
			c-0.1,0.1-0.2,0.2-0.2,0.3c0,0.1,0,0.3,0,0.4l1,1.7c0.1,0.1,0.2,0.2,0.3,0.2c0,0,0.1,0,0.1,0c0.1,0,0.2,0,0.2-0.1l1.5-0.9
			c0.4,0.4,0.8,0.7,1.2,1l-0.6,1.7c0,0.1,0,0.3,0,0.4c0.1,0.1,0.2,0.2,0.3,0.3l1.9,0.7c0.1,0,0.1,0,0.2,0c0.1,0,0.2,0,0.2,0
			c0.1-0.1,0.2-0.2,0.2-0.3l0.6-1.7c0.3,0,0.5,0.1,0.8,0.1c0.3,0,0.5,0,0.8-0.1l0.6,1.7c0.1,0.1,0.1,0.2,0.3,0.3c0.1,0,0.1,0,0.2,0
			c0.1,0,0.1,0,0.2,0l1.9-0.7c0.1,0,0.2-0.1,0.3-0.3c0.1-0.1,0.1-0.3,0-0.4l-0.6-1.7c0.4-0.3,0.8-0.6,1.2-1l1.5,0.9
			c0.1,0.1,0.2,0.1,0.4,0.1c0.1,0,0.2-0.1,0.3-0.2l1-1.7c0.1-0.1,0.1-0.2,0.1-0.4c0-0.1-0.1-0.2-0.2-0.3L67,53.6
			c0.2-0.5,0.3-1,0.3-1.6l1.8-0.3c0.1,0,0.2-0.1,0.3-0.2C69.4,51.4,69.4,51.3,69.4,51.1L69.4,51.1z M60.7,54.3
			c-1.5,0-2.7-1.2-2.7-2.7c0-1.5,1.2-2.7,2.7-2.7c1.5,0,2.7,1.2,2.7,2.7C63.4,53.1,62.2,54.3,60.7,54.3
			C60.7,54.3,60.7,54.3,60.7,54.3z"/>
		<path class="st2" d="M35.4,37.8c0-0.6-0.4-1.2-1-1.5l-5.3-2.4l5.3-2.4c0.6-0.3,0.9-0.8,1-1.5v0c0-0.9-0.7-1.6-1.6-1.6c0,0,0,0,0,0
			c-0.2,0-0.5,0-0.7,0.2l-8.4,3.9c-0.6,0.3-0.9,0.8-0.9,1.5v0.1c0,0.6,0.4,1.2,0.9,1.5l8.4,3.9c0.2,0.1,0.4,0.2,0.7,0.2
			c0.3,0,0.6-0.1,0.9-0.3C35.1,38.9,35.4,38.4,35.4,37.8L35.4,37.8z"/>
		<path class="st2" d="M43.7,24.3c-0.3-0.4-0.8-0.7-1.3-0.7h0c-0.7,0-1.3,0.5-1.6,1.1l-5.5,17.2c-0.3,0.9,0.2,1.8,1.1,2.1
			c0.2,0,0.3,0.1,0.5,0.1h0c0.7,0,1.3-0.5,1.6-1.1L44,25.7C44.1,25.2,44,24.7,43.7,24.3L43.7,24.3z"/>
		<path class="st2" d="M54.5,32.3l-8.4-3.9c-0.2-0.1-0.5-0.2-0.7-0.2c-0.9,0-1.6,0.7-1.6,1.6c0,0,0,0,0,0.1v0c0,0.6,0.4,1.2,0.9,1.5
			l5.3,2.4l-5.3,2.4c-0.6,0.3-0.9,0.8-0.9,1.5v0c0,0.9,0.7,1.6,1.6,1.6c0,0,0,0,0,0c0.2,0,0.5-0.1,0.7-0.2l8.4-3.9
			c0.6-0.3,0.9-0.8,0.9-1.5v-0.1C55.5,33.1,55.1,32.6,54.5,32.3L54.5,32.3z"/>
	</g>
</g>
</svg>
