<?xml version="1.0" encoding="utf-8"?>
<!-- Generator: Adobe Illustrator 25.4.1, SVG Export Plug-In . SVG Version: 6.00 Build 0)  -->
<svg version="1.1" id="レイヤー_1" xmlns="http://www.w3.org/2000/svg" xmlns:xlink="http://www.w3.org/1999/xlink" x="0px"
	 y="0px" viewBox="0 0 643.5 1131.8" style="enable-background:new 0 0 643.5 1131.8;" xml:space="preserve">
<style type="text/css">
	.st0{fill:#4AD160;}
	.st1{fill:#FFFFFF;}
	.st2{fill:#3B3938;}
	.st3{fill:#3D7A95;}
	.st4{fill:#FFE848;}
	.st5{fill:#6AAFFF;}
	.st6{enable-background:new    ;}
	.st7{fill:none;}
	.st8{fill:none;stroke:#4AD160;stroke-width:5;}
	.st9{opacity:0.29;fill:#4AD160;enable-background:new    ;}
	.st10{fill:#4AD160;stroke:#4AD160;stroke-width:2;}
	.st11{opacity:0.41;fill:#C6CDD1;enable-background:new    ;}
	.st12{fill:#BAC2C7;}
	.st13{stroke:#000000;stroke-width:2;}
</style>
<g id="グループ_1757" transform="translate(-300 -1951.287)">
	<g id="グループ_1704" transform="translate(1019.065 2265.222)">
		<path id="楕円形_173" class="st0" d="M-558.5,601c71.1,1.2,71.1,107,0,108.2C-629.6,708-629.6,602.2-558.5,601z"/>
		<path id="パス_2320" class="st1" d="M-551.1,572c-1.9-2.3-6-3.9-11.5-3.7c0.4,1.5,0.6,3,0.4,4.6c1.6-0.3-23.4-1.1-13.3,4.9
			c-1.6,0.7-9.5,3.4-10.3,5.3c0.9,0.3,1.8,0.8,2.5,1.4c0,0-8.9,6-9.8,9.6c1.1-0.3,3-0.6,4.2,0c-1.8,1.4-7.1,11.7-7,14.9
			c1.1-0.5,2.4-0.6,3.6-0.4c-1.3,1.8-2.9,8.4-2.4,11c0.5-0.1,2.8-0.6,2.8-0.6s0.2,9.5,2,12.5c-1.9,6,0.7,13.6,6.7,16.2
			c0.7,2.8,3.2,13.7,5.9,16.9c0,1.8,0,9.4,0,9.4c-22.2,17.2-50.8,11.1-48,48.8h133.2c0.1-6.1-0.1-22.8-7.1-28.2
			c-10-6.1-25.1-12.5-34.8-16.8c-0.9-0.2-5.4-2.5-5.7-3.8s-0.3-9.9-0.3-9.9c1.9-2.3,5.5-13,6-16.9c6-2.2,8.3-10,7-16
			c0,0,1.5-4.6,1.8-6.1s0.3-6.6,0.3-6.6l2,0.7c0-2-1.2-12-1.9-14.1c1,0.4,2,0.6,3,0.8c0,0-2.6-10.6-3.1-11.5
			c-0.3-0.8,1.9-0.5,1.9-0.5c-1.1-2.1-6.1-11.5-9.7-13.3c1.1-0.4,2.2-0.8,3.4-1.1c-0.9-1.2-7.3-5.2-12.5-3.9
			c-0.7-2.1-3.2-7.8-6.5-8.1C-547.8,568.3-550.9,571.8-551.1,572z"/>
		<g id="グループ_1698" transform="translate(3.544 3.195)">
			<path id="楕円形_174" class="st2" d="M-576,628.7c2.6,0,2.6,4,0,4C-578.6,632.7-578.6,628.7-576,628.7z"/>
			<path id="楕円形_175" class="st2" d="M-548.2,628.7c2.6,0,2.6,4,0,4C-550.8,632.7-550.8,628.7-548.2,628.7z"/>
			<path id="パス_2321" class="st3" d="M-605.4,686.9c5-2.2,20.1-8.5,20.1-8.5c1.2,12.1,4.2,32.1,7.2,41.2h-48
				C-626.1,703.6-622.9,692.3-605.4,686.9z"/>
			<path id="パス_2322" class="st3" d="M-518.8,686.9c-5-2.2-20.1-8.5-20.1-8.5c-1.2,12.1-4.2,32.1-7.2,41.2h48
				C-498.1,703.6-501.3,692.3-518.8,686.9z"/>
			<path id="パス_2323" class="st4" d="M-565.3,686c7.8-0.1,6.2-2.8,8.4,4.6c0,0-0.5,8.6-0.5,8.6c1.5,3.1,2.3,17.4,2.7,20.3h-12
				l2-19.9c0,0-1.1-3.1-1.5-3.6s-0.3-7.7-0.3-7.7L-565.3,686z"/>
			<path id="パス_2324" class="st3" d="M-530.7,600.4c1,0,2.1,0.1,3.1,0.3c0,0-2.5-9.4-3.9-11.2c0.7,0.1,1.4,0.1,2.1,0
				c0,0-5.7-9.7-10.2-11.4c0.8-1,1.7-1.9,2.6-2.7c-2.2-1.7-7.4-1.8-10.9-1.4c0.1-2.7-0.6-5.7-3.4-7.1c-0.3,1.7-1.7,3.6-2.9,4.9
				c-2.4-2.2-5.4-3.7-8.7-4.3c0.8,2,1.4,4,1.8,6.1c-3.5-1.8-12.5-3-16.6-1.6c1.8,1,3.3,2.2,4.7,3.6c-3.4,0.9-6.6,2.3-9.6,4.1
				c0.9,0.1,1.6,0.5,2.3,1.1c-2.8,0.6-7.7,3.6-9.2,5.9c0.9,0.3,1.9,0.7,2.8,1.1c-4,4.7-8,9.6-9.8,15.6c0.9-0.1,1.7-0.1,2.6,0
				c-0.9,2-3.1,9.2-2.6,12.5h1.1c0,1.5,0.6,11.1,2,12.8l3.5-1.3c-1.2-9.4,3.7-15.9,10-21.3l-0.2,4.7c2-1.1,11.5-8.1,13.4-10
				l-1.3,9.1c4.6-2.4,11.1-10.3,15.3-15c0.7,4.2,7.3,11.6,9.2,13.9l1-5.8c5.1,10,11.5,10.9,8.4,24.7
				C-524.8,631.6-529.9,605.4-530.7,600.4z"/>
		</g>
		<g id="グループ_1703" transform="translate(0 0)">
			<path id="パス_2325" class="st2" d="M-572.5,636.7c-7-1.4,1.3-9.7,2.7-2.7C-569.7,635.4-571,636.7-572.5,636.7z M-572.5,632.7
				c-3.1,0.6,0.6,4.3,1.2,1.2C-571.3,633.3-571.8,632.7-572.5,632.7z"/>
			<path id="パス_2326" class="st2" d="M-576.8,632.4c-2.4-1.7,2.6-4.6,4.5-4.3c1.8-0.2,5.8,2.1,4.2,4c-1.4,0.2-1.7-2.8-4.2-2.5
				C-574.5,629.3-575.5,631.5-576.8,632.4z"/>
			<path id="パス_2327" class="st2" d="M-544.7,636.7c-3.5,0.1-3.5-5.5,0-5.4C-541.3,631.3-541,636.7-544.7,636.7z M-544.7,632.7
				c-3.1,0.6,0.6,4.3,1.2,1.2C-543.4,633.3-544,632.7-544.7,632.7z"/>
			<path id="パス_2328" class="st2" d="M-540.3,632.4c-2-2.3-5.9-4.5-7.7-0.5c-0.5,1-1.9,0-1.3-0.8
				C-546.5,624.6-536.6,631-540.3,632.4z"/>
			<path id="パス_2329" class="st2" d="M-558.7,650.6c-1.4,0-4.6-1.2-3.5-2.9c1.3-0.3,2.2,1.6,3.7,1.3c0.9-0.2,1.3,1.3,0.3,1.5
				C-558.3,650.5-558.6,650.6-558.7,650.6z"/>
			<path id="パス_2330" class="st2" d="M-558.8,659.9c-3.3,0.8-12.9-3.3-7.9-3.6c7.1,6,21.4-3,18.4,1
				C-551.5,659-555.1,659.9-558.8,659.9z"/>
			<path id="パス_2331" class="st2" d="M-556.8,664.5c-1.4-0.1-5.2-0.4-4.6-2.3c1.4-0.9,3.4,1.3,5.2,0.7
				C-554.7,663.1-555.7,664.8-556.8,664.5z"/>
			<path id="パス_2332" class="st2" d="M-537.8,619.3c-3.7-3.2-9.1-3.4-12.9-0.9c-0.4,0.2-0.8,0.1-1-0.3
				C-549.7,612.1-533.6,616.7-537.8,619.3L-537.8,619.3z"/>
			<path id="パス_2333" class="st2" d="M-579.7,619.5c-3.7-3.7,15.2-6.5,13.7-0.9c-0.3,0.3-0.8,0.2-1.1-0.1
				C-570.7,615.3-576.1,617.3-579.7,619.5z"/>
			<g id="グループ_1699" transform="translate(34.668 62.826)">
				<path id="パス_2334" class="st2" d="M-566,584.1c-0.7,0.1-1.1-1-0.5-1.4c1.5-1.1,3.5-3.2,4.4-8.4c0.7-4.2-0.9-7.5-3.7-5.2
					c-0.3,0.3-0.8,0.2-1.1-0.1c-0.7-2,3-2.6,4.3-1.9C-557.3,569.9-562.5,583.7-566,584.1z"/>
				<path id="パス_2335" class="st2" d="M-590.7,612c-0.9,0-1.1-1.4-0.1-1.6c4.3-0.6,10.5-4.4,15.8-9.7c3.5-3.5,5.7-15.9,6.2-21
					c0.1-0.4,0.4-0.7,0.9-0.7C-565.5,594.2-577.1,609.2-590.7,612z"/>
				<path id="パス_2336" class="st2" d="M-620.5,584.1c-5.1-0.5-9.8-22.1,0.8-16.2c0.8,0.7-0.2,1.8-1,1.2
					c-2.9-2.3-4.4,1.1-3.7,5.4C-624.1,580.2-617.7,583.7-620.5,584.1L-620.5,584.1z"/>
				<path id="パス_2337" class="st2" d="M-595.7,612c-15.5-3.7-22.3-15.5-23.4-32.1c0-1,1.4-1,1.5-0.1l0,0c1.1,16,7.2,27,22,30.7
					C-594.8,610.6-594.8,612-595.7,612L-595.7,612z"/>
			</g>
			<path id="パス_2338" class="st2" d="M-584.7,620.3c-3.5-0.1,12.4-21,8.6-7.5c10.2-4.3,16.4-21.8,12.2-0.9
				c4.1-2.5,11.2-10.5,13.8-14.4c0.2-0.4,0.7-0.4,1.1-0.2c2,1.3-15,19.7-16.5,16c0.2-2.6,0.5-5.2,1-7.8c-2.1,2.1-15.3,15.3-13,5.6
				C-580.6,613.5-582.2,617.6-584.7,620.3z"/>
			<path id="パス_2339" class="st2" d="M-530.5,618.4c-2.9-1.5-6.1-6.9-8.4-10.8c-0.4,1.4,1,6.3-1.2,5.4
				c-1.4-1.1-7.5-8.2-7.7-10.9c0-1,1.4-1,1.5-0.1l0,0c0.1,1.5,3.7,6.3,5.9,8.6c0.1-2.8-0.3-7.3,1.9-5.5c1.9,3.8,5.9,10.2,8.5,12.1
				C-529.4,617.6-529.7,618.5-530.5,618.4L-530.5,618.4z"/>
			<path id="パス_2340" class="st2" d="M-530.6,628c-0.5,0.1-0.8-0.5-0.7-1c0.3-0.8,0.7-1.7,1.2-2.4c-3.5,0.9-0.8-2.6,0.3-3.7
				c-1.1,0.4-3.9,1.2-2.4-0.8c1.1-0.8,6.1-1.4,4.6,0.8c-0.8,0.6-1.5,1.3-2.1,2.1c1-0.4,3.2,0.3,1.8,1.5
				C-529.1,624.9-529.3,627.6-530.6,628z"/>
			<path id="パス_2341" class="st2" d="M-586.6,628.3c-1.3-0.3-0.8-2.6-2-3.3c-1.2-0.8,0.7-2,1.5-1.4c-5.7-6.4,7.2-1.5,1.9-1
				c-0.3-0.2-0.7-0.4-1-0.5c0.7,0.9,2.6,4.1-0.1,3.2C-585.9,626.2-584.9,628.2-586.6,628.3z"/>
			<path id="パス_2342" class="st2" d="M-551.1,572.8c-2.1-2.3-7.9-4.4-11-3.6c-0.4,0.1-0.8-0.2-0.9-0.6
				C-562.7,565.5-547.7,569.7-551.1,572.8z"/>
			<path id="パス_2343" class="st2" d="M-578.5,576.3c-4.8-3.3,16.9-6.3,19.2-3.1c0.9,0.4,0,2-0.9,1.3
				C-563.8,572.2-574,573-578.5,576.3z"/>
			<path id="パス_2344" class="st2" d="M-593.1,594.8c-2.9-1.3,6.4-9.4,8.2-10.4c-7.3-1.1,8.2-7.4,10.2-7.4c4.5,1-8.8,3.9-9.8,5.8
				c1,0,3.3,1.6,1.6,2.3C-585.9,585.6-590.6,591.9-593.1,594.8z"/>
			<path id="パス_2345" class="st2" d="M-594.8,620.3c-2.6-2.2,0.9-10.8,1.2-11.1c-10.8,5.1,7.7-24,6.9-16.5
				c-2.8,2.3-7.9,10.8-8.7,15.3c1-0.2,4.2-1.2,3.7,0.7c-1.4,2.5-2.6,4.6-2.4,10.8C-594,619.9-594.3,620.3-594.8,620.3L-594.8,620.3
				L-594.8,620.3z"/>
			<path id="パス_2346" class="st2" d="M-542.7,574.4c-0.3,0-0.6-0.2-0.7-0.6c-1-3.7-3-4.8-5-5.5
				C-550.8,563.5-539.3,571.3-542.7,574.4L-542.7,574.4z"/>
			<path id="パス_2347" class="st2" d="M-529,579.9c-2.2-2.3-7.4-4.7-10.4-4.1C-544.7,572-525.4,575.9-529,579.9L-529,579.9z"/>
			<path id="パス_2348" class="st2" d="M-521.5,606.6c-0.4,0-0.7-0.3-0.8-0.7c-0.3-4-3.6-11.7-3.7-11.7c-0.4-1.2,1.1-1.1,2.1-1.2
				c-1.5-3.8-5.9-10-9-11.6c-1.1-6.5,16.3,15.3,8.7,13.2C-523.8,596.4-519.3,604.8-521.5,606.6L-521.5,606.6z"/>
			<path id="パス_2349" class="st2" d="M-525.9,628.9c-0.5,0-1-0.6-0.7-1.1c0.7-1.7,0.9-7.1,0.8-9.4c0.1-1.3,1.4-0.5,2.1-0.2
				c0.7-1.8-3.8-16.4-0.4-13.3c-0.2,0.3,4.9,18.3-0.2,14.5C-524.6,622-523.9,627.5-525.9,628.9z"/>
			<path id="パス_2350" class="st2" d="M-591.1,629.1c-1.8,1.1-2.9-15.8,0.1-11.2C-592.5,621-589.4,628.7-591.1,629.1z"/>
			<g id="グループ_1702" transform="translate(0 99.892)">
				<g id="グループ_1700" transform="translate(68.191)">
					<path id="パス_2351" class="st2" d="M-607.8,575.3c-0.4,0-0.7-0.3-0.8-0.7c-0.2-2.6-0.3-7-0.3-7c0.1-1,1.5-1.1,1.6-0.1
						C-607.7,567.1-606.1,575.4-607.8,575.3C-607.7,575.3-607.8,575.3-607.8,575.3z"/>
					<path id="パス_2352" class="st2" d="M-625.3,585.1c-0.9,0-1-1.3-0.1-1.5c3.9-1,12.9-5.2,15.7-8.2c0.3-0.3,0.8-0.3,1.1,0
						C-608.9,579.4-622,583.9-625.3,585.1z"/>
					<path id="パス_2353" class="st2" d="M-617.5,601.1c-1.9-0.6-6.5-12-7.8-14.4c-0.3-0.8,1.1-1.5,1.4-0.5
						c2.5,5.1,5.3,10.8,6.4,12.9c3.4-4.1,10-19,11.9-20.8C-603,579.9-616.1,600.7-617.5,601.1z"/>
					<path id="パス_2354" class="st2" d="M-560.3,623.7c-3.1-32.4-4.6-27.2-29.8-39.2c-6.6-2.8-20.8-8.9-15.1-9.2
						C-583.4,589.8-554.8,585.9-560.3,623.7z"/>
					<path id="パス_2355" class="st2" d="M-610.8,623.7c-0.5,0-1-0.6-0.7-1.1c3-7.4,6.6-32.7,7.3-42.6c0-1,1.7-0.9,1.5,0.1l0,0
						C-603.8,590.3-606.3,616.7-610.8,623.7z"/>
					<path id="パス_2356" class="st2" d="M-601.8,623.7c-0.6,0-1.1-0.8-0.6-1.3c2.4-3.2,6.9-13.9,7.9-16.3
						c-6.3-6.5-7.9-4.7,0-10.7c0.2-0.6-5.9-13.5-4.1-13.5c1.2-1.4,5.3,13.5,5.7,13.7c0.7,0.9-5,4.4-5.3,4.9c0.2,0.5,5.9,5.2,5.3,5.8
						C-593.3,606.7-598.2,620.8-601.8,623.7z"/>
				</g>
				<g id="グループ_1701">
					<path id="パス_2357" class="st2" d="M-577.5,575.3C-577.6,575.3-577.6,575.3-577.5,575.3c-0.5,0-0.8-0.4-0.8-0.8
						c0.2-2.5,0.3-6.9,0.3-6.9c2.4-2.9,1.3,3.9,1.2,7.1C-576.8,575-577.1,575.3-577.5,575.3z"/>
					<path id="パス_2358" class="st2" d="M-560,585.1c-1.5,0.4-21.7-9.1-15.5-9.7c2.8,2.9,11.8,7.2,15.7,8.2
						C-559,583.8-559.2,585.1-560,585.1L-560,585.1z"/>
					<path id="パス_2359" class="st2" d="M-567.8,601.1c-0.4,1.5-17-26.2-11.1-22.2c0.3,2.3,8.5,16.5,11,20.2
						c0,1.4,7.2-17.6,7.8-12.3C-561.4,589.2-566.1,600.4-567.8,601.1L-567.8,601.1z"/>
					<path id="パス_2360" class="st2" d="M-625.3,623.7c-2-32.7,6.4-29,29-40.4c7.5-3.2,14.6-6.3,16-7.9c0.7-0.8,1.9,0.3,1.2,1
						c-5.8,5-34.9,14.8-39.7,20.1C-622.6,599.8-623.6,606.2-625.3,623.7L-625.3,623.7z"/>
					<path id="パス_2361" class="st2" d="M-574.6,623.7c-3.9-7-8.5-34.9-7.4-44.3c2.7,9,4.3,35.8,8.1,43.3
						C-573.6,623.2-574.1,623.8-574.6,623.7L-574.6,623.7z"/>
					<path id="パス_2362" class="st2" d="M-583.5,623.7c-3.5-2.9-8.3-17-8.9-17.4c-0.6-0.6,5.1-5.3,5.3-5.8
						c-0.3-0.6-6.1-4-5.3-4.9c0,0,4.7-13.2,4.7-13.2c0.4-0.9,1.7-0.3,1.5,0.5c0,0-4.5,12.7-4.5,12.7c0.4,0.7,6.6,4.2,5.4,5.3
						c0,0,0,0.1-0.1,0.1l-5.4,5.3c1,2.4,5.5,13.1,7.9,16.3C-582.5,623.1-582.8,623.8-583.5,623.7L-583.5,623.7z"/>
				</g>
			</g>
			<path id="パス_2363" class="st2" d="M-558.5,703.9c-7,1.6-6.2-11.5-3.9-7.4c-0.4,7.4,3.5,6.3,8.4,5.3
				C-550.3,703.2-557.3,704.1-558.5,703.9z"/>
			<path id="パス_2364" class="st2" d="M-554,700.9c-0.5-0.1-0.8-0.5-0.7-0.9c0.4-1-0.5-6.9,1.6-4.1
				C-553.2,697.4-552.4,700.2-554,700.9z"/>
			<path id="パス_2365" class="st2" d="M-557.2,689.6c-1-0.1-4.8,0.4-2.8-1.4c1.1-0.1,3.7-0.7,3.6,1
				C-556.6,689.4-556.9,689.6-557.2,689.6L-557.2,689.6z"/>
			<path id="パス_2366" class="st2" d="M-565.1,723.6c-0.4,0-0.8-0.4-0.8-0.8l0,0c0.2,0,1-23.9,3.5-18.3
				c-0.7,2.8-1.9,15.4-1.9,18.3C-564.4,723.2-564.7,723.6-565.1,723.6z"/>
			<path id="パス_2367" class="st2" d="M-551.2,723.6c-1.6,0.1-1.7-17.3-2.7-19C-551.6,699.4-549.5,724.9-551.2,723.6
				L-551.2,723.6z"/>
		</g>
	</g>
	<g id="グループ_1718" transform="translate(1337.755 2039.754)">
		<path id="楕円形_177" class="st0" d="M-556.7,594.3c74.8,1.3,74.8,112.5,0,113.8C-631.5,706.8-631.5,595.6-556.7,594.3z"/>
		<path id="パス_2420" class="st1" d="M-487.1,715c-4.3-23.8-37.4-27.2-52.5-42.2c0-6.1-2.7-10.4,3.2-14.9
			c51.9,27.6,20.1-149.4-53.5-71c-13.1,22.4-20.5,57.2-4,79.7c4.4,1.9,15.2-1.3,22.3-4.6c5.7,27.5-56.3,23.5-53.7,60.4h139.2
			C-486.1,722.4-486.6,717.6-487.1,715z"/>
		<g id="グループ_1712" transform="translate(3.939 3.74)">
			<path id="楕円形_178" class="st2" d="M-574.3,623.9c2.7,0,2.7,4.2,0,4.2C-577,628.1-577,623.9-574.3,623.9z"/>
			<path id="楕円形_179" class="st2" d="M-545,623.9c2.7,0,2.7,4.2,0,4.2C-547.7,628.1-547.7,623.9-545,623.9z"/>
			<path id="パス_2421" class="st3" d="M-603.5,689c6-3.1,22.4-11.1,23.5-11.4c0.3,9.4,2.5,31.8,3.9,41h-50
				C-626.8,701.1-616.9,696.9-603.5,689z"/>
			<path id="パス_2422" class="st3" d="M-515.8,689c-6-3.1-22.4-11.1-23.5-11.4c-0.3,9.4-2.5,31.8-3.9,41h49.9
				C-492.6,701.4-502.4,696.8-515.8,689z"/>
			<path id="パス_2423" class="st3" d="M-559.6,567c43.1,1.5,48.1,62.7,34.3,91.5c-1.1,0.6-13.1-0.5-16.9-1.9
				c17.6-18.3,10.3-55.9-8-71c-3.4-6.4-17.5,1.1-22.6,6.1c-19.3,17.6-19.8,49.6-1.6,67.2C-622.6,688-610.1,564.8-559.6,567z"/>
		</g>
		<g id="グループ_1717" transform="translate(0 0)">
			<path id="パス_2424" class="st2" d="M-570.3,632.6c-3.8,0.1-3.8-5.9,0-5.8C-566.5,626.7-566.5,632.7-570.3,632.6z
				 M-570.3,628.5c-1.7,0-1.7,2.6,0,2.6C-568.6,631.1-568.7,628.5-570.3,628.5z"/>
			<path id="パス_2425" class="st2" d="M-574.9,628.2c-2.7-1.5,3-4.9,4.8-4.5c1.9-0.2,6,2.2,4.4,4.2c-0.4,0.2-0.9,0-1.1-0.4
				C-569,623.5-572.8,625.6-574.9,628.2z"/>
			<path id="パス_2426" class="st2" d="M-541.1,632.6c-7.5-1.6,1.3-10.4,2.9-2.9C-538.2,631.3-539.5,632.6-541.1,632.6z
				 M-541.1,628.5c-1.7,0-1.7,2.6,0,2.6C-539.4,631.1-539.4,628.5-541.1,628.5z"/>
			<path id="パス_2427" class="st2" d="M-536.5,628.2c-6.8-8-8.9,3.3-9.6-1.4l0,0C-543.6,620.2-533.1,626.1-536.5,628.2z"/>
			<path id="パス_2428" class="st2" d="M-555.3,654.8c-2.4,0.5-13.4-2.1-8.7-3.3c4,2.2,14.2,2.7,19.4-0.9c0.9-0.7,1.8,0.9,0.9,1.3
				C-546.6,653.9-551,654.8-555.3,654.8z"/>
			<path id="パス_2429" class="st2" d="M-556.6,646.2c-1.1,0-4.2-1.4-2.9-2.7c0.4-0.3,0.9-0.2,1.1,0.2c0.5,0.5,1.1,0.9,1.8,0.9
				C-555.6,644.6-555.5,646.3-556.6,646.2L-556.6,646.2z"/>
			<path id="パス_2430" class="st2" d="M-554.6,659.5c-1.4-0.1-5.3-0.5-4.6-2.5c0.3-0.3,0.8-0.4,1.1-0.1c1.5,1,3.4,1.3,5.1,0.8
				c0.9-0.5,1.5,1.1,0.6,1.4C-553.1,659.3-553.9,659.5-554.6,659.5z"/>
			<path id="パス_2431" class="st2" d="M-533.5,614.4c-2.9-3.5-9.6-5.2-13.2-2.3c-0.3,0.3-0.8,0.3-1.1-0.1
				c0.5-4.9,15.3-3.5,14.7,2.2C-533.2,614.3-533.4,614.4-533.5,614.4z"/>
			<path id="パス_2432" class="st2" d="M-578.7,614.7c-4.2-2.8,14-9.9,16.1-2.8c-0.2,0.4-0.7,0.5-1.1,0.2
				C-568.3,608.8-574.2,610.4-578.7,614.7z"/>
			<g id="グループ_1713" transform="translate(45.497 81.204)">
				<path id="パス_2433" class="st2" d="M-602.7,588.8C-602.8,588.8-602.8,588.8-602.7,588.8c-11.9,0.7-28.8-24.6-21.8-21.4
					c1.2,5.1,10.3,18.4,21.9,19.8C-601.5,587.2-601.7,588.9-602.7,588.8L-602.7,588.8z"/>
				<path id="パス_2434" class="st2" d="M-599.7,588.8c-1,0-1.1-1.6,0-1.6c13-1.4,19.6-15.9,22.8-20.4
					C-575.4,572.6-587.5,587.1-599.7,588.8C-599.6,588.8-599.6,588.8-599.7,588.8z"/>
			</g>
			<g id="グループ_1716" transform="translate(0 97.291)">
				<g id="グループ_1714" transform="translate(0 0)">
					<path id="パス_2435" class="st2" d="M-571.9,575.4c-0.5,0-0.8-0.4-0.8-0.8l0,0c0.3-0.9-0.7-10.4,1.8-6.9
						C-571.3,570.2-570.1,574.2-571.9,575.4z"/>
					<path id="パス_2436" class="st2" d="M-625.3,626c-0.5,0-0.8-0.4-0.8-0.8l0,0c-2.2-29,34.6-34,51.7-48.6
						c0.7-0.8,1.9,0.3,1.2,1c-10,10-36.6,16.9-46.9,29.8C-624.3,613.8-623.2,624-625.3,626z"/>
					<path id="パス_2437" class="st2" d="M-556.8,583.5C-556.9,583.5-556.9,583.5-556.8,583.5c-3.9-0.5-14.3-3.9-13.8-8.1
						c0.4-0.3,0.9-0.2,1.1,0.2c2.3,3,8.7,5.9,12.8,6.4C-555.6,582.1-555.8,583.5-556.8,583.5L-556.8,583.5L-556.8,583.5z"/>
					<path id="パス_2438" class="st2" d="M-563.6,595.5c-5.7,1.7-14.2-19.5-9.5-15.1c1.2,3.4,6.3,18.3,11.8,12.1
						c1.2-1,3.3-11.6,4.6-7.3C-558,588.7-558.9,595.5-563.6,595.5z"/>
					<path id="パス_2439" class="st2" d="M-572.2,626c-1,3.4-7.4-49-3.1-42.8C-576.1,592.4-571,621.3-572.2,626L-572.2,626
						C-572.1,625.9-572.2,626-572.2,626z"/>
					<path id="パス_2440" class="st2" d="M-581.4,626c-2.4-2.2-5.1-16.5-5.9-18.2c1.1-2.7,3.9-4.9,5.9-7.1c-0.4-0.6-7.9-4-6.6-5.2
						l8.4-11.7c0.7-0.9,1.8,0.1,1.3,0.9c0,0-7.9,11-7.9,11c10.8,6.6,6.6,3.7,0.6,12.1c0.7,2.6,4,14.5,5.1,17.2
						C-580.2,625.7-580.8,626.1-581.4,626z"/>
				</g>
				<g id="グループ_1715" transform="translate(70.709 0)">
					<path id="パス_2441" class="st2" d="M-610.2,575.4c-1.2,0.7-1.7-8.9-0.2-8.6c0.4,0,0.8,0.4,0.8,0.8
						C-610.1,570.4-608.3,573.8-610.2,575.4L-610.2,575.4L-610.2,575.4z"/>
					<path id="パス_2442" class="st2" d="M-556.8,626c-2-1.7-0.9-12.4-5.2-18.6c-10.4-12.8-37-19.7-47-29.6
						c-0.7-0.8,0.6-1.7,1.2-1C-592.2,590.6-550.8,598.1-556.8,626C-556.8,625.9-556.8,625.9-556.8,626L-556.8,626z"/>
					<path id="パス_2443" class="st2" d="M-625.3,583.5c-1,0-1.1-1.5,0-1.5c4.1-0.5,10.5-3.4,12.8-6.4c0.3-0.4,0.8-0.4,1.1-0.2
						C-611.1,579.7-621.4,582.9-625.3,583.5C-625.2,583.5-625.3,583.5-625.3,583.5z"/>
					<path id="パス_2444" class="st2" d="M-618.6,595.5c-3.3,1.2-8.3-9.9-6.4-11.4c2.1,0.8,2.2,6.3,4,8.3
						c5.6,6.2,10.6-8.8,11.8-12.1C-604.3,575.8-613.2,597.6-618.6,595.5z"/>
					<path id="パス_2445" class="st2" d="M-609.9,626c-0.5,0-0.9-0.5-0.8-1c1.9-4.8,2.6-34.9,4.6-42.6
						C-604.1,590.4-607.8,621.6-609.9,626z"/>
					<path id="パス_2446" class="st2" d="M-600.8,626c-0.5,0-1-0.7-0.7-1.1c1.1-2.6,4.4-14.6,5.1-17.2c-6-8.4-10.2-5.5,0.6-12.1
						c0.2-0.4-11.8-14.2-6.6-11.9c-0.1,0.5,10.2,12.6,8.2,12.8l-6.4,4.1c1.9,2.3,4.8,4.3,5.9,7.1C-595.6,609.5-598.1,624-600.8,626z
						"/>
				</g>
			</g>
			<path id="パス_2447" class="st2" d="M-555.8,723.2c-2.1-1.6-0.5-11.2-1-16.3c0-0.4,0.4-0.8,0.8-0.8c0.4,0,0.8,0.4,0.8,0.8
				C-555.8,715.7-553.9,721.7-555.8,723.2L-555.8,723.2z"/>
			<path id="パス_2448" class="st2" d="M-556.1,704.5c-0.4,0-0.8-0.4-0.8-0.8l0,0c0.4-6.4-1.1-21.9,1.8-17.7
				c-0.1,2.1-0.2,9.8-0.2,17.6C-555.2,704.1-555.6,704.5-556.1,704.5C-556,704.5-556.1,704.5-556.1,704.5z"/>
			<path id="パス_2449" class="st2" d="M-580.1,611.4c-2.1-10,25.4-31.8,33.5-23.8C-560.2,585.9-574.8,599.2-580.1,611.4z"/>
			<path id="パス_2450" class="st2" d="M-580.6,656.8c-6.2-9.2-4.4-37.7-0.5-43.2c0.2,7.8-4.9,30.6,1.3,42.1
				C-579.6,656.2-579.9,656.9-580.6,656.8L-580.6,656.8z"/>
			<path id="パス_2451" class="st2" d="M-529.8,646.2c-0.5,0-0.9-0.4-0.8-1c4.5-17.2-1.9-41.8-14.2-54.7
				C-532.5,593.2-522.7,635.6-529.8,646.2z"/>
			<path id="パス_2452" class="st2" d="M-588.8,586.6c6-16.9,40-27,53.1-13.7c0.7,0.8-0.6,1.8-1.2,1
				C-550.3,563.5-570.9,566.7-588.8,586.6z"/>
			<path id="パス_2453" class="st2" d="M-593.7,667.5c-22.8-26.2-3.1-72.8,3.1-79.3C-595,601.6-613.4,636-593.7,667.5z"/>
			<path id="パス_2454" class="st2" d="M-519.1,663c11.6-35.8,8.2-65.3-13.1-87.8C-510.6,586.5-504.2,639-519.1,663z"/>
			<path id="パス_2455" class="st2" d="M-528.3,660.2c-0.4,0.1-0.8-0.3-0.8-0.7c-0.2-2.7-2.3-8.7,0.6-6.2c0,0.1,0.4,1.8,0.7,3.6
				c3.2-6.1,4.4-12.1,5.2-17.8c0.2-1,1.6-0.8,1.6,0.2C-522.1,645.3-523.2,654.2-528.3,660.2z"/>
			<path id="パス_2456" class="st2" d="M-520.9,654.8c-0.6,0-1-0.7-0.7-1.2c2.4-4.8,4.8-16,4.8-22.6
				C-512.1,628-518.9,654.9-520.9,654.8z"/>
			<path id="パス_2457" class="st2" d="M-585.9,665.5c-2.1-1.5-3.2-4.4-4.4-6.7c-2.3,11.5-11.3-20.2-6.3-15
				c0,3.5,2.4,11.8,4.6,15.2c0.8-2.3,0.9-4.7,2.5-2.9C-589.6,658.5-582.9,665.3-585.9,665.5L-585.9,665.5z"/>
			<path id="パス_2458" class="st2" d="M-582.2,662.8c-2.9-1-9.3-17.9-5.1-14.3c0.6,3,2.6,9.2,5.6,13
				C-581.3,661.9-581.7,662.7-582.2,662.8L-582.2,662.8z"/>
			<path id="パス_2459" class="st2" d="M-589.9,631.2c-4-11.4,6.2-35.1,13.1-37.2C-583.9,603.5-588.9,614.4-589.9,631.2
				C-589.8,631.2-589.8,631.2-589.9,631.2L-589.9,631.2z"/>
			<path id="パス_2460" class="st2" d="M-595.5,638.5c-3.4-6.2,0.5-29.8,3.8-29.8c0.4,0.2,0.6,0.7,0.4,1.1
				c-2.6,5.5-4.6,16.8-3.4,27.8C-594.7,638-595,638.4-595.5,638.5C-595.4,638.5-595.4,638.5-595.5,638.5
				C-595.4,638.5-595.5,638.5-595.5,638.5z"/>
			<path id="パス_2461" class="st2" d="M-524.5,610.6c-0.4,0-0.7-0.3-0.8-0.7c-1-7-6.3-16.8-11.7-21.4c-0.3-0.3-0.4-0.8-0.1-1.1
				c4.3-0.7,15.7,20.1,12.7,23.3l0,0C-524.4,610.6-524.5,610.6-524.5,610.6z"/>
			<path id="パス_2462" class="st2" d="M-518.1,626c-0.5,0-0.8-0.4-0.8-0.9l0,0c0.6-7-1-19.5-3.9-24.6
				C-519.8,595-514.7,624.3-518.1,626z"/>
		</g>
	</g>
	<g id="グループ_1732" transform="translate(1023.169 2042.162)">
		<path id="楕円形_182" class="st5" d="M-556.7,600.6c71.6,1.2,71.6,107.8,0,109C-628.3,708.4-628.3,601.8-556.7,600.6z"/>
		<path id="パス_2506" class="st1" d="M-524.9,631c1.4,6-1,13.9-7,16.2c-0.5,3.9-3.7,13.5-6.1,15.6c0,0,0,10,0.3,11.3
			s4.8,3.6,5.7,3.8c10,4.4,24.7,10.8,35,17c7.1,5.3,7.4,22.3,7.2,28.3h-134.3c-5.7-48.2,53.3-30,48.3-60.2
			c-3.1-2.3-5.2-13.5-5.9-15.7c-6.3-2.3-8.6-10.2-6.8-16.2c-4-2.4-1.5-14.1-1.6-15.1l-1.9,0.3c0,0,0.3-11.8,3-15.7
			c-1.5-0.2-3-0.4-3-0.4s4.5-16.2,10.4-19.9c-0.7-0.5-1.5-0.8-2.4-0.6c0,0,7.1-8.7,13.8-8.1c-0.3-0.8-0.8-2.4-0.8-2.4
			s9.4-3.4,14.6-0.2c4.1-1.7,17-2.6,13.9,2.7c0,0,11.8,2.2,13.6,7.8c-0.6,0.4-2,1.2-2,1.2c4.3,4.8,8.7,10.9,10.2,19.7
			c-1.1,0.1-2.1,0.4-3,0.9c-0.7-1,6.1,15.5,1.3,15.2C-522.6,617.1-519.8,629.3-524.9,631z"/>
		<g id="グループ_1726" transform="translate(4.79 3.588)">
			<path id="パス_2507" class="st3" d="M-605.2,686.7c5.1-2.2,20.2-8.6,20.2-8.6c1.2,12.3,4.2,32.3,7.2,41.5h-48.3
				C-625.9,703.3-623.1,692.4-605.2,686.7z"/>
			<path id="パス_2508" class="st3" d="M-518,686.7c-5.1-2.2-20.2-8.6-20.2-8.6c-1.2,12.3-4.2,32.3-7.2,41.5h48.3
				C-497.3,703.3-500.1,692.4-518,686.7z"/>
			<path id="パス_2509" class="st4" d="M-564.9,685.8c7.9-0.1,6.2-2.8,8.5,4.7c0,0-0.5,8.7-0.5,8.7c1.5,3.1,2.3,17.6,2.7,20.5
				h-12.1l2-20.1c0,0-1.2-3.1-1.5-3.6s-0.3-7.8-0.3-7.8L-564.9,685.8z"/>
			<path id="パス_2510" class="st2" d="M-574,630c-0.2,2.3-3.7,1.9-3.5-0.3C-577.3,627.4-573.7,627.7-574,630z"/>
			<path id="パス_2511" class="st2" d="M-549.2,630c0.2,2.3,3.7,1.9,3.5-0.3C-545.9,627.4-549.5,627.7-549.2,630L-549.2,630z"/>
			<path id="パス_2512" class="st3" d="M-528.3,608.9c-0.9-5.3-1.8-9.7-2.7-13.4c1.1,0,2.1,0.1,2.6,0.2c-1.5-8.6-8.2-16-11.2-18.6
				c0.6-0.5,1.3-0.9,2.1-1.2c-1.6-2.5-9.6-4.8-13.3-5.2c0.5-1.1,1.1-2.4,1.3-3.2c-3.5-1.3-7.5-0.7-10.9,1c-3.3-1.2-8.2-2-11.5-0.7
				c0.7,0.7,1.4,1.6,1.9,2.5c-4,0.4-12.3,2.1-14.6,5.5c0.4,0.3,1.4,0.8,2.4,1.3c-3.5,3-10.7,12.1-11.5,18.6c0.6-0.1,1.6-0.1,2.4-0.1
				c-2.5,10.2-6.1,23.6-2.7,33.3c0.5-1,2.1-3.4,4.2-2.1c1.9-2.5,3.4-9.5,3.6-11.6c0,0,12.3-9.6,13.4-11.2c0,2.6-0.1,5.1-0.4,7.7
				c0,0,12-12.4,13.5-14.7c1.4,1.9,10.6,13.8,13.8,15.6c0-3.1,0-6,0-6c9.3,8.7,9.3,7.8,11.8,20.6
				C-523.4,630.8-527.7,615.7-528.3,608.9z"/>
		</g>
		<g id="グループ_1731" transform="translate(1.219 0)">
			<path id="パス_2513" class="st2" d="M-572.2,636c-1.5,0-2.7-1.3-2.5-2.8c0.2-3.3,5.6-2.8,5.1,0.5l0,0l0,0
				C-569.7,635-570.9,636-572.2,636L-572.2,636z M-572.2,632.4c-2.6,0.3,0.3,3.5,1,1C-571.1,633-571.5,632.5-572.2,632.4
				C-572.1,632.4-572.2,632.4-572.2,632.4z"/>
			<path id="パス_2514" class="st2" d="M-568.2,632.3c-0.3,0-0.6-0.2-0.7-0.5c-1-3.2-5.6-2.9-7.1-0.3c-0.2,0.4-0.7,0.5-1.1,0.3
				c-1.4-2.3,3.2-4.2,5.2-3.9C-570.1,627.8-566.2,630.6-568.2,632.3C-568,632.3-568.1,632.3-568.2,632.3L-568.2,632.3z"/>
			<path id="パス_2515" class="st2" d="M-543.9,636c-3.4,0-3.4-5.2,0-5.2c3.2,0,3.3,4.8,0.2,5.1C-543.7,636-543.8,636-543.9,636z
				 M-543.9,632.4c-0.7,0-1.1,0.5-1,1.1l0,0C-544.4,636-541.3,632.9-543.9,632.4L-543.9,632.4z"/>
			<path id="パス_2516" class="st2" d="M-547.9,632.3c-2.5-1.3,1.7-4.5,3.5-4.4c2-0.3,6.5,1.5,5.2,3.9c-0.4,0.3-0.7,0-0.9-0.4
				c-1.5-2.7-6.1-2.8-7.1,0.3C-547.3,632.1-547.6,632.3-547.9,632.3z"/>
			<path id="パス_2517" class="st2" d="M-558.3,659.1c-3.5,0.8-13.9-3.5-8.8-3.8c2.5,2.3,11.8,4,19.7-0.4c0.4-0.2,0.8,0,1,0.3
				C-548.1,658.6-554.7,658.8-558.3,659.1z"/>
			<path id="パス_2518" class="st2" d="M-556.2,664.3c-1.4-0.1-5.3-0.3-4.7-2.3c0.2-0.4,0.7-0.5,1.1-0.2c1.4,1.3,4.1,0.2,4.9,1.6
				C-554.9,664.1-555.6,664.3-556.2,664.3z"/>
			<path id="パス_2519" class="st2" d="M-551.3,622c-4.2-2.6,13.1-7.2,14.1-0.6c-0.3,0.3-0.7,0.3-1.1,0.1
				C-542.3,618.1-547.6,619.8-551.3,622z"/>
			<path id="パス_2520" class="st2" d="M-565.5,622.2c-3.2-3.4-9-3-12.9-0.6c-0.3,0.2-0.8,0.2-1.1-0.2c0-4.1,15.8-4.6,14.5,0.6
				C-565.3,622.2-565.4,622.2-565.5,622.2z"/>
			<g id="グループ_1727" transform="translate(34.939 62.567)">
				<path id="パス_2521" class="st2" d="M-565.5,584.2c-0.7,0.1-1.1-1-0.5-1.4c1.5-1.1,3.6-3.2,4.4-8.5c0.6-4.3-0.8-7.4-3.8-5.2
					c-0.3,0.3-0.8,0.2-1.1-0.1c-0.7-2,3-2.6,4.4-1.8C-556.8,569.9-562,584-565.5,584.2z"/>
				<path id="パス_2522" class="st2" d="M-590.5,612.3c-0.9,0-1.1-1.4-0.1-1.6c4.3-0.6,10.8-6.6,15.9-11.7
					c3.3-3.3,5.7-13.5,6.3-19.3C-561.6,587.9-580.4,610.9-590.5,612.3z"/>
				<path id="パス_2523" class="st2" d="M-620.4,584.2c-3.5-0.4-8.8-14.3-3.4-17.1c1.3-0.8,5,0,4.3,2c-0.3,0.3-0.8,0.3-1.1,0
					c-3-2.3-4.5,0.9-3.8,5.3C-624.3,580.3-617.8,583.8-620.4,584.2L-620.4,584.2z"/>
				<path id="パス_2524" class="st2" d="M-595.5,612.3c-4.9-0.7-11.4-6.7-17-12.2c-3-2.8-8.2-18.6-5.8-20.9c0.5,0,0.8,0.5,0.8,0.9
					c0.7,6,2.9,15.9,6.5,19.3c5.1,5.1,11.3,10.9,15.7,11.5C-594.5,611.2-594.5,612.3-595.5,612.3L-595.5,612.3z"/>
			</g>
			<g id="グループ_1730" transform="translate(0 98.175)">
				<g id="グループ_1728" transform="translate(68.724)">
					<path id="パス_2525" class="st2" d="M-607.6,577.1c-1.8-0.4-0.7-9.9-1.1-9.5c-0.1-1,1.6-1.1,1.6,0c0,0.1,0.1,6.2,0.3,8.7
						C-606.8,576.7-607.1,577.1-607.6,577.1L-607.6,577.1z"/>
					<path id="パス_2526" class="st2" d="M-625.3,587c-0.8,0.1-1.2-1.5-0.2-1.5c3.9-1,13-5.3,15.8-8.2c0.7-0.7,1.8,0.4,1.1,1.1
						C-611.7,581.6-621,585.9-625.3,587z"/>
					<path id="パス_2527" class="st2" d="M-617.5,603.1c-0.4,0.7-9.3-15.3-7.3-15.5c0.5-0.2,0.9,0.2,1.1,0.7
						c2.5,5.1,5.2,10.6,6.4,12.7c3.3-3.9,10.1-19.3,12-20.9C-602.8,581-616.4,603.4-617.5,603.1z"/>
					<path id="パス_2528" class="st2" d="M-559.8,625.9c-0.4,0-0.8-0.4-0.8-0.8l0,0c-1-33.8-5.7-26.3-28.9-38.5
						c-6.6-2.9-21.2-8.9-15.6-9.4C-583.8,591.7-553.7,587.7-559.8,625.9z"/>
					<path id="パス_2529" class="st2" d="M-610.6,625.9c-0.5,0-1-0.6-0.7-1.1c3.8-7.5,5.5-34.5,8.1-43.6
						C-602.1,590.7-606.7,618.7-610.6,625.9z"/>
					<path id="パス_2530" class="st2" d="M-601.6,625.9c-0.6,0-1.1-0.8-0.6-1.3c2.4-3.2,6.9-14,7.9-16.4c-0.3-0.7-7-5.6-5.3-6.5
						c0,0,5.4-4.2,5.4-4.2l-4.5-12.8c-0.2-0.9,1.1-1.5,1.5-0.5l4.7,13.3c0.6,0.9-5.1,4.4-5.4,4.9c0.2,0.5,6,5.3,5.4,5.9
						C-593,608.7-597.9,623.2-601.6,625.9z"/>
				</g>
				<g id="グループ_1729" transform="translate(0 0)">
					<path id="パス_2531" class="st2" d="M-577.2,577.1c-0.5,0-0.8-0.4-0.8-0.8l0,0c0.4-3-0.5-12.4,1.9-8.7
						C-576.5,567.5-575.4,576.9-577.2,577.1z"/>
					<path id="パス_2532" class="st2" d="M-559.5,587c-1.4,0.4-21.9-9.2-15.7-9.8c2.9,3,11.9,7.2,15.8,8.2
						C-558.5,585.6-558.6,587-559.5,587L-559.5,587z"/>
					<path id="パス_2533" class="st2" d="M-567.3,603.1c-1.2-0.2-14.6-21.6-12.1-23c1.9,1.6,8.7,17,12,20.9
						c0,1.5,7.3-17.6,7.9-12.4C-560.9,591-565.5,602.3-567.3,603.1L-567.3,603.1z"/>
					<path id="パス_2534" class="st2" d="M-625.3,625.9c-0.4,0-0.8-0.3-0.8-0.8c-0.2-18.9,4-25.6,6.5-27.9
						c5.2-5.4,33.7-15.1,39.8-20c5.3,0.7-8.8,6.5-15.6,9.4C-619.6,598.2-622.6,593.4-625.3,625.9L-625.3,625.9L-625.3,625.9z"/>
					<path id="パス_2535" class="st2" d="M-574.2,625.9c-3.9-7.1-8.6-35.2-7.4-44.7c2.7,9,4.3,36.1,8.1,43.6
						C-573.2,625.3-573.7,625.8-574.2,625.9z"/>
					<path id="パス_2536" class="st2" d="M-583.2,625.9c-3.5-2.9-8.4-17.1-8.9-17.6c-0.6-0.6,5.2-5.4,5.4-5.9
						c-0.4-0.6-6-4-5.4-4.9c0,0,4.7-13.3,4.7-13.3c0.3-0.9,1.8-0.5,1.5,0.5c0,0-4.6,12.9-4.5,12.8c0.5,0.7,6.7,4.2,5.5,5.3
						c0,0.1-0.1,0.1-0.1,0.1c-0.1,0.2-5.7,5.4-5.4,5.4c1.1,2.6,5.5,13.2,7.9,16.4C-582,625.2-582.6,625.9-583.2,625.9L-583.2,625.9z
						"/>
				</g>
			</g>
			<path id="パス_2537" class="st2" d="M-558,704.2c-5.3,1-5.5-5-5.5-7.5c4-4.2-2.8,9.5,10,5.4
				C-549.8,703.5-556.7,704.4-558,704.2z"/>
			<path id="パス_2538" class="st2" d="M-553.4,701.2c-1.6-0.7,0.1-3.5-0.6-4.9C-552.2,692.8-551.7,701.3-553.4,701.2z"/>
			<path id="パス_2539" class="st2" d="M-556.7,689.8c-1.1-0.4-2.9,0.7-3.4-0.6C-560.5,687.1-553.6,688.4-556.7,689.8
				L-556.7,689.8z"/>
			<path id="パス_2540" class="st2" d="M-564.7,724c-1.9,1.5,0.8-25.7,2.7-19.1c-0.7,3.1-1.9,15.6-2,18.5
				C-563.9,723.7-564.2,724-564.7,724z"/>
			<path id="パス_2541" class="st2" d="M-550.6,724c-1.6,0.1-1.7-17.3-2.8-19.2C-551.1,699.7-549.1,725.2-550.6,724L-550.6,724z"
				/>
			<path id="パス_2542" class="st2" d="M-571.1,642c-4.5-0.1-10.5,1.2-10.6-4.9c0.2-3.4-1.4-10.7,4-11c3.8-0.5,3.8,2.1,0,1.6
				c-3.9,0.2-2,7.1-2.4,9.4c0,0.7,0.6,3.4,2.5,3.4c0,0,6.5,0,6.5,0C-570.2,640.5-570.2,642-571.1,642L-571.1,642z"/>
			<path id="パス_2543" class="st2" d="M-567.7,642c-0.9,0-0.9-1.5,0-1.5c2.8,0,5.1-3.4,5.1-4.7c0-3.7,0.7-9.1-4.7-8
				c-1,0.1-1.1-1.6,0-1.6C-558.4,624.6-558.7,641.6-567.7,642z"/>
			<path id="パス_2544" class="st2" d="M-538,642c-0.9,0-0.9-1.5,0-1.5c1.9,0,2.5-2.6,2.5-3.4c-0.3-3.4,1.6-10.7-4.4-9.4
				c-1,0.1-1.1-1.6,0-1.6c2.8-0.4,6,1,6,4.3C-534.3,634-532.2,641.1-538,642z"/>
			<path id="パス_2545" class="st2" d="M-541.4,642c-5.7,0.3-12.2,0.3-13.2-6.2c0-3.1-0.5-9.2,3.6-9.7c0.7,0.2,3.4-0.6,3.4,0.8
				c0.1,1.3-2.7,0.6-3.4,0.8c-2.8,0.9-2,5.8-2.1,8c0,1.3,2.3,4.7,5.1,4.7C-547.4,640.6-537.6,639.6-541.4,642L-541.4,642L-541.4,642
				z"/>
			<path id="パス_2546" class="st2" d="M-562.2,631.8c-3.5-2.7,7.3-3,8.3-1.7c0.7,0.6,0.1,1.8-0.8,1.3
				C-556.3,630.4-560.8,630.9-562.2,631.8z"/>
			<path id="パス_2547" class="st2" d="M-581.3,630.3h-2.5c-1,0.1-1.1-1.6,0-1.6c0,0,2.5,0,2.5,0
				C-580.3,628.6-580.2,630.4-581.3,630.3z"/>
			<path id="パス_2548" class="st2" d="M-532.3,630.3h-2.5c-1,0.1-1.1-1.6,0-1.6c0,0,2.5,0,2.5,0
				C-531.3,628.6-531.2,630.4-532.3,630.3z"/>
			<path id="パス_2549" class="st2" d="M-584.2,620.3c-0.8,0.1-1.1-1.2-0.3-1.5c2.7-1.2,13-9.3,14.9-12.8c3-1.6,0.6,6.2,0.7,7.8
				c4.3-3.4,12.3-13.3,13.9-16.7c0.4-0.9,1.7-0.3,1.4,0.6c-1.6,3.2-21.3,30.8-16,11.1C-573.6,613-581.2,619.6-584.2,620.3z"/>
			<path id="パス_2550" class="st2" d="M-531.3,620.3c-2.1-0.8-7.3-5-10.3-8.2c3.3,13.9-11.4-6.6-12.4-8.7c-0.4-0.9,1-1.6,1.4-0.6
				c1.1,2.4,6.6,9.3,9.7,12c-0.2-1.1-1.6-7.2,0.9-5.3c1.4,2.6,8.9,8.6,10.8,9.4C-530.6,619.1-530.5,620.2-531.3,620.3L-531.3,620.3z
				"/>
			<path id="パス_2551" class="st2" d="M-585.2,628.3c-0.6,0.1-1.1-0.8-0.6-1.3c1-1.2,2-6.9,2.1-8.5
				C-580.7,614.8-583.1,627.8-585.2,628.3z"/>
			<path id="パス_2552" class="st2" d="M-531.1,628.3c-2.1-0.2-4.6-13.8-1.5-9.8c0.1,1.6,1,7.3,2.1,8.5
				C-530,627.4-530.4,628.3-531.1,628.3L-531.1,628.3z"/>
			<path id="パス_2553" class="st2" d="M-572.2,570.1c-4.4-2.9,14.4-4.8,13.7-1.2c-0.2,0.4-0.6,0.6-1,0.4
				C-563.6,567.6-568.3,568.2-572.2,570.1z"/>
			<path id="パス_2554" class="st2" d="M-593.2,601.1c-0.5,0-0.8-0.4-0.8-0.8l0,0c0.6-7.9,6.3-16,9.7-19.6
				c-8.2-1.1,16.6-14.3,13-8.2c-2.9,0.1-10.1,3.6-12.5,6.7c6,0.4-7.9,8.1-8.6,21.1C-592.4,600.8-592.8,601.1-593.2,601.1z"/>
			<path id="パス_2555" class="st2" d="M-591.6,629.4c-2.5-2.3-0.7-9.9-0.6-12.3c-4.2,3.3,0.4-18.4,2.4-16.6
				c0.4,0.2,0.5,0.7,0.3,1c-1.2,2.2-3,10-2.9,14c4.1-1.9-0.3,8,1.6,12.9C-590.7,628.9-591.1,629.5-591.6,629.4z"/>
			<path id="パス_2556" class="st2" d="M-542.9,570.1c-4-1.6-8.5-2.6-12.8-0.7c-0.4,0.2-0.8,0-1-0.4
				C-557.4,565.3-538.8,567.3-542.9,570.1L-542.9,570.1z"/>
			<path id="パス_2557" class="st2" d="M-521.9,601.1c-0.4,0-0.7-0.3-0.8-0.7c-0.5-12.5-14.6-20.7-8.5-21.2
				c-2.5-3.1-9.6-6.6-12.5-6.7c-3.8-5.8,21.3,7.2,12.9,8.3C-528.5,583.4-519,595.1-521.9,601.1L-521.9,601.1L-521.9,601.1z"/>
			<path id="パス_2558" class="st2" d="M-523.6,629.4c-0.5,0.1-0.8-0.4-0.7-1c2-5.1-2.5-14.8,1.6-12.9c0.1-4-1.7-11.8-2.9-14
				c-0.5-0.8,0.9-1.6,1.3-0.7c0.7,0.6,5.9,18.7,1.4,16.3C-522.9,619.4-520.9,627.2-523.6,629.4z"/>
			<path id="パス_2559" class="st2" d="M-557.4,652.4c-1.7,0.2-3.4-0.6-4.3-2c-0.4-0.9,0.9-1.5,1.3-0.7c1.3,1.9,5.3,1.4,6.2-0.1
				c0.5-0.9,1.8-0.1,1.3,0.7C-553.5,651.9-555.8,652.4-557.4,652.4z"/>
		</g>
	</g>
	<g class="st6">
		<path d="M440.6,2566.9c5,0.9,2.4-3.8-0.1-5.4c0,0,1.3-2.1,1.3-2.1c0.5,0.5,0.6,0.6,1,1c0.9-1.5,1.7-3.3,1.9-4.2l2.5,1
			c-0.2,1.5-3.9,4.7-1.9,6c1.5-2.4,1.9-3.1,2.4-4.3l2.2,1.3c-0.6,1-3.5,5.2-4.6,6.7c1.2,0,1.9-0.1,2.7-0.2c-0.2-0.7-0.4-1-0.8-2
			l1.6-0.8c1,2.3,1.4,3.3,2,5.2l-1.9,0.9c0-1.7-1-1-2-1c0.1,1.8-0.2,8.9,0.2,10.5h-2.7c0.2-1.6,0.1-8.5,0.1-10.3
			c-1.4,0.1-2.8,0.1-3.7,0.3L440.6,2566.9z M443.8,2570.7c-0.1,3.5-0.3,4.9-0.9,7.5l-2.3-0.9c0.7-2.1,0.9-3.8,1-7L443.8,2570.7z
			 M449.6,2570.2c0.4,1.3,0.5,2.3,0.8,5.3l-2.1,0.6c0-2.1-0.1-3.3-0.5-5.4L449.6,2570.2z M460,2570.3c1,0,1.7,0,2.4-0.2v2.6
			c-1.3-0.2-3.2-0.1-4.6-0.1v3.4c1.4,0,4.7,0.1,5.8-0.1v2.7c-3.2-0.3-10.4-0.3-13.6,0v-2.7c1.1,0.2,4,0.1,5.3,0.1v-3.4
			c-1.3,0-3-0.1-4.2,0.1v-2.6c0.9,0.1,3,0.1,4.2,0.1c0-1,0-2.4-0.1-2.9h2.8c-0.1,0.6-0.1,1.8-0.1,2.9L460,2570.3L460,2570.3
			L460,2570.3z M462.7,2558.7c-1.8,2.7-2.2,3.3-4.1,5.3c1.6,0.9,3.1,1.4,5.3,1.8c-0.6,1-0.8,1.5-1.2,2.7c-5.8-2-5.4-3.6-10.9-0.3
			c-0.4-0.9-0.8-1.5-1.6-2.3c1.7-0.5,2.9-1,4.2-1.8c-1.9-1-2.1-4.8-4.4-4.2v-2.7c2.4,0.2,8.6,0.2,11.1,0L462.7,2558.7z
			 M453.9,2559.8c0.7,1.2,1.3,1.9,2.4,2.9c1.2-1,1.8-1.7,2.5-2.9H453.9z"/>
		<path d="M470.3,2560c-0.8,0-1.2,0-1.9,0.1v-2.7c2,0.2,6,0.2,8,0v2.7c-0.8-0.1-1.7-0.1-2.5-0.1v4.9c0.8,0,1.4,0,2.2-0.1v2.5
			c-0.6-0.1-1.5-0.1-2.2-0.1v4.9c1-0.5,1.3-0.6,2.4-1.1l0.1,2.6c-2.1,1.1-3.8,1.8-7.5,3.3l-0.7-2.8c0.8-0.2,1.4-0.4,3.1-1v-5.9
			c-0.8,0-1.7,0-2.5,0.1v-2.6c0.8,0.1,1.7,0.1,2.5,0.1v-4.9h-1V2560z M482.3,2573.6c-1.3,0-4.4-0.1-5.4,0.1v-2.5
			c0.8,0.2,4.2,0.1,5.4,0.1v-2c-1.4,0-4.5-0.1-5.4,0.1c0.2-2.1,0.2-9.6,0-12c3,0.2,10.6,0.2,13.5,0c-0.2,2.7-0.2,9.3,0,12
			c-1-0.2-4.2-0.1-5.6-0.1v2c1.4,0,4.8,0.1,5.8-0.1v2.6c-1.1-0.2-4.4-0.1-5.8-0.1v2.6c1.4,0,5.5,0.1,6.6-0.1v2.7
			c-3.4-0.2-12.7-0.2-16.1,0v-2.7c1.2,0.2,5.5,0.1,7,0.1L482.3,2573.6L482.3,2573.6z M479.6,2559.8v2.5h2.8v-2.5H479.6z
			 M479.6,2564.4v2.5h2.8v-2.5H479.6z M484.8,2562.3h2.9v-2.5h-2.9V2562.3z M484.8,2566.9h2.9v-2.5h-2.9V2566.9z"/>
	</g>
	<g class="st6">
		<path d="M741.4,2567.3c-0.3,6.2-2.6,9.5-8.3,11.6c-0.6-1.2-1-1.8-2-2.8c4.9-1.5,6.8-4,7-8.9c-1.8,0-7.9-0.1-9.3,0.1v-3
			c3.9,0.4,17.1,0.4,21,0v3C748.6,2567.1,743.1,2567.2,741.4,2567.3L741.4,2567.3L741.4,2567.3z M745.2,2561.2
			c-2.8-0.2-11-0.2-13.8,0v-3c2.9,0.3,10.8,0.3,13.7,0L745.2,2561.2L745.2,2561.2z M746.6,2556.5c0.9,1.3,1.5,2.3,2.2,3.9l-1.9,0.7
			c-0.7-1.7-1.3-2.7-2.2-4L746.6,2556.5z M750.2,2560c-0.6-1.4-1.3-2.7-2.1-3.9l1.8-0.7c1,1.3,1.6,2.3,2.2,3.8L750.2,2560z"/>
		<path d="M769.7,2562.2c0-1.6,0.1-3.5-0.1-4.6h3.2c-0.2,1.3-0.1,3.1-0.1,4.6c1.5,0,4.1,0.1,4.9-0.2v3c-0.6-0.1-3.4-0.1-4.8-0.1
			c0,8.1-1.5,11.1-8.6,13.9c-0.4-1-0.8-1.6-1.9-2.6c6.4-2.1,7.4-4.4,7.5-11.2h-6.5c0,1.3-0.1,4.8,0.1,5.8h-3.2
			c0.2-0.8,0.1-4.7,0.1-5.8c-1.5,0-4,0-4.7,0.1v-3c0.8,0.3,3.2,0.2,4.7,0.2c0-1.1,0.1-3.9-0.1-4.7h3.3c-0.2,1-0.1,3.5-0.1,4.7h6.3
			L769.7,2562.2L769.7,2562.2z M774.4,2556.2c0.8,1.2,1.3,2.4,1.7,3.9l-1.7,0.5c-0.5-1.6-1-2.8-1.7-3.9L774.4,2556.2z M777.5,2559.7
			c-0.4-1.3-0.9-2.5-1.7-3.8c2.3-1.3,2.5,1.3,3.3,3.2L777.5,2559.7z"/>
		<path d="M802.3,2559.1c-2.2,2.2-4.2,4.3-6.8,6c0,2-0.1,11.8,0.1,13.5h-3.5c0.2-1.5,0.1-9.7,0.1-11.5c-2.9,1.7-4.3,2.4-8.9,4
			c-0.5-1.3-0.8-1.7-1.7-2.8c6.4-1.6,14.2-6,17.7-11.2L802.3,2559.1z"/>
		<path d="M824.6,2563.2c1.8,0,2.3,0,3.2-0.2v3.1c-1.5-0.2-6.5-0.1-8.3-0.1c-0.4,6.8-2.4,9.2-8.2,12.6c-0.8-1.4-1.2-1.9-2.3-2.7
			c5.1-2.4,6.8-4.4,7.2-9.9c-1.9,0-7.8-0.1-9.4,0.1v-3.1c1.7,0.4,7.5,0.1,9.5,0.2c0-2.2,0.1-4-0.1-5.8h3.4c-0.2,0.7-0.1,5.3-0.1,5.8
			L824.6,2563.2L824.6,2563.2z"/>
		<path d="M833.5,2566.1c4.3,0.3,17,0.4,21.3,0v3.5c-4-0.2-17.5-0.2-21.5,0v-3.5H833.5z"/>
	</g>
	<g class="st6">
		<path d="M713.7,3026.2c1.3,1,4,3.7,4.6,4.3c2.6-2.1,4.9-4.9,6.5-7.4c-3.9-0.2-12.3-0.1-16.2,0v-3.2c3.4,0.3,15.7,0.4,19.2,0l1.8,2
			c-2.7,3.9-5.7,8.2-9.2,11c1,1.2,2,2.4,3.3,4.2l-2.6,2.1c-2.3-3.8-6.3-8.3-9.8-11.1L713.7,3026.2z"/>
		<path d="M734.3,3026.8c4.3,0.3,17,0.4,21.3,0v3.5c-4-0.2-17.5-0.2-21.5,0v-3.5H734.3z"/>
		<path d="M776.8,3025c-0.2,7.6-3.1,11.5-9.7,14.5c-0.6-1.3-1-1.8-2.1-2.7c5.5-2.1,8.4-5.1,8.7-11.7c-8.2-0.4-5.1,0.2-10.1,5.1
			c-0.9-1-1.3-1.3-2.5-2c3-2.4,5.9-6.7,6.5-10.5l3.2,0.8c-0.1,0.2-1.2,2.7-1.7,3.8c0.7,0,0.7,0,10.9,0c1.8,0,2.1,0,3.1-0.2v3.1
			c-1.6-0.2-4.5-0.1-6.3-0.1V3025z"/>
		<path d="M800.5,3028c-0.4,6.1-2.2,9.3-8.2,11.6c-0.6-1.3-1-1.7-2-2.8c5-1.5,6.8-4,7-8.9c-1.9,0-7.7-0.1-9.3,0.1v-3
			c4,0.3,17,0.4,21,0v3c-1.5-0.2-6.7-0.1-8.5-0.1V3028z M790.5,3018.8c3.4,0.3,12.6,0.3,16,0v3c-3.4-0.2-12.6-0.2-16.1,0
			L790.5,3018.8L790.5,3018.8z"/>
		<path d="M831.8,3023.8c-1.5,1.5-3.6,3.6-5.4,4.9c0,1.7-0.1,9.5,0.1,10.9h-3.2c0.2-1.4,0.1-7.5,0.1-9.1c-2.2,1.3-4,2.1-7.1,3.2
			c-0.5-1.2-0.8-1.6-1.5-2.6c5.6-1.5,11.1-4.5,14.5-9.1L831.8,3023.8z"/>
		<path d="M838.7,3035.2c7.5-0.3,15-5.3,17.3-12.9c1,1.2,1.4,1.5,2.6,2.4c-3.8,8.7-10,12.1-19,14L838.7,3035.2z M840.9,3019.6
			c3,1.8,4.5,3,6.4,4.8l-2.1,2.7c-2-2.1-4-3.8-6.4-5.1L840.9,3019.6z"/>
		<path d="M883.1,3022.6c-2.7,8.3-6.4,13.7-14.5,17.2c-0.6-1.2-1.1-1.7-2.1-2.6c6.5-2.5,10.8-7,12.8-13.5
			c-10.8-0.4-6.1,0.8-13.3,6.5c-0.7-1-1.1-1.3-2.4-2.1c3.3-2.1,6.9-6.5,7.8-10.5l3.4,0.7c-0.5,0.7-0.9,2.1-1.5,2.9
			c1.5,0,6.5-0.1,8-0.1c-0.6-1.2-1-2.1-1.8-3.1c2.7-1.5,2.8,1.3,4,3.3l-1.1,0.4L883.1,3022.6z M884.7,3020.8
			c-0.6-1.5-1.3-2.8-2.1-3.9l1.8-0.6c1,1.3,1.6,2.3,2.2,3.8L884.7,3020.8z"/>
	</g>
	<g class="st6">
		<path d="M368.8,3039.1l-4.3-17.9h3.7l2.7,12.3l3.3-12.3h4.3l3.1,12.5l2.7-12.5h3.6l-4.3,17.9h-3.8l-3.6-13.4l-3.6,13.4H368.8z"/>
		<path d="M392.7,3039.1v-17.9H406v3h-9.7v4h9v3h-9v4.9h10v3H392.7z"/>
		<path d="M412.2,3021.2c3.2,0.2,9.6-0.7,12.3,0.9c2.8,1.8,2.4,6.1-0.6,7.5c5.3,1.2,3.9,9.2-1.2,9.3c-1.4,0.2-8.4,0.1-10.5,0.1
			V3021.2z M415.8,3024.2v4.1c2.4-0.3,6.9,1,7-2.1C422.5,3023.1,418.4,3024.5,415.8,3024.2L415.8,3024.2z M415.8,3031.3v4.8
			c2.1-0.2,5.8,0.6,7.1-0.8C425.3,3030.8,418.9,3031.2,415.8,3031.3z"/>
	</g>
	<g class="st6">
		<path d="M452.1,3023.7c-2.6,8.1-6.4,14-14.6,17.4c-0.7-1.2-1-1.7-2.1-2.6c6.6-2.5,10.7-6.7,12.8-13.4c-10.7-0.4-6.1,0.7-13.3,6.5
			c-0.8-1-1.1-1.3-2.4-2.1c3.3-2.3,6.9-6.4,7.8-10.5l3.4,0.7c-0.4,0.6-0.8,2-1.4,2.9c1.8-0.3,6.8,0,8.5-0.4L452.1,3023.7z"/>
		<path d="M463.1,3020c-0.2,2.4-0.2,8.9,0,11.3h-3.4c0.2-2.5,0.2-8.9,0-11.3H463.1z M474.4,3020c-0.2,10,1.2,18.5-10.5,21
			c-0.5-1.2-0.7-1.6-1.8-3c10.4-1.3,9.1-9.9,8.8-18.1L474.4,3020z"/>
		<path d="M493.7,3035.3c1.9-0.1,7.6,0.2,9.2-0.2v3.1c-4-0.2-17.3-0.2-21.4,0v-3.1c1.6,0.4,6.9,0.1,8.8,0.2V3025
			c-1.7,0-5.6-0.1-7,0.1v-3.1c3.7,0.3,13.8,0.4,17.5,0v3.1c-1.4-0.2-5.7-0.1-7.4-0.1v10.3H493.7z"/>
		<path d="M527.6,3021.4c-2.2,2.2-4.3,4.3-6.8,6c0,2-0.1,11.8,0.1,13.5h-3.5c0.2-1.5,0.1-9.7,0.1-11.5c-2.9,1.7-4.3,2.4-8.9,4
			c-0.5-1.3-0.8-1.7-1.7-2.8c6.4-1.6,14.2-6,17.7-11.2L527.6,3021.4z"/>
		<path d="M550.7,3023.4c-3.1,8-6.5,14.5-15.4,18.1c-0.8-1.3-1.1-1.8-2.1-2.6c3.8-1.6,6.5-3.1,9-6c-1.7-1.5-3.2-2.5-5.1-3.6l1.9-2.2
			c2.1,1.2,3.1,1.9,5,3.3c1.2-1.8,2-3.5,2.8-5.9c-11.1-0.4-6.2,0.5-13.6,6.8c-0.8-0.9-1.2-1.2-2.5-2c3.5-2.6,6.7-6.5,7.7-10.6
			l3.2,0.7c-0.3,0.3-1.2,2.2-1.4,2.6c0.4,0,0.4,0,6.5-0.1c1,0,1.5-0.1,2.2-0.3L550.7,3023.4z"/>
		<path d="M556.8,3028.3c4.3,0.3,17,0.4,21.3,0v3.5c-4-0.2-17.3-0.2-21.3,0L556.8,3028.3L556.8,3028.3z"/>
	</g>
	<g id="長方形_2592" transform="translate(926.112 1951.287)">
		<rect x="-626.1" y="542.6" class="st7" width="643.5" height="589.2"/>
		<rect x="-623.6" y="545.1" class="st8" width="638.5" height="584.2"/>
	</g>
	<path id="長方形_2593" class="st0" d="M479.7,2467.9h284.1c15.8,0,28.5,12.8,28.5,28.5l0,0c0,15.8-12.8,28.5-28.5,28.5H479.7
		c-15.8,0-28.5-12.8-28.5-28.5l0,0C451.2,2480.7,464,2467.9,479.7,2467.9z"/>
	<g class="st6">
		<path class="st1" d="M504.2,2498.1l3.5,1.1c-2.1,9.6-16.8,6.4-15.7-3.3c-1.2-9.4,12.9-13.4,15.5-4.2l-3.6,0.9
			c-1.7-5.6-9.1-2.6-8.1,3C494.8,2502,502.8,2504.4,504.2,2498.1z"/>
		<path class="st1" d="M515.3,2504.7h-3.4v-13h3.2v1.8c1.1-2.3,3.2-2.6,5.3-1.5l-1.1,3C513.9,2492.1,515.7,2501.5,515.3,2504.7
			L515.3,2504.7z"/>
		<path class="st1" d="M530.5,2500.5l3.4,0.6c-2.1,6.6-12.9,4.2-12-2.8c-0.4-9.5,13.6-8.7,12.2,1h-8.6
			C525.1,2502.5,529.9,2504,530.5,2500.5z M530.7,2497.1c0.3-3.9-5.5-4.1-5.2-0.1h5.2V2497.1z"/>
		<path class="st1" d="M540.7,2495.7l-3.1-0.6c0.7-4.5,8.4-4.9,10.6-1.8c1.2,2.9-0.3,8.4,1.3,11.3h-3.4c-0.1-0.2-0.4-1-0.4-1.4
			c-7.8,6-14.1-6-0.4-7C545.8,2493.4,541.4,2493.4,540.7,2495.7z M545.3,2498.4c-1.5,0.4-6.3,0.9-4.2,3.5
			C543.7,2503.5,545.5,2501.2,545.3,2498.4L545.3,2498.4z"/>
		<path class="st1" d="M559.2,2491.7v2.7h-2.3c0.5,2-1.6,9.3,2.4,7.3l0.3,2.7c-7.9,2.8-5.9-5.1-6.1-10h-1.6v-2.7h1.6v-2.6l3.4-2v4.6
			L559.2,2491.7z"/>
		<path class="st1" d="M562.9,2489.9v-3.2h3.4v3.2H562.9z M562.9,2504.7v-13h3.4v13H562.9z"/>
		<path class="st1" d="M574.6,2504.7l-5.2-13h3.6c0.6,1.6,2.7,7.3,3.1,8.8c0.5-1.6,2.7-7.1,3.3-8.8h3.5l-5.2,13L574.6,2504.7
			L574.6,2504.7z"/>
		<path class="st1" d="M593.7,2500.5l3.4,0.6c-2.1,6.6-12.9,4.2-12-2.8c-0.4-9.5,13.6-8.7,12.2,1h-8.6
			C588.3,2502.5,593.1,2504,593.7,2500.5z M593.9,2497.1c0.3-3.9-5.5-4.1-5.2-0.1h5.2V2497.1z"/>
		<path class="st1" d="M621,2498.1l3.5,1.1c-2.1,9.6-16.8,6.4-15.7-3.3c-1.2-9.4,12.9-13.4,15.5-4.2l-3.6,0.9
			c-1.7-5.6-9.1-2.6-8.1,3C611.6,2502,619.6,2504.4,621,2498.1z"/>
		<path class="st1" d="M628.1,2498c-0.3-8.7,13.7-8.4,13.3,0.2C641.8,2507.1,627.2,2507.2,628.1,2498z M631.6,2498.2
			c-0.5,5.2,6.9,5.2,6.4,0C638.5,2493.1,631.1,2493.1,631.6,2498.2z"/>
		<path class="st1" d="M657.2,2504.7h-3.4c-0.3-2.3,0.8-8.8-0.9-10.3c-5.7-2-3.8,7.2-4.1,10.4h-3.4v-13h3.2v1.9c2-3,7.4-3.1,8.5,0.6
			C657.5,2495.7,657.2,2503.1,657.2,2504.7L657.2,2504.7z"/>
		<path class="st1" d="M673.2,2495.5l-3.4,0.6c-0.9-3.7-5.9-1.8-5.2,1.9c-0.7,4.2,4.5,6.3,5.4,1.8l3.4,0.6c-1.4,7.4-13,5.5-12.2-2.1
			C660.4,2491.2,671.3,2488.6,673.2,2495.5z"/>
		<path class="st1" d="M677.1,2489.9v-3.2h3.4v3.2H677.1z M677.1,2504.7v-13h3.4v13H677.1z"/>
		<path class="st1" d="M692.8,2500.5l3.4,0.6c-2.1,6.6-12.9,4.2-12-2.8c-0.4-9.5,13.6-8.7,12.2,1h-8.6
			C687.4,2502.5,692.2,2504,692.8,2500.5z M693,2497.1c0.3-3.9-5.5-4.1-5.2-0.1h5.2V2497.1z"/>
		<path class="st1" d="M703.7,2504.7h-3.4v-13h3.2v1.8c1.1-2.3,3.2-2.6,5.3-1.5l-1.1,3C702.3,2492.1,704.1,2501.5,703.7,2504.7
			L703.7,2504.7z"/>
		<path class="st1" d="M711.1,2505.5l3.9,0.5c0.1,1.7,3.1,1.5,4,0.9c1.2-0.8,0.8-3,0.9-4.4c-3.3,4.7-9.7,0.8-9.2-4.4
			c-0.6-5.6,5.9-9.2,9.5-4.6v-1.8h3.2c-0.5,3.6,1.3,14.2-1.5,16.8C718.8,2511,710.7,2510.5,711.1,2505.5z M714.1,2497.9
			c-0.5,5.2,6.1,5.1,5.8,0.1C720.4,2492.9,713.8,2492.8,714.1,2497.9z"/>
		<path class="st1" d="M735.4,2500.5l3.4,0.6c-2.1,6.6-12.9,4.2-12-2.8c-0.4-9.5,13.6-8.7,12.2,1h-8.6
			C730,2502.5,734.8,2504,735.4,2500.5z M735.6,2497.1c0.3-3.9-5.5-4.1-5.2-0.1h5.2V2497.1z"/>
	</g>
	<g id="グループ_1749" transform="translate(1335.319 2267.015)">
		<path id="楕円形_183" class="st5" d="M-553,593.8c74,1.3,74,111.3,0,112.6C-627,705.1-627,595.1-553,593.8z"/>
		<path id="パス_2562" class="st1" d="M-529.2,677c18.8,11.6,46.2,17.3,45.9,43.6h-137.6c-0.6-7.6,4.5-21.6,14-26.1
			c12.1-6.2,27.6-14.8,35.9-20c-1.7,0-21,5.5-22.2-1.6c-2.7-18.8-1.5-42.2,1.7-60.5c14.1-77.2,105.1-55.8,80.2,63.9
			c-4.2,1.7-22.2-2.1-22.9-2.8C-532.6,674.9-531,676-529.2,677z"/>
		<g id="グループ_1743" transform="translate(8.293 4.167)">
			<path id="パス_2563" class="st3" d="M-603.7,687.1c5.9-3.1,22.2-11,23.2-11.2c0.3,9.2,2.5,31.6,3.9,40.7h-49.5
				C-626.8,699.4-616.9,694.8-603.7,687.1z"/>
			<path id="パス_2564" class="st3" d="M-517,687.1c-5.9-3.1-22.2-11-23.2-11.2c-0.3,9.2-2.5,31.6-3.9,40.7h49.4
				C-493.9,699.8-503.8,694.6-517,687.1z"/>
			<path id="パス_2565" class="st2" d="M-572.6,624.5c-0.6,5.4-7.5-0.4-2.2-1.9C-573.7,622.6-572.7,623.4-572.6,624.5
				L-572.6,624.5z"/>
			<path id="パス_2566" class="st2" d="M-548.1,624.5c0.6,5.4,7.5-0.4,2.2-1.9C-547,622.6-548,623.4-548.1,624.5L-548.1,624.5z"/>
			<path id="パス_2567" class="st3" d="M-557.5,566.8c46.9,8.1,37,73.2,36.1,106.2c-5,0.4-19.1-2.2-19.1-2.2s-3.7-4.3-3.7-4.3
				v-10.6c17.8-17.8,13.3-54.5-6-70c0,0-12.3,0.5-18.5,5.8s-12.5,9.1-13.9,11.8c-8.6,15.7-6.4,40.7,6.8,52.9
				c-0.7,7.2,1.7,10.8-5.7,15.4c0,0-13.4,2.2-16.4,0.2C-601.6,635.8-606.3,569.5-557.5,566.8z"/>
		</g>
		<g id="グループ_1748" transform="translate(4.394 0)">
			<path id="パス_2568" class="st2" d="M-570.8,631.7c-3.8,0.1-3.8-5.9,0-5.8C-567,625.9-567.1,631.6-570.8,631.7z M-570.8,627.6
				c-1.8,0-1.7,2.7,0.1,2.5C-569.3,630-569.2,627.7-570.8,627.6z"/>
			<path id="パス_2569" class="st2" d="M-575.6,627.7c-2.6-1.6,2.7-5.3,4.7-5.1c1.8-0.4,5.8,1.6,4.6,3.6c-0.5,0.3-0.9,0.1-1.2-0.3
				c-1.6-3.1-6.5-1.6-7.5,1.3C-575,627.5-575.3,627.7-575.6,627.7z"/>
			<path id="パス_2570" class="st2" d="M-542.1,631.7c-3.9,0.2-3.7-6.1,0.2-5.7C-538.4,626.2-538.5,631.8-542.1,631.7z
				 M-542.1,627.6c-1.6,0-1.6,2.6,0.1,2.5C-540.4,630.1-540.4,627.5-542.1,627.6C-542,627.6-542.1,627.6-542.1,627.6L-542.1,627.6z"
				/>
			<path id="パス_2571" class="st2" d="M-537.2,627.7c-0.3,0-0.6-0.2-0.7-0.5c-1-2.9-5.7-4.4-7.5-1.3c-0.4,1.1-2,0-1.3-0.7
				C-543.7,618.9-533.5,626.3-537.2,627.7z"/>
			<path id="パス_2572" class="st2" d="M-556.1,653.7c-2.6,0.4-14.3-1.8-9.5-3.4c4.3,2.2,15.6,2.7,21.2-0.9
				c0.3-0.3,0.8-0.2,1.1,0.1C-543.2,652.9-552.6,653.6-556.1,653.7z"/>
			<path id="パス_2573" class="st2" d="M-557.3,645.2c-1.2-0.1-2.3-0.7-3.1-1.6c-0.4-2.6,2-0.1,3.1,0
				C-556.2,643.6-556.2,645.2-557.3,645.2L-557.3,645.2z"/>
			<path id="パス_2574" class="st2" d="M-555.4,658.3c-1.4-0.1-5.3-0.5-4.5-2.5c1.8-0.4,3.8,1.8,6.1,0.7c0.4-0.2,0.9,0,1,0.5
				C-552.4,658.4-554.6,658.2-555.4,658.3z"/>
			<path id="パス_2575" class="st2" d="M-536,614.8c-2.5-2.1-9.6-3-12.8-1.9c-0.4,0.1-0.9-0.2-0.9-0.6
				C-549.9,609-531.3,612-536,614.8L-536,614.8z"/>
			<path id="パス_2576" class="st2" d="M-577.5,614.8c-4.4-3.1,14.4-5.9,13.7-2.5c-0.1,0.3-0.5,0.5-0.9,0.5
				C-568,611.8-575.1,612.5-577.5,614.8z"/>
			<g id="グループ_1744" transform="translate(45.023 80.157)">
				<path id="パス_2577" class="st2" d="M-603,588.5c-11.6-1.2-24.7-16.6-22.3-21.6c2.8,4.8,9.9,18.7,22.5,20
					C-602,587.1-602.1,588.6-603,588.5L-603,588.5z"/>
				<path id="パス_2578" class="st2" d="M-599.9,588.5c-0.9,0-1-1.6,0-1.6c12.7-1.4,19.5-15.4,22.4-20.2
					C-575.1,571.7-588.5,587.5-599.9,588.5L-599.9,588.5z"/>
			</g>
			<g id="グループ_1747" transform="translate(0 96.076)">
				<g id="グループ_1745">
					<path id="パス_2579" class="st2" d="M-572.4,575.3c-1.9-1.3-0.2-5.2-0.7-7.8c0.1-1,1.9-0.8,1.6,0.4
						C-571.9,570.6-570.7,573.8-572.4,575.3z"/>
					<path id="パス_2580" class="st2" d="M-625.3,625.3c-6.2-28.3,34.8-34.8,50.4-48.9c0.9-0.7,1.7,0.7,1,1.2
						c-10.1,10-36.4,16.4-46.5,29.5C-624.5,613.5-623.5,623.5-625.3,625.3z"/>
					<path id="パス_2581" class="st2" d="M-557.5,583.3C-557.6,583.3-557.6,583.3-557.5,583.3c-2.3,0.9-18.8-7.6-12.8-8
						c2.3,3.1,8.6,5.9,12.8,6.4C-556.7,581.8-556.7,583.3-557.5,583.3L-557.5,583.3z"/>
					<path id="パス_2582" class="st2" d="M-564.2,595.2c-4.9,1.8-14.2-18.3-9.4-15.3c1.1,3.5,6.1,18.2,11.7,12.3
						c1.9-2.2,1.7-7.1,3.9-8.1c1.4,1.8-2.7,11.4-5.8,11.2C-563.8,595.2-564,595.2-564.2,595.2z"/>
					<path id="パス_2583" class="st2" d="M-572.8,625.3c-1.7,0.3-6.1-39.6-3.8-43.1c2,7.6,2.7,37.4,4.6,42.1
						C-571.9,624.8-572.3,625.4-572.8,625.3L-572.8,625.3z"/>
					<path id="パス_2584" class="st2" d="M-581.8,625.3c-2.4-2.2-5.1-16.4-5.9-18c1.1-2.7,3.9-4.8,5.8-7c-0.4-0.6-7.8-4.1-6.5-5.2
						l8.3-11.6c0.7-0.7,1.7,0.1,1.3,0.9c0,0-7.8,10.9-7.8,10.9c10.8,6.5,6.4,3.7,0.5,11.9c0.7,2.5,3.9,14.4,5,17
						c0.2,0.4,0,0.9-0.4,1C-581.6,625.3-581.7,625.3-581.8,625.3z"/>
				</g>
				<g id="グループ_1746" transform="translate(69.971)">
					<path id="パス_2585" class="st2" d="M-610.4,575.3c-1.2,0.8-1.7-9.2-0.1-8.4C-609.4,566.4-609.2,576.1-610.4,575.3
						L-610.4,575.3z"/>
					<path id="パス_2586" class="st2" d="M-557.6,625.3c-1.9-1.3-0.9-12.3-5.1-18.3c-10.2-12.8-36.7-19.6-46.5-29.4
						c-0.8-0.8,0.5-1.9,1.2-1C-592.5,590.4-551.3,597.4-557.6,625.3L-557.6,625.3z"/>
					<path id="パス_2587" class="st2" d="M-625.3,583.3c-0.9,0-1-1.6,0-1.6c4-0.5,10.4-3.3,12.7-6.3c0.5-1,2.1,0.1,1.3,0.9
						C-614,579.8-620.8,582.8-625.3,583.3C-625.2,583.3-625.3,583.3-625.3,583.3z"/>
					<path id="パス_2588" class="st2" d="M-618.6,595.2c-3.5,1.9-9.6-13.8-5.3-10.7c4,17.9,11.7,4.9,14.6-4.5
						C-604.6,575.3-613.3,597.1-618.6,595.2z"/>
					<path id="パス_2589" class="st2" d="M-610.1,625.3c-0.5,0-0.9-0.5-0.8-1c1.9-4.8,2.6-34.6,4.6-42.1
						C-604.1,585.9-608.4,625.2-610.1,625.3z"/>
					<path id="パス_2590" class="st2" d="M-601,625.3c-0.5,0-1-0.6-0.7-1.1c1.1-2.6,4.4-14.4,5-17c-5.9-8.3-10.2-5.4,0.5-11.9
						c0-0.6-9.5-11.6-7.5-12c0.3-1.4,11,13.2,9.1,12.9l-6.3,4.1c1.9,2.2,4.7,4.3,5.8,7C-595.9,609-598.6,623.2-601,625.3z"/>
				</g>
			</g>
			<path id="パス_2591" class="st2" d="M-556.6,721.4c-2.1-1.6-0.5-11.1-1-16.1c0-1,1.6-1,1.6,0l0,0
				C-556.5,713.6-554.7,720.5-556.6,721.4C-556.5,721.4-556.5,721.4-556.6,721.4z"/>
			<path id="パス_2592" class="st2" d="M-556.8,702.8c-0.5,0-0.9-0.5-0.8-1.2c0.6-8.3-1.1-15.7,1-17.9c2,2.1,0,9.9,0.6,18.3
				C-556,702.5-556.3,702.8-556.8,702.8z"/>
			<path id="パス_2593" class="st2" d="M-580.6,610.7c-5.3-4.3,35.1-28.6,32.5-20.1C-556.7,590-574.9,603.3-580.6,610.7z"/>
			<path id="パス_2594" class="st2" d="M-581,655.7c-6.3-9-4.4-37.3-0.5-42.7c0.3,7.7-4.8,30.3,1.3,41.6
				C-579.9,655.1-580.4,655.9-581,655.7L-581,655.7z"/>
			<path id="パス_2595" class="st2" d="M-530.8,645.2c-0.5,0.1-0.9-0.4-0.8-0.9c4.4-17.7-1.9-40.8-14-54.2
				C-533.4,593.1-524,634.5-530.8,645.2z"/>
			<path id="パス_2596" class="st2" d="M-588.5,588.7c6.5-21.9,41.3-27.5,51.9-16c0.4,0.8-0.6,1.7-1.3,1
				C-552,563.2-573.9,567.4-588.5,588.7z"/>
			<path id="パス_2597" class="st2" d="M-512.8,628.6c-2.9-33-6.6-38.1-21.6-53.5C-524.7,575.4-508.1,608-512.8,628.6
				L-512.8,628.6z"/>
			<path id="パス_2598" class="st2" d="M-597.5,673.9c-6.3-17.2,0.3-81.4,8.1-82.6C-597.5,608-599.6,647.9-597.5,673.9
				C-597.4,673.9-597.4,673.9-597.5,673.9z"/>
			<path id="パス_2599" class="st2" d="M-590.4,677.2c-2.6-2-6.3-29.3-3.5-34.6c0.5,0,0.9,0.5,0.8,1c-0.7,9.1,1.2,27,3.4,32.6
				C-589.4,676.7-589.8,677.3-590.4,677.2z"/>
			<path id="パス_2600" class="st2" d="M-585.4,675.2c-1.2-0.1-3.7-9.2-1.5-9.2c1.5,1,0.7,5,1.8,6.8c0.6-0.4,3.7-6.9,4.4-3.8
				c0,1.6,0.7,3.2,1.9,4.3c0.3,0.3,0.4,0.8,0.1,1.1c-1.6,1.1-3-2.1-3.3-3.3C-582.4,671.5-584.7,675.4-585.4,675.2z"/>
			<path id="パス_2601" class="st2" d="M-515.6,677.2c-0.6,0-0.9-0.6-0.8-1.1c2.6-6.8,2.7-31.8,2.8-41.2c0.2-1.4-0.6-3,0.8-3.4
				C-510.8,637.9-512.4,674-515.6,677.2z"/>
			<path id="パス_2602" class="st2" d="M-521.1,677.2c-0.5,0-1-0.7-0.7-1.1c2.3-5.2,2.5-20.6,2-27.7c-0.1-0.4,0.2-0.9,0.6-0.9
				c0.5-0.1,1,0.3,0.9,0.8C-518.1,655.2-517.4,672.2-521.1,677.2z"/>
			<path id="パス_2603" class="st2" d="M-525.9,674.2C-526,674.2-526,674.2-525.9,674.2c-2-1.7-2.1-5.5-4.3-7.4
				c-0.1,1.5-1.5,7.6-4.2,6.2c-0.2-0.3-0.1-0.7,0.1-1c2.9-2.2,2.5-7.4,2.5-7.4c1.3-2.9,5,5.1,5.7,6.4c1.1-3.9,0.6-8,0-11.9
				C-523.4,653.5-522.9,673.8-525.9,674.2z"/>
			<path id="パス_2604" class="st2" d="M-576.4,671.8c-1.6,0.3-3.8-15.4-0.7-11.4C-577.7,663.2-574.6,670.6-576.4,671.8z"/>
			<path id="パス_2605" class="st2" d="M-570.4,638.8c-6.3,0.7-11.3-2.1-11.5-7.9c-0.1-2.1-0.2-7.1,3.5-8.2
				c0.8-0.2,1.3,1.3,0.4,1.6c-4,1.9-3.4,12.3,2.8,12.8c4.8,0.2,13.5,1.1,13.3-5.7c0-5.8-0.5-6.2-2.3-6.8c-0.9-0.4-0.4-1.6,0.5-1.5
				c3.1,0.9,3.5,2.5,3.5,8.3C-559.8,636.9-565.4,639.1-570.4,638.8z"/>
			<path id="パス_2606" class="st2" d="M-542.6,638.8c-5,0.3-10.6-2-10.2-7.5c0-5.8,0.4-7.3,3.5-8.3c1.1-0.6,1.5,1.5,0.4,1.4
				c-1.9,0.6-2.3,1-2.3,6.8c-0.3,5.9,6.8,6.3,11.4,5.8c7.3,1.3,9.5-10.5,4.7-12.9c-0.9-0.4-0.6-1.8,0.4-1.5c3.7,1,3.6,6,3.5,8.2
				C-531.5,636.8-536.2,639.2-542.6,638.8z"/>
			<path id="パス_2607" class="st2" d="M-558.8,628.5c-3.1-2,3.9-2.4,5.1-1.6c0.9,0.4,0.5,1.8-0.5,1.5
				C-555.7,627.8-557.4,628-558.8,628.5z"/>
			<path id="パス_2608" class="st2" d="M-581,628.8c-0.8-0.2-5.3,0.6-5.5-0.7c-0.1-1.7,4.7-0.6,5.5-0.9
				C-579.9,627.2-579.9,628.8-581,628.8z"/>
			<path id="パス_2609" class="st2" d="M-527.4,628.8c-0.8-0.2-5.3,0.6-5.5-0.7c-0.1-1.7,4.7-0.6,5.5-0.9
				C-526.5,627.2-526.4,628.6-527.4,628.8z"/>
			<path id="パス_2610" class="st2" d="M-587.6,611.4c-3.4-13.6,19.6-35.1,30.3-33.5C-570.7,583.6-583.9,592.9-587.6,611.4z"/>
			<path id="パス_2611" class="st2" d="M-566.4,590.6c-4.6-2.8,20.9-12.2,21.9-7.1c-0.1,0.5-0.6,0.7-1.1,0.6
				C-551.5,582.2-561,586.5-566.4,590.6z"/>
			<path id="パス_2612" class="st2" d="M-522.2,622.2c-0.4,0-0.8-0.3-0.8-0.8c0.2-8.9-5-20.1-6.2-26.1
				C-526.8,593.6-519.3,620.1-522.2,622.2L-522.2,622.2z"/>
		</g>
	</g>
	<g>
		<g id="グループ_1725" transform="translate(631.762 2157.955)">
			<path id="楕円形_180" class="st0" d="M-10.5,76.3c75.2,1.3,75.2,113.1,0,114.4C-85.7,189.4-85.7,77.6-10.5,76.3z"/>
			<path id="パス_2463" class="st1" d="M6.7,155.3c17.3,16,54.9,20.5,53.6,49.8H-79.5c-0.7-7.5,4.7-22.1,14.3-26.5
				c13-6.6,26.4-14.4,36.4-20.3c12-13.8-18.8,12.9-25.6-20.6c-0.8-2.5,2.1-13.7,3.9-18.3c4.4-18.1-10.2-21.3,8.9-42.2
				C-45.9,52.5-2,43.1,10.7,57.7c21.6,4.5,17,28,19.3,43.8c0.7,11.5,7.8,22.9,4.5,34.8c-1.3,11.2-16.6,19.2-27.9,15.2
				C7,155.2,6.7,155.3,6.7,155.3z"/>
			<g id="グループ_1719" transform="translate(3.958 3.813)">
				<path id="パス_2464" class="st3" d="M-57.6,171.4c6-3.1,22.5-11.2,23.6-11.4c0.3,9.4,2.5,32.1,3.9,41.3h-50.2
					C-81,183.8-71,179.3-57.6,171.4z"/>
				<path id="パス_2465" class="st3" d="M30.5,171.4c-6-3.1-22.5-11.2-23.6-11.4c-0.3,9.4-2.5,32.1-3.9,41.3h50.2
					C53.9,183.8,43.9,179.3,30.5,171.4z"/>
				<path id="パス_2466" class="st2" d="M-1.1,108.1c1.2,5.7,7.9-1,2.2-2.2C-0.1,105.9-1.1,106.9-1.1,108.1L-1.1,108.1z"/>
				<path id="楕円形_181" class="st2" d="M-28.5,105.9c2.9,0,2.9,4.4,0,4.4C-31.4,110.3-31.4,105.9-28.5,105.9z"/>
				<path id="パス_2467" class="st3" d="M-24.4,50.8c-8.6,2.6-21.5,13.4-18.5,23.4c-8.7,9.4-13.5,18.7-7.6,30.8
					c0.6,9.2-5,16.6-4.9,26.6c2.3,14.7,10.4,24.4,25.8,18.5c0-1.7,1-9.2,1-9.2c-13.4-11.6-20-43.3-5.7-57.1
					c5.5-5.9,4.4-14.3,7.2-20.5c5.4-5,14.3-4.6,18,1.9c26.5,1.9,9.7,17,17.7,31.4c11.2,13.2,4.1,33.4-6.6,43.8l0.6,8.3
					c36.5,3.7,22.1-33.8,20.3-55.5c-0.2-2.9-1.9-21.3-4.5-26.3C10,55-9.7,45.8-24.4,50.8z"/>
			</g>
			<g id="グループ_1724" transform="translate(0 0)">
				<path id="パス_2468" class="st2" d="M5.1,115c-7.7-1.6,1.5-10.7,3-3C8.2,113.6,6.8,115,5.1,115z M5.1,110.5
					c-3.6,0.7,0.7,5,1.4,1.4C6.5,111.1,5.9,110.5,5.1,110.5z"/>
				<path id="パス_2469" class="st2" d="M10.3,110.3c-2-2.7-6.7-4.8-8.8-0.8c-0.5,1-2,0.3-1.5-0.7c1.8-4.2,8.1-4,10.5-0.5l1.2-0.7
					c0.9-0.5,1.7,0.9,0.8,1.4C12.2,109.1,10.6,110.4,10.3,110.3z"/>
				<path id="パス_2470" class="st2" d="M-24.5,115c-7.7-1.6,1.5-10.7,3-3C-21.5,113.6-22.9,115-24.5,115z M-24.5,110.5
					c-3.6,0.7,0.7,5,1.4,1.4C-23.1,111.1-23.7,110.5-24.5,110.5z"/>
				<path id="パス_2471" class="st2" d="M-29.7,110.3c-0.3,0.1-2-1.1-2.3-1.2c-0.9-0.5-0.1-1.9,0.8-1.4c0,0,1.2,0.7,1.2,0.7
					c2.5-3.6,8.7-3.6,10.5,0.5c0.2,0.4,0,0.9-0.4,1.1s-0.9,0-1.1-0.4C-23.3,105.7-27.6,107.5-29.7,110.3L-29.7,110.3z"/>
				<path id="パス_2472" class="st2" d="M-9.2,137.1c-2.5,0.5-13.6-2.1-8.7-3.4c4.1,2.2,14.3,2.8,19.6-0.9
					c0.4-0.2,0.9-0.1,1.1,0.2C1.8,136.6-5.2,136.8-9.2,137.1z"/>
				<path id="パス_2473" class="st2" d="M-10.4,127.7c-1.2,0-4.2-1.4-2.9-2.7c0.4-0.3,0.9-0.2,1.1,0.2c0.5,0.5,1.1,0.9,1.8,0.9
					C-9.4,126.1-9.4,127.7-10.4,127.7z"/>
				<path id="パス_2474" class="st2" d="M-8.5,141.8c-1.4-0.1-5.3-0.5-4.7-2.5c0.3-0.3,0.8-0.4,1.1-0.1c1.5,1,3.4,1.3,5.1,0.8
					c0.4-0.2,0.9,0,1.1,0.4C-5.4,141.8-7.6,141.7-8.5,141.8z"/>
				<path id="パス_2475" class="st2" d="M12.7,96.5c-8-8.7-15.6,1-14.3-3.3c3.2-3.3,14.8-2.5,14.7,3.2
					C13,96.4,12.9,96.5,12.7,96.5L12.7,96.5z"/>
				<path id="パス_2476" class="st2" d="M-32.7,96.8c-3.8-2.5,10.9-9.1,16-3.9c0.9,0.4,0,2-0.9,1.3
					C-22.4,90.8-28.1,92.7-32.7,96.8z"/>
				<g id="グループ_1720" transform="translate(45.713 80.849)">
					<path id="パス_2477" class="st2" d="M-56.8,71.5C-56.9,71.5-56.9,71.5-56.8,71.5c-12,0.7-28.9-24.7-21.9-21.5
						c1.2,5.1,10.4,18.5,22,19.8C-55.7,70-55.9,71.5-56.8,71.5L-56.8,71.5z"/>
					<path id="パス_2478" class="st2" d="M-53.7,71.5c-0.9,0-1.1-1.4-0.1-1.6c13.1-1.4,19.8-15.9,23-20.4
						C-29.7,55.4-41.4,69.8-53.7,71.5L-53.7,71.5z"/>
				</g>
				<g id="グループ_1723" transform="translate(0 97.011)">
					<g id="グループ_1721">
						<path id="パス_2479" class="st2" d="M-25.8,58c-1.9-1.3-0.1-5.2-0.6-7.8c0.1-1,1.6-0.9,1.6,0.1l0,0
							C-25.3,53-23.9,56.7-25.8,58z"/>
						<path id="パス_2480" class="st2" d="M-79.5,108.8c-0.5,0-0.8-0.4-0.8-0.8l0,0c0.6-18.7,8.1-24.8,27.4-34.4
							c7.2-3.9,21.4-10.5,24.5-14.2c0.7-0.9,1.9,0.2,1.3,0.9C-43.2,74.2-80.6,80.7-79.5,108.8z"/>
						<path id="パス_2481" class="st2" d="M-10.7,66.2C-10.7,66.2-10.8,66.2-10.7,66.2c-4.6-0.5-11.4-3.6-14.1-7
							c-0.7-0.9,0.9-1.8,1.3-0.9c2.3,3,8.8,5.9,12.9,6.4C-9.7,64.7-9.6,66.2-10.7,66.2L-10.7,66.2z"/>
						<path id="パス_2482" class="st2" d="M-17.5,78.3c-6.1,0.1-9.6-10.9-11.1-15.1c1.8-5.9,6,20.1,13.5,12c1.8-2.1,1.9-7.5,4-8.4
							C-9.2,68.3-14.2,79.2-17.5,78.3z"/>
						<path id="パス_2483" class="st2" d="M-26.2,108.8c-1.7,0.2-6.2-40.1-3.9-43.8c1.4,8.4,4.1,38.7,4.1,43.8
							C-26,108.8-26.1,108.8-26.2,108.8z"/>
						<path id="パス_2484" class="st2" d="M-35.3,108.8c-2.5-2.2-5.2-16.6-6-18.3c1.1-2.7,3.9-4.9,5.9-7.1c-0.4-0.6-7.9-4-6.6-5.2
							c0.4,0.2,10.3-16.6,9.7-10.9l-8,11.1c10.7,6.6,6.7,3.7,0.5,12.1c0.7,2.6,4,14.6,5.1,17.2C-34.5,108.1-34.8,108.8-35.3,108.8
							L-35.3,108.8z"/>
					</g>
					<g id="グループ_1722" transform="translate(71.043)">
						<path id="パス_2485" class="st2" d="M-64.4,58c-1.9-1.4-0.4-5-0.9-7.8c-0.1-1,1.7-1,1.6,0C-64.2,52.9-62.3,56.8-64.4,58
							L-64.4,58z"/>
						<path id="パス_2486" class="st2" d="M-10.7,108.8c-2-1.7-0.9-12.4-5.2-18.7C-26.4,77.3-53,70.2-63,60.3
							c-0.7-0.8,0.5-1.8,1.2-1C-46.1,73.2-4.3,80.7-10.7,108.8C-10.6,108.8-10.6,108.8-10.7,108.8L-10.7,108.8z"/>
						<path id="パス_2487" class="st2" d="M-79.5,66.2c-0.9,0-1.1-1.5-0.1-1.6c4.1-0.5,10.6-3.4,12.9-6.4c0.3-0.4,0.8-0.4,1.1-0.2
							C-65.3,62.3-75.6,65.6-79.5,66.2C-79.4,66.2-79.5,66.2-79.5,66.2z"/>
						<path id="パス_2488" class="st2" d="M-72.7,78.3c-3.6,1.9-9.6-14.4-5.4-10.8c1.1,4,3.4,12.8,8.8,7.8
							c1.7-1.6,5.8-10.3,6.1-12.2c0.2-1,1.6-0.8,1.6,0.2C-63.1,67.5-66.6,78.4-72.7,78.3z"/>
						<path id="パス_2489" class="st2" d="M-64,108.8c-0.5,0-0.9-0.4-0.8-1c1.9-4.9,2.6-35.1,4.7-42.8
							C-57.9,69.1-62.1,108.4-64,108.8z"/>
						<path id="パス_2490" class="st2" d="M-54.9,108.8c-0.5-0.1-1-0.6-0.7-1.2c1.1-2.6,4.4-14.7,5.1-17.2
							c-6.1-8.3-10.3-5.5,0.5-12.1c0.1-0.5-9.6-12-7.7-12.2c0.4-0.3,0.9-0.2,1.1,0.2c-0.1,0.5,10.2,12.7,8.2,12.9l-6.3,4.2
							c2,2.3,4.8,4.4,5.9,7.1C-49.7,92.2-52.3,106.8-54.9,108.8z"/>
					</g>
				</g>
				<path id="パス_2491" class="st2" d="M-9.7,205.8c-2.1-1.4-0.5-11.4-1-16.4c0-1,1.6-1,1.6,0l0,0
					C-9.7,198.3-7.8,204.3-9.7,205.8L-9.7,205.8z"/>
				<path id="パス_2492" class="st2" d="M-9.9,187c-0.5,0-0.9-0.5-0.8-1.2c0.7-7.4-1.5-20,1.8-17.4l0,0c-0.1,2.1-0.2,9.9-0.2,17.7
					C-9.1,186.6-9.5,187-9.9,187z"/>
				<path id="パス_2493" class="st2" d="M16.8,126.4c-0.5,0-0.9-0.6-0.8-1.1c3.1-7.9,2.2-14.1-3.3-23c-0.5-1.2-2.5-3.1-1.2-4.2
					C18.5,105.7,22,118.6,16.8,126.4z"/>
				<path id="パス_2494" class="st2" d="M10.2,90.9c-0.5,0-0.8-0.4-0.8-0.8l0,0C11.3,80.6,10,70.4-2,70.3c-0.4,0-0.8-0.4-0.8-0.8
					c5.7-3.2,14.8,4.4,14.7,11C11.4,82.4,11.6,90.7,10.2,90.9z"/>
				<path id="パス_2495" class="st2" d="M-38.6,154.2c-6.6-8.3,3.5-16.3,0-25.2c-2.1-5.8-3.4-16.5-1.9-22.5
					c1.8-7.5,5.4-14.5,10.4-20.4c7-7.8,0.2-19,11.1-22.8C-15.3,62-7.3,63-6.7,66.4c-0.3,0.4-0.8,0.5-1.1,0.2
					c-2.5-1.7-6.9-3-10.6-1.8c-10.3,4.2-2.7,14.5-10.4,22.3c-4.8,5.7-8.3,12.5-10.1,19.8c-1.4,5.6-0.2,16,1.8,21.6
					c3,10.7-4.3,14.2-1,25.7C-38.3,154.2-38.4,154.2-38.6,154.2L-38.6,154.2z"/>
				<path id="パス_2496" class="st2" d="M-32,152.3c-2.8,0.6-4-16.5-0.9-11.6c-0.2,2.2-0.6,7.9,1.5,10.3
					C-30.9,151.4-31.3,152.4-32,152.3L-32,152.3z"/>
				<path id="パス_2497" class="st2" d="M-42.5,155.9c-26.5-17.6-2.3-35.3-8.8-49.7c-7.3-9.9,9-33.4,8.4-26.9
					c-19.4,24.9,1.7,20.9-9,45.8C-59.5,143.5-43.7,151-42.5,155.9z"/>
				<path id="パス_2498" class="st2" d="M17.8,152.3c-1,0-1.1-1.6,0-1.6c13.8,1.7,19.9-22.9,14.7-33.8c-7.6-18,1.2-52.7-19.1-58
					c-0.8-0.4-0.3-1.9,0.7-1.3c11.9,6.5,14.8,9,15.8,36.2c0,21.4,7.8,20.8,5.4,39.1C33.1,144.1,29.3,151.7,17.8,152.3L17.8,152.3z"
					/>
				<path id="パス_2499" class="st2" d="M-41.5,76.6C-49.8,55.7-4.6,40.4,8.9,55.2c0.8,0.7-0.3,1.8-1,1.2
					C-6.9,42.3-43.6,56.7-41.5,76.6C-41.4,76.6-41.4,76.6-41.5,76.6z"/>
				<path id="パス_2500" class="st2" d="M11.9,148.8c-4-4.3,4.8-8.4,5.3-12.7c0.3-1,1.8-0.7,1.6,0.4c-0.7,4.5-7.1,7-6.2,11.3
					C12.7,148.2,12.5,148.7,11.9,148.8C12.1,148.8,12,148.8,11.9,148.8z"/>
				<path id="パス_2501" class="st2" d="M23.2,133.6c-0.5,0-1-0.8-0.7-1.2c3.8-5.7,2.9-18.2,1.1-24.9c-0.1-0.4,0.1-0.9,0.6-1
					C28,110.8,27.9,129.5,23.2,133.6z"/>
				<path id="パス_2502" class="st2" d="M21.2,100.4c-2.9-1.4-6-17-2.5-21.5c0.4,0.1,0.7,0.4,0.7,0.8c-1.1,8.4-0.3,14.8,2.4,19.5
					C22.1,99.7,21.8,100.4,21.2,100.4L21.2,100.4z"/>
				<path id="パス_2503" class="st2" d="M-44.4,104c-3.4-2.6,5.2-22.8,10.2-21.1c0.2,0.5,0,1-0.4,1.2c-5.6,3.8-8.8,12.5-9,19.2
					C-43.6,103.6-44,104-44.4,104z"/>
				<path id="パス_2504" class="st2" d="M-46.7,145.4c-4.9-2.5-1.2-29.7,1.3-23.6c-1.4,6.4-3.9,13.9-0.6,22.7
					C-45.8,144.9-46.1,145.5-46.7,145.4z"/>
				<path id="パス_2505" class="st2" d="M-27.5,61.9c-0.7,0-1.1-1.1-0.5-1.4C-18.3,50.9,6.6,58-0.1,60
					C-3.9,57-17.4,54.5-27.5,61.9z"/>
			</g>
		</g>
		<g class="st6">
			<path d="M314.4,2213.4c-1.2,0-2,0.1-2.8,0.2v-2.7c1.6,0.3,8.1,0.2,10,0.2c0-0.9-0.1-1.4-0.2-2h3c-0.1,0.6-0.2,1.2-0.2,2
				c1.9-0.1,8.7,0.2,10.4-0.2v2.7c-1.7-0.3-8.5-0.2-10.4-0.2v1.2c1.6,0,6.9,0.1,8.3-0.1c-0.2,2.5-0.2,6.8,0,9.3
				c-0.8-0.1-1.2-0.1-2.6-0.1v1.2c1.4,0,3.7,0.1,4.8-0.2v2.7c-1.5-0.2-3.3-0.2-4.8-0.2c0.3,5.3-0.1,6.1-6,5.6
				c-0.2-1.2-0.4-1.8-0.8-2.7c3.9,0.3,4.2,1.1,4-3c-2.1,0.1-13.8-0.2-15.7,0.2v-2.7c1.7,0.4,13.6,0.1,15.6,0.2v-1.2
				c-1.8,0-11.9-0.1-13.5,0.1c0.2-2.5,0.2-6.8,0-9.3c1.3,0.2,6.3,0.1,7.8,0.1v-1.2h-6.9V2213.4z M319.9,2232.6
				c-1.5-1.7-2.1-2.3-3.6-3.4l2.1-1.7c1.7,1.1,2.7,2,3.7,3.2L319.9,2232.6z M316.6,2216.8v1.4h5v-1.4H316.6z M316.6,2220.2v1.4h5
				v-1.4H316.6z M324.3,2218.2h5.4v-1.4h-5.4V2218.2z M324.3,2221.6h5.4v-1.4h-5.4V2221.6z"/>
			<path d="M342.9,2222.6c0-0.7,0-1,0.1-3c-0.6,1-1.3,1.9-2.1,2.8c-0.3-1.1-0.7-2.1-1.2-3.1c2.3-2,5-7.1,5.5-10.3l2.9,0.9
				c-3.4,5.2-2.6,17.4-2.3,23.2h-3.1C343,2231,342.9,2224.8,342.9,2222.6L342.9,2222.6z M353.9,2214.7c-3.5,0.4-5.2,2.2-6.5-1.9
				c5.9-0.5,11.6-1.8,13.9-3.3l1.9,2.5c-6.6,2.7-6.8-0.2-6.5,7.7c1.8,0,5.8,0.1,7.4-0.2v3c-1.6-0.3-5.6-0.2-7.4-0.2v6.9
				c1.7,0,5.2,0.1,6.6-0.2v2.9c-3.7-0.3-12-0.3-15.7,0v-2.9c1.3,0.2,4.6,0.2,6.2,0.2v-6.9c-1.8,0-5.5-0.1-7.1,0.2v-3
				c1.5,0.3,5.4,0.2,7.1,0.2L353.9,2214.7L353.9,2214.7z"/>
			<path d="M373.6,2229.8c-1.8,0-2.4,0-3.2,0.1v-3.4c1.8,0.4,12.8,0.1,15,0.2v-11.3c-2.3,0-12.8-0.1-14.7,0.1v-3.4
				c3.4,0.4,14.6,0.2,18.2,0.1c-0.2,3.3-0.2,16,0,19.2h-3.5v-1.6H373.6z"/>
			<path d="M396.7,2228c8-0.4,15.5-5.6,18.1-13.5c1,1.2,1.4,1.6,2.8,2.5c-4,9.1-10.5,12.6-19.8,14.5L396.7,2228z M398.9,2211.8
				c3.1,1.9,4.7,3.1,6.7,5l-2.2,2.8c-2.1-2.2-4.2-3.9-6.6-5.3L398.9,2211.8z"/>
			<path d="M425,2216.7c2.7,1.1,4.7,2.1,6.9,3.5l-1.6,2.9c-2.1-1.5-4.4-2.8-7-3.8L425,2216.7z M423.8,2228.4
				c7.5-0.1,15.8-5.3,18-13.1c1.1,1.1,1.5,1.5,2.7,2.3c-3.4,8.8-10.1,12.7-19.8,14.4L423.8,2228.4z M427,2210.4c2.7,1,4.7,2,6.9,3.4
				l-1.7,2.9c-2.4-1.6-4.7-2.8-6.9-3.6L427,2210.4z"/>
			<path d="M461.3,2228.8c1.6-0.1,6.4,0.2,7.7-0.2v2.9c-3.2-0.2-15-0.2-18.2,0v-2.9c1.3,0.3,6,0.2,7.5,0.2v-8.4
				c-1.6,0.1-4.4-0.2-5.9,0.2v-3c3,0.3,12,0.3,15,0v2.9c-1.1-0.2-4.7-0.1-6.1-0.1V2228.8z"/>
			<path d="M483.4,2210.9c-0.2,5.7-0.4,17.4-6,21.3c-1-1.3-1.4-1.7-2.6-2.5c5.1-4.1,5.4-10.4,5.1-19L483.4,2210.9z M490.3,2210.6
				c-0.4,1.3-0.2,15.6-0.3,17.3c3.5-1.7,5.4-4.1,6.5-7.8c5.8,4.5-3.5,10.4-8.3,12.1c0,0-1.7-1.8-1.7-1.8c0.4-3.5,0.3-16.4,0.2-20
				L490.3,2210.6z"/>
			<path d="M505.6,2216.9c2.4,1,5,2.3,6.9,3.5l-1.6,2.9c-1.7-1.3-4.7-2.9-7-3.8L505.6,2216.9z M504.5,2228.6
				c7.5-0.2,15.6-4.8,18-13.2c1,1.1,1.5,1.5,2.7,2.3c-3.2,8.5-10.3,12.8-19.8,14.4L504.5,2228.6z M507.6,2210.6
				c2.4,0.9,5,2.2,6.9,3.4l-1.7,2.9c-2.1-1.4-5-3-6.9-3.6L507.6,2210.6z M521.1,2210.1c1.1,1.2,1.8,2.2,2.7,3.8l-1.8,1
				c-0.9-1.6-1.6-2.6-2.7-3.9L521.1,2210.1z M525.2,2213.3c-0.8-1.4-1.6-2.7-2.7-3.8l1.7-0.9c1.2,1.2,1.9,2.2,2.7,3.7L525.2,2213.3z
				"/>
			<path d="M547,2228.8c1.2,0,1.7,0,2.4-0.2v3c-3.2-0.2-15.1-0.2-18.3,0v-3c1.4,0.4,8.5,0.2,10.1,0.2c0.4-2.3,1-6,1.2-8.3
				c-1.6,0-7.4-0.1-8.7,0.1v-2.9c12.9,1.3,13.4-4,10.6,11.2h2.7L547,2228.8L547,2228.8z"/>
		</g>
		<g id="グループ_1742" transform="translate(800.604 2444.355) rotate(180)">
			<path id="パス_2560-2" class="st9" d="M100.6,133.5l-10.9-3.6v-17c0-12-14.9-21.7-20.4-21.7H-59.9c-5.5,0-20.1,9.7-20.1,21.7
				v50.2c0,12,14.6,21.7,20.1,21.7H69.4c5.5,0,20.4-9.7,20.4-21.7v-17.4l10.9-3.6"/>
			<path id="パス_2561-2" d="M101.2,133.6c0,0.7-0.4,1.6-0.8,1.4c0,0-10.9-3.6-10.9-3.6c-0.3-0.1-0.6-0.7-0.6-1.4v-16.5
				c0-11.1-14.6-20.1-19.7-20.1H-59.9c-5.1,0-19.4,9-19.4,20.1c0,0,0,49.1,0,49.1c0,11.1,14.3,20.1,19.4,20.1c0,0,129.2,0,129.2,0
				c5.1,0,19.7-9,19.7-20.1c0.3-0.9-0.7-18.3,0.6-18.3c0,0,10.9-3.6,10.9-3.6c1-0.2,1,2.7,0.2,2.9c0,0-10.4,3.4-10.4,3.4v15.6
				c0,12.7-15.2,23-21.1,23H-59.9c-5.9,0-20.8-10.3-20.8-23v-49.2c0-12.7,14.9-23,20.8-23H69.3c5.8,0,21.1,10.3,21.1,23v15.3
				l10.3,3.4C101,132.3,101.2,132.9,101.2,133.6z"/>
		</g>
		<g class="st6">
			<path d="M736.1,2279.4c-0.2,0.9-0.3,1.5-0.5,2.7c2.3-0.1,3.9,0.5,3.7,3.2c0,4.3-0.8,6.8-4.9,5.3c0-0.8,0-0.9-0.1-1.8
				c1.4,0.4,2.4,1.2,2.8-0.5c0.4-1.5,1.3-5.7-1.8-4.9c-0.8,3.3-1.5,4.5-2.9,7.5l-1.6-0.9c1.4-2,2.1-3.8,2.9-6.6
				c-0.7,0.1-2,0.3-2.5,0.4l-0.2-1.7c3.2,0.1,3.4-0.8,3.4-3.4L736.1,2279.4z M740.7,2281.2c1.1,1.6,4.6,5.5,1.3,6.3
				c-0.5-2-1.4-4.1-2.7-5.6L740.7,2281.2z"/>
			<path d="M749.3,2279.5c-0.2,2.4-0.7,7.2,0.1,9.3c2.5,2.3,6-1,5.9-4.1c4.7,2.8-3.3,8.5-6.7,5.9c-2.7-2.2-0.7-6.5-1.4-11.1
				L749.3,2279.5z"/>
			<path d="M763.7,2285.9c-4.8,3.9,4.6,3.5,6.5,2.6l0.2,1.9C755.9,2293.1,761.3,2282.9,763.7,2285.9z M761.6,2280.1
				c1.6,0.5,6.3,0.4,7.9,0l0.1,1.6c-0.8,0.4-2.4,1.3-3.7,2.3l-1.2-1c0.7-0.5,1.4-0.9,2.1-1.2c-1.4,0.3-3.6,0-5.2-0.1V2280.1z"/>
			<path d="M784.2,2290.8c-0.8-0.9-2.2-1.7-3.4-2.3c0.6,3.6-6.5,3.5-6.3,0.5c-0.2-1.7,2.5-2.8,4.6-2.3c0-0.7,0-0.5,0-1.4
				c-1.8,0-2.6,0-4.4-0.1v-1.5c0.7,0.1,3.1,0.2,4.4,0.2c0-0.1,0-0.6,0-1.4c-1.4,0-3.2-0.1-4.8-0.1v-1.6c0.9,0.3,3.3,0.3,4.9,0.3
				c0-1.4,0-1.4-0.1-1.8h1.8c-0.1,0.4-0.1,0.6-0.1,1.7c1.9-0.1,3.1-0.3,4-0.5l0.1,1.6c-1.2,0.1-2.8,0.4-4.1,0.4c0,0.4,0,0.5,0,1.4
				c0.7,0,2.8-0.2,3.7-0.5v1.5c-1.1,0.1-2.1,0.2-3.8,0.4c0,1.4,0,1.4,0.1,1.7c1.3,0.3,2.8,1.3,4.3,2.3L784.2,2290.8z M778,2288
				c-4.9,0.5,1.6,3.7,1.2,0.2C778.7,2288,778.5,2288,778,2288z"/>
			<path d="M791.6,2279.2c0-0.2-0.7,3.3-0.7,4.1l0,0c5.7-11.1,12.1,7.3,0.8,8.2c-0.3-0.8-0.4-1.1-0.8-1.7c11-0.6,2.6-16.3,0.3-2.7
				h-1.7c-0.1-2.7,0.2-5.5,0.4-8.1L791.6,2279.2z"/>
			<path d="M812.3,2290.8c-0.8-0.9-2.2-1.7-3.4-2.3c0.6,3.6-6.5,3.5-6.3,0.5c-0.2-1.7,2.5-2.8,4.6-2.3c0-0.7,0-0.5,0-1.4
				c-1.8,0-2.6,0-4.4-0.1v-1.5c0.7,0.1,3.1,0.2,4.4,0.2c0-0.1,0-0.6,0-1.4c-1.4,0-3.2-0.1-4.8-0.1v-1.6c0.9,0.3,3.3,0.3,4.9,0.3
				c0-1.4,0-1.4-0.1-1.8h1.8c-0.1,0.4-0.1,0.6-0.1,1.7c1.9-0.1,3.1-0.3,4-0.5l0.1,1.6c-1.2,0.1-2.8,0.4-4.1,0.4c0,0.4,0,0.5,0,1.4
				c0.7,0,2.8-0.2,3.7-0.5v1.5c-1.1,0.1-2.1,0.2-3.8,0.4c0,1.4,0,1.4,0.1,1.7c1.3,0.3,2.8,1.3,4.3,2.3L812.3,2290.8z M806.2,2288
				c-4.9,0.5,1.6,3.7,1.2,0.2C806.9,2288,806.6,2288,806.2,2288z"/>
			<path d="M819.7,2279.5c-0.2,2.4-0.7,7.2,0.1,9.3c2.5,2.3,6-1,5.9-4.1c4.7,2.8-3.3,8.5-6.7,5.9c-2.7-2.2-0.7-6.5-1.4-11.1
				L819.7,2279.5z"/>
			<path d="M830.6,2281.4c0.6,0.1,1.6,0.1,2.5,0.1c0.1-1,0.3-1.8,0.3-2.4l1.8,0.2c0,0-0.4,1.6-0.4,2.1c1-0.1,1.7-0.2,2.4-0.4
				l0.1,1.6c-0.7,0.2-2.1,0.4-2.7,0.4c-0.7,3-1,4.7-2.5,8.2l-1.8-0.7c1-1.8,2-5,2.5-7.5c-0.8,0-1.5,0-2.3,0L830.6,2281.4z
				 M837.6,2286.8c-2.7,3.1,2.9,2.8,4.6,2.1l0.1,1.7c-3.4,0.9-9.5,0.1-6.1-4.4L837.6,2286.8z M841.8,2285c-1.9-0.2-3.6-0.1-5.5,0.3
				l-0.1-1.5c2.7-0.5,3.2-0.4,5.6-0.4L841.8,2285z"/>
			<path d="M849.8,2289.4c0,3.1-4.8,3.1-4.8,0C845,2286.3,849.9,2286.3,849.8,2289.4z M846.2,2289.4c0,1.7,2.6,1.7,2.6,0
				C848.8,2287.7,846.2,2287.7,846.2,2289.4z"/>
		</g>
		<g class="st6">
			<path d="M730.8,2305.2c1,0.2,2.2,0.2,3.2,0c-1.8,8.1,5.2,5.6,9.9,5.5c-0.3,0.7-0.3,0.8-0.4,1.6c-3.3-0.1-8.3,1.1-10.3-1.5
				c-0.6,0.6-1.2,1.1-2,1.7l-0.7-1.6c2.3-0.9,2.1-2.2,2-4.4c-0.5,0-1.2-0.1-1.6,0.1L730.8,2305.2L730.8,2305.2z M731.9,2300
				c1,0.9,1.6,1.5,2.4,2.5l-1.2,1.1c-0.8-1.1-1.4-1.8-2.4-2.6L731.9,2300z M738.2,2309.4v0.6h-1.3c0-0.9,0-2.6,0-3.5
				c0.2,0,1,0,1.4,0v-0.7c-0.5,0-1.3,0-1.7,0.1v-1.1c0.6,0,1.1,0.1,1.7,0.1v-0.7h-2.1c0,1.1-0.1,5.4,0.1,6.4h-1.5
				c0.2-1.8,0.1-5.8,0.1-7.6c0.4,0,1.2,0,1.9,0c-0.1-1.2-1.6-0.9-2.4-0.8v-1.4c0.7,0.2,2.9,0.1,3.8,0.1c0-0.5,0-0.7-0.1-1h1.7
				c-0.1,0.3-0.1,0.5-0.1,1c0.8,0,3.2,0.1,3.8-0.1v1.4c-0.9,0-2.1-0.6-2.4,0.8c0.6,0,1.5,0,2-0.1c-0.1,0.9-0.1,5.3-0.1,6.3
				c0,1.8-1.4,1.2-2.8,1.3C740.2,2308.9,739.4,2309.4,738.2,2309.4L738.2,2309.4z M739.7,2302.9c0.1-0.2,0.2-0.5,0.4-0.9h-2.3
				c0.2,0.3,0.2,0.3,0.4,0.9H739.7z M738.1,2308.4h1.6v-0.9h-1.6V2308.4z M740.9,2308.6c0,0.3,0,0.5,0,0.6c0.4,0,0.7,0.1,0.7-0.3
				c0,0,0-4.8,0-4.8h-2.1v0.7c0.6,0,1.3,0,1.8-0.1v1.1c-0.5,0-1.2-0.1-1.8-0.1v0.7c0.4,0,1.1,0,1.3,0
				C740.8,2306.9,740.8,2308.1,740.9,2308.6L740.9,2308.6z"/>
			<path d="M747.3,2305.2c-0.4,0.1-0.7,0.2-1.1,0.3l-0.1-1.5c0.4,0,1.1-0.1,1.6-0.2c0-0.7,0.1-3-0.1-3.6h1.7
				c-0.2,0.6-0.1,2.6-0.1,3.3c0.7-0.1,2.4-0.4,3-0.7l0.1,1.5c-0.6,0.1-2.3,0.5-3,0.6v3.5c0,0.3,0.1,0.3,0.4,0.3
				c1.3-0.1,0.8-0.8,1-2.4c0.4,0.2,0.9,0.4,1.4,0.5c-0.1,1.8-0.3,2.4-0.8,2.9c-0.7,0.5-3.9,0.9-3.5-0.9c0,0,0-3.7,0-3.7
				L747.3,2305.2z M752.3,2302.2c-0.5,0-0.9,0-1.2,0.1v-1.5c1.8,0.2,6,0.2,7.8,0c-0.8,3,1.4,13.6-4.5,11.7c-0.1-0.6-0.2-1-0.4-1.6
				c4.1,1.6,2.9-5,3.2-8.6h-2.1c-0.2,5-0.7,7.8-4.4,10.6c-0.4-0.5-0.6-0.7-1.2-1.2c3.6-1.8,4.2-5.3,4.2-9.4h-1.4L752.3,2302.2
				L752.3,2302.2z"/>
			<path d="M767.2,2300.2c-0.2,0.6-0.2,1.2-0.5,2.1c1-0.1,1.7-0.2,2.2-0.4v1.6c-3.9-0.3-3.2,4.3-5.4,6.9l-1.6-0.9
				c1.3-1.7,1.9-3.2,2.7-5.5c-1.1,0-1.3,0-2.2,0v-1.6c2,0.6,3.2-0.2,3-2.3L767.2,2300.2z M773.5,2311.6c-0.5-0.6-1.3-1.3-2.1-1.7
				c0.4,3.5-6.2,3.4-6,0.2c-0.1-1.9,2.3-2.7,4.3-2.3c0-1.1-0.2-2,0-3l1.6,0.1C769.5,2310,775.4,2308.1,773.5,2311.6z M768.5,2309
				c-4.3,0.8,1.9,3.8,1.3,0.2C769.3,2309.1,769,2309,768.5,2309z M773.6,2305.1c-1.2-0.8-2.5-1.4-4-2l0.8-1.4c1.7,0.6,2.7,1.1,4,1.9
				L773.6,2305.1z"/>
			<path d="M784.3,2300.1c-0.7,4.5,1.6,9,5.7,11.1c-0.5,0.5-0.8,0.9-1.1,1.6c-2.9-2.1-4.5-3.7-5.5-7.1c-0.7,3.1-2.7,5.5-5.5,7.1
				c-0.3-0.6-0.6-1-1.1-1.4c4.3-2.1,6.1-6.3,5.6-11.2h1.9L784.3,2300.1L784.3,2300.1z"/>
			<path d="M796.6,2303.8c0.4,1,1,1.7,1.9,2.5c-0.3,0.4-0.5,0.8-0.8,1.3c-0.6-0.7-0.7-0.9-1.3-1.9c0.3,1.9-0.1,5.2,0.2,7.1H795
				c0.3-2-0.1-4.5,0.2-6.6c-0.5,1.5-1.1,2.7-1.8,3.7c-0.2-0.6-0.4-1.1-0.8-1.6c1.2-1.3,1.7-2.7,2.4-4.4c-0.6,0-1.4,0-2,0.1v-1.5
				c0.5,0.1,1.5,0.1,2.1,0.1c0-0.7,0.1-2-0.1-2.6h1.6c-0.2,0.6-0.1,1.9-0.1,2.6c0.6,0,1.3,0.1,1.9-0.1v1.5c-0.6,0-1.2-0.1-1.8-0.1
				V2303.8z M800.2,2303.8c-0.7,0-1.1,0-1.5,0.1v-1.5c0.8,0.1,2.6,0.1,3.5,0.1c0-0.9,0-1.8-0.1-2.6h1.7c-0.1,0.7-0.1,1.8-0.1,2.6
				c0.6,0,1.3,0,1.8-0.1v1.5c-0.4-0.1-1.1-0.1-1.7-0.1v7.2c0.1,2-2.1,1.5-3.5,1.4c-0.1-0.6-0.1-1-0.4-1.5c0.9,0,2.1,0.4,2.3-0.3
				c0,0,0-5.2,0-5.2c-0.9,1.8-2.2,3.5-4,4.7c-0.4-0.5-0.6-0.8-1-1.2c2.1-1.4,3.5-3.1,4.4-5.2L800.2,2303.8L800.2,2303.8z"/>
			<path d="M808.1,2307c7.5-9.1,5.5-2.7,13,2.3l-0.9,2c-9-7.5-4.9-9.6-11-2.4L808.1,2307z"/>
			<path d="M828,2300.3c-1.7,2.5-1.4,9.6-1.2,12.5h-1.7c0.2-2.2,0-4.9,0.1-7.3c-0.5,0.7-0.8,1.1-1.3,1.6c-1.6-2.4,2.5-4.4,2.6-7.3
				L828,2300.3z M830.3,2303.3c-0.6,1.2-1.3,2.3-2.3,3.4c-0.3-0.6-0.5-0.8-1-1.3c1.4-1.4,2.8-3.7,3-5.6l1.6,0.5
				c-0.2,0.6-0.4,1.2-0.7,1.6c1,0,4.4,0.1,5.3-0.1v1.5c-0.8-0.1-3.3-0.1-4.2-0.1v1.8c0.9,0,2.9,0.1,3.7-0.1v1.5
				c-0.8-0.2-2.8-0.1-3.7-0.1v1.8c0.9,0,2.9,0.1,3.7-0.1v1.5c-0.9-0.2-2.8-0.1-3.7-0.1c0,0.8-0.1,2.7,0.1,3.3h-1.7
				c0.2-0.9,0-8.4,0.1-9.6h-0.2L830.3,2303.3L830.3,2303.3z"/>
			<path d="M841.1,2305.5c-0.6,0-1,0-1.4,0.1v-1.3c0.7,0.1,2.3,0.1,3.1,0.1c-0.4-1.7-2.5-0.9-3.7-0.9v-1.4c0.4,0.1,1.3,0.1,2,0.1
				c-0.3-0.5-0.4-0.7-1-1.3l1.4-0.5c0.7,0.7,0.7,2,1.9,1.8c0-0.6,0.1-1.6-0.1-2.1h1.5c0,0.5,0,1.5,0,2.1h1c0-0.5,0-1.7,0-2.1h1.5
				c-0.1,0.4-0.1,1.5-0.1,2.1c1.2,0.3,1.6-1.1,1.9-1.9l1.4,0.5c-0.3,0.6-0.6,0.9-0.9,1.3c0.7,0,1.6,0,2-0.1v1.4
				c-1,0-3.4-0.7-3.6,0.9c0.8,0,2.4,0.1,3-0.1v1.3c-0.8-0.2-4.1-0.1-5.1-0.1v0.7c0.9,0,3.6,0.1,4.3-0.1v1.3
				c-0.8-0.2-3.4-0.1-4.3-0.1v0.7c1.1,0,4.7,0.1,5.6-0.1v1.4c-1-0.2-3.4-0.1-4.5-0.1c1.4,1.1,2.8,1.6,4.8,1.9
				c-0.4,0.5-0.6,0.8-0.8,1.4c-2.4-0.6-3.9-1.5-5.2-2.8c0,1.1-0.1,2.2,0.1,3.1h-1.7c0.2-1.1,0.1-1.9,0.1-3.1c-1.4,1.4-3,2.1-4.9,2.7
				c-0.2-0.5-0.5-0.9-0.9-1.3c2-0.4,3.5-1.1,4.6-2c-1,0-3.4-0.1-4.3,0.1v-1.4c0.9,0.2,4.3,0.1,5.4,0.1v-0.7c-0.9,0-3.4-0.1-4.2,0.1
				v-1.3c0.8,0.2,3.3,0.1,4.2,0.1v-0.7h-3.1V2305.5z M846.6,2304.3c0.2-0.4,0.3-0.7,0.5-1h-3.2c0.2,0.4,0.3,0.6,0.4,1H846.6z"/>
			<path d="M855.2,2301.6c0.8,0.1,4,0.8,3.8-1.5l1.8,0.2c-0.1,0.1-0.1,0.1-0.6,1.3c-0.1,0.2-0.1,0.2-0.1,0.3
				c1.2-0.1,3.9-0.4,4.6-0.6l0.1,1.6c-2.2,0.3-5.5-0.3-6.6,2.3l0,0c1.2-1.1,4-1.3,4.3,0.7c1.5-0.5,2.3-0.9,3.1-1.2l0.7,1.6
				c-1.8,0.3-4.5,0.8-3.7,3.7H861c0.1-0.3,0.1-1.3,0.1-1.9c-5.9,3,2.6,3.3,4.5,2.2c1.7,4.9-15.7,1.5-4.6-3.8c-0.8-2.2-4.1,0.6-5,1.9
				l-1.3-1.3c1.1-0.8,2.5-2.7,3.1-3.8c-0.6,0-1.9,0-2.6,0L855.2,2301.6L855.2,2301.6z"/>
		</g>
		<g class="st6">
			<path d="M733,2330.2v0.8h-1.7c0.2-1.7,0.2-6.4,0-8.1c0.9,0.1,3.8,0.1,4.8,0.1c0-0.7,0-1.5-0.1-1.9h1.7c-0.1,0.4-0.1,1.3-0.1,2
				c1,0,4,0.1,4.9-0.1c-0.2,1.7-0.2,6.4,0,8.1h-1.7v-0.8h-3.3c0,1-0.1,2.9,0.1,3.7h-1.8c0.2-0.8,0.1-2.7,0.1-3.7H733V2330.2z
				 M733,2324.2v1.6h3.1v-1.6H733z M733,2327.2v1.6h3.1v-1.6H733z M737.7,2325.8h3.3v-1.6h-3.3V2325.8z M737.7,2328.8h3.3v-1.6h-3.3
				V2328.8z"/>
			<path d="M749.4,2321.5c-0.2,2.4-0.7,7.2,0.1,9.3c2.5,2.3,6-1,5.9-4.1c4.7,2.8-3.3,8.5-6.7,5.9c-2.7-2.2-0.7-6.5-1.4-11.1
				L749.4,2321.5z"/>
			<path d="M760.1,2326.2c1,0.2,2.3,0.2,3.3,0c-1.7,7.9,4.8,5.7,9.8,5.5c-0.3,0.8-0.3,0.9-0.4,1.7c-3-0.1-8.2,1.1-10.3-1.5
				c-0.8,0.8-1.3,1.1-2.1,1.7l-0.7-1.6c2.3-1,2.1-2.2,2-4.4c-0.5,0-1.3-0.1-1.7,0.1v-1.5L760.1,2326.2L760.1,2326.2z M761.3,2321.1
				c1,0.9,1.3,1.2,2.4,2.5l-1.2,1.1c-0.9-1.1-1.3-1.7-2.4-2.6L761.3,2321.1z M765.6,2324.5c-0.5,0-0.9,0-1.3,0.1v-1.5
				c0.5,0,1.2,0.1,1.8,0.1c-0.3-0.7-0.5-1.1-1-1.8l1.3-0.6c0.4,0.6,0.7,1.1,1,1.8l-1.2,0.6c2.3,0.2,2.8-0.2,3.4-2.4l1.5,0.5
				c-0.3,0.4-0.7,1.3-1.1,1.9c0.6,0,1.5,0,2-0.1v1.5c-0.9-0.1-2.4-0.1-3.3-0.1c0,0.8,0,1.1-0.1,1.6c0.9,0,3.2,0.1,4-0.1v1.5
				c-0.9-0.1-2.8-0.1-3.7-0.1c0.9,1.4,1.9,2.2,3.8,2.6c-0.4,0.5-0.6,0.9-0.7,1.5c-1.9-0.7-3-1.5-3.9-3.1c-0.8,1.5-1.7,2.3-3.3,3
				c-0.3-0.5-0.6-1-1-1.3c1.7-0.7,2.5-1.2,3.1-2.7c-0.8,0-2.5-0.1-3.2,0.1v-1.5c1.4-0.1,4.2,1.1,3.6-1.5L765.6,2324.5L765.6,2324.5z
				"/>
			<path d="M779,2321.2c0-0.2-0.7,3.3-0.7,4.1l0,0c5.7-11.1,12.1,7.3,0.8,8.2c-0.3-0.8-0.4-1.1-0.8-1.7c11-0.6,2.6-16.3,0.3-2.7
				h-1.7c-0.1-2.7,0.2-5.5,0.4-8.1L779,2321.2z"/>
			<path d="M799.7,2332.8c-0.8-0.9-2.2-1.7-3.4-2.3c0.6,3.6-6.5,3.5-6.3,0.5c-0.2-1.7,2.5-2.8,4.6-2.3c0-0.7,0-0.5,0-1.4
				c-1.8,0-2.6,0-4.4-0.1v-1.5c0.7,0.1,3.1,0.2,4.4,0.2c0-0.1,0-0.6,0-1.4c-1.4,0-3.2-0.1-4.8-0.1v-1.6c0.9,0.3,3.3,0.3,4.9,0.3
				c0-1.4,0-1.4-0.1-1.8h1.8c-0.1,0.4-0.1,0.6-0.1,1.7c1.9-0.1,3.1-0.3,4-0.5l0.1,1.6c-1.2,0.1-2.8,0.4-4.1,0.4c0,0.4,0,0.5,0,1.4
				c0.7,0,2.8-0.2,3.7-0.5v1.5c-1.1,0.1-2.1,0.2-3.8,0.4c0,1.4,0,1.4,0.1,1.7c1.3,0.3,2.8,1.3,4.3,2.3L799.7,2332.8z M793.6,2330
				c-4.9,0.5,1.6,3.7,1.2,0.2C794.3,2330,794,2330,793.6,2330z"/>
			<path d="M811.7,2326.4c1.9,3.1-2.8,9.7-5.2,5.6c1.8-0.3,3.8-1.2,4-2.8c-5,4.3-6.9-6-0.4-3.5c0-0.3,0-0.8,0-1.4
				c-2.8,0.1-5.2,0.2-6.4,0.3l-0.1-1.7c1.5,0,4.4-0.2,6.5-0.2c0-1.3,0-1.3-0.1-1.7h1.8c-0.1,0.4-0.1,0.5-0.1,1.7c2.4,0,3.5,0,4-0.1
				v1.6c-1.1-0.1-2.3-0.1-4.1-0.1C811.6,2324.6,811.7,2325.9,811.7,2326.4z M808.8,2326.6c-1.6,0-1.7,2.2-0.1,2.2
				C810.3,2328.9,810.8,2326.5,808.8,2326.6z"/>
			<path d="M821.8,2331.4c0,3.1-4.8,3.1-4.8,0C817,2328.3,821.9,2328.3,821.8,2331.4z M818.2,2331.4c0,1.7,2.6,1.7,2.6,0
				C820.8,2329.7,818.2,2329.7,818.2,2331.4z"/>
		</g>
		<g class="st6">
			<path class="st0" d="M545.5,2407.2c-1.9-0.2-4.4,1.4-4.9-1.1c3.2-0.1,6.9-0.1,9.6-1.2l1.1,1.4c-1.2,0.3-3.1,0.7-4.2,0.8v1.8
				c1.1,0,3.8,0.1,4.7-0.1v1.6c-1-0.2-3.5-0.1-4.6-0.1v1.7c1.1,0,4.3,0.1,5.3-0.1v1.6c-1-0.2-4.2-0.1-5.3-0.1c0.2,3.7,0.2,4.5-4,4
				c-0.1-0.6-0.2-0.9-0.4-1.5c3.3,0.5,2.8,0.3,2.8-2.5c-1.1,0-4.6-0.1-5.6,0.1v-1.6c1,0.2,4.5,0.1,5.6,0.1v-1.7
				c-1.2,0-3.8-0.1-4.9,0.1v-1.6c0.9,0.2,3.7,0.1,4.8,0.1L545.5,2407.2L545.5,2407.2z"/>
			<path class="st0" d="M557,2406.7c-0.6,0-1.1,0-1.5,0.1v-1.5c1.7,0.2,4.8,0.2,6.5,0v1.5c-0.5,0-1.2-0.1-1.8-0.1v1.1
				c0.7,0,1.2,0,1.6-0.1c0.1,2.1-0.1,7.8,0.1,9.8h-1.3v-0.5h-3.3v0.8h-1.4c0.2-2.2,0.2-7.9,0-10.1c0.4,0,1.1,0.1,1.7,0.1v-1.1
				L557,2406.7L557,2406.7z M557.2,2413.5h3.3v-1.1c-2.9,0.6-0.5-3.2-1.9-3.3c0,1.5-0.1,3-0.9,4.3c-0.2-0.4-0.3-0.7-0.6-1
				L557.2,2413.5L557.2,2413.5z M557.2,2412.1c0.4-0.8,0.5-1.5,0.5-3.1h-0.5V2412.1z M557.2,2415.8h3.3v-1.1h-3.3V2415.8z
				 M558.6,2407.9h0.4v-1.1h-0.4V2407.9z M560,2411c0,0.2,0,0.2,0.5,0.3v-2.2H560V2411z M567.6,2409.8c0,0.6,0,1,0.1,1.4
				c-0.8-0.1-2.8-0.1-3.7-0.1c0.1,0.2-0.1,5.1,0.1,5c2.1,0.4,2.8,0,2.6-2.4c0.6,0.3,1,0.5,1.5,0.6c-0.1,1.7-0.2,2.4-0.5,2.7
				c-0.5,0.8-6,1.2-5.2-0.9c0-1,0.1-5.6-0.1-6.5c0.8,0.1,2.8,0.1,3.7,0.1v-2.9c-1,0-2.9-0.1-3.8,0.1v-1.6c1.3,0.2,3.9,0.2,5.3,0
				C567.5,2406.1,567.6,2408.9,567.6,2409.8L567.6,2409.8z"/>
		</g>
		<g class="st6">
			<path class="st0" d="M680.9,2418.2c1.1,0.2,2.7,0.1,3.8,0c-0.2,0.6-0.3,0.9-0.4,1.5c-3,0-5.4,0.2-7-1.9c-0.5,0.9-0.7,1.3-1.5,2.2
				c-0.4-0.5-0.5-0.5-1.1-1c-0.1,1-1.8,0.8-2.8,0.8c0-0.6-0.1-0.9-0.3-1.4c0.7,0,1.7,0.4,1.7-0.3c0,0,0-3.2,0-3.2
				c-0.5,0.2-1.1,0.4-1.5,0.6l-0.2-1.6c2.2-0.1,1.7-1.1,1.7-2.9c-0.6,0-1,0-1.6,0.1v-1.5c0.5,0.1,1.1,0.1,1.6,0.1
				c0-0.7,0.1-2-0.1-2.5h1.7c-0.2,0.5-0.1,1.8-0.1,2.5c0.2,0,1.3,0,1.1,0c0,0,0.2,0,0.2,0v1.5c-0.4,0-0.9,0-1.3,0v2
				c0.5-0.2,0.7-0.3,1.2-0.5v0.6c1.6,0.1,6.7,0.2,8.3,0v1.4c-0.8-0.2-2.7-0.1-3.5-0.1v1.2c0.7,0,2.5,0.1,3-0.1v1.4
				c-0.7-0.2-2.2-0.1-3-0.1L680.9,2418.2L680.9,2418.2z M678.4,2415.1c-0.7,1.1-0.4,2.1,1,2.6v-3.5c-0.7,0-2.8-0.1-3.4,0.1v-0.6
				c-0.5,0.2-0.6,0.3-1.2,0.5c0,0.1,0,4.7,0,4.6c1.2-1.1,1.8-2.5,2-4L678.4,2415.1z M677.9,2412.4c-0.6,0-0.8,0-1.2,0
				c0-1.1,0-3.7,0-4.9c1.6,0.1,5.3,0.2,6.9,0c-0.2,1.4-0.1,3.4,0,5c-0.9,0-4.7,0-5.7,0V2412.4z M678.2,2409.3h3.9v-0.6h-3.9V2409.3z
				 M678.2,2411.2h3.9v-0.7h-3.9V2411.2z"/>
			<path class="st0" d="M692.7,2408.4c0-0.7,0-1-0.1-1.4h1.8c-0.2,0.8-0.1,3.6-0.1,4.5h3c0-0.7,0.1-2.8-0.1-3.4h1.7
				c-0.2,1.2,0,3.7-0.1,4.9c-0.6,0-3.9,0-4.6,0v4.6h3.5c0-0.8,0.1-2.8-0.1-3.5h1.7c-0.1,1.4-0.2,4.3,0,5.7h-1.6v-0.7h-8.3v0.7h-1.6
				c0.2-1.4,0.2-4.3,0-5.7h1.7c-0.2,0.6-0.1,2.8-0.1,3.5h3.3v-4.6c-0.7,0-3.7,0-4.4,0c-0.1-1.2,0.1-3.7-0.1-4.9h1.7
				c-0.1,0.6-0.1,2.7-0.1,3.4h2.8L692.7,2408.4L692.7,2408.4z"/>
		</g>
		<path id="Icon_ionic-ios-arrow-round-forward-2" class="st10" d="M666.3,2405.2c-1,1.1-2.8,1.1-3.8,0l-12.6-12.6v48
			c0,1.5-1.3,2.7-2.7,2.6c-1.4,0-2.6-1.2-2.6-2.6v-47.9l-12.6,12.6c-2.6,2.4-6.2-1.3-3.8-3.8c0,0,17.2-17.1,17.2-17.1
			c0.9-1.1,2.7-1,3.7,0c0,0,17.2,17.1,17.2,17.1C667.3,2402.5,667.4,2404.1,666.3,2405.2L666.3,2405.2z"/>
		<path id="Icon_ionic-ios-arrow-round-forward-4" class="st10" d="M616.2,2421.7c-1-1.1-2.8-1.1-3.8,0l-12.6,12.6v-47.9
			c0-1.5-1.3-2.7-2.7-2.6c-1.4,0-2.6,1.2-2.6,2.6v47.9l-12.6-12.6c-2.6-2.4-6.2,1.3-3.8,3.8c0,0,17.2,17.1,17.2,17.1
			c0.9,1.1,2.7,1,3.7,0c0,0,17.2-17.1,17.2-17.1C617.2,2424.4,617.2,2422.8,616.2,2421.7L616.2,2421.7z"/>
	</g>
	<g>
		<g class="st6">
			<path d="M455,1970.3c0.2,9.5-17.9-1.2-2.9-7v-4c-1.2,0.1-3.7,0.1-5,0.1v-2.9c1,0.3,3.7,0.2,5,0.2c0-1.4,0.1-3.8-0.2-4.7h3.2
				c-0.2,0.9-0.2,3.2-0.2,4.5c2-0.2,3.7-0.6,5-1l0.1,2.9c-0.7,0.1-3.8,0.7-5.2,0.8v3.4c4.9-1.8,12.9-0.4,12.7,5.6
				c0.2,7.5-11.9,8-10.6-0.3c1.3-0.4,1.8-0.5,2.9-1.1c-1.3,4.5,4,6.2,4.5,1.4c-0.1-4.5-6.1-4.1-9.6-2.8L455,1970.3z M452.1,1966.2
				c-3.7,1.6-4.1,4.4-0.5,4.9c1.2,0.1,0.4-4.2,0.6-4.9L452.1,1966.2L452.1,1966.2z M466.5,1960.9c-1.3-2.1-3.2-4.1-5.2-5.6l2.4-1.6
				c2.3,1.7,3.8,3.3,5.1,5.3L466.5,1960.9z"/>
			<path d="M477.8,1969.2c0-0.5,0-0.8,0-1.3c-1,0.3-1.5,0.4-2.9,0.7c-0.3-1-0.7-1.8-1.2-2.5c3.4-0.5,6.4-1.4,9.7-2.8
				c-1.1-0.8-1.7-1.2-2.5-2.1c-1.6,1.2-2.4,1.8-4.5,2.8c-0.4-0.8-0.9-1.4-1.6-2c3.3-1.5,6.1-3.2,8.1-6.1h-5.5v3.4h-3
				c0.2-1.7,0.2-4.3,0-6c1.8,0.2,7.7,0.1,9.7,0.1c0-0.9,0-1.3-0.1-2.1h3.2c-0.1,0.5-0.2,1.4-0.2,2.1c2,0,8.1,0.1,9.9-0.1
				c-0.2,1.6-0.2,4.4,0,6.1h-2.8v-3.5h-11.2l2.4,0.7c0,0-0.3,0.3-0.8,0.9c1.4,0,5.8,0.1,7-0.1l1.8,1.4c-1.5,1.7-3.5,3.6-5.1,4.6
				c2.7,1.2,5.7,1.9,9.6,2.2c-0.6,1.1-0.8,1.6-1.2,2.9c-1.2-0.2-1.6-0.3-2.8-0.6c0,2.1-0.1,5.5,0.1,7.5H491v-1h-10.7v0.9h-2.9
				c0.2-1.5,0.1-4.5,0.1-6.1H477.8z M491.4,1967.1c-5.4-2.1-5.2-2.6-10.9,0H491.4z M480.5,1971.9h10.7v-2.5h-10.7V1971.9z
				 M482.6,1959.7c2.7,2.7,3.6,2.6,6.4-0.1C488.9,1959.7,482.6,1959.4,482.6,1959.7z"/>
			<path d="M513.4,1964.3c-1,0-1.7,0-2.4,0.1v-1.8c-0.4,0.8-0.5,0.8-1,2.3c-0.6-1-0.9-1.7-1.3-2.9c0.3,4.2-0.2,9.5,0.3,13.4h-2.9
				c0.4-2.8,0-9.8,0.4-12.2c-0.7,2.6-1.3,4-2.7,6.2c-2.6-4,1.8-6.6,2.2-10.8c-0.8,0-2.2,0-2.7,0.1v-2.7c0.6,0.2,2.3,0.1,3.1,0.1
				c0-1.2,0-4-0.2-4.8h2.9c-0.2,1-0.2,3.5-0.2,4.8c0.7,0,1.6,0,2.2-0.1v2.7c-0.6-0.1-1.4-0.1-2.1-0.1c0.3,1,1.2,2.5,2.2,3.5v-0.2
				c1.2,0.2,4.3,0.1,5.8,0.1v-1.4c-1.2,0-4.1-0.1-5,0.1v-2.4c1.1,0.2,3.5,0.1,4.8,0.1v-1.4c-1.4,0-4.1-0.1-5.3,0.1v-2.6
				c0.8,0.1,1.8,0.1,2.9,0.1c-0.3-0.8-0.8-1.5-1.5-2.5c3.3-1.6,2.8,0.1,4.1,2.6c3.1,0.4,2.8-1.1,3.9-3.4l2.8,0.8
				c-0.7,1.3-1.1,2-1.5,2.6c1.2,0,2.9,0,3.9-0.2v2.6c-1.4-0.2-5-0.1-6.6-0.1v1.4c1.5,0,4.6,0.1,5.8-0.1v2.5
				c-1.1-0.2-4.4-0.1-5.8-0.1v1.4c1.7,0,5.4,0.1,6.9-0.2v2.6c-1.7-0.3-4.9-0.2-6.7-0.2c0.4,1.2,0.8,1.8,1.6,3
				c0.9-0.8,1.6-1.6,2.4-2.9l2.1,1.5c-1.1,1.4-1.8,2.1-3,3.2c1.4,1.3,2.4,2,4.1,2.8c-0.8,0.9-1.2,1.5-1.7,2.6
				c-2.9-1.8-4.5-3.8-5.9-6.7c0,4.8,1.8,8.4-5.1,7.4c-0.1-1.1-0.3-1.8-0.7-2.6c3.3,0.5,3.4,0.4,3.2-2.8c-1.9,1.6-3.7,2.4-6.1,4.1
				l-1.1-2.8c3-1.1,3.4-1.5,7.1-3.9v-2.9H513.4L513.4,1964.3z M512.8,1964.5c1.3,1.2,1.8,1.7,2.6,2.9l-1.9,1.5
				c-0.9-1.2-1.2-1.7-2.5-3L512.8,1964.5z"/>
		</g>
		<g id="グループ_1741" transform="translate(499.271 2444.355) rotate(180)">
			<path id="パス_2560" class="st11" d="M-200.5,398.4l-10.9-3.6c2.7-15.4-11.1-27.5-20.9-28.6c0,0-139.1,0-139.1,0
				c-5.5,0-20.8,9.7-20.8,21.7c0.3,21.9-4.9,42.7,20.8,49.2c0,0,139.1,0,139.1,0c7.6-0.1,23.7-13,20.9-26.6l10.9-3.6"/>
			<path id="パス_2561" d="M-199.9,398.9c0,0.7-0.3,1.6-0.8,1.4c0,0-10.9-3.6-10.9-3.6c0.9-14.9-9.7-26.5-20.8-27.9
				c0,0-138.9,0-138.9,0c-5.1,0-20.1,9-20.1,20.1c0.4,21.2-5,40.2,20.1,46.5c0,0,139,0,139,0c5.1,0,20.2-9,20.2-20.1
				c0.1-1-0.4-5.3,0.6-5.7c0,0,10.9-3.6,10.9-3.6c1-0.2,1,2.7,0.2,2.9c0,0-10.4,3.4-10.4,3.4c2.2,13.3-14.7,26.3-21.6,26.1
				c0,0-138.9,0-138.9,0c-25.7-6.7-21.4-26.7-21.5-49.5c0-12.7,15.6-23,21.5-23h139c8,0.1,24.5,13.9,21.6,28.2l10.3,3.4
				C-200.1,397.6-199.9,398.2-199.9,398.9z"/>
		</g>
		<g class="st6">
			<path d="M732.8,2034.3c-1.8,2.5-1.4,10.4-1.2,13.4h-1.8c0.2-2.3,0-5.4,0.1-7.9c-0.5,0.7-0.9,1.2-1.4,1.7
				c-1.8-2.6,2.6-4.7,2.6-7.9L732.8,2034.3z M735.2,2037.5c-0.7,1.3-1.4,2.5-2.5,3.7c-0.4-0.6-0.6-0.9-1.1-1.4c1.5-1.5,2.8-4,3.2-6
				l1.7,0.5c-0.2,0.6-0.4,1.4-0.7,1.8c1.1,0,4.8,0.1,5.7-0.1v1.6c-0.9-0.1-3.4-0.1-4.4-0.1v1.9c1,0,3,0.1,3.9-0.1v1.6
				c-0.9-0.2-2.9-0.1-3.9-0.1v1.9c0.9,0,3.2,0.1,4-0.1v1.6c-0.9-0.2-3-0.1-4-0.1c0,0.9-0.1,2.9,0.1,3.5h-1.8c0.2-1,0-9.1,0.1-10.3
				h-0.3V2037.5z"/>
			<path d="M746.8,2039.9c-0.7,0-1.1,0-1.5,0.1v-1.4c0.7,0.1,2.5,0.1,3.3,0.1c-0.4-1.8-2.8-1-4-1v-1.5c0.5,0.1,1.4,0.1,2.2,0.1
				c-0.3-0.5-0.5-0.8-1-1.4l1.5-0.6c0.7,0.7,0.8,2.3,2.1,2c0-0.6,0.1-1.8-0.1-2.3h1.6c0,0.5,0,1.6,0,2.2h1.1c0-0.6,0-1.7,0-2.2h1.6
				c-0.1,0.5-0.1,1.7-0.1,2.3c1.3,0.3,1.6-1.2,2-2l1.5,0.6c-0.4,0.6-0.6,1-0.9,1.4c0.8,0,1.6,0,2.1-0.1v1.5c-1.2,0-3.5-0.7-3.9,1
				c0.8,0,2.6,0.1,3.2-0.1v1.4c-0.9-0.2-4.4-0.1-5.4-0.1v0.7c1,0,3.8,0.1,4.6-0.1v1.4c-0.9-0.2-3.6-0.1-4.6-0.1v0.8
				c1.1,0,5.1,0.1,6-0.1v1.5c-1.1-0.2-3.6-0.1-4.8-0.1c1.5,1.1,3,1.7,5.1,2.1c-1.2,3.1-5.2-0.4-6.5-1.5c0,1.2-0.1,2.3,0.1,3.3h-1.8
				c0.2-1,0.1-2,0.1-3.2c-1.5,1.5-3.2,2.3-5.3,3c-0.2-0.5-0.5-1-0.9-1.4c2.2-0.5,3.7-1.1,4.9-2.1c-1.2,0-3.5-0.1-4.6,0.1v-1.5
				c1,0.2,4.6,0.1,5.8,0.1v-0.8c-0.9,0-3.7-0.1-4.5,0.1v-1.4c0.9,0.2,3.5,0.1,4.5,0.1v-0.7h-3.4L746.8,2039.9L746.8,2039.9z
				 M752.7,2038.6c0.2-0.4,0.3-0.7,0.5-1.1h-3.4C750.1,2039.1,751.6,2038.5,752.7,2038.6z"/>
			<path d="M761.9,2035.7c0.8,0.1,4.4,1,4.1-1.7l2,0.2c-0.1,0.1-0.1,0.1-0.6,1.3c-0.1,0.2-0.1,0.2-0.1,0.3c1.3-0.1,4.2-0.4,4.8-0.6
				l0.1,1.7c-2.3,0.3-5.9-0.3-7.1,2.4l0,0c1.3-1.1,4.2-1.4,4.5,0.7c1.6-0.6,2.6-0.8,3.4-1.3l0.7,1.7c-2.1,0.4-4.7,0.7-3.9,3.9h-1.7
				c0.1-0.3,0.1-1.4,0.1-2.1c-6.3,3.4,2.5,3.6,4.7,2.5c2.3,5.1-16.8,1.8-4.8-4c-0.8-2.3-4.4,0.7-5.3,2.1l-1.4-1.3
				c1.1-0.8,2.6-2.9,3.2-4.1c-0.7,0-2.1,0-2.8,0L761.9,2035.7z"/>
			<path d="M782.2,2044.9c0,5.8-10.2-0.9-1.6-4.1v-2.3c-0.7,0-2.1,0-2.9,0v-1.7c0.6,0.1,2.1,0.1,2.9,0.1c0-0.8,0-2.2-0.1-2.7h1.9
				c-0.1,0.6-0.1,1.8-0.1,2.6c1.1-0.1,2.1-0.3,2.9-0.6l0.1,1.7c-0.5,0-2.1,0.4-3,0.5v2c2.8-1,7.5-0.3,7.4,3.3
				c-0.2,6.6-10.3,1.6-4.5-0.9c0.4,7.5,7.1-3.8-3-0.8L782.2,2044.9z M780.5,2042.5c-2.1,1-2.5,2.6-0.3,2.8
				C780.8,2045.4,780.4,2042.9,780.5,2042.5z M788.9,2039.4c-0.8-1.2-1.8-2.4-3-3.2c1.8-2,3.3,0.9,4.4,2.2L788.9,2039.4z"/>
			<path d="M797,2037c0.2-0.4,0.3-0.8,0.4-1.2h-2.2c-0.2,6.4,0.3,7.5-1.3,11.7c-2.1-2.1,0.7-9.3-0.3-13.3c1.6,0.2,4.9,0.2,6.5,0v1.6
				c-1.1-0.2-1.4-0.1-1.7,1.1c0.5,0,1.2,0,1.6,0c0,1.2,0,4.3,0,5.5c-3.6-0.9,0.6,5.8-3.3,5.1c0,0,0,0-0.3,0c0-0.6-0.1-1.1-0.3-1.5
				c0.4-0.1,1,0.2,1-0.2c0,0,0-3.4,0-3.4c-0.5,0-1.1,0-1.6,0c0-1.3,0-4.2,0-5.5C796.1,2037,796.4,2037,797,2037z M796.8,2043.3
				c-0.2,1.1-0.6,2.7-1.1,3.9c-0.4-0.3-0.7-0.4-1.2-0.6c0.6-1.1,0.8-2,1.1-3.6L796.8,2043.3z M797.1,2039.2h1.6v-0.8h-1.6V2039.2z
				 M797.1,2041.2h1.6v-0.9h-1.6V2041.2z M800,2043c0.2,0.7,0.3,1,0.5,2.4l-1.2,0.5c-0.1-1.2-0.2-1.7-0.5-2.6L800,2043z
				 M801.9,2044.9c-0.5,0-0.8,0-1.2,0c0-1.8,0-6.2,0-8c0.8,0.1,2.1,0.1,2.1-1.1c-0.7,0-1.6,0-2.3,0.1v-1.6c1.5,0.2,4.8,0.2,6.3,0
				v1.6c-0.9-0.1-2.8-0.5-3,1c0.7,0,2.1,0,2.5,0c0,1.8,0,6.2,0,8c-0.6,0-1.2,0-1.8,0c0.8,0.8,1.4,1.1,2.5,1.6
				c-0.5,0.6-0.7,0.9-1,1.3c-0.9-0.5-1.6-1.1-2.6-2.1l1-0.8H801.9l1.1,0.8c-1,1.1-1.8,1.6-2.9,2.2c-0.3-0.5-0.6-0.8-1-1.2
				C800.4,2046.2,801.1,2045.7,801.9,2044.9L801.9,2044.9z M802.2,2039.2h2.7v-0.8h-2.7V2039.2z M802.2,2041.3h2.7v-0.8h-2.7V2041.3
				z M802.2,2043.5h2.7v-0.9h-2.7V2043.5z"/>
			<path d="M812.4,2035.5c-0.7,3,0.9,14,2.8,5.5c4.3,3.2-5.2,12.9-4.8-5.5L812.4,2035.5L812.4,2035.5z M819.5,2036.2
				c1.3,1.7,5.7,8.4,1.5,8.8c-0.2-2.8-1.3-5.8-3.1-8L819.5,2036.2z"/>
			<path d="M829.3,2034.6c-0.2,2.5-0.9,7.8,0,9.9c2.8,2.5,6.2-1.1,6.3-4.3c5.1,2.8-3.5,9.1-7.1,6.2c-2.8-2.4-0.8-7-1.5-11.9
				L829.3,2034.6z"/>
			<path d="M851.9,2046.7c-0.9-0.9-2.2-1.9-3.6-2.5c0.6,3.9-7,3.5-6.8,0.5c-0.2-1.9,2.7-3,5-2.5c0-0.7,0-0.6,0-1.5
				c-1.9,0-2.8,0-4.8-0.1v-1.6c0.8,0.3,3.2,0.3,4.7,0.3c0-0.1,0-0.6,0-1.5c-1.5,0-3.4-0.1-5.1-0.2v-1.7c0.9,0.3,3.4,0.3,5.1,0.3
				c0-1.5,0-1.5-0.1-1.9h1.9c-0.1,0.4-0.1,0.6-0.1,1.8c2-0.1,3.3-0.3,4.3-0.6l0.1,1.7c-1.2,0.1-3,0.4-4.4,0.4c0,0.4,0,0.6,0,1.5
				c0.9,0,2.9-0.3,4-0.5v1.6c-1.2,0.1-2.2,0.2-4,0.4c0,1.5,0,1.5,0.1,1.8c1.4,0.4,3,1.4,4.6,2.4L851.9,2046.7z M845.4,2043.6
				c-5.3,0.6,1.9,4,1.3,0C846.1,2043.7,845.8,2043.6,845.4,2043.6z"/>
			<path d="M864.8,2039.8c2.1,3.3-2.9,10.3-5.5,6c1.9-0.4,4-1.2,4.3-3.1c-5.4,4.7-7.2-6.5-0.3-3.6c0-0.2,0-0.9,0-1.5
				c-2.9,0-5.6,0.4-6.9,0.4l-0.1-1.8c1.6,0,4.6-0.2,6.9-0.2c0-1.4,0-1.4-0.1-1.8h1.9c-0.1,0.5-0.1,0.5-0.1,1.8c2.6,0,3.8,0,4.3-0.1
				v1.7c-1.3-0.1-2.3-0.1-4.3-0.1C864.9,2038.1,864.9,2039.2,864.8,2039.8z M861.7,2040c-1.8-0.1-1.9,2.4-0.1,2.4
				C863.5,2042.5,863.6,2039.9,861.7,2040z"/>
			<path d="M875.6,2045.1c0.1,3.3-5.1,3.3-5,0C870.5,2041.8,875.7,2041.8,875.6,2045.1z M871.7,2045.1c-0.1,1.8,2.9,1.8,2.8,0
				C874.6,2043.2,871.7,2043.3,871.7,2045.1z"/>
		</g>
		<g class="st6">
			<path d="M538.5,2139.2c0-0.4,0-0.8,0-1.5c-0.4,0.6-0.5,0.9-1,1.3c-1.4-2.4,2.2-4.5,2.1-7.3l1.6,0.4c-1.7,3-1.4,9.2-1.2,12.5h-1.6
				C538.6,2143.5,538.5,2140.4,538.5,2139.2z M550,2137.1c-0.9,0.8-1.7,1.5-2.6,2.1c0.8,1.5,1.5,2.5,3,3.7c-0.4,0.5-0.7,1-0.9,1.5
				c-2.7-2.3-4-5.1-4.4-8.9c-0.3,0.7-0.4,1-1.1,2v4.9c1-0.2,1.5-0.4,2.8-0.8c0.5,2.7-3.1,1.9-5.7,3l-0.3-1.6c0.5,0,0.9-0.1,1.7-0.2
				v-3.4c-0.5,0.5-0.7,0.7-1.5,1.2c-0.3-0.6-0.6-1-0.9-1.3c1.4-0.8,2.8-2.4,3.5-3.9c-0.8,0-2.1-0.1-2.9,0.1v-1.5
				c0.7,0.2,2.8,0.1,3.6,0.1c0-0.6,0.1-1.6-0.1-2.1h1.7c-0.2,0.5-0.1,1.5-0.1,2.1c1,0,3.2,0.1,4.1-0.1v1.6c-0.8-0.2-2.7-0.1-3.6-0.1
				c0.1,1,0.2,1.5,0.5,2.6c1-0.7,1.6-1.2,2-1.9L550,2137.1z"/>
			<path d="M559,2134.4c-0.4,0-1.7,0-2.3,0v0.9c0.6,0,1.6,0.1,2.1-0.1c0,0.9,0,3.2,0,4.1c-0.4,0-1.2,0-1.7,0
				c0.7,0.9,1.3,1.5,2.1,1.9c-0.4,0.5-0.5,0.7-0.7,1.2c-0.4-0.4-1.4-1.3-1.7-1.9c0.1,1.2,0,2.9,0.2,3.9h-1.5
				c0.2-1.1,0.1-2.6,0.1-3.8c-0.6,1.1-1.2,1.8-2.1,2.7c-0.2-0.6-0.4-0.9-0.8-1.3c0.9-0.6,1.8-1.7,2.5-2.8c-0.6,0-1.5,0-2,0
				c0.1-1.1,0.2-3,0-4.1c0.4,0,1.4,0.1,2.1,0.1v-0.9c-0.7,0-1.9,0-2.4,0.1v-1.5c0.4,0.1,1.7,0.1,2.4,0.1c0-0.6,0-0.9-0.1-1.3h1.5
				c-0.1,0.3-0.1,0.7-0.1,1.3c0.6,0,1.9,0,2.3,0v-0.9c1.5,0.2,5.2,0.2,6.7,0v1.5c-1-0.1-2.8-0.6-2.9,1c0.7,0,2,0,2.5,0
				c0,1.7,0,5.6,0,7.3c-0.6,0-1,0-1.6,0c0.8,0.9,1.3,1.2,2.5,1.7c-0.4,0.4-0.5,0.5-0.9,1.2c-1.1-0.6-1.7-1.1-2.6-2.1l0.9-0.8h-2.6
				l1,0.8c-1.1,1.1-1.7,1.6-2.9,2.1c-0.3-0.5-0.5-0.8-0.9-1.1c1.2-0.4,1.8-0.8,2.6-1.7c-0.5,0-1.1,0-1.4,0c0-1.6,0-5.8,0-7.4
				c0.8,0,2.2,0.2,2.2-1.1c-0.6,0-2,0-2.5,0V2134.4L559,2134.4z M554.5,2136.6v1.5h0.7v-1.5H554.5z M556.6,2138.1h0.8v-1.5h-0.8
				V2138.1z M560.7,2136.6h2.9v-0.8h-2.9V2136.6z M560.7,2138.6h2.9v-0.8h-2.9V2138.6z M560.7,2140.6h2.9v-0.9h-2.9V2140.6z"/>
		</g>
		<g class="st6">
			<path d="M679.3,2134c0.8,0.2,1.4-0.2,1.8-0.9c-0.5-0.7-1.2-1.6-1.8-2.1l0.8-1.2c0.2,0.2,0.3,0.3,0.4,0.4c0.5-0.9,1-1.7,1.1-2.2
				l1.4,0.5c-0.4,1.1-2.2,2.5-1.1,3.4c0.7-1.1,1.2-1.9,1.4-2.4l1.3,0.7c-0.7,1-1.9,2.9-2.6,3.8c0.4,0,0.9-0.1,1.5-0.1
				c-0.1-0.4-0.2-0.6-0.4-1.1l1-0.5c0.4,1,0.6,1.5,1,2.8c0-1,0.1-3.9-0.1-4.7c0.6,0.1,2.1,0.1,2.8,0.1c0-0.7,0.1-1.5-0.1-2.2h1.6
				c-0.2,0.6-0.1,1.5-0.1,2.2c0.7,0,2.3,0.1,2.9-0.1c-0.2,0.8-0.1,8-0.1,9c0,1.8-1.4,1.4-2.9,1.5c-0.1-0.6-0.2-1.1-0.4-1.5
				c2.6,0.6,1.9-0.7,2-2.5c-0.2,0.3-0.3,0.4-0.6,1c-0.9-1.1-1.1-1.8-1.6-3.6c-0.3,1.4-0.5,2.4-1.5,3.6c-0.2-0.5-0.3-0.7-0.6-1.1
				c0,0.9-0.1,3.4,0.1,4.2H685c0.1-1,0.1-4.7,0.1-5.8l-1.1,0.5c-0.1-0.8-0.3-0.5-1.1-0.5c0,1.1-0.1,5,0.1,5.9h-1.5
				c0.2-0.9,0.1-4.8,0.1-5.8c-1.7,0.1-1.7,0.1-2.1,0.2L679.3,2134z M681,2136.2c-0.1,2-0.2,2.9-0.5,4.2c-2.1-0.6-0.5-2.1-0.7-4.4
				L681,2136.2z M684.2,2136c0.2,1.2,0.3,2,0.4,3.4l-1.2,0.3c0-1.2-0.1-2.4-0.3-3.4L684.2,2136z M686.3,2136.3
				c0.9-1.1,1.3-2.5,1.3-4.4h-1.3V2136.3z M689,2131.9c0,1.7,0.5,3.1,1.5,4.4v-4.3L689,2131.9L689,2131.9z"/>
			<path d="M695.3,2136c0-0.5,0-0.9-0.1-1.3c1.3,0.2,4.1,0.1,5.5,0.1c0.1,1.3-0.1,4.9,0.1,6.2h-1.5v-0.5h-2.4v0.7h-1.6
				C695.5,2140.4,695.3,2137,695.3,2136L695.3,2136z M696.7,2139h2.5v-3h-2.5V2139z M697.1,2129.8c0-0.5,0-0.9-0.1-1.2
				c1.8,0.2,6.7,0.2,8.5,0c-0.1,1.3-0.2,3.8,0,5.1c-1.8-0.1-6.7-0.2-8.5,0C697.1,2132.9,697.1,2130.7,697.1,2129.8L697.1,2129.8z
				 M698.6,2132.3h5.3v-2.2h-5.3V2132.3z M706.1,2134.7c0.6,0,0.9,0,1.2-0.1c-0.1,1.5-0.2,4.9,0,6.4h-1.6v-0.7H703v0.7h-1.5
				c0-1.4,0-5,0-6.3C702.1,2134.7,705.4,2134.7,706.1,2134.7z M703.2,2139h2.7v-3h-2.7V2139z"/>
		</g>
		<g id="グループ_1750" transform="translate(354.262 2182.051)">
			<g id="グループ_1690" transform="translate(14.524 0)">
				<path id="パス_2305" class="st12" d="M281.8-191.4c-0.4-10-2.5-16.6-5.8-21.1c-15.2-20.6-37.7-13.8-42.3-3.9
					c-3.3,0.6-13.1,8.2-10,25.2c-6.7,2.2-3.9,19.4,3.3,19.4c10.8,28.2,40.5,28.3,51.4,0.1C286-171.3,289.1-189.5,281.8-191.4
					L281.8-191.4z M252.8-155.7c-11.7,0-21.4-14.3-23.2-27.9c0.9-4.9,3.6-15.4,11.4-23.1c6,6.5,16.9,13.9,35.3,13.3
					C278.5-177.9,267.6-155.8,252.8-155.7L252.8-155.7z"/>
			</g>
			<path id="パス_2306" class="st12" d="M266.5-182.7c0-0.3,0-0.7-0.1-1h2.2c-1.1,6.1,5.4,7.1,8.5,6.8c16.7,0,7-18.8-7.3-9.7h-4.6
				c-14.4-9.1-24,9.8-7.3,9.6C260.7-177,266.5-176.8,266.5-182.7L266.5-182.7z M277.1-185.8c5,0,5.9,1,5.9,3.1
				c1.3,4.2-13,4.3-11.7,0C271.3-184.8,272.1-185.8,277.1-185.8z M252-182.7c-1.3-4.3,12.9-4.3,11.6,0
				C265-178.4,250.7-178.5,252-182.7z"/>
			<path id="パス_2307" class="st12" d="M292.7-151.2l-3.3-0.8l-22.1,50.1l-22-50.1c-14.4,2.4-25.5,14.6-25.4,29.4
				c0,0,0,17.7,0,17.7c0,3.4,2.8,6.3,6.2,6.3c0,0,82.5,0,82.5,0c3.5,0,6.4-2.8,6.4-6.3C316.1-124.2,315.2-145.4,292.7-151.2z
				 M283.1-116.5c9.3-10.5,8.5-10.4,17.8,0H283.1z"/>
			<path id="パス_2308" class="st12" d="M267.6-111l7.3-18.7l-3.4-3.4c2.1-0.3,3.8-2.5,3.1-4.6c-0.9-2.7-0.9-9.5-5.1-9.2
				c-2.6,0-7-0.6-7.6,2.9c-0.6,3.2-3.8,10.1,1.7,10.9l-3.4,3.4L267.6-111z"/>
		</g>
		<path id="Icon_ionic-ios-arrow-round-forward" class="st13" d="M666.6,2136.5c-1,1.1-2.8,1.1-3.8,0l-12.6-12.6v47.9
			c0,1.5-1.3,2.7-2.7,2.6c-1.4,0-2.6-1.2-2.6-2.6v-47.9l-12.6,12.6c-2.6,2.4-6.2-1.3-3.8-3.8c0,0,17.2-17.1,17.2-17.1
			c0.9-1.1,2.7-1,3.7,0c0,0,17.2,17.1,17.2,17.1C667.6,2133.7,667.7,2135.4,666.6,2136.5C666.7,2136.5,666.7,2136.5,666.6,2136.5z"
			/>
		<path id="Icon_ionic-ios-arrow-round-forward-3" class="st13" d="M616.5,2152.9c-1-1.1-2.8-1.1-3.8,0l-12.6,12.6v-47.9
			c0-1.5-1.3-2.7-2.7-2.6c-1.4,0-2.6,1.2-2.6,2.6v47.9l-12.6-12.6c-2.6-2.4-6.2,1.3-3.8,3.8c0,0,17.2,17.1,17.2,17.1
			c0.9,1.1,2.7,1,3.7,0c0,0,17.2-17.1,17.2-17.1C617.5,2155.7,617.6,2154,616.5,2152.9L616.5,2152.9z"/>
		<g class="st6">
			<path d="M683.7,2159.1c0,0.6,0,0.8,0,1.1h-1.2v-0.6h-1v1.3h-1.4c0.2-1.5,0-3.9,0.1-5.4c-0.3,0.6-0.4,0.8-0.8,1.3
				c-1.1-2.5,1.6-3.8,1.5-6.6c-0.5,0-1.1,0-1.5,0.1v-1.5c1.2,0.2,3.1,0.2,4.2,0v1.5c-2-0.7-1.4,1.7-2.1,3c0.6,0,1.8,0,2.3,0
				c0,0.4,0,0.9,0,1.3c1.1-1,1.8-2.1,2.5-3.7h-0.8v1.4h-1.4c0.1-0.9,0.1-1.9,0.1-2.8c1.2-0.1,3.2,0.6,3-1.4l1.6,0.2
				c0,0.1-0.2,0.5-0.4,1.2c0.8,0,3,0.1,3.7-0.1c0,0.7,0,2,0,2.7h-1.6v-1.4c-2.5,0-2.6-0.6-3.8,2c1.4,0.2,1.5-0.2,1.9-1.5l1.4,0.3
				c-0.2,0.5-0.3,0.8-0.5,1.2c0.6,0,1.7,0.1,2.2-0.1v1.3c-0.7-0.1-1.7-0.1-2.4-0.1v1c0.6,0,1.8,0.1,2.2-0.1v1.3
				c-0.6-0.1-1.6-0.1-2.3-0.1v1c0.6,0,1.8,0.1,2.2-0.1v1.3c-0.6-0.1-1.6-0.1-2.3-0.1v1c0.7,0,2.2,0.1,2.7-0.1v1.4
				c-0.9-0.2-4.7-0.1-5.7-0.1v0.6h-1.5c0.2-1.3,0.1-4.7,0.1-6.1c-0.2,0.3-0.3,0.5-0.6,0.8c-0.1-0.3-0.3-0.5-0.5-0.9L683.7,2159.1
				L683.7,2159.1z M681.5,2158.2h1v-3.7h-1V2158.2z M688,2154.9v-1h-1.7v1H688z M686.3,2157.1h1.7v-1h-1.7V2157.1z M686.3,2159.3
				h1.7v-1h-1.7V2159.3z"/>
			<path d="M694.9,2150.6c1.1,0.2,3.8,0.2,4.9,0v1.4c-1.1,0.1-3.8-0.1-4.9,0.1V2150.6z M695.4,2148.6c1.1,0.2,3,0.2,4.1,0v1.4
				c-1.1-0.1-3-0.2-4.1,0V2148.6z M699.4,2159.8c0,0.5,0,0.8,0.1,1.1h-1.3v-0.5h-1.4v0.7h-1.4c0.1-1.4,0.2-3.2,0-4.6
				c1,0.2,3.1,0.1,4.1,0.1c0,0.4,0,2.2,0,2.8c0.5-1,0.7-1.7,0.9-3.2l1.2,0.3c-0.2,1.8-0.4,2.4-0.9,3.8l-1.1-0.7v0.2L699.4,2159.8
				L699.4,2159.8z M695.4,2152.6c1,0,3.1,0,4.1,0v1.3c-1,0-3.1,0-4.1,0V2152.6z M695.4,2154.6c0.9,0,3.2,0,4.1,0v1.3
				c-1,0-3.1,0-4.1,0V2154.6z M696.7,2159.2h1.4v-1.4h-1.4V2159.2z M700.7,2150.7c0.8,0.3,1.1,0.4,1.6,0.6c0.1-0.4,0.2-0.6,0.2-1.1
				c-0.7,0-1.9,0-2.4,0.1v-1.5c1.7,0.2,5.7,0.2,7.3,0c-0.3,2.5,0.4,7.2-3.4,6c-0.1-0.6-0.1-0.8-0.3-1.4h0.1
				c-0.3-0.2-0.5-0.3-0.8-0.5c-0.7,1.1-1.3,1.7-2.6,2.4c-0.3-0.5-0.5-0.7-1-1.1c1.2-0.5,1.8-1.1,2.4-1.9c-0.6-0.3-0.9-0.4-1.7-0.6
				L700.7,2150.7z M703.1,2159.2c0,0.3,0.1,0.4,0.6,0.4c1.6,0,1-0.4,1.3-1.8c0.5,0.2,0.8,0.3,1.3,0.4c-0.2,2.4-0.4,2.7-2.4,2.7
				c-1.7,0-2.1-0.2-2.1-1c0-0.7,0.1-3.2-0.1-3.9h1.5C703,2156.6,703.1,2158.6,703.1,2159.2z M703.2,2154.2c1.3,1,1.3,1,2.2,1.9
				l-1.1,0.9c-0.6-0.9-1.2-1.4-2.1-2.1L703.2,2154.2z M703.9,2150.1c-0.1,0.8-0.2,1.1-0.4,1.7c0.4,0.2,0.6,0.3,1.2,0.6l-0.6,1
				c2.1,0.5,1.5-1.2,1.8-3.3H703.9z M706.6,2156c0.5,1.3,2.6,3.3,0.3,4c-0.4-1.6-0.7-2.2-1.5-3.4L706.6,2156z"/>
		</g>
	</g>
</g>
</svg>
