<?xml version="1.0" encoding="utf-8"?>
<!-- Generator: Adobe Illustrator 25.4.1, SVG Export Plug-In . SVG Version: 6.00 Build 0)  -->
<svg version="1.1" id="レイヤー_1" xmlns="http://www.w3.org/2000/svg" xmlns:xlink="http://www.w3.org/1999/xlink" x="0px"
	 y="0px" viewBox="0 0 182.8 153.2" style="enable-background:new 0 0 182.8 153.2;" xml:space="preserve">
<style type="text/css">
	.st0{fill:#1A62A3;}
	.st1{font-family:'KozGoPr6N-Regular-83pv-RKSJ-H';}
	.st2{font-size:7.3235px;}
	.st3{fill:none;stroke:#1A62A3;stroke-width:0.9154;}
	.st4{fill:#1A62A3;stroke:#1A62A3;stroke-width:0.4577;}
	.st5{fill:none;stroke:#1A62A3;stroke-width:2.7463;}
</style>
<g transform="translate(-868.609 -3981.015)">
	<g transform="translate(868.609 3976.112)">
		<g transform="translate(31.659 4.903)">
			<g transform="translate(11.418 14.876)">
				<path class="st0" d="M15.9,17.6c-1,0-1.9,0.6-2.3,1.4c-0.3,0.6-0.3,1.3-0.1,1.9c0.2,0.6,0.7,1.1,1.3,1.4c0.3,0.2,0.7,0.2,1,0.2
					c1.4,0,2.5-1.1,2.6-2.4C18.5,18.8,17.4,17.7,15.9,17.6C16,17.6,16,17.6,15.9,17.6z"/>
				<path class="st0" d="M27.5,14.6c-0.2-3-2.1-5.6-4.9-6.8c-0.5,0.6-1,1.3-1.6,1.9c2.3,0.6,3.9,2.6,4.1,5c0,1.7-0.4,3.3-1.3,4.7
					c-1.9,3.4-6.9,6.9-12.8,6.9c-1.4,0-2.8-0.2-4.1-0.6c-0.3-0.1-0.5-0.2-0.8-0.3c0,0-0.1,0.1-0.1,0.1c-0.4,0.4-0.9,0.6-1.4,0.6
					l-0.7,0.9c0.7,0.3,1.5,0.6,2.3,0.8c1.5,0.5,3.2,0.7,4.8,0.7l0,0c3.1,0,6.2-0.9,8.9-2.4c2.4-1.3,4.4-3.3,5.9-5.7
					C27,18.8,27.6,16.7,27.5,14.6L27.5,14.6z"/>
			</g>
			<path class="st0" d="M14.1,27.3c-0.3-0.2-0.7-0.2-1.1-0.2c-1,0-1.9,0.6-2.3,1.4c-0.6,1.3,0,2.7,1.2,3.3C12.3,32,12.7,32,13,32
				c1.4,0,2.5-1.1,2.5-2.5C15.5,28.6,15,27.7,14.1,27.3z"/>
			<g transform="translate(0)">
				<path class="st0" d="M20.5,20.1c0.3-1.2,0-2.4-0.7-3.3c-0.7-0.9-1.8-1.4-3-1.3c-2.4,0.1-4.5,1.8-5.1,4.1c-0.3,1.2,0,2.4,0.7,3.3
					c0.7,0.9,1.8,1.4,3,1.3c1.2,0,2.4-0.5,3.3-1.3C19.6,22.2,20.2,21.2,20.5,20.1L20.5,20.1z M17.5,21.5c-0.6,0.5-1.3,0.8-2.1,0.8
					c-0.6,0-1.1-0.2-1.5-0.6c-0.4-0.5-0.5-1.1-0.3-1.7c0.2-0.7,0.6-1.4,1.2-1.8c0.6-0.5,1.3-0.8,2.1-0.8c0.6,0,1.1,0.2,1.5,0.6
					c0.4,0.5,0.5,1.1,0.3,1.7C18.5,20.4,18.1,21,17.5,21.5L17.5,21.5z"/>
				<path class="st0" d="M9.4,37.5l1.9-1.4v0c-2.3-2.6-3.7-5.8-3.9-9.3c-0.1-2.8,0.5-5.5,1.8-8c1.7-3.1,4.4-5.5,7.6-6.9
					c0.9-0.4,1.8-0.6,2.7-0.6c0.7,0,1.5,0.1,2.1,0.4c1.5,0.7,2.7,1.9,3.4,3.5c0.5,1.3,0.4,2.7-0.2,4c-0.3,0.7-0.5,1.5-0.5,2.4
					c0,0.3,0.1,0.7,0.2,1c0.7-0.7,1.5-1.4,2.3-2c0-0.1,0.1-0.2,0.1-0.3c0.9-1.8,1-3.9,0.3-5.8c-0.8-2.2-2.5-3.9-4.6-4.8
					c-1-0.4-2-0.6-3-0.6c-1.2,0-2.5,0.3-3.6,0.8c-3.8,1.5-6.9,4.4-8.8,8l0,0c-1.5,2.8-2.2,5.9-2,9.1c0.2,3.6,1.5,7.1,3.8,9.9
					C9,37.1,9.2,37.3,9.4,37.5L9.4,37.5z"/>
			</g>
			<path class="st0" d="M9.8,45.1c0.1,0,0.1,0.1,0.1,0.1s0.1,0.1,0.1,0.1l0,0c0.2,0.3,0.6,0.5,0.9,0.5c0,0,0.1,0,0.1,0
				c0.2,0,0.4-0.2,0.6-0.5l4.2-5.6c0.3,0.1,0.7,0,1-0.3c0.2-0.2,0.3-0.6,0.3-0.9c0.5,0.1,1.1-0.3,1.2-0.8c0-0.2,0-0.4-0.1-0.6
				c1.3-1,6.8-6.3,8.1-7.6c5.7-5.7,12.2-13.9,11.2-14.9c-1-1-9.3,5.5-15,11.2c-1.3,1.3-6.6,6.8-7.6,8.1c-0.5-0.2-1.1,0-1.3,0.5
				c-0.1,0.2-0.1,0.4-0.1,0.6c-0.5-0.1-1.1,0.3-1.1,0.8c0,0.1,0,0.2,0,0.3l-5.6,4.3c-0.2,0.1-0.4,0.4-0.4,0.7c0,0.3,0.2,0.6,0.4,0.8
				 M10.9,44.3c0,0-0.1-0.1-0.1-0.1l-2.6-2.6c0,0-0.1-0.1-0.1-0.1l4.3-3.4l0.5,0.5L11.6,40c-0.1,0.2-0.1,0.4,0.1,0.6
				c0.1,0.1,0.2,0.1,0.3,0.1c0.1,0,0.2,0,0.2-0.1l1.6-1.1l0.5,0.5L10.9,44.3z"/>
		</g>
		<g transform="translate(114.524 4.903)">
			<g transform="translate(0)">
				<path class="st0" d="M22.2,37.8c-0.2-0.1-0.3-0.3-0.5-0.4c-0.1-0.1-0.1-0.2-0.1-0.3H0.5V16.3h28.7v13.6c0.6,0.1,1.1,0.4,1.3,1
					c0.2-0.1,0.4-0.2,0.6-0.2c0.1,0,0.3,0,0.4,0V11.1c0-1.1-0.9-2-2-2H0.1c-1.1,0-2,0.9-2,2v26.4c0,1.1,0.9,2,2,2h22
					c-0.2-0.3-0.2-0.7-0.1-1.1C22,38.2,22.1,38,22.2,37.8L22.2,37.8z M26.9,12.5c0-0.4,0.3-0.7,0.7-0.7c0,0,0,0,0,0h0.7
					c0.4,0,0.7,0.3,0.7,0.7v0.8c0,0.4-0.3,0.7-0.7,0.7h-0.7c-0.4,0-0.7-0.3-0.7-0.7c0,0,0,0,0,0V12.5z M23.5,12.5
					c0-0.4,0.3-0.7,0.7-0.7c0,0,0,0,0,0h0.7c0.4,0,0.7,0.3,0.7,0.7c0,0,0,0,0,0v0.8c0,0.4-0.3,0.7-0.7,0.7c0,0,0,0,0,0h-0.7
					c-0.4,0-0.7-0.3-0.7-0.7c0,0,0,0,0,0V12.5z M20,12.5c0-0.4,0.3-0.7,0.7-0.7c0,0,0,0,0,0h0.7c0.4,0,0.7,0.3,0.7,0.7v0.8
					c0,0.4-0.3,0.7-0.7,0.7h-0.7c-0.4,0-0.7-0.3-0.7-0.7c0,0,0,0,0,0V12.5z"/>
				<path class="st0" d="M33.9,36.4l-0.2-1.3c0-0.2-0.2-0.3-0.3-0.3c0,0,0,0,0,0l-1.1,0.2c-0.1-0.3-0.3-0.6-0.5-0.9l0.7-0.9
					c0.1-0.1,0.1-0.3,0-0.4l-1-0.8C31.3,32,31.2,32,31.2,32c-0.1,0-0.2,0-0.2,0.1L30.2,33c-0.3-0.2-0.6-0.3-1-0.4v-1.1
					c0-0.2-0.1-0.3-0.3-0.3h-1.3c-0.2,0-0.3,0.1-0.3,0.3l0,0v1.1c-0.3,0.1-0.7,0.2-1,0.4l-0.7-0.9c-0.1-0.1-0.3-0.1-0.4,0
					c0,0,0,0,0,0l-1,0.8c-0.1,0.1-0.1,0.1-0.1,0.2c0,0.1,0,0.2,0.1,0.2l0.7,0.9c-0.2,0.3-0.4,0.6-0.5,0.9l-1.1-0.2
					c-0.2,0-0.3,0.1-0.4,0.2c0,0,0,0,0,0l-0.2,1.3c0,0.1,0,0.2,0.1,0.2c0,0.1,0.1,0.1,0.2,0.1l1.1,0.2c0,0.3,0.1,0.7,0.2,1l-1,0.6
					c-0.1,0-0.1,0.1-0.1,0.2c0,0.1,0,0.2,0,0.2l0.6,1.1c0,0.1,0.1,0.1,0.2,0.1c0,0,0.1,0,0.1,0c0.1,0,0.1,0,0.2,0l1-0.6
					c0.2,0.2,0.5,0.5,0.8,0.7l-0.4,1.1c0,0.1,0,0.2,0,0.2c0,0.1,0.1,0.1,0.2,0.2l1.2,0.4c0,0,0.1,0,0.1,0c0,0,0.1,0,0.1,0
					c0.1,0,0.1-0.1,0.2-0.2l0.4-1.1c0.2,0,0.3,0,0.5,0c0.2,0,0.3,0,0.5,0l0.4,1.1c0,0.1,0.1,0.1,0.2,0.2c0,0,0.1,0,0.1,0
					c0,0,0.1,0,0.1,0l1.2-0.4c0.1,0,0.1-0.1,0.2-0.2c0-0.1,0-0.2,0-0.2l-0.4-1.1c0.3-0.2,0.5-0.4,0.8-0.7l1,0.6c0.1,0,0.2,0.1,0.2,0
					c0.1,0,0.1-0.1,0.2-0.1l0.6-1.1c0-0.1,0.1-0.2,0-0.2c0-0.1-0.1-0.2-0.2-0.2l-1-0.6c0.1-0.3,0.2-0.7,0.2-1l1.1-0.2
					c0.1,0,0.2-0.1,0.2-0.1C33.9,36.6,33.9,36.5,33.9,36.4L33.9,36.4z M28.3,38.4c-1,0-1.7-0.8-1.7-1.7c0-1,0.8-1.7,1.7-1.7
					c1,0,1.7,0.8,1.7,1.7l0,0C30,37.7,29.3,38.4,28.3,38.4C28.3,38.4,28.3,38.4,28.3,38.4z"/>
			</g>
			<path class="st0" d="M12.1,27.9c0-0.4-0.2-0.8-0.6-0.9l-3.4-1.6l3.4-1.6c0.4-0.2,0.6-0.5,0.6-0.9v0c0-0.6-0.5-1-1-1c0,0,0,0,0,0
				c-0.2,0-0.3,0-0.4,0.1l-5.4,2.5c-0.4,0.2-0.6,0.5-0.6,0.9v0.1c0,0.4,0.2,0.8,0.6,0.9l5.4,2.5c0.1,0.1,0.3,0.1,0.4,0.1
				c0.2,0,0.4-0.1,0.6-0.2C11.9,28.6,12.1,28.2,12.1,27.9L12.1,27.9z"/>
			<path class="st0" d="M17.4,19.2c-0.2-0.3-0.5-0.4-0.8-0.4h0c-0.5,0-0.9,0.3-1,0.7l-3.6,11c-0.2,0.6,0.1,1.1,0.7,1.3
				c0.1,0,0.2,0,0.3,0h0c0.5,0,0.9-0.3,1-0.7l3.6-11C17.7,19.8,17.6,19.5,17.4,19.2L17.4,19.2z"/>
			<path class="st0" d="M24.4,24.3L19,21.8c-0.1-0.1-0.3-0.1-0.4-0.1c-0.6,0-1,0.4-1,1c0,0,0,0,0,0v0c0,0.4,0.2,0.8,0.6,0.9l3.4,1.6
				l-3.4,1.6c-0.4,0.2-0.6,0.5-0.6,0.9v0c0,0.6,0.5,1,1,1c0,0,0,0,0,0c0.2,0,0.3,0,0.4-0.1l5.4-2.5c0.4-0.2,0.6-0.5,0.6-0.9v-0.1
				C25,24.9,24.7,24.5,24.4,24.3L24.4,24.3z"/>
		</g>
		<g transform="translate(0 68.524)">
			<path class="st0" d="M31,27.9H12v-19h14.8l4.3-4.3H7.7v27.6h27.6V14.5L31,18.8L31,27.9z"/>
			<path class="st0" d="M16.7,14.6l-3,3l7.2,7.2L39,6.8l-3-3L20.9,18.9L16.7,14.6z"/>
		</g>
		<g transform="translate(34.194 120.255)">
			<g transform="translate(0 0)">
				<g transform="translate(0)">
					<path class="st0" d="M7.8,14.9c0.2,0.1,0.5,0.1,0.7,0l5.5-2.3c0.3-0.1,0.6-0.5,0.6-0.9c0-0.4-0.2-0.7-0.6-0.9l-1.5-0.6
						c1.9-4.6,7.2-6.7,11.8-4.8c2.2,0.9,3.9,2.6,4.8,4.8c0.5,1.1,1.7,1.8,2.9,1.5l0.2,0c1.4-0.3,2.3-1.6,2-3c0-0.2-0.1-0.3-0.2-0.5
						c-3-7.3-11.4-10.8-18.7-7.7c-3.5,1.5-6.3,4.2-7.7,7.7L6.1,7.7c-0.5-0.2-1,0-1.2,0.5c-0.1,0.2-0.1,0.5,0,0.7l2.3,5.5
						C7.4,14.6,7.5,14.8,7.8,14.9L7.8,14.9z"/>
				</g>
				<path class="st0" d="M36.3,19.2L34,13.8c-0.1-0.2-0.3-0.4-0.5-0.5c-0.2-0.1-0.5-0.1-0.7,0l-5.5,2.3c-0.5,0.2-0.7,0.7-0.5,1.2
					c0.1,0.2,0.3,0.4,0.5,0.5l1.5,0.6c-1.9,4.6-7.2,6.7-11.8,4.8c-2.2-0.9-3.9-2.6-4.8-4.8c-0.5-1.1-1.7-1.8-2.9-1.5l-0.2,0
					c-1.4,0.3-2.3,1.6-2,3c0,0.2,0.1,0.3,0.2,0.5c2.2,5.3,7.4,8.8,13.2,8.8c5.8,0,11-3.5,13.2-8.8l1.4,0.5c0.5,0.2,1,0,1.2-0.5
					C36.4,19.7,36.4,19.5,36.3,19.2L36.3,19.2z"/>
			</g>
			<text transform="matrix(1 0 0 1 13.7611 17.266)" class="st0 st1 st2">SEO</text>
			<text transform="matrix(1 0 0 1 13.7611 17.266)" class="st3 st1 st2">SEO</text>
		</g>
		<g transform="translate(146.158 65.32)">
			<path class="st0" d="M26.2,4H-1.9c-1.5,0-2.7,1.2-2.7,2.7c0,0,0,0,0,0v19c0,1.5,1.2,2.7,2.7,2.7c0,0,0,0,0,0h7.6V31
				c0,0.5,0.4,1,1,1c0,0,0,0,0,0h11c0.5,0,1-0.4,1-1c0,0,0,0,0,0v-2.6h7.6c1.5,0,2.7-1.2,2.7-2.7c0,0,0,0,0,0v-19
				C28.9,5.2,27.7,4,26.2,4C26.2,4,26.2,4,26.2,4L26.2,4z M25.2,24.7H-0.9v-17h26.1L25.2,24.7z"/>
			<path class="st0" d="M17.1,17l-7.8,4.5c-0.3,0.2-0.7,0.1-0.9-0.2c-0.1-0.1-0.1-0.2-0.1-0.3v-9c0-0.4,0.3-0.7,0.7-0.7
				c0.1,0,0.2,0,0.3,0.1l7.8,4.5c0.3,0.2,0.4,0.6,0.2,0.9C17.3,16.9,17.2,16.9,17.1,17L17.1,17z"/>
		</g>
		<g transform="translate(121.609 115.961)">
			<path class="st4" d="M26.4,18.4L24,16c-0.3-0.3-0.7-0.5-1.1-0.5c-0.4,0-0.7,0.2-1,0.4L20,17.9l-7.6,7.6c-0.1,0.1-0.2,0.2-0.2,0.4
				l-1.3,4.5c0,0.1,0,0.2,0,0.3c0,0.4,0.4,0.8,0.8,0.8c0.1,0,0.2,0,0.2,0l4.5-1.3c0.1,0,0.3-0.1,0.4-0.2l7.7-7.7l1.9-1.9
				c0.2-0.2,0.4-0.6,0.4-0.9C26.8,19.1,26.7,18.7,26.4,18.4L26.4,18.4z M15.8,28.6L13,29.4l0.8-2.8l6.9-6.9l2,2L15.8,28.6z
				 M23.9,20.5l-2-2l1.1-1.1l2,2L23.9,20.5z"/>
			<path class="st4" d="M14.7,14.7H1.3c-0.5,0-0.9,0.4-0.9,0.9c0,0.5,0.4,0.8,0.9,0.9h13.4c0.5,0,0.9-0.4,0.9-0.9
				C15.5,15.1,15.1,14.7,14.7,14.7z"/>
			<path class="st4" d="M15.5,19.4c0-0.5-0.4-0.8-0.8-0.8c0,0,0,0,0,0H1.3c-0.5,0-0.9,0.4-0.9,0.8c0,0,0,0,0,0
				c0,0.5,0.4,0.9,0.8,0.9c0,0,0,0,0,0h13.4C15.1,20.3,15.5,19.9,15.5,19.4C15.5,19.4,15.5,19.4,15.5,19.4z"/>
			<path class="st4" d="M7.5,22.4H1.3c-0.5,0-0.9,0.4-0.9,0.8c0,0.5,0.4,0.9,0.8,0.9c0,0,0,0,0.1,0h6.2c0.5,0,0.9-0.4,0.9-0.8
				C8.4,22.8,8,22.4,7.5,22.4C7.5,22.4,7.5,22.4,7.5,22.4z"/>
			<path class="st4" d="M7.5,26.2H1.3c-0.5,0-0.9,0.4-0.9,0.9c0,0.5,0.4,0.9,0.9,0.9h6.2c0.5,0,0.9-0.4,0.9-0.9
				C8.4,26.6,8,26.2,7.5,26.2z"/>
			<path class="st4" d="M-0.8,29.6v-28c0-0.1,0-0.1,0.2-0.1h6.4v9.2c0,1,0.8,1.9,1.8,1.9c0,0,0,0,0,0h9.2v5.2h1.7v-7h0L7.4-0.2l0,0
				h-8.1c-0.5,0-1,0.2-1.3,0.5c-0.4,0.3-0.5,0.8-0.5,1.3v28c0,1,0.8,1.9,1.8,1.9c0,0,0,0,0.1,0H9.5v-1.7H-0.7
				C-0.8,29.8-0.8,29.7-0.8,29.6L-0.8,29.6z M7.4,2.2l8.7,8.7H7.6c-0.1,0-0.2-0.1-0.2-0.2L7.4,2.2z"/>
		</g>
		<g transform="translate(37.859 57.24) rotate(-22)">
			<path class="st0" d="M35.3,33.1l-2.9-11.7c-0.6,0-1.3-0.1-1.9-0.3c-3.6-1.1-5.7-4.9-4.6-8.6C27.1,9,30.9,6.9,34.6,8
				c3.6,1.1,5.7,4.9,4.6,8.6c-0.5,1.7-1.7,3.2-3.3,4l2.8,11.6C37.5,32.4,36.4,32.7,35.3,33.1z"/>
			<path class="st0" d="M12.3,58c2.6-1.3,5.6-0.9,7.8,1.1l7.2-4.6c0,0.1,0,0.1,0.1,0.2c0.5,1,1.1,1.9,1.8,2.7L21.9,62
				c1.2,3.6-0.8,7.5-4.4,8.6s-7.5-0.8-8.6-4.4C7.8,63,9.3,59.5,12.3,58z"/>
			<path class="st0" d="M68.6,35.5c-2.6,1.3-5.6,0.9-7.8-1.1L53.6,39c0-0.1,0-0.1-0.1-0.2c-0.5-1-1.1-1.9-1.8-2.7l7.2-4.6
				c-1.2-3.6,0.8-7.5,4.4-8.6c3.6-1.2,7.5,0.8,8.6,4.4C73,30.5,71.6,34,68.6,35.5L68.6,35.5z"/>
			<path class="st0" d="M39.6,68.8l-0.3-8.5c1.2,0.1,2.3,0,3.5-0.1l0.3,8.6c3.7,0.8,6,4.5,5.2,8.2c-0.8,3.7-4.5,6-8.2,5.2
				c-3.7-0.8-6-4.5-5.2-8.2C35.4,71.4,37.2,69.5,39.6,68.8L39.6,68.8z"/>
			<path class="st5" d="M29.2,46.6c0,6.1,4.9,11,11,11c6.1,0,11-4.9,11-11c0-6.1-4.9-11-11-11c0,0,0,0,0,0
				C34.1,35.6,29.2,40.5,29.2,46.6C29.2,46.6,29.2,46.6,29.2,46.6L29.2,46.6z"/>
			<path class="st0" d="M12.7,29c2.5,1.4,3.8,4.3,3.3,7.1l7.8,3.5c0,0.1-0.1,0.1-0.1,0.2c-0.5,0.9-1,1.9-1.3,3l-7.8-3.5
				c-2.4,2.9-6.7,3.4-9.6,1s-3.4-6.7-1-9.6C6.1,28,9.8,27.4,12.7,29z"/>
			<path class="st0" d="M70.5,53.8c-2.7-1-5.7-0.2-7.6,2l-7.7-3.7c0,0.1,0,0.1-0.1,0.2c-0.4,1-0.9,2-1.4,2.9l7.7,3.7
				c-0.7,3.7,1.7,7.3,5.4,8c3.7,0.7,7.3-1.7,8-5.4C75.5,58.2,73.6,55,70.5,53.8z"/>
		</g>
	</g>
</g>
</svg>
