<?xml version="1.0" encoding="utf-8"?>
<!-- Generator: Adobe Illustrator 25.4.1, SVG Export Plug-In . SVG Version: 6.00 Build 0)  -->
<svg version="1.1" id="レイヤー_1" xmlns="http://www.w3.org/2000/svg" xmlns:xlink="http://www.w3.org/1999/xlink" x="0px"
	 y="0px" viewBox="0 0 192.5 210" style="enable-background:new 0 0 192.5 210;" xml:space="preserve">
<style type="text/css">
	.st0{fill:none;stroke:#B4A28F;stroke-width:5;}
	.st1{fill:none;stroke:#B4A28F;stroke-width:3;}
	.st2{fill:#B4A28F;}
	.st3{fill:#FFFFFF;}
</style>
<g transform="translate(-739.977 -728.45)">
	<g transform="translate(742.477 731.208)">
		<path class="st0" d="M93.75,4.978L22.388,38.207v61.11c0.005,45.217,28.645,85.471,71.362,100.3
			c42.714-14.833,71.352-55.084,71.362-100.3v-61.11L93.75,4.978z"/>
		<path class="st1" d="M93.75,19.996v165.059c34.897-14.169,57.731-48.069,57.747-85.733V46.888L93.75,19.996z"/>
		<path class="st1" d="M36.011,46.888v52.434c0.012,37.663,22.843,71.563,57.738,85.733V19.996L36.011,46.888z"/>
		<g transform="translate(35.366 59.597)">
			<path class="st2" d="M94.398,40.992C94.39,60.874,78.266,76.986,58.384,76.978C38.502,76.97,22.39,60.846,22.398,40.964
				c0.008-19.875,16.12-35.983,35.995-35.986C78.279,4.979,94.399,21.1,94.398,40.985C94.398,40.987,94.398,40.99,94.398,40.992z"/>
			<path class="st3" d="M51.787,59.492L35.928,43.625l5.287-5.277L51.787,48.91l23.778-23.778l5.286,5.286L51.787,59.492z"/>
		</g>
	</g>
</g>
</svg>
