<svg xmlns="http://www.w3.org/2000/svg" xmlns:xlink="http://www.w3.org/1999/xlink" width="596.848" height="506.148" viewBox="0 0 596.848 506.148">
  <defs>
    <filter id="パス_3004">
      <feOffset dy="3" input="SourceAlpha"/>
      <feGaussianBlur stdDeviation="3" result="blur"/>
      <feFlood flood-opacity="0.161" result="color"/>
      <feComposite operator="out" in="SourceGraphic" in2="blur"/>
      <feComposite operator="in" in="color"/>
      <feComposite operator="in" in2="SourceGraphic"/>
    </filter>
  </defs>
  <g id="グループ_1960" data-name="グループ 1960" transform="translate(-297 -6965.15)">
    <path id="パス_3030" data-name="パス 3030" d="M-174.727,0V-64.005h-8.33l-14.45,7.735,2.21,7.225L-184.5-55h.17V0Zm40.205.935c13.175,0,20.995-11.815,20.995-33.49,0-19.38-6.8-32.47-20.315-32.47-13.26,0-21.165,12.24-21.165,33.15C-155.007-12.24-147.867.935-134.522.935Zm.17-7.905c-6.8,0-10.71-9.35-10.71-25.245,0-15.98,4.42-24.99,10.88-24.99,7.48,0,10.71,9.775,10.71,24.99C-123.472-18.955-126.022-6.97-134.352-6.97Zm31.28-5.27a139.265,139.265,0,0,1-6.035,24.14l6.8-.68c3.23-5.355,7.48-15.9,9.945-24.4ZM-65.757.935c13.175,0,20.995-11.815,20.995-33.49,0-19.38-6.8-32.47-20.315-32.47-13.26,0-21.165,12.24-21.165,33.15C-86.243-12.24-79.1.935-65.757.935Zm.17-7.905c-6.8,0-10.71-9.35-10.71-25.245,0-15.98,4.42-24.99,10.88-24.99,7.48,0,10.71,9.775,10.71,24.99C-54.707-18.955-57.257-6.97-65.587-6.97Zm47.6,7.905C-4.813.935,3.007-10.88,3.007-32.555c0-19.38-6.8-32.47-20.315-32.47-13.26,0-21.165,12.24-21.165,33.15C-38.473-12.24-31.333.935-17.988.935Zm.17-7.905c-6.8,0-10.71-9.35-10.71-25.245,0-15.98,4.42-24.99,10.88-24.99,7.48,0,10.71,9.775,10.71,24.99C-6.938-18.955-9.488-6.97-17.818-6.97ZM29.782.935c13.175,0,20.995-11.815,20.995-33.49,0-19.38-6.8-32.47-20.315-32.47C17.2-65.025,9.3-52.785,9.3-31.875,9.3-12.24,16.437.935,29.782.935Zm.17-7.905c-6.8,0-10.71-9.35-10.71-25.245,0-15.98,4.42-24.99,10.88-24.99,7.48,0,10.71,9.775,10.71,24.99C40.832-18.955,38.282-6.97,29.952-6.97ZM82.08-28.8a4.168,4.168,0,0,0,4.18,4.18,4.168,4.168,0,0,0,4.18-4.18,4.2,4.2,0,0,0-4.18-4.218A4.2,4.2,0,0,0,82.08-28.8Zm4.18,2.85a2.871,2.871,0,0,1-2.85-2.85,2.846,2.846,0,0,1,2.85-2.85,2.846,2.846,0,0,1,2.85,2.85A2.87,2.87,0,0,1,86.26-25.954Zm.95,6.46V-23.1H74.823v-6.612a1.007,1.007,0,0,0,1.026-.836l-4.864-.228V-23.1H58.559v3.61H70.984V-2.812c0,1.444-.8,1.444-3.116,1.444-1.1,0-2.508-.038-3.648-.076a19.184,19.184,0,0,1,1.064,3.5c5.662.076,9.538.114,9.538-4.94V-19.494ZM78.547-13.87A64.82,64.82,0,0,1,85.881-2.736L89.3-4.712a71.714,71.714,0,0,0-7.676-10.754Zm-15.39-1.292A25.95,25.95,0,0,1,56.583-4.75l3.154,1.976a32.231,32.231,0,0,0,6.878-11.1Zm58.9-15.808c-5.966,6.8-17.328,14.782-27.474,19.38a16.836,16.836,0,0,1,2.28,2.926,112.479,112.479,0,0,0,13.49-7.79V2.2h3.99V-17.86a1.038,1.038,0,0,0,.912-.646c-.228-.076-.684-.266-1.026-.418a93.952,93.952,0,0,0,10.488-8.854,1.426,1.426,0,0,0,.38.038,1.136,1.136,0,0,0,.836-.342Zm12.274,5.89a52.044,52.044,0,0,1,11.02,5.244l1.976-3.42a46.933,46.933,0,0,0-11.21-5.054Zm3.8,26.714a1.216,1.216,0,0,0,.608-.912c12.73-4.37,21.926-12.5,26.638-22.876a25.328,25.328,0,0,1-3.5-2.2C157.4-13.87,148.5-6.346,135.395-2.318Zm61.6-15.618a133.2,133.2,0,0,0-13.946-6.156l-.76,1.064V-29.944c.722-.152,1.064-.456,1.1-.874l-5.092-.3V2.128h3.99V-16.264A112.811,112.811,0,0,1,197.6-10.3Z" transform="translate(533 7459.398)" fill="#1a62a3"/>
    <path id="パス_3028" data-name="パス 3028" d="M15.54-3.192a9.574,9.574,0,0,1-3.864.756c-4.424,0-7.168-2.94-7.168-8.2,0-5.572,3.08-8.372,7.224-8.372a8.821,8.821,0,0,1,3.752.784l.7-2.66a10.381,10.381,0,0,0-4.564-.84c-5.936,0-10.528,3.976-10.528,11.256,0,6.832,4,10.78,9.968,10.78a12.3,12.3,0,0,0,5.04-.9ZM26.908-15.68a3.8,3.8,0,0,0-.812-.084,4.434,4.434,0,0,0-4,3.164H21.98l-.112-2.828H19.04c.084,1.428.112,2.912.112,4.7V0H22.4V-8.176c0-2.688,1.372-4.48,3.556-4.48a4.813,4.813,0,0,1,.952.084ZM40.18-2.912a9.625,9.625,0,0,1-3.892.728c-2.436,0-4.592-1.316-4.676-4.788h9.8A9.73,9.73,0,0,0,41.5-8.344c0-3.808-1.736-7.42-6.076-7.42-4.368,0-6.944,3.668-6.944,8.26,0,4.7,2.688,7.812,7.336,7.812a12.063,12.063,0,0,0,4.9-.924ZM31.64-9.3c.168-1.792,1.176-4.144,3.556-4.144,2.492,0,3.248,2.3,3.22,4.144Zm23.8-.2c0-3.276-1.26-6.272-5.8-6.272a9.626,9.626,0,0,0-4.984,1.288l.672,2.156a7.1,7.1,0,0,1,3.752-1.064c3.108,0,3.108,2.3,3.108,3.444-5.292,0-8.624,1.9-8.624,5.74A4.357,4.357,0,0,0,48.1.308a5.223,5.223,0,0,0,4.312-2.1H52.5L52.724,0h2.94a20.959,20.959,0,0,1-.224-3.668ZM52.276-5.208a3.15,3.15,0,0,1-3.22,3.136,2.2,2.2,0,0,1-2.268-2.464c0-2.744,2.94-3.22,5.488-3.22Zm7.9-10.22H57.988v2.436h2.184v7.98c0,2.016.364,3.3,1.148,4.144A4,4,0,0,0,64.372.308a7.162,7.162,0,0,0,2.52-.364L66.78-2.548a4.726,4.726,0,0,1-1.428.2c-1.372,0-1.96-.924-1.96-2.828v-7.812H67.06v-2.436H63.392v-3.808l-3.22,1.008Zm13.216-4.256a1.816,1.816,0,0,0-1.876-1.9,1.838,1.838,0,0,0-1.9,1.9,1.825,1.825,0,0,0,1.876,1.876A1.815,1.815,0,0,0,73.388-19.684Zm-.28,4.228H69.86V0h3.248Zm13.132.028L83.748-7.2c-.392,1.344-.756,2.6-1.036,3.892h-.084c-.28-1.288-.616-2.576-1.036-3.92l-2.52-8.2h-3.5L80.976,0h3.108l5.544-15.428ZM102.788-2.912a9.625,9.625,0,0,1-3.892.728C96.46-2.184,94.3-3.5,94.22-6.972h9.8a9.73,9.73,0,0,0,.084-1.372c0-3.808-1.736-7.42-6.076-7.42-4.368,0-6.944,3.668-6.944,8.26,0,4.7,2.688,7.812,7.336,7.812a12.063,12.063,0,0,0,4.9-.924ZM94.248-9.3c.168-1.792,1.176-4.144,3.556-4.144,2.492,0,3.248,2.3,3.22,4.144Zm26.46,6.1a9.574,9.574,0,0,1-3.864.756c-4.424,0-7.168-2.94-7.168-8.2,0-5.572,3.08-8.372,7.224-8.372a8.821,8.821,0,0,1,3.752.784l.7-2.66a10.381,10.381,0,0,0-4.564-.84c-5.936,0-10.528,3.976-10.528,11.256,0,6.832,4,10.78,9.968,10.78a12.3,12.3,0,0,0,5.04-.9Zm9.912-12.572c-4.088,0-7.28,2.94-7.28,8.148,0,4.984,3.052,7.924,7.056,7.924,3.472,0,7.224-2.38,7.224-8.148C137.62-12.572,134.848-15.764,130.62-15.764Zm3.668,8.008c0,3.08-1.456,5.628-3.808,5.628-2.38,0-3.808-2.548-3.808-5.572,0-2.66,1.064-5.628,3.836-5.628C133.224-13.328,134.288-10.3,134.288-7.756Zm19.292-1.68c0-4.76-2.688-6.328-5.1-6.328a5.289,5.289,0,0,0-4.676,2.632h-.084l-.168-2.3h-2.828c.056,1.316.112,2.632.112,4.34V0h3.248V-9.3a3.475,3.475,0,0,1,3.3-3.78c2.212,0,2.94,1.848,2.94,4.032V0h3.248Zm14.028,6.524A7.053,7.053,0,0,1,164.7-2.3c-2.688,0-4.676-2.016-4.676-5.4,0-3.024,1.68-5.488,4.7-5.488a6.037,6.037,0,0,1,2.772.616l.644-2.492a8.279,8.279,0,0,0-3.444-.7c-4.956,0-7.98,3.528-7.98,8.2,0,4.816,2.912,7.868,7.364,7.868a9.995,9.995,0,0,0,3.976-.784ZM174.5-19.684a1.816,1.816,0,0,0-1.876-1.9,1.838,1.838,0,0,0-1.9,1.9,1.825,1.825,0,0,0,1.876,1.876A1.816,1.816,0,0,0,174.5-19.684Zm-.28,4.228h-3.248V0h3.248ZM189.14-2.912a9.625,9.625,0,0,1-3.892.728c-2.436,0-4.592-1.316-4.676-4.788h9.8a9.73,9.73,0,0,0,.084-1.372c0-3.808-1.736-7.42-6.076-7.42-4.368,0-6.944,3.668-6.944,8.26,0,4.7,2.688,7.812,7.336,7.812a12.063,12.063,0,0,0,4.9-.924ZM180.6-9.3c.168-1.792,1.176-4.144,3.556-4.144,2.492,0,3.248,2.3,3.22,4.144Zm20.748-6.384a3.8,3.8,0,0,0-.812-.084,4.434,4.434,0,0,0-4,3.164h-.112l-.112-2.828H193.48c.084,1.428.112,2.912.112,4.7V0h3.248V-8.176c0-2.688,1.372-4.48,3.556-4.48a4.813,4.813,0,0,1,.952.084Zm12.516.252-.14,2.072h-.056a4.477,4.477,0,0,0-4.228-2.408c-3.36,0-6.524,2.912-6.524,8.148,0,4.312,2.492,7.532,6.132,7.532a4.841,4.841,0,0,0,4.284-2.268h.056V-.868c0,3.5-1.792,4.9-4.312,4.9A8.42,8.42,0,0,1,204.9,2.94l-.728,2.52a10.024,10.024,0,0,0,4.872,1.12c7.308,0,7.56-5.684,7.56-8.764v-8.792c0-2.072.056-3.36.14-4.452Zm-.5,8.988c0,2.576-1.68,3.864-3.36,3.864-2.408,0-3.78-2.156-3.78-5.18,0-3.3,1.568-5.432,3.808-5.432a3.458,3.458,0,0,1,3.332,3.724ZM231.5-2.912a9.625,9.625,0,0,1-3.892.728c-2.436,0-4.592-1.316-4.676-4.788h9.8a9.73,9.73,0,0,0,.084-1.372c0-3.808-1.736-7.42-6.076-7.42-4.368,0-6.944,3.668-6.944,8.26,0,4.7,2.688,7.812,7.336,7.812a12.063,12.063,0,0,0,4.9-.924ZM222.964-9.3c.168-1.792,1.176-4.144,3.556-4.144,2.492,0,3.248,2.3,3.22,4.144Zm18.676-4c1.652-1.932,2.492-2.856,3.444-2.856,1.092,0,1.876,1.12,3.976,3.724a108.079,108.079,0,0,0,9.912,10.808l2.156-2.492a132.7,132.7,0,0,1-10.7-11.34c-2.212-2.688-3.444-3.7-5.292-3.7-1.456,0-2.6.588-4.536,2.632-1.4,1.512-4.4,4.676-5.824,6.02l2.352,2.828a1.075,1.075,0,0,0,.364-.9Zm32.76,0c1.764-1.428,5.8-4.116,9.3-4.564l-.252-2.884a39.848,39.848,0,0,1-5.152.644c-2.52.168-8.288.28-10.948.224.056.644.056,2.016.056,2.716a83.282,83.282,0,0,0,8.876-.308v.028a34.992,34.992,0,0,0-4.228,2.856Zm14.784-.84a19.563,19.563,0,0,0-3.64-3.668l-1.2,1.092a22.117,22.117,0,0,1,3.584,3.7Zm-3,2.8a20.071,20.071,0,0,0-3.7-3.7l-1.2,1.12a17.2,17.2,0,0,1,3.584,3.7Zm-1.2,8.232a46.475,46.475,0,0,1-8.652.784,23.911,23.911,0,0,1-4.256-.308c-2.184-.476-3.164-1.848-3.164-3.36a6.723,6.723,0,0,1,2.268-4.4l-2.38-1.12a8.929,8.929,0,0,0-2.716,5.936c0,2.492,1.484,4.788,4.984,5.544a32.335,32.335,0,0,0,5.712.364,51.925,51.925,0,0,0,8.428-.588Zm12.264-15.26c.028-1.54.056-3.08.056-4.648.476-.056.7-.224.756-.532l-3.36-.168c0,1.82,0,3.612-.028,5.348h-3.556v2.6h3.5c-.2,6.832-.98,12.684-4.032,16.408a8.918,8.918,0,0,1,1.988,1.848c3.444-4.256,4.368-10.892,4.62-18.256h3.64c-.2,10.276-.42,13.86-.98,14.644a.91.91,0,0,1-.9.5c-.476,0-1.484-.028-2.576-.112a6.569,6.569,0,0,1,.756,2.66c3.192.084,4.172.028,5.04-1.316.84-1.2,1.036-5.432,1.26-18.032,0-.308.028-.672.028-.868l-1.4-.084ZM305.76,1.764h2.548V-.224H312.9V1.568h2.632v-22.12H305.76Zm2.548-19.74H312.9V-2.828h-4.592Zm22.6-4.088h-6.692v2.688h6.776c.084,1.064.2,2.212.392,3.444l-1.456-.336c-1.68,7.784-5.18,13.636-11.088,16.66a15.53,15.53,0,0,1,2.184,2.072c5.488-3.108,8.988-8.316,11.06-15.12A24.273,24.273,0,0,0,343.028,2.38,12.669,12.669,0,0,1,345.156.112c-10.864-6.44-11.536-17.024-11.536-22.2H330.9ZM358.316-3h13.636V-17.864H365.54c.28-.812.532-1.652.728-2.352H373.1v-2.268H357.392v2.268h5.992a22.012,22.012,0,0,1-.532,2.352h-4.536Zm2.464-6.3V-11.62h8.568V-9.3Zm0-4.2v-2.352h8.568V-13.5Zm0,8.484v-2.38h8.568v2.38Zm-3.864-17.024H346.752v2.492h4.228v18.06c0,.588-.14.588-1.624.588-.644,0-1.512-.028-2.408-.056a12.6,12.6,0,0,1,.812,2.6c4.7,0,5.8-.308,5.8-3.136v-18.06h3.36Zm4.424,19.32A22.6,22.6,0,0,1,354.7.616a14.684,14.684,0,0,1,1.652,1.876,24.385,24.385,0,0,0,6.832-3.528.766.766,0,0,0,.5-.2ZM373.492.952A37.051,37.051,0,0,0,367.836-2.6l-1.988,1.428a36.156,36.156,0,0,1,5.516,3.724Zm3.192-21.56a65.239,65.239,0,0,0-.448,7.7c0,1.232.028,2.408.112,3.472.308,4.9,2.576,9.8,6.524,9.8,2.184,0,3.976-1.848,5.572-6.832a13.575,13.575,0,0,1-2.3-1.708c-.784,2.688-2.1,5.516-3.136,5.544-1.428,0-3.92-1.652-3.92-9.268a45.226,45.226,0,0,1,.616-7.5.779.779,0,0,0,.756-.476ZM400.428-7.532a15.494,15.494,0,0,0-7.98-11.452l-1.764,2.1a13.626,13.626,0,0,1,6.832,10.276Zm19.208-12.152a29.372,29.372,0,0,1-7.112,1.484c.252-1.456.476-2.968.644-4.088a.928.928,0,0,0,.812-.616l-3.78-.364c-.168,1.68-.392,3.64-.616,5.32-.56.028-1.092.028-1.6.028-1.344,0-2.8,0-3.7-.056l.028,2.66c.98.028,2.268.028,3.612.028.392,0,.84,0,1.26-.028A58.829,58.829,0,0,1,404.264.7l2.856,1.008a79.149,79.149,0,0,0,4.956-17.164,35.573,35.573,0,0,0,8.12-1.484Zm-2.128,9.492a32.135,32.135,0,0,1,9.464-1.12v-2.66a34.535,34.535,0,0,0-10.08,1.4ZM427.672-1.54a32.465,32.465,0,0,1-3.332.14c-4.256,0-6.356-.364-6.356-2.324A4.422,4.422,0,0,1,419.356-6.5L417-7.42A6.593,6.593,0,0,0,415.24-3.3,4.032,4.032,0,0,0,418.628.728a28.951,28.951,0,0,0,6.328.588c.924,0,1.82-.028,2.66-.084ZM449.092-3.7c.532-3.612,1.512-10.92,1.876-14.616a.764.764,0,0,0,.5-.42l-2.184-.924-.5.168H435.008v2.632H447.72c-.308,3.584-1.036,9.8-1.54,13.16H432.012v2.66h23.66V-3.7Zm11.144-5.488a1.174,1.174,0,0,0,.9-.5h22.26v-2.8h-23.38Zm49-14.084a18.159,18.159,0,0,1,3.08,3.7l1.232-.98a18.972,18.972,0,0,0-3.136-3.7Zm2.492,6.664H505.96v-5.46c.5-.084.728-.308.756-.588l-3.556-.2V-16.6h-7.84v-5.04c.476-.084.728-.364.756-.644l-3.528-.224V-16.6H487.4v2.688h5.152v6.524h2.772v-6.524h7.84v1.484c0,4.564-1.372,9.184-8.12,12.152a15.2,15.2,0,0,1,2.044,1.96c7.056-3.276,8.876-8.54,8.876-14.168v-1.428h5.768Zm-5.348-4.34a21.206,21.206,0,0,1,3.052,3.7l1.232-.98a17.71,17.71,0,0,0-3.052-3.668Zm9.576,11.76a1.174,1.174,0,0,0,.9-.5h22.26v-2.8h-23.38Zm45.7-.812H568.6V-12.18h-6.944v-1.876h5.768v-2.128h-5.768V-18h6.5v-2.184h-3.5c.532-.784,1.064-1.708,1.428-2.38a.7.7,0,0,0,.672-.28l-2.94-.952a25.159,25.159,0,0,1-1.568,3.444l.476.168h-4.928l.616-.224a14.791,14.791,0,0,0-1.624-3.276l-2.1.728A16.634,16.634,0,0,1,556-20.188h-3.08V-18h6.16v1.82h-5.348v2.128h5.348v1.876h-6.888V-10h6.888V-.308c0,.476-.112.476-1.26.476-.5,0-1.2-.028-1.848-.056A9.875,9.875,0,0,1,556.7,2.52c3.78,0,4.956-.252,4.956-2.828v-4.06a14.393,14.393,0,0,0,5.768,5.936A9.72,9.72,0,0,1,569.1-.56a12.2,12.2,0,0,1-4.9-3.78,34.778,34.778,0,0,0,3.724-3.192.952.952,0,0,0,.28.028.528.528,0,0,0,.42-.168L566.3-9.408a27.862,27.862,0,0,1-3.192,3.472,17.494,17.494,0,0,1-1.456-3.108ZM552.1-15.26v-2.464h-3.08v-5.4c.448-.084.616-.224.644-.448l-3.08-.168v6.02h-3.724v2.464h3.5a29.99,29.99,0,0,1-4.116,10.192,12.977,12.977,0,0,1,1.26,2.3,27.436,27.436,0,0,0,3.08-6.888V2.464h2.436v-13.02c.756,1.344,1.568,2.884,1.96,3.78.644-.868,1.036-1.4,1.4-1.932-.476-.756-2.576-3.948-3.36-4.984V-15.26Zm5.488,9.548A19.73,19.73,0,0,0,554.708-9.3l-1.82,1.176a21.391,21.391,0,0,1,2.772,3.752Zm-5.18,7.224A.6.6,0,0,0,552.72.98c1.456-.868,3.7-2.24,5.8-3.612l-.588-1.932c-2.548,1.344-5.152,2.744-6.888,3.556ZM577.36-13.3c1.652-1.932,2.492-2.856,3.444-2.856,1.092,0,1.876,1.12,3.976,3.724a108.078,108.078,0,0,0,9.912,10.808l2.156-2.492a132.715,132.715,0,0,1-10.7-11.34c-2.212-2.688-3.444-3.7-5.292-3.7-1.456,0-2.6.588-4.536,2.632-1.4,1.512-4.4,4.676-5.824,6.02l2.352,2.828a1.075,1.075,0,0,0,.364-.9ZM10.276,50V28.916H7.532l-4.76,2.548.728,2.38,3.556-1.96h.056V50Zm13.244.308c4.34,0,6.916-3.892,6.916-11.032,0-6.384-2.24-10.7-6.692-10.7-4.368,0-6.972,4.032-6.972,10.92C16.772,45.968,19.124,50.308,23.52,50.308Zm.056-2.6c-2.24,0-3.528-3.08-3.528-8.316,0-5.264,1.456-8.232,3.584-8.232,2.464,0,3.528,3.22,3.528,8.232C27.16,43.756,26.32,47.7,23.576,47.7Zm10.3-1.736a45.876,45.876,0,0,1-1.988,7.952l2.24-.224a40.1,40.1,0,0,0,3.276-8.036Zm12.292,4.34c4.34,0,6.916-3.892,6.916-11.032,0-6.384-2.24-10.7-6.692-10.7-4.368,0-6.972,4.032-6.972,10.92C39.424,45.968,41.776,50.308,46.172,50.308Zm.056-2.6c-2.24,0-3.528-3.08-3.528-8.316,0-5.264,1.456-8.232,3.584-8.232,2.464,0,3.528,3.22,3.528,8.232C49.812,43.756,48.972,47.7,46.228,47.7Zm15.68,2.6c4.34,0,6.916-3.892,6.916-11.032,0-6.384-2.24-10.7-6.692-10.7-4.368,0-6.972,4.032-6.972,10.92C55.16,45.968,57.512,50.308,61.908,50.308Zm.056-2.6c-2.24,0-3.528-3.08-3.528-8.316,0-5.264,1.456-8.232,3.584-8.232,2.464,0,3.528,3.22,3.528,8.232C65.548,43.756,64.708,47.7,61.964,47.7Zm15.68,2.6c4.34,0,6.916-3.892,6.916-11.032,0-6.384-2.24-10.7-6.692-10.7C73.5,28.58,70.9,32.612,70.9,39.5,70.9,45.968,73.248,50.308,77.644,50.308Zm.056-2.6c-2.24,0-3.528-3.08-3.528-8.316,0-5.264,1.456-8.232,3.584-8.232,2.464,0,3.528,3.22,3.528,8.232C81.284,43.756,80.444,47.7,77.7,47.7Zm28.644-18.928a3.08,3.08,0,1,0,3.08-3.108A3.071,3.071,0,0,0,106.344,28.776Zm3.08,2.1a2.1,2.1,0,1,1,2.1-2.1A2.115,2.115,0,0,1,109.424,30.876Zm.7,4.76v-2.66H101V28.1a.742.742,0,0,0,.756-.616l-3.584-.168v5.656H89.012v2.66h9.156V47.928c0,1.064-.588,1.064-2.3,1.064-.812,0-1.848-.028-2.688-.056a14.135,14.135,0,0,1,.784,2.576c4.172.056,7.028.084,7.028-3.64V35.636ZM103.74,39.78a47.762,47.762,0,0,1,5.4,8.2l2.52-1.456a52.842,52.842,0,0,0-5.656-7.924ZM92.4,38.828A19.121,19.121,0,0,1,87.556,46.5l2.324,1.456a23.749,23.749,0,0,0,5.068-8.176ZM135.8,27.18c-4.4,5.012-12.768,10.892-20.244,14.28a12.4,12.4,0,0,1,1.68,2.156,82.88,82.88,0,0,0,9.94-5.74V51.624h2.94V36.84a.764.764,0,0,0,.672-.476c-.168-.056-.5-.2-.756-.308a69.227,69.227,0,0,0,7.728-6.524,1.05,1.05,0,0,0,.28.028.837.837,0,0,0,.616-.252Zm9.044,4.34a38.348,38.348,0,0,1,8.12,3.864l1.456-2.52a34.582,34.582,0,0,0-8.26-3.724Zm2.8,19.684a.9.9,0,0,0,.448-.672c9.38-3.22,16.156-9.212,19.628-16.856a18.661,18.661,0,0,1-2.576-1.624c-3.3,7.728-9.856,13.272-19.516,16.24ZM193.032,39.7a98.151,98.151,0,0,0-10.276-4.536l-.56.784V27.936c.532-.112.784-.336.812-.644l-3.752-.224v24.5h2.94V38.016a83.124,83.124,0,0,1,9.268,4.4Zm29.344-3.64c-2.156.84-4.928,1.876-7.2,2.884-.392-2.212-1.708-3.444-3.444-3.444a6.985,6.985,0,0,0-4.172,1.568h-.028a16.066,16.066,0,0,0,1.68-3.976,42.852,42.852,0,0,0,10.248-1.428L218.988,29a34.39,34.39,0,0,1-9.044,1.6c.252-.924.476-1.848.672-2.856.364-.056.616-.224.672-.5l-3.528-.392c-.2,1.484-.42,2.66-.672,3.864l-1.708.028c-1.176,0-3.164-.028-4.816-.084v2.52c1.4.028,3.388.028,4.508.028l1.288-.028a19.291,19.291,0,0,1-3.08,6.048,32.631,32.631,0,0,1-3.7,3.64l1.932,1.9c1.232-1.148,2.3-2.24,3.024-3.052,2.38-2.688,4.424-3.752,6.384-3.752.98,0,1.54.812,1.68,2.072-4.06,2.072-7.14,4.536-7.14,6.888,0,3.192,2.548,4.424,7.924,4.424,3.052,0,5.488-.056,7.056-.224l-.028-2.6a62.265,62.265,0,0,1-7,.336c-3.5,0-5.236-.672-5.236-2.072,0-1.372,2.072-3,4.7-4.312a28.808,28.808,0,0,1-.112,3.724L215.6,46q.084-1.386.084-2.52,0-1.176-.084-2.1c2.212-.9,5.124-1.9,7.224-2.548a.944.944,0,0,0,.476.14.355.355,0,0,0,.168-.028Zm8.148,16.436h2.6V34.068c.42-.028.616-.2.672-.42l-.952-.252a53.342,53.342,0,0,0,2.548-5.628.73.73,0,0,0,.728-.308l-3.08-1.064c-1.624,4.76-4.312,9.548-7.028,12.32a19.6,19.6,0,0,1,1.372,2.632,32.287,32.287,0,0,0,3.136-4.06Zm18.62-20.02V27.208c.476-.056.616-.2.644-.448l-3.332-.2v5.908H235.172V35.1h11.284V49.132c0,.812-.2.812-2.408.812-.924,0-2.072-.028-3.276-.084a11.451,11.451,0,0,1,.952,2.688c2.856,0,4.76-.056,5.88-.476s1.54-1.176,1.54-2.94V35.1h3.584V32.472ZM243.04,44.4a31.247,31.247,0,0,0-4.116-6.8l-2.3,1.12a29.74,29.74,0,0,1,3.92,6.972Zm32.144-1.9c.168-1.484.336-3.164.5-5.124a4.687,4.687,0,0,0,.168-.756l-1.568-.308-.616.056h-11.2c.252-1.2.532-2.464.784-3.724h14.056V30.092H263.76c.224-1.092.42-2.156.588-3.136.448-.028.644-.168.7-.42l-3.36-.336c-.7,4.368-1.932,10.248-2.884,13.748l2.772.252c.112-.42.224-.9.336-1.372h10.976c-.14,1.372-.252,2.576-.392,3.668H254.912v2.548h17.22c-.448,2.6-.952,3.976-1.568,4.508a1.964,1.964,0,0,1-1.456.364c-.812,0-2.828,0-4.9-.2a5.791,5.791,0,0,1,.952,2.632c1.232.084,2.464.14,3.444.14,3.976,0,5.236-.672,6.244-7.448h5.488V42.5ZM306.4,30.484a44.342,44.342,0,0,1-8.96,1.568,44.3,44.3,0,0,1-.616-4.48c.476-.084.728-.336.756-.672l-3.92-.084c.28,1.988.56,3.892.9,5.432-1.008.084-2.324.14-3.5.14-2.94,0-5.152-.056-6.776-.112v2.66c1.848.056,5.04.084,6.748.084,1.54,0,3-.056,4.172-.14a14.407,14.407,0,0,0,2.156,5.012,22.539,22.539,0,0,0-2.968-.336l.616,2.268c3.3,0,4.956.868,6.16,1.932l1.96-2.38c-2.744-1.232-3.976-3.248-5.04-6.72a52.109,52.109,0,0,0,8.848-1.372Zm-4.4,18.116c-1.428.084-3,.14-5.32.14-4.2,0-7.364-.84-7.364-3.248a4.108,4.108,0,0,1,1.736-3.024l-2.1-1.6c-1.6,1.54-2.464,3.08-2.464,4.732,0,3.584,3.78,5.8,10.108,5.8,2.268,0,3.808,0,5.18-.028Zm28.336-12.18c2.212-.308,4.312-.588,5.88-.756L336,32.976c-1.54.224-3.612.56-5.712.868-.056-1.96-.112-4.172-.2-5.964.42-.14.616-.28.616-.56l-3.528-.168c.168,2.128.28,4.816.364,7.168l-8.092,1.372c0-1.988,0-4.172.028-5.684.5-.112.728-.28.784-.616l-3.7-.308c0,1.988.056,4.648.084,7.084-1.932.336-4.228.728-5.6.924l.42,2.632c1.26-.28,3.528-.7,5.208-1.036.056,2.464.112,4.76.224,6.216.532,6.132,4.592,6.272,8.988,6.272a65.631,65.631,0,0,0,7.14-.336l-.056-2.632a49.66,49.66,0,0,1-7.448.5c-.56,0-1.064,0-1.484-.028-4.592-.168-4.592-1.96-4.592-10.472,2.268-.42,5.236-.9,8.148-1.372a29.168,29.168,0,0,1-.2,4.676,1.451,1.451,0,0,1-1.428,1.176,8.212,8.212,0,0,1-3.3-1.008,13.152,13.152,0,0,1-.364,2.3,10.116,10.116,0,0,0,4.228,1.148c3.808,0,3.808-3.668,3.808-7.672Zm9.8-3.248a1.073,1.073,0,0,0,.672-.448c3.052-.308,10.584-.952,13.664-1.12-4.62,3.052-8.12,7.672-8.12,11.34,0,4.9,3.024,8.092,11,9.128l1.344-2.772c-6.524-.784-9.3-2.856-9.3-6.384,0-3.388,3.92-7.56,7.532-9.856a8.495,8.495,0,0,1,5.936-1.54l-.028-2.968c-4.2.112-17.3.98-20.16,1.2-.784.056-1.988.084-2.828.084Zm28.252-3.78a65.239,65.239,0,0,0-.448,7.7c0,1.232.028,2.408.112,3.472.308,4.9,2.576,9.8,6.524,9.8,2.184,0,3.976-1.848,5.572-6.832a13.575,13.575,0,0,1-2.3-1.708c-.784,2.688-2.1,5.516-3.136,5.544-1.428,0-3.92-1.652-3.92-9.268a45.226,45.226,0,0,1,.616-7.5.779.779,0,0,0,.756-.476ZM392.14,42.468a15.494,15.494,0,0,0-7.98-11.452l-1.764,2.1a13.626,13.626,0,0,1,6.832,10.276Zm19.208-12.152a29.372,29.372,0,0,1-7.112,1.484c.252-1.456.476-2.968.644-4.088a.928.928,0,0,0,.812-.616l-3.78-.364c-.168,1.68-.392,3.64-.616,5.32-.56.028-1.092.028-1.6.028-1.344,0-2.8,0-3.7-.056l.028,2.66c.98.028,2.268.028,3.612.028.392,0,.84,0,1.26-.028A58.829,58.829,0,0,1,395.976,50.7l2.856,1.008a79.149,79.149,0,0,0,4.956-17.164,35.573,35.573,0,0,0,8.12-1.484Zm-2.128,9.492a32.135,32.135,0,0,1,9.464-1.12v-2.66a34.535,34.535,0,0,0-10.08,1.4Zm10.164,8.652a32.465,32.465,0,0,1-3.332.14c-4.256,0-6.356-.364-6.356-2.324a4.422,4.422,0,0,1,1.372-2.772l-2.352-.924a6.593,6.593,0,0,0-1.764,4.116,4.032,4.032,0,0,0,3.388,4.032,28.951,28.951,0,0,0,6.328.588c.924,0,1.82-.028,2.66-.084Zm24.668-21.392a18.959,18.959,0,0,1,3.64,3.724l1.288-1.148a17.276,17.276,0,0,0-3.724-3.7Zm-4.7,3.248a29.372,29.372,0,0,1-7.112,1.484c.252-1.456.476-2.968.644-4.088a.928.928,0,0,0,.812-.616l-3.78-.364c-.168,1.68-.392,3.64-.616,5.32-.56.028-1.092.028-1.6.028-1.344,0-2.8,0-3.7-.056l.028,2.66c.98.028,2.268.028,3.612.028.392,0,.84,0,1.26-.028A58.829,58.829,0,0,1,423.976,50.7l2.856,1.008a79.149,79.149,0,0,0,4.956-17.164,35.573,35.573,0,0,0,8.12-1.484Zm.98-1.484a19.749,19.749,0,0,1,3.612,3.724l1.316-1.12a20.375,20.375,0,0,0-3.724-3.724ZM437.22,39.808a32.135,32.135,0,0,1,9.464-1.12v-2.66a34.535,34.535,0,0,0-10.08,1.4Zm10.108,8.568a31.023,31.023,0,0,1-3.7.2c-3.836,0-5.936-.308-5.936-2.3a4.422,4.422,0,0,1,1.372-2.772l-2.352-.924a6.593,6.593,0,0,0-1.764,4.116c-.056,4.34,5.1,4.592,9.128,4.592,1.12,0,2.24-.056,3.3-.14Zm26.908-13.944a39.691,39.691,0,0,1-8.512,1.82,32.837,32.837,0,0,1-.868-3.192,35.773,35.773,0,0,0,7.364-1.428l-.588-2.408a30.986,30.986,0,0,1-7.28,1.512c-.2-1.036-.336-2.212-.448-3.248.476-.112.756-.336.756-.644l-3.724-.084c.2,1.456.448,2.968.7,4.2-1.064.084-2.688.084-4.032.084-1.064,0-2.3-.028-3.472-.084v2.408c.784.028,1.68.056,2.6.056,2.884,0,4.452-.056,5.348-.14.252,1.064.672,2.408.924,3.192-1.68.112-3.724.168-5.264.168-1.6,0-3.78,0-5.376-.056l.028,2.352c1.764.056,3.92.056,5.432.056,1.736,0,3.976-.084,5.992-.224a10.683,10.683,0,0,0,1.848,2.632,17.305,17.305,0,0,0-1.82-.084c-.364,0-.7,0-1.008.028l.616,2.1a10.5,10.5,0,0,1,1.344-.084,7.9,7.9,0,0,1,4.676,1.232l1.512-2.212a9.915,9.915,0,0,1-4.34-3.92,40.5,40.5,0,0,0,8.12-1.6Zm-9.716,17.08c2.324,0,4-.084,5.264-.168l.112-2.576c-1.848.168-4.452.28-6.5.28-3.136-.028-5.292-.756-5.264-2.436a3.507,3.507,0,0,1,2.156-2.632l-1.82-1.736c-1.624.952-3.164,2.66-3.164,4.48,0,3.192,3.472,4.732,8.12,4.788Zm16.3-18.62c1.736.056,4.424.084,6.272.084,1.064,0,2.268-.028,3.3-.056.056,1.484.084,3.024.14,4.564-.784.028-1.624.028-2.324.028-2.24-.028-3.332-.14-3.332-.812,0-.308.168-.812,1.82-1.624l-1.9-1.092c-1.9,1.2-2.744,2.184-2.744,3.276,0,1.96,1.932,2.548,6.832,2.548.56,0,1.148,0,1.736-.028.056,1.26.084,2.436.112,3.444A11.488,11.488,0,0,0,488.18,43c-3.248,0-6.272,1.568-6.272,4.34,0,2.632,2.548,4.312,6.216,4.312,3.64,0,5.4-1.568,5.432-4.06V46.528a26.512,26.512,0,0,1,6.1,3.892l1.68-2.408a28.805,28.805,0,0,0-7.9-4.172c-.056-1.064-.112-2.52-.168-4.144a49.006,49.006,0,0,0,7.672-.9l-.28-2.464a47.988,47.988,0,0,1-7.448,1.008l-.084-4.508a60.486,60.486,0,0,0,9.184-.924l-.308-2.576a58.52,58.52,0,0,1-8.848,1.008c-.028-.868-.028-2.016-.028-2.8.476-.084.7-.252.728-.56l-3.612-.2c0,.924.028,2.38.056,3.668-1.008.028-2.156.056-3.22.056-2.044,0-4.536,0-6.272-.112Zm10.024,14c0,1.652-.756,2.492-2.688,2.492-2.128,0-3.752-.7-3.752-2.1,0-1.372,1.708-2.156,3.612-2.156a10.491,10.491,0,0,1,2.828.42Zm16.716-13.3c3.08-.168,7.672-.28,12.292-.42.028.98.056,2.1.084,2.632,0,.084.028.2.028.308a3.956,3.956,0,0,0-2.212-.616,5.3,5.3,0,0,0-5.236,5.32,4.9,4.9,0,0,0,4.844,5.012,2.829,2.829,0,0,0,2.184-.98h.028c-.84,2.156-3.136,4.032-6.748,5.32a18.714,18.714,0,0,1,2.044,2.184c4.48-1.708,8.428-5.068,8.428-10.808a10.359,10.359,0,0,0-.392-3.08c-.028-.9-.056-1.624-.112-2.6-.028-.7-.028-1.708-.056-2.744,3.444-.112,6.776-.14,8.932-.112V30.372c-1.792.028-5.432.112-8.988.224-.028-1.232-.056-2.576-.056-3.3.5-.084.756-.364.784-.616l-3.808-.168c.056.756.168,3.752.168,4.144-1.932.084-10.528.308-12.292.364ZM517.72,43.616a2.692,2.692,0,0,1-2.66-2.8,2.859,2.859,0,0,1,2.856-3.08c1.624,0,2.464,1.008,2.464,3.024A2.654,2.654,0,0,1,517.72,43.616Zm18.452,1.008a3.92,3.92,0,1,0,3.92,3.92A3.932,3.932,0,0,0,536.172,44.624Zm0,6.692a2.758,2.758,0,1,1,2.744-2.772A2.76,2.76,0,0,1,536.172,51.316Z" transform="translate(297 6989.398)" fill="#343434"/>
    <g id="グループ_1873" data-name="グループ 1873" transform="translate(297 7049.877)">
      <line id="線_30" data-name="線 30" x2="192.649" transform="translate(0)" fill="none" stroke="#1a62a3" stroke-width="3"/>
      <line id="線_31" data-name="線 31" x2="192.649" transform="translate(0 7.446)" fill="none" stroke="#1a62a3" stroke-width="3"/>
    </g>
    <g data-type="innerShadowGroup">
      <path id="パス_3004-2" data-name="パス 3004" d="M0,139.411l85.229-10.165C116.321,143.85,159.971,153,208.471,153c94.135,0,170.428-34.261,170.428-76.49C378.9,34.242,302.605,0,208.471,0,114.356,0,38.053,34.242,38.053,76.513c0,13.778,8.275,26.692,22.507,37.864Z" transform="translate(466.907 7090.294)" fill="#fff"/>
      <g transform="matrix(1, 0, 0, 1, 297, 6965.15)" filter="url(#パス_3004)">
        <path id="パス_3004-3" data-name="パス 3004" d="M0,139.411l85.229-10.165C116.321,143.85,159.971,153,208.471,153c94.135,0,170.428-34.261,170.428-76.49C378.9,34.242,302.605,0,208.471,0,114.356,0,38.053,34.242,38.053,76.513c0,13.778,8.275,26.692,22.507,37.864Z" transform="translate(169.91 125.14)" fill="#fff"/>
      </g>
    </g>
    <path id="パス_3029" data-name="パス 3029" d="M12.628-13.328c1.624-1.316,5.712-4.088,9.3-4.564l-.252-2.884a39.849,39.849,0,0,1-5.152.644c-2.52.168-8.288.28-10.948.224.056.644.056,2.016.056,2.716A83.281,83.281,0,0,0,14.5-17.5v.028a32.009,32.009,0,0,0-4.228,2.856ZM23.212-3.136a45.959,45.959,0,0,1-8.624.784A24.039,24.039,0,0,1,10.3-2.66C8.12-3.136,7.14-4.508,7.14-6.02a6.664,6.664,0,0,1,2.268-4.4l-2.38-1.12A8.929,8.929,0,0,0,4.312-5.6C4.312-3.108,5.8-.84,9.3-.056a31.264,31.264,0,0,0,5.628.364A56.7,56.7,0,0,0,23.436-.28Zm8.9,4.34c.476-1.484,1.036-3.08,1.4-4.116C34.272-5.04,37.24-9.3,40.124-9.3c1.008,0,1.54.812,1.54,2.38v.364c-.056.98-.084,2.128-.084,3.22,0,2.884,1.988,4.676,5.152,4.676,3.92,0,6.58-3.332,8.232-8.708a20.5,20.5,0,0,1-2.6-1.54C51.1-4.2,49.168-1.54,46.844-1.54c-1.456,0-2.324-.9-2.324-2.688,0-.448.112-3.136.112-3.584,0-2.548-1.26-4.144-3.612-4.144A8.377,8.377,0,0,0,35.42-9.1h-.028c1.036-2.772,3.332-8.932,4.676-12.152.616-.028,1.008-.224,1.148-.616L37.24-22.82c-.2.784-.98,3.22-1.568,4.788-.98,2.772-4.48,12.88-6.384,18.368ZM73.08-10.5c0,1.092.084,2.688.2,4.256a11.642,11.642,0,0,0-2.66-.364c-2.688,0-5.544,1.512-5.572,4.34s2.464,4.284,5.516,4.312c4.844,0,5.46-3.08,5.46-4.62A26.08,26.08,0,0,1,80.388.084l1.344-2.576A32.258,32.258,0,0,0,76.02-5.516c-.14-1.764-.252-3.332-.28-5.292Zm.364,7.784c0,1.736-1.26,2.436-2.828,2.436-1.876,0-3.164-.7-3.164-1.988,0-1.4,1.6-2.044,3.108-2.044a7.966,7.966,0,0,1,2.884.56ZM64.6-23.268c-.168,1.54-.392,3.108-.672,4.48-.728.028-1.6.028-2.464.028H58.24v2.548h3.276c.616,0,1.344,0,1.932-.028a36.424,36.424,0,0,1-5.4,12.516l2.744,1.008A45,45,0,0,0,66.416-16.3a56.8,56.8,0,0,0,8.428-1.26l-.364-2.66A34.488,34.488,0,0,1,66.92-18.9c.224-.952.5-2.352.672-3.444a.9.9,0,0,0,.84-.56Zm16.716,7.392a42.481,42.481,0,0,0-10.08,1.428l.42,2.436a44.3,44.3,0,0,1,9.8-1.232Zm6.916-6.272A88.043,88.043,0,0,0,86.856-8.54a31.157,31.157,0,0,0,1.26,9.828L90.888.84a3.556,3.556,0,0,1-.14-.952,4.634,4.634,0,0,1,.224-1.316c.392-1.288,1.316-2.856,2.352-5.236L91.9-8.6c-.364.952-1.512,3.584-1.96,4.676a31.563,31.563,0,0,1-.252-4.732A67.945,67.945,0,0,1,91.14-21.084c.56-.028.84-.2.9-.5Zm8.316,6.328a97.372,97.372,0,0,0,12.208-1.008l-.28-2.744A94.184,94.184,0,0,1,96.46-18.508ZM109.424-3.7a34.492,34.492,0,0,1-3.836.2c-3.22,0-6.72-.168-6.72-2.772,0-1.484.9-2.828,2.24-4.172L98.476-11.4c-1.512,1.848-2.52,3.528-2.52,5.488,0,2.324,1.6,4.312,5.264,4.816a37.413,37.413,0,0,0,5.068.28c1.036,0,2.072-.028,3.052-.084Zm5.124-13.132a1.073,1.073,0,0,0,.672-.448c3.052-.308,10.388-.868,13.664-1.12-4.62,3.052-8.12,7.672-8.12,11.34,0,4.9,3.024,8.092,11,9.128L133.112-.7c-6.524-.784-9.3-2.856-9.3-6.384,0-3.388,3.92-7.56,7.532-9.856a8.495,8.495,0,0,1,5.936-1.54l-.028-2.968c-4.2.112-17.3.98-20.16,1.2-.784.056-1.988.084-2.828.084Zm20.076,1.372a20.039,20.039,0,0,1,3.5,3.836l1.344-1.092a16.9,16.9,0,0,0-3.584-3.808Zm-3.164,2.492a19.493,19.493,0,0,1,3.472,3.836l1.372-1.064a18.431,18.431,0,0,0-3.584-3.836Zm33.18-2.6a39.691,39.691,0,0,1-8.512,1.82,32.837,32.837,0,0,1-.868-3.192,35.773,35.773,0,0,0,7.364-1.428l-.588-2.408a30.986,30.986,0,0,1-7.28,1.512c-.2-1.036-.336-2.212-.448-3.248.476-.112.756-.336.756-.644l-3.724-.084c.2,1.456.448,2.968.7,4.2-1.064.084-2.688.084-4.032.084-1.064,0-2.3-.028-3.472-.084v2.408c.784.028,1.68.056,2.6.056,2.884,0,4.452-.056,5.348-.14.252,1.064.672,2.408.924,3.192-1.68.112-3.724.168-5.264.168-1.6,0-3.78,0-5.376-.056l.028,2.352c1.764.056,3.92.056,5.432.056,1.736,0,3.976-.084,5.992-.224A10.682,10.682,0,0,0,156.072-8.6a17.306,17.306,0,0,0-1.82-.084c-.364,0-.7,0-1.008.028l.616,2.1a10.5,10.5,0,0,1,1.344-.084A7.9,7.9,0,0,1,159.88-5.4l1.512-2.212a9.915,9.915,0,0,1-4.34-3.92,40.5,40.5,0,0,0,8.12-1.6Zm-9.716,17.08c2.324,0,4-.084,5.264-.168l.112-2.576c-1.848.168-4.452.28-6.5.28-3.136-.028-5.292-.756-5.264-2.436A3.507,3.507,0,0,1,150.7-6.02l-1.82-1.736c-1.624.952-3.164,2.66-3.164,4.48,0,3.192,3.472,4.732,8.12,4.788Zm24.332-13.3c2.268-2.044,7.14-6.552,8.848-7.868a1.651,1.651,0,0,0,.784-.308l-1.932-2.352-.42.224c-1.932.308-9.492.588-13.188.588l.28,3.22a.885.885,0,0,0,.616-.448c2.688-.112,7.924-.364,9.408-.56-3.78,3.5-11.312,10.668-13.524,12.964l1.988,1.96c.728-.812,1.848-1.96,2.576-2.66a15,15,0,0,1,9.744-3.584c3.164,0,5.264,1.736,5.264,4.452a4.652,4.652,0,0,1-3.08,4.424,5.728,5.728,0,0,0-5.656-4.7c-2.6,0-4.788,1.764-4.788,3.92,0,2.66,2.52,4.228,6.16,4.228,5.852,0,10.276-2.856,10.276-7.924,0-4.256-2.884-6.832-7.224-6.832a15.83,15.83,0,0,0-6.132,1.288Zm-.784,9.268c0-1.036,1.064-1.68,2.24-1.68a3.539,3.539,0,0,1,3.3,3.248,12.693,12.693,0,0,1-2.1.224C180.4-.728,178.472-1.092,178.472-2.52Zm30.52-15.96c.392-.028.756-.056,1.148-.056,5.852,0,8.876,3.584,8.876,8.148,0,4.844-2.912,7.924-9.324,9.184a18.437,18.437,0,0,1,1.764,2.38c6.916-1.708,10.528-5.012,10.528-11.648,0-5.768-3.78-10.668-11.816-10.668A12.336,12.336,0,0,0,197.456-8.764c0,4.592,2.184,7.084,4.9,7.084,4.7,0,7.56-6.524,8.652-15.708a.751.751,0,0,0,.756-.448ZM202.44-4.452c-1.288,0-2.268-1.736-2.268-4.4a9.565,9.565,0,0,1,8.008-9.464C207.592-11.2,205.464-4.452,202.44-4.452ZM239.008-6.58l.56-14.868h-3.7l.56,14.868ZM237.664.336a2.259,2.259,0,0,0,2.24-2.3,2.253,2.253,0,0,0-2.24-2.268,2.229,2.229,0,0,0-2.212,2.268A2.235,2.235,0,0,0,237.664.336Zm21.056-7.9a6.106,6.106,0,0,1,1.624-4c1.344-1.68,2.66-3.3,2.66-5.544,0-2.408-1.624-4.7-5.348-4.7a8.187,8.187,0,0,0-4.4,1.2l.756,2.352a5.439,5.439,0,0,1,2.94-.9,2.4,2.4,0,0,1,2.716,2.52c0,1.372-.756,2.548-2.016,4.144a7.812,7.812,0,0,0-1.848,4.844c0,.224.056,1.064.084,1.344h2.884ZM257.264.308a2.022,2.022,0,0,0,2.072-2.156,2.054,2.054,0,0,0-2.072-2.212,2.069,2.069,0,0,0-2.072,2.212A2.02,2.02,0,0,0,257.264.308Z" transform="translate(541 7177.398)" fill="#1a62a3"/>
    <g id="グループ_1880" data-name="グループ 1880" transform="translate(336 7166.398)">
      <path id="パス_2320" data-name="パス 2320" d="M144.726,17.395c-1.984-2.443-6.339-4.115-12.194-3.884a13.156,13.156,0,0,1,.435,4.827s-13.645-1.645-17.153,2.759c.846,1.113,2.153,1.355,3.072,2.42-1.676.749-10.047,3.6-10.867,5.562a9.88,9.88,0,0,1,2.681,1.493s-9.355,6.3-10.348,10.123c1.137-.314,3.168-.653,4.427,0-1.935,1.476-7.505,12.4-7.442,15.793,1.412-.429,2.918-.781,3.79-.472C99.748,57.9,98.073,64.89,98.572,67.6c.523-.146,2.953-.583,2.953-.583s.256,10.043,2.119,13.164a14.638,14.638,0,0,0,.194,9.263,15.492,15.492,0,0,0,4.238,6.288,15.606,15.606,0,0,0,2.682,1.434s2.737,10.827,3.453,12.5a37.964,37.964,0,0,0,2.733,5.4c-.016,1.863,0,9.92,0,9.92a16.2,16.2,0,0,1-3.86,3.246c-2.172,1.23-17.363,8.09-19.888,9.2s-15.654,7.124-18,8.893-5.349,6.65-6.646,9.713-2.074,12.709-2.139,14.479-.106,6.182-.106,6.182H207.082s-.12-14.589-1.046-17.428-3.339-10.235-6.485-12.316-14.614-7.815-16.137-8.444-19.647-9.048-20.566-9.29-5.653-2.6-5.972-4.035-.272-10.495-.272-10.495,3.622-6.761,4.268-9.248,1.715-6.648,2.134-8.572a13.334,13.334,0,0,0,5.7-4.688c1.035-1.626,1.929-6.417,2.063-8.757a7.38,7.38,0,0,0-.448-3.485s1.6-4.826,1.888-6.423.313-7.024.313-7.024l2.149.691s-.459-6.15-.732-7.818-1.1-6.826-1.258-7.081a11.831,11.831,0,0,0,3.194.793s-2.777-11.226-3.266-12.1c-.345-.852,2.05-.58,2.05-.58s-4.728-8.815-6.339-10.492a30.609,30.609,0,0,0-3.87-3.59,36.313,36.313,0,0,1,3.592-1.161c-.9-1.283-7.681-5.5-13.252-4.083-.235-1.071-2.7-6.206-4.246-7.331a6.072,6.072,0,0,0-2.682-1.234s-.069-.073,0,.617S144.726,17.395,144.726,17.395Z" transform="translate(-65.495 -11.882)" fill="#fff"/>
      <g id="グループ_1698" data-name="グループ 1698" transform="translate(3.744 3.375)">
        <circle id="楕円形_174" data-name="楕円形 174" cx="2.087" cy="2.087" r="2.087" transform="translate(50.828 65.468)" fill="#3b3938"/>
        <circle id="楕円形_175" data-name="楕円形 175" cx="2.087" cy="2.087" r="2.087" transform="translate(80.214 65.468)" fill="#3b3938"/>
        <path id="パス_2321" data-name="パス 2321" d="M91.292,149.657c5.309-2.3,21.224-8.995,21.224-8.995.556,5.629,3.508,26.419,4.128,29.573s3.488,13.956,3.488,13.956H69.421c0-5.259,1.016-21.2,6.871-26.132S84.412,152.633,91.292,149.657Z" transform="translate(-69.421 -22.747)" fill="#b4a28f"/>
        <path id="パス_2322" data-name="パス 2322" d="M188.01,149.657c-5.308-2.3-21.224-8.995-21.224-8.995-.556,5.629-3.507,26.419-4.128,29.573s-3.488,13.956-3.488,13.956h50.712c0-5.259-1.017-21.2-6.871-26.132S194.892,152.633,188.01,149.657Z" transform="translate(-74.666 -22.747)" fill="#b4a28f"/>
        <path id="パス_2323" data-name="パス 2323" d="M137.5,149.132l7.209-.477,1.694,5.413-.476,9.128a13.163,13.163,0,0,1,.968,3.15c.236,1.587,1.852,17.353,1.852,18.312h-12.7l2.056-21.033s-1.212-3.272-1.549-3.789-.29-8.139-.29-8.139Z" transform="translate(-73.315 -23.214)" fill="#ddd"/>
        <path id="パス_2324" data-name="パス 2324" d="M172.123,50.978a12.671,12.671,0,0,1,3.29.339s-2.685-9.968-4.088-11.855a6.38,6.38,0,0,0,2.179-.049s-5.3-8.855-9.679-11.565a10.1,10.1,0,0,0-1.009-.539,27.621,27.621,0,0,1,2.721-2.885c-2.339-1.791-7.815-1.9-11.508-1.48.071-2.87-.623-6.006-3.645-7.516-.278,1.751-1.817,3.753-3.1,5.157a18.681,18.681,0,0,0-9.151-4.558,26.586,26.586,0,0,1,1.877,6.443c-3.7-1.748-13.173-2.978-17.578-1.52a19.805,19.805,0,0,1,4.973,3.848,39.384,39.384,0,0,0-10.159,4.381,4.375,4.375,0,0,1,2.4,1.161c-2.976.653-8.154,3.823-9.751,6.243a30.035,30.035,0,0,1,2.928,1.161,104.919,104.919,0,0,0-6.968,9.1,32.189,32.189,0,0,0-3.388,7.4,10.643,10.643,0,0,1,2.759,0s-1.863,5.456-2.328,7.4a34.828,34.828,0,0,0-.43,5.761h1.145s.379,8.287.743,9.625,1.42,3.868,1.42,3.868l3.676-1.351s-.547-8.59,1.921-12.662,8.613-9.807,8.613-9.807l-.234,4.913s8.19-5.481,9.371-6.584,4.793-4.062,4.793-4.062L132.565,61s5.538-3.949,6.749-5.157,7.415-8.707,9.405-10.667c.467,2.3,2.655,5.785,4,7.675s5.729,6.985,5.729,6.985l1.016-6.095s4.259,7.451,5.9,9.242a46.774,46.774,0,0,1,3.85,5.323l-.153,4.863-.5,6.581,3.4.845a19.766,19.766,0,0,0,2.352-6.9,80.67,80.67,0,0,0-.5-11.825A69.378,69.378,0,0,0,172.123,50.978Z" transform="translate(-71.352 -15.428)" fill="#343434"/>
      </g>
      <g id="グループ_1703" data-name="グループ 1703" transform="translate(0 0)">
        <path id="パス_2325" data-name="パス 2325" d="M125.44,89.891A2.894,2.894,0,1,1,128.335,87,2.9,2.9,0,0,1,125.44,89.891Zm0-4.174A1.28,1.28,0,1,0,126.72,87,1.281,1.281,0,0,0,125.44,85.717Z" transform="translate(-68.781 -16.066)" fill="#3b3938"/>
        <path id="パス_2326" data-name="パス 2326" d="M120.687,85.212a.818.818,0,0,1-.342-.075.808.808,0,0,1-.39-1.073,6,6,0,0,1,5.531-3.386,5.207,5.207,0,0,1,4.847,3.136.808.808,0,1,1-1.478.651,3.586,3.586,0,0,0-3.387-2.172h-.049a4.435,4.435,0,0,0-4,2.454A.808.808,0,0,1,120.687,85.212Z" transform="translate(-68.626 -15.866)" fill="#3b3938"/>
        <path id="パス_2327" data-name="パス 2327" d="M156.65,89.891A2.894,2.894,0,1,1,159.545,87,2.9,2.9,0,0,1,156.65,89.891Zm0-4.174A1.28,1.28,0,1,0,157.93,87,1.281,1.281,0,0,0,156.65,85.717Z" transform="translate(-70.605 -16.066)" fill="#3b3938"/>
        <path id="パス_2328" data-name="パス 2328" d="M161.111,85.212a.808.808,0,0,1-.733-.466,4.438,4.438,0,0,0-4-2.454h-.05a3.586,3.586,0,0,0-3.387,2.172.808.808,0,1,1-1.478-.651,5.208,5.208,0,0,1,4.847-3.136h.07a5.994,5.994,0,0,1,5.461,3.386.808.808,0,0,1-.39,1.073A.817.817,0,0,1,161.111,85.212Z" transform="translate(-70.467 -15.866)" fill="#3b3938"/>
        <path id="パス_2329" data-name="パス 2329" d="M140.848,105.652a4.957,4.957,0,0,1-3.955-1.913.807.807,0,1,1,1.363-.865A3.431,3.431,0,0,0,141,104.03a.808.808,0,1,1,.212,1.6A2.9,2.9,0,0,1,140.848,105.652Z" transform="translate(-69.612 -17.141)" fill="#3b3938"/>
        <path id="パス_2330" data-name="パス 2330" d="M140.409,116.021c-4.231,0-7.846-1.108-9.463-2.636a.807.807,0,1,1,1.109-1.173c2.333,2.2,11.21,3.744,18.714-.355a.807.807,0,1,1,.774,1.417A23.431,23.431,0,0,1,140.409,116.021Z" transform="translate(-69.257 -17.682)" fill="#3b3938"/>
        <path id="パス_2331" data-name="パス 2331" d="M142.923,121.347a9.57,9.57,0,0,1-4.69-1.225.808.808,0,0,1,.869-1.361,7.994,7.994,0,0,0,4.313.951.807.807,0,1,1,.144,1.608C143.354,121.338,143.141,121.347,142.923,121.347Z" transform="translate(-69.676 -18.084)" fill="#3b3938"/>
        <path id="パス_2332" data-name="パス 2332" d="M163.571,70.427A.8.8,0,0,1,163,70.19c-3.605-3.613-9.453-3.088-13.126-.76a.807.807,0,1,1-.864-1.363c4.308-2.732,10.889-3.272,15.134.982a.808.808,0,0,1-.572,1.378Z" transform="translate(-70.306 -15.004)" fill="#3b3938"/>
        <path id="パス_2333" data-name="パス 2333" d="M117.4,70.662a.808.808,0,0,1-.524-1.422,14.99,14.99,0,0,1,10.352-2.889,6.7,6.7,0,0,1,4.779,2.21.807.807,0,1,1-1.276.989,5.259,5.259,0,0,0-3.668-1.592,13.248,13.248,0,0,0-9.139,2.511A.8.8,0,0,1,117.4,70.662Z" transform="translate(-68.434 -15.025)" fill="#3b3938"/>
        <g id="グループ_1699" data-name="グループ 1699" transform="translate(36.627 66.376)">
          <path id="パス_2334" data-name="パス 2334" d="M171.713,100.62a.808.808,0,0,1-.482-1.456c1.564-1.165,3.747-3.353,4.649-8.889.551-3.376-.305-5.5-1.4-6.116a2.337,2.337,0,0,0-2.57.612.807.807,0,0,1-1.055-1.222c1.46-1.26,3.069-1.552,4.413-.8,1.962,1.1,2.806,4.082,2.2,7.785-1,6.114-3.49,8.592-5.279,9.925A.807.807,0,0,1,171.713,100.62Z" transform="translate(-108.215 -82.34)" fill="#3b3938"/>
          <path id="パス_2335" data-name="パス 2335" d="M143.979,130.881a.807.807,0,0,1-.114-1.606c4.534-.655,11.073-4.685,16.661-10.268,3.686-3.682,6.059-16.786,6.575-22.2a.808.808,0,0,1,1.608.153c-.557,5.825-3.008,19.158-7.042,23.188-5.907,5.9-12.64,10.011-17.571,10.722A.815.815,0,0,1,143.979,130.881Z" transform="translate(-106.613 -83.143)" fill="#3b3938"/>
          <path id="パス_2336" data-name="パス 2336" d="M110.3,100.62a.809.809,0,0,1-.482-.16c-1.789-1.333-4.282-3.811-5.279-9.925-.6-3.7.24-6.686,2.2-7.785,1.344-.752,2.952-.461,4.412.8a.807.807,0,1,1-1.055,1.222,2.336,2.336,0,0,0-2.57-.612c-1.092.612-1.948,2.74-1.4,6.116.9,5.535,3.086,7.725,4.65,8.889a.808.808,0,0,1-.483,1.456Z" transform="translate(-104.344 -82.34)" fill="#3b3938"/>
          <path id="パス_2337" data-name="パス 2337" d="M136.886,130.881a.818.818,0,0,1-.117-.008c-4.93-.712-11.663-4.821-17.571-10.722-4.034-4.03-6.485-17.362-7.041-23.188a.807.807,0,1,1,1.607-.153c.516,5.412,2.888,18.516,6.575,22.2,5.588,5.582,12.128,9.613,16.662,10.268a.807.807,0,0,1-.115,1.606Z" transform="translate(-104.801 -83.143)" fill="#3b3938"/>
        </g>
        <path id="パス_2338" data-name="パス 2338" d="M111.872,70.359a.788.788,0,0,1-.323-.069.807.807,0,0,1-.416-1.063A35.773,35.773,0,0,1,120.259,57.7a.808.808,0,0,1,1.292.849,13.822,13.822,0,0,0-.476,3.869c4.381-2.451,10.084-7.063,12.969-11.325a.807.807,0,0,1,1.461.606c-.4,2.042-1.308,7.051-1.566,9.725,4.375-2.655,11.878-11.1,14.613-15.169a.808.808,0,0,1,1.34.9c-2.622,3.9-11.663,14.462-16.531,16.366a.807.807,0,0,1-1.1-.717,58.959,58.959,0,0,1,1.064-8.191,46.912,46.912,0,0,1-12.715,9.874.807.807,0,0,1-1.165-.752c.009-.273.01-.571.012-.891,0-.7.007-1.481.088-2.332a33.623,33.623,0,0,0-6.933,9.355A.805.805,0,0,1,111.872,70.359Z" transform="translate(-68.11 -13.834)" fill="#3b3938"/>
        <path id="パス_2339" data-name="パス 2339" d="M171.524,68.578a.8.8,0,0,1-.473-.153c-2.643-1.918-6.206-7.259-8.448-11.31-.036.92-.025,1.97-.019,2.7.009.911.017,1.772-.021,2.414a.807.807,0,0,1-1.31.584c-1.482-1.184-7.968-8.678-8.16-11.538a.808.808,0,1,1,1.612-.107c.107,1.616,3.955,6.606,6.268,9.116,0-.15,0-.3,0-.454-.028-2.971,0-4.833.653-5.634a.807.807,0,0,1,1.35.153c2,4.059,6.249,10.754,9.026,12.768a.807.807,0,0,1-.475,1.461Z" transform="translate(-70.567 -14.097)" fill="#3b3938"/>
        <path id="パス_2340" data-name="パス 2340" d="M172.413,79.918a.815.815,0,0,1-.261-.043.806.806,0,0,1-.5-1.023,11.981,11.981,0,0,1,1.247-2.554c-.363.059-.736.119-1.1.158a.808.808,0,0,1-.765-1.245c.033-.05.075-.119.128-.2a16.965,16.965,0,0,1,1.973-2.657,6.046,6.046,0,0,0-1.784.539.808.808,0,0,1-.75-1.43c1.219-.639,3.8-1.154,4.9-.471a.807.807,0,0,1,.058,1.333,10.766,10.766,0,0,0-2.176,2.263,2.883,2.883,0,0,1,1.988.141.807.807,0,0,1-.1,1.407c-.86.4-1.743,2.2-2.1,3.24A.808.808,0,0,1,172.413,79.918Z" transform="translate(-71.564 -15.281)" fill="#3b3938"/>
        <path id="パス_2341" data-name="パス 2341" d="M109.653,80.31a.808.808,0,0,1-.788-.636,5.57,5.57,0,0,0-1.406-2.877.807.807,0,0,1,.065-1.409,2.181,2.181,0,0,1,1.506-.006,8.777,8.777,0,0,0-1.458-1.858.808.808,0,0,1,.212-1.319c1.039-.487,3.231.214,4.224.89a.807.807,0,1,1-.909,1.334,4.624,4.624,0,0,0-1.094-.51,15.025,15.025,0,0,1,1.219,2.179l.087.182a.807.807,0,0,1-.9,1.148c-.219-.05-.443-.11-.666-.171a10.612,10.612,0,0,1,.7,2.076.808.808,0,0,1-.619.959A.824.824,0,0,1,109.653,80.31Z" transform="translate(-67.877 -15.361)" fill="#3b3938"/>
        <path id="パス_2342" data-name="パス 2342" d="M148.815,18.215a.807.807,0,0,1-.688-.384c-1.629-2.644-8.241-3.888-10.929-3.4a.808.808,0,0,1-.285-1.59c3.092-.554,10.536.814,12.589,4.147a.808.808,0,0,1-.686,1.231Z" transform="translate(-69.582 -11.894)" fill="#3b3938"/>
        <path id="パス_2343" data-name="パス 2343" d="M118.837,22.188a.808.808,0,0,1-.492-1.449c5.046-3.861,16.682-4.359,20.762-1.783a.807.807,0,1,1-.862,1.365c-3.613-2.28-14.389-1.765-18.918,1.7A.806.806,0,0,1,118.837,22.188Z" transform="translate(-68.517 -12.165)" fill="#3b3938"/>
        <path id="パス_2344" data-name="パス 2344" d="M102.415,42.135a.8.8,0,0,1-.4-.106.808.808,0,0,1-.3-1.1c1.736-3.042,6.091-7.924,9.443-9.859a10.325,10.325,0,0,0-1.474-.161.807.807,0,0,1-.577-1.327c2.491-2.956,8.98-5.418,12.79-6.222a.808.808,0,0,1,.333,1.581,30.468,30.468,0,0,0-10.674,4.56,4.253,4.253,0,0,1,2.037,1.007.809.809,0,0,1-.338,1.4c-2.611.636-8.1,6.253-10.136,9.825A.806.806,0,0,1,102.415,42.135Z" transform="translate(-67.558 -12.515)" fill="#3b3938"/>
        <path id="パス_2345" data-name="パス 2345" d="M100.437,69.977a.808.808,0,0,1-.807-.791c-.12-5.906.872-8.636,2.089-10.954a11.791,11.791,0,0,0-2.39.64.809.809,0,0,1-1.1-.744c-.057-4.93,6.35-15.617,9.829-18.56A.807.807,0,1,1,109.1,40.8c-2.922,2.473-8.347,11.395-9.155,16.167a9.821,9.821,0,0,1,3.252-.422.808.808,0,0,1,.629,1.2c-1.459,2.594-2.718,4.834-2.585,11.407a.806.806,0,0,1-.791.824Z" transform="translate(-67.36 -13.452)" fill="#3b3938"/>
        <path id="パス_2346" data-name="パス 2346" d="M158.617,19.845a.807.807,0,0,1-.778-.592c-1.078-3.9-3.154-5.112-5.237-5.84a.807.807,0,0,1,.533-1.524c2.239.783,4.973,2.28,6.26,6.935a.807.807,0,0,1-.779,1.023Z" transform="translate(-70.506 -11.843)" fill="#3b3938"/>
        <path id="パス_2347" data-name="パス 2347" d="M173.612,26.181a.805.805,0,0,1-.675-.363c-1.795-2.724-7.707-4.42-10.329-4a.808.808,0,0,1-.254-1.6c3.152-.5,9.755,1.406,11.931,4.709a.807.807,0,0,1-.673,1.251Z" transform="translate(-71.068 -12.328)" fill="#3b3938"/>
        <path id="パス_2348" data-name="パス 2348" d="M182.075,54.709a.807.807,0,0,1-.805-.754c-.277-4.213-3.841-12.323-3.876-12.405a.808.808,0,0,1,.681-1.132c.269-.019.881-.058,1.488-.065-1.551-4.024-6.277-10.593-9.458-12.306a.807.807,0,0,1,.766-1.422c3.854,2.076,9.524,10.225,10.609,14.4a.807.807,0,0,1-.985.985,6.514,6.514,0,0,0-1.164-.032c1.006,2.414,3.316,8.294,3.553,11.875a.808.808,0,0,1-.752.86Z" transform="translate(-71.536 -12.701)" fill="#3b3938"/>
        <path id="パス_2349" data-name="パス 2349" d="M177.863,79.926a.8.8,0,0,1-.3-.059.807.807,0,0,1-.446-1.051c.736-1.828.935-7.474.874-9.952a.807.807,0,0,1,1.124-.762l1.213.516a77.339,77.339,0,0,0-2.065-13.478.808.808,0,0,1,1.544-.474c.686,2.238,2.333,11.367,2.123,15.207a.807.807,0,0,1-1.115.7c-.287-.118-.759-.317-1.2-.507-.018,2.51-.2,7.372-1,9.352A.807.807,0,0,1,177.863,79.926Z" transform="translate(-71.967 -14.312)" fill="#3b3938"/>
        <path id="パス_2350" data-name="パス 2350" d="M104.558,80.92a.807.807,0,0,1-.751-.51c-.786-1.987-1.648-7.906-.7-11.615a.807.807,0,0,1,1.564.4c-.824,3.215-.081,8.811.635,10.62a.807.807,0,0,1-.75,1.1Z" transform="translate(-67.621 -15.136)" fill="#3b3938"/>
        <g id="グループ_1702" data-name="グループ 1702" transform="translate(0 105.536)">
          <g id="グループ_1700" data-name="グループ 1700" transform="translate(72.044)">
            <path id="パス_2351" data-name="パス 2351" d="M162.456,132.9a.808.808,0,0,1-.8-.75c-.193-2.7-.306-7.346-.307-7.393a.808.808,0,1,1,1.615-.039c0,.046.113,4.657.3,7.318a.807.807,0,0,1-.749.862C162.5,132.9,162.476,132.9,162.456,132.9Z" transform="translate(-143.093 -123.93)" fill="#3b3938"/>
            <path id="パス_2352" data-name="パス 2352" d="M142.768,143.779a.807.807,0,0,1-.2-1.589c4.14-1.061,13.617-5.535,16.613-8.635a.808.808,0,0,1,1.162,1.123c-3.223,3.334-12.964,7.947-17.374,9.076A.776.776,0,0,1,142.768,143.779Z" transform="translate(-141.96 -124.478)" fill="#3b3938"/>
            <path id="パス_2353" data-name="パス 2353" d="M151.058,160.933h-.037a.81.81,0,0,1-.562-.265c-1.013-1.12-6.5-12.573-7.594-14.857a.807.807,0,1,1,1.457-.7c2.595,5.437,5.55,11.409,6.8,13.626,2.635-3.8,11.2-18.971,11.627-21.265a.807.807,0,1,1,1.587.3c-.533,2.859-11.094,21.431-12.736,22.947A.811.811,0,0,1,151.058,160.933Z" transform="translate(-142.008 -124.683)" fill="#3b3938"/>
            <path id="パス_2354" data-name="パス 2354" d="M212.79,184.569h-.008a.808.808,0,0,1-.8-.814c.162-19.439-3.679-25.889-5.983-28-3.744-3.435-14.671-8.165-24.313-12.338-8.433-3.65-15.715-6.8-17.5-8.751a.808.808,0,0,1,1.192-1.09c1.549,1.694,9.029,4.932,16.947,8.359,9.758,4.224,20.819,9.012,24.762,12.63,3.056,2.8,6.665,10.148,6.506,29.207A.807.807,0,0,1,212.79,184.569Z" transform="translate(-143.247 -124.478)" fill="#3b3938"/>
            <path id="パス_2355" data-name="パス 2355" d="M159.12,184.844a.819.819,0,0,1-.306-.06.809.809,0,0,1-.442-1.054c3.19-7.788,7-34.543,7.684-44.964a.808.808,0,1,1,1.612.106c-.695,10.509-4.555,37.545-7.8,45.47A.808.808,0,0,1,159.12,184.844Z" transform="translate(-142.916 -124.753)" fill="#3b3938"/>
            <path id="パス_2356" data-name="パス 2356" d="M169.141,185.007a.807.807,0,0,1-.643-1.295c2.543-3.359,7.266-14.671,8.3-17.193l-5.709-5.584a.808.808,0,0,1,.067-1.213l5.64-4.42-4.763-13.427a.807.807,0,0,1,1.522-.54l4.958,13.974a.808.808,0,0,1-.263.906l-5.373,4.211,5.439,5.319a.811.811,0,0,1,.184.881c-.233.574-5.736,14.122-8.718,18.061A.809.809,0,0,1,169.141,185.007Z" transform="translate(-143.502 -124.916)" fill="#3b3938"/>
          </g>
          <g id="グループ_1701" data-name="グループ 1701">
            <path id="パス_2357" data-name="パス 2357" d="M119.875,132.9c-.02,0-.039,0-.058,0a.808.808,0,0,1-.749-.862c.19-2.661.3-7.272.3-7.318a.82.82,0,0,1,.827-.788.808.808,0,0,1,.787.827c0,.047-.114,4.7-.307,7.393A.807.807,0,0,1,119.875,132.9Z" transform="translate(-68.578 -123.93)" fill="#3b3938"/>
            <path id="パス_2358" data-name="パス 2358" d="M138.528,143.779a.776.776,0,0,1-.2-.025c-4.41-1.129-14.151-5.742-17.375-9.076a.808.808,0,0,1,1.162-1.123c3,3.1,12.474,7.574,16.613,8.635a.807.807,0,0,1-.2,1.589Z" transform="translate(-68.675 -124.478)" fill="#3b3938"/>
            <path id="パス_2359" data-name="パス 2359" d="M130.054,160.933a.809.809,0,0,1-.547-.214c-1.641-1.516-12.2-20.089-12.736-22.947a.807.807,0,1,1,1.587-.3c.428,2.295,8.993,17.47,11.627,21.265,1.255-2.217,4.211-8.19,6.8-13.626a.808.808,0,0,1,1.458.7c-1.09,2.284-6.581,13.736-7.595,14.857a.806.806,0,0,1-.562.265Z" transform="translate(-68.443 -124.683)" fill="#3b3938"/>
            <path id="パス_2360" data-name="パス 2360" d="M66.256,184.569a.807.807,0,0,1-.807-.8c-.165-19.822,4.2-26.807,6.811-29.207,3.944-3.618,15-8.406,24.763-12.63,7.918-3.427,15.4-6.665,16.946-8.359a.808.808,0,1,1,1.192,1.09c-1.782,1.948-9.064,5.1-17.5,8.751-9.641,4.173-20.569,8.9-24.312,12.338-2.417,2.218-6.449,8.806-6.289,28a.808.808,0,0,1-.8.814Z" transform="translate(-65.444 -124.478)" fill="#3b3938"/>
            <path id="パス_2361" data-name="パス 2361" d="M122.749,184.844a.809.809,0,0,1-.748-.5c-3.246-7.926-7.106-34.962-7.8-45.47a.807.807,0,1,1,1.611-.106c.688,10.42,4.494,37.176,7.684,44.964a.808.808,0,0,1-.748,1.114Z" transform="translate(-68.294 -124.753)" fill="#3b3938"/>
            <path id="パス_2362" data-name="パス 2362" d="M112.674,185.007a.809.809,0,0,1-.644-.32c-2.982-3.939-8.485-17.487-8.718-18.061a.808.808,0,0,1,.184-.881l5.438-5.319-5.372-4.211a.808.808,0,0,1-.264-.906l4.958-13.974a.808.808,0,0,1,1.522.54L105.016,155.3l5.64,4.42a.808.808,0,0,1,.067,1.213l-5.709,5.584c1.039,2.522,5.76,13.834,8.3,17.193a.807.807,0,0,1-.643,1.295Z" transform="translate(-67.654 -124.916)" fill="#3b3938"/>
          </g>
        </g>
        <path id="パス_2363" data-name="パス 2363" d="M140.961,165.1a10.224,10.224,0,0,1-3.673-.537c-2.037-.846-2.094-7.241-2.094-7.306a.807.807,0,0,1,1.615,0c0,2.742.686,5.491,1.135,5.833,1.671.691,6.015.386,7.667-.2a.808.808,0,0,1,.54,1.523A18.272,18.272,0,0,1,140.961,165.1Z" transform="translate(-69.521 -20.294)" fill="#3b3938"/>
        <path id="パス_2364" data-name="パス 2364" d="M146.341,161.968a.838.838,0,0,1-.152-.014.808.808,0,0,1-.643-.944,16.756,16.756,0,0,0,.137-4.194.808.808,0,0,1,1.608-.15,18.248,18.248,0,0,1-.159,4.646A.807.807,0,0,1,146.341,161.968Z" transform="translate(-70.125 -20.264)" fill="#3b3938"/>
        <path id="パス_2365" data-name="パス 2365" d="M142.531,149.557a.807.807,0,0,1-.264-.044,6.266,6.266,0,0,0-2.3.012.807.807,0,1,1-.447-1.552,7.493,7.493,0,0,1,3.273.013.807.807,0,0,1-.263,1.57Z" transform="translate(-69.739 -19.789)" fill="#3b3938"/>
        <path id="パス_2366" data-name="パス 2366" d="M133.795,186.44h-.026a.807.807,0,0,1-.781-.832c.088-2.81,1.334-16.337,2.1-19.668a.808.808,0,0,1,1.574.361c-.691,3.009-1.964,16.306-2.059,19.358A.807.807,0,0,1,133.795,186.44Z" transform="translate(-69.392 -20.812)" fill="#3b3938"/>
        <path id="パス_2367" data-name="パス 2367" d="M149.36,186.44a.807.807,0,0,1-.807-.782c-.1-3.053-1.368-16.349-2.058-19.358a.807.807,0,0,1,1.573-.361c.765,3.331,2.011,16.859,2.1,19.668a.808.808,0,0,1-.782.832Z" transform="translate(-70.18 -20.812)" fill="#3b3938"/>
      </g>
    </g>
  </g>
</svg>
