<svg xmlns="http://www.w3.org/2000/svg" xmlns:xlink="http://www.w3.org/1999/xlink" width="350" height="350" viewBox="0 0 350 350"><defs><filter id="a" x="0" y="0" width="350" height="350" filterUnits="userSpaceOnUse"><feOffset dy="3" input="SourceAlpha"/><feGaussianBlur stdDeviation="3" result="b"/><feFlood flood-opacity="0.161" result="c"/><feComposite operator="out" in="SourceGraphic" in2="b"/><feComposite operator="in" in="c"/><feComposite operator="in" in2="SourceGraphic"/></filter></defs><g transform="translate(-782 -9207)"><g data-type="innerShadowGroup"><circle cx="175" cy="175" r="175" transform="translate(782 9207)" fill="#fff"/><g transform="matrix(1, 0, 0, 1, 782, 9207)" filter="url(#a)"><circle cx="175" cy="175" r="175" fill="#fff"/></g></g><rect width="73.331" height="99.9" transform="translate(876.669 9278.488)" fill="#fff"/><g transform="translate(665.805 9286.82)"><g transform="translate(172.209 11.794)"><path d="M356.8,87.115l-.368,4.719-.048,2.685-4.133,2.936-12.693-6.9-23.166-12.6.03-62.873-3.468-2.7L212.59,48.486l-.225,66.823,1.362.744v-.117l-25.348,9.124v23.161l50.643,26.918,39.7-14.11s28-10.433,32.286-11.72c3.448,2.008,10.034,3.26,13.088,3.738a9.4,9.4,0,0,0,6.237-.934c1.287-.676,18.458-21.326,18.458-21.326l2.759,16.261,4,14.4-1.131,14.074L354,186.1h7.188L360.009,204l51.37-18.554s5.895-53.06,6.181-55.709.891-5.537-.451-7.668-3.256-1.088-5.349-.593-6.4,2.1-6.4,2.1-.823-5.379-1.415-8.36-3.992-14.573-4.613-16.343-2.629-5.267-4.571-6.642-6.318-2.416-9.276-2.416c-2.1,0-5.707-1.7-5.707-1.7s-3.03-1.737-3.55-3.706c-.23-.873,1.474-3.863,1.474-3.863l2.428-3.348-.3,4.56s3.057-2.334,3.232-2.058,4.019,1.426,5.454.511c.46-2.166,1.394-15.206.813-19.445s-2.006-12.921-4.091-16.236-7.968-9-9.6-10.175c-1.688-1.22-4.914-5.116-9.71-4.488s-11.332,1.015-15.728,3.26-9.506,5.135-11.6,8.244a22.881,22.881,0,0,0-4.458,14.27,64.576,64.576,0,0,0,1.237,9.233l.865,4.444-1.74,2.47.685,1.6,1.33.922.633,2.52,3.283,9.953,1.289,3.142.8.086,6.588-.639.58-.412Z" transform="translate(-188.379 -12.38)" fill="#fff"/></g><g transform="translate(155.268 13.07)"><path d="M342.268,17.571l-3.468-2.7L238.209,50.98V117.8l4.085,2.454,30.132-10.6,13.06,7.506,37.381-13.658-12.805-7.63,32.206-11.727Zm-3.9,63.22-92.125,33.141V56.893L338.37,23.752Z" transform="translate(-195.774 -14.875)" fill="#b4a28f"/><g transform="translate(65.893 93.653)"><path d="M348.709,223.462s-1.281-.68-2.729-1.456l-2.83,1.052,1.4.494C347.66,224.653,348.709,223.462,348.709,223.462Z" transform="translate(-312.918 -209.686)" fill="#b4a28f"/><path d="M331.955,240.241l-7.634-2-4.274-1.05-4.351-.808-4.657-.483-2.819-1.2v-1.265l10.049.736-2.263-1.465a56.278,56.278,0,0,1-6.107-.963c-1.766-.5-3.053-.57-3.548-1.876s2.076-.57,5.982-.553,5.663,0,5.663,0l-7.622-2.406-26.314,9.781v2.961l24.547,13.079,25.718-9.116.214-1.314Z" transform="translate(-284.06 -212.08)" fill="#b4a28f"/><path d="M409.316,211.005l-24.2-13.079L355.4,208.968l9.206,3.815s-.717-.253-1.178-3.188,0-2.812,0-2.812,2.626,2.422,3.367,3.088,8.118,7.6,8.118,7.6l1.171-.6,3.8.6.071.216.429-.094,3.9.479,9.236,2.756,15.786-5.6Z" transform="translate(-318.902 -197.926)" fill="#b4a28f"/></g><g transform="translate(227.472 10.122)"><path d="M599.875,65.508l21.435-30.849,6.13,8.354Z" transform="translate(-599.875 -34.659)" fill="#b4a28f"/><path d="M606.487,135.013l31.837,4.07-2.455,9.026Z" transform="translate(-603.105 -83.669)" fill="#b4a28f"/><path d="M613.72,94.859l36.307-13.373.991,11.441Z" transform="translate(-606.637 -57.528)" fill="#b4a28f"/></g><g transform="translate(0 9.877)"><path d="M187.814,97.432,163.525,108.3l-.66-7.31Z" transform="translate(-158.978 -65.07)" fill="#b4a28f"/><path d="M205.272,52.874,187.454,38.755l4.792-4.575Z" transform="translate(-170.987 -34.179)" fill="#b4a28f"/><path d="M182.181,72.77l-26.912-5.177,3.586-7.3Z" transform="translate(-155.268 -46.932)" fill="#b4a28f"/></g><path d="M323.514,76.618c1.452-1.021,6.125-4.4,8.851-4.63,3.2-.267,6.174,1.01,6.631,3.2a26.064,26.064,0,0,1,.735,6.669,3.253,3.253,0,0,0-2.336-1.372l-1.486-1.131-1.952-1-.677-1.181-3.4,2.782-2.654.36-2.9,1.863-2.489,3.646-1.88.577s.566,4.034,0,3.843c-1.385-1.258-1.862-5.373-1.157-7.241A15.43,15.43,0,0,1,323.514,76.618Z" transform="translate(-234.975 -42.751)" fill="#3d7a95"/><path d="M311.237,149.789c1.41-2.42,5.354-7.469,6.974-8.46a2.731,2.731,0,0,1,.958,2.135l2.205,12.8-12.881,5.869S309.144,153.381,311.237,149.789Z" transform="translate(-230.099 -76.632)" fill="#3d7a95"/><path d="M352.22,132.715c2.866.21,5.2,1.944,5.64,3.506s.876,8.327,1.029,9.451c-1.01.839-13.452,4.533-13.452,4.533l2.395-17.489S350.658,132.6,352.22,132.715Z" transform="translate(-248.142 -72.4)" fill="#3d7a95"/><path d="M334.175,138.049l2.71-2.835,2.712.816-1.492,4.909.952,10.511-3.725,1.25.661-11.223Z" transform="translate(-242.642 -73.646)" fill="#ffe848"/><path d="M331.265,107.57a1.191,1.191,0,0,1-.6,1.09c-.332.121-.6-.171-.6-.653a1.189,1.189,0,0,1,.6-1.09C331,106.8,331.265,107.088,331.265,107.57Z" transform="translate(-240.634 -59.813)" fill="#3b3938"/><path d="M346.606,101.986c0,.481.269.774.6.653a1.19,1.19,0,0,0,.6-1.09c0-.481-.269-.774-.6-.653A1.191,1.191,0,0,0,346.606,101.986Z" transform="translate(-248.713 -56.872)" fill="#3b3938"/><path d="M488.687,117.623c0,.814-.329,1.473-.736,1.473s-.737-.659-.737-1.473.329-1.473.737-1.473S488.687,116.809,488.687,117.623Z" transform="translate(-317.382 -64.335)" fill="#3b3938"/><path d="M491.89,57.085c6.289-2.447,16.583-4.61,23.463.988a29.888,29.888,0,0,1,10.192,16.083c1.545,6.345,1.361,18.706.994,26.994-1.49,1.372-8.891,1.905-10.424,1.5-1.773-.018-4.04,1.259-5.6,1.9s-17.721,5.336-21.49,4.993c.849-3.12,3.461-19.345,3.222-21.626s-1.238-8.673-2.268-11.05-5.089-9.76-6.055-10.282c-1.794,1.814-3.383,2.827-5.072,6.266s-2.075,9.906-1.781,11.776-.86,5.068-.86,5.068-1.081-4.2-1.418-6.025,1.036-12.242,2.711-15.9C479.942,62.445,487.539,58.777,491.89,57.085Z" transform="translate(-311.292 -34.25)" fill="#3d7a95"/><path d="M489.027,169.547c-5.19-.644-27.075.906-36.865,7.8-10.6,7.468-10.353,7.756-16.556,16.781s-13.613,18.465-13.613,18.465-16.141-4.82-17.618-5.224-8.833-2.378-8.833-2.378a6.115,6.115,0,0,0-3.429,3.789,59.1,59.1,0,0,0-1.33,8.284s8.78,4.57,10.908,5.576,18.941,7.466,22.62,7.466,5.644-.909,7.226-3.2,11.089-13.411,12.417-15.02,3.445-4.933,3.445-4.933a40.715,40.715,0,0,1,1.469,6.709A154.79,154.79,0,0,0,452.35,231.2a44.986,44.986,0,0,1,1.578,7.147l-1.1,25.79v3.348h7.284l3.274-29.506s1.545-17.255,1.8-19.242,2.323-5.063,6.416-6.535l30.273-10.89c-.083-3.986-4.387-20.984-5.932-23.89S493.773,170.136,489.027,169.547Z" transform="translate(-270.288 -90.348)" fill="#3d7a95"/><path d="M470.146,205.059l-1.605-1.348s1.423-3.624,1.806-4.4A55.318,55.318,0,0,1,474.241,194a11.423,11.423,0,0,1,1.252-.732l2.512,2.036-5.013,6.167Z" transform="translate(-308.262 -101.996)" fill="#3d7a95"/></g><g transform="translate(171.797 11.18)"><path d="M515.292,164.9a.614.614,0,0,1-.361-1.111c3.776-2.742,16.86-8.52,25.358-5.887a.614.614,0,0,1-.364,1.173c-7.446-2.306-19.939,2.56-24.272,5.708A.611.611,0,0,1,515.292,164.9Z" transform="translate(-347.323 -82.51)" fill="#3b3938"/><path d="M496.224,176.35a.614.614,0,0,1-.377-1.1l.43-.334c3.891-3.027,7.915-6.157,10.923-7.34,10.365-4.076,24.03-8.155,37.807-3.485a.614.614,0,0,1-.394,1.163c-13.4-4.543-26.793-.535-36.964,3.465-2.843,1.118-6.8,4.192-10.618,7.166l-.43.335A.61.61,0,0,1,496.224,176.35Z" transform="translate(-338.011 -84.842)" fill="#3b3938"/><path d="M571.068,220.319a.614.614,0,0,1-.61-.556,118.3,118.3,0,0,0-2.073-13.673.614.614,0,1,1,1.2-.258,119.638,119.638,0,0,1,2.094,13.816.614.614,0,0,1-.554.669A.556.556,0,0,1,571.068,220.319Z" transform="translate(-373.546 -106.006)" fill="#3b3938"/><path d="M563.866,188.276a.614.614,0,0,1-.594-.458c-.983-3.746-1.957-6.525-2.6-8.364-.271-.773-.484-1.382-.629-1.862a.614.614,0,1,1,1.175-.356c.137.454.347,1.053.613,1.812.651,1.857,1.635,4.665,2.63,8.458a.614.614,0,0,1-.438.75A.63.63,0,0,1,563.866,188.276Z" transform="translate(-369.465 -92.065)" fill="#3b3938"/><path d="M602.562,198.284a.613.613,0,0,1-.613-.594c-.129-4.071-4.188-21.6-8.234-26.005a.614.614,0,1,1,.905-.83c4.3,4.686,8.419,22.494,8.555,26.8a.614.614,0,0,1-.594.633Z" transform="translate(-385.845 -89.064)" fill="#3b3938"/><path d="M242.66,183.92a.614.614,0,0,1-.208-1.192l100.365-36.105a.614.614,0,1,1,.416,1.155L242.868,183.884A.6.6,0,0,1,242.66,183.92Z" transform="translate(-214.177 -77.309)" fill="#3b3938"/><path d="M329.3,199.824a.614.614,0,0,1-.208-1.192l34.258-12.324a.614.614,0,0,1,.415,1.155l-34.258,12.324A.6.6,0,0,1,329.3,199.824Z" transform="translate(-256.49 -96.691)" fill="#3b3938"/><path d="M241.526,53.784a.614.614,0,0,1-.208-1.192L341.684,16.486a.614.614,0,0,1,.415,1.156L241.734,53.747A.615.615,0,0,1,241.526,53.784Z" transform="translate(-213.623 -13.754)" fill="#3b3938"/><path d="M251.289,173.706a.614.614,0,0,1-.208-1.192l92.125-33.142a.614.614,0,0,1,.415,1.156L251.5,173.67A.62.62,0,0,1,251.289,173.706Z" transform="translate(-218.391 -73.769)" fill="#3b3938"/><path d="M251.289,62.221a.614.614,0,0,1-.208-1.192l92.125-33.141a.614.614,0,0,1,.415,1.155L251.5,62.184A.62.62,0,0,1,251.289,62.221Z" transform="translate(-218.391 -19.322)" fill="#3b3938"/><path d="M543.276,240.206a.614.614,0,0,1-.208-1.192l42.588-15.321a.614.614,0,0,1,.415,1.155l-42.588,15.321A.615.615,0,0,1,543.276,240.206Z" transform="translate(-360.99 -114.949)" fill="#3b3938"/><path d="M286.547,301.053a.614.614,0,0,1-.208-1.192l60.245-21.672a.614.614,0,1,1,.415,1.155l-60.245,21.673A.615.615,0,0,1,286.547,301.053Z" transform="translate(-235.61 -141.563)" fill="#3b3938"/><path d="M422.214,229.853a.614.614,0,0,1-.208-1.192l15.778-5.676a.614.614,0,1,1,.416,1.155l-15.778,5.676A.606.606,0,0,1,422.214,229.853Z" transform="translate(-301.866 -114.603)" fill="#3b3938"/><path d="M332.517,262.285a.614.614,0,0,1-.208-1.192l17.939-6.453a.614.614,0,1,1,.416,1.155l-17.939,6.453A.608.608,0,0,1,332.517,262.285Z" transform="translate(-258.061 -130.062)" fill="#3b3938"/><path d="M356.93,207.111a.614.614,0,0,1-.208-1.192l25.8-9.282a.614.614,0,1,1,.416,1.155l-25.8,9.282A.62.62,0,0,1,356.93,207.111Z" transform="translate(-269.983 -101.735)" fill="#3b3938"/><path d="M430.917,234.181a.614.614,0,0,1-.208-1.192l13.967-5.024a.614.614,0,1,1,.416,1.155l-13.967,5.024A.606.606,0,0,1,430.917,234.181Z" transform="translate(-306.117 -117.035)" fill="#3b3938"/><path d="M332.753,266.656a.614.614,0,0,1-.208-1.191l22.233-8a.614.614,0,0,1,.415,1.155l-22.233,8A.6.6,0,0,1,332.753,266.656Z" transform="translate(-258.176 -131.443)" fill="#3b3938"/><path d="M286.827,234.6a.614.614,0,0,1-.208-1.192l19.185-6.9a.614.614,0,1,1,.415,1.155l-19.185,6.9A.615.615,0,0,1,286.827,234.6Z" transform="translate(-235.747 -116.324)" fill="#3b3938"/><path d="M286.547,307.821a.614.614,0,0,1-.208-1.192l66.13-23.79a.614.614,0,1,1,.415,1.155l-66.13,23.79A.615.615,0,0,1,286.547,307.821Z" transform="translate(-235.61 -143.835)" fill="#3b3938"/><path d="M465.986,179.108a.611.611,0,0,1-.5-.254c-.314-.433-2.829-2.456-4.665-3.933-1.927-1.55-3.748-3.014-4.29-3.594a.614.614,0,1,1,.9-.839c.483.516,2.354,2.021,4.164,3.476a47.524,47.524,0,0,1,4.89,4.169.614.614,0,0,1-.5.974Z" transform="translate(-318.846 -88.887)" fill="#3b3938"/><path d="M459.872,183.092a.613.613,0,0,1-.386-.137c-1.2-.972-1.733-3.831-1.789-5.4-.951-.833-3.143-3.356-3.186-4.209a.614.614,0,0,1,1.223-.1,15.114,15.114,0,0,0,2.9,3.491.613.613,0,0,1,.284.522c-.008,1.451.521,4.084,1.338,4.743a.614.614,0,0,1-.386,1.092Zm-4.134-9.811h0Z" transform="translate(-317.939 -90.061)" fill="#3b3938"/><path d="M445.693,186.527a.606.606,0,0,1-.138-.015.613.613,0,0,1-.461-.736,72.477,72.477,0,0,1,3.744-8.181.614.614,0,1,1,1.049.638,76.446,76.446,0,0,0-3.6,7.818A.614.614,0,0,1,445.693,186.527Z" transform="translate(-313.333 -92.309)" fill="#3b3938"/><path d="M441.65,168.733a.612.612,0,0,1-.316-.088c-.536-.294-9.677-4.368-10.1-4.53a.614.614,0,0,1,.442-1.146c.076.029,9.844,4.343,10.3,4.631a.614.614,0,0,1-.327,1.134Z" transform="translate(-306.38 -85.29)" fill="#3b3938"/><path d="M440.187,172.2a.611.611,0,0,1-.29-.074c-.069-.036-6.814-3.663-7.425-3.97-.023-.012-2.329-1.2-2.244-2.363a.614.614,0,0,1,1.226.03,4.812,4.812,0,0,0,1.569,1.236c.626.314,7.176,3.836,7.454,3.985a.614.614,0,0,1-.291,1.155Z" transform="translate(-306.079 -86.411)" fill="#3b3938"/><path d="M430.388,173.951a.522.522,0,0,1-.07,0l-8.624-.973a.614.614,0,1,1,.138-1.22l8.623.973a.614.614,0,0,1-.068,1.224Z" transform="translate(-301.646 -89.598)" fill="#3b3938"/><path d="M432.423,177.9a.68.68,0,0,1-.091-.007c-.065-.01-6.5-.963-7.318-1.045-.625-.062-2.8-.583-3.277-1.337a.614.614,0,0,1,1.022-.68,6.433,6.433,0,0,0,2.377.8c.845.084,7.11,1.012,7.376,1.051a.614.614,0,0,1-.089,1.222Zm-9.656-3.057.006.009Z" transform="translate(-301.887 -90.974)" fill="#3b3938"/><path d="M432.8,182.636h0c-.244,0-1.571-.056-3.715-.146-2.78-.117-6.981-.3-7.355-.271a.618.618,0,0,1-.654-.569.61.61,0,0,1,.56-.655c.367-.028,3.34.093,7.5.269,1.767.074,3.435.144,3.667.145a.614.614,0,0,1,0,1.228Z" transform="translate(-301.609 -94.112)" fill="#3b3938"/><path d="M432.629,185.577s-4.692-.227-5.816-.279l-.357-.015c-2.854-.114-4.359-.334-4.659-1.221a.614.614,0,0,1,1.131-.471,10.357,10.357,0,0,0,3.577.465l.364.015c1.125.053,5.819.279,5.819.279Z" transform="translate(-301.947 -95.215)" fill="#3b3938"/><path d="M425.46,190.371a.614.614,0,0,1-.15-1.209c.2-.052.883-.214,1.724-.414,1.59-.379,3.992-.952,4.441-1.083a.614.614,0,1,1,.345,1.178c-.479.14-2.8.695-4.5,1.1-.832.2-1.5.359-1.706.41A.623.623,0,0,1,425.46,190.371Z" transform="translate(-303.452 -97.358)" fill="#3b3938"/><path d="M428.911,193.305c-1.111,0-2.243-.136-2.515-.609a.614.614,0,0,1,.945-.761,10.6,10.6,0,0,0,3.592-.011c1.185-.293,3.863-.707,3.976-.724a.614.614,0,1,1,.187,1.214c-.027,0-2.736.423-3.867.7A12.912,12.912,0,0,1,428.911,193.305Zm-1.451-1.221h0Z" transform="translate(-304.169 -99.094)" fill="#3b3938"/><path d="M454.044,201.839a.434.434,0,0,1-.044,0c-4.15-.3-7.821-3.132-9.639-4.8a.627.627,0,0,1-.05-.877.6.6,0,0,1,.856-.049l.023.02c2.894,2.649,6.137,4.281,8.9,4.478a.614.614,0,0,1-.043,1.226Z" transform="translate(-312.882 -101.421)" fill="#3b3938"/><path d="M464.723,200.51a.627.627,0,0,1-.126-.013.615.615,0,0,1-.476-.727c.641-3.066,4.363-10.156,7.569-11.422a.614.614,0,1,1,.451,1.142c-2.7,1.067-6.23,7.717-6.818,10.531A.615.615,0,0,1,464.723,200.51Z" transform="translate(-322.626 -97.684)" fill="#3b3938"/><path d="M468.9,202.56a.627.627,0,0,1-.13-.014.614.614,0,0,1-.471-.73c.469-2.174,2.888-8.821,7.692-10.773a.614.614,0,1,1,.462,1.137c-4.312,1.753-6.52,7.885-6.954,9.895A.613.613,0,0,1,468.9,202.56Z" transform="translate(-324.664 -98.999)" fill="#3b3938"/><path d="M447.161,222.851a.613.613,0,0,1-.523-.934c1.634-2.672,16.169-26.248,23.4-31.2a.614.614,0,1,1,.694,1.013c-5.7,3.9-17.167,21.212-23.044,30.824A.612.612,0,0,1,447.161,222.851Z" transform="translate(-314.05 -98.811)" fill="#3b3938"/><path d="M390.315,249.535h-.006a.614.614,0,0,1-.609-.619v-.349c-.028-8.037,2.527-12.869,7.6-14.361a.614.614,0,1,1,.347,1.178c-4.481,1.319-6.74,5.753-6.714,13.179,0,.141,0,.263,0,.363A.614.614,0,0,1,390.315,249.535Z" transform="translate(-286.288 -120.088)" fill="#3b3938"/><path d="M385.516,246.939a.614.614,0,0,1-.612-.579c-.172-2.991.688-11.25,6.663-13.512A.614.614,0,0,1,392,234c-4.693,1.777-6.092,8.483-5.872,12.293a.614.614,0,0,1-.578.649Z" transform="translate(-283.935 -119.418)" fill="#3b3938"/><path d="M428.73,242.944a.618.618,0,0,1-.173-.025c-6.579-1.933-19.252-5.64-20.126-5.841a.614.614,0,0,1,.275-1.2c1.127.259,19.419,5.63,20.2,5.859a.614.614,0,0,1-.173,1.2Z" transform="translate(-295.202 -120.911)" fill="#3b3938"/><path d="M524.222,325.575a.572.572,0,0,1-.065,0,.613.613,0,0,1-.546-.675l5.573-52.537a.614.614,0,0,1,1.221.129l-5.573,52.538A.614.614,0,0,1,524.222,325.575Z" transform="translate(-351.684 -138.465)" fill="#3b3938"/><path d="M535.623,263.126a.6.6,0,0,1-.1-.007.614.614,0,0,1-.513-.7c.05-.32.082-.686.117-1.072.159-1.783.376-4.225,2.737-5.5a.614.614,0,1,1,.583,1.081c-1.78.961-1.948,2.856-2.1,4.528-.036.408-.071.793-.126,1.153A.613.613,0,0,1,535.623,263.126Z" transform="translate(-357.252 -130.633)" fill="#3b3938"/><path d="M633.292,228.769h-.021a.614.614,0,0,1-.594-.633c.057-1.761-.419-3.194-1.276-3.833a1.057,1.057,0,0,0-.914-.247.614.614,0,0,1-.387-1.166,2.236,2.236,0,0,1,2.035.429c1.2.893,1.84,2.663,1.768,4.857A.614.614,0,0,1,633.292,228.769Z" transform="translate(-403.488 -114.528)" fill="#3b3938"/><path d="M236.089,294.269a.611.611,0,0,1-.294-.075l-47.9-26.158a.614.614,0,1,1,.588-1.077l47.9,26.158a.614.614,0,0,1-.295,1.153Z" transform="translate(-187.574 -136.059)" fill="#3b3938"/><path d="M237.4,215.077a.607.607,0,0,1-.293-.075l-2.725-1.488a.614.614,0,1,1,.588-1.077l2.725,1.488a.614.614,0,0,1-.3,1.153Z" transform="translate(-210.277 -109.431)" fill="#3b3938"/><path d="M462.342,153.269a.61.61,0,0,1-.294-.075l-14.021-7.656a.614.614,0,1,1,.588-1.077l14.021,7.656a.614.614,0,0,1-.295,1.153Z" transform="translate(-314.617 -76.234)" fill="#3b3938"/><path d="M235.114,48.514a.614.614,0,0,1-.208-1.192L335.272,11.216a.613.613,0,0,1,.5.039l1.875,1.024a.614.614,0,0,1-.588,1.077l-1.633-.891L235.322,48.478A.62.62,0,0,1,235.114,48.514Z" transform="translate(-210.491 -11.18)" fill="#3b3938"/><path d="M306.056,257.083a.61.61,0,0,1-.294-.075l-23.951-13.079a.614.614,0,1,1,.588-1.077l23.951,13.079a.614.614,0,0,1-.295,1.153Z" transform="translate(-233.441 -124.285)" fill="#3b3938"/><path d="M315.849,205.859a.616.616,0,0,1-.294-.075l-10.174-5.556a.614.614,0,0,1,.588-1.077l10.174,5.556a.614.614,0,0,1-.295,1.153Z" transform="translate(-244.952 -102.944)" fill="#3b3938"/><path d="M389.136,179.3a.607.607,0,0,1-.294-.075l-10.174-5.556a.614.614,0,1,1,.588-1.077l10.174,5.556a.614.614,0,0,1-.295,1.153Z" transform="translate(-280.744 -89.972)" fill="#3b3938"/><g transform="translate(112.514 97.368)"><path d="M436.184,221.339a.614.614,0,0,1-.208-1.192l2.654-.955-1.838-1a.614.614,0,1,1,.588-1.077l3.036,1.658a.614.614,0,0,1-.086,1.116l-3.939,1.417A.6.6,0,0,1,436.184,221.339Z" transform="translate(-421.203 -209.084)" fill="#3b3938"/><path d="M426.617,216.2a.614.614,0,0,1-.208-1.192l2.654-.955-1.838-1a.614.614,0,1,1,.588-1.077l3.036,1.658a.614.614,0,0,1-.086,1.116l-3.939,1.417A.62.62,0,0,1,426.617,216.2Z" transform="translate(-416.531 -206.575)" fill="#3b3938"/><path d="M417.315,211.068a.614.614,0,0,1-.208-1.192l2.654-.955-1.838-1a.614.614,0,1,1,.589-1.077l3.036,1.658a.614.614,0,0,1-.086,1.116l-3.939,1.417A.619.619,0,0,1,417.315,211.068Z" transform="translate(-411.988 -204.067)" fill="#3b3938"/><path d="M408.1,205.8a.614.614,0,0,1-.208-1.192l2.654-.955-1.838-1a.614.614,0,1,1,.588-1.077l3.036,1.659a.614.614,0,0,1-.086,1.116l-3.939,1.417A.6.6,0,0,1,408.1,205.8Z" transform="translate(-407.489 -201.492)" fill="#3b3938"/></g><g transform="translate(105.576 99.864)"><path d="M422.624,226.216a.614.614,0,0,1-.208-1.192l2.655-.955-1.838-1a.614.614,0,1,1,.588-1.077l3.036,1.658a.614.614,0,0,1-.086,1.116l-3.939,1.417A.62.62,0,0,1,422.624,226.216Z" transform="translate(-407.643 -213.96)" fill="#3b3938"/><path d="M413.058,221.08a.614.614,0,0,1-.208-1.192l2.654-.955-1.838-1a.614.614,0,1,1,.588-1.077l3.036,1.658a.614.614,0,0,1-.086,1.116l-3.94,1.417A.615.615,0,0,1,413.058,221.08Z" transform="translate(-402.971 -211.453)" fill="#3b3938"/><path d="M403.756,215.944a.614.614,0,0,1-.208-1.192l2.654-.955-1.838-1a.614.614,0,0,1,.588-1.078l3.036,1.658a.614.614,0,0,1-.086,1.116l-3.94,1.417A.614.614,0,0,1,403.756,215.944Z" transform="translate(-398.428 -208.944)" fill="#3b3938"/><path d="M394.544,210.673a.614.614,0,0,1-.208-1.192l2.654-.955-1.838-1a.614.614,0,0,1,.588-1.077l3.036,1.658a.614.614,0,0,1-.086,1.116l-3.939,1.417A.617.617,0,0,1,394.544,210.673Z" transform="translate(-393.929 -206.37)" fill="#3b3938"/></g><g transform="translate(98.639 102.358)"><path d="M409.065,231.092a.614.614,0,0,1-.208-1.191l2.654-.955-1.838-1a.614.614,0,0,1,.588-1.077l3.036,1.658a.614.614,0,0,1-.086,1.116l-3.94,1.417A.6.6,0,0,1,409.065,231.092Z" transform="translate(-394.084 -218.836)" fill="#3b3938"/><path d="M399.5,225.956a.614.614,0,0,1-.208-1.192l2.654-.955-1.838-1a.614.614,0,1,1,.589-1.078l3.036,1.659a.614.614,0,0,1-.086,1.116l-3.939,1.417A.6.6,0,0,1,399.5,225.956Z" transform="translate(-389.412 -216.327)" fill="#3b3938"/><path d="M390.2,220.82a.614.614,0,0,1-.208-1.191l2.654-.955-1.838-1a.614.614,0,1,1,.588-1.077l3.036,1.658a.614.614,0,0,1-.086,1.116l-3.939,1.417A.6.6,0,0,1,390.2,220.82Z" transform="translate(-384.869 -213.82)" fill="#3b3938"/><path d="M380.984,215.549a.614.614,0,0,1-.208-1.192l2.654-.955-1.838-1a.614.614,0,0,1,.589-1.078l3.036,1.659a.614.614,0,0,1-.086,1.116l-3.939,1.417A.605.605,0,0,1,380.984,215.549Z" transform="translate(-380.37 -211.245)" fill="#3b3938"/></g><g transform="translate(63.953 114.832)"><path d="M341.269,255.473a.614.614,0,0,1-.208-1.192l2.654-.955-1.838-1a.614.614,0,0,1,.588-1.078L345.5,252.9a.614.614,0,0,1-.086,1.116l-3.939,1.417A.62.62,0,0,1,341.269,255.473Z" transform="translate(-326.288 -243.217)" fill="#3b3938"/><path d="M331.7,250.765a.614.614,0,0,1-.208-1.192l2.654-.955-1.019-.556a.614.614,0,0,1,.588-1.078l2.217,1.211a.614.614,0,0,1-.086,1.116l-3.939,1.417A.615.615,0,0,1,331.7,250.765Z" transform="translate(-321.616 -241.137)" fill="#3b3938"/><path d="M325.394,242.8a.607.607,0,0,1-.293-.075l-1.23-.671a.614.614,0,0,1,.588-1.077l1.23.671a.614.614,0,0,1-.3,1.153Z" transform="translate(-317.935 -238.201)" fill="#3b3938"/><path d="M322.4,247.281a.614.614,0,0,1-.208-1.192l2.5-.9a.614.614,0,1,1,.415,1.155l-2.5.9A.615.615,0,0,1,322.4,247.281Z" transform="translate(-317.073 -240.28)" fill="#3b3938"/><path d="M313.188,239.93a.614.614,0,0,1-.208-1.192l2.654-.955-1.838-1a.614.614,0,1,1,.588-1.077l3.036,1.658a.614.614,0,0,1-.086,1.116l-3.939,1.417A.619.619,0,0,1,313.188,239.93Z" transform="translate(-312.574 -235.626)" fill="#3b3938"/></g><g transform="translate(57.016 117.327)"><path d="M327.71,260.349a.614.614,0,0,1-.208-1.192l2.654-.955-1.838-1a.614.614,0,0,1,.588-1.078l3.036,1.659a.614.614,0,0,1-.086,1.116l-3.939,1.417A.6.6,0,0,1,327.71,260.349Z" transform="translate(-312.729 -248.093)" fill="#3b3938"/><path d="M318.144,255.213a.614.614,0,0,1-.208-1.192l2.654-.955-1.838-1a.614.614,0,1,1,.588-1.077l3.036,1.659a.614.614,0,0,1-.086,1.116l-3.939,1.417A.6.6,0,0,1,318.144,255.213Z" transform="translate(-308.057 -245.585)" fill="#3b3938"/><path d="M308.842,250.078a.614.614,0,0,1-.208-1.192l2.654-.955-1.838-1a.614.614,0,1,1,.588-1.077l3.036,1.658a.614.614,0,0,1-.086,1.116l-3.939,1.417A.6.6,0,0,1,308.842,250.078Z" transform="translate(-303.514 -243.077)" fill="#3b3938"/><path d="M299.629,244.806a.614.614,0,0,1-.208-1.191l2.654-.955-1.838-1a.614.614,0,0,1,.588-1.078l3.036,1.658a.614.614,0,0,1-.086,1.116l-3.94,1.417A.6.6,0,0,1,299.629,244.806Z" transform="translate(-299.015 -240.502)" fill="#3b3938"/></g><path d="M306.056,262.872a.611.611,0,0,1-.294-.075l-23.951-13.079a.614.614,0,1,1,.588-1.077l23.951,13.079a.614.614,0,0,1-.295,1.153Z" transform="translate(-233.441 -127.113)" fill="#3b3938"/><path d="M435.469,208.984a.608.608,0,0,1-.294-.075l-23.951-13.079a.614.614,0,0,1,.588-1.077l23.951,13.079a.614.614,0,0,1-.295,1.153Z" transform="translate(-296.643 -100.795)" fill="#3b3938"/><path d="M236.089,304.075A.605.605,0,0,1,235.8,304l-47.9-26.158a.614.614,0,1,1,.588-1.077l47.9,26.158a.614.614,0,0,1-.295,1.153Z" transform="translate(-187.574 -140.848)" fill="#3b3938"/><path d="M380.344,224.748a.612.612,0,0,1-.424-.17c-.714-.68-2.441-2.227-4.269-3.863-2.056-1.841-4.174-3.738-5.247-4.754a3.926,3.926,0,0,0,.831,2.4.614.614,0,1,1-.952.775c-1.11-1.365-1.466-3.75-.668-4.476a.92.92,0,0,1,1.317.111c.886.869,3.251,2.986,5.538,5.034,1.836,1.643,3.57,3.2,4.3,3.889a.614.614,0,0,1-.424,1.059Z" transform="translate(-276.268 -110.442)" fill="#3b3938"/><path d="M357.4,221.15a.613.613,0,0,1-.342-.1,69.816,69.816,0,0,0-7.038-3.205c-1.229-.44-8.4-3.492-9.886-4.351a.9.9,0,0,0-.09-.046,1.86,1.86,0,0,0,.715,1.565c1.238.754,6.406,3.448,6.458,3.475a.614.614,0,1,1-.567,1.089c-.214-.112-5.257-2.741-6.529-3.515a2.811,2.811,0,0,1-1.1-3.337,1.169,1.169,0,0,1,1.726-.294c1.352.779,8.393,3.795,9.687,4.258a68.875,68.875,0,0,1,7.31,3.343.614.614,0,0,1-.343,1.123Z" transform="translate(-261.434 -109.345)" fill="#3b3938"/><path d="M338.8,225.917a.615.615,0,0,1-.214-.038c-.076-.028-7.6-2.823-10.18-3.711a3.4,3.4,0,0,1-2.414-2.458,1.567,1.567,0,0,1,.437-1.523,1.052,1.052,0,0,1,1.078-.15c.981.389,11.28,4.131,13.4,4.725a.614.614,0,1,1-.331,1.182c-2.152-.6-11.828-4.116-13.391-4.713a.979.979,0,0,0,.053.432,2.277,2.277,0,0,0,1.563,1.344c2.589.893,10.132,3.692,10.207,3.721a.614.614,0,0,1-.213,1.19Z" transform="translate(-255.155 -112.163)" fill="#3b3938"/><path d="M337.725,235.209a.6.6,0,0,1-.068,0c-.818-.09-8.031-.894-9.511-1.559-1.222-.548-1.608-1.468-1.448-2.136a1.1,1.1,0,0,1,1.176-.858c.873.04,11.6,1.7,12.431,1.829a.614.614,0,1,1-.2,1.212c-1.164-.188-10.955-1.687-12.2-1.807a1.318,1.318,0,0,0,.742.641c.987.443,6.009,1.115,9.142,1.458a.614.614,0,0,1-.066,1.224Z" transform="translate(-255.502 -118.364)" fill="#3b3938"/><path d="M341.413,241.139l-.052,0c-.18-.015-.907-.064-1.9-.131-2.682-.182-7.171-.485-8.177-.607a.614.614,0,0,1,.148-1.219c.973.118,5.442.421,8.112.6,1,.068,1.732.117,1.913.133a.614.614,0,0,1-.05,1.226Z" transform="translate(-257.498 -122.528)" fill="#3b3938"/><path d="M343.975,245.053c-.02,0-.041,0-.061,0-.073-.007-7.28-.718-8.76-.827-1.511-.111-3.79-.879-4.3-1.617a.614.614,0,0,1,1.008-.7A7.6,7.6,0,0,0,335.244,243c1.494.11,8.493.8,8.79.829a.614.614,0,0,1-.059,1.225Z" transform="translate(-257.497 -123.734)" fill="#3b3938"/><path d="M368.8,250.919l-.057,0a78.976,78.976,0,0,1-9.531-2.424.614.614,0,0,1,.41-1.158,77.752,77.752,0,0,0,9.232,2.359.614.614,0,0,1-.055,1.225Z" transform="translate(-271.198 -126.495)" fill="#3b3938"/><path d="M242.66,154.036a.614.614,0,0,1-.614-.614V91.387a.614.614,0,1,1,1.228,0v62.036A.614.614,0,0,1,242.66,154.036Z" transform="translate(-214.177 -50.051)" fill="#3b3938"/><path d="M250.645,151.161a.614.614,0,0,1-.614-.614V97.715a.614.614,0,0,1,1.228,0v52.832A.614.614,0,0,1,250.645,151.161Z" transform="translate(-218.076 -53.142)" fill="#3b3938"/><path d="M430.727,87.039a.614.614,0,0,1-.614-.614V33.594a.614.614,0,1,1,1.228,0V86.425A.614.614,0,0,1,430.727,87.039Z" transform="translate(-306.024 -21.827)" fill="#3b3938"/><path d="M234.675,149.224a.614.614,0,0,1-.614-.614V86.575a.614.614,0,1,1,1.228,0V148.61A.614.614,0,0,1,234.675,149.224Z" transform="translate(-210.277 -47.701)" fill="#3b3938"/><path d="M438.063,84.281a.614.614,0,0,1-.614-.614V21.632a.614.614,0,0,1,1.228,0V83.667A.614.614,0,0,1,438.063,84.281Z" transform="translate(-309.607 -15.985)" fill="#3b3938"/><path d="M341.677,57.045a1.176,1.176,0,1,1,1.177-1.177A1.178,1.178,0,0,1,341.677,57.045Zm0-1.228a.051.051,0,0,0-.051.051c0,.057.1.057.1,0A.051.051,0,0,0,341.677,55.817Z" transform="translate(-262.26 -32.43)" fill="#3b3938"/><path d="M624.849,289.31a.567.567,0,0,1-.065,0,.613.613,0,0,1-.545-.675l5.572-52.538a.614.614,0,0,1,1.221.129l-5.572,52.538A.614.614,0,0,1,624.849,289.31Z" transform="translate(-400.828 -120.754)" fill="#3b3938"/><g transform="translate(59.433 27.932)"><g transform="translate(0 12.872)"><path d="M328.772,118.252c-1.085,0-4.749-.134-6.464-1.876-1.943-1.973-1.941-6.96-1.939-11.361v-.365a.512.512,0,1,1,1.023,0v.365c0,4,0,8.968,1.645,10.642,1.667,1.693,5.958,1.567,6,1.567a.512.512,0,0,1,.035,1.023C329.048,118.249,328.941,118.252,328.772,118.252Z" transform="translate(-311.86 -97.383)" fill="#3b3938"/><path d="M308.366,147.206a.512.512,0,0,1-.48-.689c1.143-3.091,5.678-7.645,9.4-10.261a.512.512,0,1,1,.588.838c-4.034,2.834-8.085,7.221-9.031,9.779A.512.512,0,0,1,308.366,147.206Z" transform="translate(-305.749 -113.023)" fill="#3b3938"/><path d="M304.251,173.066h-.01a.512.512,0,0,1-.5-.522c.028-1.422.2-8.606.888-10.393a.512.512,0,1,1,.955.368c-.519,1.349-.76,6.949-.82,10.045A.512.512,0,0,1,304.251,173.066Z" transform="translate(-303.739 -125.554)" fill="#3b3938"/><path d="M330.556,156.754a.512.512,0,0,1-.5-.433l-2.146-13.793a.512.512,0,0,1,1.011-.158l2.146,13.793a.512.512,0,0,1-.506.59Z" transform="translate(-315.538 -115.843)" fill="#3b3938"/><path d="M324.255,159.1a.512.512,0,0,1-.456-.28l-2.969-5.83a.511.511,0,0,1,.014-.491l1.931-3.3-2.063-1.006a.511.511,0,0,1-.247-.66l1.572-3.685a.512.512,0,1,1,.941.4l-1.381,3.238,2.122,1.035a.512.512,0,0,1,.217.718l-2.069,3.535,2.842,5.581a.512.512,0,0,1-.455.744Z" transform="translate(-311.888 -116.625)" fill="#3b3938"/><path d="M330.03,108.71a.869.869,0,0,1-.5-.159,1.222,1.222,0,0,1-.464-1.033,1.681,1.681,0,0,1,.937-1.571.889.889,0,0,1,.824.1,1.224,1.224,0,0,1,.464,1.033,1.682,1.682,0,0,1-.937,1.571A.933.933,0,0,1,330.03,108.71Zm.23-1.718a.9.9,0,0,0-.172.526.638.638,0,0,0,.006.089.9.9,0,0,0,.172-.526A.736.736,0,0,0,330.26,106.993Z" transform="translate(-316.107 -98.238)" fill="#3b3938"/><path d="M341.18,110.995a.512.512,0,0,1-.292-.932c.044-.031,4.464-3.118,6.232-6.2,1.728-3.012,1.726-8.025,1.724-12.052v-.364a.512.512,0,1,1,1.023,0v.364c0,4.149,0,9.313-1.86,12.562-1.884,3.284-6.347,6.4-6.537,6.532A.511.511,0,0,1,341.18,110.995Z" transform="translate(-321.774 -90.934)" fill="#3b3938"/><path d="M360.878,131.29a.512.512,0,0,1-.457-.281c-.9-1.77-4.823-3.128-8.747-3.03a.505.505,0,0,1-.524-.5.512.512,0,0,1,.5-.524c3.764-.094,8.441,1.131,9.686,3.591a.512.512,0,0,1-.226.688A.506.506,0,0,1,360.878,131.29Z" transform="translate(-326.893 -108.524)" fill="#3b3938"/><path d="M372.975,148.349a.511.511,0,0,1-.511-.5c-.078-3.942-.359-8.554-.794-9.366a.512.512,0,0,1,.9-.482c.694,1.3.875,7.851.914,9.829a.512.512,0,0,1-.5.521Z" transform="translate(-336.885 -113.787)" fill="#3b3938"/><path d="M345.437,150.592a.488.488,0,0,1-.072-.005.511.511,0,0,1-.436-.577l2.146-15.355a.512.512,0,0,1,1.014.141l-2.146,15.355A.512.512,0,0,1,345.437,150.592Z" transform="translate(-323.853 -112.071)" fill="#3b3938"/><path d="M350.618,149.447a.506.506,0,0,1-.178-.032.512.512,0,0,1-.3-.658l2.853-7.681-1.973-1.935a.512.512,0,0,1-.037-.69l2.327-2.829-1.38-2.23a.512.512,0,0,1,.87-.538l1.572,2.541a.511.511,0,0,1-.04.594l-2.262,2.75,1.876,1.839a.512.512,0,0,1,.121.544l-2.969,7.992A.512.512,0,0,1,350.618,149.447Z" transform="translate(-326.383 -111.288)" fill="#3b3938"/><path d="M346.572,102.689a.87.87,0,0,1-.5-.159,1.223,1.223,0,0,1-.464-1.032,1.682,1.682,0,0,1,.937-1.571.886.886,0,0,1,.823.1,1.224,1.224,0,0,1,.464,1.033,1.682,1.682,0,0,1-.937,1.571A.933.933,0,0,1,346.572,102.689Zm.1-.984h0Zm.13-.733a.9.9,0,0,0-.172.526.635.635,0,0,0,.006.089.9.9,0,0,0,.172-.526A.634.634,0,0,0,346.8,100.972Z" transform="translate(-324.186 -95.298)" fill="#3b3938"/><path d="M332.533,138.444a.512.512,0,0,1-.381-.853l3.4-3.794a.512.512,0,0,1,.582-.128l3.2,1.368a.512.512,0,0,1-.4.941l-2.861-1.224-3.159,3.521A.509.509,0,0,1,332.533,138.444Z" transform="translate(-317.551 -111.784)" fill="#3b3938"/><path d="M338.345,114.517a.512.512,0,0,1-.321-.113l-.587-.473a.512.512,0,0,1,.642-.8l.587.473a.511.511,0,0,1-.321.91Z" transform="translate(-320.103 -101.721)" fill="#3b3938"/><path d="M335.333,120.642a3.527,3.527,0,0,1-1.36-.268.511.511,0,0,1,.048-.962c-.142.031-.282.059-.421.087a.512.512,0,0,1-.2-1,13.068,13.068,0,0,0,4.958-2.007.512.512,0,0,1,.745.234,2.434,2.434,0,0,1-.749,2.646A4.424,4.424,0,0,1,335.333,120.642Zm-1.164-1.252a.511.511,0,0,1,.2.039,3.111,3.111,0,0,0,3.264-.781,2.11,2.11,0,0,0,.547-.853,13.575,13.575,0,0,1-4.075,1.6A.438.438,0,0,1,334.169,119.39Z" transform="translate(-318.023 -103.376)" fill="#3b3938"/><path d="M326.77,101.733a.512.512,0,0,1-.4-.835,4.123,4.123,0,0,1,2.579-1.707.512.512,0,0,1,.12,1.016,3.189,3.189,0,0,0-1.906,1.337A.509.509,0,0,1,326.77,101.733Z" transform="translate(-314.737 -94.965)" fill="#3b3938"/><path d="M346.056,94.438a.512.512,0,0,1-.267-.949,2.709,2.709,0,0,1,2.738-.131.512.512,0,1,1-.458.915,1.668,1.668,0,0,0-1.747.089A.506.506,0,0,1,346.056,94.438Z" transform="translate(-324.156 -91.967)" fill="#3b3938"/><path d="M317.326,117.035a1.128,1.128,0,0,1-1.049-.835c-.386-1.062-.029-3.107,1.124-3.527a.512.512,0,0,1,.35.962c-.229.083-.51.593-.583,1.3a1.488,1.488,0,0,0,.164,1.077s.024,0,.068-.019a.512.512,0,1,1,.35.961A1.241,1.241,0,0,1,317.326,117.035Z" transform="translate(-309.789 -101.536)" fill="#3b3938"/><path d="M359.532,102.008a.512.512,0,0,1-.175-.993c.3-.109.539-.59.589-1.195a1.618,1.618,0,0,0-.236-1.177.511.511,0,0,1-.657-.3.5.5,0,0,1,.3-.65,1.011,1.011,0,0,1,1.018.171,2.7,2.7,0,0,1,.548,2.377,2.111,2.111,0,0,1-1.216,1.735A.514.514,0,0,1,359.532,102.008Z" transform="translate(-330.737 -94.202)" fill="#3b3938"/></g><path d="M321.175,90.5a.9.9,0,0,1-.653-.255.512.512,0,0,1,.674-.768,4.605,4.605,0,0,0,1.723-1.076,8.231,8.231,0,0,0,1.921-2c.28-.913,2.212-2.958,4.087-2.649,1.228.2,4.215-1.979,5.019-3.425a.512.512,0,1,1,.894.5c-.829,1.491-4.165,4.252-6.08,3.937-1.23-.2-2.768,1.374-2.942,1.94a8.312,8.312,0,0,1-2.234,2.476A4.559,4.559,0,0,1,321.175,90.5Z" transform="translate(-311.86 -72.756)" fill="#3b3938"/><path d="M352.423,86.512a1.988,1.988,0,0,1-.925-.226,3.437,3.437,0,0,1-1.464-1.871,2.62,2.62,0,0,1-1.651-.4,1.412,1.412,0,0,1-.645-1,.512.512,0,1,1,1.018-.108.444.444,0,0,0,.207.27,1.673,1.673,0,0,0,1.289.173.513.513,0,0,1,.625.357,2.791,2.791,0,0,0,1.093,1.677,1.068,1.068,0,0,0,.889.03.512.512,0,1,1,.341.964A2.318,2.318,0,0,1,352.423,86.512Z" transform="translate(-325.226 -73.916)" fill="#3b3938"/><path d="M315.711,88.389a.51.51,0,0,1-.4-.192c-1.359-1.7-1.8-7.655.808-10.756a5.259,5.259,0,0,1,1.225-2.876c1.418-1.9,4.08-4.114,6.074-4.565,1.215-2.479,4.618-4.011,7.3-4.2,1.817-.13,3.184.343,3.755,1.3a.512.512,0,0,1-.878.525c-.361-.6-1.409-.9-2.8-.8-2.474.178-5.61,1.582-6.551,3.835a.51.51,0,0,1-.4.31c-1.542.222-4.144,2.152-5.682,4.216a3.849,3.849,0,0,0-1.013,2.364.511.511,0,0,1-.128.419c-2.5,2.744-1.917,8.346-.915,9.6a.511.511,0,0,1-.4.831Z" transform="translate(-308.86 -65.775)" fill="#3b3938"/><path d="M358.552,81.458a.513.513,0,0,1-.5-.641c.009-.035.9-3.508.037-5.225a.51.51,0,0,1-.053-.265c.111-1.557-1.743-4.1-2.7-4.687a.511.511,0,1,1,.536-.871c1.149.706,3.231,3.468,3.191,5.491.934,2.082.019,5.661-.022,5.816A.512.512,0,0,1,358.552,81.458Z" transform="translate(-328.821 -67.688)" fill="#3b3938"/><path d="M325.139,107.457a.512.512,0,0,1-.5-.427l-.584-3.474a.512.512,0,0,1,1.009-.17l.482,2.868,4.059-1.478.539-3.6a.513.513,0,0,1,.331-.405l2.331-.848a.512.512,0,0,1,.679.4l.482,2.868,4.059-1.477.539-3.6a.512.512,0,0,1,1.012.152l-.585,3.9a.512.512,0,0,1-.331.405l-4.922,1.791a.512.512,0,0,1-.68-.4l-.482-2.868-1.467.534-.539,3.6a.513.513,0,0,1-.331.405l-4.922,1.791A.518.518,0,0,1,325.139,107.457Z" transform="translate(-313.655 -81.355)" fill="#3b3938"/><path d="M335.671,156.425h-.031a.512.512,0,0,1-.48-.541L335.814,145l-.916-2.516a.512.512,0,1,1,.962-.35l.952,2.616a.511.511,0,0,1,.03.206l-.661,10.992A.511.511,0,0,1,335.671,156.425Z" transform="translate(-318.941 -102.9)" fill="#3b3938"/><path d="M342.03,153.779a.512.512,0,0,1-.51-.48l-.661-10.511a.524.524,0,0,1,.019-.173l.952-3.309a.512.512,0,0,1,.983.283l-.927,3.224.655,10.422a.511.511,0,0,1-.479.542Z" transform="translate(-321.867 -101.505)" fill="#3b3938"/></g><path d="M507.207,301.418a.614.614,0,0,1-.612-.584c-.235-4.79.8-16.374,1.361-22.6.066-.741.126-1.41.178-1.988-2.578-6.678-5.767-25.1-6.039-28.326a.614.614,0,0,1,1.224-.1c.271,3.209,3.46,21.647,6.01,28.114a.613.613,0,0,1,.04.279c-.053.61-.118,1.33-.19,2.134-.555,6.193-1.589,17.721-1.358,22.427a.614.614,0,0,1-.583.643Z" transform="translate(-341.177 -126.475)" fill="#3b3938"/><path d="M429.811,276.9c-12.263,0-25.578-6.935-31.977-10.267-1.3-.674-2.319-1.207-2.953-1.483a.614.614,0,0,1,.49-1.127c.673.293,1.713.835,3.03,1.521,6.312,3.288,19.447,10.128,31.41,10.128a.614.614,0,0,1,0,1.228Z" transform="translate(-288.637 -134.637)" fill="#3b3938"/><path d="M466.263,261.708a.614.614,0,0,1-.4-1.08c2.89-2.483,14.272-14.963,18.955-23.158a.614.614,0,1,1,1.066.609c-4.517,7.9-15.82,20.557-19.221,23.48A.614.614,0,0,1,466.263,261.708Z" transform="translate(-323.379 -121.544)" fill="#3b3938"/><g transform="translate(145.566 17.636)"><path d="M487.364,119.124c-.782,0-1.35-.878-1.35-2.087s.568-2.087,1.35-2.087,1.351.878,1.351,2.087S488.147,119.124,487.364,119.124Zm0-2.793a2.093,2.093,0,1,0,.123.706A1.867,1.867,0,0,0,487.364,116.33Z" transform="translate(-478.891 -79.495)" fill="#3b3938"/><path d="M491.564,102.664a.609.609,0,0,1-.325-.093,8.134,8.134,0,0,0-4.6-.811.614.614,0,1,1-.111-1.223,9.292,9.292,0,0,1,5.366.993.614.614,0,0,1-.326,1.134Z" transform="translate(-478.867 -72.435)" fill="#3b3938"/><path d="M473.416,105.843a.614.614,0,0,1-.436-1.046,12.286,12.286,0,0,0,2.852-5.642,20.8,20.8,0,0,1,1.255-13.1l.079-.191a21.326,21.326,0,0,1,2.794-4.805.614.614,0,1,1,.919.813,20.571,20.571,0,0,0-2.577,4.457l-.081.2a19.608,19.608,0,0,0-1.16,12.488.607.607,0,0,1,0,.3,13.6,13.6,0,0,1-3.209,6.353A.612.612,0,0,1,473.416,105.843Z" transform="translate(-472.439 -62.84)" fill="#3b3938"/><path d="M476.266,132.194a.612.612,0,0,1-.394-.143l-1.141-.957a.614.614,0,0,1,.789-.941l1.141.957a.614.614,0,0,1-.395,1.084Z" transform="translate(-473.274 -86.85)" fill="#3b3938"/><path d="M483.893,150.966c-1.059,0-1.281-.259-1.417-.42-.886-1.04-4.891-13.957-4.927-14.082a.614.614,0,0,1,1.18-.34c.36,1.248,3.907,12.36,4.651,13.577,1.105.355,8.273-1.278,9.491-2.031a.614.614,0,0,1,.646,1.045A26.65,26.65,0,0,1,488,150.378,20.93,20.93,0,0,1,483.893,150.966Z" transform="translate(-474.745 -89.619)" fill="#3b3938"/><path d="M487.69,148.369a.614.614,0,0,1-.322-1.137c1.583-.971,1.888-2.694,1.875-4.266l-3.538.914a.614.614,0,0,1-.307-1.19l4.277-1.1a.614.614,0,0,1,.766.557c.075,1.224.274,4.477-2.43,6.135A.611.611,0,0,1,487.69,148.369Z" transform="translate(-478.365 -92.494)" fill="#3b3938"/><path d="M489.024,114.737a.614.614,0,0,1-.559-.359,7.16,7.16,0,0,0-2.522-2.625l-1.591.081a.614.614,0,1,1-.062-1.226l1.753-.09a.6.6,0,0,1,.29.057,8.16,8.16,0,0,1,3.25,3.292.614.614,0,0,1-.558.869Z" transform="translate(-477.764 -77.33)" fill="#3b3938"/><path d="M494.906,122.379a.614.614,0,0,1-.58-.817c1.054-3.01,4.009-18.642,3.517-27.367-.49-8.676-7.09-17.751-9.284-19.318a.614.614,0,1,1,.713-1c2.617,1.868,9.291,11.277,9.8,20.248.5,8.868-2.511,24.775-3.584,27.841A.614.614,0,0,1,494.906,122.379Z" transform="translate(-480.008 -59.381)" fill="#3b3938"/><path d="M473.944,88.041a.614.614,0,0,1-.578-.408,36.464,36.464,0,0,1-.9-14.868c.961-6.305,6.44-12.228,9.237-13.772a.614.614,0,1,1,.593,1.075c-2.535,1.4-7.729,7.058-8.616,12.883a35.647,35.647,0,0,0,.847,14.271.615.615,0,0,1-.579.82Z" transform="translate(-472.092 -52.129)" fill="#3b3938"/><path d="M512.354,155.1a.615.615,0,0,1-.58-.817c.7-2,1.22-7.231,1.347-8.908a.614.614,0,1,1,1.225.093c0,.052-.326,4.138-.891,7.118a19.384,19.384,0,0,0,2.833-4.222.63.63,0,0,1,.614-.446.611.611,0,0,1,.579.483c.38,1.816.873,3.822.878,3.842a.614.614,0,1,1-1.192.294c0-.014-.25-1.014-.529-2.243a18.72,18.72,0,0,1-3.913,4.683A.616.616,0,0,1,512.354,155.1Z" transform="translate(-491.455 -94.079)" fill="#3b3938"/><path d="M498.294,51.415a.614.614,0,0,1-.3-1.151c.7-.387,17.236-9.389,27.668-1.15a.614.614,0,0,1-.761.963c-9.8-7.737-26.149,1.17-26.313,1.261A.614.614,0,0,1,498.294,51.415Z" transform="translate(-484.588 -45.651)" fill="#3b3938"/><path d="M567.453,103.052a.6.6,0,0,1-.079-.005.614.614,0,0,1-.53-.688c4.351-33.684-5.784-41.09-10.112-44.252-.475-.347-.886-.647-1.227-.938a.614.614,0,0,1,.8-.934c.307.261.7.548,1.155.881,4.5,3.291,15.049,11,10.6,45.4A.614.614,0,0,1,567.453,103.052Z" transform="translate(-512.723 -50.748)" fill="#3b3938"/><path d="M556.287,137.692a.614.614,0,0,1-.4-1.08,9.456,9.456,0,0,0,2.987-5.849.614.614,0,0,1,1.155-.225,23.5,23.5,0,0,1,.987,2.973c.16.54.328,1.111.492,1.639a68.545,68.545,0,0,0,1.468-8.937.614.614,0,0,1,1.224.1c-.187,2.351-1.176,8.952-2.1,11.019a.613.613,0,0,1-.56.362h0a.613.613,0,0,1-.56-.363,34.7,34.7,0,0,1-1.138-3.469c-.077-.26-.154-.521-.23-.775a10.9,10.9,0,0,1-2.921,4.459A.611.611,0,0,1,556.287,137.692Z" transform="translate(-512.911 -84.719)" fill="#3b3938"/><path d="M527.861,153.289a.614.614,0,0,1-.1-1.22,28.5,28.5,0,0,0,10.856-3.821.614.614,0,1,1,.674,1.027,30.712,30.712,0,0,1-11.329,4.006A.613.613,0,0,1,527.861,153.289Z" transform="translate(-499.029 -95.708)" fill="#3b3938"/><path d="M555.035,153.111a.614.614,0,0,1-.59-.445c-.025-.087-.064-.217-.111-.373a12.3,12.3,0,0,1-.606-2.478.611.611,0,0,1,.611-.611h0a.617.617,0,0,1,.614.611,17.757,17.757,0,0,0,.554,2.124c.05.163.09.3.116.39a.615.615,0,0,1-.591.783Z" transform="translate(-511.961 -96.223)" fill="#3b3938"/><path d="M527.239,133.733a.617.617,0,0,1-.605-.723,48.134,48.134,0,0,0,.566-11.647.614.614,0,0,1,1.225-.081,49.372,49.372,0,0,1-.582,11.945A.615.615,0,0,1,527.239,133.733Z" transform="translate(-498.724 -82.308)" fill="#3b3938"/><path d="M520.891,90.154a.615.615,0,0,1-.6-.489c-1.409-6.784-3.647-12.4-5.242-14.962a.614.614,0,0,1,1.043-.649c1.651,2.652,3.962,8.43,5.4,15.362a.614.614,0,0,1-.6.739Z" transform="translate(-493.026 -59.381)" fill="#3b3938"/><path d="M563,107.267h-.01a.614.614,0,0,1-.6-.624,45.013,45.013,0,0,0-1.423-12.182.614.614,0,1,1,1.186-.318,46.248,46.248,0,0,1,1.465,12.52A.614.614,0,0,1,563,107.267Z" transform="translate(-515.482 -69.111)" fill="#3b3938"/><path d="M551.477,76.673a.614.614,0,0,1-.563-.37,20.764,20.764,0,0,0-6.953-9.042.614.614,0,0,1,.7-1.008,21.961,21.961,0,0,1,7.378,9.562.614.614,0,0,1-.563.859Z" transform="translate(-507.062 -55.659)" fill="#3b3938"/></g></g></g></g></svg>