<svg xmlns="http://www.w3.org/2000/svg" width="139.36" height="174.149" viewBox="0 0 139.36 174.149">
  <g id="グループ_1965" data-name="グループ 1965" transform="translate(-539.32 -10526.001)">
    <g id="グループ_1849" data-name="グループ 1849" transform="translate(-113.26 9703.729)">
      <path id="パス_2995" data-name="パス 2995" d="M744.874,945.472a15.54,15.54,0,1,0-23.388,13.246l-5.193,27.721h26.1l-5.189-27.721A15.216,15.216,0,0,0,744.874,945.472ZM734.7,954.436a4.964,4.964,0,0,0-2.369,5.2l4.089,21.845H722.273l4.091-21.845a4.963,4.963,0,0,0-2.331-5.174,10.76,10.76,0,0,1-5.274-8.986,10.575,10.575,0,1,1,21.15,0A10.2,10.2,0,0,1,734.7,954.436Z" transform="translate(-7.075 -12.441)" fill="#343434"/>
      <path id="パス_2996" data-name="パス 2996" d="M689.159,888.444h6.764a7.451,7.451,0,0,0,7.429-7.429V866.165a22.275,22.275,0,0,1,44.55,0v14.849a7.451,7.451,0,0,0,7.429,7.429H762.1a7.451,7.451,0,0,0,7.429-7.429V866.165a43.9,43.9,0,0,0-87.8,0v14.849A7.451,7.451,0,0,0,689.159,888.444Zm-2.789-22.279a39.262,39.262,0,0,1,78.524,0v14.849a2.827,2.827,0,0,1-2.79,2.79h-6.773a2.828,2.828,0,0,1-2.79-2.79V866.165a26.914,26.914,0,0,0-53.827,0v14.849a2.828,2.828,0,0,1-2.79,2.79h-6.764a2.827,2.827,0,0,1-2.789-2.79Z" transform="translate(-3.369 0)" fill="#343434"/>
      <path id="パス_2997" data-name="パス 2997" d="M791.9,992.723l-5.552-74.929a14.531,14.531,0,0,0-14.227-13.212H672.4a14.531,14.531,0,0,0-14.227,13.212l-5.552,74.929a12.15,12.15,0,0,0,12.269,13.212h114.75A12.15,12.15,0,0,0,791.9,992.723Zm-6.837,5.953a7.306,7.306,0,0,1-5.431,2.3H664.885a7.189,7.189,0,0,1-7.319-7.881l5.552-74.93a9.579,9.579,0,0,1,9.277-8.614h99.728a9.579,9.579,0,0,1,9.277,8.614l5.551,74.93A7.3,7.3,0,0,1,785.066,998.676Z" transform="translate(0 -9.513)" fill="#343434"/>
    </g>
  </g>
</svg>
