<svg xmlns="http://www.w3.org/2000/svg" xmlns:xlink="http://www.w3.org/1999/xlink" width="306.928" height="177.832" viewBox="0 0 306.928 177.832"><defs><filter id="a"><feOffset dy="3" input="SourceAlpha"/><feGaussianBlur stdDeviation="3" result="b"/><feFlood flood-opacity="0.161" result="c"/><feComposite operator="out" in="SourceGraphic" in2="b"/><feComposite operator="in" in="c"/><feComposite operator="in" in2="SourceGraphic"/></filter></defs><g transform="translate(-48.459 -6112.724)"><g data-type="innerShadowGroup"><path d="M0,72.568l44.365-5.291c16.184,7.6,38.905,12.366,64.151,12.366,49,0,88.713-17.834,88.713-39.815,0-22-39.713-39.827-88.713-39.827S19.808,17.824,19.808,39.827c0,7.172,4.307,13.894,11.716,19.709Z" transform="translate(146.902 6112.724)" fill="#fff"/><g transform="matrix(1, 0, 0, 1, 48.46, 6112.72)" filter="url(#a)"><path d="M0,72.568l44.365-5.291c16.184,7.6,38.905,12.366,64.151,12.366,49,0,88.713-17.834,88.713-39.815,0-22-39.713-39.827-88.713-39.827S19.808,17.824,19.808,39.827c0,7.172,4.307,13.894,11.716,19.709Z" transform="translate(98.44)" fill="#fff"/></g></g><text transform="translate(185.729 6157.544)" fill="#1a62a3" font-size="14" font-family="KozGoPro-Medium, Kozuka Gothic Pro" font-weight="500"><tspan x="0" y="0">こんなにできるの！?</tspan></text><g transform="translate(48.459 6143.033)"><path d="M136.154,16.861c-1.767-2.176-5.647-3.665-10.861-3.459a11.718,11.718,0,0,1,.387,4.3s-12.154-1.465-15.278,2.457c.754.991,1.918,1.207,2.736,2.155-1.493.667-8.949,3.207-9.679,4.954a8.8,8.8,0,0,1,2.388,1.33s-8.333,5.611-9.217,9.016a6.171,6.171,0,0,1,3.943,0c-1.723,1.315-6.685,11.044-6.629,14.066a6.52,6.52,0,0,1,3.376-.42c-1.229,1.676-2.721,7.9-2.276,10.318.465-.13,2.63-.519,2.63-.519S97.9,70,99.562,72.784a13.038,13.038,0,0,0,.173,8.251,13.8,13.8,0,0,0,3.775,5.6,13.9,13.9,0,0,0,2.388,1.277s2.438,9.643,3.075,11.135a33.814,33.814,0,0,0,2.435,4.811c-.014,1.66,0,8.836,0,8.836a14.428,14.428,0,0,1-3.438,2.892c-1.935,1.1-15.465,7.206-17.714,8.193s-13.943,6.345-16.03,7.921-4.764,5.923-5.92,8.651-1.848,11.32-1.905,12.9-.095,5.507-.095,5.507H191.694s-.107-12.994-.932-15.523-2.974-9.116-5.776-10.969-13.016-6.961-14.373-7.521-17.5-8.059-18.318-8.275-5.035-2.315-5.319-3.594-.242-9.347-.242-9.347,3.226-6.022,3.8-8.237,1.528-5.922,1.9-7.635a11.877,11.877,0,0,0,5.075-4.176c.922-1.448,1.718-5.715,1.837-7.8a6.573,6.573,0,0,0-.4-3.1s1.422-4.3,1.681-5.721.278-6.256.278-6.256l1.914.616s-.408-5.478-.652-6.963-.975-6.08-1.12-6.307a10.538,10.538,0,0,0,2.845.706s-2.473-10-2.909-10.776c-.307-.759,1.826-.517,1.826-.517s-4.211-7.851-5.647-9.345a27.262,27.262,0,0,0-3.447-3.2,32.343,32.343,0,0,1,3.2-1.034c-.805-1.143-6.842-4.9-11.8-3.636-.21-.954-2.408-5.527-3.782-6.53a5.408,5.408,0,0,0-2.388-1.1s-.061-.065,0,.549S136.154,16.861,136.154,16.861Z" transform="translate(-65.583 -11.951)" fill="#fff"/><g transform="translate(3.335 3.006)"><ellipse cx="1.859" cy="1.859" rx="1.859" ry="1.859" transform="translate(45.272 58.312)" fill="#3b3938"/><ellipse cx="1.859" cy="1.859" rx="1.859" ry="1.859" transform="translate(71.446 58.312)" fill="#3b3938"/><path d="M88.9,148.673c4.728-2.045,18.9-8.011,18.9-8.011.5,5.013,3.125,23.531,3.677,26.341s3.107,12.43,3.107,12.43H69.421c0-4.684.9-18.879,6.12-23.276S82.773,151.324,88.9,148.673Z" transform="translate(-69.421 -35.636)" fill="#b4a28f"/><path d="M184.857,148.673c-4.727-2.045-18.9-8.011-18.9-8.011-.5,5.013-3.124,23.531-3.677,26.341s-3.107,12.43-3.107,12.43h45.169c0-4.684-.906-18.879-6.12-23.276S190.987,151.324,184.857,148.673Z" transform="translate(-83.903 -35.636)" fill="#b4a28f"/><path d="M137.345,149.08l6.421-.425,1.509,4.821-.424,8.131a11.725,11.725,0,0,1,.862,2.805c.21,1.413,1.65,15.456,1.65,16.311H136.052l1.832-18.734s-1.079-2.914-1.38-3.375-.258-7.249-.258-7.249Z" transform="translate(-80.173 -36.926)" fill="#ddd"/><path d="M164.509,47.092a11.286,11.286,0,0,1,2.93.3s-2.392-8.879-3.641-10.559a5.683,5.683,0,0,0,1.941-.044s-4.721-7.887-8.621-10.3a9,9,0,0,0-.9-.48,24.6,24.6,0,0,1,2.424-2.57c-2.083-1.6-6.961-1.695-10.25-1.318.063-2.556-.555-5.35-3.246-6.695-.247,1.56-1.619,3.343-2.758,4.593a16.639,16.639,0,0,0-8.151-4.06,23.681,23.681,0,0,1,1.672,5.739c-3.292-1.557-11.733-2.653-15.657-1.354a17.64,17.64,0,0,1,4.43,3.428,35.079,35.079,0,0,0-9.049,3.9,3.9,3.9,0,0,1,2.133,1.034c-2.651.582-7.263,3.4-8.685,5.56A26.752,26.752,0,0,1,111.69,35.3a93.448,93.448,0,0,0-6.207,8.1A28.67,28.67,0,0,0,102.466,50a9.48,9.48,0,0,1,2.457,0s-1.66,4.86-2.074,6.589a31.021,31.021,0,0,0-.383,5.132h1.02s.338,7.381.662,8.573,1.265,3.445,1.265,3.445l3.274-1.2s-.487-7.651,1.711-11.278,7.672-8.735,7.672-8.735L117.86,56.9s7.294-4.882,8.347-5.865,4.269-3.618,4.269-3.618l-1.2,8.6s4.933-3.517,6.011-4.593,6.6-7.755,8.377-9.5c.416,2.047,2.365,5.153,3.567,6.836s5.1,6.222,5.1,6.222l.9-5.428s3.793,6.637,5.258,8.232a41.66,41.66,0,0,1,3.429,4.741l-.137,4.332-.448,5.862,3.029.752a17.605,17.605,0,0,0,2.095-6.146,71.85,71.85,0,0,0-.448-10.532A61.791,61.791,0,0,0,164.509,47.092Z" transform="translate(-74.753 -15.428)" fill="#343434"/></g><g transform="translate(0 0)"><path d="M125.124,89.258A2.578,2.578,0,1,1,127.7,86.68,2.581,2.581,0,0,1,125.124,89.258Zm0-3.718a1.14,1.14,0,1,0,1.14,1.14A1.141,1.141,0,0,0,125.124,85.54Z" transform="translate(-74.658 -23.503)" fill="#3b3938"/><path d="M120.6,84.716a.729.729,0,0,1-.3-.067.72.72,0,0,1-.347-.956,5.345,5.345,0,0,1,4.926-3.016,4.638,4.638,0,0,1,4.317,2.793.719.719,0,1,1-1.317.579,3.194,3.194,0,0,0-3.017-1.935h-.044a3.95,3.95,0,0,0-3.563,2.185A.72.72,0,0,1,120.6,84.716Z" transform="translate(-74.228 -22.95)" fill="#3b3938"/><path d="M156.334,89.258a2.578,2.578,0,1,1,2.578-2.578A2.581,2.581,0,0,1,156.334,89.258Zm0-3.718a1.14,1.14,0,1,0,1.14,1.14A1.141,1.141,0,0,0,156.334,85.54Z" transform="translate(-79.694 -23.503)" fill="#3b3938"/><path d="M160.049,84.716a.72.72,0,0,1-.652-.415,3.953,3.953,0,0,0-3.563-2.185h-.044a3.194,3.194,0,0,0-3.017,1.935.719.719,0,1,1-1.317-.58,4.638,4.638,0,0,1,4.317-2.793h.062a5.339,5.339,0,0,1,4.864,3.016.72.72,0,0,1-.347.956A.728.728,0,0,1,160.049,84.716Z" transform="translate(-79.313 -22.951)" fill="#3b3938"/><path d="M140.4,105.308a4.415,4.415,0,0,1-3.523-1.7.719.719,0,1,1,1.214-.771,3.056,3.056,0,0,0,2.44,1.03.719.719,0,1,1,.189,1.426A2.586,2.586,0,0,1,140.4,105.308Z" transform="translate(-76.953 -26.472)" fill="#3b3938"/><path d="M139.347,115.555c-3.769,0-6.988-.987-8.428-2.348a.719.719,0,1,1,.988-1.045c2.078,1.963,9.985,3.334,16.669-.316a.719.719,0,1,1,.689,1.262A20.87,20.87,0,0,1,139.347,115.555Z" transform="translate(-75.973 -27.966)" fill="#3b3938"/><path d="M142.369,121.05a8.524,8.524,0,0,1-4.177-1.091.719.719,0,0,1,.774-1.213,7.12,7.12,0,0,0,3.842.847.719.719,0,1,1,.128,1.432C142.753,121.042,142.564,121.05,142.369,121.05Z" transform="translate(-77.129 -29.075)" fill="#3b3938"/><path d="M161.938,69.936a.716.716,0,0,1-.509-.211c-3.211-3.218-8.42-2.751-11.691-.677a.719.719,0,0,1-.77-1.214c3.837-2.434,9.7-2.914,13.479.875a.72.72,0,0,1-.509,1.228Z" transform="translate(-78.868 -20.572)" fill="#3b3938"/><path d="M117.317,70.184a.72.72,0,0,1-.467-1.266,13.351,13.351,0,0,1,9.221-2.573,5.965,5.965,0,0,1,4.257,1.968.719.719,0,1,1-1.136.881,4.684,4.684,0,0,0-3.267-1.418,11.8,11.8,0,0,0-8.14,2.237A.714.714,0,0,1,117.317,70.184Z" transform="translate(-73.698 -20.628)" fill="#3b3938"/><g transform="translate(32.623 59.121)"><path d="M171.589,98.622a.719.719,0,0,1-.429-1.3c1.393-1.037,3.338-2.986,4.141-7.918.491-3.007-.272-4.9-1.245-5.448a2.082,2.082,0,0,0-2.289.545.719.719,0,0,1-.939-1.089,3.358,3.358,0,0,1,3.931-.711c1.748.979,2.5,3.635,1.962,6.934-.888,5.445-3.109,7.653-4.7,8.84A.719.719,0,0,1,171.589,98.622Z" transform="translate(-115.032 -82.34)" fill="#3b3938"/><path d="M143.891,127.076a.719.719,0,0,1-.1-1.431c4.038-.584,9.862-4.173,14.84-9.145,3.283-3.28,5.4-14.951,5.856-19.772a.719.719,0,0,1,1.432.137c-.5,5.189-2.679,17.064-6.272,20.653-5.262,5.257-11.259,8.916-15.651,9.55A.724.724,0,0,1,143.891,127.076Z" transform="translate(-110.61 -84.556)" fill="#3b3938"/><path d="M109.647,98.622a.721.721,0,0,1-.429-.143c-1.593-1.187-3.814-3.395-4.7-8.84-.538-3.3.214-5.955,1.962-6.934a3.358,3.358,0,0,1,3.93.711.719.719,0,1,1-.939,1.089,2.08,2.08,0,0,0-2.289-.545c-.973.545-1.735,2.44-1.245,5.448.8,4.93,2.749,6.88,4.142,7.918a.72.72,0,0,1-.43,1.3Z" transform="translate(-104.344 -82.34)" fill="#3b3938"/><path d="M134.182,127.076a.73.73,0,0,1-.1-.008c-4.391-.634-10.388-4.294-15.651-9.55-3.593-3.589-5.777-15.464-6.271-20.653a.719.719,0,0,1,1.432-.137c.46,4.82,2.572,16.492,5.856,19.772,4.977,4.972,10.8,8.562,14.841,9.145a.719.719,0,0,1-.1,1.431Z" transform="translate(-105.604 -84.556)" fill="#3b3938"/></g><path d="M111.784,67.686a.7.7,0,0,1-.288-.061.719.719,0,0,1-.371-.947,31.863,31.863,0,0,1,8.129-10.263.72.72,0,0,1,1.151.756,12.311,12.311,0,0,0-.424,3.446c3.9-2.183,8.982-6.291,11.551-10.087a.719.719,0,0,1,1.3.54c-.354,1.819-1.165,6.281-1.395,8.662,3.9-2.365,10.579-9.89,13.016-13.511a.719.719,0,0,1,1.193.8C143.312,50.5,135.26,59.906,130.924,61.6a.719.719,0,0,1-.98-.639,52.51,52.51,0,0,1,.948-7.3,41.784,41.784,0,0,1-11.325,8.795.719.719,0,0,1-1.037-.67c.008-.243.009-.508.011-.793,0-.62.006-1.319.078-2.077a29.947,29.947,0,0,0-6.175,8.333A.717.717,0,0,1,111.784,67.686Z" transform="translate(-72.806 -17.339)" fill="#3b3938"/><path d="M169.509,66.592a.716.716,0,0,1-.421-.137c-2.354-1.708-5.527-6.466-7.524-10.074-.032.819-.023,1.754-.017,2.405.008.812.015,1.578-.018,2.15a.719.719,0,0,1-1.167.52c-1.32-1.054-7.1-7.73-7.268-10.277a.719.719,0,1,1,1.436-.1c.1,1.439,3.523,5.884,5.583,8.12,0-.133,0-.268,0-.4-.025-2.646,0-4.3.582-5.018a.719.719,0,0,1,1.2.136c1.781,3.615,5.566,9.579,8.039,11.373a.719.719,0,0,1-.424,1.3Z" transform="translate(-79.587 -18.067)" fill="#3b3938"/><path d="M172.167,78.906a.726.726,0,0,1-.232-.039.718.718,0,0,1-.449-.912,10.672,10.672,0,0,1,1.11-2.274c-.323.053-.656.106-.976.141a.719.719,0,0,1-.681-1.109c.029-.044.067-.106.114-.182a15.11,15.11,0,0,1,1.757-2.367,5.385,5.385,0,0,0-1.589.48.719.719,0,0,1-.668-1.274c1.086-.569,3.381-1.028,4.365-.419a.718.718,0,0,1,.052,1.188,9.589,9.589,0,0,0-1.938,2.015,2.568,2.568,0,0,1,1.77.126.719.719,0,0,1-.086,1.253c-.766.36-1.552,1.962-1.868,2.886A.72.72,0,0,1,172.167,78.906Z" transform="translate(-82.343 -21.335)" fill="#3b3938"/><path d="M109.372,79.406a.72.72,0,0,1-.7-.566,4.962,4.962,0,0,0-1.252-2.563.719.719,0,0,1,.058-1.255,1.943,1.943,0,0,1,1.341-.005,7.818,7.818,0,0,0-1.3-1.655.72.72,0,0,1,.189-1.175c.926-.434,2.878.19,3.762.792a.719.719,0,1,1-.809,1.188,4.119,4.119,0,0,0-.975-.455,13.383,13.383,0,0,1,1.086,1.941l.077.162a.719.719,0,0,1-.8,1.022c-.2-.044-.395-.1-.593-.153a9.453,9.453,0,0,1,.625,1.849.719.719,0,0,1-.551.855A.734.734,0,0,1,109.372,79.406Z" transform="translate(-72.162 -21.557)" fill="#3b3938"/><path d="M147.441,17.614a.719.719,0,0,1-.613-.342c-1.451-2.355-7.341-3.463-9.734-3.031a.72.72,0,0,1-.254-1.416c2.754-.493,9.384.725,11.213,3.693a.719.719,0,0,1-.611,1.1Z" transform="translate(-76.869 -11.984)" fill="#3b3938"/><path d="M118.748,21.66a.719.719,0,0,1-.438-1.291c4.494-3.439,14.858-3.883,18.493-1.588A.719.719,0,1,1,136.035,20c-3.218-2.031-12.816-1.572-16.85,1.515A.718.718,0,0,1,118.748,21.66Z" transform="translate(-73.929 -12.733)" fill="#3b3938"/><path d="M102.327,40.081a.711.711,0,0,1-.356-.095.72.72,0,0,1-.268-.981c1.546-2.71,5.425-7.058,8.411-8.781a9.2,9.2,0,0,0-1.313-.143.719.719,0,0,1-.514-1.182c2.219-2.633,8-4.826,11.392-5.542a.72.72,0,0,1,.3,1.408,27.138,27.138,0,0,0-9.508,4.062,3.788,3.788,0,0,1,1.814.9.72.72,0,0,1-.3,1.243c-2.326.567-7.212,5.569-9.028,8.751A.718.718,0,0,1,102.327,40.081Z" transform="translate(-71.28 -13.699)" fill="#3b3938"/><path d="M100.2,66.632a.719.719,0,0,1-.719-.7c-.107-5.261.777-7.692,1.861-9.757a10.5,10.5,0,0,0-2.128.57.72.72,0,0,1-.978-.663c-.051-4.391,5.656-13.91,8.755-16.531a.719.719,0,1,1,.928,1.1c-2.6,2.2-7.435,10.149-8.154,14.4a8.748,8.748,0,0,1,2.9-.376.719.719,0,0,1,.56,1.068c-1.3,2.31-2.421,4.306-2.3,10.16a.718.718,0,0,1-.7.734Z" transform="translate(-70.735 -16.286)" fill="#3b3938"/><path d="M157.9,18.971a.719.719,0,0,1-.693-.528c-.96-3.473-2.809-4.553-4.665-5.2a.719.719,0,0,1,.475-1.358c1.994.7,4.43,2.031,5.576,6.177a.719.719,0,0,1-.694.911Z" transform="translate(-79.421 -11.843)" fill="#3b3938"/><path d="M172.307,25.521a.717.717,0,0,1-.6-.323c-1.6-2.426-6.864-3.937-9.2-3.564a.72.72,0,0,1-.226-1.421c2.808-.446,8.689,1.252,10.627,4.194a.719.719,0,0,1-.6,1.115Z" transform="translate(-80.972 -13.182)" fill="#3b3938"/><path d="M180.72,51.628a.719.719,0,0,1-.717-.672c-.247-3.752-3.421-10.976-3.453-11.049a.72.72,0,0,1,.606-1.008c.24-.017.785-.052,1.325-.058-1.381-3.584-5.591-9.435-8.424-10.961a.719.719,0,0,1,.682-1.266c3.433,1.849,8.483,9.108,9.449,12.822a.719.719,0,0,1-.877.877,5.8,5.8,0,0,0-1.037-.029c.9,2.15,2.954,7.388,3.164,10.577a.72.72,0,0,1-.67.766Z" transform="translate(-82.264 -14.213)" fill="#3b3938"/><path d="M177.775,77.1a.709.709,0,0,1-.269-.053.719.719,0,0,1-.4-.936c.656-1.628.833-6.657.778-8.864a.718.718,0,0,1,1-.678l1.08.46a68.884,68.884,0,0,0-1.839-12.005A.719.719,0,0,1,179.5,54.6c.611,1.993,2.078,10.125,1.891,13.545a.719.719,0,0,1-.993.625c-.256-.1-.676-.283-1.073-.451-.016,2.236-.177,6.567-.888,8.33A.719.719,0,0,1,177.775,77.1Z" transform="translate(-83.454 -18.661)" fill="#3b3938"/><path d="M104.354,79.528a.719.719,0,0,1-.669-.455,21.957,21.957,0,0,1-.621-10.345.719.719,0,0,1,1.393.357,20.833,20.833,0,0,0,.565,9.459.719.719,0,0,1-.668.984Z" transform="translate(-71.455 -20.935)" fill="#3b3938"/><g transform="translate(0 94)"><g transform="translate(64.169)"><path d="M162.335,131.92a.719.719,0,0,1-.716-.668c-.172-2.4-.273-6.543-.273-6.585a.719.719,0,1,1,1.438-.034c0,.041.1,4.148.27,6.518a.719.719,0,0,1-.667.768C162.37,131.92,162.352,131.92,162.335,131.92Z" transform="translate(-145.088 -123.93)" fill="#3b3938"/><path d="M142.68,142.635a.719.719,0,0,1-.179-1.416c3.688-.945,12.128-4.93,14.8-7.691a.72.72,0,0,1,1.035,1c-2.871,2.97-11.547,7.078-15.475,8.084A.691.691,0,0,1,142.68,142.635Z" transform="translate(-141.96 -125.443)" fill="#3b3938"/><path d="M150.153,158.3h-.033a.721.721,0,0,1-.5-.236c-.9-1-5.793-11.2-6.764-13.233a.719.719,0,0,1,1.3-.62c2.311,4.842,4.944,10.162,6.061,12.137,2.347-3.381,9.975-16.9,10.356-18.941a.719.719,0,1,1,1.414.264c-.475,2.546-9.882,19.088-11.343,20.438A.722.722,0,0,1,150.153,158.3Z" transform="translate(-142.093 -126.009)" fill="#3b3938"/><path d="M207.455,178.966h-.007a.72.72,0,0,1-.713-.725c.144-17.314-3.277-23.059-5.329-24.943-3.334-3.059-13.068-7.273-21.655-10.99-7.511-3.251-14-6.059-15.584-7.794a.719.719,0,0,1,1.062-.971c1.38,1.509,8.042,4.393,15.095,7.445,8.692,3.762,18.543,8.027,22.055,11.249,2.722,2.5,5.937,9.039,5.795,26.014A.719.719,0,0,1,207.455,178.966Z" transform="translate(-145.513 -125.443)" fill="#3b3938"/><path d="M159.032,179.725a.729.729,0,0,1-.273-.054.72.72,0,0,1-.393-.938c2.841-6.936,6.231-30.767,6.844-40.049a.719.719,0,1,1,1.436.095c-.619,9.36-4.057,33.441-6.948,40.5A.719.719,0,0,1,159.032,179.725Z" transform="translate(-144.599 -126.202)" fill="#3b3938"/><path d="M169.053,180.175a.719.719,0,0,1-.573-1.153c2.265-2.992,6.472-13.068,7.4-15.314l-5.085-4.974a.72.72,0,0,1,.06-1.08l5.023-3.937-4.243-11.959a.719.719,0,0,1,1.355-.481l4.416,12.446a.719.719,0,0,1-.234.807l-4.785,3.75,4.845,4.737a.722.722,0,0,1,.164.785c-.207.512-5.109,12.579-7.765,16.087A.721.721,0,0,1,169.053,180.175Z" transform="translate(-146.216 -126.652)" fill="#3b3938"/></g><path d="M119.786,131.92c-.018,0-.034,0-.052,0a.72.72,0,0,1-.667-.768c.169-2.37.27-6.477.271-6.518a.731.731,0,0,1,.736-.7.719.719,0,0,1,.7.736c0,.042-.1,4.182-.273,6.585A.719.719,0,0,1,119.786,131.92Z" transform="translate(-74.097 -123.93)" fill="#3b3938"/><path d="M136.582,142.635a.691.691,0,0,1-.179-.023c-3.928-1.006-12.6-5.114-15.475-8.084a.72.72,0,0,1,1.035-1c2.669,2.761,11.11,6.746,14.8,7.691a.719.719,0,0,1-.178,1.416Z" transform="translate(-74.365 -125.443)" fill="#3b3938"/><path d="M128.6,158.3a.72.72,0,0,1-.487-.19c-1.462-1.35-10.869-17.893-11.344-20.438a.719.719,0,1,1,1.414-.264c.382,2.044,8.01,15.56,10.356,18.941,1.118-1.975,3.75-7.294,6.061-12.137a.719.719,0,0,1,1.3.62c-.971,2.035-5.861,12.235-6.764,13.233a.718.718,0,0,1-.5.236Z" transform="translate(-73.724 -126.009)" fill="#3b3938"/><path d="M66.167,178.966a.719.719,0,0,1-.719-.714c-.147-17.655,3.738-23.877,6.067-26.014,3.513-3.223,13.364-7.487,22.056-11.249,7.053-3.053,13.714-5.937,15.094-7.445a.719.719,0,1,1,1.062.971c-1.588,1.735-8.074,4.543-15.584,7.794-8.587,3.717-18.321,7.93-21.654,10.99-2.153,1.976-5.744,7.844-5.6,24.943a.72.72,0,0,1-.713.725Z" transform="translate(-65.444 -125.443)" fill="#3b3938"/><path d="M121.815,179.725a.72.72,0,0,1-.666-.447c-2.892-7.06-6.329-31.14-6.947-40.5a.719.719,0,1,1,1.435-.095c.613,9.281,4,33.112,6.844,40.049a.72.72,0,0,1-.666.992Z" transform="translate(-73.312 -126.202)" fill="#3b3938"/><path d="M111.644,180.174a.72.72,0,0,1-.574-.285c-2.656-3.508-7.558-15.575-7.765-16.087a.719.719,0,0,1,.164-.785l4.844-4.737-4.784-3.75a.72.72,0,0,1-.235-.807l4.416-12.446a.719.719,0,0,1,1.356.481l-4.243,11.959,5.023,3.937a.72.72,0,0,1,.06,1.08l-5.085,4.974c.925,2.246,5.131,12.322,7.4,15.314a.719.719,0,0,1-.573,1.153Z" transform="translate(-71.545 -126.652)" fill="#3b3938"/></g><path d="M140.331,164.154a9.106,9.106,0,0,1-3.272-.478c-1.814-.754-1.865-6.449-1.865-6.507a.719.719,0,0,1,1.438,0c0,2.442.611,4.891,1.011,5.2,1.489.616,5.357.344,6.829-.177a.719.719,0,0,1,.481,1.356A16.275,16.275,0,0,1,140.331,164.154Z" transform="translate(-76.699 -35.178)" fill="#3b3938"/><path d="M146.252,161.309a.746.746,0,0,1-.135-.013.719.719,0,0,1-.573-.841,14.924,14.924,0,0,0,.122-3.735.719.719,0,0,1,1.432-.133,16.253,16.253,0,0,1-.142,4.138A.718.718,0,0,1,146.252,161.309Z" transform="translate(-78.367 -35.094)" fill="#3b3938"/><path d="M142.138,149.365a.719.719,0,0,1-.235-.039,5.582,5.582,0,0,0-2.048.011.719.719,0,1,1-.4-1.382,6.674,6.674,0,0,1,2.915.012.719.719,0,0,1-.234,1.4Z" transform="translate(-77.303 -33.782)" fill="#3b3938"/><path d="M133.706,184.13h-.023a.718.718,0,0,1-.7-.741c.078-2.5,1.188-14.551,1.869-17.518a.719.719,0,0,1,1.4.321c-.616,2.68-1.749,14.523-1.834,17.242A.719.719,0,0,1,133.706,184.13Z" transform="translate(-76.343 -36.607)" fill="#3b3938"/><path d="M149.044,184.13a.719.719,0,0,1-.719-.7c-.085-2.719-1.219-14.562-1.833-17.242a.719.719,0,0,1,1.4-.321c.681,2.967,1.791,15.016,1.87,17.518a.72.72,0,0,1-.7.741Z" transform="translate(-78.519 -36.607)" fill="#3b3938"/></g></g><text transform="translate(264.388 6251.869)" fill="#1a62a3" font-size="37" font-family="KozGoPro-Medium, Kozuka Gothic Pro" font-weight="500"><tspan x="-90.554" y="0">10,000</tspan><tspan y="0" font-size="17">ポイント</tspan></text></g></svg>