<?xml version="1.0" encoding="utf-8"?>
<!-- Generator: Adobe Illustrator 25.2.3, SVG Export Plug-In . SVG Version: 6.00 Build 0)  -->
<svg version="1.1" id="レイヤー_1" xmlns="http://www.w3.org/2000/svg" xmlns:xlink="http://www.w3.org/1999/xlink" x="0px"
	 y="0px" viewBox="0 0 43.1 43.1" style="enable-background:new 0 0 43.1 43.1;" xml:space="preserve">
<path id="Icon_awesome-phone-alt" d="M41.9,30.5l-9.4-4c-0.8-0.4-1.8-0.1-2.4,0.6l-4.2,5.1C19.4,29,14.1,23.8,11,17.2l5.1-4.2
	c0.7-0.6,0.9-1.5,0.6-2.4l-4-9.4c-0.4-0.9-1.4-1.4-2.3-1.2l-8.8,2C0.6,2.3,0,3.1,0,4c0,21.6,17.5,39.1,39.1,39.1c0,0,0,0,0,0
	c0.9,0,1.8-0.6,2-1.6l2-8.8C43.3,31.8,42.8,30.9,41.9,30.5L41.9,30.5z"/>
<g>
</g>
<g>
</g>
<g>
</g>
<g>
</g>
<g>
</g>
<g>
</g>
<g>
</g>
<g>
</g>
<g>
</g>
<g>
</g>
<g>
</g>
<g>
</g>
<g>
</g>
<g>
</g>
<g>
</g>
</svg>
