<?xml version="1.0" standalone="no"?>
<!DOCTYPE svg PUBLIC "-//W3C//DTD SVG 20010904//EN"
 "http://www.w3.org/TR/2001/REC-SVG-20010904/DTD/svg10.dtd">
<svg version="1.0" xmlns="http://www.w3.org/2000/svg"
 width="570.000000pt" height="570.000000pt" viewBox="0 0 570.000000 570.000000"
 preserveAspectRatio="xMidYMid meet">
<metadata>
Created by potrace 1.14, written by Peter Selinger 2001-2017
</metadata>
<g transform="translate(0.000000,570.000000) scale(0.100000,-0.100000)"
fill="#000000" stroke="none">
<path d="M1493 5590 c-35 -9 -65 -15 -68 -12 -3 3 -5 0 -5 -6 0 -7 -7 -12 -16
-12 -45 0 -387 -198 -402 -232 -2 -5 -8 -8 -13 -8 -8 0 -80 -51 -99 -70 -3 -3
-27 -23 -55 -45 -65 -52 -82 -66 -109 -90 -13 -11 -47 -40 -76 -65 -74 -64
-143 -129 -321 -302 l-155 -152 113 -341 c63 -187 116 -347 118 -355 6 -26 51
-150 57 -155 5 -6 211 171 216 186 2 5 8 9 14 9 6 0 16 6 22 14 6 7 48 46 94
85 66 58 81 68 78 49 -3 -13 -5 -23 -6 -23 -1 0 -3 -7 -5 -15 -7 -27 -42 -152
-79 -280 -20 -69 -38 -132 -40 -140 -11 -41 -38 -140 -79 -285 -25 -88 -51
-180 -58 -205 -15 -54 -14 -51 -22 -70 -7 -18 -115 -412 -116 -425 -1 -3 -1
-6 -2 -7 -7 -23 -48 -249 -54 -298 -4 -30 -9 -68 -12 -85 -2 -16 -5 -106 -7
-200 -6 -256 19 -393 104 -570 88 -183 204 -304 368 -384 50 -25 88 -37 182
-57 68 -14 217 -5 325 21 101 24 330 128 365 165 3 3 30 23 60 44 109 77 292
249 378 356 21 25 45 54 55 65 11 11 60 74 109 140 99 131 113 148 106 125 -2
-8 2 -39 9 -70 8 -30 16 -70 19 -89 2 -18 9 -42 15 -52 5 -10 8 -19 5 -19 -9
0 53 -169 88 -239 122 -244 293 -390 511 -437 131 -28 259 -19 420 30 171 52
427 251 583 451 4 6 27 35 50 65 23 30 46 60 50 65 16 20 140 211 156 240 9
17 26 46 38 65 77 129 251 468 322 628 15 34 36 83 47 107 11 25 19 46 18 47
-1 2 4 14 11 28 8 14 15 27 15 30 0 3 9 20 18 38 10 17 15 32 11 32 -4 0 -2 6
3 13 6 6 47 107 92 222 138 351 119 315 183 335 80 25 217 93 303 151 96 66
171 138 228 221 l46 68 -23 22 c-12 13 -60 57 -106 98 -46 41 -114 104 -152
141 l-68 65 26 90 c14 49 28 96 30 104 2 8 14 56 27 105 13 50 24 93 25 98 0
4 6 31 11 60 19 91 21 101 31 167 23 150 31 376 16 440 -3 14 -9 38 -12 55
-14 65 -72 145 -139 192 -28 19 -103 49 -150 59 -24 6 -242 5 -270 0 -11 -2
-42 -7 -69 -10 -27 -4 -59 -12 -70 -18 -12 -6 -23 -11 -26 -11 -3 1 -19 -5
-36 -12 -89 -37 -180 -155 -234 -303 -33 -92 -94 -296 -103 -347 -3 -16 -8
-39 -10 -50 -3 -11 -10 -54 -17 -95 -6 -41 -14 -86 -17 -100 -13 -65 -11 -347
3 -415 14 -64 14 -75 -2 -130 -10 -33 -20 -64 -23 -70 -3 -5 -6 -15 -7 -21 -9
-56 -240 -686 -284 -774 -5 -11 -14 -29 -20 -40 -5 -11 -10 -27 -10 -35 0 -8
-5 -15 -12 -15 -6 0 -9 -3 -6 -6 4 -3 -9 -40 -29 -82 -45 -99 -214 -437 -242
-482 -11 -19 -24 -42 -28 -50 -3 -8 -21 -39 -40 -68 -18 -29 -33 -55 -33 -57
0 -9 -126 -190 -152 -218 l-26 -28 -4 48 c-5 56 0 444 6 518 4 51 16 180 21
225 2 23 8 79 21 190 10 85 15 125 19 150 2 14 7 48 10 75 7 60 12 94 25 160
5 28 11 66 14 86 3 20 10 48 15 62 5 14 8 27 5 30 -2 2 0 16 5 30 5 14 12 42
16 64 6 43 6 43 30 158 9 44 19 89 21 100 2 11 7 34 11 50 4 17 7 35 8 40 0 6
4 26 9 45 4 19 8 42 10 50 2 8 6 31 10 50 4 19 8 42 10 50 6 30 18 76 36 140
41 147 53 187 66 227 61 192 92 369 89 503 -2 47 -5 94 -8 105 -14 54 -51 120
-91 163 -90 97 -215 133 -436 127 -186 -5 -303 -47 -393 -140 -54 -57 -92
-136 -123 -260 -4 -16 -35 -188 -39 -215 -7 -51 -15 -116 -20 -150 -8 -70 -16
-109 -46 -221 -16 -63 -31 -121 -33 -129 -2 -8 -9 -27 -15 -42 -6 -16 -8 -28
-5 -28 4 0 2 -6 -3 -12 -6 -7 -21 -44 -33 -83 -30 -92 -106 -292 -138 -365 -9
-19 -17 -37 -18 -40 -1 -5 -26 -64 -49 -115 -7 -16 -23 -52 -35 -80 -124 -280
-330 -678 -451 -870 -54 -85 -205 -314 -226 -340 -13 -16 -27 -34 -31 -40 -24
-33 -77 -101 -82 -105 -3 -3 -18 -21 -33 -40 -69 -85 -204 -210 -170 -157 4 6
8 20 9 30 1 9 2 18 4 20 1 1 3 13 4 27 4 31 12 70 32 157 9 38 18 77 20 87 7
37 37 161 66 276 16 63 31 122 33 130 2 8 4 16 5 18 2 1 3 5 4 10 10 38 31
111 52 177 13 44 26 89 28 100 3 11 16 58 31 105 14 47 27 92 29 100 2 8 30
104 61 214 31 109 58 206 60 215 2 9 16 61 30 116 35 132 102 412 108 452 3
17 7 36 10 40 3 5 8 27 11 49 6 39 11 64 21 114 2 14 7 41 10 60 3 19 8 49 11
65 12 73 16 119 19 265 4 129 1 169 -15 238 -11 45 -27 93 -36 107 -8 13 -15
28 -15 32 2 17 -61 102 -101 138 -111 97 -268 128 -425 85z"/>
<path d="M38 892 l-38 -3 0 -405 0 -404 2820 0 c2813 0 2820 0 2821 20 0 11 1
192 2 401 2 286 -1 383 -10 386 -13 5 -5536 10 -5595 5z"/>
</g>
</svg>
