<svg xmlns="http://www.w3.org/2000/svg" xmlns:xlink="http://www.w3.org/1999/xlink" width="668.542" height="558.116" viewBox="0 0 668.542 558.116">
  <defs>
    <linearGradient id="linear-gradient" x1="0.5" y1="1" x2="0.5" gradientUnits="objectBoundingBox">
      <stop offset="0" stop-color="#fff"/>
      <stop offset="1" stop-color="#6da8eb"/>
    </linearGradient>
  </defs>
  <g id="グループ_77" data-name="グループ 77" transform="translate(0 0)" opacity="0.21">
    <path id="パス_34" data-name="パス 34" d="M440.046,265.123a15.293,15.293,0,1,1,15.273-15.281A15.294,15.294,0,0,1,440.046,265.123Z" transform="translate(-27.201 77.388)" fill="url(#linear-gradient)"/>
    <path id="パス_35" data-name="パス 35" d="M1044.563,536.6a23.8,23.8,0,0,1-23.79,23.782,23,23,0,0,1-6.4-1c-14.775,46.218-43.518,89.222-84.62,125.209a329.219,329.219,0,0,1-29.011,22.583,23.727,23.727,0,0,1-22.664,16.953,25.458,25.458,0,0,1-3.655-.367c-48.274,27.347-102.626,42-156.056,42-5.221.286-10.5.465-15.787.465h-.016c-4.944,0-9.88-.139-14.775-.4-134.6.016-255.329-90.584-291.479-207.177a15.236,15.236,0,1,1-7.245-29.452,236.8,236.8,0,0,1-3.794-42.016c0-73.549,32.308-143.647,90.992-197.4,56.645-51.9,131.874-80.867,206.41-80.867,6.56-.482,13.176-.8,19.874-.792v-.008c9.056,0,18,.465,26.842,1.322,74.487,0,149.521,28.432,205.913,80.337,58.35,53.7,90.486,123.8,90.494,197.4a234.445,234.445,0,0,1-1.493,26.009A23.715,23.715,0,0,1,1044.563,536.6ZM866.985,721.265a24.449,24.449,0,0,1-6.078-4.5,278.352,278.352,0,0,1-65.758,33.613A335.3,335.3,0,0,0,866.985,721.265Zm-9.146-8.566a23.55,23.55,0,0,1-3.557-12.36,23.695,23.695,0,0,1,39.765-17.508,276.127,276.127,0,0,0,42.8-53.806l-100.684.008a340.536,340.536,0,0,1-13.429,34.543,15.276,15.276,0,0,1-8.379,28.057,14.806,14.806,0,0,1-5.637-1.11c-19.507,32.9-43.689,56.841-70.579,68.222A272.169,272.169,0,0,0,857.839,712.7Zm101.867-320.01a272.919,272.919,0,0,0-17.484-38.051l-103.091.008c11.683,38.745,18.389,83,18.626,129.974l118.682-.008a273.279,273.279,0,0,0-5.866-54.124,19.672,19.672,0,1,1-10.867-37.8ZM857.757,489.71c-.237,48.723-7.473,94.467-19.964,134.232l101.981-.008A271.921,271.921,0,0,0,976.439,489.71ZM700.869,761.046c.563.024,1.126.09,1.689.09,39.349,0,75.189-27.8,101.982-73.141a15.193,15.193,0,0,1,13.706-26.385,340.489,340.489,0,0,0,12.727-32.577l-120.6.008a12.7,12.7,0,0,1-9.513,11ZM700.861,615.4a12.68,12.68,0,0,1,9.007,8.542h122.7c12.556-39.593,19.85-85.387,20.094-134.232l-151.805.008Zm-.008-230.233a22.81,22.81,0,0,1,0,45.492v53.96H852.658c-.245-47.1-7-91.375-18.756-129.982l-133.049.008ZM620.736,724.161c-21.22-23.749-39.014-56.432-51.782-95.112H482.988a15.244,15.244,0,0,1-6.894,12.107A274.272,274.272,0,0,0,666.979,758.745a114.922,114.922,0,0,1-24.027-13.927,15.22,15.22,0,0,1-22.216-20.658ZM548.043,513.908q-.636-11.944-.693-24.182l-118.7.008A272.139,272.139,0,0,0,460.38,615.057a15.056,15.056,0,0,1,7.375-1.991,15.259,15.259,0,0,1,14.579,10.884h84.987a416.142,416.142,0,0,1-11.863-47.744c-.759.057-1.542.114-2.325.114a31.412,31.412,0,0,1-5.091-62.413ZM449.913,398.367a15.132,15.132,0,0,1-6.037-1.248,272.371,272.371,0,0,0-15.224,87.508h118.7c.229-46.969,6.927-91.228,18.618-129.973H462.877c-2.586,4.667-5.083,9.39-7.392,14.212a15.274,15.274,0,0,1-5.572,29.5Zm-59.549,88.822a231.51,231.51,0,0,0,3.9,42.073,15.228,15.228,0,0,1,6.56,26.882C429.3,649.551,513.158,726.421,614.8,752.014A280.281,280.281,0,0,1,471.3,643.2a14.467,14.467,0,0,1-3.541.457,15.214,15.214,0,0,1-11.43-25.34,278.349,278.349,0,0,1-16.847-224.106,15.263,15.263,0,0,1,10.435-26.426c.163,0,.294.041.457.049a280.21,280.21,0,0,1,175.473-148.9C495.185,245.256,390.348,359.345,390.364,487.189Zm75.45-137.626,101.761-.008C588.64,283.071,624.448,233.6,666.962,215.6,581.1,226.8,507.651,277.849,465.814,349.563ZM695.745,213.527c-52.459,4.283-97.968,57.934-122.941,136.027l122.941-.008Zm0,216.992a22.829,22.829,0,0,1,0-45.214v-30.66l-124.556.008c-11.74,38.606-18.511,82.882-18.74,129.973l143.321-.008Zm.025,59.2-143.321.008q.049,11.993.661,23.733h.025a31.418,31.418,0,0,1,7.326,61.972,410.153,410.153,0,0,0,12.083,48.519l113.11-.008a12.661,12.661,0,0,1,10.117-8.762Zm0,150.541a12.655,12.655,0,0,1-10.615-11.218h-111c12.442,37.366,29.664,68.882,50.069,91.767a15.233,15.233,0,0,1,21.832,20.119c15.469,11.5,32.185,18.454,49.726,19.891Zm6.771-427.05c-.571,0-1.134.073-1.689.09V349.546H832.287a320.417,320.417,0,0,0-22.958-54.735,15.253,15.253,0,0,1-15.779-25.332C768.291,234.218,736.742,213.209,702.542,213.209Zm95.014,53.528a15.222,15.222,0,0,1,16.023,25.683,326.993,326.993,0,0,1,23.929,57.126h101.77c-41.845-71.721-115.3-122.761-201.165-133.946C760.1,224.9,780.292,242.6,797.556,266.737ZM767.883,215.91a280.153,280.153,0,0,1,197,176.077,19.712,19.712,0,0,1,10.435,36.346,278.024,278.024,0,0,1-31.4,198.635v2.056h-1.2a280.311,280.311,0,0,1-45.255,57.6,23.912,23.912,0,0,1,4.316,12.85c49.685-35.538,89.515-84.547,107.88-141.974a23.639,23.639,0,0,1,9.513-44.529,232.425,232.425,0,0,0,1.526-25.806C1020.691,353.438,906.382,234.837,767.883,215.91Z" transform="translate(-376.021 -208.11)" fill="url(#linear-gradient)"/>
  </g>
</svg>
