<svg xmlns="http://www.w3.org/2000/svg" width="19.603" height="19.603" viewBox="0 0 19.603 19.603">
  <g id="Icon_ionic-ios-arrow-dropup" data-name="Icon ionic-ios-arrow-dropup" transform="translate(22.978 22.978) rotate(180)">
    <path id="パス_19" data-name="パス 19" d="M10.248,18.209a.913.913,0,0,1,0-1.286l4.51-4.5a.908.908,0,0,1,1.253-.028l4.444,4.43a.908.908,0,1,1-1.282,1.286l-3.817-3.76-3.822,3.859A.909.909,0,0,1,10.248,18.209Z" transform="translate(-2.179 -2.898)" fill="#484848"/>
    <path id="パス_20" data-name="パス 20" d="M13.177,22.978a9.8,9.8,0,1,0-9.8-9.8A9.8,9.8,0,0,0,13.177,22.978Zm0-1.508A8.29,8.29,0,0,1,7.314,7.314,8.29,8.29,0,1,1,19.039,19.039,8.222,8.222,0,0,1,13.177,21.47Z" fill="#484848"/>
  </g>
</svg>
