<svg xmlns="http://www.w3.org/2000/svg" xmlns:xlink="http://www.w3.org/1999/xlink" width="365.834" height="222.267" viewBox="0 0 365.834 222.267">
  <defs>
    <linearGradient id="linear-gradient" x1="0.5" x2="0.5" y2="1" gradientUnits="objectBoundingBox">
      <stop offset="0" stop-color="#f8f8f8"/>
      <stop offset="1" stop-color="#0074fe"/>
    </linearGradient>
  </defs>
  <g id="グループ_73" data-name="グループ 73" transform="translate(-370.631 -56.567)" opacity="0.1">
    <path id="パス_23" data-name="パス 23" d="M473.825,114.778V75.971l-33.605-19.4-33.6,19.4v38.807l33.6,19.4Zm-63.039-36.4,29.434-16.99,29.43,16.99v33.992l-29.43,16.99-29.434-16.99Z" transform="translate(113.54 0)" fill="url(#linear-gradient)"/>
    <path id="パス_24" data-name="パス 24" d="M491.77,114.778V75.971l-33.6-19.4-33.605,19.4v38.807l33.605,19.4Zm-63.034-36.4,29.43-16.99,29.429,16.99v33.992l-29.429,16.99-29.43-16.99Z" transform="translate(170.143 0)" fill="url(#linear-gradient)"/>
    <path id="パス_25" data-name="パス 25" d="M476.116,56.567,442.5,75.971v38.807l33.605,19.4,33.605-19.4V75.971Zm29.421,55.8-29.429,16.99-29.43-16.99V78.376l29.438-16.99,29.421,16.99Z" transform="translate(226.752 0)" fill="url(#linear-gradient)"/>
    <path id="パス_26" data-name="パス 26" d="M370.631,75.971v38.807l33.6,19.4,33.614-19.4V75.971l-33.614-19.4Zm63.035,36.4-29.438,16.99L374.8,112.368V78.376l29.425-16.99,29.438,16.99Z" transform="translate(0 0)" fill="url(#linear-gradient)"/>
    <path id="パス_27" data-name="パス 27" d="M455.779,114.777v-38.8l-33.6-19.405-33.6,19.405v38.8l33.6,19.395Z" transform="translate(56.606 0)" fill="url(#linear-gradient)"/>
    <path id="パス_28" data-name="パス 28" d="M464.779,93.375l-33.6-19.4-33.6,19.4v38.807l33.6,19.4,33.6-19.4ZM460.6,129.769l-29.421,16.994-29.433-16.994V95.785L431.182,78.8,460.6,95.785Z" transform="translate(85.026 54.925)" fill="url(#linear-gradient)"/>
    <path id="パス_29" data-name="パス 29" d="M482.728,93.377l-33.6-19.4-33.6,19.4v38.8l33.6,19.4,33.6-19.4Z" transform="translate(141.63 54.925)" fill="url(#linear-gradient)"/>
    <path id="パス_30" data-name="パス 30" d="M433.465,93.375v38.807l33.6,19.4,33.609-19.4V93.375l-33.6-19.4ZM496.5,129.769l-29.438,16.994-29.429-16.994V95.785L467.074,78.8l29.43,16.99Z" transform="translate(198.237 54.925)" fill="url(#linear-gradient)"/>
    <path id="パス_31" data-name="パス 31" d="M388.54,110.78v38.81l33.6,19.393,33.6-19.393V110.78l-33.6-19.395Z" transform="translate(56.502 109.85)" fill="url(#linear-gradient)"/>
    <path id="パス_32" data-name="パス 32" d="M406.482,110.78v38.811l33.605,19.391,33.605-19.391V110.78l-33.605-19.4Zm63.039,36.4-29.434,16.99-29.425-16.99V113.194L440.087,96.2l29.434,16.994Z" transform="translate(113.108 109.849)" fill="url(#linear-gradient)"/>
    <path id="パス_33" data-name="パス 33" d="M424.426,110.78v38.81l33.6,19.393,33.6-19.393V110.78l-33.6-19.395Z" transform="translate(169.719 109.85)" fill="url(#linear-gradient)"/>
  </g>
</svg>
