<svg xmlns="http://www.w3.org/2000/svg" width="32.318" height="23.345" viewBox="0 0 32.318 23.345">
  <g id="グループ_1516" data-name="グループ 1516" transform="translate(-802 -6336.333)">
    <path id="パス_45" data-name="パス 45" d="M3156.352,1150.8l-1.523.879-1.52-.879,1.52-.878Zm-1.91,1.1-1.521.879-1.521-.879,1.521-.878.641.37Zm-1.521-3.081,1.521.88-.563.325-.958.552-1.521-.877Zm-1.907,1.1.833.48.688.4-1.521.879-1.522-.879Zm-2.1,10.058-1.522-.878v-1.992l1.522.877Zm0-2.438-1.522-.878v-1.992l1.522.88Zm0-2.437-1.522-.877v-1.995l1.522.88Zm-1.329-3.2,1.522-.878,1.2.693.32.185-1.521.879Zm3.236,9.181-1.521-.879v-1.992l.233.136,1.288.742Zm0-2.438-1.521-.877v-1.993l1.521.879Zm0-2.437-.233-.134-1.288-.745v-1.991l1.521.879Zm-.246-2.579-1.083-.625,1.522-.878,1.521.878-.688.4-.833.482Zm2.154,8.556-1.521-.878v-1.994l1.521.879Zm0-2.438-1.521-.879v-1.992l1.521.881Zm0-2.438-1.521-.876v-1.994l1.521.879Zm.192-2.325-1.521-.878,1.521-.878,1.521.877-.88.509Zm1.715,6.323-1.522.878v-1.993l1.522-.879Zm0-2.439-1.081.625-.441.254v-1.99l.7-.406.822-.475Zm0-2.435-.46.264-1.062.612v-1.991l.7-.4.822-.475Zm.193-2.55-1.52-.879,1.52-.878,1.523.878-1.077.62Zm1.715,6.321-1.522.879v-1.993l1.026-.591.5-.287Zm0-2.436-1.522.877v-1.991l1.263-.73.259-.149Zm0-2.439-1.182.683-.34.2v-1.992l1.522-.878Zm.193-2.548-1.523-.879,1.523-.878,1.522.878Zm1.714,6.323-1.52.878v-1.993l1.52-.877Zm0-2.438-1.52.878v-1.99l.465-.27,1.055-.61Zm0-2.436-1.52.877v-1.992l1.52-.88Z" transform="translate(-2345.392 5197.495)" fill="gray"/>
    <path id="パス_46" data-name="パス 46" d="M3163.044,1152.281l-2.661,1.535-2.655-1.535,2.655-1.534Zm-3.337,1.921-2.657,1.536-2.657-1.536,2.657-1.534,1.12.646Zm-2.657-5.382,2.657,1.537-.983.568-1.673.964-2.657-1.532Zm-3.332,1.927,1.455.839,1.2.7-2.657,1.535-2.659-1.535Zm-3.668,17.57-2.659-1.534v-3.48l2.659,1.532Zm0-4.259-2.659-1.534v-3.48l2.659,1.537Zm0-4.257-2.659-1.532v-3.485l2.659,1.537Zm-2.322-5.6,2.659-1.534,2.1,1.21.559.323-2.657,1.536Zm5.653,16.038-2.657-1.535v-3.48l.407.238,2.25,1.3Zm0-4.259-2.657-1.532v-3.481l2.657,1.535Zm0-4.257-.407-.234-2.25-1.3v-3.478l2.657,1.535Zm-.43-4.505-1.892-1.092,2.659-1.534,2.657,1.534-1.2.693-1.455.842Zm3.763,14.946-2.657-1.533v-3.483l2.657,1.536Zm0-4.259-2.657-1.535v-3.479l2.657,1.539Zm0-4.259-2.657-1.53v-3.483l2.657,1.535Zm.335-4.062-2.657-1.534,2.657-1.534,2.657,1.532-1.537.889Zm3,11.045-2.658,1.533v-3.481l2.658-1.536Zm0-4.261-1.888,1.092-.77.444v-3.476l1.223-.709,1.436-.83Zm0-4.253-.8.461-1.855,1.069v-3.478l1.223-.706,1.436-.83Zm.337-4.455-2.655-1.535,2.655-1.534,2.661,1.534-1.882,1.083Zm3,11.042-2.659,1.535v-3.481l1.792-1.032.866-.5Zm0-4.255-2.659,1.532V1162.5l2.206-1.275.453-.26Zm0-4.26-2.064,1.193-.594.343v-3.48l2.659-1.534Zm.337-4.451-2.66-1.536,2.66-1.534,2.659,1.534Zm2.994,11.045-2.655,1.534v-3.481l2.655-1.532Zm0-4.259-2.655,1.534v-3.476l.812-.472,1.843-1.065Zm0-4.255-2.655,1.532v-3.479l2.655-1.537Z" transform="translate(-2332.392 5187.514)" fill="gray"/>
  </g>
</svg>
