<svg xmlns="http://www.w3.org/2000/svg" width="28.529" height="23.552" viewBox="0 0 28.529 23.552">
  <g id="グループ_67" data-name="グループ 67" transform="translate(-793 -3364.151)">
    <path id="パス_21" data-name="パス 21" d="M2924.283,1316.672c1.5,2.227,4.823,3.75,8.765,3.75s7.262-1.523,8.765-3.75v1.574c0,2.494-3.52,5.162-8.765,5.162s-8.765-2.669-8.765-5.162Zm8.765,2.437c-5.242,0-8.765-2.665-8.765-5.163v-1.9c1.5,2.232,4.823,3.753,8.765,3.753s7.262-1.521,8.765-3.753v1.9C2941.813,1316.445,2938.292,1319.109,2933.048,1319.109Zm0-14.954c5.244,0,8.765,2.671,8.765,5.164s-3.52,5.162-8.765,5.162-8.765-2.669-8.765-5.162S2927.806,1304.155,2933.048,1304.155Zm0,23.552c-5.242,0-8.765-2.665-8.765-5.16v-1.576c1.5,2.231,4.823,3.75,8.765,3.75s7.262-1.519,8.765-3.75v1.576C2941.813,1325.043,2938.292,1327.708,2933.048,1327.708Z" transform="translate(-2120.283 2059.995)" fill="#7aa5d7"/>
    <path id="パス_22" data-name="パス 22" d="M2924.283,1309.848a6.321,6.321,0,0,0,8.638,0v.716c0,1.134-1.735,2.348-4.319,2.348s-4.319-1.214-4.319-2.348Zm4.319,1.108c-2.583,0-4.319-1.212-4.319-2.348v-.866a6.318,6.318,0,0,0,8.638,0v.866C2932.921,1309.745,2931.187,1310.957,2928.6,1310.957Zm0-6.8c2.584,0,4.319,1.215,4.319,2.349s-1.735,2.348-4.319,2.348-4.319-1.214-4.319-2.348S2926.019,1304.155,2928.6,1304.155Zm0,10.712c-2.583,0-4.319-1.212-4.319-2.347v-.717a6.321,6.321,0,0,0,8.638,0v.717C2932.921,1313.656,2931.187,1314.867,2928.6,1314.867Z" transform="translate(-2131.283 2071.771)" fill="#7aa5d7"/>
  </g>
</svg>
