<?xml version="1.0" encoding="utf-8"?>
<!-- Generator: Adobe Illustrator 25.3.1, SVG Export Plug-In . SVG Version: 6.00 Build 0)  -->
<svg version="1.1" id="レイヤー_1" xmlns="http://www.w3.org/2000/svg" xmlns:xlink="http://www.w3.org/1999/xlink" x="0px"
	 y="0px" viewBox="0 0 28.5 25.3" style="enable-background:new 0 0 28.5 25.3;" xml:space="preserve">
<style type="text/css">
	.st0{fill:#7AA5D7;}
</style>
<g id="グループ_67" transform="translate(-793 -3364.151)">
	<path id="パス_21" class="st0" d="M804.3,3379.5c1.2,1.8,4,3.1,7.3,3.1c3.3,0,6-1.3,7.3-3.1v1.3c0,2.1-2.9,4.3-7.3,4.3
		s-7.3-2.2-7.3-4.3V3379.5z M811.6,3381.6c-4.3,0-7.3-2.2-7.3-4.3v-1.6c1.2,1.8,4,3.1,7.3,3.1c3.3,0,6-1.3,7.3-3.1v1.6
		C818.9,3379.4,816,3381.6,811.6,3381.6L811.6,3381.6z M811.6,3369.2c4.3,0,7.3,2.2,7.3,4.3c0,2.1-2.9,4.3-7.3,4.3s-7.3-2.2-7.3-4.3
		C804.3,3371.4,807.3,3369.2,811.6,3369.2L811.6,3369.2z M811.6,3388.7c-4.3,0-7.3-2.2-7.3-4.3v-1.3c1.2,1.8,4,3.1,7.3,3.1
		c3.3,0,6-1.3,7.3-3.1v1.3C818.9,3386.5,816,3388.7,811.6,3388.7L811.6,3388.7z"/>
	<path id="パス_22" class="st0" d="M795.2,3383.6c2,1.9,5.1,1.9,7.2,0v0.6c0,0.9-1.4,1.9-3.6,1.9s-3.6-1-3.6-1.9L795.2,3383.6z
		 M798.8,3384.6c-2.1,0-3.6-1-3.6-1.9v-0.7c2,1.9,5.1,1.9,7.2,0v0.7C802.4,3383.6,801,3384.6,798.8,3384.6L798.8,3384.6z
		 M798.8,3378.9c2.1,0,3.6,1,3.6,1.9s-1.4,1.9-3.6,1.9s-3.6-1-3.6-1.9S796.7,3378.9,798.8,3378.9L798.8,3378.9z M798.8,3387.8
		c-2.1,0-3.6-1-3.6-1.9v-0.6c2,1.9,5.1,1.9,7.2,0v0.6C802.4,3386.8,801,3387.8,798.8,3387.8L798.8,3387.8z"/>
</g>
</svg>
