<svg xmlns="http://www.w3.org/2000/svg" width="41.91" height="20.719" viewBox="0 0 41.91 20.719">
  <g id="グループ_1514" data-name="グループ 1514" transform="translate(-802.098 -3945.385)">
    <g id="グループ_1467" data-name="グループ 1467" transform="translate(109.894 2858.546)">
      <rect id="長方形_1249" data-name="長方形 1249" width="2.366" height="2.366" transform="translate(713.06 1096.016)" fill="#7aa5d7"/>
      <rect id="長方形_1250" data-name="長方形 1250" width="2.366" height="2.367" transform="translate(713.06 1089.788)" fill="#7aa5d7"/>
      <rect id="長方形_1251" data-name="長方形 1251" width="2.366" height="2.366" transform="translate(713.06 1102.244)" fill="#7aa5d7"/>
      <path id="パス_50" data-name="パス 50" d="M709.659,1086.839v20.719h24.455v-20.719Zm6.7,18.236v.466h-4.229v-4.229h4.229Zm0-6.228v.467h-4.229v-4.229h4.229Zm0-6.227v.464h-4.229v-4.228h4.229Zm15.287,11.273H718.09v-.933h13.555Zm0-6.227H718.09v-.933h13.555Zm0-6.228H718.09v-.932h13.555Z" fill="#7aa5d7"/>
    </g>
    <g id="グループ_1468" data-name="グループ 1468" transform="translate(92.439 2870.038)">
      <rect id="長方形_1249-2" data-name="長方形 1249" width="1.054" height="1.054" transform="translate(711.174 1090.926)" fill="#7aa5d7"/>
      <rect id="長方形_1250-2" data-name="長方形 1250" width="1.054" height="1.054" transform="translate(711.174 1088.152)" fill="#7aa5d7"/>
      <rect id="長方形_1251-2" data-name="長方形 1251" width="1.054" height="1.054" transform="translate(711.174 1093.7)" fill="#7aa5d7"/>
      <path id="パス_50-2" data-name="パス 50" d="M709.659,1086.839v9.227H720.55v-9.227Zm2.984,8.121v.207h-1.883v-1.883h1.883Zm0-2.774v.208h-1.883v-1.883h1.883Zm0-2.773v.207h-1.883v-1.883h1.883Zm6.808,5.021h-6.037v-.415h6.037Zm0-2.773h-6.037v-.415h6.037Zm0-2.774h-6.037v-.415h6.037Z" fill="#7aa5d7"/>
    </g>
  </g>
</svg>
