<?xml version="1.0" encoding="utf-8"?>
<!-- Generator: Adobe Illustrator 25.3.1, SVG Export Plug-In . SVG Version: 6.00 Build 0)  -->
<svg version="1.1" id="レイヤー_1" xmlns="http://www.w3.org/2000/svg" xmlns:xlink="http://www.w3.org/1999/xlink" x="0px"
	 y="0px" viewBox="0 0 106 90.3" style="enable-background:new 0 0 106 90.3;" xml:space="preserve">
<style type="text/css">
	.st0{enable-background:new    ;}
	.st1{fill:#7AA5D7;}
</style>
<g id="グループ_1517" transform="translate(-1789.5 -10441.367)">
	<g class="st0">
		<path class="st1" d="M1791,10522.7v-14.3h4.6c1.8,0,2.9,0.1,3.4,0.2c0.8,0.2,1.5,0.7,2.1,1.4s0.8,1.6,0.8,2.8
			c0,0.9-0.2,1.6-0.5,2.2s-0.7,1.1-1.2,1.4s-1,0.6-1.5,0.7c-0.7,0.1-1.7,0.2-3,0.2h-1.9v5.4H1791z M1793.8,10510.8v4.1h1.6
			c1.1,0,1.9-0.1,2.3-0.2s0.7-0.4,0.9-0.7s0.3-0.7,0.3-1.1c0-0.5-0.2-1-0.5-1.3s-0.7-0.5-1.2-0.6c-0.3-0.1-1-0.1-2.1-0.1H1793.8z"/>
		<path class="st1" d="M1815.7,10522.7h-3.1l-1.2-3.3h-5.7l-1.2,3.3h-3.1l5.6-14.3h3.1L1815.7,10522.7z M1810.4,10517l-2-5.3
			l-1.9,5.3H1810.4z"/>
		<path class="st1" d="M1823.9,10517.4v-2.4h6.2v5.7c-0.6,0.6-1.5,1.1-2.6,1.5s-2.3,0.7-3.5,0.7c-1.5,0-2.8-0.3-3.9-0.9
			s-1.9-1.5-2.5-2.7s-0.8-2.4-0.8-3.8c0-1.5,0.3-2.8,0.9-4s1.5-2,2.7-2.7c0.9-0.5,2.1-0.7,3.4-0.7c1.8,0,3.2,0.4,4.2,1.1
			s1.6,1.8,1.9,3.1l-2.9,0.5c-0.2-0.7-0.6-1.3-1.1-1.7s-1.3-0.6-2.1-0.6c-1.3,0-2.3,0.4-3,1.2s-1.1,2-1.1,3.6c0,1.7,0.4,3,1.1,3.8
			s1.7,1.3,3,1.3c0.6,0,1.2-0.1,1.8-0.4s1.1-0.5,1.6-0.9v-1.8H1823.9z"/>
		<path class="st1" d="M1832.8,10522.7v-14.3h10.6v2.4h-7.7v3.2h7.2v2.4h-7.2v3.9h8v2.4H1832.8z"/>
		<path class="st1" d="M1854.9,10522.7v-11.9h-4.2v-2.4h11.4v2.4h-4.2v11.9H1854.9z"/>
		<path class="st1" d="M1863,10515.6c0-1.5,0.2-2.7,0.7-3.7c0.3-0.7,0.8-1.4,1.3-2s1.2-1,1.9-1.3c0.9-0.4,1.9-0.6,3.1-0.6
			c2.1,0,3.8,0.7,5.1,2s1.9,3.1,1.9,5.5c0,2.3-0.6,4.1-1.9,5.4s-2.9,2-5,2c-2.1,0-3.8-0.6-5.1-1.9S1863,10517.9,1863,10515.6z
			 M1866,10515.5c0,1.6,0.4,2.8,1.1,3.7s1.7,1.3,2.9,1.3s2.1-0.4,2.8-1.2s1.1-2.1,1.1-3.7c0-1.6-0.4-2.9-1.1-3.7s-1.7-1.2-2.9-1.2
			s-2.2,0.4-2.9,1.2S1866,10513.9,1866,10515.5z"/>
		<path class="st1" d="M1879.1,10522.7v-14.3h4.6c1.8,0,2.9,0.1,3.4,0.2c0.8,0.2,1.5,0.7,2.1,1.4s0.8,1.6,0.8,2.8
			c0,0.9-0.2,1.6-0.5,2.2s-0.7,1.1-1.2,1.4s-1,0.6-1.5,0.7c-0.7,0.1-1.7,0.2-3,0.2h-1.9v5.4H1879.1z M1882,10510.8v4.1h1.6
			c1.1,0,1.9-0.1,2.3-0.2s0.7-0.4,0.9-0.7s0.3-0.7,0.3-1.1c0-0.5-0.2-1-0.5-1.3s-0.7-0.5-1.2-0.6c-0.3-0.1-1-0.1-2.1-0.1H1882z"/>
	</g>
	<path id="Icon_awesome-arrow-up" class="st1" d="M1819.1,10472l-2.6-2.6c-1.1-1.1-1.1-2.9,0-4c0,0,0,0,0,0l23.1-23.1
		c1.1-1.1,2.9-1.1,4,0c0,0,0,0,0,0l23.1,23.1c1.1,1.1,1.1,2.9,0,4c0,0,0,0,0,0l-2.6,2.6c-1.1,1.1-2.9,1.1-4,0c0,0,0,0,0,0
		l-13.6-14.3v34.2c0,1.6-1.3,2.9-2.8,2.9c0,0,0,0,0,0h-3.8c-1.6,0-2.9-1.3-2.9-2.8c0,0,0,0,0,0v-34.2l-13.7,14.3
		C1822.1,10473.1,1820.4,10473.2,1819.1,10472C1819.2,10472.1,1819.2,10472,1819.1,10472z"/>
</g>
</svg>
