<svg xmlns="http://www.w3.org/2000/svg" width="106" height="90.318" viewBox="0 0 106 90.318">
  <g id="グループ_1517" data-name="グループ 1517" transform="translate(-1789.5 -10441.367)">
    <text id="PAGE_TOP" data-name="PAGE TOP" transform="translate(1842.5 10522.686)" fill="#7aa5d7" font-size="20" font-family="Meiryo-Bold, Meiryo" font-weight="700"><tspan x="-52.52" y="0">PAGE TOP</tspan></text>
    <path id="Icon_awesome-arrow-up" data-name="Icon awesome-arrow-up" d="M3.878,32.895,1.236,30.253a2.844,2.844,0,0,1,0-4.034L24.358,3.085a2.844,2.844,0,0,1,4.034,0L51.513,26.207a2.844,2.844,0,0,1,0,4.034l-2.642,2.642a2.859,2.859,0,0,1-4.082-.048L31.141,18.508v34.2a2.849,2.849,0,0,1-2.856,2.856H24.477a2.849,2.849,0,0,1-2.856-2.856v-34.2L7.96,32.847a2.839,2.839,0,0,1-4.082.048Z" transform="translate(1815.745 10439.121)" fill="#7aa5d7"/>
  </g>
</svg>
