<svg xmlns="http://www.w3.org/2000/svg" width="12.942" height="17.256" viewBox="0 0 12.942 17.256">
  <path id="Icon_awesome-file-pdf" data-name="Icon awesome-file-pdf" d="M6.131,8.631a3.252,3.252,0,0,1-.067-1.581C6.346,7.051,6.319,8.294,6.131,8.631Zm-.057,1.591a15.552,15.552,0,0,1-.957,2.113,12.41,12.41,0,0,1,2.12-.738A4.366,4.366,0,0,1,6.073,10.222ZM2.9,14.428c0,.027.445-.182,1.176-1.355A4.658,4.658,0,0,0,2.9,14.428ZM8.358,5.393h4.584V16.447a.807.807,0,0,1-.809.809H.809A.807.807,0,0,1,0,16.447V.809A.807.807,0,0,1,.809,0H7.55V4.584A.811.811,0,0,0,8.358,5.393Zm-.27,5.79A3.383,3.383,0,0,1,6.65,9.369a4.844,4.844,0,0,0,.209-2.164.844.844,0,0,0-1.611-.229,5.6,5.6,0,0,0,.273,2.6,31.648,31.648,0,0,1-1.375,2.892s0,0-.007,0c-.913.468-2.481,1.5-1.837,2.292a1.047,1.047,0,0,0,.725.337c.6,0,1.2-.607,2.059-2.083a19.211,19.211,0,0,1,2.663-.782,5.108,5.108,0,0,0,2.157.657.872.872,0,0,0,.664-1.463c-.468-.458-1.83-.327-2.481-.243Zm4.617-7.644L9.4.236A.808.808,0,0,0,8.83,0h-.2V4.314h4.314V4.108A.806.806,0,0,0,12.706,3.539Zm-2.5,8.6c.138-.091-.084-.4-1.442-.3C10.017,12.372,10.209,12.143,10.209,12.143Z" fill="#292955"/>
</svg>
