<svg xmlns="http://www.w3.org/2000/svg" width="16.773" height="16.773" viewBox="0 0 16.773 16.773">
  <path id="Icon_awesome-phone-alt" data-name="Icon awesome-phone-alt" d="M16.295,11.853l-3.669-1.573a.786.786,0,0,0-.917.226l-1.625,1.985a12.143,12.143,0,0,1-5.8-5.8L6.264,5.062a.784.784,0,0,0,.226-.917L4.917.476a.791.791,0,0,0-.9-.455L.609.806A.786.786,0,0,0,0,1.573a15.2,15.2,0,0,0,15.2,15.2.786.786,0,0,0,.767-.609l.786-3.407a.8.8,0,0,0-.459-.9Z" transform="translate(0 0)" fill="#484848"/>
</svg>
