<svg xmlns="http://www.w3.org/2000/svg" width="32.31" height="32.31" viewBox="0 0 32.31 32.31">
  <path id="Icon_awesome-phone-alt" data-name="Icon awesome-phone-alt" d="M31.388,22.832,24.32,19.8a1.515,1.515,0,0,0-1.767.435l-3.13,3.824A23.391,23.391,0,0,1,8.242,12.881l3.824-3.13A1.511,1.511,0,0,0,12.5,7.984L9.472.916A1.525,1.525,0,0,0,7.737.039L1.174,1.553A1.515,1.515,0,0,0,0,3.029,29.278,29.278,0,0,0,29.281,32.31a1.515,1.515,0,0,0,1.477-1.174l1.515-6.563a1.533,1.533,0,0,0-.884-1.742Z" transform="translate(0 0)" fill="#fff"/>
</svg>
