<svg xmlns="http://www.w3.org/2000/svg" width="96.111" height="102.795" viewBox="0 0 96.111 102.795">
  <g id="グループ_52" data-name="グループ 52" transform="translate(-3034.879 -1764.916)">
    <g id="グループ_47" data-name="グループ 47" transform="translate(3048.8 1764.916)">
      <path id="パス_10" data-name="パス 10" d="M3104.734,1785.736h-68.207l-.053-13.493a7.523,7.523,0,0,1,1.932-5.458c2.008-2.009,5.168-2.219,8.25-.437l12.508,7.144a14.162,14.162,0,0,1,22.846-.1l12.453-7.24a8.443,8.443,0,0,1,4.193-1.231c3,0,6.025,2.166,6.061,7.074Zm-63.674-4.576h59.115l-.037-9.144c-.008-.952-.2-2.542-1.482-2.542a3.779,3.779,0,0,0-1.9.621l-16.375,9.5-1.127-2.062a9.667,9.667,0,0,0-17.311.088l-1.1,2.079-16.463-9.388c-2.033-1.18-2.488-.561-2.732-.324a3.346,3.346,0,0,0-.609,2.227Z" transform="translate(-3036.474 -1764.916)" fill="gray"/>
    </g>
    <g id="グループ_48" data-name="グループ 48" transform="translate(3034.879 1792.47)">
      <path id="パス_11" data-name="パス 11" d="M3130.99,1789.938h-96.111v-21.867h96.111Zm-91.553-4.566h86.984v-12.733h-86.984Z" transform="translate(-3034.879 -1768.071)" fill="gray"/>
    </g>
    <g id="グループ_49" data-name="グループ 49" transform="translate(3045.177 1809.77)">
      <path id="パス_12" data-name="パス 12" d="M3111.555,1827.8h-75.5v-57.743h75.5Zm-70.912-4.559h66.373v-48.618h-66.373Z" transform="translate(-3036.059 -1770.053)" fill="gray"/>
    </g>
    <g id="グループ_50" data-name="グループ 50" transform="translate(3063.552 1797.231)">
      <rect id="長方形_26" data-name="長方形 26" width="2.277" height="70.48" fill="gray"/>
    </g>
    <g id="グループ_51" data-name="グループ 51" transform="translate(3097.743 1797.231)">
      <rect id="長方形_27" data-name="長方形 27" width="2.285" height="70.48" fill="gray"/>
    </g>
  </g>
</svg>
