<?xml version="1.0" encoding="utf-8"?>
<!-- Generator: Adobe Illustrator 25.3.1, SVG Export Plug-In . SVG Version: 6.00 Build 0)  -->
<svg version="1.1" id="レイヤー_1" xmlns="http://www.w3.org/2000/svg" xmlns:xlink="http://www.w3.org/1999/xlink" x="0px"
	 y="0px" viewBox="0 0 100 100" style="enable-background:new 0 0 100 100;" xml:space="preserve">
<style type="text/css">
	.st0{fill:#808080;}
</style>
<g id="グループ_46" transform="translate(-2884.105 -1396.299)">
	<g id="グループ_26" transform="translate(2939.763 1396.299)">
		<g id="グループ_25">
			<g id="グループ_22">
				<path id="パス_2" class="st0" d="M10.6,44.5h-32.5l3.8-5.2V20.9H6.8v18.4L10.6,44.5z M-17.8,42.2H6.4l-1.5-2.1v-17h-21.1v17
					L-17.8,42.2z"/>
			</g>
			<g id="グループ_23" transform="translate(10.224 29.159)">
				<rect id="長方形_19" x="-27.4" y="7.9" class="st0" width="23" height="2.2"/>
			</g>
			<g id="グループ_24" transform="translate(20.217 34.502)">
				<rect id="長方形_20" x="-32.7" y="5.5" class="st0" width="13.7" height="2.3"/>
			</g>
		</g>
	</g>
	<g id="グループ_31" transform="translate(2995.441 1458.73)">
		<g id="グループ_30">
			<g id="グループ_27">
				<path id="パス_3" class="st0" d="M-19.1,16.7h-32.6l3.8-5.2V-6.9h24.9v18.4L-19.1,16.7z M-47.4,14.4h24.2l-1.5-2.1v-17h-21.1
					v17L-47.4,14.4z"/>
			</g>
			<g id="グループ_28" transform="translate(10.229 29.14)">
				<rect id="長方形_21" x="-57.1" y="-19.9" class="st0" width="23" height="2.2"/>
			</g>
			<g id="グループ_29" transform="translate(20.202 34.483)">
				<rect id="長方形_22" x="-62.4" y="-22.3" class="st0" width="13.7" height="2.3"/>
			</g>
		</g>
	</g>
	<g id="グループ_36" transform="translate(2884.105 1458.73)">
		<g id="グループ_35">
			<g id="グループ_32">
				<path id="パス_4" class="st0" d="M40.3,16.7H7.7l3.8-5.2V-6.9h24.9v18.4L40.3,16.7z M11.9,14.4h24.2l-1.5-2.1v-17H13.5v17
					L11.9,14.4z"/>
			</g>
			<g id="グループ_33" transform="translate(10.219 29.14)">
				<rect id="長方形_23" x="2.3" y="-19.9" class="st0" width="23" height="2.2"/>
			</g>
			<g id="グループ_34" transform="translate(20.173 34.483)">
				<rect id="長方形_24" x="-3" y="-22.3" class="st0" width="13.7" height="2.3"/>
			</g>
		</g>
	</g>
	<g id="グループ_39" transform="translate(2889.171 1401.958)">
		<g id="グループ_37" transform="translate(0 14.244)">
			<path id="パス_5" class="st0" d="M13.9,26.5L5,15.9L17.2,12L13.9,26.5z M8.7,17.1l4.3,5.1l1.6-6.9L8.7,17.1z"/>
		</g>
		<g id="グループ_38" transform="translate(11.918)">
			<path id="パス_6" class="st0" d="M0.5,29.7l-1.8-0.6c0.6-2.7,1.9-5.1,3.5-7.1c1.3-1.6,2.9-2.8,4.6-3.6l0.7,2.1
				C4.1,22.1,1.5,25.5,0.5,29.7L0.5,29.7z"/>
		</g>
	</g>
	<g id="グループ_42" transform="translate(3019.022 1402.845)">
		<g id="グループ_40">
			<path id="パス_7" class="st0" d="M-55.3,32.4l-8.9-10.6l12.2-3.9L-55.3,32.4z M-60.5,23l4.3,5.1l1.6-6.9L-60.5,23z"/>
		</g>
		<g id="グループ_41" transform="translate(19.302 10.933)">
			<path id="パス_8" class="st0" d="M-69.3,29.6l-1.8-0.6c1.1-4.9,0-10.2-3-13.8c-0.1-0.1-0.2-0.3-0.4-0.4l1.3-1.7
				c0.1,0.2,0.3,0.3,0.4,0.5C-69.3,17.8-67.9,23.9-69.3,29.6z"/>
		</g>
	</g>
	<g id="グループ_45" transform="translate(2956.64 1466.518)">
		<g id="グループ_43" transform="translate(16.7)">
			<path id="パス_9" class="st0" d="M-39.8,4.6v-14.9L-29-2.9L-39.8,4.6z M-37.9-6.5v7.1l5.2-3.6L-37.9-6.5z"/>
		</g>
		<g id="グループ_44" transform="translate(0 11.436)">
			<rect id="長方形_25" x="-30.9" y="-15.5" class="st0" width="8" height="2.2"/>
		</g>
	</g>
</g>
</svg>
