<svg xmlns="http://www.w3.org/2000/svg" width="181.082" height="104.94" viewBox="0 0 181.082 104.94">
  <g id="グループ_46" data-name="グループ 46" transform="translate(-2884.105 -1396.299)">
    <g id="グループ_26" data-name="グループ 26" transform="translate(2939.763 1396.299)">
      <g id="グループ_25" data-name="グループ 25">
        <g id="グループ_22" data-name="グループ 22">
          <path id="パス_2" data-name="パス 2" d="M2959.486,1438.818h-69.734l8.2-9.347V1396.3h53.363v33.172Zm-60.775-4.062h51.824l-3.291-3.774v-30.619H2902v30.619Z" transform="translate(-2889.752 -1396.3)" fill="gray"/>
        </g>
        <g id="グループ_23" data-name="グループ 23" transform="translate(10.224 29.159)">
          <rect id="長方形_19" data-name="長方形 19" width="49.3" height="4.054" fill="gray"/>
        </g>
        <g id="グループ_24" data-name="グループ 24" transform="translate(20.217 34.502)">
          <rect id="長方形_20" data-name="長方形 20" width="29.334" height="4.063" fill="gray"/>
        </g>
      </g>
    </g>
    <g id="グループ_31" data-name="グループ 31" transform="translate(2995.441 1458.73)">
      <g id="グループ_30" data-name="グループ 30">
        <g id="グループ_27" data-name="グループ 27">
          <path id="パス_3" data-name="パス 3" d="M2965.146,1445.141H2895.4l8.191-9.355v-33.153h53.363v33.153Zm-60.785-4.052h51.822l-3.3-3.766v-30.63h-45.219v30.63Z" transform="translate(-2895.4 -1402.632)" fill="gray"/>
        </g>
        <g id="グループ_28" data-name="グループ 28" transform="translate(10.229 29.14)">
          <rect id="長方形_21" data-name="長方形 21" width="49.29" height="4.053" fill="gray"/>
        </g>
        <g id="グループ_29" data-name="グループ 29" transform="translate(20.202 34.483)">
          <rect id="長方形_22" data-name="長方形 22" width="29.352" height="4.091" fill="gray"/>
        </g>
      </g>
    </g>
    <g id="グループ_36" data-name="グループ 36" transform="translate(2884.105 1458.73)">
      <g id="グループ_35" data-name="グループ 35">
        <g id="グループ_32" data-name="グループ 32">
          <path id="パス_4" data-name="パス 4" d="M2953.842,1445.141h-69.736l8.174-9.355v-33.153h53.369v33.153Zm-60.795-4.052h51.834l-3.3-3.766v-30.63h-45.23v30.63Z" transform="translate(-2884.105 -1402.632)" fill="gray"/>
        </g>
        <g id="グループ_33" data-name="グループ 33" transform="translate(10.219 29.14)">
          <rect id="長方形_23" data-name="長方形 23" width="49.29" height="4.053" fill="gray"/>
        </g>
        <g id="グループ_34" data-name="グループ 34" transform="translate(20.173 34.483)">
          <rect id="長方形_24" data-name="長方形 24" width="29.362" height="4.091" fill="gray"/>
        </g>
      </g>
    </g>
    <g id="グループ_39" data-name="グループ 39" transform="translate(2889.171 1401.958)">
      <g id="グループ_37" data-name="グループ 37" transform="translate(0 14.244)">
        <path id="パス_5" data-name="パス 5" d="M2903.676,1424.345l-19.057-19.065,26.018-6.96Zm-11.217-16.966,9.107,9.118,3.342-12.45Z" transform="translate(-2884.619 -1398.319)" fill="gray"/>
      </g>
      <g id="グループ_38" data-name="グループ 38" transform="translate(11.918)">
        <path id="パス_6" data-name="パス 6" d="M2889.744,1417.279l-3.916-1.124a29.473,29.473,0,0,1,7.523-12.776,28.985,28.985,0,0,1,9.779-6.506l1.539,3.756a25.346,25.346,0,0,0-14.926,16.65Z" transform="translate(-2885.828 -1396.873)" fill="gray"/>
      </g>
    </g>
    <g id="グループ_42" data-name="グループ 42" transform="translate(3019.022 1402.845)">
      <g id="グループ_40" data-name="グループ 40">
        <path id="パス_7" data-name="パス 7" d="M2916.857,1423.008l-19.066-19.046,26.035-7Zm-11.221-16.955,9.109,9.108,3.344-12.45Z" transform="translate(-2897.791 -1396.963)" fill="gray"/>
      </g>
      <g id="グループ_41" data-name="グループ 41" transform="translate(19.302 10.933)">
        <path id="パス_8" data-name="パス 8" d="M2910.949,1427.716l-3.9-1.065a25.5,25.5,0,0,0-6.527-24.852c-.256-.257-.512-.513-.768-.729l2.76-3c.307.3.6.581.9.877A29.5,29.5,0,0,1,2910.949,1427.716Z" transform="translate(-2899.75 -1398.073)" fill="gray"/>
      </g>
    </g>
    <g id="グループ_45" data-name="グループ 45" transform="translate(2956.64 1466.518)">
      <g id="グループ_43" data-name="グループ 43" transform="translate(16.7)">
        <path id="パス_9" data-name="パス 9" d="M2893.158,1430.355v-26.933l23.324,13.475Zm4.063-19.914v12.885l11.166-6.429Z" transform="translate(-2893.158 -1403.423)" fill="gray"/>
      </g>
      <g id="グループ_44" data-name="グループ 44" transform="translate(0 11.436)">
        <rect id="長方形_25" data-name="長方形 25" width="17.243" height="4.054" fill="gray"/>
      </g>
    </g>
  </g>
</svg>
