<?xml version="1.0" encoding="utf-8"?>
<!-- Generator: Adobe Illustrator 25.3.1, SVG Export Plug-In . SVG Version: 6.00 Build 0)  -->
<svg version="1.1" id="レイヤー_1" xmlns="http://www.w3.org/2000/svg" xmlns:xlink="http://www.w3.org/1999/xlink" x="0px"
	 y="0px" viewBox="0 0 100 100" style="enable-background:new 0 0 100 100;" xml:space="preserve">
<style type="text/css">
	.st0{fill:#808080;}
</style>
<g id="グループ_59" transform="translate(-3034.699 -1271.981)">
	<g id="グループ_53" transform="translate(3034.699 1271.981)">
		<path id="パス_13" class="st0" d="M45.6,70.3c-14,0-25.4-11.4-25.4-25.4c0-14,11.4-25.4,25.4-25.4c14,0,25.4,11.4,25.4,25.4
			c0,6.7-2.7,13.2-7.4,18C58.8,67.6,52.4,70.3,45.6,70.3z M45.6,22.3C33.1,22.3,23,32.4,23,44.8c0,12.5,10.1,22.6,22.6,22.6
			c12.5,0,22.6-10.1,22.6-22.6c0-6-2.4-11.8-6.6-16C57.4,24.6,51.6,22.3,45.6,22.3L45.6,22.3z"/>
	</g>
	<g id="グループ_54" transform="translate(3103.781 1341.091)">
		<path id="パス_14" class="st0" d="M9.5,18.3L-8.4-4.1l2.2-1.8L9.7,14l5.1-5.1L-5.1-7l1.8-2.2L19,8.7L9.5,18.3z"/>
	</g>
	<g id="グループ_58" transform="translate(3055.616 1295.199)">
		<g id="グループ_55" transform="translate(0 20.598)">
			<path id="パス_15" class="st0" d="M19.6,12.9h-8.1V1.3h8.1V12.9z M13.7,10.8h3.8V3.4h-3.8V10.8z"/>
		</g>
		<g id="グループ_56" transform="translate(15.608 13.738)">
			<path id="パス_16" class="st0" d="M13.1,19.7H5.1V4.1h8.1V19.7z M7.2,17.6H11V6.2H7.2V17.6z"/>
		</g>
		<g id="グループ_57" transform="translate(31.197)">
			<path id="パス_17" class="st0" d="M6.7,33.5h-8.1V9.8h8.1V33.5z M0.7,31.4h3.8V11.9H0.7V31.4z"/>
		</g>
	</g>
</g>
</svg>
