<?xml version="1.0" encoding="utf-8"?>
<!-- Generator: Adobe Illustrator 25.3.1, SVG Export Plug-In . SVG Version: 6.00 Build 0)  -->
<svg version="1.1" id="レイヤー_1" xmlns="http://www.w3.org/2000/svg" xmlns:xlink="http://www.w3.org/1999/xlink" x="0px"
	 y="0px" viewBox="0 0 100 100" style="enable-background:new 0 0 100 100;" xml:space="preserve">
<style type="text/css">
	.st0{fill:#808080;}
</style>
<g id="グループ_52" transform="translate(-3034.879 -1764.916)">
	<g id="グループ_47" transform="translate(3048.8 1764.916)">
		<path id="パス_10" class="st0" d="M57.9,30.5H14.3l0-8.6c-0.1-1.3,0.4-2.5,1.2-3.5c1.3-1.3,3.3-1.4,5.3-0.3l8,4.6
			c2.9-4,8.6-4.9,12.6-2c0.7,0.5,1.4,1.2,2,1.9l8-4.6c0.8-0.5,1.7-0.8,2.7-0.8c1.9,0,3.8,1.4,3.9,4.5L57.9,30.5z M17.2,27.5H55
			l0-5.8c0-0.6-0.1-1.6-0.9-1.6c-0.4,0-0.9,0.2-1.2,0.4l-10.5,6.1l-0.7-1.3c-1.5-3-5.2-4.3-8.3-2.7c-1.2,0.6-2.2,1.6-2.8,2.8
			l-0.7,1.3l-10.5-6c-1.3-0.8-1.6-0.4-1.7-0.2c-0.3,0.4-0.4,0.9-0.4,1.4L17.2,27.5z"/>
	</g>
	<g id="グループ_48" transform="translate(3034.879 1792.47)">
		<path id="パス_11" class="st0" d="M80.7,21.2H19.3v-14h61.4V21.2z M22.2,18.3h55.6v-8.1H22.2V18.3z"/>
	</g>
	<g id="グループ_49" transform="translate(3045.177 1809.77)">
		<path id="パス_12" class="st0" d="M63.8,37.9H15.6V1h48.2V37.9z M18.5,34.9h42.4V3.9H18.5V34.9z"/>
	</g>
	<g id="グループ_50" transform="translate(3063.552 1797.231)">
		<rect id="長方形_26" x="8.9" y="5.5" class="st0" width="1.5" height="45"/>
	</g>
	<g id="グループ_51" transform="translate(3097.743 1797.231)">
		<rect id="長方形_27" x="-3.4" y="5.5" class="st0" width="1.5" height="45"/>
	</g>
</g>
</svg>
