<svg xmlns="http://www.w3.org/2000/svg" width="116.022" height="116.059" viewBox="0 0 116.022 116.059">
  <g id="グループ_59" data-name="グループ 59" transform="translate(-3034.699 -1271.981)">
    <g id="グループ_53" data-name="グループ 53" transform="translate(3034.699 1271.981)">
      <path id="パス_13" data-name="パス 13" d="M3078.1,1358.84a43.413,43.413,0,1,1,30.711-12.716A43.151,43.151,0,0,1,3078.1,1358.84Zm.008-82.017a38.61,38.61,0,1,0,27.282,11.313A38.347,38.347,0,0,0,3078.11,1276.823Z" transform="translate(-3034.699 -1271.981)" fill="gray"/>
    </g>
    <g id="グループ_54" data-name="グループ 54" transform="translate(3103.781 1341.091)">
      <path id="パス_14" data-name="パス 14" d="M3073.146,1326.767l-30.613-38.269,3.781-3.03,27.237,34.066,8.68-8.689-34.057-27.237,3.029-3.789,38.27,30.63Z" transform="translate(-3042.533 -1279.818)" fill="gray"/>
    </g>
    <g id="グループ_58" data-name="グループ 58" transform="translate(3055.616 1295.199)">
      <g id="グループ_55" data-name="グループ 55" transform="translate(0 20.598)">
        <path id="パス_15" data-name="パス 15" d="M3050.871,1296.8h-13.8v-19.85h13.8Zm-10.158-3.634h6.525v-12.591h-6.525Z" transform="translate(-3037.07 -1276.95)" fill="gray"/>
      </g>
      <g id="グループ_56" data-name="グループ 56" transform="translate(15.608 13.738)">
        <path id="パス_16" data-name="パス 16" d="M3052.615,1302.882H3038.84v-26.71h13.775Zm-10.133-3.634h6.5v-19.443h-6.5Z" transform="translate(-3038.84 -1276.172)" fill="gray"/>
      </g>
      <g id="グループ_57" data-name="グループ 57" transform="translate(31.197)">
        <path id="パス_17" data-name="パス 17" d="M3054.393,1315.063H3040.61v-40.448h13.783Zm-10.141-3.634h6.508v-33.189h-6.508Z" transform="translate(-3040.61 -1274.614)" fill="gray"/>
      </g>
    </g>
  </g>
</svg>
