<svg xmlns="http://www.w3.org/2000/svg" xmlns:xlink="http://www.w3.org/1999/xlink" width="117.29" height="55.793" viewBox="0 0 117.29 55.793">
  <defs>
    <clipPath id="clip-path">
      <rect id="長方形_2665" data-name="長方形 2665" width="117.29" height="55.793" fill="none"/>
    </clipPath>
  </defs>
  <g id="グループ_5428" data-name="グループ 5428" transform="translate(-125.711 -4783.766)">
    <g id="グループ_3057" data-name="グループ 3057" transform="translate(125.711 4783.766)">
      <g id="グループ_3054" data-name="グループ 3054">
        <g id="グループ_3053" data-name="グループ 3053" clip-path="url(#clip-path)">
          <path id="パス_3041" data-name="パス 3041" d="M8.62,40.556c1.262-6.65,2.741-14.636,3.854-20.678a10.664,10.664,0,0,1,11.047-8.719l86.729,4.533a10.667,10.667,0,0,1,10.024,9.292l2.084,16.2a10.668,10.668,0,0,1-10.58,12.029H19.1A10.667,10.667,0,0,1,8.62,40.556" transform="translate(-5.157 -6.817)" fill="#252525"/>
          <path id="パス_3042" data-name="パス 3042" d="M144.687,109.022s5.121,9.945,13.643,13.461c0,0-3.486-6.81-3.486-13.461" transform="translate(-88.507 -66.691)" fill="#252525"/>
          <path id="パス_3043" data-name="パス 3043" d="M.19,29.412c1.262-6.65,2.741-14.636,3.854-20.678A10.664,10.664,0,0,1,15.092.015l86.729,4.533a10.668,10.668,0,0,1,10.024,9.292l2.084,16.2a10.667,10.667,0,0,1-10.58,12.029H10.671A10.667,10.667,0,0,1,.19,29.412" transform="translate(0 0)" fill="#fdf369" stroke="#252525" stroke-width="1"/>
          <path id="パス_3044" data-name="パス 3044" d="M136.257,97.878s5.121,9.946,13.643,13.461c0,0-3.486-6.81-3.486-13.461" transform="translate(-83.351 -59.874)" fill="#fdf369"/>
        </g>
      </g>
    </g>
    <path id="パス_3193" data-name="パス 3193" d="M6.812,16H4.245V7.211h-3V5.506a11.1,11.1,0,0,0,1.661-.158A2.343,2.343,0,0,0,4.14,4.68a2.2,2.2,0,0,0,.492-.914,2.1,2.1,0,0,0,.1-.51H6.812ZM23.4,5.344a15.92,15.92,0,0,0,1.08-1.872L22.593,3a10.793,10.793,0,0,1-1.134,2.34h-1.62V3.166c2.952-.324,4.05-.468,5.04-.612.252-.036.414-.072.468-.072.36-.054.36-.054.54-.072L24.537.754a26.711,26.711,0,0,1-4.7.774,56.154,56.154,0,0,1-6.318.342c-.522,0-.9,0-1.728-.036a5.182,5.182,0,0,1,.774,1.71c1.116,0,1.3-.018,2.412-.054L13.7,3.922a12.982,12.982,0,0,1,.81,1.422H13.017a13.908,13.908,0,0,1-1.98-.108V7.09a15.583,15.583,0,0,1,1.98-.108h2.952a12.358,12.358,0,0,1-5.346,2.97,4.848,4.848,0,0,1,1.044,1.782c.774-.4,1.008-.522,1.494-.792v4.68c0,.666-.036,1.35-.09,1.89h1.962v-.828h7.992v.828H25a11.372,11.372,0,0,1-.108-1.89v-4.7c.594.324.882.468,1.638.81A7.4,7.4,0,0,1,27.579,9.88a13.618,13.618,0,0,1-5.706-2.9h3.1a15.681,15.681,0,0,1,1.962.108V5.236a13.119,13.119,0,0,1-1.962.108Zm-5.418,0h-1.6a18.15,18.15,0,0,0-.972-1.872c1.836-.072,1.836-.072,2.574-.126Zm-2.772,4.32a12.557,12.557,0,0,0,2.808-2.592c-.018.306-.036.522-.036.63V8.17a6.523,6.523,0,0,1-.09,1.134h2.016a5.865,5.865,0,0,1-.072-1.152V7.666a1.52,1.52,0,0,0-.036-.342,2.445,2.445,0,0,0-.018-.27,13.2,13.2,0,0,0,2.97,2.61Zm-.18,1.566h2.988v1.134H15.033Zm0,2.718h2.988v1.116H15.033Zm4.806-2.7h3.186v1.134H19.839Zm-.018,2.7h3.186v1.134H19.821ZM35.8,1.114a11.774,11.774,0,0,1,.072,1.512c0,4.32-.972,7.272-3.294,9.936a12,12,0,0,1-3.924,3.006,5.385,5.385,0,0,1,1.4,1.854,15.182,15.182,0,0,0,2.79-2.07A12.532,12.532,0,0,0,35.625,11.9a12.88,12.88,0,0,0,1.4-3.636,14.231,14.231,0,0,0,2.394,4.914,17.522,17.522,0,0,0,4.572,4.248,6.7,6.7,0,0,1,1.4-2,11.987,11.987,0,0,1-2.79-1.944,12.065,12.065,0,0,1-2.844-3.42A12.921,12.921,0,0,1,38,2.968a11.909,11.909,0,0,1,.126-1.854ZM60.123,4.048a18.717,18.717,0,0,1,2.25.108V2.032a14.571,14.571,0,0,1-2.25.126h-8.3c.468-.954.468-.954.63-1.26L50.295.574a3.3,3.3,0,0,1-.4,1.134,13.081,13.081,0,0,1-3.258,4.068,7.406,7.406,0,0,1,1.4,1.4,16.838,16.838,0,0,0,2.682-3.132ZM58.107,15.514c-1.134-1.008-2.034-1.746-3.132-2.61a14.865,14.865,0,0,0,1.17-1.494c.4-.54.594-.81.774-1.008l-1.926-.918a6.574,6.574,0,0,1-1.566,2.3c-1.278-.864-1.872-1.242-3.186-2L48.927,11a31.615,31.615,0,0,1,3.132,2.052,20.1,20.1,0,0,1-4.986,2.736,6.9,6.9,0,0,1,1.35,1.692,22.034,22.034,0,0,0,5.2-3.24,39.471,39.471,0,0,1,3.132,2.772Zm.414-6.228a16.672,16.672,0,0,0,.828,5.814c.5,1.368,1.422,2.3,2.232,2.3,1.1,0,1.656-1.152,1.944-3.978a5.385,5.385,0,0,1-1.548-1.08,5.937,5.937,0,0,1-.432,2.664,2.323,2.323,0,0,1-.63-1.224,17.707,17.707,0,0,1-.5-4.626,12.322,12.322,0,0,1,.09-1.638,18.436,18.436,0,0,1-2.106.072H49.251A8.894,8.894,0,0,1,47.7,7.5v1.89a15.185,15.185,0,0,1,2.07-.108ZM50.2,6.6a14.957,14.957,0,0,1,1.71-.072H59.1A13.433,13.433,0,0,1,61,6.622V4.84a15.065,15.065,0,0,1-1.908.09H51.555a11.34,11.34,0,0,1-1.35-.072Z" transform="translate(149.182 4796.186)" fill="#252525"/>
  </g>
</svg>
