<svg xmlns="http://www.w3.org/2000/svg" width="1373" height="718" viewBox="0 0 1373 718">
  <g id="グループ_3188" data-name="グループ 3188" transform="translate(-240 -4552)">
    <g id="グループ_3136" data-name="グループ 3136" transform="translate(20 -391)">
      <g id="グループ_3135" data-name="グループ 3135" transform="translate(220 4943)">
        <rect id="長方形_2716" data-name="長方形 2716" width="1103" height="94" transform="translate(270 123)" fill="#fff"/>
        <rect id="長方形_2718" data-name="長方形 2718" width="263" height="94" transform="translate(0 122)" fill="#fff"/>
        <rect id="長方形_2717" data-name="長方形 2717" width="1103" height="94" transform="translate(270 222)" fill="#f9f9f9"/>
        <rect id="長方形_2721" data-name="長方形 2721" width="263" height="94" transform="translate(0 222)" fill="#f9f9f9"/>
        <path id="パス_3154" data-name="パス 3154" d="M13.8,12.36l.072,7.176v.432a15.28,15.28,0,0,1-.144,2.3h3.264c-.072-.672-.12-1.584-.144-2.76l-.12-11.136H19.2a24.678,24.678,0,0,1,2.76.1v-2.9a13.647,13.647,0,0,1-2.832.168H16.7l-.048-1.944V3.648a15.4,15.4,0,0,1,.1-2.04H13.584a17.3,17.3,0,0,1,.12,2.208l.024,1.92h-8.3A13.947,13.947,0,0,1,2.4,5.568V8.5a25,25,0,0,1,2.952-.12h6.576a22.833,22.833,0,0,1-3.216,3.96,25.542,25.542,0,0,1-7.56,5.208,6.953,6.953,0,0,1,1.992,2.5A34.765,34.765,0,0,0,6.7,17.832a33.042,33.042,0,0,0,4.728-4.176,14.539,14.539,0,0,0,2.448-3.36c-.024.384-.072,1.608-.072,1.728Zm15.1-10.3a15.153,15.153,0,0,1,.1,2.16v6.6a17.308,17.308,0,0,1-.12,2.16H32.16a11.585,11.585,0,0,1-.1-2.112V4.248a12.2,12.2,0,0,1,.1-2.16Zm10.824.048a12.638,12.638,0,0,1,.12,2.28v3c0,1.92-.024,2.976-.12,4.008-.264,3.168-1.056,4.632-3.312,6.12a12.945,12.945,0,0,1-5.184,1.92A8.2,8.2,0,0,1,32.9,22.3a20.3,20.3,0,0,0,4.68-1.848,9.192,9.192,0,0,0,4.728-5.592,28.347,28.347,0,0,0,.624-7.272V4.344a11.384,11.384,0,0,1,.12-2.232ZM52.152,4.584A29.056,29.056,0,0,1,58.56,7.872L60.1,5.232a39.522,39.522,0,0,0-6.384-3.1Zm-1.9,5.832a27.857,27.857,0,0,1,6.5,3.5l1.488-2.712a37.88,37.88,0,0,0-6.384-3.264ZM64.512,2.5a16.2,16.2,0,0,1,2.52,3.576l1.68-.888a15.554,15.554,0,0,0-2.52-3.528ZM51.624,21.984a14.171,14.171,0,0,1,1.68-.408C61.9,19.9,66.96,15.96,69.936,8.688a11.669,11.669,0,0,1-2.5-2.136c-1.728,5.112-5.328,9.048-9.72,10.584a21.321,21.321,0,0,1-6.936,1.56ZM71.568,3.624A13.879,13.879,0,0,0,69.072.24l-1.608.84a17.683,17.683,0,0,1,2.448,3.48Zm14.616,3.72c0-.264,0-.264.024-1.848l.024-1.44a15.138,15.138,0,0,1,.12-2.3H83.04a15.107,15.107,0,0,1,.12,2.3V5.472c0,.432,0,.864-.024,1.872H77.088a17.347,17.347,0,0,1-3.12-.168V10.2a24.651,24.651,0,0,1,3.072-.12h5.952A10.376,10.376,0,0,1,81.816,14.9c-1.08,1.992-2.9,3.48-5.784,4.728a7.455,7.455,0,0,1,2.184,2.592c3.12-1.7,4.8-3.192,6.12-5.376,1.1-1.848,1.512-3.432,1.728-6.768h4.92a24.651,24.651,0,0,1,3.072.12V7.176a17.191,17.191,0,0,1-3.12.168Zm14.208-5.112a12.062,12.062,0,0,1,.1,2.184c0,6.72-.552,9.816-2.28,12.576a9.86,9.86,0,0,1-2.472,2.76A8.542,8.542,0,0,1,98.16,22.08a15.283,15.283,0,0,0,3.312-4.44c1.248-2.472,1.776-5.184,1.944-9.864a50.155,50.155,0,0,1,.24-5.376Zm6.36-.168a10.387,10.387,0,0,1,.1,1.584v.72l-.12,13.536a10.755,10.755,0,0,1-.216,2.544l1.536,1.632a10.443,10.443,0,0,1,1.032-.432,15.851,15.851,0,0,0,5.112-2.88,14.894,14.894,0,0,0,3.816-5.592,10.06,10.06,0,0,1-2.256-2.256,11.728,11.728,0,0,1-2.352,4.392,9.649,9.649,0,0,1-3.672,2.736l.12-13.656a13.005,13.005,0,0,1,.168-2.28Zm18.336,2.76H122.16a14.464,14.464,0,0,1-2.232-.12V6.912a14.464,14.464,0,0,1,2.232-.12h2.928V7.824h-2.064c-1.056,0-1.68-.024-2.352-.072.048.6.072,1.056.072,2.184v3.1c0,1.176-.024,1.68-.072,2.28.672-.048,1.248-.072,2.328-.072h2.088V16.3H122.64a14.239,14.239,0,0,1-2.256-.12v2.256a21.563,21.563,0,0,1,2.232-.1h2.472v1.32c-2.544.144-3,.168-4.08.168a10.643,10.643,0,0,1-1.248-.048l.432,2.568c.576-.1.936-.144,1.392-.192,4.392-.336,6.144-.528,9.432-1.008a7.119,7.119,0,0,1,1.9,1.9,15.6,15.6,0,0,0,1.92-3.144,7.078,7.078,0,0,1,.552,2.592c.36.024,1.536.072,1.92.072,1.8,0,2.568-.36,3-1.416.6-1.392.912-4.776,1.032-10.968.072-3.456.072-3.648.168-4.512a18.966,18.966,0,0,1-2.256.1H137.16c.072-4.152.072-4.152.192-4.8h-2.76a15.307,15.307,0,0,1,.144,3.048c0,.744,0,1.152-.024,1.752h-.36a10.486,10.486,0,0,1-1.7-.1V8.256a14.606,14.606,0,0,1,1.992-.1,35.66,35.66,0,0,1-.624,6.336,16.525,16.525,0,0,1-2.28,5.52V18.984c-2.256.312-3.072.408-4.32.528V18.336H130.1a6.982,6.982,0,0,1,1.68.12V16.2a16.322,16.322,0,0,1-2.256.1h-2.112V15.24h2.232c1.128,0,1.608,0,2.16.048-.024-.312-.048-1.032-.072-2.184V9.864a19.217,19.217,0,0,1,.072-2.112,18.908,18.908,0,0,1-2.016.072h-2.376V6.792h3a8.25,8.25,0,0,1,1.728.1V4.7a12.68,12.68,0,0,1-2.232.12h-2.5V3.48c1.2-.168,2.4-.36,3.288-.528.312-.072,1.1-.192,1.32-.216L130.584.768c-1.632.768-5.76,1.272-10.464,1.3a7.928,7.928,0,0,1,.84,1.92c1.8-.1,2.472-.144,4.128-.288Zm0,4.8v1.008H123V9.624Zm2.328,0H129.5v1.008h-2.088Zm-2.328,2.76V13.44H123V12.384Zm2.328,0H129.5V13.44h-2.088Zm11.52-4.224c-.024.792-.024.936-.048,1.68-.024,1.944-.024,1.944-.048,2.784a47.723,47.723,0,0,1-.336,4.968c-.288,2.232-.456,2.52-1.536,2.52a12.6,12.6,0,0,1-2.112-.24c1.464-3.216,2.016-6,2.256-11.712Zm14.616-4.272V6.024h-2.784a14.667,14.667,0,0,1-1.968-.1,13.349,13.349,0,0,1,.1,1.8V16.32a11.9,11.9,0,0,1-.1,1.776,15.817,15.817,0,0,1,2.16-.1h7.752a15.462,15.462,0,0,1,2.112.1,11.3,11.3,0,0,1-.1-1.776V7.728a12.682,12.682,0,0,1,.1-1.8,14.667,14.667,0,0,1-1.968.1H156V3.888h6.768a28.14,28.14,0,0,1,2.928.144V1.392a28.28,28.28,0,0,1-2.952.144H146.9a26.073,26.073,0,0,1-2.9-.144v2.64a28.957,28.957,0,0,1,2.952-.144Zm0,4.368v2.52h-2.328V8.256Zm2.448,0h2.424v2.52H156Zm-2.448,4.68v2.928h-2.328V12.936Zm2.448,0h2.424v2.928H156Zm6.336-6.552a12.336,12.336,0,0,1,.12,2.088V19.584H147.192V8.52a15.414,15.414,0,0,1,.1-2.136H144.5a23.483,23.483,0,0,1,.144,2.664v10.8a31.47,31.47,0,0,1-.144,3.192h2.736V21.912h15.144V23.04h2.784A26.067,26.067,0,0,1,165,19.824V9.072a25.216,25.216,0,0,1,.144-2.688Z" transform="translate(31 153)" fill="#252525"/>
        <rect id="長方形_2727" data-name="長方形 2727" width="10" height="36" transform="translate(11 153)" fill="#03cdd5"/>
        <rect id="長方形_2728" data-name="長方形 2728" width="10" height="36" transform="translate(11 249)" fill="#03cdd5"/>
        <path id="パス_3155" data-name="パス 3155" d="M13.8-8.64l.072,7.176v.432a15.28,15.28,0,0,1-.144,2.3h3.264c-.072-.672-.12-1.584-.144-2.76l-.12-11.136H19.2a24.678,24.678,0,0,1,2.76.1v-2.9a13.647,13.647,0,0,1-2.832.168H16.7l-.048-1.944v-.144a15.4,15.4,0,0,1,.1-2.04H13.584a17.3,17.3,0,0,1,.12,2.208l.024,1.92h-8.3A13.947,13.947,0,0,1,2.4-15.432V-12.5a25,25,0,0,1,2.952-.12h6.576a22.833,22.833,0,0,1-3.216,3.96,25.542,25.542,0,0,1-7.56,5.208A6.953,6.953,0,0,1,3.144-.96,34.764,34.764,0,0,0,6.7-3.168a33.042,33.042,0,0,0,4.728-4.176,14.539,14.539,0,0,0,2.448-3.36c-.024.384-.072,1.608-.072,1.728Zm15.1-10.3a15.153,15.153,0,0,1,.1,2.16v6.6a17.308,17.308,0,0,1-.12,2.16H32.16a11.585,11.585,0,0,1-.1-2.112v-6.624a12.2,12.2,0,0,1,.1-2.16Zm10.824.048a12.638,12.638,0,0,1,.12,2.28v3c0,1.92-.024,2.976-.12,4.008-.264,3.168-1.056,4.632-3.312,6.12a12.945,12.945,0,0,1-5.184,1.92A8.2,8.2,0,0,1,32.9,1.3a20.3,20.3,0,0,0,4.68-1.848,9.192,9.192,0,0,0,4.728-5.592,28.347,28.347,0,0,0,.624-7.272v-3.24a11.384,11.384,0,0,1,.12-2.232Zm12.432,2.472a29.056,29.056,0,0,1,6.408,3.288l1.536-2.64a39.522,39.522,0,0,0-6.384-3.1Zm-1.9,5.832a27.857,27.857,0,0,1,6.5,3.5l1.488-2.712a37.88,37.88,0,0,0-6.384-3.264ZM64.512-18.5a16.2,16.2,0,0,1,2.52,3.576l1.68-.888a15.554,15.554,0,0,0-2.52-3.528ZM51.624.984A14.171,14.171,0,0,1,53.3.576C61.9-1.1,66.96-5.04,69.936-12.312a11.669,11.669,0,0,1-2.5-2.136C65.712-9.336,62.112-5.4,57.72-3.864A21.321,21.321,0,0,1,50.784-2.3Zm19.944-18.36a13.879,13.879,0,0,0-2.5-3.384l-1.608.84a17.683,17.683,0,0,1,2.448,3.48Zm14.616,3.72c0-.264,0-.264.024-1.848l.024-1.44a15.138,15.138,0,0,1,.12-2.3H83.04a15.107,15.107,0,0,1,.12,2.3v1.416c0,.432,0,.864-.024,1.872H77.088a17.347,17.347,0,0,1-3.12-.168V-10.8a24.651,24.651,0,0,1,3.072-.12h5.952A10.376,10.376,0,0,1,81.816-6.1c-1.08,1.992-2.9,3.48-5.784,4.728a7.455,7.455,0,0,1,2.184,2.592c3.12-1.7,4.8-3.192,6.12-5.376C85.44-6,85.848-7.584,86.064-10.92h4.92a24.651,24.651,0,0,1,3.072.12v-3.024a17.191,17.191,0,0,1-3.12.168Zm14.208-5.112a12.062,12.062,0,0,1,.1,2.184c0,6.72-.552,9.816-2.28,12.576a9.86,9.86,0,0,1-2.472,2.76A8.542,8.542,0,0,1,98.16,1.08a15.283,15.283,0,0,0,3.312-4.44c1.248-2.472,1.776-5.184,1.944-9.864a50.155,50.155,0,0,1,.24-5.376Zm6.36-.168a10.387,10.387,0,0,1,.1,1.584v.72L106.728-3.1a10.755,10.755,0,0,1-.216,2.544l1.536,1.632A10.443,10.443,0,0,1,109.08.648a15.851,15.851,0,0,0,5.112-2.88,14.894,14.894,0,0,0,3.816-5.592,10.06,10.06,0,0,1-2.256-2.256A11.728,11.728,0,0,1,113.4-5.688a9.649,9.649,0,0,1-3.672,2.736l.12-13.656a13.005,13.005,0,0,1,.168-2.28Zm29.376.432a15.106,15.106,0,0,1-3.1.168h-7.056a15.4,15.4,0,0,1-3.1-.168v2.928a19.829,19.829,0,0,1,3.048-.12h7.152a19.625,19.625,0,0,1,3.048.12ZM137.64-9.7a21.084,21.084,0,0,1,3.048.12v-2.856a15.687,15.687,0,0,1-3.1.168h-14.04a15.687,15.687,0,0,1-3.1-.168v2.856A21.084,21.084,0,0,1,123.5-9.7h5.832c-.168,4.656-2.04,7.032-6.744,8.52a7.63,7.63,0,0,1,1.968,2.664C129.984-.6,132.24-3.768,132.5-9.7Zm5.088-7.656A14.716,14.716,0,0,0,140.616-21l-1.728.624a17.433,17.433,0,0,1,2.064,3.72Zm-6.984-2.088a17.693,17.693,0,0,1,2.112,3.84l1.8-.672a16.936,16.936,0,0,0-2.136-3.792Zm15.672,4.824v-2.5a12.135,12.135,0,0,1,.1-2.04h-3.144a11.139,11.139,0,0,1,.12,2.136v2.4h-1.416a15.975,15.975,0,0,1-3.12-.168v2.928a21.063,21.063,0,0,1,3.072-.12h1.464v3.528a15.433,15.433,0,0,1-.1,2.064h3.12a13.689,13.689,0,0,1-.1-2.016v-3.576h6.216c-.048,3.384-.192,4.56-.768,6-1.032,2.328-3.048,3.84-6.456,4.8a7.342,7.342,0,0,1,1.8,2.544c3.456-1.152,5.808-3,7.128-5.592.888-1.9,1.128-3.432,1.176-7.752H162.1a21.254,21.254,0,0,1,3.1.12v-2.928a16.115,16.115,0,0,1-3.144.168h-1.512c0-.96.024-1.9.024-2.784a9.851,9.851,0,0,1,.072-1.584H157.56a17.727,17.727,0,0,1,.1,2.376v1.992Zm9.192-5.3a14.462,14.462,0,0,1,1.632,3.768l1.656-.48a14.676,14.676,0,0,0-1.656-3.744Zm6.12,2.472a15.258,15.258,0,0,0-1.632-3.6l-1.536.48a15.192,15.192,0,0,1,1.632,3.624Zm17.448-2.04A19.2,19.2,0,0,1,179.712-15a35.05,35.05,0,0,1-12.6,6.24,9.027,9.027,0,0,1,1.608,2.736,38.885,38.885,0,0,0,8.568-3.888v8.448a13.5,13.5,0,0,1-.144,2.592h3.36a18.155,18.155,0,0,1-.12-2.664V-11.784a42.441,42.441,0,0,0,5.664-4.944,9.884,9.884,0,0,1,.888-.84Zm8.592,4.08a25.2,25.2,0,0,1,6.12,4.872l2.064-2.616a33.991,33.991,0,0,0-6.192-4.632Zm.84,15.84a8.5,8.5,0,0,1,1.584-.408,25.923,25.923,0,0,0,9.144-3.6c3.288-2.184,5.568-5.016,7.608-9.408a10.349,10.349,0,0,1-2.544-2.352,20.041,20.041,0,0,1-2.448,4.8,16.035,16.035,0,0,1-7.128,5.88,22.868,22.868,0,0,1-7.1,1.776Z" transform="translate(31 277)" fill="#252525"/>
        <rect id="長方形_2766" data-name="長方形 2766" width="1103" height="94" transform="translate(270 321)" fill="#fff"/>
        <rect id="長方形_2767" data-name="長方形 2767" width="263" height="94" transform="translate(0 321)" fill="#fff"/>
        <rect id="長方形_2768" data-name="長方形 2768" width="1103" height="94" transform="translate(270 420)" fill="#f9f9f9"/>
        <rect id="長方形_2769" data-name="長方形 2769" width="263" height="94" transform="translate(0 420)" fill="#f9f9f9"/>
        <rect id="長方形_2770" data-name="長方形 2770" width="10" height="36" transform="translate(11 351)" fill="#03cdd5"/>
        <path id="パス_3156" data-name="パス 3156" d="M4.728-15.528H3.072A10.6,10.6,0,0,1,1.2-15.672v2.616a14.054,14.054,0,0,1,2.064-.12H4.728v4.2A20.523,20.523,0,0,1,.912-8.5L1.32-5.76c.312-.072.48-.12.768-.168,1.392-.264,1.848-.36,2.64-.528v5.04c0,.552-.192.72-.84.72a16.139,16.139,0,0,1-2.544-.24,8.228,8.228,0,0,1,.6,2.592c.624.048,1.224.072,1.656.072a8.4,8.4,0,0,0,2.808-.36A1.963,1.963,0,0,0,7.32-.576v-6.5c1.08-.288,1.656-.456,3.408-.984l-.024-2.4c-1.416.456-1.848.552-3.384.936v-3.648H8.664a16.782,16.782,0,0,1,1.992.1v-2.544a9.262,9.262,0,0,1-1.44.1H7.32v-2.256a17.3,17.3,0,0,1,.144-2.424H4.584a17.191,17.191,0,0,1,.144,2.448Zm11.952-.648V-1.512c0,.528-.192.624-1.2.624a29.6,29.6,0,0,1-3.744-.336,9.363,9.363,0,0,1,.576,2.736c1.272.072,2.112.1,2.9.1A8.34,8.34,0,0,0,18.384,1.2a2.378,2.378,0,0,0,1.008-2.28v-15.1h.888c1.056,0,2.088.048,2.808.12v-2.688a20.8,20.8,0,0,1-2.808.144H12.672a20.8,20.8,0,0,1-2.808-.144v2.688c.744-.072,1.7-.12,2.712-.12ZM29.832-10.56a18.07,18.07,0,0,1,2.064-.1H40.1a17.471,17.471,0,0,1,2.16.1v-1.68a23.326,23.326,0,0,0,3.912,2.112,12.922,12.922,0,0,1,1.32-2.64,22.567,22.567,0,0,1-6.12-3.288,15.681,15.681,0,0,1-4.032-4.056H34.488A16.761,16.761,0,0,1,30.72-16.1a23.98,23.98,0,0,1-6.12,3.456A9.294,9.294,0,0,1,25.992-10.2a24.433,24.433,0,0,0,3.84-2.016Zm2.088-2.592h-.672a16.8,16.8,0,0,0,4.7-4.68,21.923,21.923,0,0,0,4.944,4.68H31.92ZM30.744,1.824V.6H41.232V1.824h2.856A14.993,14.993,0,0,1,43.944-.7V-6.312a16.359,16.359,0,0,1,.12-2.376,15.743,15.743,0,0,1-2.088.1h-12a15.114,15.114,0,0,1-2.064-.1,21.669,21.669,0,0,1,.12,2.376V-.72a19.191,19.191,0,0,1-.144,2.544Zm0-8.088H41.232v4.512H30.744Zm37.824,3.12a19.517,19.517,0,0,1-6.936.912c-3.912,0-4.944-.5-5.136-2.52-.048-.48-.12-3.1-.12-4.344v-.5c.024-1.272.024-1.272.024-1.392v-.648c3.336-.192,3.336-.192,6.984-.336a20.682,20.682,0,0,1-.216,3c-.144.936-.408,1.248-1.032,1.248A7.443,7.443,0,0,1,58.992-8.9a12.776,12.776,0,0,1,.168,1.968c0,.336,0,.48-.024.96a7.867,7.867,0,0,0,3.432.816A2.925,2.925,0,0,0,65.5-6.96a15.344,15.344,0,0,0,.624-5.088c1.128,0,2.5-.024,3.336-.024A8.414,8.414,0,0,1,70.824-12l-.048-2.856a46.28,46.28,0,0,1-4.656.216v-3a10.938,10.938,0,0,1,.12-1.656h-3a25.956,25.956,0,0,1,.144,4.752c-3.576.168-3.576.168-6.936.336a27.959,27.959,0,0,1,.216-4.68H53.448a23.681,23.681,0,0,1,.168,4.08c0,.144,0,.36-.024.744-2.376.144-3.7.216-3.912.216-.12,0-.36,0-.7-.024l.192,2.808a32.779,32.779,0,0,1,4.44-.432c-.024,1.872-.024,1.968-.024,2.328,0,4.128.1,5.472.432,6.552.72,2.3,2.664,3.168,7.152,3.168,1.584,0,4.752-.168,6.5-.36C68.5.1,68.5.1,68.76.072ZM85.176-20.4a13.74,13.74,0,0,1-2.52,3.576c-.456-.336-.624-.456-1.248-.912l-1.7,1.848a30.882,30.882,0,0,1,4.416,3.576l-1.152,1.056c-1.272.024-1.272.024-1.632.048h-.864a13.265,13.265,0,0,1-1.464-.072l.312,2.592a33.933,33.933,0,0,1,4.3-.336,11.412,11.412,0,0,1-5.424,4.416A8.524,8.524,0,0,1,79.776-2.52a15.73,15.73,0,0,0,2.832-1.92A13.965,13.965,0,0,0,84.6-2.424,18.22,18.22,0,0,1,78.24-.336a8.421,8.421,0,0,1,1.2,2.328A19.949,19.949,0,0,0,86.712-.84,21.4,21.4,0,0,0,94.2,1.872,12.826,12.826,0,0,1,95.376-.744a21.586,21.586,0,0,1-6.408-1.7,22.361,22.361,0,0,0,3.552-3.72c.168-.24.216-.288.384-.5L91.416-8.04a18.87,18.87,0,0,1-1.944.1h-3.7a10.445,10.445,0,0,0,.72-1.272c2.184-.168,2.184-.168,5.592-.552.336.576.48.864,1.056,1.9L95.3-9.264a47.478,47.478,0,0,0-3.7-5.28L89.616-13.32c.672.84.888,1.128,1.272,1.656-2.688.216-2.688.216-4.56.288a59.361,59.361,0,0,0,4.7-4.92c.528-.648.7-.864.864-1.032l-2.448-1.32a23.988,23.988,0,0,1-3.6,4.56c-.528-.528-.768-.744-1.44-1.32a36.434,36.434,0,0,0,2.544-3.072c.408-.552.408-.552.624-.816ZM89.088-5.928a12.96,12.96,0,0,1-2.352,2.16,9.2,9.2,0,0,1-2.256-2.16ZM77.784-20.5a11.763,11.763,0,0,1-4.9,4.7,8.635,8.635,0,0,1,1.344,2.208,19.948,19.948,0,0,0,4.176-3.528c.6-.7.624-.72,1.512-1.872ZM75.432-5.16V-.744a18.085,18.085,0,0,1-.144,2.64h2.784c-.072-.792-.1-1.488-.1-2.832v-9.72c.192-.288.792-1.1,1.224-1.728.144-.192.24-.336.288-.384a11.675,11.675,0,0,1,.648-.984l-2.16-1.416a10.943,10.943,0,0,1-1.44,2.376,17.921,17.921,0,0,1-3.984,3.864A9.714,9.714,0,0,1,73.68-6.384a11.157,11.157,0,0,0,1.776-1.728Zm34.44-10.224a5.245,5.245,0,0,1,2.424.72,5.946,5.946,0,0,1,2.952,5.328,6.719,6.719,0,0,1-3.336,6,12.755,12.755,0,0,1-4.776,1.32A7.656,7.656,0,0,1,108.6.792a15.691,15.691,0,0,0,3.768-1.008A9.246,9.246,0,0,0,118.2-9.168c0-5.4-3.744-8.9-9.5-8.9a10.774,10.774,0,0,0-8.256,3.36A10.309,10.309,0,0,0,97.8-7.728c0,3.864,1.968,6.648,4.7,6.648,1.968,0,3.5-1.416,4.872-4.512A34.72,34.72,0,0,0,109.872-15.384Zm-2.928.024a31.63,31.63,0,0,1-1.992,8.112c-.864,2.064-1.68,3.072-2.472,3.072-1.056,0-1.9-1.56-1.9-3.528a8.035,8.035,0,0,1,3.264-6.48A6.109,6.109,0,0,1,106.944-15.36Zm36.1-3.072a15.661,15.661,0,0,1-2.688.144h-5.616c.264-.528.408-.816.792-1.608l-2.592-.5a11.573,11.573,0,0,1-3.72,5.568c.024-.6.048-.888.1-1.3h-2.52a17.293,17.293,0,0,1,.1,2.232v9.768a13.256,13.256,0,0,1-.144,2.5h2.592a14.213,14.213,0,0,1-.12-2.448v-9.672a9.1,9.1,0,0,1,1.176,1.056,14.4,14.4,0,0,0,1.92-1.9,11.9,11.9,0,0,0,1.944,2.328,15.939,15.939,0,0,1-4.608,1.608A8.308,8.308,0,0,1,130.7-8.592a20.426,20.426,0,0,0,5.328-2.232,19.291,19.291,0,0,0,6.624,2.664,9.384,9.384,0,0,1,1.008-2.472,16.09,16.09,0,0,1-5.688-1.632,14.241,14.241,0,0,0,2.952-3.792,17.878,17.878,0,0,1,2.112.1Zm-4.728,2.376a8.471,8.471,0,0,1-2.208,2.568,9.882,9.882,0,0,1-2.28-2.568ZM123.216-.888a25.319,25.319,0,0,1-.144,2.88h2.64a25.289,25.289,0,0,1-.12-2.88v-13.2a31.921,31.921,0,0,0,1.8-4.44c.216-.7.216-.7.36-1.08l-2.712-.7a20.191,20.191,0,0,1-4.56,9.48,12.1,12.1,0,0,1,1.152,2.808,12.431,12.431,0,0,0,1.656-2.568c-.048,1.08-.072,1.68-.072,2.856Zm12.792-8.88C134.784-8.64,132.7-7.776,129.7-7.176A6.8,6.8,0,0,1,130.9-5.3a18.45,18.45,0,0,0,6.024-2.568c.648-.456.648-.456.864-.6Zm2.424,1.824c-1.224,1.608-4.872,3.336-8.52,4.032A6.338,6.338,0,0,1,131.064-1.9a21.407,21.407,0,0,0,9.384-4.68Zm2.76,2.112a10.018,10.018,0,0,1-3.048,2.616,23.874,23.874,0,0,1-9.1,3.072,9.341,9.341,0,0,1,1.248,2.16c5.5-1.176,8.52-2.592,11.976-5.616.36-.336.648-.552.936-.792ZM155.4-1.56h-3.888V-9.336a22.393,22.393,0,0,1,.168-3.1h-3.048a23.24,23.24,0,0,1,.168,3.12V-1.56h-.5a17.505,17.505,0,0,1-3.12-.168V1.056a26.047,26.047,0,0,1,3.168-.168H163.68a23.865,23.865,0,0,1,3.144.168V-1.728a25.26,25.26,0,0,1-3.168.168h-5.5V-8.352h4.1a21.325,21.325,0,0,1,2.688.144v-2.664a20.541,20.541,0,0,1-2.688.144h-4.1v-5.856h4.824c1.056,0,2.088.048,3.048.144v-2.712a30.208,30.208,0,0,1-3.048.144h-13.9a28.075,28.075,0,0,1-3.024-.144v2.712c1.008-.1,1.92-.144,3.048-.144H155.4Z" transform="translate(31 378)" fill="#252525"/>
        <rect id="長方形_2771" data-name="長方形 2771" width="10" height="36" transform="translate(10 449)" fill="#03cdd5"/>
        <path id="パス_3157" data-name="パス 3157" d="M5.52-18.408H4.008a14.358,14.358,0,0,1-2.3-.12v2.352a7.977,7.977,0,0,1,1.368-.1,9.932,9.932,0,0,1,.648,2.136H3.528a13.083,13.083,0,0,1-2.352-.12v2.376A12.681,12.681,0,0,1,3.408-12H9.792a15.771,15.771,0,0,1,1.728.072v-2.3a12.321,12.321,0,0,1-1.776.1H9.6a15.257,15.257,0,0,0,.84-2.136,1.268,1.268,0,0,0,.312.024,2.608,2.608,0,0,1,.432.024.827.827,0,0,1,.216.024v-2.3a11.964,11.964,0,0,1-1.752.1H8.016v-.336a6.151,6.151,0,0,1,.12-1.488H5.4a9.342,9.342,0,0,1,.12,1.488Zm.408,4.272c-.24-.96-.384-1.464-.6-2.136H8.184a8.931,8.931,0,0,1-.72,2.136Zm1.2,8.5v3.672A10.4,10.4,0,0,1,5.5-1.56l.48,2.568A6.911,6.911,0,0,1,6.72.7C7.656.336,7.92.24,8.592-.072A26.826,26.826,0,0,0,12.168-1.9L12.1-4.08c-1.1.576-1.728.888-2.664,1.3V-5.64c.912,0,.912,0,1.632.048A11.125,11.125,0,0,1,10.992-7.2V-9.6a7.978,7.978,0,0,1,.1-1.536c-.648.048-.984.072-1.968.072h-4.9a16.59,16.59,0,0,1-2.112-.072,9.614,9.614,0,0,1,.1,1.584v2.376a9.933,9.933,0,0,1-.1,1.608c.672-.048.672-.048,1.584-.072A7.217,7.217,0,0,1,.648.216a11.359,11.359,0,0,1,1.7,1.944A8.639,8.639,0,0,0,4.92-1.1,11.768,11.768,0,0,0,6.048-5.64ZM4.68-9.144H8.592v1.536H4.68Zm11.136-9.264H13.968a11.964,11.964,0,0,1-1.752-.1v2.3c.456-.048.552-.048,1.152-.072a12.922,12.922,0,0,1,.648,2.136h-.144a12.321,12.321,0,0,1-1.776-.1v2.3A15.771,15.771,0,0,1,13.824-12h6.768a16.122,16.122,0,0,1,2.232.12v-2.376a13.083,13.083,0,0,1-2.352.12h-.36a15.882,15.882,0,0,0,.84-2.136,7.345,7.345,0,0,1,1.344.1v-2.352a14.728,14.728,0,0,1-2.3.12h-1.68v-.336a7.873,7.873,0,0,1,.12-1.488H15.7a7.189,7.189,0,0,1,.12,1.488Zm.384,4.272a16.682,16.682,0,0,0-.6-2.136h3.048a10.326,10.326,0,0,1-.744,2.136Zm1.128,8.5V-.168c0,1.272.648,1.728,2.52,1.728,1.512,0,2.376-.24,2.784-.768.432-.6.624-1.488.744-3.864a10.438,10.438,0,0,1-2.064-.7,11.525,11.525,0,0,1-.192,2.616c-.1.312-.312.408-.888.408-.456,0-.6-.12-.6-.48V-5.64h.192c.84,0,1.464.024,2.04.072a9.563,9.563,0,0,1-.1-1.608V-9.552a9.613,9.613,0,0,1,.1-1.584c-.648.048-1.08.072-2.136.072h-5.28c-.912,0-1.392-.024-1.992-.072a8.3,8.3,0,0,1,.1,1.536v2.4a11.6,11.6,0,0,1-.072,1.608c.6-.024.6-.024,1.512-.048a5.942,5.942,0,0,1-1.32,3.888A7.235,7.235,0,0,1,9.888.288,7.784,7.784,0,0,1,11.664,2.16,8.115,8.115,0,0,0,15.192-1.1,10.933,10.933,0,0,0,16.368-5.64Zm1.944-3.5v1.536h-4.3V-9.144Zm10.56-1.416a18.07,18.07,0,0,1,2.064-.1H40.1a17.471,17.471,0,0,1,2.16.1v-1.68a23.326,23.326,0,0,0,3.912,2.112,12.922,12.922,0,0,1,1.32-2.64,22.567,22.567,0,0,1-6.12-3.288,15.681,15.681,0,0,1-4.032-4.056H34.488A16.761,16.761,0,0,1,30.72-16.1a23.98,23.98,0,0,1-6.12,3.456A9.294,9.294,0,0,1,25.992-10.2a24.433,24.433,0,0,0,3.84-2.016Zm2.088-2.592h-.672a16.8,16.8,0,0,0,4.7-4.68,21.923,21.923,0,0,0,4.944,4.68H31.92ZM30.744,1.824V.6H41.232V1.824h2.856A14.993,14.993,0,0,1,43.944-.7V-6.312a16.359,16.359,0,0,1,.12-2.376,15.743,15.743,0,0,1-2.088.1h-12a15.114,15.114,0,0,1-2.064-.1,21.669,21.669,0,0,1,.12,2.376V-.72a19.191,19.191,0,0,1-.144,2.544Zm0-8.088H41.232v4.512H30.744ZM63.12-13.056v1.7h-.936a8.2,8.2,0,0,1-1.416-.1V-9.24a8.2,8.2,0,0,1,1.416-.1H66.24a7.806,7.806,0,0,1,1.44.1v-2.208a8.265,8.265,0,0,1-1.464.1h-.96v-1.7h.792a11.825,11.825,0,0,1,1.464.072v-2.16a8.617,8.617,0,0,1-1.464.1h-.792a8.107,8.107,0,0,1,.1-1.56H63.024a8.6,8.6,0,0,1,.1,1.56H62.4a9.36,9.36,0,0,1-1.416-.1v2.16a11.939,11.939,0,0,1,1.44-.072Zm-2.784-4.1H68.16V-1.248c0,.5-.168.6-1.008.6a18.408,18.408,0,0,1-2.52-.24,8.566,8.566,0,0,1,.528,2.5c.96.048,1.44.072,2.208.072a3.888,3.888,0,0,0,2.472-.5,2.273,2.273,0,0,0,.672-1.848v-16.1a20.857,20.857,0,0,1,.12-2.712,21.415,21.415,0,0,1-2.52.1H60.48a23.253,23.253,0,0,1-2.544-.1,34.31,34.31,0,0,1,.144,4.368,90.411,90.411,0,0,1-.5,11.136A12.366,12.366,0,0,1,56.568-.168V-4.08a12.333,12.333,0,0,1,.072-1.7c-.312.024-.312.024-1.44.048H51.36a9.118,9.118,0,0,1-1.632-.072,14.988,14.988,0,0,1,.1,1.872V-.384c0,.768-.048,1.632-.12,2.352h2.352V.744h2.376v.744H56.64A6.628,6.628,0,0,1,56.568.432a9.316,9.316,0,0,1,1.776,1.584,16.65,16.65,0,0,0,1.32-4.392,82.864,82.864,0,0,0,.672-12.144ZM52.008-3.72h2.448v2.352H52.008ZM49.872-17.16c.576-.048,1.08-.072,1.944-.072h2.928c.864,0,1.3.024,1.944.072v-2.376a10.541,10.541,0,0,1-1.944.12H51.816a10.384,10.384,0,0,1-1.944-.12Zm-.72,3.5a14.735,14.735,0,0,1,1.944-.1h4.248a11.032,11.032,0,0,1,1.824.1v-2.472a13.2,13.2,0,0,1-1.944.1H51.1a14.055,14.055,0,0,1-1.944-.1Zm.7,3.336a11.891,11.891,0,0,1,1.512-.072H55.1a11.559,11.559,0,0,1,1.464.072v-2.256A10.8,10.8,0,0,1,55.1-12.5H51.36a12.154,12.154,0,0,1-1.512-.072Zm0,3.336a12.154,12.154,0,0,1,1.512-.072h3.7a11.891,11.891,0,0,1,1.512.072V-9.216a10.968,10.968,0,0,1-1.488.072H51.36a12.154,12.154,0,0,1-1.512-.072Zm17.064.36a13.493,13.493,0,0,1,.072-1.584,12.593,12.593,0,0,1-1.608.072H62.592a15.166,15.166,0,0,1-1.608-.072,15.518,15.518,0,0,1,.072,1.656v4.464a13.57,13.57,0,0,1-.1,1.968H63V-1.8h2.376c.072,0,.264,0,.576.024a4.5,4.5,0,0,1,.5.024,3.716,3.716,0,0,1,.528.024A7.993,7.993,0,0,1,66.912-3ZM63-6.1h1.968v2.232H63ZM82.56-18H76.32a21.772,21.772,0,0,1-2.88-.144v2.592a21.868,21.868,0,0,1,2.688-.144H80.28a18.582,18.582,0,0,1-7.608,4.512,10.087,10.087,0,0,1,1.488,2.3A19.717,19.717,0,0,0,77.04-10.3c.024.48.024.624.024,1.32v7.824H75.84A20.288,20.288,0,0,1,73.152-1.3V1.32a22.9,22.9,0,0,1,2.856-.144H92.016a22.221,22.221,0,0,1,2.832.144V-1.3a19.015,19.015,0,0,1-2.64.144h-1.32V-8.76c0-.72,0-.72.024-1.512a18.494,18.494,0,0,0,3,1.44,14.168,14.168,0,0,1,1.464-2.52A16.967,16.967,0,0,1,87.384-15.7h4.488a22.566,22.566,0,0,1,2.712.144v-2.592A20.945,20.945,0,0,1,91.872-18H85.1v-.312a9.26,9.26,0,0,1,.144-1.848H82.416a8.237,8.237,0,0,1,.144,1.848Zm0,4.68a8.749,8.749,0,0,1-.12,1.56h2.784A6.981,6.981,0,0,1,85.1-13.3v-.528c0-.168-.024-.6-.048-1.3a14.949,14.949,0,0,0,4.224,3.864h-10.7A16.761,16.761,0,0,0,82.584-15c-.024.768-.024,1.176-.024,1.176Zm-2.952,4.2h8.736V-7.8H79.608Zm0,3.312h8.736v1.344H79.608Zm0,3.336h8.736v1.32H79.608Z" transform="translate(31 475)" fill="#252525"/>
        <rect id="長方形_2772" data-name="長方形 2772" width="1103" height="94" transform="translate(270 519)" fill="#fff"/>
        <rect id="長方形_2773" data-name="長方形 2773" width="263" height="94" transform="translate(0 519)" fill="#fff"/>
        <rect id="長方形_2774" data-name="長方形 2774" width="10" height="36" transform="translate(11 552)" fill="#03cdd5"/>
        <path id="パス_3158" data-name="パス 3158" d="M8.1-2.5a6.356,6.356,0,0,0,2.074-.281,2,2,0,0,0,1.512-2,1.479,1.479,0,0,0-.75-1.324,8.065,8.065,0,0,0-2.355-.809L6.75-7.324A11.552,11.552,0,0,1,3.023-8.648a4.212,4.212,0,0,1-1.746-3.738,4.992,4.992,0,0,1,1.688-3.855,7.135,7.135,0,0,1,4.957-1.535A7.537,7.537,0,0,1,12.58-16.33a5.167,5.167,0,0,1,2.021,4.2H11.133a2.478,2.478,0,0,0-1.359-2.215,4.559,4.559,0,0,0-2.1-.434,3.916,3.916,0,0,0-2.227.563,1.791,1.791,0,0,0-.832,1.57,1.486,1.486,0,0,0,.82,1.383,10.041,10.041,0,0,0,2.25.715l2.977.715a7.7,7.7,0,0,1,2.953,1.254,4.223,4.223,0,0,1,1.547,3.527,4.978,4.978,0,0,1-1.811,3.932A7.586,7.586,0,0,1,8.238.445,8.3,8.3,0,0,1,2.93-1.1,5.121,5.121,0,0,1,1-5.332H4.441a3.547,3.547,0,0,0,.645,1.77A3.709,3.709,0,0,0,8.1-2.5ZM29.859-7.547H21.469v4.441h9.563V0H17.941V-17.273H30.609v3.059H21.469v3.668h8.391ZM41.484.48a7.532,7.532,0,0,1-5.66-2.016Q33.2-4.008,33.2-8.66q0-4.746,2.625-7.125a7.532,7.532,0,0,1,5.66-2.016,7.532,7.532,0,0,1,5.66,2.016q2.613,2.379,2.613,7.125,0,4.652-2.613,7.125A7.532,7.532,0,0,1,41.484.48Zm3.41-4.641a7.093,7.093,0,0,0,1.254-4.5,7.074,7.074,0,0,0-1.26-4.494,4.117,4.117,0,0,0-3.4-1.588,4.172,4.172,0,0,0-3.422,1.582,7,7,0,0,0-1.277,4.5,7,7,0,0,0,1.277,4.5,4.172,4.172,0,0,0,3.422,1.582A4.139,4.139,0,0,0,44.895-4.16Zm11.381-12.3H54.092a17.29,17.29,0,0,1-2.376-.144v2.616a15.441,15.441,0,0,1,2.232-.12h4.44a23.272,23.272,0,0,1-.936,5.088c-.912-1.056-1.32-1.512-1.512-1.7-1.416-1.464-1.416-1.464-1.9-1.944L52.292-10.9a43.662,43.662,0,0,1,4.08,4.416A16.657,16.657,0,0,1,51.452-.6a8.589,8.589,0,0,1,1.824,2.232A23.587,23.587,0,0,0,58.052-4.3a34.471,34.471,0,0,1,2.76,4.152l1.9-2.112C61-4.656,60.812-4.92,59.3-6.84a24.585,24.585,0,0,0,1.632-7.272,17.908,17.908,0,0,1,1.872.072v-2.568a12.817,12.817,0,0,1-2.3.144H58.8v-1.344a19.046,19.046,0,0,1,.12-2.256H56.132a11.367,11.367,0,0,1,.144,2.256ZM68.66-12.816V-1.368c0,.5-.144.576-1.44.576a24.112,24.112,0,0,1-2.9-.288,7.953,7.953,0,0,1,.744,2.664c.96.072,1.848.1,2.832.1,1.584,0,2.448-.24,2.9-.816.36-.432.432-.84.432-2.088V-12.816h.312a13.948,13.948,0,0,1,1.68.072c.36.048.36.048.552.072V-15.36a13.762,13.762,0,0,1-2.256.144h-.288v-1.9a21.61,21.61,0,0,1,.144-2.856h-2.88a16.1,16.1,0,0,1,.168,2.856v1.9H65.612a14.576,14.576,0,0,1-2.28-.12v2.64a14.954,14.954,0,0,1,2.28-.12Zm-6.552,2.664a21.4,21.4,0,0,1,3.36,5.808l2.184-1.44a30.139,30.139,0,0,0-3.384-5.544Zm18.816-6.024A19.321,19.321,0,0,1,82-13.7l2.352-.672c-.408-.816-.552-1.1-.96-1.8h1.392a9.285,9.285,0,0,1,1.08.048c-.192.168-.264.24-.528.456a8.539,8.539,0,0,1,1.368,1.224H85.1a7.942,7.942,0,0,1,.12,1.3H78.668a15.347,15.347,0,0,1-2.544-.168v2.5c.744-.072,1.56-.12,2.544-.12H85.22v1.2H80.06a17.446,17.446,0,0,1-2.088-.1,15.95,15.95,0,0,1,.1,1.944v2.112a18.467,18.467,0,0,1-.12,2.208h2.688a12.99,12.99,0,0,1-.1-1.944V-7.632h4.68v.864a9.045,9.045,0,0,1-1.752,1.824,17.378,17.378,0,0,1-2.76,1.968,27.321,27.321,0,0,1-5.04,2.064,9.158,9.158,0,0,1,1.848,2.3A26.256,26.256,0,0,0,81.548-.6a13.4,13.4,0,0,0,3.744-3.336c-.048.624-.072,1.368-.072,1.68L85.244-.5V-.24a13.393,13.393,0,0,1-.192,2.256H87.98a12.25,12.25,0,0,1-.192-2.5L87.764-2.3c0-.648-.024-.96-.048-1.752a7.975,7.975,0,0,0,1.512,1.608A14.268,14.268,0,0,0,91.412-.816a25.082,25.082,0,0,0,4.68,2.208A9.69,9.69,0,0,1,97.82-.984a25.788,25.788,0,0,1-5.28-1.968,15.445,15.445,0,0,1-4.728-3.816v-.864h5.136V-6.24c0,.36-.168.456-.672.456a12.714,12.714,0,0,1-1.512-.144,6.3,6.3,0,0,1,.48,2.088c.672.048,1.248.072,1.68.072A3.835,3.835,0,0,0,94.7-4.032a1.612,1.612,0,0,0,.7-1.56V-7.848a15.062,15.062,0,0,1,.1-1.992c-.288.048-1.032.072-2.232.1H87.812v-1.2h7.08a18.5,18.5,0,0,1,2.568.12v-2.5a14.191,14.191,0,0,1-2.568.168h-7.08a7.409,7.409,0,0,1,.12-1.3h-.36a12.08,12.08,0,0,0,1.392-1.7h1.584A14.842,14.842,0,0,1,91.7-13.68l2.424-.648c-.336-.672-.648-1.248-1.008-1.824h1.968a18.8,18.8,0,0,1,2.52.12V-18.5a20.254,20.254,0,0,1-2.64.144H90.236c.216-.456.216-.456.7-1.464l-2.568-.456a8.118,8.118,0,0,1-1.824,3.432v-1.68a16.085,16.085,0,0,1-2.328.144H81c.432-.792.672-1.272.768-1.44L79.2-20.28a9.867,9.867,0,0,1-3.7,4.9,10.868,10.868,0,0,1,1.7,1.8,13.7,13.7,0,0,0,2.424-2.592Zm33.3,17.6a12.3,12.3,0,0,1-2.032-3.184,10.823,10.823,0,0,1-.848-4.384,10.5,10.5,0,0,1,.832-4.24,12.469,12.469,0,0,1,2.032-3.184h-2.24a12.916,12.916,0,0,0-1.76,3.152,11.323,11.323,0,0,0-.816,4.272,11.774,11.774,0,0,0,.848,4.416,12.815,12.815,0,0,0,1.744,3.152Zm5.968-10.416a4.961,4.961,0,0,1,1.152,1.408,12.137,12.137,0,0,0,3.92-4.224,13.04,13.04,0,0,0,4.384,4.336,6.9,6.9,0,0,1,.88-1.68,11.677,11.677,0,0,1-2.32-1.584,9.636,9.636,0,0,1-2.016-2.544h-1.952a9.838,9.838,0,0,1-3.1,3.712v-1.2a8.417,8.417,0,0,1-1.28.064h-3.168a7.048,7.048,0,0,1-1.28-.08V-9.12a9.563,9.563,0,0,1,1.28-.064h3.84Zm-4.256-2.5a9.979,9.979,0,0,1,1.3-.064h2.256a9.518,9.518,0,0,1,1.3.064V-13.04a7.241,7.241,0,0,1-1.3.08h-2.256a7.027,7.027,0,0,1-1.3-.08Zm.048,4.624a8.1,8.1,0,0,1,1.008-.048h2.768a7.883,7.883,0,0,1,.976.048v-1.5a7.041,7.041,0,0,1-.976.048h-2.768a5.938,5.938,0,0,1-1.008-.048Zm0,2.256a7.992,7.992,0,0,1,.992-.048h2.752a7.927,7.927,0,0,1,1.008.048v-1.5a5.45,5.45,0,0,1-.992.048h-2.752a5.938,5.938,0,0,1-1.008-.048ZM117.5,1.28V.528h1.76v.528h1.6A10.354,10.354,0,0,1,120.8-.272V-2.7a9.926,9.926,0,0,1,.048-1.152,8.64,8.64,0,0,1-1.1.048h-2.592a8.761,8.761,0,0,1-1.248-.064,9.993,9.993,0,0,1,.064,1.248V-.288c0,.528-.032,1.072-.08,1.568Zm0-3.712h1.76V-.88H117.5Zm7.968-7.3A9.545,9.545,0,0,1,121.212-6.4a5.942,5.942,0,0,1,.912,1.3,12.708,12.708,0,0,0,4.176-3.12c.192-.208.192-.208.448-.464Zm3.312,4.7A8.938,8.938,0,0,1,126.748-2.8,13.737,13.737,0,0,1,121.34-.112a4.88,4.88,0,0,1,1.072,1.472,17.068,17.068,0,0,0,3.1-1.312,14.517,14.517,0,0,0,3.424-2.656c.912-.992.912-.992,1.2-1.312ZM127.1-7.408a6.533,6.533,0,0,1-1.44,1.6,11.993,11.993,0,0,1-4.384,2.432A7.208,7.208,0,0,1,122.332-2a17.081,17.081,0,0,0,1.7-.784,15.265,15.265,0,0,0,2.56-1.76,21.038,21.038,0,0,0,1.824-1.824Zm15.968.192V-.56a14.06,14.06,0,0,1-.1,1.824h1.872a14.232,14.232,0,0,1-.1-1.824V-7.216h.16a7.048,7.048,0,0,1,1.28.08V-8.96a8.7,8.7,0,0,1-1.408.1h-3.216v-1.92a18.539,18.539,0,0,0,3.856-1.04c.256-.1.256-.1.5-.176a.407.407,0,0,0,.112-.032L144.764-13.6a6.41,6.41,0,0,1-1.52.736,13.352,13.352,0,0,1-3.376.72,17.023,17.023,0,0,1,.08,2.208c0,5.392-.32,7.488-1.376,9.216v-.96a15.793,15.793,0,0,1-1.664.064H133.42V-3.792a6.53,6.53,0,0,1,.832,1.056,8.6,8.6,0,0,0,1.7-2.816c-.016.24-.016.256-.032.528a4.953,4.953,0,0,0-.032.688v1.248a5.937,5.937,0,0,1-.08,1.12h1.632a6.712,6.712,0,0,1-.064-1.088V-4.48c0-.24-.032-.736-.064-1.12a9.156,9.156,0,0,0,1.536,2.224,5.964,5.964,0,0,1,.752-1.408,8.719,8.719,0,0,1-1.936-2.432h.544a7.936,7.936,0,0,1,1.184.064V-8.816a5.491,5.491,0,0,1-1.056.064h-.96v-3.36a6.32,6.32,0,0,1,.08-1.3H135.8a8.552,8.552,0,0,1,.064,1.28v3.376H134.86a7.892,7.892,0,0,1-1.1-.064v1.664a6.879,6.879,0,0,1,1.072-.064h.528a9.5,9.5,0,0,1-1.936,3.024V-11.6a6.772,6.772,0,0,1,.1-1.36h-1.84a15.045,15.045,0,0,1,.1,1.808V-.816a16.207,16.207,0,0,1-.1,1.84h1.744V-.064h3.456c.592,0,.768,0,1.216.032a6.27,6.27,0,0,1,1.264,1.44,9.33,9.33,0,0,0,1.744-4.1,26.513,26.513,0,0,0,.448-4.528ZM133.5-12.24a13.4,13.4,0,0,1,.976,3.088l1.216-.512a22.521,22.521,0,0,0-.944-3.152Zm4.8-.576a13.193,13.193,0,0,1-.816,3.088l1.072.56a15.052,15.052,0,0,0,1.024-3.088Zm11.584.224a7.783,7.783,0,0,1,.08,1.648L149.9-2.3a5.642,5.642,0,0,1-.144,1.648L150.78.576A4.584,4.584,0,0,1,151.74.3a14.586,14.586,0,0,0,5.824-2.192,11.928,11.928,0,0,0,3.568-3.728,7.516,7.516,0,0,1-1.52-1.632,9.455,9.455,0,0,1-3.264,3.664,11.508,11.508,0,0,1-4.368,1.76l.08-9.136a12.381,12.381,0,0,1,.1-1.616Zm21.744,2.4v-.848a12.75,12.75,0,0,1,.064-1.7h-2.16a9.08,9.08,0,0,1,.1,1.648v.9h-3.52a10.269,10.269,0,0,1-2.048-.112v1.968a13.647,13.647,0,0,1,2.016-.08h3.552V-.672a11.916,11.916,0,0,1-.1,1.808h2.176a12.357,12.357,0,0,1-.08-1.792v-7.76h3.7a13.774,13.774,0,0,1,2.032.08v-1.888a1.864,1.864,0,0,0,1.216-1.744,1.854,1.854,0,0,0-1.856-1.84,1.851,1.851,0,0,0-1.84,1.84,1.834,1.834,0,0,0,1.3,1.76c-.384.016-.544.016-.88.016Zm5.088-2.816a1.042,1.042,0,0,1,1.056,1.04,1.055,1.055,0,0,1-1.056,1.056,1.052,1.052,0,0,1-1.04-1.056A1.038,1.038,0,0,1,176.716-13.008Zm-10.672,5.76a13,13,0,0,1-2.7,6.16A6.978,6.978,0,0,1,165.2-.048a16.908,16.908,0,0,0,2.688-6.224c.032-.144.064-.24.064-.272.016-.032.032-.128.064-.224Zm7.184.48a4.094,4.094,0,0,1,.256.736,21.342,21.342,0,0,0,2.624,5.984,10.58,10.58,0,0,1,1.84-1.1,17.648,17.648,0,0,1-2.832-6.1Zm6.592,1.744a17.565,17.565,0,0,1,2.608-.08h8.5a17.564,17.564,0,0,1,2.608.08V-7.248a15.713,15.713,0,0,1-2.592.112h-8.528a15.713,15.713,0,0,1-2.592-.112ZM201.116.72a17.588,17.588,0,0,1-.064-1.776V-5.28a8.271,8.271,0,0,0-.064-1.088,5.169,5.169,0,0,0,.544.272A37.854,37.854,0,0,1,207.2-3.04l1.12-1.888A47.007,47.007,0,0,0,201.052-8.3V-11.28a10.724,10.724,0,0,1,.064-1.68h-2.192a10.285,10.285,0,0,1,.1,1.632V-1.072a10.778,10.778,0,0,1-.1,1.792Zm12.288.7a13.367,13.367,0,0,0,1.744-3.152,12.017,12.017,0,0,0,.832-4.416,11.323,11.323,0,0,0-.816-4.272,12.77,12.77,0,0,0-1.744-3.152h-2.256a13.073,13.073,0,0,1,2.048,3.184,10.387,10.387,0,0,1,.816,4.24,10.77,10.77,0,0,1-.848,4.384,12.3,12.3,0,0,1-2.032,3.184Z" transform="translate(31 577)" fill="#252525"/>
        <rect id="長方形_2775" data-name="長方形 2775" width="1103" height="94" transform="translate(270 618)" fill="#f9f9f9"/>
        <rect id="長方形_2776" data-name="長方形 2776" width="263" height="94" transform="translate(0 619)" fill="#f9f9f9"/>
        <rect id="長方形_2777" data-name="長方形 2777" width="10" height="36" transform="translate(11 652)" fill="#03cdd5"/>
        <path id="パス_3159" data-name="パス 3159" d="M17.328-5.544v4.152c0,.528-.168.648-.888.648a24.267,24.267,0,0,1-3.528-.288,8.683,8.683,0,0,1,.7,2.688c1.224.072,2.016.1,2.784.1,1.584,0,2.256-.12,2.784-.48.6-.384.864-1.08.864-2.28V-16.56a18.1,18.1,0,0,1,.12-2.712,21.633,21.633,0,0,1-2.784.12H7.368a24.215,24.215,0,0,1-2.808-.12,33.822,33.822,0,0,1,.12,3.624c0,6.24-.24,9.048-.96,11.28A9.087,9.087,0,0,1,1.152-.144,9.284,9.284,0,0,1,3.384,2.064,13.458,13.458,0,0,0,6.216-2.688a17.788,17.788,0,0,0,.7-2.856ZM7.2-7.992c.144-1.944.192-2.472.192-3.216h9.936v3.216Zm.216-5.664v-3h9.912v3Zm26.136-.576a7.617,7.617,0,0,1-1.1.048h-1.92c.216-.384.216-.384.36-.672l.192-.384L28.848-15.7A9.665,9.665,0,0,1,24.72-10.92a5.277,5.277,0,0,1,1.272,1.872,11.443,11.443,0,0,0,1.728-1.44,12.9,12.9,0,0,0,1.416,1.464,14.392,14.392,0,0,1-4.7,2.16,5.723,5.723,0,0,1,1.2,2.208c.5-.216.648-.288,1.056-.48.024.36.024.552.024.888V-.5a19.219,19.219,0,0,1-.12,2.232h2.472V.408h3.288V1.536h2.4C34.728,1.224,34.7.864,34.68.384a7.585,7.585,0,0,1,1.272,1.8,13.273,13.273,0,0,0,4.872-3.456L39.072-2.784h3.936l-1.68,1.536a13.221,13.221,0,0,0,4.848,3.384,9.531,9.531,0,0,1,1.44-2.3A10.979,10.979,0,0,1,43.2-2.784h.816c.576,0,1.248.024,2.064.072-.048-.864-.072-1.44-.072-2.472v-8.28c0-.912.024-1.464.072-2.136a16.54,16.54,0,0,1-2.352.072H42.144a17.762,17.762,0,0,0,.6-1.68h1.7a18.586,18.586,0,0,1,2.52.12v-2.544a17.818,17.818,0,0,1-2.52.12H38.184a16.737,16.737,0,0,1-2.52-.12V-18.1c-.36.024-.792.048-1.776.048H31.92v-.48a6.351,6.351,0,0,1,.12-1.536H29.28a7.013,7.013,0,0,1,.12,1.512v.5H27.144a15.416,15.416,0,0,1-1.92-.072c.048.6.072,1.176.072,1.608v1.152a11.47,11.47,0,0,1-.1,1.536h2.376v-2.088h5.976Zm.864.312h1.392a10.9,10.9,0,0,1-.072-1.608v-1.56a20.86,20.86,0,0,1,2.448-.12h2.088c-.168.528-.264.84-.6,1.68H38.28a19.073,19.073,0,0,1-2.016-.048c.072,1.176.072,1.176.072,2.256v8.4c0,.552-.024,1.632-.072,2.208q1.26-.072,1.872-.072h.72a8.85,8.85,0,0,1-1.872,1.632A8.492,8.492,0,0,1,34.656.024v-4.1c0-.912,0-.912.048-1.656l.7.216a7.8,7.8,0,0,1,.84-2.16,18.482,18.482,0,0,1-3.816-1.44A20.346,20.346,0,0,0,34.9-12.48c.12-.168.144-.192.288-.384l.1-.12Zm-2.16,1.728a16.04,16.04,0,0,1-1.608,1.92,9.63,9.63,0,0,1-1.632-1.656,1.046,1.046,0,0,0,.216-.264ZM28.344-5.976a15.091,15.091,0,0,0,2.5-1.68A21.921,21.921,0,0,0,34.032-6c-.288.024-.432.024-.936.024Zm.7,1.992h3.312v2.328H29.04Zm9.648-9.384h4.944v1.44H38.688Zm0,3.408h4.944v1.512H38.688Zm0,3.48h4.944v1.488H38.688Zm20.16,4.488c.528-.168,1.224-.36,2.28-.6l5.088-1.152v2.9a17.4,17.4,0,0,1-.144,2.856h2.9a17.6,17.6,0,0,1-.144-2.832v-3.5l.24-.048a17.531,17.531,0,0,1,2.3-.432l-.5-2.736a14.637,14.637,0,0,1-2.04.6V-17.352a16.964,16.964,0,0,1,.144-2.76h-2.9a16.424,16.424,0,0,1,.144,2.784V-6.36L60.6-5.112a16.072,16.072,0,0,1-2.208.336,14,14,0,0,1,.672-1.344,12.745,12.745,0,0,1-3.1-3.672h.864a13.958,13.958,0,0,1,1.9.1v-2.5a12.154,12.154,0,0,1-1.848.1H55.752v-5.712a14.328,14.328,0,0,1,.12-2.328H53.136a14.85,14.85,0,0,1,.12,2.352V-12.1H51.648a11.919,11.919,0,0,1-2.16-.12v2.544a12.417,12.417,0,0,1,2.16-.12H52.9A20.236,20.236,0,0,1,51.624-7.08a15.781,15.781,0,0,1-2.592,3.552,7.229,7.229,0,0,1,1.224,2.472,16.578,16.578,0,0,0,3.12-5.4c-.048.792-.1,1.92-.1,2.88v3.1a15.541,15.541,0,0,1-.168,2.544H55.9a14.2,14.2,0,0,1-.144-2.5v-3.96c0-.768-.024-1.1-.144-2.736a17.755,17.755,0,0,0,2.424,3.384c.12-.384.144-.5.264-.816ZM49.32-17.9a19.365,19.365,0,0,1,1.488,5.136l2.016-.864a29.191,29.191,0,0,0-1.464-5.184Zm8.256-.96A19.965,19.965,0,0,1,55.92-13.68l1.752.912a29.043,29.043,0,0,0,1.92-5.208Zm2.28,2.184a20.275,20.275,0,0,1,4.248,3.7L65.736-15a23.312,23.312,0,0,0-4.2-3.528Zm-.744,5.928a20.993,20.993,0,0,1,4.224,3.7L64.968-9a21.9,21.9,0,0,0-4.176-3.528Zm23.4-.576V-9H76.848a17.713,17.713,0,0,1-2.616-.144V-6.48a19.718,19.718,0,0,1,2.592-.144h5.688v5.376H76.488a25.933,25.933,0,0,1-2.976-.144v2.76A23.663,23.663,0,0,1,76.488,1.2H91.656a22.137,22.137,0,0,1,2.88.168v-2.76a22.483,22.483,0,0,1-2.832.144H85.176V-6.624h6.048a19.015,19.015,0,0,1,2.64.144V-9.144A17.056,17.056,0,0,1,91.248-9H85.176v-2.328h2.448a16.4,16.4,0,0,1,2.352.12v-1.224a24.47,24.47,0,0,0,4.2,2.112,12.25,12.25,0,0,1,1.3-2.64,19.879,19.879,0,0,1-6.36-3.24,14.2,14.2,0,0,1-3.7-3.7H82.44c-1.728,2.88-5.328,5.472-9.792,7.032a10.663,10.663,0,0,1,1.392,2.472,25.9,25.9,0,0,0,3.912-1.968v1.152a16.817,16.817,0,0,1,2.352-.12Zm-2.784-2.256a16.932,16.932,0,0,0,4.2-4.032,18.934,18.934,0,0,0,4.32,4.032c-.36.024-.36.024-.576.024l-7.44-.024Zm-3.5,8.136a17.478,17.478,0,0,1,1.9,3.984l2.4-.96A27.814,27.814,0,0,0,78.6-6.408ZM89.16-6.384a20.054,20.054,0,0,1-1.9,4.128l2.256.84c.816-1.392.912-1.56.984-1.7.888-1.752.888-1.752,1.2-2.3Z" transform="translate(31 677)" fill="#252525"/>
        <rect id="長方形_2724" data-name="長方形 2724" width="363" height="121" transform="translate(270)" fill="#252525"/>
        <rect id="長方形_2778" data-name="長方形 2778" width="363.613" height="121" transform="translate(1009)" fill="#252525"/>
        <rect id="長方形_2779" data-name="長方形 2779" width="366.734" height="121" transform="translate(638.266)" fill="#fdf369"/>
        <path id="パス_3152" data-name="パス 3152" d="M22.392,19.3c-2.9-2.808-2.9-2.808-3.5-3.336a37.2,37.2,0,0,0-4.44-3.48,31.785,31.785,0,0,0,3.744-6.624,4.616,4.616,0,0,1,.768-1.3L17.376,2.928a5.2,5.2,0,0,1-2.136.264l-8.448.12H6.216A10.5,10.5,0,0,1,4.1,3.168L4.2,6.24a18.914,18.914,0,0,1,2.616-.192c7.56-.12,7.56-.12,7.944-.144l-.264.624A23.133,23.133,0,0,1,6.432,16.3a19.814,19.814,0,0,1-4.8,2.64A9.628,9.628,0,0,1,3.576,21.6a28.521,28.521,0,0,0,9.144-6.936,46.136,46.136,0,0,1,7.368,7.128ZM31.056,4.7a12.183,12.183,0,0,1,.12-2.232H27.96a12.676,12.676,0,0,1,.1,2.208l.024,11.136a18.084,18.084,0,0,0,.072,2.208,3.318,3.318,0,0,0,1.176,2.448c.936.72,2.592,1.032,5.616,1.032,1.464,0,4.488-.144,5.9-.288,2.544-.24,2.664-.264,3.168-.264l-.144-3.192a14.18,14.18,0,0,1-2.736.576,45.261,45.261,0,0,1-5.568.384c-2.328,0-3.7-.216-4.1-.624-.336-.336-.432-.864-.432-2.208a2.337,2.337,0,0,1,.024-.384V12.336A40.646,40.646,0,0,0,42.336,8.52l.624-.312a3.51,3.51,0,0,1,.5-.216L41.544,5.28c-1.56,1.464-6.864,3.6-10.488,4.272ZM44.88.456a2.772,2.772,0,1,0,2.784,2.76A2.776,2.776,0,0,0,44.88.456Zm0,1.2a1.562,1.562,0,0,1,1.584,1.56,1.572,1.572,0,1,1-3.144,0A1.557,1.557,0,0,1,44.88,1.656Zm2.9,11.808a26.347,26.347,0,0,1,3.912-.12H64.44a26.347,26.347,0,0,1,3.912.12V10.128a23.569,23.569,0,0,1-3.888.168H51.672a23.569,23.569,0,0,1-3.888-.168ZM79.32,22.08a24.622,24.622,0,0,1-.1-2.664V13.08a13.71,13.71,0,0,0-.1-1.632,7.753,7.753,0,0,0,.816.408,58.284,58.284,0,0,1,8.5,4.584l1.68-2.832a69.807,69.807,0,0,0-10.9-5.064V4.08a19.888,19.888,0,0,1,.1-2.52H76.032a15.729,15.729,0,0,1,.144,2.448V19.392a17.5,17.5,0,0,1-.144,2.688ZM84.24,3.648a16.2,16.2,0,0,1,2.52,3.576l1.68-.888a15.554,15.554,0,0,0-2.52-3.528ZM91.3,4.776a13.879,13.879,0,0,0-2.5-3.384l-1.608.84a17.683,17.683,0,0,1,2.448,3.48Zm6.84-.84c-.024,1.416-.024,2.208-.024,2.4h-.528a16.4,16.4,0,0,1-2.352-.12v2.64a15.147,15.147,0,0,1,2.28-.12h.36a5.657,5.657,0,0,1-2.76,4.08,8.355,8.355,0,0,1,1.92,1.992A8.373,8.373,0,0,0,99.6,11.76a9.408,9.408,0,0,0,.864-3.024h2.352v2.328a20.114,20.114,0,0,1-.144,2.616h1.848c.024.36.024.528.024.792v.72h-4.8a16.022,16.022,0,0,1-2.472-.12v2.592c.768-.072,1.632-.12,2.76-.12h4.512v2.184H98.088a25.956,25.956,0,0,1-2.76-.12V22.3a24.354,24.354,0,0,1,2.952-.144h15.5a25.4,25.4,0,0,1,3.024.144V19.608a25.674,25.674,0,0,1-2.808.12h-6.768V17.544h4.848a27.509,27.509,0,0,1,2.784.12V15.048a19.543,19.543,0,0,1-2.832.144h-4.8v-.744a6.5,6.5,0,0,1,.12-1.512h-1.968c-.048-.672-.048-1.032-.048-1.9v-2.3h.216a19.677,19.677,0,0,1,2.28.1V6.24a19.031,19.031,0,0,1-2.328.1h-.168v-2.4a14.07,14.07,0,0,1,2.04.1V1.464a17.27,17.27,0,0,1-2.568.12H98.352a24.928,24.928,0,0,1-2.568-.12V4.032a16.925,16.925,0,0,1,2.184-.1Zm4.68,0v2.4h-2.16c0-.5.024-1.056.024-1.656V3.936Zm8.472,6.672a16.077,16.077,0,0,1-.072-1.728V3.84a12.41,12.41,0,0,1,.1-1.824h-2.736a14.345,14.345,0,0,1,.12,1.968v4.7a13.841,13.841,0,0,1-.12,1.92Zm4.824-7.416a16.274,16.274,0,0,1,.12-2.256h-2.88A12.373,12.373,0,0,1,113.472,3v7.872c0,.5-.072.552-.984.552a18.123,18.123,0,0,1-2.544-.216,7.753,7.753,0,0,1,.7,2.616,19.366,19.366,0,0,0,1.992.1c2.832,0,3.48-.456,3.48-2.52Zm8.712,3.024v2.04h-3.36a13.326,13.326,0,0,1-2.136-.12V10.7a17.206,17.206,0,0,1,2.472-.12h3.024v1.9h-2.472a16.661,16.661,0,0,1-2.328-.12,20.3,20.3,0,0,1,.1,2.256v4.416a13.6,13.6,0,0,1-.12,2.352h2.616a20.06,20.06,0,0,1-.1-2.328v-4.3h2.3V20.4a15.06,15.06,0,0,1-.144,2.616h2.712a17.242,17.242,0,0,1-.12-2.592V14.76h2.16V18.6c0,.312-.144.408-.6.408-.264,0-.888-.048-1.272-.1a6.647,6.647,0,0,1,.432,2.28c.672.048.888.048,1.1.048,2.064,0,2.664-.432,2.664-1.92v-4.8c0-1.08.024-1.56.072-2.136a18.523,18.523,0,0,1-2.232.1h-2.328v-1.9h2.712a13.817,13.817,0,0,1,2.3.12V8.16a19.385,19.385,0,0,1-2.208.1h-2.808V6.216h2.04a20.72,20.72,0,0,1,2.376.1V3.768a14.821,14.821,0,0,1-2.376.12h-2.04v-.72a10.792,10.792,0,0,1,.144-2.28H124.68a11.888,11.888,0,0,1,.144,2.328v.672h-1.848c.12-.48.264-1.008.312-1.272a7.316,7.316,0,0,1,.264-.96L121.1,1.2a3.714,3.714,0,0,1-.12.936,13.4,13.4,0,0,1-1.9,4.752,18.764,18.764,0,0,1,2.28,1.176,19.722,19.722,0,0,0,.84-1.848Zm8.28-3.648a13.838,13.838,0,0,1,.144,2.544v9.6a15.007,15.007,0,0,1-.12,2.568h2.688a15.023,15.023,0,0,1-.12-2.544V5.064a16.571,16.571,0,0,1,.12-2.5ZM137.688.984a22.43,22.43,0,0,1,.144,2.976V19.632c0,.576-.216.72-1.08.72a21.782,21.782,0,0,1-3.1-.24,7.259,7.259,0,0,1,.72,2.568c1.416.048,2.16.072,2.28.072a4.8,4.8,0,0,0,2.9-.552c.576-.408.792-1.008.792-2.28V3.888a16.375,16.375,0,0,1,.168-2.9ZM155.232,6.6V20.136a16.865,16.865,0,0,1-.144,2.88h2.9a16.238,16.238,0,0,1-.168-2.88v-2.76h3.936a18.7,18.7,0,0,1,2.4.144V14.9a13.817,13.817,0,0,1-2.4.144h-3.936V11.976h3.888a18.433,18.433,0,0,1,2.4.144V9.528a16.568,16.568,0,0,1-2.376.144h-3.912V6.6h4.56a25.087,25.087,0,0,1,2.592.12V4.128a17.793,17.793,0,0,1-2.592.144h-6.528c.216-.528.24-.6.6-1.608.168-.48.24-.7.48-1.272L154.224.6a15.485,15.485,0,0,1-1.08,3.48,18.733,18.733,0,0,1-4.032,6.12,9.73,9.73,0,0,1,1.728,2.256A26.1,26.1,0,0,0,154.776,6.6ZM148.2.528A13.511,13.511,0,0,1,147.192,3.7a19.6,19.6,0,0,1-4.56,6.624,11.362,11.362,0,0,1,1.272,2.808,25.02,25.02,0,0,0,2.3-2.76c-.072,2.016-.072,2.136-.072,2.736v6.84a21.226,21.226,0,0,1-.168,2.976h2.88a22.159,22.159,0,0,1-.168-2.976V6.648c1.248-2.808,1.248-2.808,1.632-3.84.216-.576.288-.744.552-1.344Zm23.808,10.008a19.2,19.2,0,0,1,2.064-.1h8.016a18.231,18.231,0,0,1,2.16.1V8.664a25.591,25.591,0,0,0,4.1,2.184,10.688,10.688,0,0,1,1.32-2.688A25.369,25.369,0,0,1,183.5,4.92,14.576,14.576,0,0,1,179.448.936h-2.856A15.8,15.8,0,0,1,172.8,4.968,22.4,22.4,0,0,1,166.776,8.3a11.147,11.147,0,0,1,1.392,2.448,22.582,22.582,0,0,0,3.84-2.064ZM174.1,7.944c-.432,0-.576,0-.984-.024A20.489,20.489,0,0,0,178.1,3.264,19.551,19.551,0,0,0,183.12,7.92c-.456.024-.672.024-1.056.024Zm.24,6.936a24.851,24.851,0,0,1-2.568,4.8c-1.224.072-1.944.1-2.112.1-.336,0-.744-.024-1.392-.072l.384,2.928a28.54,28.54,0,0,1,3.1-.336c.96-.072,5.712-.5,8.088-.72.888-.1,2.328-.264,4.32-.528.408.576.648.912,1.44,2.088l2.3-1.512a49.116,49.116,0,0,0-5.544-6.408l-2.376,1.056c1.344,1.392,1.752,1.824,2.52,2.664-3.36.36-3.36.36-7.608.6a26.09,26.09,0,0,0,2.5-4.656h8.256a22.33,22.33,0,0,1,2.808.144V12.24a22.6,22.6,0,0,1-2.808.144H170.688a23.572,23.572,0,0,1-2.832-.144v2.784a22.484,22.484,0,0,1,2.832-.144Zm22.944-1.3a13.173,13.173,0,0,0,3.1,2.712,10.236,10.236,0,0,1,1.32-2.352A14.151,14.151,0,0,1,197.88,10.9a19.719,19.719,0,0,0,2.4-4.1,6.672,6.672,0,0,1,.528-1.008l-1.152-1.248a8.742,8.742,0,0,1-1.392.072h-.984V2.64a10.23,10.23,0,0,1,.144-1.872h-2.9a11.021,11.021,0,0,1,.144,1.824V4.608h-1.2a14.654,14.654,0,0,1-1.9-.1V7.176a16.432,16.432,0,0,1,2.016-.1H197.5a14.26,14.26,0,0,1-2.616,3.7,16.553,16.553,0,0,1-4.128,3.24,9.3,9.3,0,0,1,1.224,2.5,16.174,16.174,0,0,0,2.664-2.04V20.5a14.358,14.358,0,0,1-.144,2.5h2.9a17.041,17.041,0,0,1-.12-2.448Zm10.176-3.552H210c.84,0,1.584.048,2.352.12V7.44A15.609,15.609,0,0,1,210,7.56h-2.544V3.336a14.07,14.07,0,0,1,.168-2.5h-3a16.988,16.988,0,0,1,.168,2.5V7.56h-1.8a16.2,16.2,0,0,1-2.352-.12v2.712c.768-.072,1.536-.12,2.352-.12h1.8v9.384h-2.616a21.763,21.763,0,0,1-2.76-.144v2.9a19.355,19.355,0,0,1,2.712-.168h8.208a19.707,19.707,0,0,1,2.736.168v-2.9a20.586,20.586,0,0,1-2.736.144h-2.88Z" transform="translate(338 43)" fill="#fdfdfd"/>
        <path id="パス_3153" data-name="パス 3153" d="M17.328,2.5a15.106,15.106,0,0,1-3.1.168H7.176A15.4,15.4,0,0,1,4.08,2.5V5.424A19.83,19.83,0,0,1,7.128,5.3H14.28a19.625,19.625,0,0,1,3.048.12ZM18.84,11.3a21.084,21.084,0,0,1,3.048.12V8.568a15.687,15.687,0,0,1-3.1.168H4.752a15.687,15.687,0,0,1-3.1-.168v2.856A21.084,21.084,0,0,1,4.7,11.3h5.832c-.168,4.656-2.04,7.032-6.744,8.52A7.63,7.63,0,0,1,5.76,22.488C11.184,20.4,13.44,17.232,13.7,11.3Zm5.088-7.656A14.717,14.717,0,0,0,21.816,0L20.088.624a17.433,17.433,0,0,1,2.064,3.72ZM16.944,1.56A17.694,17.694,0,0,1,19.056,5.4l1.8-.672A16.937,16.937,0,0,0,18.72.936ZM32.616,6.384v-2.5a12.136,12.136,0,0,1,.1-2.04H29.568a11.14,11.14,0,0,1,.12,2.136v2.4H28.272a15.974,15.974,0,0,1-3.12-.168V9.144a21.062,21.062,0,0,1,3.072-.12h1.464v3.528a15.434,15.434,0,0,1-.1,2.064h3.12a13.691,13.691,0,0,1-.1-2.016V9.024h6.216c-.048,3.384-.192,4.56-.768,6-1.032,2.328-3.048,3.84-6.456,4.8a7.342,7.342,0,0,1,1.8,2.544c3.456-1.152,5.808-3,7.128-5.592.888-1.9,1.128-3.432,1.176-7.752H43.3a21.254,21.254,0,0,1,3.1.12V6.216a16.115,16.115,0,0,1-3.144.168H41.736c0-.96.024-1.9.024-2.784a9.852,9.852,0,0,1,.072-1.584H38.76a17.729,17.729,0,0,1,.1,2.376V6.384Zm9.192-5.3A14.462,14.462,0,0,1,43.44,4.848l1.656-.48A14.676,14.676,0,0,0,43.44.624Zm6.12,2.472A15.258,15.258,0,0,0,46.3-.048L44.76.432a15.192,15.192,0,0,1,1.632,3.624Zm17.448-2.04A19.2,19.2,0,0,1,60.912,6a35.05,35.05,0,0,1-12.6,6.24,9.027,9.027,0,0,1,1.608,2.736,38.885,38.885,0,0,0,8.568-3.888v8.448a13.5,13.5,0,0,1-.144,2.592H61.7a18.156,18.156,0,0,1-.12-2.664V9.216a42.44,42.44,0,0,0,5.664-4.944,9.886,9.886,0,0,1,.888-.84Zm8.592,4.08a25.2,25.2,0,0,1,6.12,4.872l2.064-2.616A33.991,33.991,0,0,0,75.96,3.216Zm.84,15.84a8.5,8.5,0,0,1,1.584-.408,25.923,25.923,0,0,0,9.144-3.6c3.288-2.184,5.568-5.016,7.608-9.408A10.349,10.349,0,0,1,90.6,5.664a20.04,20.04,0,0,1-2.448,4.8,16.035,16.035,0,0,1-7.128,5.88,22.869,22.869,0,0,1-7.1,1.776ZM99.1,3.936c-.024,1.416-.024,2.208-.024,2.4h-.528a16.4,16.4,0,0,1-2.352-.12v2.64a15.147,15.147,0,0,1,2.28-.12h.36a5.657,5.657,0,0,1-2.76,4.08,8.355,8.355,0,0,1,1.92,1.992,8.373,8.373,0,0,0,2.568-3.048,9.408,9.408,0,0,0,.864-3.024h2.352v2.328a20.115,20.115,0,0,1-.144,2.616h1.848c.024.36.024.528.024.792v.72h-4.8a16.022,16.022,0,0,1-2.472-.12v2.592c.768-.072,1.632-.12,2.76-.12H105.5v2.184H99.048a25.956,25.956,0,0,1-2.76-.12V22.3a24.354,24.354,0,0,1,2.952-.144h15.5a25.4,25.4,0,0,1,3.024.144V19.608a25.675,25.675,0,0,1-2.808.12h-6.768V17.544h4.848a27.509,27.509,0,0,1,2.784.12V15.048a19.543,19.543,0,0,1-2.832.144h-4.8v-.744a6.5,6.5,0,0,1,.12-1.512h-1.968c-.048-.672-.048-1.032-.048-1.9v-2.3h.216a19.677,19.677,0,0,1,2.28.1V6.24a19.031,19.031,0,0,1-2.328.1H106.3v-2.4a14.07,14.07,0,0,1,2.04.1V1.464a17.27,17.27,0,0,1-2.568.12H99.312a24.928,24.928,0,0,1-2.568-.12V4.032a16.925,16.925,0,0,1,2.184-.1Zm4.68,0v2.4h-2.16c0-.5.024-1.056.024-1.656V3.936Zm8.472,6.672a16.075,16.075,0,0,1-.072-1.728V3.84a12.409,12.409,0,0,1,.1-1.824h-2.736a14.345,14.345,0,0,1,.12,1.968v4.7a13.841,13.841,0,0,1-.12,1.92Zm4.824-7.416a16.274,16.274,0,0,1,.12-2.256h-2.88A12.371,12.371,0,0,1,114.432,3v7.872c0,.5-.072.552-.984.552a18.123,18.123,0,0,1-2.544-.216,7.753,7.753,0,0,1,.7,2.616,19.366,19.366,0,0,0,1.992.1c2.832,0,3.48-.456,3.48-2.52Zm8.712,3.024v2.04h-3.36a13.326,13.326,0,0,1-2.136-.12V10.7a17.206,17.206,0,0,1,2.472-.12h3.024v1.9h-2.472a16.661,16.661,0,0,1-2.328-.12,20.3,20.3,0,0,1,.1,2.256v4.416a13.6,13.6,0,0,1-.12,2.352h2.616a20.06,20.06,0,0,1-.1-2.328v-4.3h2.3V20.4a15.06,15.06,0,0,1-.144,2.616h2.712a17.239,17.239,0,0,1-.12-2.592V14.76h2.16V18.6c0,.312-.144.408-.6.408-.264,0-.888-.048-1.272-.1a6.647,6.647,0,0,1,.432,2.28c.672.048.888.048,1.1.048,2.064,0,2.664-.432,2.664-1.92v-4.8c0-1.08.024-1.56.072-2.136a18.523,18.523,0,0,1-2.232.1h-2.328v-1.9h2.712a13.818,13.818,0,0,1,2.3.12V8.16a19.385,19.385,0,0,1-2.208.1h-2.808V6.216h2.04a20.719,20.719,0,0,1,2.376.1V3.768a14.821,14.821,0,0,1-2.376.12h-2.04v-.72a10.791,10.791,0,0,1,.144-2.28H125.64a11.888,11.888,0,0,1,.144,2.328v.672h-1.848c.12-.48.264-1.008.312-1.272a7.316,7.316,0,0,1,.264-.96L122.064,1.2a3.714,3.714,0,0,1-.12.936,13.4,13.4,0,0,1-1.9,4.752,18.764,18.764,0,0,1,2.28,1.176,19.722,19.722,0,0,0,.84-1.848Zm8.28-3.648a13.836,13.836,0,0,1,.144,2.544v9.6a15,15,0,0,1-.12,2.568h2.688a15.024,15.024,0,0,1-.12-2.544V5.064a16.571,16.571,0,0,1,.12-2.5ZM138.648.984a22.427,22.427,0,0,1,.144,2.976V19.632c0,.576-.216.72-1.08.72a21.782,21.782,0,0,1-3.1-.24,7.259,7.259,0,0,1,.72,2.568c1.416.048,2.16.072,2.28.072a4.8,4.8,0,0,0,2.9-.552c.576-.408.792-1.008.792-2.28V3.888a16.376,16.376,0,0,1,.168-2.9ZM156.192,6.6V20.136a16.865,16.865,0,0,1-.144,2.88h2.9a16.238,16.238,0,0,1-.168-2.88v-2.76h3.936a18.7,18.7,0,0,1,2.4.144V14.9a13.817,13.817,0,0,1-2.4.144h-3.936V11.976h3.888a18.433,18.433,0,0,1,2.4.144V9.528a16.568,16.568,0,0,1-2.376.144h-3.912V6.6h4.56a25.087,25.087,0,0,1,2.592.12V4.128a17.793,17.793,0,0,1-2.592.144h-6.528c.216-.528.24-.6.6-1.608.168-.48.24-.7.48-1.272L155.184.6a15.485,15.485,0,0,1-1.08,3.48,18.733,18.733,0,0,1-4.032,6.12,9.73,9.73,0,0,1,1.728,2.256A26.1,26.1,0,0,0,155.736,6.6ZM149.16.528A13.511,13.511,0,0,1,148.152,3.7a19.6,19.6,0,0,1-4.56,6.624,11.362,11.362,0,0,1,1.272,2.808,25.02,25.02,0,0,0,2.3-2.76c-.072,2.016-.072,2.136-.072,2.736v6.84a21.226,21.226,0,0,1-.168,2.976h2.88a22.159,22.159,0,0,1-.168-2.976V6.648c1.248-2.808,1.248-2.808,1.632-3.84.216-.576.288-.744.552-1.344Zm23.808,10.008a19.2,19.2,0,0,1,2.064-.1h8.016a18.231,18.231,0,0,1,2.16.1V8.664a25.591,25.591,0,0,0,4.1,2.184,10.688,10.688,0,0,1,1.32-2.688,25.369,25.369,0,0,1-6.168-3.24A14.576,14.576,0,0,1,180.408.936h-2.856a15.8,15.8,0,0,1-3.792,4.032A22.4,22.4,0,0,1,167.736,8.3a11.147,11.147,0,0,1,1.392,2.448,22.582,22.582,0,0,0,3.84-2.064Zm2.088-2.592c-.432,0-.576,0-.984-.024a20.489,20.489,0,0,0,4.992-4.656A19.551,19.551,0,0,0,184.08,7.92c-.456.024-.672.024-1.056.024Zm.24,6.936a24.851,24.851,0,0,1-2.568,4.8c-1.224.072-1.944.1-2.112.1-.336,0-.744-.024-1.392-.072l.384,2.928a28.54,28.54,0,0,1,3.1-.336c.96-.072,5.712-.5,8.088-.72.888-.1,2.328-.264,4.32-.528.408.576.648.912,1.44,2.088l2.3-1.512a49.116,49.116,0,0,0-5.544-6.408l-2.376,1.056c1.344,1.392,1.752,1.824,2.52,2.664-3.36.36-3.36.36-7.608.6a26.09,26.09,0,0,0,2.5-4.656H186.6a22.33,22.33,0,0,1,2.808.144V12.24a22.6,22.6,0,0,1-2.808.144H171.648a23.572,23.572,0,0,1-2.832-.144v2.784a22.484,22.484,0,0,1,2.832-.144Zm22.944-1.3a13.173,13.173,0,0,0,3.1,2.712,10.236,10.236,0,0,1,1.32-2.352A14.151,14.151,0,0,1,198.84,10.9a19.719,19.719,0,0,0,2.4-4.1,6.672,6.672,0,0,1,.528-1.008l-1.152-1.248a8.742,8.742,0,0,1-1.392.072h-.984V2.64a10.23,10.23,0,0,1,.144-1.872h-2.9a11.021,11.021,0,0,1,.144,1.824V4.608h-1.2a14.654,14.654,0,0,1-1.9-.1V7.176a16.432,16.432,0,0,1,2.016-.1h3.912a14.26,14.26,0,0,1-2.616,3.7,16.553,16.553,0,0,1-4.128,3.24,9.3,9.3,0,0,1,1.224,2.5,16.174,16.174,0,0,0,2.664-2.04V20.5a14.358,14.358,0,0,1-.144,2.5h2.9a17.041,17.041,0,0,1-.12-2.448Zm10.176-3.552h2.544c.84,0,1.584.048,2.352.12V7.44a15.609,15.609,0,0,1-2.352.12h-2.544V3.336a14.07,14.07,0,0,1,.168-2.5h-3a16.988,16.988,0,0,1,.168,2.5V7.56h-1.8a16.2,16.2,0,0,1-2.352-.12v2.712c.768-.072,1.536-.12,2.352-.12h1.8v9.384h-2.616a21.763,21.763,0,0,1-2.76-.144v2.9a19.355,19.355,0,0,1,2.712-.168H211.3a19.707,19.707,0,0,1,2.736.168v-2.9a20.586,20.586,0,0,1-2.736.144h-2.88Z" transform="translate(1074 43)" fill="#fdfdfd"/>
        <g id="グループ_3083" data-name="グループ 3083" transform="translate(723.609 30.616)">
          <rect id="要素_-_1" data-name="要素 - 1" width="58.104" height="5.282" transform="translate(0 55.182)" fill="#252525"/>
          <g id="グループ_91" data-name="グループ 91" transform="translate(2.341)">
            <path id="パス_1854" data-name="パス 1854" d="M518.365,29.813a4.72,4.72,0,0,0,3.447-1.027,7,7,0,0,0,1.521-2.811,10.21,10.21,0,0,0,.6-3.1c0-1.109-.572-2.97-4.405-2.97a4.1,4.1,0,0,0-3.616,2.376,9.434,9.434,0,0,0-1.2,4.764C514.712,27.879,515.068,29.813,518.365,29.813Z" transform="translate(-389.824 -14.987)" fill="#252525"/>
            <path id="パス_1855" data-name="パス 1855" d="M201.436,34.358c-1.531,1.307-3.09,2.614-4.629,3.881A24.454,24.454,0,0,1,191,42a26.778,26.778,0,0,0,1.846-4.514,23.233,23.233,0,0,0,1.106-6.769,10.047,10.047,0,0,0-.88-4.16,20.085,20.085,0,0,0-2.545-3.945q.917-1.3,1.946-2.774a6.716,6.716,0,0,0,1.479-3.68,2.343,2.343,0,0,0-2.16-2.333l-.084-.018-3.323-.141a4.427,4.427,0,0,0-4.034,2.459,9.539,9.539,0,0,0-1.192,4.681,2.189,2.189,0,0,0,.318,1.127,63.175,63.175,0,0,1-3.866,5.757c-1.338,1.784-2.994,3.758-4.952,5.9l-.115.137-.729.636a46.926,46.926,0,0,1-9.346,6.651,17.4,17.4,0,0,1-7.8,1.973,2.624,2.624,0,0,1-2.55-1.553,6.669,6.669,0,0,1-.624-2.849l.772-.331a41.873,41.873,0,0,0,8.424-4.293c3.463-2.523,5.218-5.547,5.218-8.987,0-4.031-2.317-6.251-6.524-6.251s-7.931,2.082-11.09,6.188a22.057,22.057,0,0,0-4.042,8.444l-1.1,1.031c-1.352,1.261-2.721,2.494-4.062,3.656-3.939,3.328-5.372,3.8-5.8,3.847a4.7,4.7,0,0,1-.322-2.219,29.053,29.053,0,0,1,.861-6.391c.582-2.506,1.584-5.9,2.98-10.089l1.147-3.441H132.03l-.263.669a77.736,77.736,0,0,0-3.256,10.117q-.276,1.134-.486,2.214L126.6,34.493a7.766,7.766,0,0,1-2.024,1.867,3.725,3.725,0,0,1-1.874.48c-1.2,0-2.593-.836-4.148-2.486a40.658,40.658,0,0,0,2.23-6.234,24.127,24.127,0,0,0,.923-6.012,2.218,2.218,0,0,0-2.286-2.492,9.248,9.248,0,0,0-3.841.772c-1.068.468-1.947,1.935-2.936,4.905a22.447,22.447,0,0,0-1.319,6.93V32.3l.248,1.8a26.409,26.409,0,0,1-3.189,6.395c-1,1.371-1.934,2.095-2.7,2.095-.879,0-1.4-1.8-1.4-4.821a41.474,41.474,0,0,1,1.341-9.813c.224-.986.863-3.336,1.9-6.985l.412-1.451-7.884.57-.22.673A74.273,74.273,0,0,0,97.4,29.975q-.34,1.785-.541,3.551l-.962.84a46.932,46.932,0,0,1-9.346,6.651,17.4,17.4,0,0,1-7.8,1.973,2.624,2.624,0,0,1-2.55-1.553,6.67,6.67,0,0,1-.624-2.849l.772-.331a41.875,41.875,0,0,0,8.424-4.293c3.463-2.523,5.218-5.547,5.218-8.987,0-4.031-2.317-6.251-6.524-6.251a12.454,12.454,0,0,0-8.1,3.05l.149-.175c-2.69.384-6.407-3.106-6.59-3.279l.006-.009-.683-.614c-.883-.794-1.643-1.532-2.241-2.173q-.367-.411-.763-.885a38.372,38.372,0,0,0,2.328-11.4A3.513,3.513,0,0,0,67.029.967a2.619,2.619,0,0,0-2.15-.762,8,8,0,0,0-3.357.409,3.9,3.9,0,0,0-1.739,2.343,27.378,27.378,0,0,0-1.77,9.1,8.562,8.562,0,0,0,.155,1.6,7.289,7.289,0,0,0,.331,1.193,100.213,100.213,0,0,1-7.268,18.314c-4.1,7.785-6.075,8.389-6.583,8.389-.42,0-.733-.714-.883-1.14a15.977,15.977,0,0,1-.589-4.98c0-1.734.159-4.134.473-7.135s.654-5.459,1.009-7.279l1.972-9.594c.021-.083.182-.652,1.215-4.116a16.132,16.132,0,0,0,.8-4.614A2.236,2.236,0,0,0,47.5.567a6.061,6.061,0,0,0-2.715-.43c-1.7,0-2.835.349-3.483,1.065-.455.5-.947,1.571-1.462,5.951-.351,2.982-1.784,7.377-4.259,13.064A82.715,82.715,0,0,1,27.318,35.16c-4.006,5.565-6.192,6.4-7.139,6.4-.2,0-.721,0-.721-1.747a26.138,26.138,0,0,1,.789-4.86c.529-2.335.938-4.061,1.205-5.1l2.472-8.478c2.33-8.192,3.463-13.63,3.463-16.623C27.387.617,25.355,0,24.144,0c-1.468,0-3.435.891-6.012,2.724a67.247,67.247,0,0,0-8.2,7.154l-.462.462,1.94,5.817,2.281-2a50.7,50.7,0,0,1,4.249-3.313c.415-.284.746-.5,1.009-.661A15.029,15.029,0,0,1,18.343,13L13.355,30.628a34.377,34.377,0,0,0-1.545,9.524,10.7,10.7,0,0,0,1.842,6.431,5.991,5.991,0,0,0,5.024,2.691c2.634,0,5.405-1.337,8.239-3.974a43.644,43.644,0,0,0,6.525-8.2q1.043-1.625,2.025-3.32-.007.587-.006,1.314a27.167,27.167,0,0,0,1.15,8.475c1.3,3.785,3.517,5.7,6.6,5.7,2.785,0,5.638-1.794,8.488-5.344a58.891,58.891,0,0,0,6.483-11.265c1.28-2.788,2.784-6.492,4.473-11.009l.252-.68.013.016L62.9,21c.988,1.395,7.655,5,8.418,5.409a22.253,22.253,0,0,0-3.6,12.377,13.426,13.426,0,0,0,2.043,7.3,7.132,7.132,0,0,0,6.4,3.465c6.69,0,13.652-2.536,20.7-7.534a11.066,11.066,0,0,0,1.667,4.272,6.605,6.605,0,0,0,5.725,3.057c4.524,0,8.352-2.985,11.392-8.876a10.831,10.831,0,0,0,7.13,2.929,9.322,9.322,0,0,0,4.625-1.172,17.905,17.905,0,0,0,.361,2.882c.834,3.614,2.841,4.373,4.378,4.373,2.22,0,4.811-.9,7.92-2.745a33.816,33.816,0,0,0,6-4.466,12.949,12.949,0,0,0,1.627,3.815,7.132,7.132,0,0,0,6.4,3.465c6.8,0,12.075-1.349,19.243-6.516,0,0,4.44-3.607,5.54-4.778S180.9,36,181.689,35c1.142-1.418,2.7-3.578,4.646-6.434.023.08.041.159.057.238a9.761,9.761,0,0,1,.185,1.911,20.667,20.667,0,0,1-1.607,6.736c-1.15,3.049-1.84,3.656-1.99,3.758a13.575,13.575,0,0,1-1.993-.256,14.909,14.909,0,0,0-2.512-.29,2.448,2.448,0,0,0-2.312,1.752,10.049,10.049,0,0,0-.522,3.679,2.978,2.978,0,0,0,.995,2.514,4.542,4.542,0,0,0,2.8.661,15.955,15.955,0,0,0,3.7-.372,10.7,10.7,0,0,0,2.385-.885,10.557,10.557,0,0,0,3.687.847,11.713,11.713,0,0,0,5.3-1.554,59.744,59.744,0,0,0,7.248-4.692l1.421-1.137V32.872ZM157.07,27.537c1.331-1.586,2.6-2.391,3.77-2.391.516,0,.516.077.516.447,0,1.03-.722,2.147-2.145,3.32a19.723,19.723,0,0,1-4.474,2.671A13.514,13.514,0,0,1,157.07,27.537Zm-77.917,0c1.331-1.586,2.6-2.391,3.77-2.391.516,0,.516.077.516.447,0,1.03-.722,2.147-2.145,3.32a19.723,19.723,0,0,1-4.474,2.671A13.515,13.515,0,0,1,79.153,27.537Z" transform="translate(-9.47)" fill="#252525"/>
          </g>
        </g>
        <g id="長方形_2715" data-name="長方形 2715" transform="translate(638)" fill="none" stroke="#fdf369" stroke-width="10">
          <rect width="367" height="718" stroke="none"/>
          <rect x="5" y="5" width="357" height="708" fill="none"/>
        </g>
        <path id="パス_3077" data-name="パス 3077" d="M63.217,32.592,32-21.476.78,32.592ZM5.828,29.669,32-15.631l26.17,45.3Z" transform="translate(417.777 160.92)" fill="#252525" stroke="#252525" stroke-width="2"/>
        <path id="パス_3110" data-name="パス 3110" d="M63.217,32.592,32-21.476.78,32.592ZM5.828,29.669,32-15.631l26.17,45.3Z" transform="translate(417.777 259.92)" fill="#252525" stroke="#252525" stroke-width="2"/>
        <path id="パス_3111" data-name="パス 3111" d="M63.217,32.592,32-21.476.78,32.592ZM5.828,29.669,32-15.631l26.17,45.3Z" transform="translate(417.777 358.149)" fill="#252525" stroke="#252525" stroke-width="2"/>
        <path id="パス_3069" data-name="パス 3069" d="M60.421,42.586l6.832-6.832L42.867,11.367,67.254-13.02l-6.832-6.832L36.035,4.535,11.648-19.852,4.816-13.02,29.2,11.367,4.816,35.753l6.832,6.832L36.035,18.2Z" transform="translate(413.741 457.889)" fill="#252525"/>
        <path id="パス_3112" data-name="パス 3112" d="M60.421,42.586l6.832-6.832L42.867,11.367,67.254-13.02l-6.832-6.832L36.035,4.535,11.648-19.852,4.816-13.02,29.2,11.367,4.816,35.753l6.832,6.832L36.035,18.2Z" transform="translate(413.741 559.727)" fill="#252525"/>
        <path id="パス_3074" data-name="パス 3074" d="M1.3,5.454a27.034,27.034,0,1,0,54.068,0,27.034,27.034,0,1,0-54.068,0ZM28.334,29.845A24.391,24.391,0,1,1,52.725,5.454,24.408,24.408,0,0,1,28.334,29.845Z" transform="translate(790.15 156.532)" fill="#252525" stroke="#252525" stroke-width="2"/>
        <path id="パス_3113" data-name="パス 3113" d="M1.3,5.454a27.034,27.034,0,1,0,54.068,0,27.034,27.034,0,1,0-54.068,0ZM28.334,29.845A24.391,24.391,0,1,1,52.725,5.454,24.408,24.408,0,0,1,28.334,29.845Z" transform="translate(790.15 258.468)" fill="#252525" stroke="#252525" stroke-width="2"/>
        <path id="パス_3114" data-name="パス 3114" d="M1.3,5.454a27.034,27.034,0,1,0,54.068,0,27.034,27.034,0,1,0-54.068,0ZM28.334,29.845A24.391,24.391,0,1,1,52.725,5.454,24.408,24.408,0,0,1,28.334,29.845Z" transform="translate(790.15 360.403)" fill="#252525" stroke="#252525" stroke-width="2"/>
        <path id="パス_3115" data-name="パス 3115" d="M1.3,5.454a27.034,27.034,0,1,0,54.068,0,27.034,27.034,0,1,0-54.068,0ZM28.334,29.845A24.391,24.391,0,1,1,52.725,5.454,24.408,24.408,0,0,1,28.334,29.845Z" transform="translate(790.15 462.339)" fill="#252525" stroke="#252525" stroke-width="2"/>
        <path id="パス_3116" data-name="パス 3116" d="M1.3,5.454a27.034,27.034,0,1,0,54.068,0,27.034,27.034,0,1,0-54.068,0ZM28.334,29.845A24.391,24.391,0,1,1,52.725,5.454,24.408,24.408,0,0,1,28.334,29.845Z" transform="translate(790.15 564.275)" fill="#252525" stroke="#252525" stroke-width="2"/>
        <path id="パス_3117" data-name="パス 3117" d="M1.3,5.454a27.034,27.034,0,1,0,54.068,0,27.034,27.034,0,1,0-54.068,0ZM28.334,29.845A24.391,24.391,0,1,1,52.725,5.454,24.408,24.408,0,0,1,28.334,29.845Z" transform="translate(1159.279 161.024)" fill="#252525" stroke="#252525" stroke-width="2"/>
        <path id="パス_3118" data-name="パス 3118" d="M1.3,5.454a27.034,27.034,0,1,0,54.068,0,27.034,27.034,0,1,0-54.068,0ZM28.334,29.845A24.391,24.391,0,1,1,52.725,5.454,24.408,24.408,0,0,1,28.334,29.845Z" transform="translate(1159.279 262.959)" fill="#252525" stroke="#252525" stroke-width="2"/>
        <path id="パス_3119" data-name="パス 3119" d="M1.3,5.454a27.034,27.034,0,1,0,54.068,0,27.034,27.034,0,1,0-54.068,0ZM28.334,29.845A24.391,24.391,0,1,1,52.725,5.454,24.408,24.408,0,0,1,28.334,29.845Z" transform="translate(1159.279 364.895)" fill="#252525" stroke="#252525" stroke-width="2"/>
        <path id="パス_3120" data-name="パス 3120" d="M63.217,32.592,32-21.476.78,32.592ZM5.828,29.669,32-15.631l26.17,45.3Z" transform="translate(1155.614 466.727)" fill="#252525" stroke="#252525" stroke-width="2"/>
        <path id="パス_3121" data-name="パス 3121" d="M1.3,5.454a27.034,27.034,0,1,0,54.068,0,27.034,27.034,0,1,0-54.068,0ZM28.334,29.845A24.391,24.391,0,1,1,52.725,5.454,24.408,24.408,0,0,1,28.334,29.845Z" transform="translate(1159.279 568.767)" fill="#252525" stroke="#252525" stroke-width="2"/>
        <path id="パス_3160" data-name="パス 3160" d="M20.664.648A28.256,28.256,0,0,1,20.376-4V-6.444H25.7a19.691,19.691,0,0,1,3.78.288v-4.1a19.691,19.691,0,0,1-3.78.288H20.376v-1.044l1.188-1.872h4.212a19.691,19.691,0,0,1,3.78.288v-4.1a19.219,19.219,0,0,1-3.78.288H23.76l4.968-7.92c.648-1.044,2.088-3.1,2.556-3.708H25.056a15.215,15.215,0,0,1-1.728,3.564L18-15.372l-5.328-9.144a15.246,15.246,0,0,1-1.728-3.528H4.752c.54.684,1.476,2.088,2.52,3.708l5,7.92H10.26A18.987,18.987,0,0,1,6.48-16.7v4.1a19.219,19.219,0,0,1,3.78-.288h4.176l1.188,1.836v1.08H10.188a19.453,19.453,0,0,1-3.78-.288v4.1a19.453,19.453,0,0,1,3.78-.288h5.436V-4A35.662,35.662,0,0,1,15.336.648ZM49.623,0H44.49V-17.578H38.5v-3.41a22.206,22.206,0,0,0,3.322-.316,4.686,4.686,0,0,0,2.461-1.336,4.4,4.4,0,0,0,.984-1.828,4.2,4.2,0,0,0,.193-1.02h4.166ZM74.848-9.4v3.92H71.965V0h-4.9V-5.484H56.971V-9.861L66.34-25.33h5.625V-9.4ZM60.68-9.4h6.381v-11Zm22.535,11.2a5.073,5.073,0,0,1-1.178,2.25,6.068,6.068,0,0,1-2.188,1.538,5.666,5.666,0,0,1-1.731.519V4.166A3.928,3.928,0,0,0,80.341,2.76,5.188,5.188,0,0,0,81.158,0H78.117V-5.238h5.414V-.7A10.558,10.558,0,0,1,83.215,1.793ZM89.191-1.6a7.534,7.534,0,0,1-2.2-5.467,7.806,7.806,0,0,1,.976-3.885,6.179,6.179,0,0,1,2.856-2.619,5.948,5.948,0,0,1-2.4-2.663,7.462,7.462,0,0,1-.554-2.681,6.256,6.256,0,0,1,2.092-4.737,8.309,8.309,0,0,1,5.906-1.96,8.309,8.309,0,0,1,5.906,1.96,6.256,6.256,0,0,1,2.092,4.737,7.462,7.462,0,0,1-.554,2.681,5.119,5.119,0,0,1-2.4,2.487,7.064,7.064,0,0,1,2.83,2.795,7.978,7.978,0,0,1,.949,3.885,7.267,7.267,0,0,1-2.382,5.476A9.284,9.284,0,0,1,95.66.668Q91.389.668,89.191-1.6ZM92.2-7.4a4.094,4.094,0,0,0,.976,2.918,3.525,3.525,0,0,0,2.7,1.037,3.525,3.525,0,0,0,2.7-1.037A4.094,4.094,0,0,0,99.545-7.4a4.057,4.057,0,0,0-.993-2.962,3.587,3.587,0,0,0-2.681-1.011,3.587,3.587,0,0,0-2.681,1.011A4.057,4.057,0,0,0,92.2-7.4Zm1.318-8.684a3.111,3.111,0,0,0,2.355.879,3.105,3.105,0,0,0,2.364-.879,3.158,3.158,0,0,0,.835-2.268,3.235,3.235,0,0,0-.835-2.364,3.159,3.159,0,0,0-2.364-.853,3.2,3.2,0,0,0-2.364.853,3.2,3.2,0,0,0-.853,2.364A3.1,3.1,0,0,0,93.516-16.084ZM115.98.633q-4.869,0-6.829-3.41t-1.96-9.721q0-6.311,1.96-9.738t6.829-3.428q4.869,0,6.838,3.428,1.951,3.428,1.951,9.738t-1.96,9.721Q120.85.633,115.98.633Zm2.936-6.416A25.078,25.078,0,0,0,119.6-12.5a24.6,24.6,0,0,0-.694-6.82,2.836,2.836,0,0,0-2.927-2.215,2.878,2.878,0,0,0-2.953,2.215,23.741,23.741,0,0,0-.721,6.82,24.008,24.008,0,0,0,.721,6.724,2.9,2.9,0,0,0,2.953,2.329A2.877,2.877,0,0,0,118.916-5.783ZM136,.633q-4.869,0-6.829-3.41t-1.96-9.721q0-6.311,1.96-9.738T136-25.664q4.869,0,6.838,3.428,1.951,3.428,1.951,9.738t-1.96,9.721Q140.871.633,136,.633Zm2.936-6.416a25.078,25.078,0,0,0,.686-6.715,24.6,24.6,0,0,0-.694-6.82A2.836,2.836,0,0,0,136-21.533a2.878,2.878,0,0,0-2.953,2.215,23.741,23.741,0,0,0-.721,6.82,24.008,24.008,0,0,0,.721,6.724A2.9,2.9,0,0,0,136-3.445,2.877,2.877,0,0,0,138.938-5.783Zm11.492-5.161c2.268-2.448,3.924-3.312,6.264-3.312,1.908,0,3.024.432,6.192,2.448,2.808,1.836,3.528,2.2,4.932,2.664a10.241,10.241,0,0,0,3.168.5,10.11,10.11,0,0,0,6.228-2.052,15.72,15.72,0,0,0,3.42-3.492l-2.88-2.88a9.649,9.649,0,0,1-3.744,3.276,7.115,7.115,0,0,1-2.664.684c-1.728,0-3.636-.756-6.372-2.52A25.841,25.841,0,0,0,161.7-17.6a10.1,10.1,0,0,0-4.644-1.08,10.259,10.259,0,0,0-5.9,1.872,12.379,12.379,0,0,0-3.564,3.2Z" transform="translate(348.5 680.556)" fill="#252525"/>
        <path id="パス_3161" data-name="パス 3161" d="M20.664.648A28.256,28.256,0,0,1,20.376-4V-6.444H25.7a19.691,19.691,0,0,1,3.78.288v-4.1a19.691,19.691,0,0,1-3.78.288H20.376v-1.044l1.188-1.872h4.212a19.691,19.691,0,0,1,3.78.288v-4.1a19.219,19.219,0,0,1-3.78.288H23.76l4.968-7.92c.648-1.044,2.088-3.1,2.556-3.708H25.056a15.215,15.215,0,0,1-1.728,3.564L18-15.372l-5.328-9.144a15.246,15.246,0,0,1-1.728-3.528H4.752c.54.684,1.476,2.088,2.52,3.708l5,7.92H10.26A18.987,18.987,0,0,1,6.48-16.7v4.1a19.219,19.219,0,0,1,3.78-.288h4.176l1.188,1.836v1.08H10.188a19.453,19.453,0,0,1-3.78-.288v4.1a19.453,19.453,0,0,1,3.78-.288h5.436V-4A35.662,35.662,0,0,1,15.336.648Zm24.688.09a8.425,8.425,0,0,1-5.15-1.7,6.688,6.688,0,0,1-2.619-4.948h4.992a3.016,3.016,0,0,0,.949,1.828,2.94,2.94,0,0,0,2.057.7q2.479,0,3.48-2.742a16,16,0,0,0,.686-4.412,5.417,5.417,0,0,1-1.459,1.318,6.622,6.622,0,0,1-3.463.844,7.875,7.875,0,0,1-5.4-2.1,7.69,7.69,0,0,1-2.355-6.056,9.349,9.349,0,0,1,2.364-6.636A8.008,8.008,0,0,1,45.58-25.7q5.818,0,7.98,5.15a20.054,20.054,0,0,1,1.23,7.682A21.859,21.859,0,0,1,53.613-5.15Q51.363.738,45.352.738ZM43.594-20.795a4.557,4.557,0,0,0-1.441,3.814,5.306,5.306,0,0,0,.923,3.4,3.445,3.445,0,0,0,2.839,1.134,3.5,3.5,0,0,0,1.951-.6,4.134,4.134,0,0,0,1.705-3.779A5.342,5.342,0,0,0,48.56-20.25a3.351,3.351,0,0,0-2.769-1.266A3.44,3.44,0,0,0,43.594-20.795Zm19.6,22.588a5.073,5.073,0,0,1-1.178,2.25,6.068,6.068,0,0,1-2.188,1.538A5.666,5.666,0,0,1,58.1,6.1V4.166A3.928,3.928,0,0,0,60.319,2.76,5.188,5.188,0,0,0,61.137,0H58.1V-5.238H63.51V-.7A10.558,10.558,0,0,1,63.193,1.793ZM69.17-1.6a7.534,7.534,0,0,1-2.2-5.467,7.806,7.806,0,0,1,.976-3.885A6.179,6.179,0,0,1,70.8-13.57a5.948,5.948,0,0,1-2.4-2.663,7.462,7.462,0,0,1-.554-2.681,6.256,6.256,0,0,1,2.092-4.737,8.309,8.309,0,0,1,5.906-1.96,8.309,8.309,0,0,1,5.906,1.96,6.256,6.256,0,0,1,2.092,4.737,7.462,7.462,0,0,1-.554,2.681,5.119,5.119,0,0,1-2.4,2.487,7.064,7.064,0,0,1,2.83,2.795,7.978,7.978,0,0,1,.949,3.885,7.267,7.267,0,0,1-2.382,5.476A9.284,9.284,0,0,1,75.639.668Q71.367.668,69.17-1.6Zm3.006-5.8a4.094,4.094,0,0,0,.976,2.918,3.525,3.525,0,0,0,2.7,1.037,3.525,3.525,0,0,0,2.7-1.037A4.094,4.094,0,0,0,79.523-7.4a4.057,4.057,0,0,0-.993-2.962,3.587,3.587,0,0,0-2.681-1.011,3.587,3.587,0,0,0-2.681,1.011A4.057,4.057,0,0,0,72.176-7.4Zm1.318-8.684a3.111,3.111,0,0,0,2.355.879,3.105,3.105,0,0,0,2.364-.879,3.158,3.158,0,0,0,.835-2.268,3.235,3.235,0,0,0-.835-2.364,3.159,3.159,0,0,0-2.364-.853,3.2,3.2,0,0,0-2.364.853,3.2,3.2,0,0,0-.853,2.364A3.1,3.1,0,0,0,73.494-16.084ZM95.959.633q-4.869,0-6.829-3.41T87.17-12.5q0-6.311,1.96-9.738t6.829-3.428q4.869,0,6.838,3.428,1.951,3.428,1.951,9.738t-1.96,9.721Q100.828.633,95.959.633Zm2.936-6.416A25.078,25.078,0,0,0,99.58-12.5a24.6,24.6,0,0,0-.694-6.82,2.836,2.836,0,0,0-2.927-2.215,2.878,2.878,0,0,0-2.953,2.215,23.741,23.741,0,0,0-.721,6.82,24.008,24.008,0,0,0,.721,6.724,2.9,2.9,0,0,0,2.953,2.329A2.877,2.877,0,0,0,98.895-5.783ZM115.98.633q-4.869,0-6.829-3.41t-1.96-9.721q0-6.311,1.96-9.738t6.829-3.428q4.869,0,6.838,3.428,1.951,3.428,1.951,9.738t-1.96,9.721Q120.85.633,115.98.633Zm2.936-6.416A25.078,25.078,0,0,0,119.6-12.5a24.6,24.6,0,0,0-.694-6.82,2.836,2.836,0,0,0-2.927-2.215,2.878,2.878,0,0,0-2.953,2.215,23.741,23.741,0,0,0-.721,6.82,24.008,24.008,0,0,0,.721,6.724,2.9,2.9,0,0,0,2.953,2.329A2.877,2.877,0,0,0,118.916-5.783Zm11.492-5.161c2.268-2.448,3.924-3.312,6.264-3.312,1.908,0,3.024.432,6.192,2.448,2.808,1.836,3.528,2.2,4.932,2.664a10.241,10.241,0,0,0,3.168.5,10.11,10.11,0,0,0,6.228-2.052,15.72,15.72,0,0,0,3.42-3.492l-2.88-2.88a9.649,9.649,0,0,1-3.744,3.276,7.115,7.115,0,0,1-2.664.684c-1.728,0-3.636-.756-6.372-2.52a25.841,25.841,0,0,0-3.276-1.98,10.1,10.1,0,0,0-4.644-1.08,10.259,10.259,0,0,0-5.9,1.872,12.379,12.379,0,0,0-3.564,3.2Z" transform="translate(726 679)" fill="#252525"/>
        <path id="パス_3162" data-name="パス 3162" d="M20.664.648A28.256,28.256,0,0,1,20.376-4V-6.444H25.7a19.691,19.691,0,0,1,3.78.288v-4.1a19.691,19.691,0,0,1-3.78.288H20.376v-1.044l1.188-1.872h4.212a19.691,19.691,0,0,1,3.78.288v-4.1a19.219,19.219,0,0,1-3.78.288H23.76l4.968-7.92c.648-1.044,2.088-3.1,2.556-3.708H25.056a15.215,15.215,0,0,1-1.728,3.564L18-15.372l-5.328-9.144a15.246,15.246,0,0,1-1.728-3.528H4.752c.54.684,1.476,2.088,2.52,3.708l5,7.92H10.26A18.987,18.987,0,0,1,6.48-16.7v4.1a19.219,19.219,0,0,1,3.78-.288h4.176l1.188,1.836v1.08H10.188a19.453,19.453,0,0,1-3.78-.288v4.1a19.453,19.453,0,0,1,3.78-.288h5.436V-4A35.662,35.662,0,0,1,15.336.648ZM48.516-20.3a3.157,3.157,0,0,0-2.566-1.072,3.13,3.13,0,0,0-3.111,1.705,8.456,8.456,0,0,0-.562,3.129H37.406A12.314,12.314,0,0,1,38.584-21.8q2-3.814,7.119-3.814a9.027,9.027,0,0,1,6.434,2.241,7.75,7.75,0,0,1,2.391,5.933A8.032,8.032,0,0,1,52.84-12.41,16.812,16.812,0,0,1,49.2-9.158l-2,1.424Q45.316-6.4,44.622-5.8a5.666,5.666,0,0,0-1.169,1.389H54.58V0H37.125A11.977,11.977,0,0,1,38.3-5.01q1.072-2.549,5.063-5.4a37.125,37.125,0,0,0,4.482-3.551,5.248,5.248,0,0,0,1.564-3.656A4.05,4.05,0,0,0,48.516-20.3ZM74.848-9.4v3.92H71.965V0h-4.9V-5.484H56.971V-9.861L66.34-25.33h5.625V-9.4ZM60.68-9.4h6.381v-11Zm22.535,11.2a5.073,5.073,0,0,1-1.178,2.25,6.068,6.068,0,0,1-2.188,1.538,5.666,5.666,0,0,1-1.731.519V4.166A3.928,3.928,0,0,0,80.341,2.76,5.188,5.188,0,0,0,81.158,0H78.117V-5.238h5.414V-.7A10.558,10.558,0,0,1,83.215,1.793ZM89.191-1.6a7.534,7.534,0,0,1-2.2-5.467,7.806,7.806,0,0,1,.976-3.885,6.179,6.179,0,0,1,2.856-2.619,5.948,5.948,0,0,1-2.4-2.663,7.462,7.462,0,0,1-.554-2.681,6.256,6.256,0,0,1,2.092-4.737,8.309,8.309,0,0,1,5.906-1.96,8.309,8.309,0,0,1,5.906,1.96,6.256,6.256,0,0,1,2.092,4.737,7.462,7.462,0,0,1-.554,2.681,5.119,5.119,0,0,1-2.4,2.487,7.064,7.064,0,0,1,2.83,2.795,7.978,7.978,0,0,1,.949,3.885,7.267,7.267,0,0,1-2.382,5.476A9.284,9.284,0,0,1,95.66.668Q91.389.668,89.191-1.6ZM92.2-7.4a4.094,4.094,0,0,0,.976,2.918,3.525,3.525,0,0,0,2.7,1.037,3.525,3.525,0,0,0,2.7-1.037A4.094,4.094,0,0,0,99.545-7.4a4.057,4.057,0,0,0-.993-2.962,3.587,3.587,0,0,0-2.681-1.011,3.587,3.587,0,0,0-2.681,1.011A4.057,4.057,0,0,0,92.2-7.4Zm1.318-8.684a3.111,3.111,0,0,0,2.355.879,3.105,3.105,0,0,0,2.364-.879,3.158,3.158,0,0,0,.835-2.268,3.235,3.235,0,0,0-.835-2.364,3.159,3.159,0,0,0-2.364-.853,3.2,3.2,0,0,0-2.364.853,3.2,3.2,0,0,0-.853,2.364A3.1,3.1,0,0,0,93.516-16.084ZM115.98.633q-4.869,0-6.829-3.41t-1.96-9.721q0-6.311,1.96-9.738t6.829-3.428q4.869,0,6.838,3.428,1.951,3.428,1.951,9.738t-1.96,9.721Q120.85.633,115.98.633Zm2.936-6.416A25.078,25.078,0,0,0,119.6-12.5a24.6,24.6,0,0,0-.694-6.82,2.836,2.836,0,0,0-2.927-2.215,2.878,2.878,0,0,0-2.953,2.215,23.741,23.741,0,0,0-.721,6.82,24.008,24.008,0,0,0,.721,6.724,2.9,2.9,0,0,0,2.953,2.329A2.877,2.877,0,0,0,118.916-5.783ZM136,.633q-4.869,0-6.829-3.41t-1.96-9.721q0-6.311,1.96-9.738T136-25.664q4.869,0,6.838,3.428,1.951,3.428,1.951,9.738t-1.96,9.721Q140.871.633,136,.633Zm2.936-6.416a25.078,25.078,0,0,0,.686-6.715,24.6,24.6,0,0,0-.694-6.82A2.836,2.836,0,0,0,136-21.533a2.878,2.878,0,0,0-2.953,2.215,23.741,23.741,0,0,0-.721,6.82,24.008,24.008,0,0,0,.721,6.724A2.9,2.9,0,0,0,136-3.445,2.877,2.877,0,0,0,138.938-5.783Zm11.492-5.161c2.268-2.448,3.924-3.312,6.264-3.312,1.908,0,3.024.432,6.192,2.448,2.808,1.836,3.528,2.2,4.932,2.664a10.241,10.241,0,0,0,3.168.5,10.11,10.11,0,0,0,6.228-2.052,15.72,15.72,0,0,0,3.42-3.492l-2.88-2.88a9.649,9.649,0,0,1-3.744,3.276,7.115,7.115,0,0,1-2.664.684c-1.728,0-3.636-.756-6.372-2.52A25.841,25.841,0,0,0,161.7-17.6a10.1,10.1,0,0,0-4.644-1.08,10.259,10.259,0,0,0-5.9,1.872,12.379,12.379,0,0,0-3.564,3.2Z" transform="translate(1085 681.492)" fill="#252525"/>
      </g>
    </g>
  </g>
</svg>
