<svg xmlns="http://www.w3.org/2000/svg" width="319" height="362" viewBox="0 0 319 362">
  <g id="グループ_3084" data-name="グループ 3084" transform="translate(-8160 -5171)">
    <rect id="長方形_2716" data-name="長方形 2716" width="240" height="50" transform="translate(8239 5223)" fill="#fff"/>
    <rect id="長方形_2718" data-name="長方形 2718" width="91" height="50" transform="translate(8160 5223)" fill="#fff"/>
    <rect id="長方形_2712" data-name="長方形 2712" width="240" height="50" transform="translate(8239 5326)" fill="#fff"/>
    <rect id="長方形_2719" data-name="長方形 2719" width="91" height="50" transform="translate(8160 5326)" fill="#fff"/>
    <rect id="長方形_2713" data-name="長方形 2713" width="240" height="50" transform="translate(8239 5430)" fill="#fff"/>
    <rect id="長方形_2720" data-name="長方形 2720" width="91" height="50" transform="translate(8160 5430)" fill="#fff"/>
    <rect id="長方形_2717" data-name="長方形 2717" width="240" height="50" transform="translate(8239 5274)" fill="#f9f9f9"/>
    <rect id="長方形_2721" data-name="長方形 2721" width="91" height="50" transform="translate(8160 5274)" fill="#f9f9f9"/>
    <rect id="長方形_2714" data-name="長方形 2714" width="240" height="50" transform="translate(8239 5378)" fill="#f9f9f9"/>
    <rect id="長方形_2722" data-name="長方形 2722" width="91" height="50" transform="translate(8160 5378)" fill="#f9f9f9"/>
    <rect id="長方形_2711" data-name="長方形 2711" width="240" height="50" transform="translate(8239 5482)" fill="#f9f9f9"/>
    <rect id="長方形_2723" data-name="長方形 2723" width="91" height="50" transform="translate(8160 5482)" fill="#f9f9f9"/>
    <path id="パス_3172" data-name="パス 3172" d="M8.05,6.96l.042,4.186V11.4a8.914,8.914,0,0,1-.084,1.344h1.9c-.042-.392-.07-.924-.084-1.61l-.07-6.5H11.2a14.4,14.4,0,0,1,1.61.056V3a7.961,7.961,0,0,1-1.652.1H9.744L9.716,1.962V1.878A8.982,8.982,0,0,1,9.772.688H7.924a10.093,10.093,0,0,1,.07,1.288L8.008,3.1H3.164A8.136,8.136,0,0,1,1.4,3V4.706a14.585,14.585,0,0,1,1.722-.07H6.958a13.319,13.319,0,0,1-1.876,2.31A14.9,14.9,0,0,1,.672,9.984,4.056,4.056,0,0,1,1.834,11.44a20.279,20.279,0,0,0,2.072-1.288A19.274,19.274,0,0,0,6.664,7.716a8.481,8.481,0,0,0,1.428-1.96c-.014.224-.042.938-.042,1.008ZM16.856.954a8.839,8.839,0,0,1,.056,1.26v3.85a10.1,10.1,0,0,1-.07,1.26H18.76A6.758,6.758,0,0,1,18.7,6.092V2.228A7.116,7.116,0,0,1,18.76.968ZM23.17.982a7.372,7.372,0,0,1,.07,1.33v1.75c0,1.12-.014,1.736-.07,2.338a3.959,3.959,0,0,1-1.932,3.57,7.552,7.552,0,0,1-3.024,1.12,4.783,4.783,0,0,1,.98,1.666,11.842,11.842,0,0,0,2.73-1.078,5.362,5.362,0,0,0,2.758-3.262,16.536,16.536,0,0,0,.364-4.242V2.284a6.641,6.641,0,0,1,.07-1.3Zm7.252,1.442A16.949,16.949,0,0,1,34.16,4.342l.9-1.54A23.055,23.055,0,0,0,31.332,1Zm-1.106,3.4A16.25,16.25,0,0,1,33.11,7.87l.868-1.582a22.1,22.1,0,0,0-3.724-1.9Zm8.316-4.62A9.449,9.449,0,0,1,39.1,3.292l.98-.518A9.073,9.073,0,0,0,38.612.716ZM30.114,12.574a8.266,8.266,0,0,1,.98-.238c5.012-.98,7.966-3.276,9.7-7.518A6.807,6.807,0,0,1,39.34,3.572a9.629,9.629,0,0,1-5.67,6.174,12.437,12.437,0,0,1-4.046.91ZM41.748,1.864A8.1,8.1,0,0,0,40.292-.11l-.938.49a10.315,10.315,0,0,1,1.428,2.03Zm8.526,2.17c0-.154,0-.154.014-1.078l.014-.84a8.831,8.831,0,0,1,.07-1.344H48.44a8.812,8.812,0,0,1,.07,1.344v.826c0,.252,0,.5-.014,1.092H44.968a10.119,10.119,0,0,1-1.82-.1V5.7a14.38,14.38,0,0,1,1.792-.07h3.472a6.053,6.053,0,0,1-.686,2.814A6.463,6.463,0,0,1,44.352,11.2a4.349,4.349,0,0,1,1.274,1.512A8.429,8.429,0,0,0,49.2,9.578,7.729,7.729,0,0,0,50.2,5.63h2.87a14.38,14.38,0,0,1,1.792.07V3.936a10.028,10.028,0,0,1-1.82.1Zm8.288-2.982a7.036,7.036,0,0,1,.056,1.274c0,3.92-.322,5.726-1.33,7.336a5.752,5.752,0,0,1-1.442,1.61A4.983,4.983,0,0,1,57.26,12.63a8.915,8.915,0,0,0,1.932-2.59,13.109,13.109,0,0,0,1.134-5.754,29.257,29.257,0,0,1,.14-3.136Zm3.71-.1a6.059,6.059,0,0,1,.056.924V2.3l-.07,7.9a6.274,6.274,0,0,1-.126,1.484l.9.952a6.091,6.091,0,0,1,.6-.252,9.246,9.246,0,0,0,2.982-1.68,8.688,8.688,0,0,0,2.226-3.262A5.868,5.868,0,0,1,67.522,6.12,6.841,6.841,0,0,1,66.15,8.682a5.629,5.629,0,0,1-2.142,1.6l.07-7.966a7.586,7.586,0,0,1,.1-1.33Zm-58.6,19.61H1.96a8.437,8.437,0,0,1-1.3-.07v1.288a8.437,8.437,0,0,1,1.3-.07H3.668v.6h-1.2c-.616,0-.98-.014-1.372-.042.028.35.042.616.042,1.274v1.806c0,.686-.014.98-.042,1.33.392-.028.728-.042,1.358-.042H3.668v.616H2.24a8.306,8.306,0,0,1-1.316-.07V28.5a12.578,12.578,0,0,1,1.3-.056H3.668v.77c-1.484.084-1.75.1-2.38.1a6.208,6.208,0,0,1-.728-.028l.252,1.5c.336-.056.546-.084.812-.112,2.562-.2,3.584-.308,5.5-.588A4.153,4.153,0,0,1,8.232,31.19a9.1,9.1,0,0,0,1.12-1.834,4.129,4.129,0,0,1,.322,1.512c.21.014.9.042,1.12.042,1.05,0,1.5-.21,1.75-.826.35-.812.532-2.786.6-6.4.042-2.016.042-2.128.1-2.632a11.063,11.063,0,0,1-1.316.056H10.71a16.781,16.781,0,0,1,.112-2.8H9.212A8.929,8.929,0,0,1,9.3,20.088c0,.434,0,.672-.014,1.022h-.21a6.117,6.117,0,0,1-.994-.056v1.512A8.52,8.52,0,0,1,9.24,22.51a20.8,20.8,0,0,1-.364,3.7,9.639,9.639,0,0,1-1.33,3.22v-.6c-1.316.182-1.792.238-2.52.308v-.686H6.594a4.073,4.073,0,0,1,.98.07V27.2a9.521,9.521,0,0,1-1.316.056H5.026V26.64h1.3c.658,0,.938,0,1.26.028-.014-.182-.028-.6-.042-1.274V23.5a11.208,11.208,0,0,1,.042-1.232,11.029,11.029,0,0,1-1.176.042H5.026v-.6h1.75a4.813,4.813,0,0,1,1.008.056V20.494a7.4,7.4,0,0,1-1.3.07H5.026V19.78c.7-.1,1.4-.21,1.918-.308.182-.042.644-.112.77-.126L6.874,18.2a18.647,18.647,0,0,1-6.1.756,4.624,4.624,0,0,1,.49,1.12c1.05-.056,1.442-.084,2.408-.168Zm0,2.8v.588H2.45v-.588Zm1.358,0H6.244v.588H5.026Zm-1.358,1.61v.616H2.45v-.616Zm1.358,0H6.244v.616H5.026Zm6.72-2.464c-.014.462-.014.546-.028.98-.014,1.134-.014,1.134-.028,1.624a27.839,27.839,0,0,1-.2,2.9c-.168,1.3-.266,1.47-.9,1.47a7.349,7.349,0,0,1-1.232-.14c.854-1.876,1.176-3.5,1.316-6.832Zm8.526-2.492v1.246H18.648a8.556,8.556,0,0,1-1.148-.056,7.787,7.787,0,0,1,.056,1.05V27.27a6.944,6.944,0,0,1-.056,1.036,9.227,9.227,0,0,1,1.26-.056h4.522a9.02,9.02,0,0,1,1.232.056,6.594,6.594,0,0,1-.056-1.036V22.258a7.4,7.4,0,0,1,.056-1.05,8.556,8.556,0,0,1-1.148.056H21.7V20.018h3.948a16.415,16.415,0,0,1,1.708.084v-1.54a16.5,16.5,0,0,1-1.722.084h-9.24a15.209,15.209,0,0,1-1.694-.084V20.1a16.892,16.892,0,0,1,1.722-.084Zm0,2.548v1.47H18.914v-1.47Zm1.428,0h1.414v1.47H21.7ZM20.272,25.3V27H18.914V25.3Zm1.428,0h1.414V27H21.7Zm3.7-3.822a7.2,7.2,0,0,1,.07,1.218v6.482h-8.9V22.72a8.992,8.992,0,0,1,.056-1.246H14.994a13.7,13.7,0,0,1,.084,1.554v6.3a18.359,18.359,0,0,1-.084,1.862h1.6v-.658h8.834v.658h1.624a15.205,15.205,0,0,1-.1-1.876V23.042a14.708,14.708,0,0,1,.084-1.568Z" transform="translate(8176 5229)" fill="#252525"/>
    <path id="パス_3173" data-name="パス 3173" d="M8.05,6.96l.042,4.186V11.4a8.914,8.914,0,0,1-.084,1.344h1.9c-.042-.392-.07-.924-.084-1.61l-.07-6.5H11.2a14.4,14.4,0,0,1,1.61.056V3a7.961,7.961,0,0,1-1.652.1H9.744L9.716,1.962V1.878A8.982,8.982,0,0,1,9.772.688H7.924a10.093,10.093,0,0,1,.07,1.288L8.008,3.1H3.164A8.136,8.136,0,0,1,1.4,3V4.706a14.585,14.585,0,0,1,1.722-.07H6.958a13.319,13.319,0,0,1-1.876,2.31A14.9,14.9,0,0,1,.672,9.984,4.056,4.056,0,0,1,1.834,11.44a20.279,20.279,0,0,0,2.072-1.288A19.274,19.274,0,0,0,6.664,7.716a8.481,8.481,0,0,0,1.428-1.96c-.014.224-.042.938-.042,1.008ZM16.856.954a8.839,8.839,0,0,1,.056,1.26v3.85a10.1,10.1,0,0,1-.07,1.26H18.76A6.758,6.758,0,0,1,18.7,6.092V2.228A7.116,7.116,0,0,1,18.76.968ZM23.17.982a7.372,7.372,0,0,1,.07,1.33v1.75c0,1.12-.014,1.736-.07,2.338a3.959,3.959,0,0,1-1.932,3.57,7.552,7.552,0,0,1-3.024,1.12,4.783,4.783,0,0,1,.98,1.666,11.842,11.842,0,0,0,2.73-1.078,5.362,5.362,0,0,0,2.758-3.262,16.536,16.536,0,0,0,.364-4.242V2.284a6.641,6.641,0,0,1,.07-1.3Zm7.252,1.442A16.949,16.949,0,0,1,34.16,4.342l.9-1.54A23.055,23.055,0,0,0,31.332,1Zm-1.106,3.4A16.25,16.25,0,0,1,33.11,7.87l.868-1.582a22.1,22.1,0,0,0-3.724-1.9Zm8.316-4.62A9.449,9.449,0,0,1,39.1,3.292l.98-.518A9.073,9.073,0,0,0,38.612.716ZM30.114,12.574a8.266,8.266,0,0,1,.98-.238c5.012-.98,7.966-3.276,9.7-7.518A6.807,6.807,0,0,1,39.34,3.572a9.629,9.629,0,0,1-5.67,6.174,12.437,12.437,0,0,1-4.046.91ZM41.748,1.864A8.1,8.1,0,0,0,40.292-.11l-.938.49a10.315,10.315,0,0,1,1.428,2.03Zm8.526,2.17c0-.154,0-.154.014-1.078l.014-.84a8.831,8.831,0,0,1,.07-1.344H48.44a8.812,8.812,0,0,1,.07,1.344v.826c0,.252,0,.5-.014,1.092H44.968a10.119,10.119,0,0,1-1.82-.1V5.7a14.38,14.38,0,0,1,1.792-.07h3.472a6.053,6.053,0,0,1-.686,2.814A6.463,6.463,0,0,1,44.352,11.2a4.349,4.349,0,0,1,1.274,1.512A8.429,8.429,0,0,0,49.2,9.578,7.729,7.729,0,0,0,50.2,5.63h2.87a14.38,14.38,0,0,1,1.792.07V3.936a10.028,10.028,0,0,1-1.82.1Zm8.288-2.982a7.036,7.036,0,0,1,.056,1.274c0,3.92-.322,5.726-1.33,7.336a5.752,5.752,0,0,1-1.442,1.61A4.983,4.983,0,0,1,57.26,12.63a8.915,8.915,0,0,0,1.932-2.59,13.109,13.109,0,0,0,1.134-5.754,29.257,29.257,0,0,1,.14-3.136Zm3.71-.1a6.059,6.059,0,0,1,.056.924V2.3l-.07,7.9a6.274,6.274,0,0,1-.126,1.484l.9.952a6.091,6.091,0,0,1,.6-.252,9.246,9.246,0,0,0,2.982-1.68,8.688,8.688,0,0,0,2.226-3.262A5.868,5.868,0,0,1,67.522,6.12,6.841,6.841,0,0,1,66.15,8.682a5.629,5.629,0,0,1-2.142,1.6l.07-7.966a7.586,7.586,0,0,1,.1-1.33ZM10.108,19.206a8.812,8.812,0,0,1-1.806.1H4.186a8.98,8.98,0,0,1-1.806-.1v1.708a11.567,11.567,0,0,1,1.778-.07H8.33a11.447,11.447,0,0,1,1.778.07Zm.882,5.138a12.3,12.3,0,0,1,1.778.07V22.748a9.151,9.151,0,0,1-1.806.1H2.772a9.151,9.151,0,0,1-1.806-.1v1.666a12.3,12.3,0,0,1,1.778-.07h3.4c-.1,2.716-1.19,4.1-3.934,4.97A4.451,4.451,0,0,1,3.36,30.868C6.524,29.65,7.84,27.8,7.994,24.344Zm2.968-4.466a8.585,8.585,0,0,0-1.232-2.128l-1.008.364a10.169,10.169,0,0,1,1.2,2.17ZM9.884,18.66a10.321,10.321,0,0,1,1.232,2.24l1.05-.392A9.88,9.88,0,0,0,10.92,18.3Zm9.142,2.814V20.018a7.079,7.079,0,0,1,.056-1.19H17.248a6.5,6.5,0,0,1,.07,1.246v1.4h-.826a9.318,9.318,0,0,1-1.82-.1v1.708a12.286,12.286,0,0,1,1.792-.07h.854v2.058a9,9,0,0,1-.056,1.2h1.82a7.986,7.986,0,0,1-.056-1.176V23.014h3.626a8.835,8.835,0,0,1-.448,3.5c-.6,1.358-1.778,2.24-3.766,2.8a4.283,4.283,0,0,1,1.05,1.484,6.753,6.753,0,0,0,4.158-3.262c.518-1.106.658-2,.686-4.522h.924a12.4,12.4,0,0,1,1.806.07V21.376a9.4,9.4,0,0,1-1.834.1h-.882c0-.56.014-1.106.014-1.624a5.747,5.747,0,0,1,.042-.924H22.61a10.342,10.342,0,0,1,.056,1.386v1.162Zm5.362-3.094a8.436,8.436,0,0,1,.952,2.2l.966-.28a8.561,8.561,0,0,0-.966-2.184Zm3.57,1.442a8.9,8.9,0,0,0-.952-2.1l-.9.28a8.862,8.862,0,0,1,.952,2.114Zm10.178-1.19a11.2,11.2,0,0,1-2.6,2.618,20.446,20.446,0,0,1-7.35,3.64,5.266,5.266,0,0,1,.938,1.6,22.683,22.683,0,0,0,5-2.268v4.928a7.874,7.874,0,0,1-.084,1.512h1.96a10.591,10.591,0,0,1-.07-1.554V23.126a24.757,24.757,0,0,0,3.3-2.884,5.766,5.766,0,0,1,.518-.49Zm5.012,2.38a14.7,14.7,0,0,1,3.57,2.842l1.2-1.526a19.828,19.828,0,0,0-3.612-2.7Zm.49,9.24a4.956,4.956,0,0,1,.924-.238,15.122,15.122,0,0,0,5.334-2.1,12.287,12.287,0,0,0,4.438-5.488,6.037,6.037,0,0,1-1.484-1.372,11.69,11.69,0,0,1-1.428,2.8,9.354,9.354,0,0,1-4.158,3.43A13.34,13.34,0,0,1,43.12,28.32Z" transform="translate(8176 5281)" fill="#252525"/>
    <path id="パス_3174" data-name="パス 3174" d="M2.758,2.942H1.792A6.185,6.185,0,0,1,.7,2.858V4.384a8.2,8.2,0,0,1,1.2-.07h.854v2.45a11.972,11.972,0,0,1-2.226.28L.77,8.64c.182-.042.28-.07.448-.1.812-.154,1.078-.21,1.54-.308v2.94c0,.322-.112.42-.49.42a9.414,9.414,0,0,1-1.484-.14,4.8,4.8,0,0,1,.35,1.512c.364.028.714.042.966.042a4.9,4.9,0,0,0,1.638-.21,1.145,1.145,0,0,0,.532-1.134V7.87C4.9,7.7,5.236,7.6,6.258,7.3L6.244,5.9c-.826.266-1.078.322-1.974.546V4.314h.784a9.79,9.79,0,0,1,1.162.056V2.886a5.4,5.4,0,0,1-.84.056H4.27V1.626A10.09,10.09,0,0,1,4.354.212H2.674A10.028,10.028,0,0,1,2.758,1.64ZM9.73,2.564v8.554c0,.308-.112.364-.7.364a17.267,17.267,0,0,1-2.184-.2,5.462,5.462,0,0,1,.336,1.6c.742.042,1.232.056,1.694.056a4.865,4.865,0,0,0,1.848-.238,1.387,1.387,0,0,0,.588-1.33V2.564h.518c.616,0,1.218.028,1.638.07V1.066a12.134,12.134,0,0,1-1.638.084H7.392a12.134,12.134,0,0,1-1.638-.084V2.634c.434-.042.994-.07,1.582-.07ZM17.4,5.84a10.541,10.541,0,0,1,1.2-.056h4.788a10.191,10.191,0,0,1,1.26.056V4.86a13.607,13.607,0,0,0,2.282,1.232,7.538,7.538,0,0,1,.77-1.54,13.164,13.164,0,0,1-3.57-1.918A9.147,9.147,0,0,1,21.784.268H20.118a9.777,9.777,0,0,1-2.2,2.338,13.988,13.988,0,0,1-3.57,2.016,5.422,5.422,0,0,1,.812,1.428A14.253,14.253,0,0,0,17.4,4.874ZM18.62,4.328h-.392A9.8,9.8,0,0,0,20.972,1.6a12.788,12.788,0,0,0,2.884,2.73H18.62Zm-.686,8.736V12.35h6.118v.714h1.666a8.746,8.746,0,0,1-.084-1.47V8.318a9.543,9.543,0,0,1,.07-1.386,9.183,9.183,0,0,1-1.218.056h-7a8.817,8.817,0,0,1-1.2-.056,12.64,12.64,0,0,1,.07,1.386V11.58a11.2,11.2,0,0,1-.084,1.484Zm0-4.718h6.118v2.632H17.934ZM40,10.166a11.385,11.385,0,0,1-4.046.532c-2.282,0-2.884-.294-3-1.47-.028-.28-.07-1.806-.07-2.534V6.4c.014-.742.014-.742.014-.812V5.21c1.946-.112,1.946-.112,4.074-.2a12.065,12.065,0,0,1-.126,1.75c-.084.546-.238.728-.6.728a4.342,4.342,0,0,1-1.834-.686,7.453,7.453,0,0,1,.1,1.148c0,.2,0,.28-.014.56a4.589,4.589,0,0,0,2,.476,1.706,1.706,0,0,0,1.708-1.05,8.951,8.951,0,0,0,.364-2.968c.658,0,1.456-.014,1.946-.014a4.908,4.908,0,0,1,.8.042l-.028-1.666a27,27,0,0,1-2.716.126V1.71a6.381,6.381,0,0,1,.07-.966H36.89a15.141,15.141,0,0,1,.084,2.772c-2.086.1-2.086.1-4.046.2a16.31,16.31,0,0,1,.126-2.73H31.178a13.814,13.814,0,0,1,.1,2.38c0,.084,0,.21-.014.434-1.386.084-2.156.126-2.282.126-.07,0-.21,0-.406-.014l.112,1.638a19.121,19.121,0,0,1,2.59-.252c-.014,1.092-.014,1.148-.014,1.358a13.86,13.86,0,0,0,.252,3.822c.42,1.344,1.554,1.848,4.172,1.848.924,0,2.772-.1,3.794-.21.476-.056.476-.056.63-.07ZM49.686.1a8.015,8.015,0,0,1-1.47,2.086c-.266-.2-.364-.266-.728-.532l-.994,1.078A18.014,18.014,0,0,1,49.07,4.818l-.672.616c-.742.014-.742.014-.952.028h-.5a7.738,7.738,0,0,1-.854-.042l.182,1.512a19.794,19.794,0,0,1,2.506-.2,6.657,6.657,0,0,1-3.164,2.576,4.972,4.972,0,0,1,.924,1.218,9.176,9.176,0,0,0,1.652-1.12,8.146,8.146,0,0,0,1.162,1.176A10.629,10.629,0,0,1,45.64,11.8a4.912,4.912,0,0,1,.7,1.358,11.637,11.637,0,0,0,4.242-1.652,12.485,12.485,0,0,0,4.368,1.582,7.481,7.481,0,0,1,.686-1.526,12.592,12.592,0,0,1-3.738-.994A13.044,13.044,0,0,0,53.97,8.4c.1-.14.126-.168.224-.294l-.868-.8a11.007,11.007,0,0,1-1.134.056H50.036a6.092,6.092,0,0,0,.42-.742c1.274-.1,1.274-.1,3.262-.322.2.336.28.5.616,1.106l1.26-.812a27.7,27.7,0,0,0-2.156-3.08l-1.162.714c.392.49.518.658.742.966-1.568.126-1.568.126-2.66.168A34.626,34.626,0,0,0,53.1,2.494c.308-.378.406-.5.5-.6l-1.428-.77a13.993,13.993,0,0,1-2.1,2.66c-.308-.308-.448-.434-.84-.77A21.251,21.251,0,0,0,50.722,1.22C50.96.9,50.96.9,51.086.744Zm2.282,8.442A7.56,7.56,0,0,1,50.6,9.8a5.368,5.368,0,0,1-1.316-1.26ZM45.374.044a6.862,6.862,0,0,1-2.856,2.744A5.037,5.037,0,0,1,43.3,4.076a11.637,11.637,0,0,0,2.436-2.058c.35-.406.364-.42.882-1.092ZM44,8.99v2.576a10.55,10.55,0,0,1-.084,1.54h1.624c-.042-.462-.056-.868-.056-1.652V5.784c.112-.168.462-.644.714-1.008.084-.112.14-.2.168-.224a6.811,6.811,0,0,1,.378-.574l-1.26-.826a6.383,6.383,0,0,1-.84,1.386,10.454,10.454,0,0,1-2.324,2.254,5.667,5.667,0,0,1,.658,1.484,6.508,6.508,0,0,0,1.036-1.008ZM13.44,19.248a9.136,9.136,0,0,1-1.568.084H8.6c.154-.308.238-.476.462-.938L7.546,18.1a6.751,6.751,0,0,1-2.17,3.248c.014-.35.028-.518.056-.756H3.962a10.088,10.088,0,0,1,.056,1.3v5.7a7.732,7.732,0,0,1-.084,1.456H5.446a8.29,8.29,0,0,1-.07-1.428V21.978a5.31,5.31,0,0,1,.686.616,8.4,8.4,0,0,0,1.12-1.106,6.943,6.943,0,0,0,1.134,1.358,9.3,9.3,0,0,1-2.688.938,4.847,4.847,0,0,1,.616,1.2,11.915,11.915,0,0,0,3.108-1.3,11.253,11.253,0,0,0,3.864,1.554A5.474,5.474,0,0,1,13.8,23.8a9.386,9.386,0,0,1-3.318-.952,8.307,8.307,0,0,0,1.722-2.212,10.429,10.429,0,0,1,1.232.056Zm-2.758,1.386a4.941,4.941,0,0,1-1.288,1.5,5.765,5.765,0,0,1-1.33-1.5ZM1.876,29.482a14.77,14.77,0,0,1-.084,1.68h1.54a14.752,14.752,0,0,1-.07-1.68v-7.7a18.621,18.621,0,0,0,1.05-2.59c.126-.406.126-.406.21-.63L2.94,18.156a11.778,11.778,0,0,1-2.66,5.53,7.057,7.057,0,0,1,.672,1.638,7.252,7.252,0,0,0,.966-1.5c-.028.63-.042.98-.042,1.666ZM9.338,24.3a7.722,7.722,0,0,1-3.682,1.512,3.969,3.969,0,0,1,.7,1.092,10.763,10.763,0,0,0,3.514-1.5c.378-.266.378-.266.5-.35Zm1.414,1.064c-.714.938-2.842,1.946-4.97,2.352a3.7,3.7,0,0,1,.672,1.176,12.487,12.487,0,0,0,5.474-2.73Zm1.61,1.232a5.844,5.844,0,0,1-1.778,1.526,13.926,13.926,0,0,1-5.306,1.792,5.448,5.448,0,0,1,.728,1.26A13.629,13.629,0,0,0,12.992,27.9c.21-.2.378-.322.546-.462ZM20.65,29.09H18.382V24.554a13.062,13.062,0,0,1,.1-1.806H16.7a13.556,13.556,0,0,1,.1,1.82V29.09h-.294a10.211,10.211,0,0,1-1.82-.1v1.624a15.194,15.194,0,0,1,1.848-.1H25.48a13.921,13.921,0,0,1,1.834.1V28.992a14.735,14.735,0,0,1-1.848.1H22.26V25.128h2.394a12.44,12.44,0,0,1,1.568.084V23.658a11.983,11.983,0,0,1-1.568.084H22.26V20.326h2.814c.616,0,1.218.028,1.778.084V18.828a17.621,17.621,0,0,1-1.778.084H16.968a16.377,16.377,0,0,1-1.764-.084V20.41c.588-.056,1.12-.084,1.778-.084H20.65Z" transform="translate(8176 5333)" fill="#252525"/>
    <path id="パス_3175" data-name="パス 3175" d="M3.22,1.262H2.338a8.375,8.375,0,0,1-1.344-.07V2.564a4.653,4.653,0,0,1,.8-.056A5.794,5.794,0,0,1,2.17,3.754H2.058a7.632,7.632,0,0,1-1.372-.07V5.07A7.4,7.4,0,0,1,1.988,5H5.712a9.2,9.2,0,0,1,1.008.042V3.7a7.187,7.187,0,0,1-1.036.056H5.6a8.9,8.9,0,0,0,.49-1.246.74.74,0,0,0,.182.014,1.522,1.522,0,0,1,.252.014.482.482,0,0,1,.126.014V1.206a6.979,6.979,0,0,1-1.022.056H4.676v-.2A3.588,3.588,0,0,1,4.746.2H3.15a5.449,5.449,0,0,1,.07.868Zm.238,2.492c-.14-.56-.224-.854-.35-1.246H4.774a5.21,5.21,0,0,1-.42,1.246Zm.7,4.956v2.142a6.067,6.067,0,0,1-.952.238l.28,1.5a4.031,4.031,0,0,1,.434-.182c.546-.21.7-.266,1.092-.448A15.648,15.648,0,0,0,7.1,10.894L7.056,9.62c-.644.336-1.008.518-1.554.756V8.71c.532,0,.532,0,.952.028A6.49,6.49,0,0,1,6.412,7.8V6.4a4.654,4.654,0,0,1,.056-.9c-.378.028-.574.042-1.148.042H2.464A9.678,9.678,0,0,1,1.232,5.5a5.608,5.608,0,0,1,.056.924V7.814a5.794,5.794,0,0,1-.056.938c.392-.028.392-.028.924-.042A4.21,4.21,0,0,1,.378,12.126a6.626,6.626,0,0,1,.994,1.134,5.04,5.04,0,0,0,1.5-1.9A6.865,6.865,0,0,0,3.528,8.71ZM2.73,6.666H5.012v.9H2.73Zm6.5-5.4H8.148a6.979,6.979,0,0,1-1.022-.056V2.55c.266-.028.322-.028.672-.042a7.538,7.538,0,0,1,.378,1.246H8.092A7.187,7.187,0,0,1,7.056,3.7V5.042A9.2,9.2,0,0,1,8.064,5h3.948a9.4,9.4,0,0,1,1.3.07V3.684a7.632,7.632,0,0,1-1.372.07h-.21a9.265,9.265,0,0,0,.49-1.246,4.285,4.285,0,0,1,.784.056V1.192a8.591,8.591,0,0,1-1.344.07h-.98v-.2A4.593,4.593,0,0,1,10.752.2h-1.6a4.194,4.194,0,0,1,.07.868ZM9.45,3.754A9.731,9.731,0,0,0,9.1,2.508h1.778a6.023,6.023,0,0,1-.434,1.246Zm.658,4.956V11.9c0,.742.378,1.008,1.47,1.008.882,0,1.386-.14,1.624-.448a4.291,4.291,0,0,0,.434-2.254,6.089,6.089,0,0,1-1.2-.406,6.723,6.723,0,0,1-.112,1.526c-.056.182-.182.238-.518.238-.266,0-.35-.07-.35-.28V8.71h.112c.49,0,.854.014,1.19.042a5.579,5.579,0,0,1-.056-.938V6.428a5.608,5.608,0,0,1,.056-.924c-.378.028-.63.042-1.246.042H8.428c-.532,0-.812-.014-1.162-.042a4.843,4.843,0,0,1,.056.9V7.8a6.765,6.765,0,0,1-.042.938c.35-.014.35-.014.882-.028a3.466,3.466,0,0,1-.77,2.268,4.221,4.221,0,0,1-1.624,1.19A4.54,4.54,0,0,1,6.8,13.26a4.734,4.734,0,0,0,2.058-1.9A6.378,6.378,0,0,0,9.548,8.71Zm1.134-2.044v.9H8.736v-.9ZM17.4,5.84a10.541,10.541,0,0,1,1.2-.056h4.788a10.191,10.191,0,0,1,1.26.056V4.86a13.607,13.607,0,0,0,2.282,1.232,7.538,7.538,0,0,1,.77-1.54,13.164,13.164,0,0,1-3.57-1.918A9.147,9.147,0,0,1,21.784.268H20.118a9.777,9.777,0,0,1-2.2,2.338,13.988,13.988,0,0,1-3.57,2.016,5.422,5.422,0,0,1,.812,1.428A14.253,14.253,0,0,0,17.4,4.874ZM18.62,4.328h-.392A9.8,9.8,0,0,0,20.972,1.6a12.788,12.788,0,0,0,2.884,2.73H18.62Zm-.686,8.736V12.35h6.118v.714h1.666a8.746,8.746,0,0,1-.084-1.47V8.318a9.543,9.543,0,0,1,.07-1.386,9.183,9.183,0,0,1-1.218.056h-7a8.817,8.817,0,0,1-1.2-.056,12.64,12.64,0,0,1,.07,1.386V11.58a11.2,11.2,0,0,1-.084,1.484Zm0-4.718h6.118v2.632H17.934ZM36.82,4.384v.994h-.546a4.785,4.785,0,0,1-.826-.056V6.61a4.784,4.784,0,0,1,.826-.056H38.64a4.554,4.554,0,0,1,.84.056V5.322a4.821,4.821,0,0,1-.854.056h-.56V4.384h.462a6.9,6.9,0,0,1,.854.042V3.166a5.027,5.027,0,0,1-.854.056h-.462a4.729,4.729,0,0,1,.056-.91H36.764a5.016,5.016,0,0,1,.056.91H36.4a5.46,5.46,0,0,1-.826-.056v1.26a6.965,6.965,0,0,1,.84-.042ZM35.2,1.99H39.76v9.282c0,.294-.1.35-.588.35a10.738,10.738,0,0,1-1.47-.14,5,5,0,0,1,.308,1.456c.56.028.84.042,1.288.042a2.268,2.268,0,0,0,1.442-.294,1.326,1.326,0,0,0,.392-1.078V2.214A12.167,12.167,0,0,1,41.2.632a12.492,12.492,0,0,1-1.47.056H35.28A13.564,13.564,0,0,1,33.8.632,20.014,20.014,0,0,1,33.88,3.18a52.74,52.74,0,0,1-.294,6.5A7.213,7.213,0,0,1,33,11.9V9.62a7.194,7.194,0,0,1,.042-.994c-.182.014-.182.014-.84.028H29.96a5.319,5.319,0,0,1-.952-.042A8.743,8.743,0,0,1,29.064,9.7v2.072c0,.448-.028.952-.07,1.372h1.372v-.714h1.386v.434H33.04A3.866,3.866,0,0,1,33,12.252a5.434,5.434,0,0,1,1.036.924,9.713,9.713,0,0,0,.77-2.562A48.338,48.338,0,0,0,35.2,3.53ZM30.338,9.83h1.428V11.2H30.338ZM29.092,1.99c.336-.028.63-.042,1.134-.042h1.708c.5,0,.756.014,1.134.042V.6a6.149,6.149,0,0,1-1.134.07H30.226A6.057,6.057,0,0,1,29.092.6Zm-.42,2.044a8.6,8.6,0,0,1,1.134-.056h2.478a6.436,6.436,0,0,1,1.064.056V2.592a7.7,7.7,0,0,1-1.134.056H29.806a8.2,8.2,0,0,1-1.134-.056Zm.406,1.946a6.937,6.937,0,0,1,.882-.042h2.184A6.743,6.743,0,0,1,33,5.98V4.664a6.3,6.3,0,0,1-.854.042H29.96a7.09,7.09,0,0,1-.882-.042Zm0,1.946a7.09,7.09,0,0,1,.882-.042h2.156A6.937,6.937,0,0,1,33,7.926v-1.3a6.4,6.4,0,0,1-.868.042H29.96a7.09,7.09,0,0,1-.882-.042Zm9.954.21a7.871,7.871,0,0,1,.042-.924,7.346,7.346,0,0,1-.938.042H36.512a8.847,8.847,0,0,1-.938-.042,9.052,9.052,0,0,1,.042.966v2.6a7.916,7.916,0,0,1-.056,1.148h1.19v-.98h1.386c.042,0,.154,0,.336.014a2.625,2.625,0,0,1,.294.014,2.168,2.168,0,0,1,.308.014,4.663,4.663,0,0,1-.042-.742Zm-2.282.308H37.9v1.3H36.75ZM48.16,1.5H44.52a12.7,12.7,0,0,1-1.68-.084V2.928a12.756,12.756,0,0,1,1.568-.084H46.83a10.84,10.84,0,0,1-4.438,2.632A5.884,5.884,0,0,1,43.26,6.82a11.5,11.5,0,0,0,1.68-.826c.014.28.014.364.014.77v4.564H44.24a11.835,11.835,0,0,1-1.568-.084V12.77a13.361,13.361,0,0,1,1.666-.084h9.338a12.962,12.962,0,0,1,1.652.084V11.244a11.092,11.092,0,0,1-1.54.084h-.77V6.89c0-.42,0-.42.014-.882a10.788,10.788,0,0,0,1.75.84,8.265,8.265,0,0,1,.854-1.47,9.9,9.9,0,0,1-4.662-2.534h2.618a13.164,13.164,0,0,1,1.582.084V1.416a12.218,12.218,0,0,1-1.582.084H49.644V1.318A5.4,5.4,0,0,1,49.728.24H48.076a4.8,4.8,0,0,1,.084,1.078Zm0,2.73a5.1,5.1,0,0,1-.07.91h1.624a4.072,4.072,0,0,1-.07-.9V3.936c0-.1-.014-.35-.028-.756A8.72,8.72,0,0,0,52.08,5.434H45.836A9.777,9.777,0,0,0,48.174,3.25c-.014.448-.014.686-.014.686ZM46.438,6.68h5.1v.77h-5.1Zm0,1.932h5.1V9.4h-5.1Zm0,1.946h5.1v.77h-5.1Z" transform="translate(8176 5393)" fill="#252525"/>
    <path id="パス_3177" data-name="パス 3177" d="M10.108,8.766v2.422c0,.308-.1.378-.518.378A14.156,14.156,0,0,1,7.532,11.4a5.065,5.065,0,0,1,.406,1.568c.714.042,1.176.056,1.624.056a2.775,2.775,0,0,0,1.624-.28c.35-.224.5-.63.5-1.33V2.34A10.56,10.56,0,0,1,11.76.758a12.619,12.619,0,0,1-1.624.07H4.3A14.125,14.125,0,0,1,2.66.758a19.729,19.729,0,0,1,.07,2.114c0,3.64-.14,5.278-.56,6.58a5.3,5.3,0,0,1-1.5,2.464,5.416,5.416,0,0,1,1.3,1.288,7.85,7.85,0,0,0,1.652-2.772,10.376,10.376,0,0,0,.406-1.666ZM4.2,7.338c.084-1.134.112-1.442.112-1.876h5.8V7.338Zm.126-3.3V2.284h5.782v1.75ZM19.572,3.7a4.443,4.443,0,0,1-.644.028h-1.12c.126-.224.126-.224.21-.392l.112-.224-1.3-.266A5.638,5.638,0,0,1,14.42,5.63a3.078,3.078,0,0,1,.742,1.092,6.675,6.675,0,0,0,1.008-.84A7.523,7.523,0,0,0,17,6.736,8.4,8.4,0,0,1,14.252,8a3.338,3.338,0,0,1,.7,1.288c.294-.126.378-.168.616-.28.014.21.014.322.014.518v2.184a11.211,11.211,0,0,1-.07,1.3h1.442v-.77h1.918V12.9h1.4c-.014-.182-.028-.392-.042-.672a4.425,4.425,0,0,1,.742,1.05,7.742,7.742,0,0,0,2.842-2.016l-1.022-.882h2.3l-.98.9a7.712,7.712,0,0,0,2.828,1.974,5.56,5.56,0,0,1,.84-1.344A6.4,6.4,0,0,1,25.2,10.376h.476c.336,0,.728.014,1.2.042-.028-.5-.042-.84-.042-1.442V4.146c0-.532.014-.854.042-1.246a9.649,9.649,0,0,1-1.372.042h-.924a10.362,10.362,0,0,0,.35-.98h.994a10.841,10.841,0,0,1,1.47.07V.548a10.394,10.394,0,0,1-1.47.07H22.274A9.763,9.763,0,0,1,20.8.548v.9c-.21.014-.462.028-1.036.028H18.62v-.28a3.7,3.7,0,0,1,.07-.9H17.08a4.091,4.091,0,0,1,.07.882v.294H15.834a8.992,8.992,0,0,1-1.12-.042c.028.35.042.686.042.938V3.04a6.691,6.691,0,0,1-.056.9h1.386V2.718h3.486Zm.5.182h.812a6.356,6.356,0,0,1-.042-.938v-.91a12.168,12.168,0,0,1,1.428-.07h1.218c-.1.308-.154.49-.35.98H22.33a11.127,11.127,0,0,1-1.176-.028c.042.686.042.686.042,1.316v4.9c0,.322-.014.952-.042,1.288q.735-.042,1.092-.042h.42a5.162,5.162,0,0,1-1.092.952,4.954,4.954,0,0,1-1.358.686V9.62c0-.532,0-.532.028-.966l.406.126a4.55,4.55,0,0,1,.49-1.26,10.781,10.781,0,0,1-2.226-.84,11.868,11.868,0,0,0,1.442-1.96c.07-.1.084-.112.168-.224l.056-.07Zm-1.26,1.008a9.356,9.356,0,0,1-.938,1.12,5.617,5.617,0,0,1-.952-.966.61.61,0,0,0,.126-.154ZM16.534,8.514a8.8,8.8,0,0,0,1.456-.98,12.787,12.787,0,0,0,1.862.966c-.168.014-.252.014-.546.014Zm.406,1.162h1.932v1.358H16.94ZM22.568,4.2h2.884v.84H22.568Zm0,1.988h2.884v.882H22.568Zm0,2.03h2.884v.868H22.568Zm11.76,2.618c.308-.1.714-.21,1.33-.35l2.968-.672V11.51a10.151,10.151,0,0,1-.084,1.666h1.694a10.266,10.266,0,0,1-.084-1.652V9.48l.14-.028A10.227,10.227,0,0,1,41.636,9.2l-.294-1.6a8.538,8.538,0,0,1-1.19.35V1.878a9.9,9.9,0,0,1,.084-1.61H38.542a9.581,9.581,0,0,1,.084,1.624v6.4l-3.276.728a9.375,9.375,0,0,1-1.288.2,8.163,8.163,0,0,1,.392-.784,7.435,7.435,0,0,1-1.806-2.142h.5a8.142,8.142,0,0,1,1.106.056V4.888a7.09,7.09,0,0,1-1.078.056h-.658V1.612a8.358,8.358,0,0,1,.07-1.358H31a8.662,8.662,0,0,1,.07,1.372V4.944h-.938a6.952,6.952,0,0,1-1.26-.07V6.358a7.244,7.244,0,0,1,1.26-.07h.728a11.8,11.8,0,0,1-.742,1.582A9.206,9.206,0,0,1,28.6,9.942a4.217,4.217,0,0,1,.714,1.442,9.67,9.67,0,0,0,1.82-3.15c-.028.462-.056,1.12-.056,1.68V11.72a9.065,9.065,0,0,1-.1,1.484h1.624a8.281,8.281,0,0,1-.084-1.456V9.438c0-.448-.014-.644-.084-1.6a10.357,10.357,0,0,0,1.414,1.974c.07-.224.084-.294.154-.476ZM28.77,1.556a11.3,11.3,0,0,1,.868,3l1.176-.5a17.027,17.027,0,0,0-.854-3.024ZM33.586,1A11.646,11.646,0,0,1,32.62,4.02l1.022.532a16.942,16.942,0,0,0,1.12-3.038Zm1.33,1.274a11.827,11.827,0,0,1,2.478,2.156l.952-1.176A13.6,13.6,0,0,0,35.9,1.192Zm-.434,3.458a12.246,12.246,0,0,1,2.464,2.156L37.9,6.75a12.774,12.774,0,0,0-2.436-2.058Zm13.65-.336V6.75h-3.3A10.333,10.333,0,0,1,43.3,6.666V8.22a11.5,11.5,0,0,1,1.512-.084h3.318v3.136H44.618a15.128,15.128,0,0,1-1.736-.084V12.8a13.8,13.8,0,0,1,1.736-.1h8.848a12.913,12.913,0,0,1,1.68.1v-1.61a13.115,13.115,0,0,1-1.652.084H49.686V8.136h3.528a11.092,11.092,0,0,1,1.54.084V6.666a9.949,9.949,0,0,1-1.526.084H49.686V5.392h1.428a9.569,9.569,0,0,1,1.372.07V4.748a14.274,14.274,0,0,0,2.45,1.232,7.146,7.146,0,0,1,.756-1.54,11.6,11.6,0,0,1-3.71-1.89A8.281,8.281,0,0,1,49.826.394H48.09a10.8,10.8,0,0,1-5.712,4.1,6.22,6.22,0,0,1,.812,1.442A15.108,15.108,0,0,0,45.472,4.79v.672a9.81,9.81,0,0,1,1.372-.07ZM46.508,4.076a9.877,9.877,0,0,0,2.45-2.352,11.045,11.045,0,0,0,2.52,2.352c-.21.014-.21.014-.336.014L46.8,4.076ZM44.464,8.822a10.2,10.2,0,0,1,1.106,2.324l1.4-.56a16.225,16.225,0,0,0-1.12-2.324Zm7.546-.546A11.7,11.7,0,0,1,50.9,10.684l1.316.49c.476-.812.532-.91.574-.994.518-1.022.518-1.022.7-1.344Z" transform="translate(8176 5498)" fill="#252525"/>
    <g id="グループ_3081" data-name="グループ 3081" transform="translate(8332.615 5496.043)">
      <path id="パス_3181" data-name="パス 3181" d="M3.637,11.287a3.277,3.277,0,0,1-2-.66A2.6,2.6,0,0,1,.615,8.7H2.557a1.173,1.173,0,0,0,.369.711,1.143,1.143,0,0,0,.8.273A1.39,1.39,0,0,0,5.079,8.621a6.222,6.222,0,0,0,.267-1.716,2.107,2.107,0,0,1-.567.513,2.575,2.575,0,0,1-1.347.328,3.063,3.063,0,0,1-2.1-.817A2.99,2.99,0,0,1,.417,4.574a3.636,3.636,0,0,1,.919-2.581,3.114,3.114,0,0,1,2.389-.988,3.086,3.086,0,0,1,3.1,2A7.8,7.8,0,0,1,7.308,6,8.5,8.5,0,0,1,6.85,9,3.207,3.207,0,0,1,3.637,11.287ZM2.953,2.913A1.772,1.772,0,0,0,2.393,4.4a2.063,2.063,0,0,0,.359,1.323,1.34,1.34,0,0,0,1.1.441,1.362,1.362,0,0,0,.759-.232,1.608,1.608,0,0,0,.663-1.47,2.078,2.078,0,0,0-.393-1.333,1.3,1.3,0,0,0-1.077-.492A1.338,1.338,0,0,0,2.953,2.913ZM9.875,11.7a1.973,1.973,0,0,1-.458.875,2.36,2.36,0,0,1-.851.6,2.2,2.2,0,0,1-.673.2V12.62a1.527,1.527,0,0,0,.865-.547A2.018,2.018,0,0,0,9.075,11H7.893V8.963H10v1.764A4.106,4.106,0,0,1,9.875,11.7ZM11.5,10.378a2.93,2.93,0,0,1-.854-2.126,3.036,3.036,0,0,1,.379-1.511,2.4,2.4,0,0,1,1.111-1.019A2.313,2.313,0,0,1,11.2,4.687a2.9,2.9,0,0,1-.215-1.042A2.433,2.433,0,0,1,11.8,1.8a3.231,3.231,0,0,1,2.3-.762,3.231,3.231,0,0,1,2.3.762,2.433,2.433,0,0,1,.813,1.842,2.9,2.9,0,0,1-.215,1.042,1.991,1.991,0,0,1-.933.967,2.747,2.747,0,0,1,1.1,1.087,3.1,3.1,0,0,1,.369,1.511,2.826,2.826,0,0,1-.926,2.129,3.61,3.61,0,0,1-2.587.878A3.347,3.347,0,0,1,11.5,10.378Zm1.169-2.256a1.592,1.592,0,0,0,.379,1.135,1.371,1.371,0,0,0,1.049.4,1.371,1.371,0,0,0,1.049-.4,1.592,1.592,0,0,0,.379-1.135A1.578,1.578,0,0,0,15.14,6.97a1.579,1.579,0,0,0-2.085,0A1.578,1.578,0,0,0,12.668,8.122Zm.513-3.377a1.21,1.21,0,0,0,.916.342,1.208,1.208,0,0,0,.919-.342,1.228,1.228,0,0,0,.325-.882,1.258,1.258,0,0,0-.325-.919,1.229,1.229,0,0,0-.919-.332,1.243,1.243,0,0,0-.919.332,1.243,1.243,0,0,0-.332.919A1.207,1.207,0,0,0,13.181,4.745Zm8.036,6.5A2.8,2.8,0,0,1,18.562,9.92,7.672,7.672,0,0,1,17.8,6.14a7.713,7.713,0,0,1,.762-3.787A2.8,2.8,0,0,1,21.217,1.02a2.808,2.808,0,0,1,2.659,1.333,7.743,7.743,0,0,1,.759,3.787,7.672,7.672,0,0,1-.762,3.78A2.8,2.8,0,0,1,21.217,11.246Zm1.142-2.5a9.753,9.753,0,0,0,.267-2.611,9.566,9.566,0,0,0-.27-2.652,1.1,1.1,0,0,0-1.138-.861,1.119,1.119,0,0,0-1.148.861,9.233,9.233,0,0,0-.28,2.652,9.337,9.337,0,0,0,.28,2.615,1.176,1.176,0,0,0,2.29,0Zm5.945,2.5A2.8,2.8,0,0,1,25.648,9.92a7.672,7.672,0,0,1-.762-3.78,7.713,7.713,0,0,1,.762-3.787A2.8,2.8,0,0,1,28.3,1.02a2.808,2.808,0,0,1,2.659,1.333,7.743,7.743,0,0,1,.759,3.787,7.672,7.672,0,0,1-.762,3.78A2.8,2.8,0,0,1,28.3,11.246Zm1.142-2.5a9.753,9.753,0,0,0,.267-2.611,9.566,9.566,0,0,0-.27-2.652A1.1,1.1,0,0,0,28.3,2.626a1.119,1.119,0,0,0-1.148.861,9.233,9.233,0,0,0-.28,2.652,9.337,9.337,0,0,0,.28,2.615,1.176,1.176,0,0,0,2.29,0Z" transform="translate(13 3)" fill="#252525"/>
      <path id="パス_3180" data-name="パス 3180" d="M8.036,12.252a10.988,10.988,0,0,1-.112-1.806V9.494H10a7.658,7.658,0,0,1,1.47.112V8.01A7.658,7.658,0,0,1,10,8.122H7.924V7.716l.462-.728h1.638a7.658,7.658,0,0,1,1.47.112V5.5a7.474,7.474,0,0,1-1.47.112H9.24l1.932-3.08c.252-.406.812-1.2.994-1.442H9.744A5.917,5.917,0,0,1,9.072,2.48L7,6.022,4.928,2.466a5.929,5.929,0,0,1-.672-1.372H1.848c.21.266.574.812.98,1.442l1.946,3.08H3.99A7.384,7.384,0,0,1,2.52,5.5V7.1a7.474,7.474,0,0,1,1.47-.112H5.614l.462.714v.42H3.962a7.565,7.565,0,0,1-1.47-.112v1.6a7.565,7.565,0,0,1,1.47-.112H6.076v.952a13.869,13.869,0,0,1-.112,1.806Z" fill="#252525"/>
      <path id="パス_3047" data-name="パス 3047" d="M7.977,9.32a4.4,4.4,0,0,1-.68,1.16,1.788,1.788,0,0,1-1.344.688,3.7,3.7,0,0,1-2-.937A6.011,6.011,0,0,0,3.34,9.8a1.458,1.458,0,0,0-.707-.2,1.042,1.042,0,0,0-.762.461,2.745,2.745,0,0,0-.461.809l-.832-.328A4.411,4.411,0,0,1,1.242,9.4a1.814,1.814,0,0,1,1.375-.687,2.159,2.159,0,0,1,1.035.281,9.353,9.353,0,0,1,.895.613,2.714,2.714,0,0,0,1.391.664q.465,0,.918-.742.109-.172.289-.535Z" transform="translate(53.523 3.789)" fill="#252525"/>
    </g>
    <g id="グループ_3082" data-name="グループ 3082" transform="translate(8253.995 5496)">
      <path id="パス_3178" data-name="パス 3178" d="M5.3,11h-2V4.164H.971V2.838a8.636,8.636,0,0,0,1.292-.123A1.822,1.822,0,0,0,3.22,2.2,1.711,1.711,0,0,0,3.6,1.484a1.632,1.632,0,0,0,.075-.4H5.3Zm9.11-3.657V8.867H13.286V11H11.379V8.867H7.455v-1.7L11.1,1.149h2.188V7.343Zm-5.51,0h2.481V3.063ZM16.961,11.7a1.973,1.973,0,0,1-.458.875,2.36,2.36,0,0,1-.851.6,2.2,2.2,0,0,1-.673.2V12.62a1.527,1.527,0,0,0,.865-.547A2.018,2.018,0,0,0,16.162,11H14.979V8.963h2.105v1.764A4.106,4.106,0,0,1,16.961,11.7Zm1.624-1.319a2.93,2.93,0,0,1-.854-2.126,3.036,3.036,0,0,1,.379-1.511,2.4,2.4,0,0,1,1.111-1.019,2.313,2.313,0,0,1-.933-1.036,2.9,2.9,0,0,1-.215-1.042A2.433,2.433,0,0,1,18.886,1.8a3.231,3.231,0,0,1,2.3-.762,3.231,3.231,0,0,1,2.3.762,2.433,2.433,0,0,1,.813,1.842,2.9,2.9,0,0,1-.215,1.042,1.991,1.991,0,0,1-.933.967,2.747,2.747,0,0,1,1.1,1.087,3.1,3.1,0,0,1,.369,1.511,2.826,2.826,0,0,1-.926,2.129,3.61,3.61,0,0,1-2.587.878A3.347,3.347,0,0,1,18.586,10.378Zm1.169-2.256a1.592,1.592,0,0,0,.379,1.135,1.567,1.567,0,0,0,2.1,0,1.592,1.592,0,0,0,.379-1.135,1.578,1.578,0,0,0-.386-1.152,1.579,1.579,0,0,0-2.085,0A1.578,1.578,0,0,0,19.754,8.122Zm.513-3.377a1.4,1.4,0,0,0,1.835,0,1.228,1.228,0,0,0,.325-.882,1.258,1.258,0,0,0-.325-.919,1.229,1.229,0,0,0-.919-.332,1.243,1.243,0,0,0-.919.332,1.243,1.243,0,0,0-.332.919A1.207,1.207,0,0,0,20.267,4.745Zm8.036,6.5A2.8,2.8,0,0,1,25.648,9.92a7.672,7.672,0,0,1-.762-3.78,7.713,7.713,0,0,1,.762-3.787A2.8,2.8,0,0,1,28.3,1.02a2.808,2.808,0,0,1,2.659,1.333,7.743,7.743,0,0,1,.759,3.787,7.672,7.672,0,0,1-.762,3.78A2.8,2.8,0,0,1,28.3,11.246Zm1.142-2.5a9.753,9.753,0,0,0,.267-2.611,9.566,9.566,0,0,0-.27-2.652A1.1,1.1,0,0,0,28.3,2.626a1.119,1.119,0,0,0-1.148.861,9.233,9.233,0,0,0-.28,2.652,9.337,9.337,0,0,0,.28,2.615,1.176,1.176,0,0,0,2.29,0Zm5.945,2.5A2.8,2.8,0,0,1,32.734,9.92a7.672,7.672,0,0,1-.762-3.78,7.713,7.713,0,0,1,.762-3.787A2.8,2.8,0,0,1,35.39,1.02a2.808,2.808,0,0,1,2.659,1.333,7.743,7.743,0,0,1,.759,3.787,7.672,7.672,0,0,1-.762,3.78A2.8,2.8,0,0,1,35.39,11.246Zm1.142-2.5A9.753,9.753,0,0,0,36.8,6.14a9.567,9.567,0,0,0-.27-2.652,1.1,1.1,0,0,0-1.138-.861,1.119,1.119,0,0,0-1.148.861,9.233,9.233,0,0,0-.28,2.652,9.337,9.337,0,0,0,.28,2.615,1.176,1.176,0,0,0,2.29,0Z" transform="translate(11.75 3)" fill="#252525"/>
      <path id="パス_3179" data-name="パス 3179" d="M8.036,12.252a10.988,10.988,0,0,1-.112-1.806V9.494H10a7.658,7.658,0,0,1,1.47.112V8.01A7.658,7.658,0,0,1,10,8.122H7.924V7.716l.462-.728h1.638a7.658,7.658,0,0,1,1.47.112V5.5a7.474,7.474,0,0,1-1.47.112H9.24l1.932-3.08c.252-.406.812-1.2.994-1.442H9.744A5.917,5.917,0,0,1,9.072,2.48L7,6.022,4.928,2.466a5.929,5.929,0,0,1-.672-1.372H1.848c.21.266.574.812.98,1.442l1.946,3.08H3.99A7.384,7.384,0,0,1,2.52,5.5V7.1a7.474,7.474,0,0,1,1.47-.112H5.614l.462.714v.42H3.962a7.565,7.565,0,0,1-1.47-.112v1.6a7.565,7.565,0,0,1,1.47-.112H6.076v.952a13.869,13.869,0,0,1-.112,1.806Z" transform="translate(0.005)" fill="#252525"/>
      <path id="パス_3047-2" data-name="パス 3047" d="M7.977,9.32a4.4,4.4,0,0,1-.68,1.16,1.788,1.788,0,0,1-1.344.688,3.7,3.7,0,0,1-2-.937A6.011,6.011,0,0,0,3.34,9.8a1.458,1.458,0,0,0-.707-.2,1.042,1.042,0,0,0-.762.461,2.745,2.745,0,0,0-.461.809l-.832-.328A4.411,4.411,0,0,1,1.242,9.4a1.814,1.814,0,0,1,1.375-.687,2.159,2.159,0,0,1,1.035.281,9.353,9.353,0,0,1,.895.613,2.714,2.714,0,0,0,1.391.664q.465,0,.918-.742.109-.172.289-.535Z" transform="translate(60.773 3.789)" fill="#252525"/>
    </g>
    <g id="グループ_3080" data-name="グループ 3080" transform="translate(8404 5496)">
      <path id="パス_3182" data-name="パス 3182" d="M4.867,3.1a1.228,1.228,0,0,0-1-.417,1.217,1.217,0,0,0-1.21.663A3.289,3.289,0,0,0,2.44,4.567H.547A4.789,4.789,0,0,1,1,2.523,2.853,2.853,0,0,1,3.773,1.04a3.511,3.511,0,0,1,2.5.872,3.014,3.014,0,0,1,.93,2.307,3.123,3.123,0,0,1-.656,1.955A6.538,6.538,0,0,1,5.134,7.438l-.779.554q-.731.52-1,.752a2.2,2.2,0,0,0-.455.54H7.226V11H.438A4.658,4.658,0,0,1,.9,9.052a5.508,5.508,0,0,1,1.969-2.1A14.438,14.438,0,0,0,4.607,5.572,2.041,2.041,0,0,0,5.216,4.15,1.575,1.575,0,0,0,4.867,3.1Zm9.54,4.238V8.867H13.286V11H11.379V8.867H7.455v-1.7L11.1,1.149h2.188V7.343Zm-5.51,0h2.481V3.063ZM16.961,11.7a1.973,1.973,0,0,1-.458.875,2.36,2.36,0,0,1-.851.6,2.2,2.2,0,0,1-.673.2V12.62a1.527,1.527,0,0,0,.865-.547A2.018,2.018,0,0,0,16.162,11H14.979V8.963h2.105v1.764A4.106,4.106,0,0,1,16.961,11.7Zm1.624-1.319a2.93,2.93,0,0,1-.854-2.126,3.036,3.036,0,0,1,.379-1.511,2.4,2.4,0,0,1,1.111-1.019,2.313,2.313,0,0,1-.933-1.036,2.9,2.9,0,0,1-.215-1.042A2.433,2.433,0,0,1,18.886,1.8a3.231,3.231,0,0,1,2.3-.762,3.231,3.231,0,0,1,2.3.762,2.433,2.433,0,0,1,.813,1.842,2.9,2.9,0,0,1-.215,1.042,1.991,1.991,0,0,1-.933.967,2.747,2.747,0,0,1,1.1,1.087,3.1,3.1,0,0,1,.369,1.511,2.826,2.826,0,0,1-.926,2.129,3.61,3.61,0,0,1-2.587.878A3.347,3.347,0,0,1,18.586,10.378Zm1.169-2.256a1.592,1.592,0,0,0,.379,1.135,1.567,1.567,0,0,0,2.1,0,1.592,1.592,0,0,0,.379-1.135,1.578,1.578,0,0,0-.386-1.152,1.579,1.579,0,0,0-2.085,0A1.578,1.578,0,0,0,19.754,8.122Zm.513-3.377a1.4,1.4,0,0,0,1.835,0,1.228,1.228,0,0,0,.325-.882,1.258,1.258,0,0,0-.325-.919,1.229,1.229,0,0,0-.919-.332,1.243,1.243,0,0,0-.919.332,1.243,1.243,0,0,0-.332.919A1.207,1.207,0,0,0,20.267,4.745Zm8.036,6.5A2.8,2.8,0,0,1,25.648,9.92a7.672,7.672,0,0,1-.762-3.78,7.713,7.713,0,0,1,.762-3.787A2.8,2.8,0,0,1,28.3,1.02a2.808,2.808,0,0,1,2.659,1.333,7.743,7.743,0,0,1,.759,3.787,7.672,7.672,0,0,1-.762,3.78A2.8,2.8,0,0,1,28.3,11.246Zm1.142-2.5a9.753,9.753,0,0,0,.267-2.611,9.566,9.566,0,0,0-.27-2.652A1.1,1.1,0,0,0,28.3,2.626a1.119,1.119,0,0,0-1.148.861,9.233,9.233,0,0,0-.28,2.652,9.337,9.337,0,0,0,.28,2.615,1.176,1.176,0,0,0,2.29,0Zm5.945,2.5A2.8,2.8,0,0,1,32.734,9.92a7.672,7.672,0,0,1-.762-3.78,7.713,7.713,0,0,1,.762-3.787A2.8,2.8,0,0,1,35.39,1.02a2.808,2.808,0,0,1,2.659,1.333,7.743,7.743,0,0,1,.759,3.787,7.672,7.672,0,0,1-.762,3.78A2.8,2.8,0,0,1,35.39,11.246Zm1.142-2.5A9.753,9.753,0,0,0,36.8,6.14a9.567,9.567,0,0,0-.27-2.652,1.1,1.1,0,0,0-1.138-.861,1.119,1.119,0,0,0-1.148.861,9.233,9.233,0,0,0-.28,2.652,9.337,9.337,0,0,0,.28,2.615,1.176,1.176,0,0,0,2.29,0Z" transform="translate(12 3)" fill="#252525"/>
      <path id="パス_3183" data-name="パス 3183" d="M8.036,12.252a10.988,10.988,0,0,1-.112-1.806V9.494H10a7.658,7.658,0,0,1,1.47.112V8.01A7.658,7.658,0,0,1,10,8.122H7.924V7.716l.462-.728h1.638a7.658,7.658,0,0,1,1.47.112V5.5a7.474,7.474,0,0,1-1.47.112H9.24l1.932-3.08c.252-.406.812-1.2.994-1.442H9.744A5.917,5.917,0,0,1,9.072,2.48L7,6.022,4.928,2.466a5.929,5.929,0,0,1-.672-1.372H1.848c.21.266.574.812.98,1.442l1.946,3.08H3.99A7.384,7.384,0,0,1,2.52,5.5V7.1a7.474,7.474,0,0,1,1.47-.112H5.614l.462.714v.42H3.962a7.565,7.565,0,0,1-1.47-.112v1.6a7.565,7.565,0,0,1,1.47-.112H6.076v.952a13.869,13.869,0,0,1-.112,1.806Z" fill="#252525"/>
      <path id="パス_3047-3" data-name="パス 3047" d="M7.977,9.32a4.4,4.4,0,0,1-.68,1.16,1.788,1.788,0,0,1-1.344.688,3.7,3.7,0,0,1-2-.937A6.011,6.011,0,0,0,3.34,9.8a1.458,1.458,0,0,0-.707-.2,1.042,1.042,0,0,0-.762.461,2.745,2.745,0,0,0-.461.809l-.832-.328A4.411,4.411,0,0,1,1.242,9.4a1.814,1.814,0,0,1,1.375-.687,2.159,2.159,0,0,1,1.035.281,9.353,9.353,0,0,1,.895.613,2.714,2.714,0,0,0,1.391.664q.465,0,.918-.742.109-.172.289-.535Z" transform="translate(61.023 3.789)" fill="#252525"/>
    </g>
    <path id="パス_3176" data-name="パス 3176" d="M4.724,10.544a3.708,3.708,0,0,0,1.21-.164,1.169,1.169,0,0,0,.882-1.169.863.863,0,0,0-.437-.772A4.7,4.7,0,0,0,5,7.967L3.938,7.728a6.739,6.739,0,0,1-2.174-.772A2.457,2.457,0,0,1,.745,4.774a2.912,2.912,0,0,1,.984-2.249,4.162,4.162,0,0,1,2.892-.9,4.4,4.4,0,0,1,2.717.844A3.014,3.014,0,0,1,8.518,4.925H6.494A1.445,1.445,0,0,0,5.7,3.633,2.659,2.659,0,0,0,4.478,3.38a2.285,2.285,0,0,0-1.3.328,1.045,1.045,0,0,0-.485.916.867.867,0,0,0,.479.807,5.857,5.857,0,0,0,1.313.417l1.736.417A4.489,4.489,0,0,1,7.943,7a2.464,2.464,0,0,1,.9,2.058A2.9,2.9,0,0,1,7.79,11.347a4.425,4.425,0,0,1-2.984.913,4.84,4.84,0,0,1-3.1-.9A2.987,2.987,0,0,1,.581,8.89h2.01a2.069,2.069,0,0,0,.376,1.032A2.163,2.163,0,0,0,4.724,10.544ZM17.418,7.6H12.523v2.591H18.1V12H10.466V1.924h7.39V3.708H12.523v2.14h4.895ZM24.2,12.28A4.394,4.394,0,0,1,20.9,11.1a5.436,5.436,0,0,1-1.531-4.156A5.329,5.329,0,0,1,20.9,2.792a4.394,4.394,0,0,1,3.3-1.176,4.394,4.394,0,0,1,3.3,1.176,5.342,5.342,0,0,1,1.524,4.156A5.449,5.449,0,0,1,27.5,11.1,4.394,4.394,0,0,1,24.2,12.28Zm1.989-2.707a4.138,4.138,0,0,0,.731-2.625,4.126,4.126,0,0,0-.735-2.622A2.4,2.4,0,0,0,24.2,3.4a2.434,2.434,0,0,0-2,.923,4.083,4.083,0,0,0-.745,2.625A4.083,4.083,0,0,0,22.2,9.573a2.613,2.613,0,0,0,3.985,0ZM32.827,2.4H31.553a10.086,10.086,0,0,1-1.386-.084V3.838a9.007,9.007,0,0,1,1.3-.07h2.59a13.575,13.575,0,0,1-.546,2.968c-.532-.616-.77-.882-.882-.994-.826-.854-.826-.854-1.106-1.134L30.5,5.644a25.47,25.47,0,0,1,2.38,2.576,9.717,9.717,0,0,1-2.87,3.43,5.011,5.011,0,0,1,1.064,1.3,13.759,13.759,0,0,0,2.786-3.458,20.108,20.108,0,0,1,1.61,2.422l1.106-1.232c-.994-1.4-1.106-1.554-1.988-2.674a14.341,14.341,0,0,0,.952-4.242,10.446,10.446,0,0,1,1.092.042v-1.5a7.477,7.477,0,0,1-1.344.084H34.3V1.612A11.11,11.11,0,0,1,34.367.3H32.743a6.631,6.631,0,0,1,.084,1.316Zm7.224,2.128V11.2c0,.294-.084.336-.84.336a14.065,14.065,0,0,1-1.694-.168,4.639,4.639,0,0,1,.434,1.554c.56.042,1.078.056,1.652.056.924,0,1.428-.14,1.694-.476.21-.252.252-.49.252-1.218V4.524h.182a8.136,8.136,0,0,1,.98.042l.322.042V3.04a8.028,8.028,0,0,1-1.316.084h-.168V2.018A12.607,12.607,0,0,1,41.633.352h-1.68a9.392,9.392,0,0,1,.1,1.666V3.124H38.273a8.5,8.5,0,0,1-1.33-.07v1.54a8.723,8.723,0,0,1,1.33-.07ZM36.229,6.078a12.481,12.481,0,0,1,1.96,3.388l1.274-.84a17.581,17.581,0,0,0-1.974-3.234ZM47.205,2.564a11.271,11.271,0,0,1,.63,1.442l1.372-.392c-.238-.476-.322-.644-.56-1.05h.812a5.416,5.416,0,0,1,.63.028c-.112.1-.154.14-.308.266a4.981,4.981,0,0,1,.8.714h-.938a4.633,4.633,0,0,1,.07.756H45.889a8.953,8.953,0,0,1-1.484-.1V5.686c.434-.042.91-.07,1.484-.07h3.822v.7H46.7a10.177,10.177,0,0,1-1.218-.056,9.3,9.3,0,0,1,.056,1.134V8.626a10.772,10.772,0,0,1-.07,1.288h1.568a7.577,7.577,0,0,1-.056-1.134V7.548h2.73v.5a5.276,5.276,0,0,1-1.022,1.064,10.137,10.137,0,0,1-1.61,1.148,15.937,15.937,0,0,1-2.94,1.2,5.342,5.342,0,0,1,1.078,1.344,15.316,15.316,0,0,0,2.352-1.162A7.816,7.816,0,0,0,49.753,9.7c-.028.364-.042.8-.042.98l.014,1.022v.154a7.813,7.813,0,0,1-.112,1.316h1.708a7.146,7.146,0,0,1-.112-1.456L51.2,10.656c0-.378-.014-.56-.028-1.022a4.652,4.652,0,0,0,.882.938,8.323,8.323,0,0,0,1.274.952,14.631,14.631,0,0,0,2.73,1.288,5.653,5.653,0,0,1,1.008-1.386,15.043,15.043,0,0,1-3.08-1.148,9.009,9.009,0,0,1-2.758-2.226v-.5h3V8.36c0,.21-.1.266-.392.266a7.417,7.417,0,0,1-.882-.084,3.676,3.676,0,0,1,.28,1.218c.392.028.728.042.98.042a2.237,2.237,0,0,0,1.036-.154.94.94,0,0,0,.406-.91V7.422A8.786,8.786,0,0,1,55.7,6.26c-.168.028-.6.042-1.3.056H51.223v-.7h4.13a10.79,10.79,0,0,1,1.5.07V4.23a8.278,8.278,0,0,1-1.5.1h-4.13a4.322,4.322,0,0,1,.07-.756h-.21a7.047,7.047,0,0,0,.812-.994h.924a8.657,8.657,0,0,1,.672,1.442l1.414-.378c-.2-.392-.378-.728-.588-1.064h1.148a10.968,10.968,0,0,1,1.47.07V1.206a11.815,11.815,0,0,1-1.54.084H52.637l.406-.854L51.545.17a4.735,4.735,0,0,1-1.064,2v-.98a9.383,9.383,0,0,1-1.358.084H47.247c.252-.462.392-.742.448-.84L46.2.17a5.756,5.756,0,0,1-2.156,2.856,6.34,6.34,0,0,1,.994,1.05,7.994,7.994,0,0,0,1.414-1.512ZM2.178,32.017l-.347-.474a6.346,6.346,0,0,1-.718-1.279,7.286,7.286,0,0,1-.679-2.988,6.628,6.628,0,0,1,.571-2.656,10.467,10.467,0,0,1,1.128-1.934h1.05l-.3.547A8.143,8.143,0,0,0,2.031,25.6a9.349,9.349,0,0,0-.156,1.768,8.351,8.351,0,0,0,.435,2.749,12.541,12.541,0,0,0,.9,1.9ZM6.27,24.38a3.1,3.1,0,0,1,.72.88,7.586,7.586,0,0,0,2.45-2.64,8.15,8.15,0,0,0,2.74,2.71,4.313,4.313,0,0,1,.55-1.05,7.3,7.3,0,0,1-1.45-.99,6.023,6.023,0,0,1-1.26-1.59H8.8a6.149,6.149,0,0,1-1.94,2.32v-.75a5.261,5.261,0,0,1-.8.04H4.08a4.405,4.405,0,0,1-.8-.05V24.3a5.977,5.977,0,0,1,.8-.04h2.4ZM3.61,22.82a6.237,6.237,0,0,1,.81-.04H5.83a5.949,5.949,0,0,1,.81.04v-.97a4.526,4.526,0,0,1-.81.05H4.42a4.392,4.392,0,0,1-.81-.05Zm.03,2.89a5.065,5.065,0,0,1,.63-.03H6a4.927,4.927,0,0,1,.61.03v-.94A4.4,4.4,0,0,1,6,24.8H4.27a3.712,3.712,0,0,1-.63-.03Zm0,1.41a5,5,0,0,1,.62-.03H5.98a4.955,4.955,0,0,1,.63.03v-.94a3.406,3.406,0,0,1-.62.03H4.27a3.712,3.712,0,0,1-.63-.03Zm.95,3.68v-.47h1.1v.33h1a6.472,6.472,0,0,1-.04-.83V28.31a6.2,6.2,0,0,1,.03-.72,5.4,5.4,0,0,1-.69.03H4.37a5.475,5.475,0,0,1-.78-.04,6.245,6.245,0,0,1,.04.78v1.46c0,.33-.02.67-.05.98Zm0-2.32h1.1v.97H4.59Zm4.98-4.56A5.966,5.966,0,0,1,6.91,26a3.713,3.713,0,0,1,.57.81,7.943,7.943,0,0,0,2.61-1.95c.12-.13.12-.13.28-.29Zm2.07,2.94a5.586,5.586,0,0,1-1.27,1.39,8.586,8.586,0,0,1-3.38,1.68,3.05,3.05,0,0,1,.67.92,10.668,10.668,0,0,0,1.94-.82,9.073,9.073,0,0,0,2.14-1.66c.57-.62.57-.62.75-.82Zm-1.05-1.49a4.083,4.083,0,0,1-.9,1,7.5,7.5,0,0,1-2.74,1.52,4.5,4.5,0,0,1,.66.86,10.676,10.676,0,0,0,1.06-.49,9.541,9.541,0,0,0,1.6-1.1,13.149,13.149,0,0,0,1.14-1.14Zm9.48.12v4.16a8.789,8.789,0,0,1-.06,1.14h1.17a8.9,8.9,0,0,1-.06-1.14V25.49h.1a4.4,4.4,0,0,1,.8.05V24.4a5.436,5.436,0,0,1-.88.06H19.13v-1.2a11.587,11.587,0,0,0,2.41-.65c.16-.06.16-.06.31-.11a.254.254,0,0,0,.07-.02l-.79-.98a4.006,4.006,0,0,1-.95.46,8.345,8.345,0,0,1-2.11.45,10.639,10.639,0,0,1,.05,1.38c0,3.37-.2,4.68-.86,5.76v-.6a9.871,9.871,0,0,1-1.04.04H14.04V27.63a4.082,4.082,0,0,1,.52.66,5.377,5.377,0,0,0,1.06-1.76c-.01.15-.01.16-.02.33a3.1,3.1,0,0,0-.02.43v.78a3.711,3.711,0,0,1-.05.7h1.02a4.2,4.2,0,0,1-.04-.68V27.2c0-.15-.02-.46-.04-.7a5.722,5.722,0,0,0,.96,1.39,3.727,3.727,0,0,1,.47-.88,5.45,5.45,0,0,1-1.21-1.52h.34a4.96,4.96,0,0,1,.74.04V24.49a3.432,3.432,0,0,1-.66.04h-.6v-2.1a3.951,3.951,0,0,1,.05-.81H15.53a5.345,5.345,0,0,1,.04.8v2.11h-.63a4.933,4.933,0,0,1-.69-.04v1.04a4.3,4.3,0,0,1,.67-.04h.33a5.936,5.936,0,0,1-1.21,1.89V22.75a4.233,4.233,0,0,1,.06-.85H12.95a9.4,9.4,0,0,1,.06,1.13v6.46a10.128,10.128,0,0,1-.06,1.15h1.09v-.68H16.2c.37,0,.48,0,.76.02a3.919,3.919,0,0,1,.79.9,5.831,5.831,0,0,0,1.09-2.56,16.57,16.57,0,0,0,.28-2.83Zm-5.98-3.14a8.374,8.374,0,0,1,.61,1.93l.76-.32a14.076,14.076,0,0,0-.59-1.97Zm3-.36a8.246,8.246,0,0,1-.51,1.93l.67.35a9.408,9.408,0,0,0,.64-1.93Zm6.74.14a4.864,4.864,0,0,1,.05,1.03l-.04,5.4a3.527,3.527,0,0,1-.09,1.03l.64.77a2.865,2.865,0,0,1,.6-.17,9.116,9.116,0,0,0,3.64-1.37,7.455,7.455,0,0,0,2.23-2.33,4.7,4.7,0,0,1-.95-1.02,5.909,5.909,0,0,1-2.04,2.29,7.192,7.192,0,0,1-2.73,1.1l.05-5.71a7.739,7.739,0,0,1,.06-1.01Zm13.09,1.5V23.1a7.967,7.967,0,0,1,.04-1.06H35.61a5.675,5.675,0,0,1,.06,1.03v.56h-2.2a6.418,6.418,0,0,1-1.28-.07v1.23a8.529,8.529,0,0,1,1.26-.05h2.22v4.84a7.447,7.447,0,0,1-.06,1.13h1.36a7.723,7.723,0,0,1-.05-1.12V24.74h2.31a8.608,8.608,0,0,1,1.27.05V23.61a1.155,1.155,0,1,0-1.55-1.09,1.146,1.146,0,0,0,.81,1.1c-.24.01-.34.01-.55.01Zm3.18-1.76a.651.651,0,0,1,.66.65.655.655,0,1,1-1.31,0A.649.649,0,0,1,40.1,21.87Zm-6.67,3.6a8.124,8.124,0,0,1-1.69,3.85,4.362,4.362,0,0,1,1.16.65,10.568,10.568,0,0,0,1.68-3.89c.02-.09.04-.15.04-.17s.02-.08.04-.14Zm4.49.3a2.559,2.559,0,0,1,.16.46,13.339,13.339,0,0,0,1.64,3.74,6.612,6.612,0,0,1,1.15-.69,11.03,11.03,0,0,1-1.77-3.81Zm3.62,1.09a10.978,10.978,0,0,1,1.63-.05h5.31a10.978,10.978,0,0,1,1.63.05V25.47a9.82,9.82,0,0,1-1.62.07H43.16a9.82,9.82,0,0,1-1.62-.07Zm12.81,3.59a10.993,10.993,0,0,1-.04-1.11V26.7a5.17,5.17,0,0,0-.04-.68,3.232,3.232,0,0,0,.34.17,23.659,23.659,0,0,1,3.54,1.91l.7-1.18a29.38,29.38,0,0,0-4.54-2.11V22.95a6.7,6.7,0,0,1,.04-1.05H52.98a6.428,6.428,0,0,1,.06,1.02v6.41a6.737,6.737,0,0,1-.06,1.12Zm6.959,1.093-.347.474h-1.03a12.54,12.54,0,0,0,.9-1.9,8.351,8.351,0,0,0,.435-2.749,9.349,9.349,0,0,0-.156-1.768,8.143,8.143,0,0,0-.854-2.363l-.3-.547h1.05a10.467,10.467,0,0,1,1.128,1.934,6.628,6.628,0,0,1,.571,2.656,7.286,7.286,0,0,1-.679,2.988A6.346,6.346,0,0,1,61.31,31.543Z" transform="translate(8176 5437)" fill="#252525"/>
    <rect id="長方形_2727" data-name="長方形 2727" width="4" height="36" transform="translate(8167 5229)" fill="#03cdd5"/>
    <rect id="長方形_2728" data-name="長方形 2728" width="4" height="36" transform="translate(8167 5281)" fill="#03cdd5"/>
    <rect id="長方形_2729" data-name="長方形 2729" width="4" height="36" transform="translate(8167 5333)" fill="#03cdd5"/>
    <rect id="長方形_2730" data-name="長方形 2730" width="4" height="36" transform="translate(8167 5385)" fill="#03cdd5"/>
    <rect id="長方形_2731" data-name="長方形 2731" width="4" height="36" transform="translate(8167 5437)" fill="#03cdd5"/>
    <rect id="長方形_2732" data-name="長方形 2732" width="4" height="36" transform="translate(8167 5489)" fill="#03cdd5"/>
    <rect id="長方形_2724" data-name="長方形 2724" width="80" height="51" transform="translate(8248 5171)" fill="#252525"/>
    <g id="長方形_2715" data-name="長方形 2715" transform="translate(8324 5180)" fill="none" stroke="#fdf369" stroke-width="3">
      <rect width="80" height="353" stroke="none"/>
      <rect x="1.5" y="1.5" width="77" height="350" fill="none"/>
    </g>
    <rect id="長方形_2726" data-name="長方形 2726" width="77" height="51" transform="translate(8402 5171)" fill="#252525"/>
    <path id="パス_3069" data-name="パス 3069" d="M21.224-1.428,23.24-3.444l-7.2-7.2,7.2-7.2-2.016-2.016-7.2,7.2-7.2-7.2L4.816-17.836l7.2,7.2-7.2,7.2L6.832-1.428l7.2-7.2Z" transform="translate(8272.534 5414.496)" fill="#252525" stroke="#252525" stroke-width="2"/>
    <path id="パス_3070" data-name="パス 3070" d="M21.224-1.428,23.24-3.444l-7.2-7.2,7.2-7.2-2.016-2.016-7.2,7.2-7.2-7.2L4.816-17.836l7.2,7.2-7.2,7.2L6.832-1.428l7.2-7.2Z" transform="translate(8272.534 5467.732)" fill="#252525" stroke="#252525" stroke-width="2"/>
    <path id="パス_3063" data-name="パス 3063" d="M1.3-9.88A11.684,11.684,0,0,0,13,1.82,11.684,11.684,0,0,0,24.7-9.88,11.684,11.684,0,0,0,13-21.58,11.684,11.684,0,0,0,1.3-9.88ZM13,.676A10.564,10.564,0,0,1,2.444-9.88,10.564,10.564,0,0,1,13-20.436,10.564,10.564,0,0,1,23.556-9.88,10.564,10.564,0,0,1,13,.676Z" transform="translate(8350.897 5464.484)" fill="#252525" stroke="#252525" stroke-width="2"/>
    <path id="パス_3064" data-name="パス 3064" d="M1.3-9.88A11.684,11.684,0,0,0,13,1.82,11.684,11.684,0,0,0,24.7-9.88,11.684,11.684,0,0,0,13-21.58,11.684,11.684,0,0,0,1.3-9.88ZM13,.676A10.564,10.564,0,0,1,2.444-9.88,10.564,10.564,0,0,1,13-20.436,10.564,10.564,0,0,1,23.556-9.88,10.564,10.564,0,0,1,13,.676Z" transform="translate(8425.98 5464.88)" fill="#252525" stroke="#252525" stroke-width="2"/>
    <path id="パス_3065" data-name="パス 3065" d="M1.3-9.88A11.684,11.684,0,0,0,13,1.82,11.684,11.684,0,0,0,24.7-9.88,11.684,11.684,0,0,0,13-21.58,11.684,11.684,0,0,0,1.3-9.88ZM13,.676A10.564,10.564,0,0,1,2.444-9.88,10.564,10.564,0,0,1,13-20.436,10.564,10.564,0,0,1,23.556-9.88,10.564,10.564,0,0,1,13,.676Z" transform="translate(8425.98 5361.38)" fill="#252525" stroke="#252525" stroke-width="2"/>
    <path id="パス_3071" data-name="パス 3071" d="M1.3-9.88A11.684,11.684,0,0,0,13,1.82,11.684,11.684,0,0,0,24.7-9.88,11.684,11.684,0,0,0,13-21.58,11.684,11.684,0,0,0,1.3-9.88ZM13,.676A10.564,10.564,0,0,1,2.444-9.88,10.564,10.564,0,0,1,13-20.436,10.564,10.564,0,0,1,23.556-9.88,10.564,10.564,0,0,1,13,.676Z" transform="translate(8427.02 5308.248)" fill="#252525" stroke="#252525" stroke-width="2"/>
    <path id="パス_3072" data-name="パス 3072" d="M1.3-9.88A11.684,11.684,0,0,0,13,1.82,11.684,11.684,0,0,0,24.7-9.88,11.684,11.684,0,0,0,13-21.58,11.684,11.684,0,0,0,1.3-9.88ZM13,.676A10.564,10.564,0,0,1,2.444-9.88,10.564,10.564,0,0,1,13-20.436,10.564,10.564,0,0,1,23.556-9.88,10.564,10.564,0,0,1,13,.676Z" transform="translate(8427.02 5259.38)" fill="#252525" stroke="#252525" stroke-width="2"/>
    <path id="パス_3066" data-name="パス 3066" d="M1.3-9.88A11.684,11.684,0,0,0,13,1.82,11.684,11.684,0,0,0,24.7-9.88,11.684,11.684,0,0,0,13-21.58,11.684,11.684,0,0,0,1.3-9.88ZM13,.676A10.564,10.564,0,0,1,2.444-9.88,10.564,10.564,0,0,1,13-20.436,10.564,10.564,0,0,1,23.556-9.88,10.564,10.564,0,0,1,13,.676Z" transform="translate(8350.897 5412.484)" fill="#252525" stroke="#252525" stroke-width="2"/>
    <path id="パス_3067" data-name="パス 3067" d="M1.3-9.88A11.684,11.684,0,0,0,13,1.82,11.684,11.684,0,0,0,24.7-9.88,11.684,11.684,0,0,0,13-21.58,11.684,11.684,0,0,0,1.3-9.88ZM13,.676A10.564,10.564,0,0,1,2.444-9.88,10.564,10.564,0,0,1,13-20.436,10.564,10.564,0,0,1,23.556-9.88,10.564,10.564,0,0,1,13,.676Z" transform="translate(8350.897 5360.484)" fill="#252525" stroke="#252525" stroke-width="2"/>
    <path id="パス_3073" data-name="パス 3073" d="M1.3-9.88A11.684,11.684,0,0,0,13,1.82,11.684,11.684,0,0,0,24.7-9.88,11.684,11.684,0,0,0,13-21.58,11.684,11.684,0,0,0,1.3-9.88ZM13,.676A10.564,10.564,0,0,1,2.444-9.88,10.564,10.564,0,0,1,13-20.436,10.564,10.564,0,0,1,23.556-9.88,10.564,10.564,0,0,1,13,.676Z" transform="translate(8350.897 5308.484)" fill="#252525" stroke="#252525" stroke-width="2"/>
    <path id="パス_3074" data-name="パス 3074" d="M1.3-9.88A11.684,11.684,0,0,0,13,1.82,11.684,11.684,0,0,0,24.7-9.88,11.684,11.684,0,0,0,13-21.58,11.684,11.684,0,0,0,1.3-9.88ZM13,.676A10.564,10.564,0,0,1,2.444-9.88,10.564,10.564,0,0,1,13-20.436,10.564,10.564,0,0,1,23.556-9.88,10.564,10.564,0,0,1,13,.676Z" transform="translate(8350.897 5259.38)" fill="#252525" stroke="#252525" stroke-width="2"/>
    <path id="パス_3068" data-name="パス 3068" d="M25.22-.312,13-21.476.78-.312ZM2.756-1.456,13-19.188,23.244-1.456Z" transform="translate(8426.5 5413.38)" fill="#252525" stroke="#252525" stroke-width="2"/>
    <path id="パス_3075" data-name="パス 3075" d="M25.22-.312,13-21.476.78-.312ZM2.756-1.456,13-19.188,23.244-1.456Z" transform="translate(8273.592 5361.38)" fill="#252525" stroke="#252525" stroke-width="2"/>
    <path id="パス_3076" data-name="パス 3076" d="M25.22-.312,13-21.476.78-.312ZM2.756-1.456,13-19.188,23.244-1.456Z" transform="translate(8274.585 5308.248)" fill="#252525" stroke="#252525" stroke-width="2"/>
    <path id="パス_3077" data-name="パス 3077" d="M25.22-.312,13-21.476.78-.312ZM2.756-1.456,13-19.188,23.244-1.456Z" transform="translate(8274.585 5259.38)" fill="#252525" stroke="#252525" stroke-width="2"/>
    <path id="パス_3170" data-name="パス 3170" d="M11.2,10.148c-1.452-1.4-1.452-1.4-1.752-1.668a18.6,18.6,0,0,0-2.22-1.74A15.893,15.893,0,0,0,9.1,3.428,2.308,2.308,0,0,1,9.48,2.78l-.792-.816A2.6,2.6,0,0,1,7.62,2.1L3.4,2.156H3.108a5.252,5.252,0,0,1-1.056-.072L2.1,3.62a9.457,9.457,0,0,1,1.308-.1c3.78-.06,3.78-.06,3.972-.072l-.132.312A11.567,11.567,0,0,1,3.216,8.648a9.907,9.907,0,0,1-2.4,1.32A4.814,4.814,0,0,1,1.788,11.3,14.261,14.261,0,0,0,6.36,7.832,23.068,23.068,0,0,1,10.044,11.4Zm4.332-7.3a6.091,6.091,0,0,1,.06-1.116H13.98a6.338,6.338,0,0,1,.048,1.1l.012,5.568a9.042,9.042,0,0,0,.036,1.1,1.659,1.659,0,0,0,.588,1.224,4.8,4.8,0,0,0,2.808.516c.732,0,2.244-.072,2.952-.144,1.272-.12,1.332-.132,1.584-.132l-.072-1.6a7.09,7.09,0,0,1-1.368.288,22.63,22.63,0,0,1-2.784.192,3.774,3.774,0,0,1-2.052-.312c-.168-.168-.216-.432-.216-1.1a1.168,1.168,0,0,1,.012-.192V6.668a20.323,20.323,0,0,0,5.64-1.908L21.48,4.6a1.755,1.755,0,0,1,.252-.108l-.96-1.356a14.12,14.12,0,0,1-5.244,2.136ZM22.44.728a1.386,1.386,0,1,0,1.392,1.38A1.388,1.388,0,0,0,22.44.728Zm0,.6a.781.781,0,0,1,.792.78.786.786,0,1,1-1.572,0A.778.778,0,0,1,22.44,1.328Zm1.452,5.9a13.174,13.174,0,0,1,1.956-.06H32.22a13.174,13.174,0,0,1,1.956.06V5.564a11.785,11.785,0,0,1-1.944.084h-6.4a11.785,11.785,0,0,1-1.944-.084ZM39.66,11.54a12.311,12.311,0,0,1-.048-1.332V7.04a6.855,6.855,0,0,0-.048-.816,3.877,3.877,0,0,0,.408.2A29.142,29.142,0,0,1,44.22,8.72L45.06,7.3a34.9,34.9,0,0,0-5.448-2.532V2.54a9.944,9.944,0,0,1,.048-1.26H38.016A7.865,7.865,0,0,1,38.088,2.5V10.2a8.751,8.751,0,0,1-.072,1.344Zm2.46-9.216a8.1,8.1,0,0,1,1.26,1.788l.84-.444A7.777,7.777,0,0,0,42.96,1.9Zm3.528.564A6.94,6.94,0,0,0,44.4,1.2l-.8.42a8.841,8.841,0,0,1,1.224,1.74Zm3.42-.42c-.012.708-.012,1.1-.012,1.2h-.264a8.2,8.2,0,0,1-1.176-.06v1.32a7.573,7.573,0,0,1,1.14-.06h.18a2.828,2.828,0,0,1-1.38,2.04,4.178,4.178,0,0,1,.96,1A4.186,4.186,0,0,0,49.8,6.38a4.7,4.7,0,0,0,.432-1.512h1.176V6.032a10.057,10.057,0,0,1-.072,1.308h.924c.012.18.012.264.012.4V8.1h-2.4a8.011,8.011,0,0,1-1.236-.06v1.3c.384-.036.816-.06,1.38-.06h2.256v1.092H49.044a12.978,12.978,0,0,1-1.38-.06v1.344a12.177,12.177,0,0,1,1.476-.072h7.752a12.7,12.7,0,0,1,1.512.072V10.3a12.837,12.837,0,0,1-1.4.06H53.616V9.272H56.04a13.754,13.754,0,0,1,1.392.06V8.024a9.771,9.771,0,0,1-1.416.072h-2.4V7.724a3.248,3.248,0,0,1,.06-.756h-.984c-.024-.336-.024-.516-.024-.948V4.868h.108a9.839,9.839,0,0,1,1.14.048V3.62a9.516,9.516,0,0,1-1.164.048h-.084v-1.2a7.035,7.035,0,0,1,1.02.048V1.232a8.635,8.635,0,0,1-1.284.06H49.176a12.464,12.464,0,0,1-1.284-.06V2.516a8.462,8.462,0,0,1,1.092-.048Zm2.34,0v1.2h-1.08c0-.252.012-.528.012-.828V2.468ZM55.644,5.8a8.039,8.039,0,0,1-.036-.864V2.42a6.205,6.205,0,0,1,.048-.912H54.288a7.172,7.172,0,0,1,.06.984V4.844a6.92,6.92,0,0,1-.06.96ZM58.056,2.1a8.137,8.137,0,0,1,.06-1.128h-1.44A6.187,6.187,0,0,1,56.736,2V5.936c0,.252-.036.276-.492.276A9.062,9.062,0,0,1,54.972,6.1a3.877,3.877,0,0,1,.348,1.308,9.683,9.683,0,0,0,1,.048c1.416,0,1.74-.228,1.74-1.26ZM3.372,19.608v1.02H1.692a6.663,6.663,0,0,1-1.068-.06v1.284a8.6,8.6,0,0,1,1.236-.06H3.372v.948H2.136a8.331,8.331,0,0,1-1.164-.06,10.15,10.15,0,0,1,.048,1.128v2.208a6.8,6.8,0,0,1-.06,1.176H2.268a10.031,10.031,0,0,1-.048-1.164V23.88H3.372V26.7A7.53,7.53,0,0,1,3.3,28.008H4.656a8.62,8.62,0,0,1-.06-1.3V23.88h1.08V25.8c0,.156-.072.2-.3.2-.132,0-.444-.024-.636-.048a3.324,3.324,0,0,1,.216,1.14c.336.024.444.024.552.024,1.032,0,1.332-.216,1.332-.96v-2.4c0-.54.012-.78.036-1.068a9.261,9.261,0,0,1-1.116.048H4.6v-.948H5.952a6.909,6.909,0,0,1,1.152.06V20.58a9.693,9.693,0,0,1-1.1.048H4.6v-1.02h1.02a10.36,10.36,0,0,1,1.188.048V18.384a7.41,7.41,0,0,1-1.188.06H4.6v-.36a5.4,5.4,0,0,1,.072-1.14H3.3a5.944,5.944,0,0,1,.072,1.164v.336H2.448c.06-.24.132-.5.156-.636a3.658,3.658,0,0,1,.132-.48L1.512,17.1a1.857,1.857,0,0,1-.06.468A6.7,6.7,0,0,1,.5,19.944a9.382,9.382,0,0,1,1.14.588,9.861,9.861,0,0,0,.42-.924Zm4.14-1.824a6.919,6.919,0,0,1,.072,1.272v4.8a7.5,7.5,0,0,1-.06,1.284H8.868a7.512,7.512,0,0,1-.06-1.272V19.032a8.286,8.286,0,0,1,.06-1.248ZM9.8,16.992a11.214,11.214,0,0,1,.072,1.488v7.836c0,.288-.108.36-.54.36a10.891,10.891,0,0,1-1.548-.12,3.629,3.629,0,0,1,.36,1.284c.708.024,1.08.036,1.14.036A2.4,2.4,0,0,0,10.74,27.6c.288-.2.4-.5.4-1.14V18.444a8.188,8.188,0,0,1,.084-1.452ZM18.576,19.8v6.768a8.433,8.433,0,0,1-.072,1.44h1.452a8.119,8.119,0,0,1-.084-1.44v-1.38H21.84a9.35,9.35,0,0,1,1.2.072V23.952a6.908,6.908,0,0,1-1.2.072H19.872V22.488h1.944a9.217,9.217,0,0,1,1.2.072v-1.3a8.284,8.284,0,0,1-1.188.072H19.872V19.8h2.28a12.544,12.544,0,0,1,1.3.06v-1.3a8.9,8.9,0,0,1-1.3.072H18.888c.108-.264.12-.3.3-.8.084-.24.12-.348.24-.636l-1.356-.4a7.743,7.743,0,0,1-.54,1.74,9.366,9.366,0,0,1-2.016,3.06,4.866,4.866,0,0,1,.864,1.128A13.05,13.05,0,0,0,18.348,19.8ZM15.06,16.764a6.756,6.756,0,0,1-.5,1.584,9.8,9.8,0,0,1-2.28,3.312,5.681,5.681,0,0,1,.636,1.4,12.509,12.509,0,0,0,1.152-1.38c-.036,1.008-.036,1.068-.036,1.368v3.42a10.613,10.613,0,0,1-.084,1.488h1.44a11.08,11.08,0,0,1-.084-1.488V19.824c.624-1.4.624-1.4.816-1.92.108-.288.144-.372.276-.672Zm11.9,5A9.6,9.6,0,0,1,28,21.72H32a9.116,9.116,0,0,1,1.08.048v-.936a12.8,12.8,0,0,0,2.052,1.092,5.344,5.344,0,0,1,.66-1.344,12.684,12.684,0,0,1-3.084-1.62,7.288,7.288,0,0,1-2.028-1.992H29.256a7.9,7.9,0,0,1-1.9,2.016,11.2,11.2,0,0,1-3.012,1.668,5.573,5.573,0,0,1,.7,1.224,11.291,11.291,0,0,0,1.92-1.032Zm1.044-1.3c-.216,0-.288,0-.492-.012a10.245,10.245,0,0,0,2.5-2.328A9.775,9.775,0,0,0,32.52,20.46c-.228.012-.336.012-.528.012Zm.12,3.468a12.426,12.426,0,0,1-1.284,2.4c-.612.036-.972.048-1.056.048-.168,0-.372-.012-.7-.036l.192,1.464a14.269,14.269,0,0,1,1.548-.168c.48-.036,2.856-.252,4.044-.36.444-.048,1.164-.132,2.16-.264.2.288.324.456.72,1.044l1.152-.756a24.558,24.558,0,0,0-2.772-3.2l-1.188.528c.672.7.876.912,1.26,1.332-1.68.18-1.68.18-3.8.3a13.045,13.045,0,0,0,1.248-2.328H33.78a11.165,11.165,0,0,1,1.4.072V22.62a11.3,11.3,0,0,1-1.4.072H26.3a11.786,11.786,0,0,1-1.416-.072v1.392A11.242,11.242,0,0,1,26.3,23.94ZM39.6,23.292a6.587,6.587,0,0,0,1.548,1.356,5.118,5.118,0,0,1,.66-1.176A7.075,7.075,0,0,1,39.9,21.948,9.859,9.859,0,0,0,41.1,19.9a3.336,3.336,0,0,1,.264-.5l-.576-.624a4.371,4.371,0,0,1-.7.036H39.6V17.82a5.115,5.115,0,0,1,.072-.936H38.22a5.51,5.51,0,0,1,.072.912V18.8h-.6a7.327,7.327,0,0,1-.948-.048v1.332a8.216,8.216,0,0,1,1.008-.048h1.956A7.13,7.13,0,0,1,38.4,21.888a8.277,8.277,0,0,1-2.064,1.62,4.649,4.649,0,0,1,.612,1.248,8.087,8.087,0,0,0,1.332-1.02v3.012A7.179,7.179,0,0,1,38.208,28H39.66a8.521,8.521,0,0,1-.06-1.224Zm5.088-1.776H45.96c.42,0,.792.024,1.176.06V20.22a7.8,7.8,0,0,1-1.176.06H44.688V18.168a7.035,7.035,0,0,1,.084-1.248h-1.5a8.493,8.493,0,0,1,.084,1.248V20.28h-.9a8.1,8.1,0,0,1-1.176-.06v1.356c.384-.036.768-.06,1.176-.06h.9v4.692H42.048a10.881,10.881,0,0,1-1.38-.072v1.452a9.677,9.677,0,0,1,1.356-.084h4.1a9.854,9.854,0,0,1,1.368.084V26.136a10.293,10.293,0,0,1-1.368.072h-1.44Z" transform="translate(8258.131 5182.102)" fill="#fdfdfd"/>
    <path id="パス_3171" data-name="パス 3171" d="M8.664,1.748a7.553,7.553,0,0,1-1.548.084H3.588A7.7,7.7,0,0,1,2.04,1.748V3.212a9.915,9.915,0,0,1,1.524-.06H7.14a9.812,9.812,0,0,1,1.524.06Zm.756,4.4a10.542,10.542,0,0,1,1.524.06V4.784A7.844,7.844,0,0,1,9.4,4.868H2.376A7.844,7.844,0,0,1,.828,4.784V6.212a10.542,10.542,0,0,1,1.524-.06H5.268C5.184,8.48,4.248,9.668,1.9,10.412a3.815,3.815,0,0,1,.984,1.332C5.592,10.7,6.72,9.116,6.852,6.152Zm2.544-3.828A7.358,7.358,0,0,0,10.908.5l-.864.312a8.717,8.717,0,0,1,1.032,1.86ZM8.472,1.28A8.847,8.847,0,0,1,9.528,3.2l.9-.336A8.468,8.468,0,0,0,9.36.968Zm7.836,2.412V2.444a6.068,6.068,0,0,1,.048-1.02H14.784a5.57,5.57,0,0,1,.06,1.068v1.2h-.708a7.987,7.987,0,0,1-1.56-.084V5.072a10.531,10.531,0,0,1,1.536-.06h.732V6.776A7.717,7.717,0,0,1,14.8,7.808h1.56A6.845,6.845,0,0,1,16.308,6.8V5.012h3.108a7.573,7.573,0,0,1-.384,3,4.484,4.484,0,0,1-3.228,2.4,3.671,3.671,0,0,1,.9,1.272,5.788,5.788,0,0,0,3.564-2.8,8.3,8.3,0,0,0,.588-3.876h.792a10.627,10.627,0,0,1,1.548.06V3.608a8.057,8.057,0,0,1-1.572.084h-.756c0-.48.012-.948.012-1.392a4.926,4.926,0,0,1,.036-.792H19.38A8.864,8.864,0,0,1,19.428,2.7v1ZM20.9,1.04a7.231,7.231,0,0,1,.816,1.884l.828-.24A7.338,7.338,0,0,0,21.72.812Zm3.06,1.236a7.629,7.629,0,0,0-.816-1.8l-.768.24A7.6,7.6,0,0,1,23.2,2.528Zm8.724-1.02A9.6,9.6,0,0,1,30.456,3.5a17.525,17.525,0,0,1-6.3,3.12,4.514,4.514,0,0,1,.8,1.368,19.443,19.443,0,0,0,4.284-1.944v4.224a6.75,6.75,0,0,1-.072,1.3h1.68a9.078,9.078,0,0,1-.06-1.332V5.108a21.22,21.22,0,0,0,2.832-2.472,4.943,4.943,0,0,1,.444-.42Zm4.3,2.04a12.6,12.6,0,0,1,3.06,2.436l1.032-1.308a17,17,0,0,0-3.1-2.316Zm.42,7.92a4.248,4.248,0,0,1,.792-.2,12.962,12.962,0,0,0,4.572-1.8,10.532,10.532,0,0,0,3.8-4.7A5.175,5.175,0,0,1,45.3,3.332a10.02,10.02,0,0,1-1.224,2.4,8.017,8.017,0,0,1-3.564,2.94,11.434,11.434,0,0,1-3.552.888ZM49.548,2.468c-.012.708-.012,1.1-.012,1.2h-.264a8.2,8.2,0,0,1-1.176-.06v1.32a7.573,7.573,0,0,1,1.14-.06h.18a2.828,2.828,0,0,1-1.38,2.04,4.178,4.178,0,0,1,.96,1A4.186,4.186,0,0,0,50.28,6.38a4.7,4.7,0,0,0,.432-1.512h1.176V6.032a10.057,10.057,0,0,1-.072,1.308h.924c.012.18.012.264.012.4V8.1h-2.4a8.011,8.011,0,0,1-1.236-.06v1.3c.384-.036.816-.06,1.38-.06h2.256v1.092H49.524a12.978,12.978,0,0,1-1.38-.06v1.344a12.177,12.177,0,0,1,1.476-.072h7.752a12.7,12.7,0,0,1,1.512.072V10.3a12.837,12.837,0,0,1-1.4.06H54.1V9.272H56.52a13.755,13.755,0,0,1,1.392.06V8.024A9.771,9.771,0,0,1,56.5,8.1H54.1V7.724a3.248,3.248,0,0,1,.06-.756h-.984c-.024-.336-.024-.516-.024-.948V4.868h.108a9.839,9.839,0,0,1,1.14.048V3.62a9.516,9.516,0,0,1-1.164.048h-.084v-1.2a7.035,7.035,0,0,1,1.02.048V1.232a8.635,8.635,0,0,1-1.284.06H49.656a12.464,12.464,0,0,1-1.284-.06V2.516a8.462,8.462,0,0,1,1.092-.048Zm2.34,0v1.2h-1.08c0-.252.012-.528.012-.828V2.468ZM56.124,5.8a8.038,8.038,0,0,1-.036-.864V2.42a6.2,6.2,0,0,1,.048-.912H54.768a7.172,7.172,0,0,1,.06.984V4.844a6.92,6.92,0,0,1-.06.96ZM58.536,2.1A8.137,8.137,0,0,1,58.6.968h-1.44A6.186,6.186,0,0,1,57.216,2V5.936c0,.252-.036.276-.492.276A9.062,9.062,0,0,1,55.452,6.1,3.877,3.877,0,0,1,55.8,7.412a9.683,9.683,0,0,0,1,.048c1.416,0,1.74-.228,1.74-1.26ZM3.372,19.608v1.02H1.692a6.663,6.663,0,0,1-1.068-.06v1.284a8.6,8.6,0,0,1,1.236-.06H3.372v.948H2.136a8.331,8.331,0,0,1-1.164-.06,10.15,10.15,0,0,1,.048,1.128v2.208a6.8,6.8,0,0,1-.06,1.176H2.268a10.031,10.031,0,0,1-.048-1.164V23.88H3.372V26.7A7.53,7.53,0,0,1,3.3,28.008H4.656a8.62,8.62,0,0,1-.06-1.3V23.88h1.08V25.8c0,.156-.072.2-.3.2-.132,0-.444-.024-.636-.048a3.324,3.324,0,0,1,.216,1.14c.336.024.444.024.552.024,1.032,0,1.332-.216,1.332-.96v-2.4c0-.54.012-.78.036-1.068a9.261,9.261,0,0,1-1.116.048H4.6v-.948H5.952a6.909,6.909,0,0,1,1.152.06V20.58a9.693,9.693,0,0,1-1.1.048H4.6v-1.02h1.02a10.36,10.36,0,0,1,1.188.048V18.384a7.41,7.41,0,0,1-1.188.06H4.6v-.36a5.4,5.4,0,0,1,.072-1.14H3.3a5.944,5.944,0,0,1,.072,1.164v.336H2.448c.06-.24.132-.5.156-.636a3.658,3.658,0,0,1,.132-.48L1.512,17.1a1.857,1.857,0,0,1-.06.468A6.7,6.7,0,0,1,.5,19.944a9.382,9.382,0,0,1,1.14.588,9.861,9.861,0,0,0,.42-.924Zm4.14-1.824a6.919,6.919,0,0,1,.072,1.272v4.8a7.5,7.5,0,0,1-.06,1.284H8.868a7.512,7.512,0,0,1-.06-1.272V19.032a8.286,8.286,0,0,1,.06-1.248ZM9.8,16.992a11.214,11.214,0,0,1,.072,1.488v7.836c0,.288-.108.36-.54.36a10.891,10.891,0,0,1-1.548-.12,3.629,3.629,0,0,1,.36,1.284c.708.024,1.08.036,1.14.036A2.4,2.4,0,0,0,10.74,27.6c.288-.2.4-.5.4-1.14V18.444a8.188,8.188,0,0,1,.084-1.452ZM18.576,19.8v6.768a8.433,8.433,0,0,1-.072,1.44h1.452a8.119,8.119,0,0,1-.084-1.44v-1.38H21.84a9.35,9.35,0,0,1,1.2.072V23.952a6.908,6.908,0,0,1-1.2.072H19.872V22.488h1.944a9.217,9.217,0,0,1,1.2.072v-1.3a8.284,8.284,0,0,1-1.188.072H19.872V19.8h2.28a12.544,12.544,0,0,1,1.3.06v-1.3a8.9,8.9,0,0,1-1.3.072H18.888c.108-.264.12-.3.3-.8.084-.24.12-.348.24-.636l-1.356-.4a7.743,7.743,0,0,1-.54,1.74,9.366,9.366,0,0,1-2.016,3.06,4.866,4.866,0,0,1,.864,1.128A13.05,13.05,0,0,0,18.348,19.8ZM15.06,16.764a6.756,6.756,0,0,1-.5,1.584,9.8,9.8,0,0,1-2.28,3.312,5.681,5.681,0,0,1,.636,1.4,12.509,12.509,0,0,0,1.152-1.38c-.036,1.008-.036,1.068-.036,1.368v3.42a10.613,10.613,0,0,1-.084,1.488h1.44a11.08,11.08,0,0,1-.084-1.488V19.824c.624-1.4.624-1.4.816-1.92.108-.288.144-.372.276-.672Zm11.9,5A9.6,9.6,0,0,1,28,21.72H32a9.116,9.116,0,0,1,1.08.048v-.936a12.8,12.8,0,0,0,2.052,1.092,5.344,5.344,0,0,1,.66-1.344,12.684,12.684,0,0,1-3.084-1.62,7.288,7.288,0,0,1-2.028-1.992H29.256a7.9,7.9,0,0,1-1.9,2.016,11.2,11.2,0,0,1-3.012,1.668,5.573,5.573,0,0,1,.7,1.224,11.291,11.291,0,0,0,1.92-1.032Zm1.044-1.3c-.216,0-.288,0-.492-.012a10.245,10.245,0,0,0,2.5-2.328A9.775,9.775,0,0,0,32.52,20.46c-.228.012-.336.012-.528.012Zm.12,3.468a12.426,12.426,0,0,1-1.284,2.4c-.612.036-.972.048-1.056.048-.168,0-.372-.012-.7-.036l.192,1.464a14.269,14.269,0,0,1,1.548-.168c.48-.036,2.856-.252,4.044-.36.444-.048,1.164-.132,2.16-.264.2.288.324.456.72,1.044l1.152-.756a24.558,24.558,0,0,0-2.772-3.2l-1.188.528c.672.7.876.912,1.26,1.332-1.68.18-1.68.18-3.8.3a13.045,13.045,0,0,0,1.248-2.328H33.78a11.165,11.165,0,0,1,1.4.072V22.62a11.3,11.3,0,0,1-1.4.072H26.3a11.786,11.786,0,0,1-1.416-.072v1.392A11.242,11.242,0,0,1,26.3,23.94ZM39.6,23.292a6.587,6.587,0,0,0,1.548,1.356,5.118,5.118,0,0,1,.66-1.176A7.075,7.075,0,0,1,39.9,21.948,9.859,9.859,0,0,0,41.1,19.9a3.336,3.336,0,0,1,.264-.5l-.576-.624a4.371,4.371,0,0,1-.7.036H39.6V17.82a5.115,5.115,0,0,1,.072-.936H38.22a5.51,5.51,0,0,1,.072.912V18.8h-.6a7.327,7.327,0,0,1-.948-.048v1.332a8.216,8.216,0,0,1,1.008-.048h1.956A7.13,7.13,0,0,1,38.4,21.888a8.277,8.277,0,0,1-2.064,1.62,4.649,4.649,0,0,1,.612,1.248,8.087,8.087,0,0,0,1.332-1.02v3.012A7.179,7.179,0,0,1,38.208,28H39.66a8.521,8.521,0,0,1-.06-1.224Zm5.088-1.776H45.96c.42,0,.792.024,1.176.06V20.22a7.8,7.8,0,0,1-1.176.06H44.688V18.168a7.035,7.035,0,0,1,.084-1.248h-1.5a8.493,8.493,0,0,1,.084,1.248V20.28h-.9a8.1,8.1,0,0,1-1.176-.06v1.356c.384-.036.768-.06,1.176-.06h.9v4.692H42.048a10.881,10.881,0,0,1-1.38-.072v1.452a9.677,9.677,0,0,1,1.356-.084h4.1a9.854,9.854,0,0,1,1.368.084V26.136a10.293,10.293,0,0,1-1.368.072h-1.44Z" transform="translate(8412 5182.132)" fill="#fdfdfd"/>
    <path id="パス_3078" data-name="パス 3078" d="M0,0H79.427V51H0Z" transform="translate(8324 5171)" fill="#fdf369"/>
    <g id="グループ_3083" data-name="グループ 3083" transform="translate(8334.902 5188.138)">
      <rect id="要素_-_1" data-name="要素 - 1" width="17.032" height="1.548" transform="translate(0 16.176)" fill="#252525"/>
      <g id="グループ_91" data-name="グループ 91" transform="translate(0.686)">
        <path id="パス_1854" data-name="パス 1854" d="M515.783,22.811a1.384,1.384,0,0,0,1.01-.3,2.052,2.052,0,0,0,.446-.824,2.994,2.994,0,0,0,.175-.908c0-.325-.168-.871-1.291-.871a1.2,1.2,0,0,0-1.06.7,2.766,2.766,0,0,0-.352,1.4C514.712,22.245,514.816,22.811,515.783,22.811Z" transform="translate(-478.102 -18.465)" fill="#252525"/>
        <path id="パス_1855" data-name="パス 1855" d="M65.743,10.072c-.449.383-.906.766-1.357,1.138a7.168,7.168,0,0,1-1.7,1.1,7.85,7.85,0,0,0,.541-1.323,6.811,6.811,0,0,0,.324-1.984,2.945,2.945,0,0,0-.258-1.219,5.888,5.888,0,0,0-.746-1.156q.269-.381.57-.813a1.969,1.969,0,0,0,.434-1.079.687.687,0,0,0-.633-.684l-.025-.005-.974-.041a1.3,1.3,0,0,0-1.182.721A2.8,2.8,0,0,0,60.385,6.1a.642.642,0,0,0,.093.33,18.519,18.519,0,0,1-1.133,1.688c-.392.523-.878,1.1-1.452,1.729l-.034.04-.214.187a13.756,13.756,0,0,1-2.74,1.95,5.1,5.1,0,0,1-2.286.578.769.769,0,0,1-.748-.455,1.955,1.955,0,0,1-.183-.835l.226-.1a12.275,12.275,0,0,0,2.469-1.258,3.232,3.232,0,0,0,1.53-2.634A1.69,1.69,0,0,0,54,5.49,4.061,4.061,0,0,0,50.752,7.3a6.466,6.466,0,0,0-1.185,2.475l-.324.3c-.4.37-.8.731-1.191,1.072-1.155.976-1.575,1.113-1.7,1.128a1.377,1.377,0,0,1-.094-.651,8.516,8.516,0,0,1,.253-1.873c.17-.735.464-1.73.874-2.957L47.72,5.79H45.4l-.077.2a22.787,22.787,0,0,0-.955,2.966q-.081.332-.142.649l-.417.51a2.276,2.276,0,0,1-.593.547,1.092,1.092,0,0,1-.549.141,1.867,1.867,0,0,1-1.216-.729A11.919,11.919,0,0,0,42.1,8.243a7.073,7.073,0,0,0,.271-1.762.65.65,0,0,0-.67-.73,2.711,2.711,0,0,0-1.126.226c-.313.137-.571.567-.861,1.438a6.58,6.58,0,0,0-.387,2.031v.021l.073.526a7.742,7.742,0,0,1-.935,1.875c-.293.4-.567.614-.792.614-.258,0-.412-.528-.412-1.413a12.158,12.158,0,0,1,.393-2.877c.066-.289.253-.978.557-2.048l.121-.425-2.311.167-.065.2a21.772,21.772,0,0,0-.711,2.7q-.1.523-.159,1.041l-.282.246a13.758,13.758,0,0,1-2.74,1.95,5.1,5.1,0,0,1-2.286.578.769.769,0,0,1-.748-.455,1.955,1.955,0,0,1-.183-.835l.226-.1a12.275,12.275,0,0,0,2.469-1.258,3.232,3.232,0,0,0,1.53-2.634A1.69,1.69,0,0,0,31.162,5.49a3.651,3.651,0,0,0-2.375.894l.044-.051c-.789.113-1.878-.91-1.932-.961l0,0-.2-.18c-.259-.233-.482-.449-.657-.637q-.107-.121-.224-.259A11.248,11.248,0,0,0,26.5.951a1.03,1.03,0,0,0-.16-.667.768.768,0,0,0-.63-.223,2.346,2.346,0,0,0-.984.12,1.143,1.143,0,0,0-.51.687A8.026,8.026,0,0,0,23.7,3.535,2.51,2.51,0,0,0,23.745,4a2.137,2.137,0,0,0,.1.35,29.376,29.376,0,0,1-2.131,5.369c-1.2,2.282-1.781,2.459-1.93,2.459-.123,0-.215-.209-.259-.334a4.683,4.683,0,0,1-.173-1.46c0-.508.047-1.212.139-2.092s.192-1.6.3-2.134l.578-2.813c.006-.024.053-.191.356-1.207A4.729,4.729,0,0,0,20.953.791a.655.655,0,0,0-.335-.624,1.777,1.777,0,0,0-.8-.126A1.329,1.329,0,0,0,18.8.352c-.133.147-.278.461-.429,1.744a15.207,15.207,0,0,1-1.249,3.829A24.247,24.247,0,0,1,14.7,10.307c-1.174,1.631-1.815,1.875-2.093,1.875-.058,0-.211,0-.211-.512a7.662,7.662,0,0,1,.231-1.425c.155-.684.275-1.19.353-1.5l.725-2.485a21.754,21.754,0,0,0,1.015-4.873c0-1.211-.6-1.392-.951-1.392a3.443,3.443,0,0,0-1.762.8,19.713,19.713,0,0,0-2.4,2.1l-.135.135.569,1.705.669-.585a14.863,14.863,0,0,1,1.246-.971c.122-.083.219-.146.3-.194a4.406,4.406,0,0,1-.178.826L10.609,8.978a10.077,10.077,0,0,0-.453,2.792,3.137,3.137,0,0,0,.54,1.885,1.756,1.756,0,0,0,1.473.789,3.658,3.658,0,0,0,2.415-1.165,12.794,12.794,0,0,0,1.913-2.4q.306-.476.594-.973,0,.172,0,.385a7.964,7.964,0,0,0,.337,2.484c.38,1.11,1.031,1.672,1.936,1.672a3.411,3.411,0,0,0,2.488-1.567,17.264,17.264,0,0,0,1.9-3.3c.375-.817.816-1.9,1.311-3.227l.074-.2,0,0-.005,0A13.837,13.837,0,0,0,27.6,7.741a6.523,6.523,0,0,0-1.056,3.628,3.936,3.936,0,0,0,.6,2.139,2.091,2.091,0,0,0,1.875,1.016,10.567,10.567,0,0,0,6.068-2.209,3.244,3.244,0,0,0,.489,1.252,1.936,1.936,0,0,0,1.678.9c1.326,0,2.448-.875,3.34-2.6a3.175,3.175,0,0,0,2.09.859,2.733,2.733,0,0,0,1.356-.344,5.249,5.249,0,0,0,.106.845c.244,1.06.833,1.282,1.283,1.282a4.726,4.726,0,0,0,2.322-.8,9.913,9.913,0,0,0,1.758-1.309,3.8,3.8,0,0,0,.477,1.118,2.091,2.091,0,0,0,1.875,1.016,8.664,8.664,0,0,0,5.641-1.91s1.3-1.057,1.624-1.4.6-.661.83-.952c.335-.416.792-1.049,1.362-1.886.007.023.012.047.017.07a2.861,2.861,0,0,1,.054.56,6.058,6.058,0,0,1-.471,1.974c-.337.894-.539,1.072-.583,1.1a3.979,3.979,0,0,1-.584-.075,4.37,4.37,0,0,0-.736-.085.718.718,0,0,0-.678.514,2.946,2.946,0,0,0-.153,1.078.873.873,0,0,0,.292.737,1.331,1.331,0,0,0,.819.194,4.677,4.677,0,0,0,1.085-.109,3.138,3.138,0,0,0,.7-.26,3.1,3.1,0,0,0,1.081.248,3.434,3.434,0,0,0,1.555-.455,17.514,17.514,0,0,0,2.125-1.376l.417-.333V9.636Zm-13.005-2a1.584,1.584,0,0,1,1.105-.7c.151,0,.151.023.151.131a1.392,1.392,0,0,1-.629.973,5.782,5.782,0,0,1-1.312.783A3.962,3.962,0,0,1,52.737,8.072Zm-22.841,0A1.583,1.583,0,0,1,31,7.371c.151,0,.151.023.151.131a1.392,1.392,0,0,1-.629.973,5.782,5.782,0,0,1-1.312.783A3.962,3.962,0,0,1,29.9,8.072Z" transform="translate(-9.47)" fill="#252525"/>
      </g>
    </g>
  </g>
</svg>
