<svg xmlns="http://www.w3.org/2000/svg" width="219.337" height="38.806" viewBox="0 0 219.337 38.806">
  <g id="グループ_3233" data-name="グループ 3233" transform="translate(-113 -105.652)">
    <g id="グループ_92" data-name="グループ 92" transform="translate(113 105.652)">
      <rect id="要素_-_1" data-name="要素 - 1" width="37.291" height="3.39" transform="translate(0 35.416)" fill="#252525"/>
      <g id="グループ_91" data-name="グループ 91" transform="translate(1.503)">
        <path id="パス_1854" data-name="パス 1854" d="M517.057,26.265a3.029,3.029,0,0,0,2.212-.659,4.494,4.494,0,0,0,.977-1.8,6.557,6.557,0,0,0,.384-1.987c0-.712-.367-1.906-2.827-1.906a2.628,2.628,0,0,0-2.321,1.525,6.056,6.056,0,0,0-.77,3.057C514.712,25.024,514.94,26.265,517.057,26.265Z" transform="translate(-434.558 -16.75)" fill="#252525"/>
        <path id="パス_1855" data-name="パス 1855" d="M132.675,22.051c-.982.839-1.983,1.678-2.971,2.491a15.7,15.7,0,0,1-3.727,2.415,17.187,17.187,0,0,0,1.185-2.9,14.912,14.912,0,0,0,.71-4.344,6.448,6.448,0,0,0-.564-2.67,12.892,12.892,0,0,0-1.634-2.532q.588-.834,1.249-1.78a4.311,4.311,0,0,0,.949-2.362,1.5,1.5,0,0,0-1.386-1.5l-.054-.011L124.3,8.773a2.842,2.842,0,0,0-2.589,1.578,6.122,6.122,0,0,0-.765,3,1.4,1.4,0,0,0,.2.724,40.543,40.543,0,0,1-2.481,3.7c-.859,1.145-1.922,2.412-3.178,3.786l-.074.088-.468.408a30.116,30.116,0,0,1-6,4.269,11.17,11.17,0,0,1-5,1.266,1.684,1.684,0,0,1-1.637-1,4.28,4.28,0,0,1-.4-1.828l.5-.212a26.875,26.875,0,0,0,5.406-2.755c2.222-1.619,3.349-3.56,3.349-5.768,0-2.587-1.487-4.012-4.187-4.012s-5.09,1.336-7.117,3.971a14.156,14.156,0,0,0-2.594,5.419l-.709.662c-.867.809-1.746,1.6-2.607,2.346-2.528,2.136-3.448,2.438-3.723,2.469a3.015,3.015,0,0,1-.207-1.424,18.647,18.647,0,0,1,.553-4.1c.373-1.609,1.017-3.787,1.913-6.475l.736-2.208H88.13l-.169.429a49.891,49.891,0,0,0-2.09,6.493q-.177.728-.312,1.421l-.914,1.117a4.984,4.984,0,0,1-1.3,1.2,2.391,2.391,0,0,1-1.2.308,4.087,4.087,0,0,1-2.662-1.6,26.092,26.092,0,0,0,1.431-4,15.484,15.484,0,0,0,.593-3.859,1.423,1.423,0,0,0-1.467-1.6,5.936,5.936,0,0,0-2.465.5c-.686.3-1.249,1.242-1.885,3.148a14.407,14.407,0,0,0-.846,4.448v.046L75,21.88a16.95,16.95,0,0,1-2.047,4.1c-.642.88-1.241,1.345-1.733,1.345-.564,0-.9-1.157-.9-3.094a26.619,26.619,0,0,1,.861-6.3c.144-.633.554-2.141,1.219-4.483l.264-.931-5.06.366-.142.432A47.671,47.671,0,0,0,65.9,19.238q-.218,1.146-.347,2.279l-.618.539a30.121,30.121,0,0,1-6,4.269,11.17,11.17,0,0,1-5,1.266,1.684,1.684,0,0,1-1.637-1,4.28,4.28,0,0,1-.4-1.828l.5-.212A26.875,26.875,0,0,0,57.8,21.8c2.222-1.619,3.349-3.56,3.349-5.768,0-2.587-1.487-4.012-4.187-4.012a7.993,7.993,0,0,0-5.2,1.958l.1-.112c-1.727.246-4.112-1.993-4.229-2.1l0-.006L47.2,11.36c-.567-.51-1.054-.983-1.438-1.394q-.235-.264-.49-.568a24.627,24.627,0,0,0,1.494-7.316A2.254,2.254,0,0,0,46.412.621a1.681,1.681,0,0,0-1.38-.489,5.137,5.137,0,0,0-2.154.263,2.5,2.5,0,0,0-1.116,1.5,17.572,17.572,0,0,0-1.136,5.843,5.5,5.5,0,0,0,.1,1.026,4.678,4.678,0,0,0,.213.766,64.317,64.317,0,0,1-4.665,11.754c-2.631,5-3.9,5.384-4.225,5.384-.27,0-.471-.458-.567-.732a10.254,10.254,0,0,1-.378-3.2c0-1.113.1-2.653.3-4.579s.42-3.5.648-4.671L33.32,7.334c.013-.053.117-.419.78-2.642a10.353,10.353,0,0,0,.512-2.962A1.435,1.435,0,0,0,33.878.364,3.89,3.89,0,0,0,32.135.088,2.91,2.91,0,0,0,29.9.771c-.292.322-.608,1.008-.939,3.819a33.294,33.294,0,0,1-2.734,8.384,53.087,53.087,0,0,1-5.3,9.591c-2.571,3.572-3.974,4.1-4.582,4.1-.127,0-.463,0-.463-1.121a16.775,16.775,0,0,1,.507-3.119c.339-1.5.6-2.606.773-3.273l1.586-5.442c1.5-5.258,2.222-8.748,2.222-10.669C20.969.4,19.665,0,18.888,0c-.942,0-2.2.572-3.859,1.749A43.16,43.16,0,0,0,9.766,6.34l-.3.3,1.245,3.733,1.464-1.281a32.542,32.542,0,0,1,2.727-2.126c.267-.182.479-.32.648-.424a9.646,9.646,0,0,1-.389,1.808l-3.2,11.312a22.064,22.064,0,0,0-.992,6.113A6.869,6.869,0,0,0,12.154,29.9a3.845,3.845,0,0,0,3.224,1.727c1.691,0,3.469-.858,5.288-2.551a28.011,28.011,0,0,0,4.188-5.262q.669-1.043,1.3-2.131,0,.377,0,.843a17.436,17.436,0,0,0,.738,5.44c.831,2.429,2.258,3.661,4.239,3.661,1.787,0,3.618-1.151,5.448-3.43a37.8,37.8,0,0,0,4.161-7.23c.821-1.79,1.787-4.166,2.871-7.065l.162-.436.008.01-.011,0c.634.9,4.913,3.209,5.4,3.471a14.282,14.282,0,0,0-2.313,7.943,8.617,8.617,0,0,0,1.311,4.683,4.577,4.577,0,0,0,4.1,2.224c4.294,0,8.762-1.628,13.285-4.836a7.1,7.1,0,0,0,1.07,2.742A4.239,4.239,0,0,0,70.3,31.668c2.9,0,5.36-1.916,7.312-5.7a6.951,6.951,0,0,0,4.576,1.88,5.983,5.983,0,0,0,2.968-.752,11.493,11.493,0,0,0,.231,1.85c.535,2.32,1.823,2.807,2.81,2.807a10.348,10.348,0,0,0,5.083-1.762,21.7,21.7,0,0,0,3.849-2.867,8.311,8.311,0,0,0,1.044,2.448,4.577,4.577,0,0,0,4.1,2.224c4.365,0,7.75-.866,12.35-4.182,0,0,2.849-2.315,3.556-3.066S119.5,23.1,120,22.466c.733-.91,1.734-2.3,2.982-4.13.015.051.026.1.036.153a6.264,6.264,0,0,1,.119,1.227,13.264,13.264,0,0,1-1.031,4.323c-.738,1.957-1.181,2.346-1.277,2.412a8.713,8.713,0,0,1-1.279-.164,9.568,9.568,0,0,0-1.612-.186,1.571,1.571,0,0,0-1.484,1.124,6.45,6.45,0,0,0-.335,2.361,1.911,1.911,0,0,0,.639,1.613,2.915,2.915,0,0,0,1.794.425,10.24,10.24,0,0,0,2.376-.238,6.869,6.869,0,0,0,1.531-.568,6.776,6.776,0,0,0,2.366.544,7.518,7.518,0,0,0,3.4-1,38.347,38.347,0,0,0,4.652-3.012l.912-.73V21.1ZM104.2,17.674a3.467,3.467,0,0,1,2.42-1.534c.331,0,.331.049.331.287a3.047,3.047,0,0,1-1.376,2.131,12.659,12.659,0,0,1-2.872,1.714A8.673,8.673,0,0,1,104.2,17.674Zm-50.008,0a3.467,3.467,0,0,1,2.42-1.534c.331,0,.331.049.331.287a3.047,3.047,0,0,1-1.376,2.131A12.659,12.659,0,0,1,52.7,20.271,8.674,8.674,0,0,1,54.193,17.674Z" transform="translate(-9.47)" fill="#252525"/>
      </g>
    </g>
    <path id="パス_3143" data-name="パス 3143" d="M13.424-10.688c-.384.128-.384.128-1.568.128H8.976v-1.376a7.318,7.318,0,0,1,.08-1.152H6.832a6.165,6.165,0,0,1,.08,1.168v1.376H3.776a12.446,12.446,0,0,1-1.728-.08A13.118,13.118,0,0,1,2.112-9.1v2.32a11.9,11.9,0,0,1-.08,1.344H4.176c-.032-.352-.048-.784-.048-1.28V-8.784h7.808A7.913,7.913,0,0,1,8.1-2.368,10.522,10.522,0,0,1,4.688-1.04a5.864,5.864,0,0,1,1.28,1.9A14.506,14.506,0,0,0,9.152-.576,9.368,9.368,0,0,0,13.1-4.992a13.429,13.429,0,0,0,1.008-3.872,2.547,2.547,0,0,1,.24-.88Zm12.24,4.112h2.288a10.817,10.817,0,0,1,1.456.064V-8.32a7.435,7.435,0,0,1-1.472.112H21.648a7.365,7.365,0,0,1-1.456-.112v1.84a8.755,8.755,0,0,1,1.472-.1h2.144v5.152H20.672a7.226,7.226,0,0,1-1.472-.1V.272A12.18,12.18,0,0,1,20.688.208h8.24a12.519,12.519,0,0,1,1.488.064V-1.52a7.307,7.307,0,0,1-1.488.1H25.664Zm12.72-4.32a8.122,8.122,0,0,1,.08-1.488H36.32a8.451,8.451,0,0,1,.064,1.472L36.4-3.488a12.057,12.057,0,0,0,.048,1.472,2.212,2.212,0,0,0,.784,1.632C37.856.1,38.96.3,40.976.3c.976,0,2.992-.1,3.936-.192,1.7-.16,1.776-.176,2.112-.176l-.1-2.128a9.453,9.453,0,0,1-1.824.384,30.174,30.174,0,0,1-3.712.256c-1.552,0-2.464-.128-2.736-.416-.224-.224-.288-.592-.288-1.52a1.062,1.062,0,0,1,.016-.208V-5.808a27.09,27.09,0,0,0,6.832-2.208c.848-.416,1.328-.64,1.44-.688l-1.28-1.808c-1.04.976-4.576,2.4-6.992,2.848Zm6.464-1.728a10.233,10.233,0,0,1,1.584,2.448l1.152-.528a10.173,10.173,0,0,0-1.6-2.432Zm4.672.944A9.413,9.413,0,0,0,47.952-14l-1.1.512A11.907,11.907,0,0,1,48.384-11.1Zm.736,6.656a17.565,17.565,0,0,1,2.608-.08h8.5a17.565,17.565,0,0,1,2.608.08V-7.248a15.713,15.713,0,0,1-2.592.112H52.848a15.713,15.713,0,0,1-2.592-.112ZM79.2-.736a34.313,34.313,0,0,0-5.3-4.528,19.283,19.283,0,0,0,2.336-4.08,3.231,3.231,0,0,1,.512-.864l-1.184-1.424a3.466,3.466,0,0,1-1.424.176l-5.344.08h-.384a7,7,0,0,1-1.408-.1l.064,2.032a13.68,13.68,0,0,1,1.744-.112l4.8-.08.144-.016a2.969,2.969,0,0,0,.352-.016.471.471,0,0,0-.048.144l-.048.112-.08.176a15.212,15.212,0,0,1-3.328,4.816A16.03,16.03,0,0,1,65.36-.96a5.98,5.98,0,0,1,1.3,1.776,19.348,19.348,0,0,0,6.1-4.624A31.55,31.55,0,0,1,77.664.944Zm-3.216-11.84a10.8,10.8,0,0,1,1.68,2.384l1.072-.592a10.369,10.369,0,0,0-1.68-2.352Zm4.592.8a9.253,9.253,0,0,0-1.664-2.256L77.9-13.52a11.788,11.788,0,0,1,1.632,2.32Z" transform="translate(251.761 135.206)" fill="#252525"/>
  </g>
</svg>
