<svg id="グループ_93" data-name="グループ 93" xmlns="http://www.w3.org/2000/svg" width="155.647" height="48.003" viewBox="0 0 155.647 48.003">
  <rect id="要素_-_1" data-name="要素 - 1" width="46.129" height="4.194" transform="translate(0 43.81)"/>
  <g id="グループ_91" data-name="グループ 91" transform="translate(1.858)">
    <path id="パス_1854" data-name="パス 1854" d="M517.612,27.772a3.747,3.747,0,0,0,2.737-.815,5.558,5.558,0,0,0,1.208-2.232,8.112,8.112,0,0,0,.475-2.458c0-.881-.454-2.358-3.5-2.358a3.251,3.251,0,0,0-2.871,1.886,7.492,7.492,0,0,0-.952,3.782C514.712,26.236,514.995,27.772,517.612,27.772Z" transform="translate(-415.561 -16.001)"/>
    <path id="パス_1855" data-name="パス 1855" d="M161.875,27.278c-1.215,1.038-2.453,2.075-3.675,3.081a19.415,19.415,0,0,1-4.611,2.988,21.261,21.261,0,0,0,1.466-3.584,18.446,18.446,0,0,0,.878-5.374,7.976,7.976,0,0,0-.7-3.3,15.948,15.948,0,0,0-2.021-3.132q.728-1.032,1.545-2.2a5.332,5.332,0,0,0,1.174-2.922,1.86,1.86,0,0,0-1.715-1.852l-.067-.014-2.638-.112a3.515,3.515,0,0,0-3.2,1.952,7.573,7.573,0,0,0-.946,3.716,1.738,1.738,0,0,0,.252.9,50.15,50.15,0,0,1-3.069,4.571c-1.062,1.417-2.377,2.984-3.931,4.684l-.092.109-.579.505a37.254,37.254,0,0,1-7.42,5.281,13.817,13.817,0,0,1-6.191,1.566A2.083,2.083,0,0,1,124.31,32.9a5.3,5.3,0,0,1-.5-2.262l.613-.263a33.244,33.244,0,0,0,6.688-3.408c2.749-2,4.143-4.4,4.143-7.135,0-3.2-1.839-4.963-5.179-4.963s-6.3,1.653-8.8,4.913a17.511,17.511,0,0,0-3.209,6.7l-.876.818c-1.073,1-2.16,1.98-3.224,2.9-3.127,2.642-4.265,3.015-4.605,3.054A3.729,3.729,0,0,1,109.1,31.5a23.066,23.066,0,0,1,.684-5.074c.462-1.99,1.258-4.684,2.366-8.01l.911-2.732h-6.293l-.209.531a61.716,61.716,0,0,0-2.585,8.032q-.219.9-.386,1.757l-1.131,1.382a6.165,6.165,0,0,1-1.607,1.482,2.957,2.957,0,0,1-1.488.381c-.952,0-2.058-.664-3.293-1.973a32.277,32.277,0,0,0,1.771-4.949,19.154,19.154,0,0,0,.733-4.773,1.761,1.761,0,0,0-1.815-1.978,7.343,7.343,0,0,0-3.049.613c-.848.371-1.545,1.536-2.331,3.894a17.822,17.822,0,0,0-1.047,5.5v.058l.2,1.425A20.967,20.967,0,0,1,88,32.142c-.794,1.088-1.535,1.663-2.144,1.663-.7,0-1.115-1.431-1.115-3.828A32.927,32.927,0,0,1,85.8,22.187c.178-.783.685-2.649,1.508-5.546l.327-1.152-6.259.452-.175.534A58.968,58.968,0,0,0,79.28,23.8q-.27,1.417-.429,2.819l-.764.667a37.26,37.26,0,0,1-7.42,5.281,13.817,13.817,0,0,1-6.191,1.566A2.083,2.083,0,0,1,62.451,32.9a5.3,5.3,0,0,1-.5-2.262l.613-.263a33.245,33.245,0,0,0,6.688-3.408c2.749-2,4.143-4.4,4.143-7.135,0-3.2-1.839-4.963-5.179-4.963a9.888,9.888,0,0,0-6.432,2.422l.118-.139c-2.136.3-5.087-2.466-5.232-2.6l.005-.007-.542-.488c-.7-.631-1.3-1.216-1.779-1.725q-.291-.326-.606-.7A30.464,30.464,0,0,0,55.6,2.575,2.789,2.789,0,0,0,55.167.768,2.079,2.079,0,0,0,53.46.163,6.354,6.354,0,0,0,50.8.488a3.1,3.1,0,0,0-1.381,1.86,21.736,21.736,0,0,0-1.405,7.228,6.8,6.8,0,0,0,.123,1.269,5.787,5.787,0,0,0,.263.947,79.561,79.561,0,0,1-5.77,14.54c-3.255,6.18-4.823,6.661-5.227,6.661-.333,0-.582-.567-.7-.905a12.684,12.684,0,0,1-.468-3.954c0-1.377.126-3.282.376-5.665s.519-4.334.8-5.779l1.566-7.617c.016-.066.144-.518.965-3.268a12.807,12.807,0,0,0,.633-3.663A1.775,1.775,0,0,0,39.663.45,4.812,4.812,0,0,0,37.507.109a3.6,3.6,0,0,0-2.765.846c-.361.4-.752,1.247-1.161,4.725C33.3,8.046,32.165,11.536,30.2,16.05A65.669,65.669,0,0,1,23.64,27.914c-3.181,4.418-4.916,5.078-5.668,5.078-.157,0-.572,0-.572-1.387a20.751,20.751,0,0,1,.627-3.858c.42-1.854.744-3.224.957-4.049l1.962-6.731c1.85-6.5,2.749-10.821,2.749-13.2C23.695.49,22.081,0,21.12,0c-1.166,0-2.727.708-4.773,2.163a53.389,53.389,0,0,0-6.51,5.68l-.367.367,1.54,4.618,1.811-1.584a40.255,40.255,0,0,1,3.373-2.63c.33-.225.592-.4.8-.525a11.932,11.932,0,0,1-.481,2.236l-3.96,13.992a27.293,27.293,0,0,0-1.227,7.561,8.5,8.5,0,0,0,1.463,5.105,4.756,4.756,0,0,0,3.988,2.136c2.091,0,4.291-1.061,6.541-3.155a34.65,34.65,0,0,0,5.18-6.509q.828-1.29,1.608-2.636-.006.466-.005,1.043a21.568,21.568,0,0,0,.913,6.729c1.029,3,2.793,4.528,5.243,4.528,2.211,0,4.476-1.424,6.739-4.243a46.756,46.756,0,0,0,5.147-8.943c1.016-2.214,2.21-5.154,3.551-8.74l.2-.539.01.013-.014.006c.785,1.107,6.078,3.969,6.683,4.294a17.667,17.667,0,0,0-2.861,9.826,10.659,10.659,0,0,0,1.622,5.793,5.662,5.662,0,0,0,5.077,2.751c5.311,0,10.839-2.013,16.433-5.982a8.785,8.785,0,0,0,1.324,3.392,5.244,5.244,0,0,0,4.545,2.427c3.591,0,6.631-2.37,9.045-7.047a8.6,8.6,0,0,0,5.661,2.326,7.4,7.4,0,0,0,3.672-.931,14.216,14.216,0,0,0,.286,2.288c.662,2.869,2.256,3.472,3.476,3.472a12.8,12.8,0,0,0,6.288-2.179,26.847,26.847,0,0,0,4.762-3.546,10.28,10.28,0,0,0,1.292,3.028,5.662,5.662,0,0,0,5.077,2.751c5.4,0,9.587-1.071,15.277-5.173,0,0,3.525-2.864,4.4-3.793s1.626-1.792,2.248-2.579c.906-1.125,2.144-2.84,3.688-5.108.018.064.033.127.045.189a7.748,7.748,0,0,1,.147,1.518,16.408,16.408,0,0,1-1.276,5.347c-.913,2.421-1.46,2.9-1.58,2.984a10.777,10.777,0,0,1-1.583-.2,11.836,11.836,0,0,0-1.994-.231,1.943,1.943,0,0,0-1.835,1.391A7.979,7.979,0,0,0,141.4,36.6a2.364,2.364,0,0,0,.79,2,3.606,3.606,0,0,0,2.219.525,12.667,12.667,0,0,0,2.939-.295,8.5,8.5,0,0,0,1.894-.7,8.381,8.381,0,0,0,2.927.672,9.3,9.3,0,0,0,4.212-1.234,47.435,47.435,0,0,0,5.754-3.725l1.128-.9V26.1Zm-35.223-5.416c1.057-1.259,2.064-1.9,2.993-1.9.41,0,.41.061.41.355a3.769,3.769,0,0,1-1.7,2.636,15.659,15.659,0,0,1-3.552,2.121A10.729,10.729,0,0,1,126.652,21.862Zm-61.86,0c1.057-1.259,2.064-1.9,2.993-1.9.41,0,.41.061.41.355a3.769,3.769,0,0,1-1.7,2.636,15.659,15.659,0,0,1-3.552,2.121A10.729,10.729,0,0,1,64.792,21.862Z" transform="translate(-9.47)"/>
  </g>
</svg>
